<svg width="34" height="34" viewBox="0 0 34 34" fill="none" xmlns="http://www.w3.org/2000/svg">
<path d="M16.9997 24.0834C17.4011 24.0834 17.7378 23.9474 18.0098 23.6754C18.2808 23.4043 18.4163 23.0681 18.4163 22.6667V18.4167H22.7018C23.1031 18.4167 23.4337 18.2807 23.6934 18.0087C23.9531 17.7377 24.083 17.4014 24.083 17C24.083 16.5987 23.947 16.262 23.675 15.99C23.404 15.7189 23.0677 15.5834 22.6663 15.5834H18.4163V11.298C18.4163 10.8966 18.2808 10.566 18.0098 10.3063C17.7378 10.0466 17.4011 9.91671 16.9997 9.91671C16.5983 9.91671 16.2621 10.0522 15.991 10.3233C15.719 10.5953 15.583 10.932 15.583 11.3334V15.5834H11.2976C10.8962 15.5834 10.5656 15.7189 10.3059 15.99C10.0462 16.262 9.91634 16.5987 9.91634 17C9.91634 17.4014 10.0519 17.7377 10.3229 18.0087C10.5949 18.2807 10.9316 18.4167 11.333 18.4167H15.583V22.7021C15.583 23.1035 15.719 23.4341 15.991 23.6938C16.2621 23.9535 16.5983 24.0834 16.9997 24.0834ZM16.9997 31.1667C15.04 31.1667 13.1983 30.7946 11.4747 30.0504C9.75106 29.3071 8.25176 28.298 6.97676 27.023C5.70176 25.748 4.69262 24.2487 3.94934 22.525C3.20512 20.8014 2.83301 18.9598 2.83301 17C2.83301 15.0403 3.20512 13.1987 3.94934 11.475C4.69262 9.75143 5.70176 8.25212 6.97676 6.97712C8.25176 5.70212 9.75106 4.69251 11.4747 3.94829C13.1983 3.20501 15.04 2.83337 16.9997 2.83337C18.9594 2.83337 20.8011 3.20501 22.5247 3.94829C24.2483 4.69251 25.7476 5.70212 27.0226 6.97712C28.2976 8.25212 29.3067 9.75143 30.05 11.475C30.7942 13.1987 31.1663 15.0403 31.1663 17C31.1663 18.9598 30.7942 20.8014 30.05 22.525C29.3067 24.2487 28.2976 25.748 27.0226 27.023C25.7476 28.298 24.2483 29.3071 22.5247 30.0504C20.8011 30.7946 18.9594 31.1667 16.9997 31.1667Z" fill="white"/>
</svg>
