<svg width="70" height="70" viewBox="0 0 70 70" fill="none" xmlns="http://www.w3.org/2000/svg">
<rect width="70" height="70" rx="9" fill="#F6FBFF"/>
<path fill-rule="evenodd" clip-rule="evenodd" d="M24.6514 25.6211H44.1543C44.4766 25.6211 44.7402 25.8838 44.7402 26.207V33.4414L45.585 34.207C47.1182 35.5957 49.5644 36.7529 52.126 37.3027L53.2412 37.541C53.3691 37.5693 53.4805 37.6396 53.5635 37.7353C56.1367 36.4385 57.8301 33.7539 57.8301 30.8545C57.8301 26.8633 54.7109 23.4941 50.7353 23.1836C50.4326 23.1602 50.1973 22.9131 50.1934 22.6123C50.1016 18.3643 46.5684 14.9072 42.3184 14.9072C40.2187 14.9072 38.2432 15.7236 36.7578 17.2051C36.626 17.335 36.4434 17.3965 36.2598 17.3691C36.0762 17.3428 35.917 17.2314 35.8291 17.0684C34.6221 14.8447 32.3037 13.4629 29.7783 13.4629C25.9863 13.4629 22.8984 16.5488 22.8984 20.3418C22.8984 21.0488 23.0059 21.7471 23.2168 22.416C23.2725 22.5879 23.2451 22.7744 23.1406 22.9238C23.0371 23.0723 22.874 23.166 22.6943 23.1768C18.6553 23.4355 15.4922 26.8076 15.4922 30.8545C15.4922 33.6396 16.9941 36.1738 19.3838 37.5361V31.2256C19.3838 31.0771 19.4395 30.9336 19.543 30.8252L24.2236 25.8076C24.3369 25.6885 24.4922 25.6211 24.6514 25.6211ZM36.96 51.2754H23.8428C23.7754 51.2754 23.7197 51.333 23.7197 51.4014V55.207C23.7197 55.2754 23.7754 55.332 23.8428 55.332H40.0518C40.1191 55.332 40.1797 55.2754 40.1797 55.207V54.2842C38.8721 53.4414 37.8164 52.4502 36.96 51.2754ZM44.1543 42.0771C43.4336 42.0771 42.7959 42.8359 42.7959 43.4346C42.7959 44.127 42.9072 44.3916 43.2939 44.6133C43.5127 44.7393 43.6289 44.9922 43.5771 45.2402L43.0635 47.7197H45.2422L44.7285 45.2402C44.6768 44.9922 44.792 44.7393 45.0117 44.6133C45.3145 44.4404 45.5098 44.2656 45.5098 43.4346C45.5088 42.8369 44.8711 42.0771 44.1543 42.0771ZM44.1543 37.7803C45.7637 39.0293 47.8711 40.0215 50.1728 40.6113C50.3955 44.0293 49.9219 46.6309 48.7266 48.5557C47.7627 50.1094 46.3047 51.2529 44.1533 52.1396C41.998 51.2529 40.54 50.1094 39.5762 48.5557C38.3809 46.6309 37.9072 44.0293 38.1338 40.6113C40.4336 40.0215 42.541 39.0293 44.1543 37.7803ZM44.1543 40.9053C45.5762 40.9053 46.6797 42.2646 46.6797 43.4346C46.6797 44.1348 46.584 44.8457 45.9551 45.3789L46.5371 48.1875C46.5732 48.3594 46.5293 48.5391 46.418 48.6758C46.3066 48.8125 46.1387 48.8916 45.9639 48.8916H42.3418C42.167 48.8916 41.999 48.8125 41.8877 48.6758C41.7764 48.5391 41.7324 48.3594 41.7686 48.1875L42.3506 45.3789C41.7217 44.8457 41.626 44.1348 41.626 43.4346C41.625 42.2646 42.7285 40.9053 44.1543 40.9053ZM43.5088 35.0752L44.1543 34.4912L44.7998 35.0752C46.5049 36.6191 49.0859 37.8486 51.8828 38.4482L52.5723 38.5967L52.6357 39.3008C53.0498 43.8398 52.4609 47.3174 50.8389 49.9316C49.4922 52.0977 47.4766 53.6426 44.4971 54.792L44.1543 54.9258L43.8076 54.792C40.8281 53.6426 38.8125 52.0977 37.4658 49.9316C35.8447 47.3174 35.2549 43.8398 35.6689 39.3008L35.7324 38.5967L36.4258 38.4482C39.2227 37.8477 41.8047 36.6191 43.5088 35.0752ZM37.4463 39.5732C39.8838 39.0049 42.1904 37.9141 43.7764 36.5791C43.9951 36.3955 44.3145 36.3955 44.5293 36.5791C46.1143 37.9141 48.4209 39.0049 50.8594 39.5732C51.1064 39.6309 51.29 39.8428 51.3096 40.0967C51.624 43.9814 51.1064 46.9502 49.7246 49.1738C48.5889 51.0039 46.8887 52.3203 44.3711 53.3164C44.2998 53.3447 44.2275 53.3584 44.1562 53.3584C44.0811 53.3584 44.0088 53.3447 43.9414 53.3164C41.4238 52.3203 39.7187 51.0039 38.584 49.1738C37.2021 46.9502 36.6836 43.9814 36.999 40.0967C37.0156 39.8428 37.1992 39.6309 37.4463 39.5732ZM24.0654 30.6396H21.3203L24.0654 27.6943V30.6396ZM32.1006 29.9795V40.2412H23.4365V31.8115H24.6514C24.9775 31.8115 25.2412 31.5488 25.2412 31.2256V29.9795H32.1006ZM43.5693 26.793V33.4414L42.7207 34.207C41.1875 35.5957 38.7412 36.7529 36.1797 37.3027L35.0684 37.541C34.8174 37.5957 34.6299 37.8057 34.6064 38.0615L34.5029 39.1943C34.0889 43.75 34.6465 47.3262 36.2119 50.1045H23.8428C23.1299 50.1045 22.5439 50.6865 22.5439 51.4023V55.208C22.5439 55.9229 23.1299 56.5049 23.8428 56.5049H40.0518C40.7686 56.5049 41.3506 55.9229 41.3506 55.208V54.9678C41.9795 55.2988 42.6572 55.6035 43.3857 55.8848L43.5693 55.9551V58.1895H20.5566V31.8115H22.2656V40.8271C22.2656 41.1504 22.5283 41.4131 22.8516 41.4131H32.6865C33.0127 41.4131 33.2725 41.1504 33.2725 40.8271V29.3936C33.2725 29.0693 33.0137 28.8076 32.6865 28.8076H25.2412V26.793H43.5693ZM27.8027 42.5801C27.4805 42.5801 27.2168 42.8428 27.2168 43.166C27.2168 43.4893 27.4795 43.752 27.8027 43.752H33.3916C33.7139 43.752 33.9775 43.4893 33.9775 43.166C33.9775 42.8428 33.7148 42.5801 33.3916 42.5801H27.8027ZM30.2041 45.1152C29.8818 45.1152 29.6182 45.3779 29.6182 45.7012C29.6182 46.0244 29.8809 46.2871 30.2041 46.2871H33.3906C33.7129 46.2871 33.9766 46.0244 33.9766 45.7012C33.9766 45.3779 33.7139 45.1152 33.3906 45.1152H30.2041ZM33.3916 47.6504H27.8027C27.4805 47.6504 27.2168 47.9131 27.2168 48.2363C27.2168 48.5596 27.4795 48.8223 27.8027 48.8223H33.3916C33.7139 48.8223 33.9775 48.5596 33.9775 48.2363C33.9766 47.9131 33.7139 47.6504 33.3916 47.6504ZM22.6953 42.5801C22.373 42.5801 22.1094 42.8428 22.1094 43.166C22.1094 43.4893 22.3721 43.752 22.6953 43.752H25.8818C26.2041 43.752 26.4678 43.4893 26.4678 43.166C26.4678 42.8428 26.2051 42.5801 25.8818 42.5801H22.6953ZM22.6953 45.1152C22.373 45.1152 22.1094 45.3779 22.1094 45.7012C22.1094 46.0244 22.3721 46.2871 22.6953 46.2871H28.2842C28.6064 46.2871 28.8701 46.0244 28.8701 45.7012C28.8701 45.3779 28.6074 45.1152 28.2842 45.1152H22.6953ZM22.6953 47.6504C22.373 47.6504 22.1094 47.9131 22.1094 48.2363C22.1094 48.5596 22.3721 48.8223 22.6953 48.8223H25.8818C26.2041 48.8223 26.4678 48.5596 26.4678 48.2363C26.4678 47.9131 26.2051 47.6504 25.8818 47.6504H22.6953ZM34.3154 34.8516C34.3154 34.5283 34.5781 34.2656 34.9014 34.2656H39.6221C39.9443 34.2656 40.208 34.5283 40.208 34.8516C40.208 35.1758 39.9453 35.4375 39.6221 35.4375H34.9004C34.5781 35.4375 34.3154 35.1758 34.3154 34.8516ZM34.3154 32.2061C34.3154 31.8828 34.5781 31.6201 34.9014 31.6201H40.5225C40.8447 31.6201 41.1084 31.8828 41.1084 32.2061C41.1084 32.5293 40.8457 32.792 40.5225 32.792H34.9004C34.5781 32.792 34.3154 32.5293 34.3154 32.2061ZM34.3154 29.5596C34.3154 29.2363 34.5781 28.9736 34.9014 28.9736H40.5225C40.8447 28.9736 41.1084 29.2363 41.1084 29.5596C41.1084 29.8838 40.8457 30.1455 40.5225 30.1455H34.9004C34.5781 30.1455 34.3154 29.8838 34.3154 29.5596Z" fill="url(#paint0_linear_2719_18988)"/>
<defs>
<linearGradient id="paint0_linear_2719_18988" x1="36.6615" y1="13.4626" x2="36.6615" y2="58.1891" gradientUnits="userSpaceOnUse">
<stop stop-color="#03A8DD"/>
<stop offset="1" stop-color="#4D81C2"/>
</linearGradient>
</defs>
</svg>
