<svg width="70" height="70" viewBox="0 0 70 70" fill="none" xmlns="http://www.w3.org/2000/svg">
<rect width="70" height="70" rx="9" fill="#F6FBFF"/>
<path fill-rule="evenodd" clip-rule="evenodd" d="M23.3857 21.6709C23.3857 23.6777 21.7529 25.3105 19.7461 25.3105C17.7393 25.3105 16.1064 23.6777 16.1064 21.6709C16.1064 19.6641 17.7393 18.0313 19.7461 18.0313C21.7529 18.0313 23.3857 19.6641 23.3857 21.6709ZM38.6836 49.8975H32.9658C32.6426 49.8975 32.3799 49.6348 32.3799 49.3115C32.3799 48.9873 32.6426 48.7256 32.9658 48.7256H38.6836C39.0068 48.7256 39.2695 48.9873 39.2695 49.3115C39.2695 49.6348 39.0078 49.8975 38.6836 49.8975ZM40.5 46.5869H31.1494V58.791H40.5V46.5869ZM32.9658 52.1025H38.6836C39.0068 52.1025 39.2695 52.3652 39.2695 52.6885C39.2695 53.0127 39.0068 53.2744 38.6836 53.2744H32.9658C32.6426 53.2744 32.3799 53.0127 32.3799 52.6885C32.3799 52.3652 32.6426 52.1025 32.9658 52.1025ZM32.3799 56.0664C32.3799 55.7422 32.6426 55.4805 32.9658 55.4805H38.6836C39.0068 55.4805 39.2695 55.7422 39.2695 56.0664C39.2695 56.3896 39.0068 56.6523 38.6836 56.6523H32.9658C32.6426 56.6523 32.3799 56.3896 32.3799 56.0664ZM54.5996 31.2031C54.5557 30.8828 54.2607 30.6582 53.9395 30.7021C53.6182 30.7461 53.3945 31.042 53.4385 31.3623C53.5479 32.1631 53.6035 32.9824 53.6035 33.7969C53.6035 40.6221 49.6191 46.9268 43.4541 49.8604C43.1621 50 43.0381 50.3496 43.1768 50.6416C43.3174 50.9375 43.6719 51.0557 43.958 50.9189C51.4395 47.3398 55.7236 39.4131 54.5996 31.2031ZM54.6934 28.1182H52.0752C52.2256 28.4609 52.4814 28.6719 52.7207 28.6719H54.0498C54.2871 28.6719 54.5439 28.4609 54.6934 28.1182ZM55.0547 25.9746H51.7139C51.4453 25.9746 51.2275 26.1924 51.2275 26.46C51.2275 26.7285 51.4453 26.9463 51.7139 26.9463H55.0547C55.3223 26.9463 55.541 26.7285 55.541 26.46C55.541 26.1924 55.3232 25.9746 55.0547 25.9746ZM48.5811 18.8682C48.5811 21.7051 50.3877 22.6152 51.623 24.8066C51.6533 24.8057 51.6836 24.8027 51.7139 24.8027H55.0547C55.085 24.8027 55.1152 24.8057 55.1455 24.8066C56.3809 22.6152 58.1875 21.7051 58.1875 18.8682C58.1875 16.2197 56.0322 14.0645 53.3838 14.0645C50.7354 14.0645 48.5811 16.2197 48.5811 18.8682ZM43.415 27.6221L45.1328 26.4404L49.4766 32.751L47.7588 33.9336L43.415 27.6221ZM28.9053 26.0322L31.0127 27.4824L26.4004 34.1836L24.293 32.7324L28.9053 26.0322ZM29.8711 37.4941C29.6562 37.8018 29.2314 37.8789 28.9229 37.6641C28.6143 37.4492 28.5381 37.0244 28.7529 36.7158L29.7461 35.2881C30.0889 34.7949 30.8662 34.959 30.9736 35.5566C31.0059 35.7344 30.9668 35.918 30.8643 36.0664L29.8711 37.4941ZM31.5088 36.3633L30.4443 37.8936L29.7539 38.8857C29.5391 39.1943 29.6152 39.6191 29.9238 39.834C30.2324 40.0479 30.6572 39.9717 30.8711 39.6631L33.2461 36.251C33.3496 36.1025 33.3877 35.9199 33.3564 35.7412C33.249 35.1436 32.4717 34.9785 32.1289 35.4727L31.5088 36.3633ZM33.0977 40.0703C32.9941 40.2187 32.8379 40.3184 32.6592 40.3506C32.3867 40.4004 32.1152 40.2812 31.9658 40.0488C31.8164 39.8154 31.8203 39.5225 31.9795 39.2939L33.2832 37.4199C33.627 36.9268 34.4043 37.0918 34.5107 37.6895C34.543 37.8682 34.5039 38.0498 34.4004 38.1982L33.0977 40.0703ZM35.0566 40.8623L35.8242 39.7588C35.9277 39.6094 35.9668 39.4287 35.9346 39.25C35.8281 38.6543 35.0518 38.4854 34.707 38.9814L33.9395 40.085C33.7813 40.3115 33.7773 40.6045 33.9238 40.8369C34.0723 41.0732 34.3447 41.1924 34.6191 41.1426C34.7969 41.1094 34.9531 41.0107 35.0566 40.8623ZM34.5742 29.5898C35.832 29.1211 37.1035 28.7656 38.4141 28.4727C38.8848 28.3682 39.3242 28.3691 39.7607 28.5879C40.79 29.1045 41.9268 29.1719 43.0479 28.9805L43.1973 28.9551L46.5771 33.8652L46.4326 34.0049C45.9814 34.4395 45.415 34.7598 44.7988 34.8848L44.7061 34.9033L38.3105 30.876C38.2617 30.8447 38.2061 30.8271 38.1484 30.8232L36.5117 30.7129C36.2812 30.6973 36.0713 30.7813 35.9141 30.9512C35.0518 31.8877 33.9316 32.6328 32.6397 32.0986L32.3701 31.9873L33.4756 30.375C33.749 29.9756 34.127 29.7568 34.5742 29.5898ZM39.1182 40.3936C39.3301 40.6523 39.3662 41.0312 39.1787 41.3271C38.9453 41.6982 38.4492 41.8105 38.0781 41.5771L36.2217 40.4082L36.3984 40.1562C36.835 39.5361 36.6729 38.668 36.0537 38.2363C35.8672 38.1064 35.6543 38.0254 35.4287 37.999L35.2256 37.9756L35.2197 37.7705C35.2021 37.1562 34.792 36.6318 34.1953 36.4756L33.9707 36.416L34.0264 36.1904C34.2627 35.2227 33.4277 34.3271 32.4453 34.5039C32.1816 34.5518 31.9395 34.6719 31.7441 34.8564L31.5547 35.0352L31.3945 34.8301C30.8252 34.0977 29.7041 34.127 29.1738 34.8896L28.7666 35.4746L28.5664 35.2744C28.1777 34.8848 27.8242 34.4541 27.5547 33.9727L27.4824 33.8438L31.0264 28.6943L31.2148 28.8018C31.7373 29.0986 32.3428 29.2705 32.9316 29.3672L33.3457 29.4355L33.0732 29.7549C33.0117 29.8271 32.9521 29.9004 32.8984 29.9795L31.6777 31.7598C31.5166 31.9951 31.5859 32.3184 31.8301 32.4668C32.4248 32.8281 33.0898 33.0283 33.79 32.96C34.8115 32.8604 35.6836 32.2148 36.3672 31.4893L36.4443 31.4082L38.0127 31.5146L44.4424 35.5635C44.8115 35.7959 44.9248 36.2949 44.6924 36.6641C44.459 37.0352 43.9629 37.1475 43.5918 36.9141L40.2168 34.7891C40.0547 34.6865 39.8379 34.7363 39.7354 34.8984C39.6328 35.0605 39.6826 35.2773 39.8447 35.3799L42.9482 37.335C43.3115 37.5703 43.4189 38.0635 43.1885 38.4297C42.9561 38.7979 42.457 38.9111 42.0879 38.6797L39.2432 36.8887C39.0801 36.7861 38.8643 36.835 38.7617 36.998C38.6592 37.1602 38.708 37.377 38.8711 37.4795L41.0488 38.8506C41.416 39.0869 41.5254 39.5791 41.2939 39.9473C41.0625 40.3164 40.5635 40.4336 40.1953 40.1982L38.2773 38.9746C38.1152 38.8711 37.8984 38.9189 37.7949 39.0811C37.6914 39.2432 37.7393 39.46 37.9014 39.5625L39.1465 40.3584L39.1182 40.3936ZM18.3135 30.7041C18.3691 30.3857 18.1562 30.082 17.8379 30.0264C17.5186 29.9697 17.2148 30.1836 17.1592 30.502C15.6846 38.917 19.9766 47.2314 27.6914 50.9189C27.9775 51.0557 28.3311 50.9375 28.4727 50.6416C28.6113 50.3496 28.4873 50 28.1953 49.8604C22.0293 46.9268 18.0459 40.6221 18.0459 33.7969C18.0459 32.7588 18.1357 31.7187 18.3135 30.7041ZM27.8965 17.8789C33.5664 15.0479 40.3662 15.4668 45.6543 18.9805C45.7539 19.0469 45.8662 19.0781 45.9785 19.0781C46.5547 19.0781 46.7861 18.3252 46.3037 18.0039C40.6709 14.2568 33.415 13.8125 27.374 16.8311C27.085 16.9756 26.9668 17.3271 27.1113 17.6162C27.2559 17.9062 27.6074 18.0234 27.8965 17.8789ZM23.6562 16.6914L22.7471 17.2793C22.4707 17.458 22.1279 17.4795 21.8311 17.3359C21.6699 17.2588 21.5039 17.1895 21.3369 17.1309C21.0264 17.0225 20.7998 16.7656 20.7305 16.4434L20.5029 15.3857H18.9893L18.7627 16.4434C18.6934 16.7656 18.4668 17.0225 18.1562 17.1309C17.9893 17.1904 17.8223 17.2588 17.6621 17.3359C17.3652 17.4795 17.0234 17.458 16.7461 17.2793L15.8369 16.6914L14.7676 17.7617L15.3545 18.6709C15.5332 18.9473 15.5547 19.29 15.4111 19.5869C15.334 19.7471 15.2646 19.9141 15.2061 20.0811C15.0977 20.3916 14.8398 20.6182 14.5186 20.6875L13.4609 20.9141V22.4277L14.5186 22.6553C14.8398 22.7236 15.0977 22.9502 15.2061 23.2607C15.2646 23.4287 15.334 23.5947 15.4111 23.7549C15.5547 24.0518 15.5332 24.3945 15.3545 24.6709L14.7676 25.5801L15.8379 26.6504L16.7471 26.0625C17.0244 25.8838 17.3662 25.8623 17.6631 26.0059C17.8242 26.083 17.9902 26.1523 18.1572 26.2109C18.4678 26.3193 18.6943 26.5771 18.7637 26.8984L18.9912 27.9561H20.5049L20.7324 26.8984C20.8018 26.5771 21.0283 26.3193 21.3389 26.2109C21.5059 26.1523 21.6719 26.083 21.833 26.0059C22.1299 25.8623 22.4717 25.8838 22.749 26.0625L23.6582 26.6504L24.7285 25.5801L24.1416 24.6709C23.9629 24.3945 23.9414 24.0518 24.085 23.7549C24.1621 23.5947 24.2314 23.4277 24.29 23.2607C24.3994 22.9502 24.6562 22.7236 24.9775 22.6553L26.0352 22.4277V20.9141L24.9775 20.6875C24.6553 20.6182 24.3984 20.3916 24.29 20.0811C24.2314 19.9141 24.1621 19.7471 24.085 19.5869C23.9424 19.29 23.9629 18.9473 24.1426 18.6709L24.7295 17.7617L23.6562 16.6914Z" fill="url(#paint0_linear_2719_19008)"/>
<defs>
<linearGradient id="paint0_linear_2719_19008" x1="35.825" y1="14.0647" x2="35.825" y2="58.7912" gradientUnits="userSpaceOnUse">
<stop stop-color="#03A8DD"/>
<stop offset="1" stop-color="#4D81C2"/>
</linearGradient>
</defs>
</svg>
