<svg width="70" height="70" viewBox="0 0 70 70" fill="none" xmlns="http://www.w3.org/2000/svg">
<rect width="70" height="70" rx="9" fill="#F6FBFF"/>
<path fill-rule="evenodd" clip-rule="evenodd" d="M18.5225 19.915L20.8994 22.9668L23.2773 19.915H22.3164C21.9932 19.915 21.7305 19.6523 21.7305 19.3291V15.0332H20.0693V19.3291C20.0693 19.6523 19.8066 19.915 19.4834 19.915H18.5225ZM48.5811 42.3047C47.5449 43.6406 46.3037 44.7871 44.8906 45.7129C44.6201 45.8897 44.5449 46.2529 44.7217 46.5244C44.834 46.6953 45.0215 46.7891 45.2129 46.7891C45.3223 46.7891 45.4336 46.7578 45.5332 46.6934C47.0547 45.6963 48.3916 44.4619 49.5078 43.0225C49.7061 42.7666 49.6592 42.3984 49.4033 42.2002C49.1484 42.002 48.7793 42.0488 48.5811 42.3047ZM38.2656 46.625V43.9092H34.9521V46.625L36.2598 45.6533C36.4668 45.499 36.751 45.499 36.958 45.6533L38.2656 46.625ZM42.6533 53.6172H30.5654V43.9092H33.7803V47.79C33.7803 48.0107 33.9053 48.2139 34.1025 48.3135C34.3008 48.4131 34.5371 48.3926 34.7158 48.2598L36.6094 46.8535L38.5029 48.2598C38.6055 48.3369 38.7285 48.376 38.8516 48.376C38.9414 48.376 39.0322 48.3555 39.1143 48.3135C39.3115 48.2139 39.4365 48.0107 39.4365 47.79V43.9092H42.6523V53.6172H42.6533ZM54.6133 28.2725V25.9668H46.4902V40.1074H57.5049V28.8584H55.1992C54.874 28.8584 54.6133 28.5957 54.6133 28.2725ZM48.5625 27.8438H52.6191C52.9434 27.8438 53.2051 28.1055 53.2051 28.4297C53.2051 28.7529 52.9434 29.0156 52.6191 29.0156H48.5625C48.2393 29.0156 47.9766 28.7529 47.9766 28.4297C47.9766 28.1055 48.2402 27.8438 48.5625 27.8438ZM48.5625 30.915H55.5703C55.8945 30.915 56.1562 31.1777 56.1562 31.501C56.1562 31.8252 55.8945 32.0869 55.5703 32.0869H48.5625C48.2393 32.0869 47.9766 31.8252 47.9766 31.501C47.9766 31.1777 48.2402 30.915 48.5625 30.915ZM48.5625 33.9873H55.5703C55.8945 33.9873 56.1562 34.25 56.1562 34.5732C56.1562 34.8965 55.8945 35.1592 55.5703 35.1592H48.5625C48.2393 35.1592 47.9766 34.8965 47.9766 34.5732C47.9766 34.25 48.2402 33.9873 48.5625 33.9873ZM55.5703 37.0596C55.8945 37.0596 56.1562 37.3213 56.1562 37.6455C56.1562 37.9688 55.8945 38.2314 55.5703 38.2314H48.5625C48.2393 38.2314 47.9766 37.9688 47.9766 37.6455C47.9766 37.3213 48.2393 37.0596 48.5625 37.0596H55.5703ZM55.7842 26.7959L56.6748 27.6865H55.7842V26.7959ZM25.085 23.2178C27.9688 19.8369 32.1689 17.8975 36.6094 17.8975C40.9756 17.8975 45.1309 19.7842 48.0088 23.0732C48.2217 23.3174 48.5918 23.3418 48.835 23.1289C49.0791 22.916 49.1035 22.5459 48.8906 22.3018C45.79 18.7578 41.3135 16.7256 36.6094 16.7256C31.8252 16.7256 27.2998 18.8145 24.1934 22.457C23.9834 22.7031 24.0127 23.0732 24.2588 23.2832C24.3691 23.377 24.5039 23.4238 24.6387 23.4238C24.8047 23.4238 24.9678 23.3535 25.085 23.2178ZM23.2979 40.2588C23.1436 39.9746 22.7871 39.8701 22.5029 40.0244C22.2188 40.1787 22.1133 40.5342 22.2686 40.8184C23.5439 43.1641 25.3965 45.1826 27.627 46.6562C27.7256 46.7217 27.8379 46.7529 27.9492 46.7529C28.1387 46.7529 28.3262 46.6611 28.4385 46.4902C28.6172 46.2197 28.543 45.8564 28.2725 45.6787C26.2031 44.3105 24.4824 42.4365 23.2979 40.2588ZM21.4863 33.8223V38.6318L27.0488 35.9775V33.6602L23.2197 35.5225C23.1377 35.5625 23.0508 35.5811 22.9639 35.5811C22.7725 35.5811 22.5869 35.4873 22.4746 35.3184L21.4863 33.8223ZM18.5811 35.5225L14.7529 33.6602V35.9775L20.3145 38.6318V33.8223L19.3262 35.3184C19.2148 35.4873 19.0293 35.5811 18.8369 35.5811C18.751 35.5811 18.6631 35.5625 18.5811 35.5225ZM20.0137 32.1504L18.6309 34.2432L13.0938 31.5498L14.3613 29.9014L20.0137 32.1504ZM27.4395 29.9014L28.707 31.5498L23.1699 34.2432L21.7871 32.1504L27.4395 29.9014ZM26.0488 29.1934L20.8994 27.1445L15.751 29.1934L20.8994 31.2412L26.0488 29.1934Z" fill="url(#paint0_linear_2719_18971)"/>
<defs>
<linearGradient id="paint0_linear_2719_18971" x1="35.2992" y1="15.033" x2="35.2992" y2="53.6171" gradientUnits="userSpaceOnUse">
<stop stop-color="#03A8DD"/>
<stop offset="1" stop-color="#4D81C2"/>
</linearGradient>
</defs>
</svg>
