<svg width="70" height="73" viewBox="0 0 70 73" fill="none" xmlns="http://www.w3.org/2000/svg">
<rect width="70" height="72.7841" rx="9" fill="#F6FBFF"/>
<path fill-rule="evenodd" clip-rule="evenodd" d="M58.5771 51.4189C58.5771 49.167 56.7441 47.335 54.4922 47.335C52.2402 47.335 50.4082 49.167 50.4082 51.4189C50.4082 53.6709 52.2402 55.5029 54.4922 55.5029C56.7441 55.5039 58.5771 53.6709 58.5771 51.4189ZM25.7109 44.0889H24.0205C24.165 44.4121 24.4893 44.6377 24.8652 44.6377C25.2422 44.6377 25.5654 44.4121 25.7109 44.0889ZM28.2793 41.4805H21.4521C21.7031 42.3105 22.4756 42.917 23.3867 42.917H26.3447C27.2559 42.917 28.0273 42.3105 28.2793 41.4805ZM28.2793 38.873H21.4512C21.4053 38.873 21.3643 38.9141 21.3643 38.96V40.3096H28.3662V38.96C28.3662 38.9131 28.3262 38.873 28.2793 38.873ZM28.3428 35.1465C28.7607 34.3584 29.248 33.748 29.9248 33.168C31.6484 31.6885 32.6377 29.5381 32.6377 27.2686C32.6377 22.9834 29.1504 19.4971 24.8652 19.4971C20.5801 19.4971 17.0938 22.9834 17.0938 27.2686C17.0938 29.5381 18.082 31.6885 19.8057 33.168C20.4824 33.749 20.9707 34.3594 21.3877 35.1465C21.8379 35.9951 22.0664 36.8516 22.0723 37.7002H27.6592C27.665 36.8516 27.8936 35.9951 28.3428 35.1465ZM37.1172 39.1748C37.1172 40.4648 38.167 41.5146 39.457 41.5146C40.7471 41.5146 41.7969 40.4648 41.7969 39.1748C41.7969 37.8848 40.7471 36.835 39.457 36.835C38.167 36.834 37.1172 37.8838 37.1172 39.1748ZM39.457 49.7861C41.3262 49.7861 43.0459 49.1338 44.4023 48.0479C43.541 46.0996 41.6016 44.8164 39.457 44.8164C37.3125 44.8164 35.373 46.0996 34.5117 48.0479C35.8682 49.1338 37.5879 49.7861 39.457 49.7861ZM42.5801 54.4414L41.9463 57.3926C41.9209 57.5117 41.8252 57.5889 41.7031 57.5889H37.2109C37.0889 57.5889 36.9932 57.5117 36.9678 57.3926L36.334 54.4414C36.2275 53.9463 35.8926 53.5674 35.415 53.3994C34.9893 53.25 34.5664 53.0752 34.1582 52.8779C33.7021 52.6582 33.1963 52.6895 32.7705 52.9639L30.2344 54.6035C30.1318 54.6699 30.0098 54.6563 29.9238 54.5703L26.7471 51.3936C26.6602 51.3066 26.6475 51.1846 26.7139 51.083L28.3525 48.5479C28.6279 48.1221 28.6592 47.6162 28.4395 47.1602C28.2422 46.752 28.0664 46.3291 27.918 45.9033C27.75 45.4258 27.3701 45.0908 26.875 44.9844L26.5781 44.9209C26.7607 44.6621 26.8857 44.3613 26.9365 44.0342C28.416 43.7559 29.5381 42.4551 29.5381 40.8965V38.9609C29.5381 38.4648 29.249 38.0361 28.8311 37.8311C28.8115 37.1289 28.9912 36.4268 29.3779 35.6973C29.7285 35.0361 30.1201 34.5469 30.6885 34.0586C31.7109 33.1797 32.5088 32.0967 33.041 30.8945C33.4014 31.0332 33.7949 31.0186 34.1582 30.8428C34.5664 30.6455 34.9893 30.4707 35.415 30.3213C35.8926 30.1543 36.2275 29.7734 36.334 29.2793L36.9678 26.3281C36.9932 26.209 37.0889 26.1318 37.2109 26.1318H41.7031C41.8252 26.1318 41.9209 26.209 41.9463 26.3281L42.5801 29.2793C42.6865 29.7744 43.0215 30.1543 43.499 30.3213C43.9248 30.4707 44.3477 30.6455 44.7559 30.8428C45.2119 31.0625 45.7178 31.0312 46.1436 30.7559L48.6797 29.1172C48.7822 29.0508 48.9043 29.0635 48.9902 29.1504L52.167 32.3271C52.2539 32.4141 52.2666 32.5352 52.2002 32.6377L50.5615 35.1738C50.2861 35.5996 50.2549 36.1055 50.4746 36.5615C50.6719 36.9707 50.8477 37.3926 50.9961 37.8184C51.1641 38.2959 51.5439 38.6309 52.0391 38.7373L54.9893 39.3711C55.1084 39.3965 55.1855 39.4922 55.1855 39.6143V43.0098C54.9658 42.9521 54.7344 42.9219 54.4932 42.9219C53.6006 42.9219 52.8291 43.3262 52.3223 44.0615L52.3125 44.0762C51.9756 44.5645 51.4258 44.792 50.8408 44.6855L50.8252 44.6826C49.9463 44.5215 49.1152 44.7803 48.4844 45.4121C47.8525 46.043 47.5938 46.875 47.7549 47.752L47.7578 47.7695C47.8652 48.3535 47.6377 48.9033 47.1475 49.2412L47.1348 49.25C46.3994 49.7568 45.9951 50.5283 45.9951 51.4209C45.9951 52.3145 46.3994 53.085 47.1338 53.5908L47.1484 53.6016C47.1885 53.6289 47.2266 53.6582 47.2627 53.6885L46.1436 52.9648C45.7178 52.6904 45.2119 52.6582 44.7559 52.8789C44.3477 53.0752 43.9248 53.251 43.499 53.4004C43.0215 53.5664 42.6855 53.9473 42.5801 54.4414ZM48.5547 41.8594C48.5547 46.876 44.4736 50.958 39.457 50.958C34.4404 50.958 30.3594 46.876 30.3594 41.8594C30.3594 36.8428 34.4404 32.7617 39.457 32.7617C44.4727 32.7617 48.5547 36.8428 48.5547 41.8594ZM50.7969 63.1562L52.4873 58.9922C52.4297 58.9238 52.375 58.8535 52.3223 58.7773L52.3135 58.7637C51.9756 58.2744 51.4258 58.0469 50.8418 58.1543L50.8242 58.1572C50.5469 58.209 50.2744 58.2178 50.0107 58.1855L48.3896 62.1797L49.5518 61.6025C49.7021 61.5283 49.8779 61.5225 50.0332 61.585C50.1885 61.6484 50.3086 61.7744 50.3652 61.9326L50.7969 63.1562ZM58.1455 58.1543C57.5605 58.0469 57.0107 58.2744 56.6738 58.7637L56.665 58.7764C56.6133 58.8525 56.5576 58.9238 56.5 58.9922L58.1904 63.1562L58.6221 61.9326C58.6777 61.7744 58.7988 61.6484 58.9541 61.585C59.1094 61.5215 59.2852 61.5283 59.4346 61.6025L60.5977 62.1797L58.9766 58.1855C58.7129 58.2168 58.4395 58.209 58.1621 58.1572L58.1455 58.1543ZM59.749 51.4189C59.749 54.3174 57.3906 56.6748 54.4922 56.6748C51.5947 56.6748 49.2363 54.3174 49.2363 51.4189C49.2363 48.5205 51.5947 46.1631 54.4922 46.1631C57.3916 46.1631 59.749 48.5215 59.749 51.4189ZM55.709 58.0996L55.7002 58.1123C55.4141 58.5264 54.9971 58.7461 54.4932 58.7461C53.9902 58.7461 53.5732 58.5264 53.2871 58.1123L53.2773 58.0986C52.7754 57.3701 51.9775 56.957 51.1221 56.957C50.96 56.957 50.7959 56.9717 50.6309 57.002L50.6133 57.0049C50.1182 57.0957 49.6689 56.9561 49.3125 56.5996C48.957 56.2441 48.8164 55.7939 48.9072 55.2979L48.9102 55.2822C49.1006 54.2471 48.6807 53.2324 47.8154 52.6357L47.7998 52.625C47.3857 52.3398 47.167 51.9229 47.167 51.4189C47.167 50.916 47.3857 50.499 47.8018 50.2119L47.8145 50.2031C48.6807 49.6055 49.1006 48.5908 48.9111 47.5566L48.9072 47.5391C48.8164 47.0439 48.957 46.5938 49.3125 46.2383C49.6689 45.8818 50.1182 45.7422 50.6143 45.833L50.6299 45.8359C51.666 46.0264 52.6797 45.6055 53.2773 44.7402L53.2871 44.7256C53.5732 44.3115 53.9902 44.0928 54.4932 44.0928C54.9971 44.0928 55.4141 44.3115 55.6992 44.7256L55.709 44.7402C56.3066 45.6064 57.3213 46.0273 58.3564 45.8369L58.374 45.834C58.8691 45.7432 59.3184 45.8828 59.6748 46.2393C60.0303 46.5947 60.1699 47.0449 60.0791 47.5391L60.0762 47.5566C59.8857 48.5918 60.3066 49.6064 61.1719 50.2031L61.1865 50.2139C61.6016 50.5 61.8203 50.917 61.8203 51.4199C61.8203 51.9238 61.6016 52.3408 61.1855 52.627L61.1729 52.6357C60.3066 53.2334 59.8857 54.2471 60.0762 55.2842L60.0791 55.2998C60.1699 55.7949 60.0303 56.2451 59.6748 56.6006C59.3184 56.957 58.8691 57.0967 58.373 57.0059L58.3564 57.0029C57.3203 56.8115 56.3066 57.2314 55.709 58.0996ZM53.6113 52.3057L56.6279 49.29C56.8564 49.0615 57.2275 49.0615 57.4561 49.29C57.6846 49.5186 57.6846 49.8896 57.4561 50.1182L54.0254 53.5488C53.9111 53.6631 53.7617 53.7207 53.6113 53.7207C53.4609 53.7207 53.3115 53.6641 53.1973 53.5488L51.5303 51.8828C51.3018 51.6543 51.3018 51.2832 51.5303 51.0547C51.7598 50.8262 52.1309 50.8262 52.3594 51.0547L53.6113 52.3057Z" fill="url(#paint0_linear_2719_18980)"/>
<defs>
<linearGradient id="paint0_linear_2719_18980" x1="39.4569" y1="19.4964" x2="39.4569" y2="63.1566" gradientUnits="userSpaceOnUse">
<stop stop-color="#03A8DD"/>
<stop offset="1" stop-color="#4D81C2"/>
</linearGradient>
</defs>
</svg>
