<svg width="70" height="70" viewBox="0 0 70 70" fill="none" xmlns="http://www.w3.org/2000/svg">
<rect width="70" height="70" rx="9" fill="#F6FBFF"/>
<path fill-rule="evenodd" clip-rule="evenodd" d="M46.4473 20.8984C46.4473 20.1826 46.7256 19.5098 47.2314 19.0039C47.7373 18.498 48.4102 18.2197 49.125 18.2197C49.8408 18.2197 50.5127 18.498 51.0186 19.0039C51.5244 19.5098 51.8027 20.1826 51.8027 20.8984C51.8027 21.6133 51.5244 22.2861 51.0186 22.792C50.5127 23.2979 49.8408 23.5762 49.125 23.5762C48.6094 23.5762 48.1162 23.4307 47.6914 23.1602L44.5312 26.3213C44.417 26.4355 44.2666 26.4922 44.1172 26.4922C43.9668 26.4922 43.8174 26.4355 43.7031 26.3213C43.4746 26.0918 43.4746 25.7207 43.7031 25.4922L46.8633 22.332C46.5928 21.9062 46.4473 21.4141 46.4473 20.8984ZM36.9609 22.6992V18.2295C38.1562 17.9619 39.0527 16.8926 39.0527 15.6162C39.0527 14.1396 37.8516 12.9385 36.375 12.9385C34.8984 12.9385 33.6963 14.1396 33.6963 15.6162C33.6963 16.8926 34.5928 17.9619 35.7891 18.2295V22.6992C35.7891 23.0234 36.0518 23.2852 36.375 23.2852C36.6982 23.2842 36.9609 23.0225 36.9609 22.6992ZM29.0469 25.4912L25.8857 22.3311C26.1562 21.9062 26.3018 21.4131 26.3018 20.8975C26.3018 20.1816 26.0225 19.5088 25.5176 19.0029C25.0117 18.4971 24.3389 18.2188 23.624 18.2188C22.9082 18.2188 22.2363 18.4971 21.7305 19.0029C21.2246 19.5088 20.9463 20.1816 20.9463 20.8975C20.9463 21.6123 21.2246 22.2852 21.7305 22.791C22.2363 23.2969 22.9092 23.5752 23.624 23.5752C24.1396 23.5752 24.6328 23.4297 25.0576 23.1592L28.2178 26.3203C28.332 26.4346 28.4824 26.4912 28.6318 26.4912C28.7822 26.4912 28.9316 26.4346 29.0469 26.3203C29.2754 26.0908 29.2754 25.7197 29.0469 25.4912ZM25.4258 33.0625H20.9551C20.6875 31.8662 19.6172 30.9697 18.3418 30.9697C16.8652 30.9697 15.6641 32.1709 15.6641 33.6484C15.6641 35.125 16.8652 36.3262 18.3418 36.3262C19.6172 36.3262 20.6865 35.4297 20.9551 34.2344H25.4248C25.748 34.2344 26.0107 33.9717 26.0107 33.6484C26.0117 33.3242 25.749 33.0625 25.4258 33.0625ZM46.7383 33.6494C46.7383 33.9727 47.001 34.2354 47.3242 34.2354H51.7939C52.0615 35.4307 53.1309 36.3271 54.4063 36.3271C55.8828 36.3271 57.085 35.126 57.085 33.6494C57.085 32.1719 55.8828 30.9707 54.4063 30.9707C53.1309 30.9707 52.0615 31.8672 51.7939 33.0635H47.3242C47.001 33.0625 46.7383 33.3242 46.7383 33.6494ZM36.375 31.3262C40.5205 31.3262 42.7568 30.2363 42.7568 29.791C42.7568 29.3457 40.5205 28.2568 36.375 28.2568C32.2295 28.2568 29.9932 29.3457 29.9932 29.791C29.9932 30.2363 32.2295 31.3262 36.375 31.3262ZM42.7568 31.332C41.3232 32.126 38.7881 32.499 36.375 32.499C33.9619 32.499 31.4268 32.126 29.9932 31.332V34.0332C29.9932 34.1787 30.3906 34.5986 31.6182 34.9727C32.8809 35.3564 34.5693 35.5684 36.375 35.5684C38.1797 35.5684 39.8691 35.3564 41.1309 34.9727C42.3584 34.5986 42.7568 34.1787 42.7568 34.0332V31.332ZM42.7568 35.5732C41.3232 36.3672 38.7881 36.7402 36.375 36.7402C33.9619 36.7402 31.4268 36.3672 29.9932 35.5732V38.2744C29.9932 38.4199 30.3906 38.8398 31.6182 39.2139C32.8809 39.5977 34.5693 39.8096 36.375 39.8096C38.1797 39.8096 39.8691 39.5977 41.1309 39.2139C42.3584 38.8398 42.7568 38.4199 42.7568 38.2744V35.5732ZM42.7568 39.8145C41.3232 40.6084 38.7881 40.9814 36.375 40.9814C33.9619 40.9814 31.4268 40.6084 29.9932 39.8145V42.5156C29.9932 42.6611 30.3906 43.0811 31.6182 43.4551C32.8809 43.8389 34.5693 44.0508 36.375 44.0508C38.1797 44.0508 39.8691 43.8389 41.1309 43.4551C42.3584 43.0811 42.7568 42.6611 42.7568 42.5156V39.8145ZM48.9424 41.127C48.7031 41.2646 48.5322 41.4863 48.4609 41.751L46.7256 48.2295C46.7275 48.2305 46.7305 48.2305 46.7324 48.2314C46.918 48.2803 47.0928 48.3525 47.2559 48.4453L48.5625 43.5693C48.8066 42.6562 49.5947 42.0312 50.4844 41.9463C50.4551 41.5195 50.1592 41.1387 49.7236 41.0215C49.46 40.9521 49.1826 40.9883 48.9424 41.127ZM49.6934 43.874L48.1885 49.4922C48.3818 49.9434 48.418 50.4434 48.2881 50.9268C48.1357 51.4971 47.7715 51.9717 47.2637 52.2646L43.8496 54.2363C43.5693 54.3984 43.2109 54.3018 43.0488 54.0215C42.8867 53.7412 42.9834 53.3838 43.2637 53.2217L46.6777 51.25C46.915 51.1133 47.084 50.8906 47.1562 50.624C47.2275 50.3564 47.1914 50.0791 47.0547 49.8418C46.918 49.6055 46.6963 49.4355 46.4287 49.3643C46.1621 49.292 45.8838 49.3281 45.6475 49.4648L41.1514 52.0605C41.1426 52.0654 41.1328 52.0713 41.123 52.0762C39.084 53.1094 39.0303 55.002 39.1084 58.5352C39.1172 58.9482 39.127 59.3721 39.1318 59.8096L44.4141 59.8125L44.4189 59.1484C44.4258 58.2705 44.7783 57.501 45.4395 56.9238L48.6826 54.0908C49.0508 53.7705 49.2705 53.417 49.3965 52.9453L51.6846 44.4072C51.8311 43.8584 51.5039 43.292 50.9551 43.1445C50.4072 42.998 49.8408 43.3252 49.6934 43.874ZM33.6406 58.5342C33.7197 55.001 33.665 53.1084 31.626 52.0752C31.6162 52.0703 31.6074 52.0644 31.5977 52.0596L27.1016 49.4639C26.8643 49.3271 26.5869 49.291 26.3193 49.3633C26.0518 49.4346 25.8291 49.6045 25.6934 49.8408C25.4092 50.333 25.5781 50.9648 26.0703 51.249L29.4844 53.2207C29.7646 53.3828 29.8604 53.7402 29.6992 54.0205C29.5371 54.3008 29.1787 54.3975 28.8994 54.2354L25.4854 52.2637C24.9775 51.9707 24.6133 51.4961 24.4609 50.9258C24.3311 50.4424 24.3672 49.9424 24.5605 49.4912L23.0547 43.873C22.9316 43.4131 22.5137 43.1084 22.0586 43.1084C21.9707 43.1084 21.8809 43.1201 21.792 43.1436C21.2432 43.291 20.916 43.8574 21.0625 44.4062L23.3506 52.9443C23.4775 53.416 23.6973 53.7695 24.0645 54.0898L27.3076 56.9229C27.9688 57.5 28.3213 58.2695 28.3281 59.1475L28.333 59.8115L33.6152 59.8086C33.6221 59.3711 33.6318 58.9473 33.6406 58.5342ZM26.0244 48.2295L24.2881 41.751C24.2178 41.4863 24.0469 41.2646 23.8066 41.127C23.5674 40.9883 23.29 40.9512 23.0254 41.0215C22.5898 41.1387 22.2949 41.5195 22.2646 41.9463C23.1543 42.0312 23.9424 42.6562 24.1865 43.5693L25.4932 48.4453C25.6553 48.3525 25.8311 48.2803 26.0156 48.2314C26.0195 48.2305 26.0225 48.2305 26.0244 48.2295Z" fill="url(#paint0_linear_2719_18997)"/>
<defs>
<linearGradient id="paint0_linear_2719_18997" x1="36.375" y1="12.938" x2="36.375" y2="59.812" gradientUnits="userSpaceOnUse">
<stop stop-color="#03A8DD"/>
<stop offset="1" stop-color="#4D81C2"/>
</linearGradient>
</defs>
</svg>
