<svg width="70" height="70" viewBox="0 0 70 70" fill="none" xmlns="http://www.w3.org/2000/svg">
<rect width="70" height="70" rx="9" fill="#F6FBFF"/>
<path fill-rule="evenodd" clip-rule="evenodd" d="M40.8965 26.7217C42.3135 26.7217 43.4658 27.875 43.4658 29.292V30.3555H46.249C46.5732 30.3555 46.835 30.6182 46.835 30.9414C46.835 31.2647 46.5732 31.5273 46.249 31.5273H43.4658V33.6338H46.249C46.5732 33.6338 46.835 33.8955 46.835 34.2197C46.835 34.543 46.5732 34.8057 46.249 34.8057H43.4658V36.9111H46.249C46.5732 36.9111 46.835 37.1738 46.835 37.4971C46.835 37.8203 46.5732 38.083 46.249 38.083H43.4658V39.1465C43.4658 40.5635 42.3135 41.7168 40.8965 41.7168H39.833V44.5C39.833 44.8232 39.5703 45.0859 39.2471 45.0859C38.9229 45.0859 38.6611 44.8232 38.6611 44.5V41.7168H36.5547V44.5C36.5547 44.8232 36.292 45.0859 35.9688 45.0859C35.6455 45.0859 35.3828 44.8232 35.3828 44.5V41.7168H33.2773V44.5C33.2773 44.8232 33.0146 45.0859 32.6914 45.0859C32.3672 45.0859 32.1055 44.8232 32.1055 44.5V41.7168H31.041C29.624 41.7168 28.4717 40.5635 28.4717 39.1465V38.083H25.6885C25.3652 38.083 25.1025 37.8203 25.1025 37.4971C25.1025 37.1738 25.3652 36.9111 25.6885 36.9111H28.4717V34.8057H25.6885C25.3652 34.8057 25.1025 34.543 25.1025 34.2197C25.1025 33.8955 25.3652 33.6338 25.6885 33.6338H28.4717V31.5273H25.6885C25.3652 31.5273 25.1025 31.2656 25.1025 30.9414C25.1025 30.6182 25.3652 30.3555 25.6885 30.3555H28.4717V29.292C28.4717 27.875 29.624 26.7217 31.041 26.7217H32.1055V23.9385C32.1055 23.6152 32.3672 23.3525 32.6914 23.3525C33.0146 23.3525 33.2773 23.6152 33.2773 23.9385V26.7217H35.3828V23.9385C35.3828 23.6152 35.6455 23.3525 35.9688 23.3525C36.292 23.3525 36.5547 23.6152 36.5547 23.9385V26.7217H38.6611V23.9385C38.6611 23.6152 38.9229 23.3525 39.2471 23.3525C39.5703 23.3525 39.833 23.6152 39.833 23.9385V26.7217H40.8965ZM24.5771 21.9961L22.1631 19.583C21.9346 19.3545 21.5635 19.3535 21.335 19.583C21.1064 19.8115 21.1064 20.1826 21.335 20.4111L23.748 22.8252C23.8623 22.9395 24.0127 22.9961 24.1631 22.9961C24.3125 22.9961 24.4629 22.9395 24.5771 22.8252C24.8057 22.5957 24.8057 22.2246 24.5771 21.9961ZM36.5576 17.5166V14.1035C36.5576 13.7803 36.2949 13.5176 35.9717 13.5176C35.6484 13.5176 35.3857 13.7803 35.3857 14.1035V17.5166C35.3857 17.8398 35.6484 18.1025 35.9717 18.1025C36.2949 18.1025 36.5576 17.8408 36.5576 17.5166ZM47.3662 21.9961C47.1377 22.2246 47.1377 22.5957 47.3662 22.8252C47.4805 22.9395 47.6309 22.9961 47.7812 22.9961C47.9307 22.9961 48.0811 22.9395 48.1953 22.8252L50.6084 20.4111C50.8379 20.1826 50.8379 19.8115 50.6084 19.583C50.3799 19.3545 50.0088 19.3535 49.7803 19.583L47.3662 21.9961ZM19.2725 34.8066C19.5967 34.8066 19.8584 34.5449 19.8584 34.2207C19.8584 33.8975 19.5967 33.6348 19.2725 33.6348H15.8594C15.5361 33.6348 15.2734 33.8975 15.2734 34.2207C15.2734 34.5449 15.5361 34.8066 15.8594 34.8066H19.2725ZM52.6709 34.8066H56.084C56.4072 34.8066 56.6699 34.5449 56.6699 34.2207C56.6699 33.8975 56.4072 33.6348 56.084 33.6348H52.6709C52.3467 33.6348 52.085 33.8975 52.085 34.2207C52.085 34.5449 52.3467 34.8066 52.6709 34.8066ZM40.2715 57.2617H31.6729C31.9414 58.4922 33.0391 59.416 34.3486 59.416H37.5947C38.9043 59.416 40.002 58.4922 40.2715 57.2617ZM40.9209 53.7607H31.0225C30.3809 53.7607 29.8584 54.2832 29.8584 54.9258C29.8584 55.5674 30.3809 56.0898 31.0225 56.0898H40.9209C41.5625 56.0898 42.085 55.5674 42.085 54.9258C42.085 54.2832 41.5625 53.7607 40.9209 53.7607ZM41.2773 50.9746H30.666C30.2207 50.9746 29.8584 51.3369 29.8584 51.7822C29.8584 52.2275 30.2207 52.5889 30.666 52.5889V52.6162C30.7822 52.5986 30.9014 52.5889 31.0225 52.5889H40.9209C41.042 52.5889 41.1611 52.5986 41.2773 52.6162V52.5889C41.7227 52.5889 42.085 52.2275 42.085 51.7822C42.085 51.3379 41.7227 50.9746 41.2773 50.9746ZM35.5781 34.5225L35.1602 33.6875L34.7422 34.5225H35.5781ZM39.8672 31.0147C39.8672 30.6318 39.5557 30.3203 39.1728 30.3203H32.7646C32.3818 30.3203 32.0703 30.6318 32.0703 31.0147V37.4238C32.0703 37.8066 32.3818 38.1182 32.7646 38.1182H39.1728C39.5557 38.1182 39.8672 37.8066 39.8672 37.4238V31.0147ZM38.0615 36.0596C38.0615 36.3828 38.3232 36.6455 38.6475 36.6455C38.9707 36.6455 39.2334 36.3828 39.2334 36.0596V32.3203C39.2334 31.9971 38.9707 31.7344 38.6475 31.7344C38.3232 31.7344 38.0615 31.9971 38.0615 32.3203V36.0596ZM35.6846 32.1152C35.585 31.917 35.3818 31.792 35.1602 31.792C34.9385 31.792 34.7353 31.917 34.6357 32.1152L32.7666 35.8545C32.6221 36.1436 32.7393 36.4961 33.0283 36.6406C33.3184 36.7852 33.6699 36.668 33.8145 36.3789L34.1562 35.6943H36.1641L36.5059 36.3789C36.6084 36.584 36.8154 36.7021 37.0303 36.7021C37.1182 36.7021 37.207 36.6826 37.292 36.6406C37.5811 36.4961 37.6982 36.1436 37.5537 35.8545L35.6846 32.1152ZM42.2939 29.292C42.2939 28.5205 41.667 27.8936 40.8965 27.8936H31.041C30.2705 27.8936 29.6436 28.5205 29.6436 29.292V39.1465C29.6436 39.918 30.2705 40.5449 31.041 40.5449H40.8965C41.667 40.5449 42.2939 39.918 42.2939 39.1465V29.292ZM39.1728 29.1475H32.7646C31.7353 29.1475 30.8984 29.9854 30.8984 31.0137V37.4229C30.8984 38.4512 31.7353 39.2891 32.7646 39.2891H39.1728C40.2021 39.2891 41.0391 38.4512 41.0391 37.4229V31.0137C41.0391 29.9854 40.2021 29.1475 39.1728 29.1475ZM35.9717 21.6455C29.0352 21.6455 23.3916 27.2891 23.3916 34.2256C23.3916 39.2031 25.5488 41.9062 27.832 44.7676C29.0391 46.2812 30.2852 47.8437 31.2881 49.8037H40.6553C41.6592 47.8437 42.9043 46.2812 44.1123 44.7676C46.3955 41.9062 48.5518 39.2031 48.5518 34.2256C48.5518 27.2881 42.9082 21.6455 35.9717 21.6455Z" fill="url(#paint0_linear_2719_18963)"/>
<defs>
<linearGradient id="paint0_linear_2719_18963" x1="35.9717" y1="13.5181" x2="35.9717" y2="59.4165" gradientUnits="userSpaceOnUse">
<stop stop-color="#03A8DD"/>
<stop offset="1" stop-color="#4D81C2"/>
</linearGradient>
</defs>
</svg>
