<svg width="70" height="70" viewBox="0 0 70 70" fill="none" xmlns="http://www.w3.org/2000/svg">
<path d="M9.45312 33.7679V66.1022H60.5422V33.7679C60.5422 33.0054 59.9241 32.3872 59.1615 32.3872H10.8337C10.0712 32.3873 9.45312 33.0054 9.45312 33.7679Z" fill="#528FD8"/>
<path d="M59.1676 32.3875H56.4062C57.1687 32.3875 57.787 33.0056 57.787 33.7682V66.1024H60.5483V33.768C60.5483 33.0056 59.9302 32.3875 59.1676 32.3875Z" fill="#0473CE"/>
<path d="M13.875 65.7572V37.496C13.875 37.1147 14.1841 36.8057 14.5653 36.8057H55.4375C55.8188 36.8057 56.1278 37.1148 56.1278 37.496V65.7572H13.875Z" fill="#EAF6FF"/>
<path d="M38.2051 62.0473L37.324 63.8034C37.1905 64.0696 36.9183 64.2377 36.6205 64.2377H33.3853C33.0875 64.2377 32.8153 64.0696 32.6818 63.8034L31.8007 62.0473C31.5946 61.6364 31.1743 61.377 30.7145 61.377H6.41686C6.03555 61.377 5.72656 61.6861 5.72656 62.0672V65.4051C5.72656 66.9908 7.01199 68.2762 8.59766 68.2762H61.4081C62.9938 68.2762 64.2792 66.9908 64.2792 65.4051V62.0672C64.2792 61.6859 63.9701 61.377 63.5889 61.377H39.2913C38.8315 61.377 38.4112 61.6364 38.2051 62.0473Z" fill="#62DBFB"/>
<path d="M63.5827 61.377H60.8214C61.2026 61.377 61.5117 61.6861 61.5117 62.0672V65.4051C61.5117 66.9908 60.2263 68.2763 58.6406 68.2763H61.4019C62.9876 68.2763 64.273 66.9909 64.273 65.4052V62.0674C64.273 61.6861 63.9639 61.377 63.5827 61.377Z" fill="#01C0FA"/>
<path d="M61.5262 12.4817H46.3324C45.7605 12.4817 45.2969 12.018 45.2969 11.4462C45.2969 10.8743 45.7605 10.4106 46.3324 10.4106H61.0973L66.1045 5.40346C66.5092 4.99891 67.1646 4.99905 67.569 5.40346C67.9735 5.80787 67.9735 6.46344 67.569 6.86785L62.2585 12.1784C62.0642 12.3726 61.8009 12.4817 61.5262 12.4817Z" fill="#528FD8"/>
<path d="M66.8368 30.8948C66.5718 30.8948 66.3067 30.7936 66.1045 30.5915L61.0973 25.5842H46.3324C45.7605 25.5842 45.2969 25.1206 45.2969 24.5487C45.2969 23.9768 45.7605 23.5132 46.3324 23.5132H61.5262C61.8009 23.5132 62.0642 23.6223 62.2585 23.8164L67.569 29.127C67.9735 29.5314 67.9735 30.187 67.569 30.5914C67.3668 30.7936 67.1017 30.8948 66.8368 30.8948Z" fill="#528FD8"/>
<path d="M64.3595 19.0329H48.1058C47.5339 19.0329 47.0703 18.5693 47.0703 17.9974C47.0703 17.4255 47.5339 16.9619 48.1058 16.9619H64.3596C64.9315 16.9619 65.3951 17.4255 65.3951 17.9974C65.395 18.5693 64.9315 19.0329 64.3595 19.0329Z" fill="#528FD8"/>
<path d="M23.665 12.4819H8.47114C8.19648 12.4819 7.93316 12.3728 7.73888 12.1786L2.42831 6.86805C2.0239 6.46363 2.0239 5.80807 2.42831 5.40365C2.83286 4.99924 3.48829 4.99924 3.89284 5.40365L8.90003 10.4108H23.665C24.2369 10.4108 24.7005 10.8745 24.7005 11.4463C24.7005 12.0182 24.237 12.4819 23.665 12.4819Z" fill="#528FD8"/>
<path d="M3.16058 30.8946C2.89562 30.8946 2.63052 30.7935 2.42831 30.5914C2.0239 30.187 2.0239 29.5314 2.42831 29.127L7.73888 23.8164C7.93316 23.6221 8.19648 23.5132 8.47114 23.5132H23.665C24.2369 23.5132 24.7005 23.9768 24.7005 24.5487C24.7005 25.1206 24.2369 25.5842 23.665 25.5842H8.90003L3.89284 30.5915C3.69063 30.7935 3.42554 30.8946 3.16058 30.8946Z" fill="#528FD8"/>
<path d="M21.8907 19.0329H5.63707C5.06518 19.0329 4.60156 18.5693 4.60156 17.9974C4.60156 17.4255 5.06518 16.9619 5.63707 16.9619H21.8909C22.4628 16.9619 22.9264 17.4255 22.9264 17.9974C22.9262 18.5693 22.4628 19.0329 21.8907 19.0329Z" fill="#528FD8"/>
<path d="M66.8351 14.8342C65.091 14.8342 63.6719 16.2532 63.6719 17.9975C63.6719 19.7416 65.091 21.1608 66.8351 21.1608C68.5793 21.1608 69.9983 19.7417 69.9983 17.9975C69.9983 16.2532 68.5793 14.8342 66.8351 14.8342Z" fill="#6CF5C2"/>
<path d="M66.8351 9.29894C68.5793 9.29894 69.9983 7.87993 69.9983 6.13567C69.9983 4.39142 68.5793 2.97241 66.8351 2.97241C65.091 2.97241 63.6719 4.39142 63.6719 6.13567C63.6719 7.87993 65.091 9.29894 66.8351 9.29894Z" fill="#6CF5C2"/>
<path d="M66.8351 26.696C65.091 26.696 63.6719 28.115 63.6719 29.8593C63.6719 31.6034 65.091 33.0226 66.8351 33.0226C68.5793 33.0226 69.9983 31.6036 69.9983 29.8593C69.9983 28.115 68.5793 26.696 66.8351 26.696Z" fill="#6CF5C2"/>
<path d="M3.16313 14.8342C1.419 14.8342 0 16.2532 0 17.9974C0 19.7415 1.419 21.1606 3.16313 21.1606C4.90725 21.1606 6.32639 19.7416 6.32639 17.9974C6.32639 16.2532 4.90725 14.8342 3.16313 14.8342Z" fill="#6CF5C2"/>
<path d="M3.16313 2.97266C1.419 2.97266 0 4.39166 0 6.13578C0 7.8799 1.419 9.29904 3.16313 9.29904C4.90725 9.29904 6.32639 7.88004 6.32639 6.13578C6.32639 4.39152 4.90725 2.97266 3.16313 2.97266Z" fill="#6CF5C2"/>
<path d="M3.16313 26.696C1.419 26.696 0 28.115 0 29.8593C0 31.6034 1.419 33.0226 3.16313 33.0226C4.90725 33.0226 6.32639 31.6036 6.32639 29.8593C6.32639 28.115 4.90725 26.696 3.16313 26.696Z" fill="#6CF5C2"/>
<path d="M51.2734 17.9973C51.2734 8.93262 43.8619 1.59889 34.768 1.72549C25.8275 1.85004 18.6073 9.28098 18.7281 18.2216C18.8013 23.6448 21.5276 28.4271 25.6679 31.3303C26.6718 32.0343 27.2821 33.172 27.2821 34.3981V39.5245L35 42.2589L42.7178 39.5245V34.3981C42.7178 33.191 43.2972 32.0508 44.2879 31.3611C48.51 28.4215 51.2734 23.5323 51.2734 17.9973Z" fill="#FEE97D"/>
<path d="M34.7696 1.72549C34.3846 1.73082 34.0032 1.75065 33.625 1.78264C41.9643 2.48551 48.5137 9.47621 48.5137 17.9973C48.5137 23.5323 45.7503 28.4213 41.5282 31.3612C40.5375 32.0509 39.9581 33.1912 39.9581 34.3983V40.8919L42.7194 39.5247V34.3983C42.7194 33.1912 43.2988 32.0509 44.2895 31.3612C48.5116 28.4213 51.275 23.5323 51.275 17.9973C51.2751 8.93262 43.8635 1.59889 34.7696 1.72549Z" fill="#FED402"/>
<path d="M36.3309 49.299H33.666C32.4871 49.299 31.5312 48.3432 31.5312 47.1643V42.2576H38.4656V47.1643C38.4656 48.3433 37.5098 49.299 36.3309 49.299Z" fill="#7CA1B1"/>
<path d="M27.2812 39.5247V44.0402C27.2812 44.5651 27.7067 44.9907 28.2317 44.9907H41.7665C42.2913 44.9907 42.7169 44.5652 42.7169 44.0402V39.5247H27.2812Z" fill="#62DBFB"/>
<path d="M39.9583 39.5247V44.0402C39.9583 44.5651 39.5327 44.9907 39.0078 44.9907H41.7691C42.294 44.9907 42.7196 44.5652 42.7196 44.0402V39.5247H39.9583Z" fill="#01C0FA"/>
<path d="M42.3047 17.9973C42.3047 17.6439 42.2792 17.2964 42.2304 16.9563C42.1956 16.7131 42.3092 16.4729 42.522 16.3501L43.8284 15.5958C44.0745 15.4538 44.1889 15.1573 44.0969 14.8883C43.8987 14.3089 43.6425 13.7402 43.3247 13.1899C43.007 12.6396 42.6425 12.1333 42.2399 11.6719C42.053 11.4578 41.7391 11.4086 41.4928 11.5506L40.1847 12.3058C39.9717 12.4288 39.7066 12.407 39.5134 12.2549C38.97 11.8269 38.3643 11.4747 37.7121 11.2137C37.4844 11.1225 37.3334 10.9041 37.3334 10.6588V9.14929C37.3334 8.86505 37.1338 8.61772 36.8549 8.56304C36.254 8.44505 35.6333 8.38257 34.9979 8.38257C34.3624 8.38257 33.7417 8.44505 33.1408 8.56304C32.8619 8.61786 32.6623 8.86519 32.6623 9.14929V10.6588C32.6623 10.9042 32.5114 11.1225 32.2836 11.2137C31.6314 11.4749 31.0258 11.8271 30.4823 12.2549C30.2891 12.407 30.024 12.4288 29.811 12.3058L28.5029 11.5506C28.2568 11.4086 27.9428 11.4578 27.7559 11.6719C27.3532 12.1332 26.9887 12.6396 26.671 13.1899C26.3533 13.7402 26.0971 14.3091 25.8988 14.8883C25.8068 15.1573 25.9212 15.4538 26.1673 15.5958L27.4737 16.3501C27.6866 16.473 27.8002 16.7131 27.7653 16.9563C27.7166 17.2964 27.6911 17.6438 27.6911 17.9973C27.6911 18.3507 27.7165 18.6983 27.7653 19.0383C27.8002 19.2815 27.6866 19.5217 27.4737 19.6445L26.1673 20.3988C25.9212 20.5408 25.8068 20.8374 25.8988 21.1063C26.0971 21.6857 26.3533 22.2545 26.671 22.8048C26.9887 23.355 27.3532 23.8613 27.7559 24.3227C27.9428 24.5368 28.2567 24.5861 28.5029 24.444L29.811 23.6888C30.024 23.5659 30.2891 23.5876 30.4823 23.7398C31.0258 24.1677 31.6314 24.5199 32.2836 24.7809C32.5114 24.8721 32.6623 25.0906 32.6623 25.3358V26.8453C32.6623 27.1296 32.8619 27.3769 33.1408 27.4316C33.7417 27.5496 34.3624 27.6121 34.9979 27.6121C35.6333 27.6121 36.254 27.5496 36.8549 27.4316C37.1338 27.3768 37.3334 27.1294 37.3334 26.8453V25.3358C37.3334 25.0904 37.4844 24.8721 37.7121 24.7809C38.3643 24.5198 38.97 24.1676 39.5134 23.7398C39.7066 23.5876 39.9717 23.5659 40.1847 23.6888L41.4928 24.444C41.7389 24.5861 42.053 24.5368 42.2399 24.3227C42.6425 23.8615 43.007 23.355 43.3247 22.8048C43.6425 22.2545 43.8987 21.6857 44.0969 21.1063C44.1889 20.8374 44.0745 20.5408 43.8284 20.3988L42.522 19.6445C42.3092 19.5216 42.1956 19.2815 42.2304 19.0383C42.2791 18.6983 42.3047 18.3509 42.3047 17.9973ZM34.998 20.8236C33.4372 20.8236 32.1719 19.5582 32.1719 17.9975C32.1719 16.4367 33.4372 15.1713 34.998 15.1713C36.5588 15.1713 37.8241 16.4367 37.8241 17.9975C37.8241 19.5582 36.5588 20.8236 34.998 20.8236Z" fill="#7CA1B1"/>
</svg>
