<svg width="70" height="70" viewBox="0 0 70 70" fill="none" xmlns="http://www.w3.org/2000/svg">
<g clip-path="url(#clip0_2765_11858)">
<path d="M68.3364 21.7647C68.3364 28.904 64.0184 34.7205 56.9431 34.9712C56.7848 34.9768 56.6247 34.9806 56.4644 34.9806H10.4819C4.86881 34.9806 0.320312 30.4302 0.320312 24.819C0.320312 20.6303 2.85467 17.0334 6.47225 15.4789C6.45147 15.2057 6.89484 14.4413 6.89484 14.1643C6.89484 13.39 6.52311 13.1292 6.68703 12.4057C7.7101 7.87418 11.7593 4.49203 16.6 4.49203C18.9722 4.49203 21.1542 5.30783 22.8838 6.67201C23.1383 6.27348 24.4918 6.41895 24.7837 6.04816C25.0754 5.67738 24.3056 4.79062 24.6325 4.45047C27.259 1.70707 30.9597 0 35.0578 0C40.8179 0 45.7923 3.37463 48.1079 8.25672C48.3 8.66141 48.1216 9.40557 48.2763 9.83022C48.4342 10.2639 48.9245 10.3783 49.0406 10.8305C51.1566 9.39094 53.7116 9.40502 56.4644 9.40502C63.7622 9.40516 68.3364 14.467 68.3364 21.7647Z" fill="#EFEDEF"/>
<path d="M14.6922 14.629C14.3539 15.3315 13.2472 15.3665 12.1731 15.0625C11.447 14.8571 10.6884 14.7724 9.9252 14.7724C8.72686 14.7724 7.56434 15.0098 6.47332 15.479C6.45254 15.2058 6.4375 14.9325 6.4375 14.6555C6.4375 13.8812 6.52418 13.1293 6.68811 12.4058C7.73387 12.1005 8.81723 11.946 9.9252 11.946C10.9314 11.946 11.8922 11.9685 12.8537 12.2362C15.0586 12.8502 15.0835 13.8162 14.6922 14.629Z" fill="#E5E1E5"/>
<path d="M27.2089 10.3047C27.0073 10.4045 26.7924 10.4517 26.5815 10.4517C26.0633 10.4517 25.5621 10.1634 25.3153 9.66599C24.7425 8.50907 23.9003 7.47466 22.8828 6.67198C23.3915 5.87491 23.9775 5.13075 24.6314 4.45044L24.6334 4.45235C25.9768 5.51124 27.0886 6.88116 27.8479 8.40927C28.1943 9.11022 27.9079 9.95815 27.2089 10.3047Z" fill="#E5E1E5"/>
<path d="M49.0433 10.8307C47.7074 11.7389 46.59 12.8883 45.7215 14.2468C45.452 14.6688 44.9941 14.8988 44.5287 14.8988C44.2687 14.8988 44.0049 14.8271 43.7694 14.6765C43.1118 14.2563 42.9195 13.382 43.3398 12.7244C44.4156 11.0418 45.8006 9.61732 47.4531 8.49432C47.6566 8.35678 47.8827 8.27762 48.1107 8.25684C48.4988 9.07455 48.8133 9.93561 49.0433 10.8307Z" fill="#E5E1E5"/>
<path d="M69.677 21.7646C69.677 28.904 64.0169 34.7205 56.9415 34.9711C56.9435 34.9655 56.9488 34.9501 56.9507 34.9445C58.8231 29.8064 55.7812 27.6535 55.1494 24.3567C54.6515 21.7588 56.8952 17.6988 55.6807 16.064C52.836 12.2349 49.0391 10.8304 49.0391 10.8304C51.1551 9.39091 53.7101 8.54858 56.4629 8.54858C63.7607 8.54872 69.677 14.467 69.677 21.7646Z" fill="#E5E1E5"/>
<path d="M53.7963 17.3073L49.4821 22.7855C49.2649 23.0614 49.4614 23.4664 49.8126 23.4664H51.5212C51.7534 23.4664 51.9418 23.6546 51.9418 23.887V28.4273C51.9418 28.5389 51.8976 28.6459 51.8187 28.7248L47.7014 32.8421C47.537 33.0064 47.537 33.2728 47.7014 33.437L50.1965 35.9321C50.3608 36.0964 50.6272 36.0964 50.7914 35.9321L55.5319 31.1915C56.0312 30.6922 56.3117 30.015 56.3117 29.309V23.8873C56.3117 23.655 56.4999 23.4666 56.7323 23.4666H58.4409C58.7921 23.4666 58.9886 23.0617 58.7714 22.7858L54.4572 17.3076C54.2888 17.0935 53.9647 17.0935 53.7963 17.3073Z" fill="#8ABBD5"/>
<path d="M16.1987 17.3073L20.5128 22.7855C20.7301 23.0614 20.5336 23.4664 20.1824 23.4664H18.4738C18.2415 23.4664 18.0531 23.6546 18.0531 23.887V28.4273C18.0531 28.5389 18.0974 28.6459 18.1763 28.7248L22.2936 32.8421C22.4579 33.0064 22.4579 33.2728 22.2936 33.437L19.7985 35.9321C19.6341 36.0964 19.3678 36.0964 19.2036 35.9321L14.463 31.1915C13.9637 30.6922 13.6833 30.015 13.6833 29.309V23.8873C13.6833 23.655 13.4951 23.4666 13.2626 23.4666H11.5542C11.203 23.4666 11.0065 23.0617 11.2238 22.7858L15.5379 17.3076C15.7062 17.0935 16.0302 17.0935 16.1987 17.3073Z" fill="#8ABBD5"/>
<path d="M34.6707 9.14035L30.3566 14.6185C30.1393 14.8944 30.3358 15.2994 30.687 15.2994H32.3956C32.6279 15.2994 32.8163 15.4877 32.8163 15.7201V30.5243C32.8163 30.7565 33.0045 30.9449 33.237 30.9449H36.7655C36.9978 30.9449 37.1862 30.7567 37.1862 30.5243V15.7201C37.1862 15.4878 37.3745 15.2994 37.6069 15.2994H39.3155C39.6667 15.2994 39.8632 14.8944 39.6459 14.6185L35.3318 9.14035C35.1632 8.92652 34.8392 8.92652 34.6707 9.14035Z" fill="#8ABBD5"/>
<path d="M55.9086 52.1238L56.0523 45.2541C56.0523 44.84 55.7447 44.4904 55.3339 44.4376L52.9152 44.145C52.5984 44.1044 52.3299 43.8855 52.2364 43.5802C51.9025 42.4909 51.7622 41.1523 51.2415 40.1597C51.2269 40.1316 51.2129 40.1033 51.1981 40.0755C51.0482 39.7931 51.0828 39.4482 51.2783 39.1953L52.7603 37.2772C53.0135 36.9495 52.9838 36.4848 52.691 36.192L47.472 30.973C47.1792 30.6801 46.7145 30.6505 46.3867 30.9037L44.4687 32.3857C44.2158 32.5812 43.8708 32.6158 43.5885 32.4658C42.5711 31.9252 41.4967 31.4778 40.3767 31.1346C40.0714 31.0411 39.8525 30.7724 39.8119 30.4558L39.5038 28.0527C39.4511 27.642 39.1014 27.3342 38.6873 27.3342H31.3065C30.8924 27.3342 30.5428 27.6418 30.49 28.0527L30.1819 30.4558C30.1413 30.7726 29.9224 31.0411 29.6171 31.1346C28.4971 31.4778 27.4226 31.9252 26.4053 32.4658C26.123 32.6158 25.778 32.5812 25.5251 32.3857L23.6071 30.9037C23.2794 30.6505 22.8146 30.6801 22.5218 30.973L17.3028 36.192C17.01 36.4848 16.9803 36.9495 17.2335 37.2772L18.7155 39.1953C18.9111 39.4482 18.9456 39.7931 18.7957 40.0755C18.2551 41.0929 17.8076 42.1673 17.4644 43.2873C17.3709 43.5925 17.1023 43.8114 16.7856 43.852L14.3825 44.1602C13.9718 44.2128 13.6641 44.5626 13.6641 44.9767V52.3784C13.6641 52.7954 13.9759 53.1465 14.3899 53.1957L16.6557 53.4654C17.0517 53.5161 17.3835 53.7912 17.5031 54.172C17.8408 55.2466 18.2748 56.2784 18.795 57.2576C18.9451 57.5403 18.9113 57.8854 18.7155 58.1387L17.2334 60.0569C16.9802 60.3846 17.0098 60.8493 17.3027 61.1422L22.5217 66.3611C22.8145 66.654 23.2792 66.6837 23.6069 66.4305L25.525 64.9484C25.7779 64.7529 26.1228 64.7183 26.4052 64.8683C26.433 64.8831 26.4609 64.8978 26.489 64.9126C27.4815 65.4334 28.7683 65.5895 29.8577 65.9234C30.163 66.0169 30.3819 66.2855 30.4225 66.6022L30.6708 68.8811C30.7234 69.2918 31.0731 69.5996 31.4873 69.5996L38.3507 69.7516C38.7648 69.7516 39.1144 69.444 39.1672 69.0332L39.3046 66.6022C39.3452 66.2854 39.5641 66.0169 39.8694 65.9234C40.9894 65.5802 42.5711 64.895 43.5884 64.3544C43.8707 64.2044 44.2156 64.239 44.4686 64.4345L46.3866 65.931C46.7143 66.1842 47.179 66.1546 47.4719 65.8617L52.0559 61.0314C52.3488 60.7386 52.3784 60.2739 52.1252 59.9462L50.8566 58.1387C50.661 57.8854 50.6271 57.5403 50.7772 57.2576C51.2974 56.2784 51.878 54.9068 52.2159 53.8322C52.3355 53.4515 52.6675 53.1764 53.0633 53.1257L55.1773 52.9416C55.5938 52.8949 55.9086 52.5427 55.9086 52.1238Z" fill="#918291"/>
<path d="M55.6145 44.1602L53.2114 43.852C52.8946 43.8114 52.6261 43.5925 52.5326 43.2872C52.1987 42.1979 51.7656 41.1522 51.2447 40.1597C50.7136 46.7279 48.3564 53.3966 43.9718 57.7998C39.5603 62.23 33.1009 64.3782 26.4922 64.9126C27.4848 65.4334 28.5308 65.8658 29.6202 66.1995C29.9255 66.293 30.1444 66.5617 30.185 66.8783L30.4931 69.2814C30.5458 69.6921 30.8955 69.9999 31.3096 69.9999H38.6904C39.1045 69.9999 39.4541 69.6923 39.5069 69.2814L39.815 66.8783C39.8556 66.5616 40.0745 66.293 40.3798 66.1995C41.4998 65.8564 42.5743 65.4089 43.5916 64.8683C43.8739 64.7183 44.2189 64.7529 44.4718 64.9484L46.3898 66.4304C46.7175 66.6837 47.1822 66.654 47.4751 66.3611L52.6941 61.1422C52.9869 60.8493 53.0166 60.3846 52.7634 60.0569L51.2812 58.1387C51.0856 57.8854 51.0517 57.5403 51.2018 57.2576C51.722 56.2784 52.1558 55.2464 52.4936 54.172C52.6133 53.7912 52.9452 53.5161 53.341 53.4654L55.6015 53.2114C56.018 53.1646 56.3327 52.8124 56.3327 52.3934V44.9768C56.333 44.5626 56.0252 44.2128 55.6145 44.1602Z" fill="#7A6D79"/>
<path d="M34.9985 61.4701C42.0695 61.4701 47.8016 55.7379 47.8016 48.6669C47.8016 41.5959 42.0695 35.8638 34.9985 35.8638C27.9275 35.8638 22.1953 41.5959 22.1953 48.6669C22.1953 55.7379 27.9275 61.4701 34.9985 61.4701Z" fill="#F9F7F8"/>
<path d="M29.8983 53.1104C29.6066 53.1104 29.315 52.9991 29.0926 52.7766L25.826 49.51C25.3809 49.0649 25.3809 48.3435 25.826 47.8984L29.0926 44.6318C29.5376 44.1869 30.2591 44.1869 30.7041 44.6318C31.1491 45.0769 31.1491 45.7982 30.7041 46.2434L28.2433 48.7042L30.7041 51.165C31.1491 51.6102 31.1491 52.3315 30.7041 52.7766C30.4815 52.9991 30.1899 53.1104 29.8983 53.1104Z" fill="#8ABBD5"/>
<path d="M40.1082 53.1104C39.8166 53.1104 39.525 52.9991 39.3025 52.7766C38.8575 52.3315 38.8575 51.6102 39.3025 51.165L41.7633 48.7042L39.3025 46.2434C38.8575 45.7982 38.8575 45.0769 39.3025 44.6318C39.7475 44.1869 40.469 44.1869 40.914 44.6318L44.1806 47.8984C44.6257 48.3435 44.6257 49.0649 44.1806 49.51L40.914 52.7766C40.6914 52.9991 40.3998 53.1104 40.1082 53.1104Z" fill="#8ABBD5"/>
<path d="M33.5304 53.9123C33.4019 53.9123 33.2713 53.8904 33.1435 53.8443C32.5515 53.6305 32.245 52.9774 32.4586 52.3855L35.3963 44.249C35.61 43.6571 36.263 43.3505 36.8551 43.564C37.4471 43.7779 37.7536 44.431 37.5399 45.0228L34.6023 53.1594C34.4348 53.6235 33.997 53.9123 33.5304 53.9123Z" fill="#8ABBD5"/>
</g>
<defs>
<clipPath id="clip0_2765_11858">
<rect width="70" height="70" fill="white"/>
</clipPath>
</defs>
</svg>
