<svg width="70" height="70" viewBox="0 0 70 70" fill="none" xmlns="http://www.w3.org/2000/svg">
<g clip-path="url(#clip0_2767_12005)">
<path d="M37.0296 13.7161H19.6663C18.8884 13.7161 18.2578 14.3466 18.2578 15.1245V17.6867C20.0506 18.906 21.3996 20.7289 22.0151 22.8602H27.6101C27.8434 22.8602 28.0327 23.0494 28.0327 23.2828V25.9752C28.0327 26.3966 28.5421 26.6077 28.8401 26.3096L32.0832 23.0665C32.2153 22.9345 32.3944 22.8602 32.5812 22.8602H37.0297C37.8076 22.8602 38.4382 22.2297 38.4382 21.4517V15.1245C38.438 14.3467 37.8075 13.7161 37.0296 13.7161Z" fill="#26A6FE"/>
<path d="M37.0287 13.7161H35.3223V19.3553C35.3223 20.1332 34.6917 20.7638 33.9138 20.7638H21.1172C21.496 21.4176 21.8004 22.1198 22.0142 22.8602H27.6091C27.8425 22.8602 28.0317 23.0494 28.0317 23.2828V25.9752C28.0317 26.3966 28.5412 26.6077 28.8392 26.3096L32.0823 23.0665C32.2144 22.9345 32.3935 22.8602 32.5802 22.8602H37.0288C37.8067 22.8602 38.4373 22.2297 38.4373 21.4517V15.1245C38.4371 14.3467 37.8066 13.7161 37.0287 13.7161Z" fill="#0593FC"/>
<path d="M61.0843 32.7766C60.7379 32.7766 60.4349 32.5305 60.3639 32.1913L58.9555 25.4571C58.7946 23.9791 57.5176 22.8656 55.9821 22.8656H48.1938C47.951 22.8656 47.7104 22.8401 47.4757 22.7908V27.3231L45.9956 28.8033C45.5848 29.2141 45.5848 29.88 45.9956 30.2908L47.4757 31.7709V33.7011C47.4757 35.0929 48.6041 36.2212 49.9959 36.2212H54.1787C54.7488 36.2212 55.211 36.6834 55.211 37.2536V40.4624C56.0879 40.2347 57.0072 40.113 57.9544 40.113H61.1442C61.9627 40.113 62.7464 40.264 63.4702 40.5377V32.9174L63.4299 32.7766H61.0843Z" fill="#FFDFCF"/>
<path d="M63.4271 32.7765H61.0817C60.7353 32.7765 60.4323 32.5304 60.3614 32.1912L59.2422 26.8406L59.2582 34.3257V40.1128H61.1415C61.96 40.1128 62.7437 40.2638 63.4675 40.5375V32.9172L63.4271 32.7765Z" fill="#FFCEBF"/>
<path d="M48.0959 15.9861H60.2609C62.8933 15.9861 65.0273 18.12 65.0273 20.7525V27.8284C65.0273 29.1567 64.7142 30.4662 64.1134 31.6509L63.4709 32.9175H61.0852C60.6701 32.9175 60.3119 32.6264 60.227 32.2202L58.817 25.4791C58.6657 24.0573 57.4128 23.0065 55.9828 23.0065H48.1945C46.1387 23.0065 44.4447 21.2857 44.5953 19.2355C44.7288 17.4185 46.245 15.9861 48.0959 15.9861Z" fill="#D88A55"/>
<path d="M60.259 15.9861H58.3984C58.902 16.4161 59.2228 17.054 59.2244 17.7679L59.2453 27.5357L60.2251 32.2202C60.31 32.6264 60.6682 32.9175 61.0833 32.9175H63.4691L64.1115 31.6509C64.7124 30.4662 65.0255 29.1566 65.0255 27.8284V20.7525C65.0253 18.12 62.8914 15.9861 60.259 15.9861Z" fill="#C57A44"/>
<path d="M67.9205 46.7107V68.5914C67.9205 69.3693 67.2899 69.9999 66.512 69.9999H48.2679C47.4899 69.9999 46.8594 69.3693 46.8594 68.5914V51.0359C46.8594 44.9065 51.8281 39.9377 57.9575 39.9377H61.1472C64.8881 39.9376 67.9205 42.97 67.9205 46.7107Z" fill="#FE5694"/>
<path d="M63.4733 40.3477V64.4364C63.4733 65.2142 62.8428 65.8449 62.0648 65.8449H46.8594V68.5914C46.8594 69.3694 47.4899 69.9999 48.2679 69.9999H66.5119C67.2898 69.9999 67.9204 69.3694 67.9204 68.5914V46.7107C67.9204 43.7874 66.0681 41.2965 63.4733 40.3477Z" fill="#FD3581"/>
<path d="M41.902 57.6951H37.7724C35.9479 57.6951 34.4688 59.1742 34.4688 60.9987C34.4688 62.8233 35.9479 64.3024 37.7724 64.3024H41.902V57.6951Z" fill="#FFDFCF"/>
<path d="M58.2105 46.5493C56.386 46.5493 54.9069 48.0285 54.9069 49.853V57.695H41.7578V64.3024H57.6361C59.7779 64.3024 61.5142 62.5661 61.5142 60.4242V49.853C61.5142 48.0283 60.0351 46.5493 58.2105 46.5493Z" fill="#B9ACAC"/>
<path d="M6.53307 33.5988V40.5005C7.25727 40.2283 8.04094 40.0785 8.85906 40.0785H14.5658C14.6417 40.0785 14.7168 40.0822 14.7921 40.0842V37.2533C14.7921 36.6832 15.2544 36.221 15.8245 36.221H20.0671C21.426 36.221 22.5274 35.1194 22.5274 33.7607V25.4644C22.5274 20.1472 18.1781 15.8461 12.843 15.9244C7.9723 15.9959 3.67113 20.1634 3.45498 25.0297C3.33945 27.6307 4.26641 30.0138 5.85234 31.7984C6.29299 32.294 6.53307 32.9358 6.53307 33.5988Z" fill="#CDBFBA"/>
<path d="M12.6816 22.7422C13.0379 22.7422 13.3819 22.7951 13.707 22.8921V13.7161C13.707 13.1498 13.2479 12.6907 12.6816 12.6907C12.1154 12.6907 11.6562 13.1498 11.6562 13.7161V22.8921C11.9815 22.7951 12.3255 22.7422 12.6816 22.7422Z" fill="#9E9797"/>
<path d="M10.2969 37.2536V40.0787H14.5685C14.6444 40.0787 14.7195 40.0824 14.7948 40.0845V37.2536C14.7948 36.6834 15.257 36.2212 15.8271 36.2212H11.3294C10.7591 36.2212 10.2969 36.6833 10.2969 37.2536Z" fill="#B9ACAC"/>
<path d="M22.5278 33.7608V25.4644C22.5278 21.234 19.7733 17.6493 15.9609 16.3992C17.852 18.1425 19.0377 20.6395 19.0377 23.4142V36.2211H20.0676C21.4263 36.2212 22.5278 35.1197 22.5278 33.7608Z" fill="#B9ACAC"/>
<path d="M17.0093 59.8694H2.51154L2.08594 60.0103V68.5916C2.08594 69.3695 2.71648 70 3.49441 70H19.222C19.9999 70 20.6305 69.3695 20.6305 68.5916V58.6487C19.6234 59.414 18.3687 59.8694 17.0093 59.8694Z" fill="#B9ACAC"/>
<path d="M20.6305 68.5916V65.8452H2.08594V68.5918C2.08594 69.3697 2.71648 70.0002 3.49441 70.0002H19.222C19.9998 70.0001 20.6305 69.3696 20.6305 68.5916Z" fill="#9E9797"/>
<path d="M2.08594 46.7108V60.0102H17.0095C20.3991 60.0102 23.1469 57.2623 23.1469 53.8728V48.5188C23.1469 43.7795 19.3051 39.9377 14.5659 39.9377H8.85912C5.11836 39.9377 2.08594 42.9702 2.08594 46.7108Z" fill="#E1D3CE"/>
<path d="M11.7867 55.4855C10.4098 55.4855 9.16291 54.9192 8.26562 54.0078V69.9999H15.3079V54.0078C14.4104 54.9192 13.1637 55.4855 11.7867 55.4855Z" fill="#CDBFBA"/>
<path d="M8.26562 65.8452H15.3079V70.0001H8.26562V65.8452Z" fill="#B9ACAC"/>
<path d="M11.7885 55.6263C14.5971 55.6263 16.8739 53.3495 16.8739 50.541C16.8739 47.7324 14.5971 45.4556 11.7885 45.4556C8.97993 45.4556 6.70312 47.7324 6.70312 50.541C6.70312 53.3495 8.97993 55.6263 11.7885 55.6263Z" fill="#B9ACAC"/>
<path d="M11.7887 45.4558C11.7701 45.4558 11.7517 45.457 11.7331 45.4572C12.3706 46.3067 12.7485 47.3624 12.7485 48.5063C12.7485 51.2962 10.5015 53.5602 7.71875 53.5902C8.64639 54.8264 10.124 55.6263 11.7887 55.6263C14.5973 55.6263 16.8741 53.3495 16.8741 50.5409C16.8741 47.7326 14.5973 45.4558 11.7887 45.4558Z" fill="#9E9797"/>
<path d="M16.1604 25.4648C16.2306 25.7444 16.2683 26.0369 16.2683 26.3379V27.7464C16.2683 28.5312 16.0146 29.2573 15.5859 29.8489H22.5244V25.465H16.1604V25.4648Z" fill="#00F2A6"/>
<path d="M19.0391 25.4648H22.5292V29.8487H19.0391V25.4648Z" fill="#05E39C"/>
<path d="M12.6777 31.4788C10.6249 31.4788 8.94531 29.7992 8.94531 27.7464V26.3379C8.94531 24.2851 10.6249 22.6055 12.6777 22.6055C14.7306 22.6055 16.4102 24.2851 16.4102 26.3379V27.7464C16.4102 29.7993 14.7306 31.4788 12.6777 31.4788Z" fill="#E1D3CE"/>
<path d="M51.5341 0H19.6663C18.8884 0 18.2578 0.630547 18.2578 1.40848V7.73568C18.2578 8.51361 18.8884 9.14416 19.6663 9.14416H39.8806C40.0673 9.14416 40.2464 9.2184 40.3785 9.35047L43.6216 12.5936C43.9195 12.8915 44.4291 12.6805 44.4291 12.2592V9.56662C44.4291 9.33324 44.6183 9.14402 44.8517 9.14402H51.5342C52.3121 9.14402 52.9427 8.51348 52.9427 7.73555V1.40848C52.9424 0.630547 52.3119 0 51.5341 0Z" fill="#FFE177"/>
<path d="M51.5341 0H49.8277V5.56336C49.8277 6.34129 49.1971 6.97184 48.4192 6.97184H18.2578V7.73568C18.2578 8.51361 18.8884 9.14416 19.6663 9.14416H39.8806C40.0673 9.14416 40.2464 9.2184 40.3785 9.35047L43.6216 12.5936C43.9195 12.8915 44.4291 12.6805 44.4291 12.2592V9.56662C44.4291 9.33324 44.6183 9.14402 44.8517 9.14402H51.5342C52.3121 9.14402 52.9427 8.51348 52.9427 7.73555V1.40848C52.9424 0.630547 52.3119 0 51.5341 0Z" fill="#FFD15B"/>
<path d="M52.0488 28.9872C51.4825 28.9872 51.0234 28.5281 51.0234 27.9619V27.5488C51.0234 26.9825 51.4825 26.5234 52.0488 26.5234C52.6151 26.5234 53.0742 26.9825 53.0742 27.5488V27.9619C53.0742 28.5283 52.6151 28.9872 52.0488 28.9872Z" fill="#FFB09E"/>
<path d="M11.791 62.0429C11.2247 62.0429 10.7656 61.5838 10.7656 61.0175V59.8906C10.7656 59.3243 11.2247 58.8652 11.791 58.8652C12.3573 58.8652 12.8164 59.3243 12.8164 59.8906V61.0175C12.8164 61.5838 12.3574 62.0429 11.791 62.0429Z" fill="#05E39C"/>
<path d="M25.7051 5.59741H23.8535C23.2872 5.59741 22.8281 5.13831 22.8281 4.57202C22.8281 4.00573 23.2872 3.54663 23.8535 3.54663H25.7051C26.2714 3.54663 26.7305 4.00573 26.7305 4.57202C26.7305 5.13831 26.2714 5.59741 25.7051 5.59741Z" fill="white"/>
<path d="M47.3466 5.59741H34.2988C33.7325 5.59741 33.2734 5.13831 33.2734 4.57202C33.2734 4.00573 33.7325 3.54663 34.2988 3.54663H47.3466C47.9129 3.54663 48.372 4.00573 48.372 4.57202C48.372 5.13831 47.9129 5.59741 47.3466 5.59741Z" fill="white"/>
<path d="M29.3701 19.3137H24.4082C23.8419 19.3137 23.3828 18.8546 23.3828 18.2883C23.3828 17.722 23.8419 17.2629 24.4082 17.2629H29.37C29.9363 17.2629 30.3954 17.722 30.3954 18.2883C30.3954 18.8546 29.9364 19.3137 29.3701 19.3137Z" fill="white"/>
<path d="M34.5003 19.3137H32.9238C32.3575 19.3137 31.8984 18.8546 31.8984 18.2883C31.8984 17.722 32.3575 17.2629 32.9238 17.2629H34.5003C35.0666 17.2629 35.5257 17.722 35.5257 18.2883C35.5257 18.8546 35.0666 19.3137 34.5003 19.3137Z" fill="white"/>
<path d="M30.8926 5.59741H29.041C28.4747 5.59741 28.0156 5.13831 28.0156 4.57202C28.0156 4.00573 28.4747 3.54663 29.041 3.54663H30.8926C31.4589 3.54663 31.918 4.00573 31.918 4.57202C31.918 5.13831 31.459 5.59741 30.8926 5.59741Z" fill="white"/>
</g>
<defs>
<clipPath id="clip0_2767_12005">
<rect width="70" height="70" fill="white"/>
</clipPath>
</defs>
</svg>
