<svg width="70" height="70" viewBox="0 0 70 70" fill="none" xmlns="http://www.w3.org/2000/svg">
<g clip-path="url(#clip0_2767_12140)">
<path d="M58.3433 10.912C58.3259 10.3341 57.8217 9.88843 57.2435 9.88843H52.4916C52.1338 9.88843 51.8002 10.0697 51.6055 10.37L45.3029 20.0896C44.9856 20.5789 45.125 21.2328 45.6145 21.5503C46.1038 21.8676 46.7577 21.7281 47.0752 21.2387L52.7827 12.4369C52.9592 12.1648 53.2613 12.0006 53.5856 12.0006H57.2878C57.8819 12.0006 58.3613 11.51 58.3433 10.912Z" fill="#697491"/>
<path d="M59.054 13.1312C60.2618 13.1312 61.2408 12.1521 61.2408 10.9444C61.2408 9.73664 60.2618 8.75757 59.054 8.75757C57.8463 8.75757 56.8672 9.73664 56.8672 10.9444C56.8672 12.1521 57.8463 13.1312 59.054 13.1312Z" fill="#FD6470"/>
<path d="M68.8324 37.2643C63.607 41.888 50.4329 51.982 35.007 51.982C19.504 51.982 8.82558 41.7868 3.65406 37.1954C2.15111 35.861 2.17955 34.1091 3.73172 32.7356C8.95711 28.1119 19.5808 18.0178 35.0068 18.0178C50.4328 18.0178 63.6069 28.1119 68.8323 32.7356C70.3847 34.1091 70.3846 35.8908 68.8324 37.2643Z" fill="#F7F0FF"/>
<path d="M5.3313 37.1955C3.82835 35.8611 3.85679 34.1092 5.40896 32.7357C10.3941 28.3245 22.6143 18.9342 37.1222 18.0804C24.0867 17.3136 10.9853 24.0638 1.18489 32.7357C-0.367412 34.1092 -0.395713 35.8611 1.10724 37.1955C10.8863 45.8778 24.0354 52.6898 37.1226 51.9197C22.5384 51.0614 10.2663 41.5771 5.3313 37.1955Z" fill="#ECDEFF"/>
<path d="M21.3051 42.0791C20.816 41.7621 20.162 41.9014 19.8444 42.3907L12.8419 53.1896C12.6654 53.4616 12.3633 53.626 12.039 53.626H8.80338C8.22519 53.626 7.72084 54.0715 7.70361 54.6496C7.6857 55.2476 8.16517 55.7382 8.75922 55.7382H13.133C13.4908 55.7382 13.8244 55.5569 14.0191 55.2566L21.6167 43.5398C21.9338 43.0505 21.7944 42.3966 21.3051 42.0791Z" fill="#697491"/>
<path d="M34.9977 51.982C44.3767 51.982 51.9798 44.3789 51.9798 34.9999C51.9798 25.621 44.3767 18.0178 34.9977 18.0178C25.6188 18.0178 18.0156 25.621 18.0156 34.9999C18.0156 44.3789 25.6188 51.982 34.9977 51.982Z" fill="#8AC9FE"/>
<path d="M35.0003 47.0082C41.6322 47.0082 47.0085 41.632 47.0085 35.0001C47.0085 28.3682 41.6322 22.9919 35.0003 22.9919C28.3684 22.9919 22.9922 28.3682 22.9922 35.0001C22.9922 41.632 28.3684 47.0082 35.0003 47.0082Z" fill="#C4E2FF"/>
<path d="M41.5583 35C41.5583 38.6234 38.621 41.5606 34.9977 41.5606C31.3744 41.5606 30.2969 38.6234 30.2969 35C30.2969 31.3767 31.3744 28.4395 34.9977 28.4395C38.621 28.4395 41.5583 31.3767 41.5583 35Z" fill="#7883A0"/>
<path d="M32.6617 35C32.6617 32.1156 34.5231 29.666 37.1103 28.7868C32.8602 27.3425 28.4375 30.5082 28.4375 35C28.4375 39.4898 32.8582 42.6581 37.1103 41.2131C34.5231 40.3339 32.6617 37.8843 32.6617 35Z" fill="#697491"/>
<path d="M43.1649 32.0525C46.1124 32.0525 48.5018 29.6632 48.5018 26.7157C48.5018 23.7683 46.1124 21.3789 43.1649 21.3789C40.2175 21.3789 37.8281 23.7683 37.8281 26.7157C37.8281 29.6632 40.2175 32.0525 43.1649 32.0525Z" fill="#F7F0FF"/>
<path d="M38.7745 39.3098C38.2704 39.3098 37.6016 39.7533 37.6016 40.448C37.6016 41.0229 38.0676 41.5032 38.6587 41.5032C38.9912 41.5032 39.8316 41.1827 39.8316 40.365C39.8314 39.7099 39.2835 39.3098 38.7745 39.3098Z" fill="#F7F0FF"/>
<path d="M35.5046 41.5365C35.5046 41.2464 35.3227 40.468 34.304 40.468C33.8468 40.468 33.25 40.8264 33.25 41.5255C33.25 41.8154 33.4322 42.5939 34.4497 42.5939C34.9065 42.5937 35.5046 42.2363 35.5046 41.5365Z" fill="#F7F0FF"/>
<path d="M34.4693 28.6339C34.4693 28.0096 33.9554 27.5769 33.4133 27.5769C32.9717 27.5769 32.2188 27.8897 32.2188 28.6683C32.2188 29.2832 32.7232 29.7253 33.2744 29.7253C33.7989 29.7253 34.4693 29.3798 34.4693 28.6339Z" fill="#F7F0FF"/>
<path d="M29.522 35.5973C29.522 34.9301 29.108 34.3975 28.4554 34.3975C27.8649 34.3975 27.3984 34.8768 27.3984 35.4525C27.3984 35.954 27.6756 36.6522 28.4646 36.6522C29.1681 36.6522 29.522 36.0526 29.522 35.5973Z" fill="#F7F0FF"/>
<path d="M28.5547 31.258C28.5547 31.7542 28.9479 32.3151 29.6099 32.3151C30.3033 32.3151 30.75 31.6496 30.75 31.1432C30.75 30.7828 30.4685 30.0862 29.6948 30.0862C28.9982 30.0862 28.5547 30.7562 28.5547 31.258Z" fill="#F7F0FF"/>
<path d="M30.2746 38.4963C29.5333 38.4963 29.2188 39.143 29.2188 39.5525C29.2188 40.3064 29.9667 40.7104 30.3751 40.7104C31.1953 40.7104 31.4311 39.9647 31.4311 39.6543C31.4311 39.2089 30.9991 38.4963 30.2746 38.4963Z" fill="#F7F0FF"/>
<path d="M42.401 36.685C42.401 36.1373 41.9614 35.6294 41.3442 35.6294C40.4287 35.6294 40.25 36.5577 40.25 36.8245C40.25 37.3727 40.6901 37.8803 41.3068 37.8803C42.2248 37.8803 42.401 36.9521 42.401 36.685Z" fill="#F7F0FF"/>
<path d="M67.804 3.32788H61.2878C60.7096 3.32788 60.2052 3.77345 60.188 4.35149C60.1701 4.9495 60.6495 5.44005 61.2436 5.44005H65.7911C66.3197 5.44005 66.7482 5.86853 66.7482 6.39708V10.9003C66.7482 11.4785 67.1937 11.9829 67.7718 12.0001C68.3698 12.018 68.8603 11.5385 68.8603 10.9445V4.3839C68.8602 3.80065 68.3873 3.32788 67.804 3.32788Z" fill="#7883A0"/>
<path d="M67.7716 58C67.1937 58.0174 66.748 58.5216 66.748 59.0998V63.603C66.748 64.1316 66.3195 64.56 65.791 64.56H61.2878C60.7096 64.56 60.2052 65.0056 60.188 65.5836C60.1701 66.1817 60.6495 66.6722 61.2436 66.6722H67.8042C68.3874 66.6722 68.8602 66.1994 68.8602 65.6162V59.0556C68.8602 58.4616 68.3696 57.9821 67.7716 58Z" fill="#7883A0"/>
<path d="M2.22904 12C2.80695 11.9826 3.25266 11.4784 3.25266 10.9002V6.39684C3.25266 5.86828 3.68113 5.4398 4.20969 5.4398H8.71293C9.29111 5.4398 9.79547 4.99424 9.8127 4.41619C9.83061 3.81818 9.35113 3.32764 8.75709 3.32764H2.19664C1.6134 3.32764 1.14063 3.80041 1.14063 4.38365V10.9444C1.14049 11.5384 1.63104 12.0179 2.22904 12Z" fill="#7883A0"/>
<path d="M8.71307 64.5603H4.20982C3.68127 64.5603 3.25279 64.1318 3.25279 63.6032V59.1C3.25279 58.5218 2.80723 58.0175 2.22918 58.0002C1.63117 57.9823 1.14062 58.4618 1.14062 59.0558V65.6164C1.14062 66.1997 1.6134 66.6724 2.19664 66.6724H8.75723C9.35127 66.6724 9.83074 66.182 9.81283 65.5839C9.79561 65.0058 9.29125 64.5603 8.71307 64.5603Z" fill="#7883A0"/>
<path d="M8.75922 13.1686C8.16517 13.1686 7.6857 13.6591 7.70361 14.2571C7.72097 14.835 8.22519 15.2807 8.80338 15.2807H10.0263C10.5549 15.2807 10.9834 15.7092 10.9834 16.2378V17.4607C10.9834 18.0389 11.4289 18.5432 12.007 18.5605C12.605 18.5784 13.0955 18.0989 13.0955 17.5049V16.2376C13.0955 15.7091 13.524 15.2806 14.0526 15.2806H15.2755C15.8537 15.2806 16.358 14.835 16.3753 14.257C16.3932 13.659 15.9137 13.1684 15.3197 13.1684H14.0524C13.5239 13.1684 13.0954 12.7399 13.0954 12.2114V10.9884C13.0954 10.4103 12.6498 9.9059 12.0718 9.88867C11.4738 9.87076 10.9832 10.3502 10.9832 10.9443V12.2115C10.9832 12.7401 10.5547 13.1686 10.0262 13.1686H8.75922Z" fill="#FD6470"/>
<path d="M55.8125 54.682C55.8125 55.2652 56.2853 55.738 56.8685 55.738H61.2423C61.8255 55.738 62.2983 55.2652 62.2983 54.682C62.2983 54.0988 61.8255 53.626 61.2423 53.626H56.8685C56.2853 53.626 55.8125 54.0988 55.8125 54.682Z" fill="#8AC9FE"/>
<path d="M62.2976 59.0558C62.2976 58.4725 61.8248 57.9998 61.2416 57.9998H54.681C54.0978 57.9998 53.625 58.4725 53.625 59.0558C53.625 59.639 54.0978 60.1118 54.681 60.1118H61.2416C61.8248 60.1118 62.2976 59.639 62.2976 59.0558Z" fill="#8AC9FE"/>
<path d="M8.75449 58.0005C8.18492 58.0005 7.70312 58.4652 7.70312 59.0554C7.70312 59.7036 8.28582 60.2194 8.96477 60.0917C9.47486 59.9859 9.81529 59.5462 9.81529 59.0554C9.81516 58.4947 9.36248 58.0005 8.75449 58.0005Z" fill="#8AC9FE"/>
<path d="M13.134 57.9993C12.5677 57.9993 12.0781 58.4586 12.0781 59.0553C12.0781 59.6422 12.554 60.1113 13.1341 60.1113C13.6423 60.1113 14.1902 59.7104 14.1902 59.0553C14.1902 58.467 13.7078 57.9993 13.134 57.9993Z" fill="#8AC9FE"/>
</g>
<defs>
<clipPath id="clip0_2767_12140">
<rect width="70" height="70" fill="white"/>
</clipPath>
</defs>
</svg>
