<svg width="24" height="24" viewBox="0 0 24 24" fill="none" xmlns="http://www.w3.org/2000/svg">
<path d="M18.1983 2.00215V5.60129M19.9978 3.80172H16.3987M10.1155 2.73458C10.1541 2.52817 10.2636 2.34175 10.4251 2.20759C10.5867 2.07344 10.79 2 11 2C11.21 2 11.4133 2.07344 11.5749 2.20759C11.7364 2.34175 11.8459 2.52817 11.8845 2.73458L12.8302 7.73558C12.8973 8.09113 13.0701 8.41817 13.326 8.67403C13.5818 8.92989 13.9089 9.10267 14.2644 9.16984L19.2654 10.1155C19.4718 10.1541 19.6583 10.2636 19.7924 10.4251C19.9266 10.5867 20 10.79 20 11C20 11.21 19.9266 11.4133 19.7924 11.5749C19.6583 11.7364 19.4718 11.8459 19.2654 11.8845L14.2644 12.8302C13.9089 12.8973 13.5818 13.0701 13.326 13.326C13.0701 13.5818 12.8973 13.9089 12.8302 14.2644L11.8845 19.2654C11.8459 19.4718 11.7364 19.6583 11.5749 19.7924C11.4133 19.9266 11.21 20 11 20C10.79 20 10.5867 19.9266 10.4251 19.7924C10.2636 19.6583 10.1541 19.4718 10.1155 19.2654L9.16984 14.2644C9.10267 13.9089 8.92989 13.5818 8.67403 13.326C8.41817 13.0701 8.09113 12.8973 7.73558 12.8302L2.73458 11.8845C2.52817 11.8459 2.34175 11.7364 2.20759 11.5749C2.07344 11.4133 2 11.21 2 11C2 10.79 2.07344 10.5867 2.20759 10.4251C2.34175 10.2636 2.52817 10.1541 2.73458 10.1155L7.73558 9.16984C8.09113 9.10267 8.41817 8.92989 8.67403 8.67403C8.92989 8.41817 9.10267 8.09113 9.16984 7.73558L10.1155 2.73458ZM5.60129 18.1983C5.60129 19.1922 4.7956 19.9978 3.80172 19.9978C2.80785 19.9978 2.00215 19.1922 2.00215 18.1983C2.00215 17.2044 2.80785 16.3987 3.80172 16.3987C4.7956 16.3987 5.60129 17.2044 5.60129 18.1983Z" stroke="white" stroke-linecap="round" stroke-linejoin="round"/>
</svg>
