<svg width="80" height="80" viewBox="0 0 80 80" fill="none" xmlns="http://www.w3.org/2000/svg">
<path d="M66.0969 18.963C60.1622 11.5688 52.3845 8.82469 52.3845 8.82469C33.5162 2.4336 14.0089 18.2542 16.6473 38.4653L8.19592 47.0495C7.39654 47.8614 7.9717 49.2348 9.11108 49.2348H16.0831C17.0019 49.2348 17.7465 49.9795 17.7465 50.8983V60.63C17.7465 65.0628 21.3734 68.6897 25.8062 68.6897H30.7653C32.8728 68.6897 34.5811 70.3981 34.5811 72.5055V77.4211C34.5811 78.8453 35.7356 80 37.16 80H58.6495C60.2189 80 61.4462 78.647 61.2939 77.0851L59.6117 59.837C59.6117 58.3722 60.2498 56.9723 61.3781 56.0381C72.2076 47.0712 74.8581 31.0011 66.0969 18.963Z" fill="#F7CF9C"/>
<path d="M13.1326 47.0497L20.4678 39.5994C21.16 38.8964 21.5015 37.9269 21.428 36.9431C20.3056 21.9363 31.4406 8.8711 46.3137 7.52923C29.1726 5.93345 14.7559 20.5305 16.5656 37.7703C16.6125 38.2161 16.4569 38.6591 16.1423 38.9784L8.19592 47.0497C7.39654 47.8616 7.9717 49.235 9.11108 49.235H14.0476C12.9084 49.235 12.3333 47.8616 13.1326 47.0497Z" fill="#EAB883"/>
<path d="M22.682 60.63V50.8983C22.682 49.9796 21.9373 49.2349 21.0186 49.2349H16.082C17.0008 49.2349 17.7455 49.9796 17.7455 50.8983V60.63C17.7455 65.0628 21.3723 68.6897 25.8052 68.6897H30.7417C26.3089 68.6897 22.682 65.0628 22.682 60.63Z" fill="#EAB883"/>
<path d="M39.5181 77.4211V72.5055C39.5181 70.398 37.8097 68.6897 35.7022 68.6897H30.7656C32.8731 68.6897 34.5814 70.3981 34.5814 72.5055V77.4211C34.5814 78.8453 35.7359 80 37.1603 80H42.0969C40.6727 80 39.5181 78.8453 39.5181 77.4211Z" fill="#EAB883"/>
<path d="M43.8375 51.9641C53.2056 51.9641 60.8 44.3697 60.8 35.0016C60.8 25.6334 53.2056 18.0391 43.8375 18.0391C34.4694 18.0391 26.875 25.6334 26.875 35.0016C26.875 44.3697 34.4694 51.9641 43.8375 51.9641Z" fill="#70B5E8"/>
<path d="M33.4367 41.0094C29.173 33.6244 31.0945 24.3664 37.5928 19.2316C27.9256 23.0756 23.998 34.5573 29.1514 43.4836C34.3131 52.4239 46.2228 54.7406 54.375 48.2991C46.6789 51.3592 37.7005 48.3944 33.4367 41.0094Z" fill="#52A5D8"/>
<path d="M36.8309 39.2112C33.3195 35.5434 32.793 35.543 32.793 34.6733C32.793 33.8015 33.3377 33.7841 36.8309 30.1351C37.3023 29.6639 38.0669 29.6639 38.5383 30.1351C39.0098 30.6067 39.0098 31.3711 38.5383 31.8426L35.7077 34.6733L38.5383 37.5037C39.0098 37.9753 39.0098 38.7397 38.5383 39.2112C38.0667 39.6828 37.3025 39.6826 36.8309 39.2112Z" fill="#F9F9F9"/>
<path d="M49.9938 39.5648C48.9278 39.5648 48.3774 38.2667 49.1401 37.5037L51.9707 34.6733L49.1401 31.8426C48.6685 31.3711 48.6685 30.6067 49.1401 30.1351C49.6117 29.6637 50.376 29.6641 50.8474 30.1351L54.5317 33.8195C54.7581 34.0461 54.8852 34.3531 54.8852 34.6733C54.8852 34.9934 54.7581 35.3005 54.5317 35.527L50.8474 39.2112C50.6118 39.447 50.3028 39.5648 49.9938 39.5648Z" fill="#F9F9F9"/>
<path d="M41.197 41.8213C40.5704 41.5931 40.2475 40.9003 40.4755 40.2738L44.6134 28.905C44.8414 28.2786 45.5344 27.9559 46.1609 28.1834C46.7875 28.4116 47.1105 29.1044 46.8825 29.7309L42.7445 41.0997C42.5167 41.7253 41.8251 42.0492 41.197 41.8213Z" fill="#F9F9F9"/>
<path d="M71.7878 8.55641C71.4214 8.08047 70.0427 7.35781 70.3195 5.74312L70.5075 4.64719C70.6303 3.93172 70.1408 3.25469 69.4196 3.14984C68.8694 2.9875 67.311 3.20187 66.5888 1.73844L66.0866 0.720935C65.7647 0.068748 64.97 -0.189533 64.3263 0.149061C63.7856 0.341092 62.6539 1.42906 61.2096 0.669529L60.2194 0.149061C59.5846 -0.184533 58.7849 0.0609355 58.4591 0.720935C58.1311 1.2 57.8535 2.75359 56.2363 2.98844L55.1261 3.14984C54.4061 3.25437 53.9152 3.93031 54.0381 4.64719C54.0533 5.21562 54.7371 6.62719 53.5689 7.76562L52.7578 8.55625C52.2369 9.06375 52.2371 9.89953 52.7578 10.407L53.5688 11.1975C54.7435 12.3427 54.0535 13.7391 54.038 14.3161C53.915 15.0331 54.4061 15.7089 55.126 15.8134C55.6752 15.9755 57.2344 15.7614 57.9567 17.2248L58.4589 18.2423C58.6883 18.7072 59.1516 18.9634 59.6196 18.9634C60.1191 18.9634 60.3491 18.7102 61.2092 18.2937C61.875 17.9436 62.67 17.9436 63.336 18.2937L64.3261 18.8142C64.9688 19.152 65.7639 18.8958 66.0864 18.2423C66.4144 17.7633 66.6922 16.2097 68.3091 15.9748L69.4192 15.8134C70.1391 15.7089 70.6302 15.033 70.5072 14.3161L70.3192 13.2202C70.0416 11.6011 71.4256 10.8769 71.7875 10.407C72.3086 9.89953 72.3086 9.0639 71.7878 8.55641Z" fill="#92B620"/>
<path d="M60.5346 12.7722L58.7304 10.57C58.3079 10.0542 58.3835 9.29343 58.8993 8.87093C59.4151 8.44875 60.1759 8.52406 60.5984 9.03984L61.4987 10.1389L64.5062 6.70062C64.9452 6.19859 65.7079 6.14781 66.2098 6.58671C66.7118 7.02578 66.7626 7.78859 66.3237 8.29031L62.3773 12.8022C61.8835 13.3664 61.0052 13.3466 60.5346 12.7722Z" fill="#F9F9F9"/>
<path d="M57.6164 2.23093C56.8224 3.1639 55.8661 2.96061 55.1261 3.14983C54.4063 3.25436 53.9152 3.9303 54.0381 4.64718C54.0533 5.21561 54.7371 6.62718 53.5689 7.76561L52.7578 8.55624C52.2369 9.06374 52.2371 9.89952 52.7578 10.407L53.5688 11.1975C54.7435 12.3426 54.0535 13.7391 54.038 14.3161C53.915 15.0331 54.4061 15.7089 55.126 15.8134C55.6752 15.9755 57.2344 15.7614 57.9567 17.2248L58.4589 18.2423C58.6883 18.7072 59.1516 18.9634 59.6196 18.9634C60.1191 18.9634 60.3491 18.7101 61.2092 18.2937C61.875 17.9436 62.67 17.9436 63.336 18.2937L64.326 18.8142C64.9686 19.152 65.7638 18.8958 66.0863 18.2423C66.4599 17.6489 66.6364 16.5264 67.8735 16.0867C60.3828 16.6876 54.8542 9.21827 57.6164 2.23093Z" fill="#89A511"/>
</svg>
