<svg width="24" height="24" viewBox="0 0 24 24" fill="none" xmlns="http://www.w3.org/2000/svg">
<path d="M7.90288 21.4C7.74784 21.3994 7.59707 21.3491 7.47267 21.2566C7.34023 21.1569 7.24642 21.0144 7.2072 20.8534C7.16799 20.6923 7.18578 20.5226 7.25756 20.3732L10.1085 14.419L5.64282 13.9573C5.5054 13.943 5.37504 13.8893 5.26742 13.8027C5.1598 13.716 5.07949 13.6001 5.03617 13.469C4.99284 13.3378 4.98834 13.1969 5.0232 13.0632C5.05807 12.9295 5.13081 12.8087 5.23268 12.7154L15.707 3.19616C15.8308 3.07907 15.9922 3.00987 16.1623 3.00098C16.3325 2.99208 16.5002 3.04407 16.6355 3.14762C16.7708 3.25117 16.8648 3.39951 16.9007 3.56607C16.9366 3.73264 16.912 3.90653 16.8313 4.05659L13.7022 10.3664L18.1133 10.8511C18.2513 10.8659 18.382 10.9203 18.4896 11.0079C18.5972 11.0954 18.6771 11.2123 18.7196 11.3444C18.7621 11.4765 18.7654 11.618 18.7291 11.7519C18.6927 11.8858 18.6183 12.0063 18.5149 12.0987L8.38186 21.2136C8.25117 21.3335 8.08025 21.4 7.90288 21.4ZM7.38663 12.6953L11.2672 13.0968C11.3817 13.1083 11.4917 13.147 11.5881 13.2099C11.6844 13.2728 11.7642 13.358 11.8207 13.4582C11.8762 13.5587 11.9069 13.6709 11.9104 13.7856C11.9139 13.9003 11.8901 14.0142 11.8408 14.1179L10.1199 17.7288L16.3667 12.0987L12.5263 11.6743C12.411 11.663 12.3001 11.6239 12.2032 11.5604C12.1063 11.4969 12.0263 11.4108 11.9699 11.3096C11.9135 11.2084 11.8825 11.0951 11.8795 10.9792C11.8765 10.8634 11.9016 10.7486 11.9526 10.6446L13.8599 6.81284L7.38663 12.6953Z" fill="white"/>
</svg>
