<svg width="80" height="80" viewBox="0 0 80 80" fill="none" xmlns="http://www.w3.org/2000/svg">
<g clip-path="url(#clip0_2453_28666)">
<path d="M37.6562 49.0813H42.3438V67.3544H37.6562V49.0813Z" fill="#00E4EF"/>
<path d="M40 49.0813H42.3438V67.3544H40V49.0813Z" fill="#6BA7FF"/>
<path d="M24.3639 68.3383H12.6445V63.6508H19.6764V49.0813H24.3639V68.3383Z" fill="#00E4EF"/>
<path d="M67.3522 68.3383H55.6328V49.0813H60.3203V63.6508H67.3522V68.3383Z" fill="#00E4EF"/>
<path d="M67.3522 68.3383H55.6328V49.0813H60.3203V63.6508H67.3522V68.3383Z" fill="#6BA7FF"/>
<path d="M39.9984 79.9999C44.1376 79.9999 47.493 76.6445 47.493 72.5054C47.493 68.3663 44.1376 65.0109 39.9984 65.0109C35.8593 65.0109 32.5039 68.3663 32.5039 72.5054C32.5039 76.6445 35.8593 79.9999 39.9984 79.9999Z" fill="#6BA7FF"/>
<path d="M7.49453 73.4891C11.6336 73.4891 14.9891 70.1337 14.9891 65.9946C14.9891 61.8555 11.6336 58.5001 7.49453 58.5001C3.35542 58.5001 0 61.8555 0 65.9946C0 70.1337 3.35542 73.4891 7.49453 73.4891Z" fill="#6BA7FF"/>
<path d="M72.5023 73.4891C76.6415 73.4891 79.9969 70.1337 79.9969 65.9946C79.9969 61.8555 76.6415 58.5001 72.5023 58.5001C68.3632 58.5001 65.0078 61.8555 65.0078 65.9946C65.0078 70.1337 68.3632 73.4891 72.5023 73.4891Z" fill="#6BA7FF"/>
<path d="M64.0942 17.6262C61.7859 7.44472 52.6316 0 42.0053 0C33.7312 0 26.1309 4.54017 22.1704 11.7065C21.4237 11.6222 20.6709 11.5797 19.9184 11.5797C8.93535 11.5797 0 20.5151 0 31.4979C0 42.4809 8.93535 51.4163 19.9184 51.4163H63.0876C72.4117 51.4163 79.9975 43.8305 79.9975 34.5064C79.9975 25.5203 72.9514 18.1488 64.0942 17.6262Z" fill="#E7F1F9"/>
<path d="M64.0954 17.6262C61.7871 7.44472 52.6329 0 42.0066 0C41.3327 0 40.6633 0.0301564 40 0.0893754V51.4165H63.0888C72.4129 51.4165 79.9988 43.8306 79.9988 34.5065C79.9988 25.5203 72.9526 18.1488 64.0954 17.6262Z" fill="#D5E7F6"/>
<path d="M72.5023 73.4891C76.6415 73.4891 79.9969 70.1337 79.9969 65.9946C79.9969 61.8555 76.6415 58.5001 72.5023 58.5001C68.3632 58.5001 65.0078 61.8555 65.0078 65.9946C65.0078 70.1337 68.3632 73.4891 72.5023 73.4891Z" fill="#817EF7"/>
<path d="M47.4945 72.5054C47.4945 68.3729 44.1325 65.0109 40 65.0109V80.0001C44.1325 79.9999 47.4945 76.6379 47.4945 72.5054Z" fill="#817EF7"/>
</g>
<defs>
<clipPath id="clip0_2453_28666">
<rect width="80" height="80" fill="white"/>
</clipPath>
</defs>
</svg>
