<svg width="40" height="40" viewBox="0 0 40 40" fill="none" xmlns="http://www.w3.org/2000/svg">
<path d="M13.8693 33C12.8322 33 11.9553 32.6256 11.2386 31.8769C10.5219 31.1282 10.1635 30.2191 10.1635 29.1495C10.1635 28.0799 10.5239 27.1755 11.2448 26.4363C11.9656 25.6971 12.8409 25.3275 13.8707 25.3275C14.1014 25.3275 14.3403 25.3487 14.5875 25.3912C14.8346 25.4337 15.0406 25.4889 15.2053 25.5569L16.1692 24.2314C15.7738 23.7386 15.4813 23.1693 15.2918 22.5235C15.1023 21.8778 15.0488 21.2575 15.1312 20.6627L13.6977 20C13.3847 20.4418 12.9706 20.8029 12.4555 21.0833C11.9404 21.3637 11.3659 21.5039 10.7319 21.5039C9.69529 21.5039 8.81414 21.1313 8.08848 20.3861C7.36283 19.6409 7 18.736 7 17.6714C7 16.6068 7.36297 15.7007 8.08891 14.9529C8.81484 14.2052 9.69634 13.8314 10.7334 13.8314C11.7704 13.8314 12.6473 14.2056 13.3641 14.954C14.0808 15.7024 14.4392 16.6112 14.4392 17.6804C14.4392 17.7016 14.4392 17.7229 14.4392 17.7441C14.4392 17.7654 14.4392 17.7866 14.4392 17.8078L15.8232 18.4961C16.1527 17.9353 16.5894 17.4467 17.1331 17.0304C17.6768 16.6141 18.2617 16.3379 18.8878 16.202V14.5196C18.2452 14.3157 17.648 13.8909 17.096 13.2451C16.544 12.5993 16.2681 11.8007 16.2681 10.849C16.2681 9.77985 16.631 8.87105 17.357 8.12263C18.0829 7.37421 18.9644 7 20.0015 7C21.0385 7 21.9195 7.37421 22.6445 8.12263C23.3695 8.87105 23.7319 9.77985 23.7319 10.849C23.7319 11.8007 23.456 12.5993 22.904 13.2451C22.352 13.8909 21.7548 14.3157 21.1122 14.5196V16.202C21.7383 16.3549 22.3232 16.6395 22.8669 17.0559C23.4106 17.4722 23.8473 17.9608 24.1768 18.5216L25.5608 17.8078C25.5608 17.7866 25.5608 17.7654 25.5608 17.7441C25.5608 17.7229 25.5608 17.7016 25.5608 17.6804C25.5608 16.6112 25.9221 15.7024 26.6447 14.954C27.3672 14.2056 28.2446 13.8314 29.2768 13.8314C30.309 13.8314 31.1876 14.2057 31.9125 14.9544C32.6375 15.7032 33 16.6123 33 17.6819C33 18.7515 32.6372 19.6559 31.9115 20.3951C31.1859 21.1343 30.3047 21.5039 29.2681 21.5039C28.6354 21.5039 28.057 21.3595 27.5331 21.0706C27.0091 20.7817 26.5906 20.4163 26.2776 19.9745L24.8441 20.6627C24.8935 21.2915 24.84 21.9118 24.6835 22.5235C24.5269 23.1353 24.2427 23.7046 23.8308 24.2314L24.8194 25.5824C24.9842 25.4974 25.186 25.4337 25.4249 25.3912C25.6638 25.3487 25.8986 25.3275 26.1293 25.3275C27.1591 25.3275 28.0344 25.6971 28.7552 26.4363C29.4761 27.1755 29.8365 28.0799 29.8365 29.1495C29.8365 30.2191 29.4781 31.1282 28.7614 31.8769C28.0447 32.6256 27.1678 33 26.1307 33C25.0937 33 24.2122 32.6258 23.4862 31.8774C22.7603 31.129 22.3973 30.2202 22.3973 29.151C22.3973 28.7396 22.4591 28.3436 22.5827 27.963C22.7063 27.5824 22.8587 27.2562 23.0399 26.9843L22.1008 25.6588C21.4582 25.9987 20.7538 26.1686 19.9876 26.1686C19.2215 26.1686 18.5171 25.9987 17.8745 25.6588L16.9601 26.9843C17.1413 27.2562 17.2937 27.5824 17.4173 27.963C17.5409 28.3436 17.6027 28.7396 17.6027 29.151C17.6027 30.2202 17.2397 31.129 16.5138 31.8774C15.7878 32.6258 14.9063 33 13.8693 33Z" fill="black"/>
</svg>
