<svg width="40" height="40" viewBox="0 0 40 40" fill="none" xmlns="http://www.w3.org/2000/svg">
<path d="M28.0171 16.6891L26.5418 13.3638L23.3126 11.8445L26.5418 10.3252L28.0171 7L29.5203 10.3252L32.7495 11.8445L29.5203 13.3638L28.0171 16.6891ZM30.2163 25.6902L29.3255 23.7409L27.4325 22.8236L29.3255 21.9063L30.2163 19.957L31.1071 21.9063L33 22.8236L31.1071 23.7409L30.2163 25.6902ZM13.6809 33L13.3191 30.0761C13.2819 30.057 13.2495 30.0426 13.2216 30.0331C13.1938 30.0235 13.1613 29.9996 13.1242 29.9614L10.5632 31.108L7 24.7442L9.25482 23.0529C9.25482 23.0147 9.25482 22.9813 9.25482 22.9526C9.25482 22.9239 9.25482 22.8905 9.25482 22.8523L7 21.161L10.5632 14.7971L13.1242 15.9438C13.1613 15.9056 13.1938 15.8769 13.2216 15.8578C13.2495 15.8387 13.2819 15.8196 13.3191 15.8004L13.6809 12.9052H20.8073L21.1692 15.8004C21.2063 15.8196 21.2388 15.8387 21.2666 15.8578C21.2944 15.8769 21.3269 15.9056 21.364 15.9438L23.9251 14.7971L27.4882 21.161L25.2334 22.8523C25.2334 22.8905 25.2334 22.9239 25.2334 22.9526C25.2334 22.9813 25.2334 23.0147 25.2334 23.0529L27.4882 24.7442L23.9251 31.108L21.364 29.9614C21.3269 29.9996 21.2944 30.0235 21.2666 30.0331C21.2388 30.0426 21.2063 30.057 21.1692 30.0761L20.8073 33H13.6809ZM17.2441 26.6648C18.2463 26.6648 19.0953 26.3017 19.7912 25.5755C20.4872 24.8493 20.8351 23.9702 20.8351 22.9383C20.8351 21.9063 20.4872 21.032 19.7912 20.3153C19.0953 19.5987 18.2463 19.2404 17.2441 19.2404C16.242 19.2404 15.3929 19.5987 14.697 20.3153C14.0011 21.032 13.6531 21.9063 13.6531 22.9383C13.6531 23.9702 14.0011 24.8493 14.697 25.5755C15.3929 26.3017 16.242 26.6648 17.2441 26.6648Z" fill="black"/>
</svg>
