<svg width="40" height="40" viewBox="0 0 40 40" fill="none" xmlns="http://www.w3.org/2000/svg">
<path d="M11 33V29.4691H17.4407V27.8642C15.6158 27.7358 14.0862 27.0082 12.8517 25.6815C11.6172 24.3547 11 22.7819 11 20.963C11 19.7646 11.2952 18.6572 11.8856 17.6407C12.476 16.6243 13.2864 15.8058 14.3169 15.1852C14.2096 15.8486 14.2579 16.4905 14.4619 17.1111C14.6658 17.7317 14.9932 18.2881 15.4441 18.7802C15.165 19.0798 14.9449 19.4169 14.7839 19.7914C14.6229 20.1658 14.5424 20.5564 14.5424 20.963C14.5424 21.9045 14.8698 22.7016 15.5246 23.3543C16.1794 24.007 16.9791 24.3333 17.9237 24.3333H28.7119V27.8642H22.2712V29.4691H30V33H11ZM22.9797 22.1827L22.5288 20.963L20.8864 21.6049L20.178 19.7432C20.9938 19.4436 21.6432 18.9354 22.1263 18.2185C22.6093 17.5016 22.8508 16.7045 22.8508 15.8272C22.8508 14.3934 22.2712 13.2539 21.1119 12.4086C19.9525 11.5634 18.6751 11.3547 17.2797 11.7827L16.6356 10.0494L18.3424 9.37531L17.8915 8.21975L21.3051 7L21.7237 8.21975L23.3339 7.60988L27.5847 19.1012L25.9102 19.7111L26.361 20.9309L22.9797 22.1827ZM18.5678 18.3309C17.8808 18.3309 17.2904 18.0848 16.7966 17.5926C16.3028 17.1004 16.0559 16.5119 16.0559 15.8272C16.0559 15.1424 16.3028 14.5539 16.7966 14.0617C17.2904 13.5695 17.8808 13.3235 18.5678 13.3235C19.2548 13.3235 19.8452 13.5695 20.339 14.0617C20.8328 14.5539 21.0797 15.1424 21.0797 15.8272C21.0797 16.5119 20.8328 17.1004 20.339 17.5926C19.8452 18.0848 19.2548 18.3309 18.5678 18.3309Z" fill="black"/>
</svg>
