<svg width="40" height="40" viewBox="0 0 40 40" fill="none" xmlns="http://www.w3.org/2000/svg">
<path d="M12.4881 28C10.4132 28 8.64645 27.2209 7.18787 25.6626C5.72929 24.1043 5 22.2167 5 20C5 17.7833 5.72929 15.8957 7.18787 14.3374C8.64645 12.7791 10.4132 12 12.4881 12C13.3304 12 14.1418 12.1591 14.9225 12.4774C15.7031 12.7956 16.4016 13.251 17.0179 13.8436L18.7127 15.4239L15.8161 18.2222L14.4294 16.9383C14.1624 16.6968 13.8593 16.5048 13.5204 16.3621C13.1814 16.2195 12.8373 16.1481 12.4881 16.1481C11.4814 16.1481 10.6289 16.5213 9.93042 17.2675C9.23194 18.0137 8.8827 18.9246 8.8827 20C8.8827 21.0754 9.23194 21.9863 9.93042 22.7325C10.6289 23.4787 11.4814 23.8519 12.4881 23.8519C12.8373 23.8519 13.1814 23.7805 13.5204 23.6379C13.8593 23.4952 14.1624 23.3032 14.4294 23.0617L23.9821 13.8436C24.5984 13.251 25.2969 12.7956 26.0775 12.4774C26.8582 12.1591 27.6696 12 28.5119 12C30.5868 12 32.3535 12.7791 33.8121 14.3374C35.2707 15.8957 36 17.7833 36 20C36 22.2167 35.2707 24.1043 33.8121 25.6626C32.3535 27.2209 30.5868 28 28.5119 28C27.6696 28 26.8582 27.8409 26.0775 27.5226C25.2969 27.2044 24.5984 26.749 23.9821 26.1564L22.2873 24.5761L25.1839 21.7778L26.5706 23.0617C26.8376 23.3032 27.1407 23.4952 27.4796 23.6379C27.8186 23.7805 28.1627 23.8519 28.5119 23.8519C29.5186 23.8519 30.3711 23.4787 31.0696 22.7325C31.7681 21.9863 32.1173 21.0754 32.1173 20C32.1173 18.9246 31.7681 18.0137 31.0696 17.2675C30.3711 16.5213 29.5186 16.1481 28.5119 16.1481C28.1627 16.1481 27.8186 16.2195 27.4796 16.3621C27.1407 16.5048 26.8376 16.6968 26.5706 16.9383L17.0179 26.1564C16.4016 26.749 15.7031 27.2044 14.9225 27.5226C14.1418 27.8409 13.3304 28 12.4881 28Z" fill="white"/>
</svg>
