<svg width="40" height="40" viewBox="0 0 40 40" fill="none" xmlns="http://www.w3.org/2000/svg">
<path d="M7.37312 17.129L12.5968 11.8768C13.0369 11.4391 13.5439 11.1394 14.1179 10.9776C14.692 10.8159 15.2851 10.7921 15.8974 10.9063L17.5047 11.2203C16.3567 12.5904 15.4286 13.8654 14.7207 15.0453C14.0127 16.2251 13.2952 17.6524 12.5681 19.327L7.37312 17.129ZM14.6633 20.0406C15.4286 18.2518 16.2514 16.6771 17.1316 15.3164C18.0118 13.9558 18.9972 12.7331 20.0878 11.6484C21.7525 9.99282 23.752 8.75112 26.0864 7.92332C28.4208 7.09552 30.6882 6.82434 32.8887 7.10979C33.1757 9.29823 32.9078 11.5533 32.085 13.8749C31.2622 16.1966 30.0185 18.1852 28.3538 19.8408C27.2632 20.9255 26.0338 21.9103 24.6657 22.7952C23.2976 23.6801 21.7142 24.5031 19.9156 25.2643L14.6633 20.0406ZM23.7616 16.1871C24.1634 16.5867 24.6561 16.7865 25.2397 16.7865C25.8233 16.7865 26.316 16.5867 26.7179 16.1871C27.1197 15.7874 27.3206 15.3022 27.3206 14.7313C27.3206 14.1604 27.1197 13.6751 26.7179 13.2755C26.316 12.8759 25.8233 12.676 25.2397 12.676C24.6561 12.676 24.1634 12.8759 23.7616 13.2755C23.3598 13.6751 23.1589 14.1604 23.1589 14.7313C23.1589 15.3022 23.3598 15.7874 23.7616 16.1871ZM22.8432 32.4862L20.6045 27.3196C22.2883 26.5964 23.7233 25.8828 24.9097 25.1787C26.096 24.4746 27.378 23.5516 28.7557 22.4098L29.0714 24.0369C29.1862 24.6459 29.1623 25.231 28.9996 25.7924C28.837 26.3538 28.5356 26.8533 28.0955 27.291L22.8432 32.4862ZM9.55442 24.3509C10.4155 23.4946 11.4391 23.0664 12.6255 23.0664C13.8118 23.0664 14.8355 23.4946 15.6965 24.3509C16.5576 25.2072 16.9881 26.2253 16.9881 27.4052C16.9881 28.5851 16.5576 29.6032 15.6965 30.4595C15.0651 31.0875 13.9936 31.6203 12.482 32.058C10.9704 32.4957 9.14304 32.8097 7 33C7.19134 30.8686 7.50706 29.0513 7.94715 27.5479C8.38723 26.0446 8.92299 24.9789 9.55442 24.3509Z" fill="black"/>
</svg>
