<svg width="40" height="40" viewBox="0 0 40 40" fill="none" xmlns="http://www.w3.org/2000/svg">
<path d="M20 33C18.1952 33 16.5033 32.6616 14.9241 31.9848C13.3449 31.308 11.9678 30.3821 10.7928 29.2072C9.61786 28.0322 8.69197 26.6551 8.01518 25.0759C7.33839 23.4967 7 21.8048 7 20C7 18.1952 7.33839 16.5033 8.01518 14.9241C8.69197 13.3449 9.61786 11.9678 10.7928 10.7928C11.9678 9.61786 13.3449 8.69197 14.9241 8.01518C16.5033 7.33839 18.1952 7 20 7C21.8048 7 23.4967 7.33839 25.0759 8.01518C26.6551 8.69197 28.0322 9.61786 29.2072 10.7928C30.3821 11.9678 31.308 13.3449 31.9848 14.9241C32.6616 16.5033 33 18.1952 33 20C33 21.8048 32.6616 23.4967 31.9848 25.0759C31.308 26.6551 30.3821 28.0322 29.2072 29.2072C28.0322 30.3821 26.6551 31.308 25.0759 31.9848C23.4967 32.6616 21.8048 33 20 33ZM20 29.898C21.1656 29.898 22.2654 29.7054 23.2994 29.32C24.3333 28.9346 25.2733 28.4129 26.1193 27.7549L24.8221 26.4577C24.1641 26.9653 23.4215 27.3601 22.5944 27.6421C21.7672 27.9241 20.9024 28.0651 20 28.0651C17.7628 28.0651 15.8594 27.2802 14.2896 25.7104C12.7198 24.1406 11.9349 22.2372 11.9349 20C11.9349 17.7628 12.7198 15.8594 14.2896 14.2896C15.8594 12.7198 17.7628 11.9349 20 11.9349C22.2372 11.9349 24.1406 12.7198 25.7104 14.2896C27.2802 15.8594 28.0651 17.7628 28.0651 20C28.0651 20.9212 27.9194 21.8001 27.628 22.6367C27.3366 23.4732 26.9371 24.2299 26.4295 24.9067L27.6985 26.1757C28.3753 25.3297 28.9111 24.385 29.3059 23.3417C29.7007 22.2983 29.898 21.1844 29.898 20C29.898 17.2552 28.9346 14.9194 27.0076 12.9924C25.0806 11.0654 22.7448 10.102 20 10.102C17.2552 10.102 14.9194 11.0654 12.9924 12.9924C11.0654 14.9194 10.102 17.2552 10.102 20C10.102 22.7448 11.0654 25.0806 12.9924 27.0076C14.9194 28.9346 17.2552 29.898 20 29.898ZM20 24.9349C20.4888 24.9349 20.9494 24.8691 21.3818 24.7375C21.8142 24.6059 22.2184 24.4273 22.5944 24.2017L21.2408 22.8764C21.0528 22.9704 20.8507 23.0362 20.6345 23.0738C20.4183 23.1114 20.2068 23.1302 20 23.1302C19.1352 23.1302 18.3973 22.8247 17.7863 22.2137C17.1753 21.6027 16.8698 20.8648 16.8698 20C16.8698 19.1352 17.1753 18.3973 17.7863 17.7863C18.3973 17.1753 19.1352 16.8698 20 16.8698C20.8648 16.8698 21.6027 17.1753 22.2137 17.7863C22.8247 18.3973 23.1302 19.1352 23.1302 20C23.1302 20.2256 23.102 20.4465 23.0456 20.6627C22.9892 20.8789 22.914 21.0904 22.82 21.2972L24.1735 22.6226C24.4179 22.2466 24.6059 21.8377 24.7375 21.3959C24.8691 20.9541 24.9349 20.4888 24.9349 20C24.9349 18.6464 24.4508 17.4855 23.4826 16.5174C22.5145 15.5492 21.3536 15.0651 20 15.0651C18.6464 15.0651 17.4855 15.5492 16.5174 16.5174C15.5492 17.4855 15.0651 18.6464 15.0651 20C15.0651 21.3536 15.5492 22.5145 16.5174 23.4826C17.4855 24.4508 18.6464 24.9349 20 24.9349Z" fill="black"/>
</svg>
