<svg width="26" height="26" viewBox="0 0 26 26" fill="none" xmlns="http://www.w3.org/2000/svg">
<path d="M1.5882 10.5547L0.27399 11.8686C0.187179 11.9546 0.118269 12.0569 0.071241 12.1697C0.0242133 12.2825 0 12.4034 0 12.5256C0 12.6478 0.0242133 12.7687 0.071241 12.8815C0.118269 12.9942 0.187179 13.0966 0.27399 13.1826L2.24298 15.1511C2.32895 15.237 2.43106 15.305 2.54344 15.3512C2.65582 15.3974 2.77624 15.421 2.89776 15.4204C3.14458 15.4216 3.38175 15.3247 3.55719 15.1511L4.8714 13.8372L1.5882 10.5547Z" fill="white"/>
<path d="M11.0041 10.7835L4.63215 4.41406L2.10156 9.75769L5.65875 13.3191L11.0041 10.7835Z" fill="white"/>
<path d="M12.7416 10.5537C13.0025 10.2925 13.1491 9.93852 13.1491 9.5694C13.1491 9.20028 13.0025 8.84625 12.7416 8.58511L6.82994 2.67475C6.56444 2.42214 6.21195 2.28125 5.84544 2.28125C5.47893 2.28125 5.12645 2.42214 4.86095 2.67475L4.53125 3.00438L12.4119 10.8833L12.7416 10.5537Z" fill="white"/>
<path d="M6.84716 17.8553C7.12252 17.855 7.39164 17.7732 7.62052 17.6201C7.8494 17.4671 8.02777 17.2496 8.13311 16.9953C8.23846 16.7409 8.26604 16.461 8.21239 16.191C8.15874 15.921 8.02625 15.6729 7.83166 15.4781L6.36885 14.0156L5.69085 14.336L4.21875 15.8031L5.86267 17.4467C6.12368 17.708 6.4778 17.855 6.84716 17.8553Z" fill="white"/>
<path d="M10.3238 0.928573C10.8726 0.928317 11.4161 1.0362 11.9232 1.24607C12.4304 1.45594 12.8912 1.76366 13.2793 2.15167C13.6674 2.53967 13.9752 3.00034 14.1851 3.50734C14.3951 4.01434 14.503 4.55774 14.5028 5.10647C14.5028 5.22961 14.5517 5.3477 14.6388 5.43477C14.7259 5.52184 14.844 5.57076 14.9672 5.57076C15.0903 5.57076 15.2084 5.52184 15.2955 5.43477C15.3826 5.3477 15.4315 5.22961 15.4315 5.10647C15.4317 4.4358 15.2997 3.77167 15.0431 3.15203C14.7865 2.53238 14.4103 1.96936 13.9359 1.49513C13.4616 1.02091 12.8984 0.644786 12.2786 0.388244C11.6588 0.131702 10.9946 -0.000225017 10.3238 2.88095e-07C10.2006 2.88095e-07 10.0825 0.0489163 9.99539 0.135987C9.9083 0.223057 9.85938 0.34115 9.85938 0.464287C9.85938 0.587423 9.9083 0.705516 9.99539 0.792587C10.0825 0.879657 10.2006 0.928573 10.3238 0.928573Z" fill="white"/>
<path d="M10.3249 2.7846H10.3385C10.9515 2.78699 11.5386 3.03228 11.9711 3.46672C12.4035 3.90115 12.646 4.48927 12.6455 5.10218C12.6452 5.16314 12.6569 5.22356 12.68 5.27999C12.703 5.33641 12.737 5.38774 12.7799 5.43105C12.8228 5.47435 12.8738 5.50878 12.9301 5.53237C12.9863 5.55595 13.0466 5.56823 13.1076 5.56851H13.1098C13.2326 5.56842 13.3504 5.51976 13.4374 5.43315C13.5244 5.34654 13.5736 5.22902 13.5742 5.10626C13.5769 4.67892 13.4942 4.25535 13.3309 3.86038C13.1677 3.46541 12.9273 3.10699 12.6237 2.80614C12.326 2.49827 11.968 2.25502 11.5721 2.09156C11.1762 1.92809 10.7509 1.84792 10.3226 1.85603C10.1995 1.85633 10.0815 1.90553 9.99459 1.99282C9.90771 2.0801 9.85908 2.19831 9.85938 2.32145C9.85968 2.44459 9.90889 2.56256 9.9962 2.64942C10.0835 2.73628 10.2017 2.7849 10.3249 2.7846Z" fill="white"/>
<path d="M10.3269 4.64348H10.3333C10.454 4.64432 10.5697 4.69213 10.6557 4.77678C10.6984 4.81858 10.7322 4.8686 10.755 4.92381C10.7779 4.97902 10.7893 5.03828 10.7886 5.09802C10.7868 5.22118 10.834 5.34001 10.9198 5.42839C11.0056 5.51677 11.123 5.56747 11.2462 5.56933H11.253C11.3749 5.5693 11.492 5.52133 11.5789 5.43579C11.6657 5.35024 11.7155 5.23397 11.7174 5.11207C11.7193 4.92813 11.6844 4.74565 11.6149 4.57533C11.5454 4.405 11.4426 4.25026 11.3125 4.12015C11.1825 3.99004 11.0277 3.88719 10.8574 3.8176C10.6871 3.74802 10.5046 3.71311 10.3206 3.71491C10.1974 3.71575 10.0796 3.76548 9.99315 3.85314C9.90666 3.94081 9.85854 4.05924 9.85939 4.18237C9.86023 4.30551 9.90996 4.42327 9.99765 4.50974C10.0853 4.59622 10.2038 4.64433 10.3269 4.64348Z" fill="white"/>
<path d="M25.5311 25.0703H6.02689C5.90372 25.0703 5.7856 25.1192 5.69851 25.2063C5.61143 25.2934 5.5625 25.4115 5.5625 25.5346C5.5625 25.6577 5.61143 25.7758 5.69851 25.8629C5.7856 25.95 5.90372 25.9989 6.02689 25.9989H25.5311C25.6542 25.9989 25.7723 25.95 25.8594 25.8629C25.9465 25.7758 25.9954 25.6577 25.9954 25.5346C25.9954 25.4115 25.9465 25.2934 25.8594 25.2063C25.7723 25.1192 25.6542 25.0703 25.5311 25.0703Z" fill="white"/>
<path d="M24.6135 8.35882C24.6132 8.23579 24.5641 8.11791 24.4771 8.03092C24.3901 7.94393 24.2722 7.8949 24.1491 7.89453H21.3628C21.2398 7.8949 21.1219 7.94393 21.0349 8.03092C20.9478 8.11791 20.8988 8.23579 20.8984 8.35882V24.1446H24.6135V8.35882Z" fill="white"/>
<path d="M19.9651 12.0698C19.9647 11.9467 19.9157 11.8288 19.8287 11.7419C19.7417 11.6549 19.6237 11.6058 19.5007 11.6055H16.7144C16.5913 11.6058 16.4734 11.6549 16.3864 11.7419C16.2994 11.8288 16.2504 11.9467 16.25 12.0698V24.1412H19.9651V12.0698Z" fill="white"/>
<path d="M7.42532 19.0352C7.30227 19.0355 7.18436 19.0845 7.09735 19.1715C7.01034 19.2585 6.9613 19.3764 6.96094 19.4994V24.1423H10.676V19.4994C10.6757 19.3764 10.6266 19.2585 10.5396 19.1715C10.4526 19.0845 10.3347 19.0355 10.2116 19.0352H7.42532Z" fill="white"/>
<path d="M14.8523 15.3203H12.0659C11.9429 15.3207 11.825 15.3697 11.738 15.4567C11.651 15.5437 11.6019 15.6616 11.6016 15.7846V24.1418H15.3166V15.7846C15.3163 15.6616 15.2672 15.5437 15.1802 15.4567C15.0932 15.3697 14.9753 15.3207 14.8523 15.3203Z" fill="white"/>
</svg>
