<svg width="44" height="44" viewBox="0 0 44 44" fill="none" xmlns="http://www.w3.org/2000/svg">
<rect width="43.9975" height="43.9999" rx="21.9987" fill="white"/>
<path d="M17.0953 27.2707H31.2316C31.3403 27.271 31.4464 27.2382 31.5349 27.1771C31.6233 27.116 31.6896 27.0295 31.7244 26.93L32.6997 24.109C31.2028 25.0659 29.46 25.602 27.6659 25.6575C25.8718 25.7131 24.097 25.2858 22.5397 24.4236C20.9824 23.5613 19.7039 22.2979 18.8469 20.7744C17.99 19.251 17.5883 17.5274 17.6867 15.7963L13.7493 15.7963C13.7369 15.7955 13.7245 15.7972 13.7129 15.8013L12.8103 13.0455C12.7238 12.7589 12.5438 12.5069 12.2969 12.3272C12.0501 12.1475 11.7498 12.0497 11.4407 12.0483H8.50973C8.37372 12.0506 8.24409 12.1045 8.14875 12.1982C8.05341 12.2919 7.99999 12.418 8 12.5494C8.00001 12.6808 8.05343 12.807 8.14878 12.9007C8.24413 12.9944 8.37376 13.0482 8.50977 13.0505H11.4407C11.5269 13.0515 11.6103 13.0801 11.6779 13.1318C11.7455 13.1834 11.7934 13.2553 11.8143 13.3361L16.2134 26.7296L15.4819 28.1426C15.339 28.4186 15.2714 28.7252 15.2857 29.0335C15.2999 29.3418 15.3956 29.6415 15.5634 29.904C15.7313 30.1666 15.9659 30.3833 16.2449 30.5337C16.5239 30.6841 16.8381 30.763 17.1575 30.7631H31.2316C31.3678 30.7612 31.4978 30.7075 31.5934 30.6137C31.689 30.52 31.7426 30.3937 31.7426 30.2621C31.7426 30.1304 31.689 30.0041 31.5934 29.9104C31.4978 29.8166 31.3678 29.763 31.2315 29.761H17.1575C17.0156 29.76 16.8762 29.7242 16.7524 29.657C16.6286 29.5898 16.5246 29.4934 16.4499 29.3767C16.3753 29.2601 16.3325 29.127 16.3256 28.99C16.3187 28.8531 16.3479 28.7166 16.4105 28.5935L17.0953 27.2707Z" fill="#FA0600"/>
<path d="M16.7806 31.5105C16.1677 31.5156 15.5817 31.7544 15.1502 32.1748C14.7187 32.5953 14.4766 33.1633 14.4766 33.7553C14.4766 34.3473 14.7187 34.9154 15.1502 35.3358C15.5818 35.7562 16.1678 35.995 16.7807 36.0001C17.3936 35.9949 17.9795 35.7562 18.4111 35.3357C18.8426 34.9153 19.0847 34.3473 19.0847 33.7552C19.0847 33.1632 18.8425 32.5952 18.411 32.1748C17.9795 31.7544 17.3935 31.5156 16.7806 31.5105Z" fill="#FA0600"/>
<path d="M29.429 31.5105C28.8161 31.5156 28.2301 31.7544 27.7986 32.1748C27.3671 32.5952 27.125 33.1633 27.125 33.7553C27.125 34.3473 27.3671 34.9154 27.7987 35.3358C28.2302 35.7562 28.8162 35.9949 29.4291 36.0001C30.042 35.9949 30.628 35.7562 31.0595 35.3357C31.491 34.9153 31.7331 34.3473 31.7331 33.7553C31.7331 33.1632 31.491 32.5952 31.0594 32.1748C30.6279 31.7544 30.0419 31.5156 29.429 31.5105Z" fill="#FA0600"/>
<path d="M30.6562 24.0291C31.2885 23.7738 31.8875 23.4475 32.4408 23.057C32.1918 22.9167 31.9221 22.7764 31.6315 22.6411C31.3595 23.1365 31.0324 23.6019 30.6562 24.0291Z" fill="#FA0600"/>
<path d="M30.6557 22.2407C29.7674 21.9254 28.8355 21.7397 27.8906 21.6895V24.6007C28.4971 24.4166 29.0567 24.1114 29.5331 23.7048C30.0095 23.2982 30.392 22.7994 30.6557 22.2407Z" fill="#FA0600"/>
<path d="M26.8562 24.6007V21.6895C25.9095 21.7392 24.9758 21.925 24.0859 22.2407C24.3499 22.8001 24.7331 23.2994 25.2104 23.7061C25.6878 24.1127 26.2486 24.4176 26.8562 24.6007Z" fill="#FA0600"/>
<path d="M22.2891 23.057C22.8431 23.4465 23.4419 23.7727 24.0736 24.0291C23.6974 23.6019 23.3704 23.1365 23.0983 22.6411C22.8078 22.7764 22.5381 22.9167 22.2891 23.057Z" fill="#FA0600"/>
<path d="M22.6537 21.7391C22.0016 20.1666 21.6518 18.4923 21.6214 16.7986H18.7422C18.8752 18.9256 19.846 20.9229 21.4553 22.3805C21.843 22.1468 22.243 21.9328 22.6537 21.7391Z" fill="#FA0600"/>
<path d="M26.8453 16.7986H22.6484C22.6877 18.3546 23.0181 19.8909 23.6237 21.3333C24.6568 20.9593 25.7434 20.7413 26.8453 20.6869V16.7986Z" fill="#FA0600"/>
<path d="M32.0823 16.7986H27.8906V20.6869C28.9907 20.7418 30.0755 20.9598 31.107 21.3333C31.7126 19.8909 32.043 18.3546 32.0823 16.7986Z" fill="#FA0600"/>
<path d="M32.0859 21.7392C32.4966 21.9328 32.8966 22.1468 33.2843 22.3805C34.8937 20.9229 35.8644 18.9256 35.9975 16.7986H33.1183C33.0878 18.4923 32.738 20.1666 32.0859 21.7392Z" fill="#FA0600"/>
<path d="M24.0736 8.57056C23.4419 8.8269 22.843 9.15309 22.2891 9.54261C22.5381 9.68292 22.8078 9.82322 23.0983 9.95853C23.3704 9.46311 23.6974 8.99772 24.0736 8.57056Z" fill="#FA0600"/>
<path d="M22.6537 10.8609C22.243 10.6672 21.843 10.4531 21.4553 10.2195C19.847 11.6757 18.8763 13.671 18.7422 15.7963H21.6214C21.6523 14.1043 22.0021 12.4318 22.6537 10.8609Z" fill="#FA0600"/>
<path d="M26.8452 11.9137C25.7434 11.8593 24.6568 11.6413 23.6236 11.2673C23.0186 12.7081 22.6882 14.2427 22.6484 15.797H26.8453L26.8452 11.9137Z" fill="#FA0600"/>
<path d="M31.107 11.2673C30.0755 11.6408 28.9907 11.8588 27.8906 11.9137V15.797H32.0823C32.0425 14.2427 31.7121 12.7081 31.107 11.2673Z" fill="#FA0600"/>
<path d="M32.0859 10.8608C32.7375 12.4318 33.0873 14.1042 33.1183 15.7963H35.9974C35.8632 13.671 34.8926 11.6757 33.2843 10.2195C32.8966 10.4531 32.4966 10.6672 32.0859 10.8608Z" fill="#FA0600"/>
<path d="M32.4408 9.54264C31.8875 9.15208 31.2885 8.82581 30.6562 8.57056C31.0325 8.99771 31.3595 9.46311 31.6315 9.95853C31.9221 9.82325 32.1918 9.68295 32.4408 9.54264Z" fill="#FA0600"/>
<path d="M27.8906 8V10.9112C28.8355 10.861 29.7674 10.6752 30.6557 10.36C30.392 9.80132 30.0095 9.30246 29.5331 8.89587C29.0567 8.48927 28.4971 8.18403 27.8906 8Z" fill="#FA0600"/>
<path d="M26.8562 8C26.2486 8.18312 25.6878 8.48796 25.2104 8.89462C24.7331 9.30128 24.3499 9.80062 24.0859 10.36C24.9759 10.6757 25.9095 10.8615 26.8562 10.9112V8Z" fill="#FA0600"/>
</svg>
