<svg width="44" height="44" viewBox="0 0 44 44" fill="none" xmlns="http://www.w3.org/2000/svg">
<rect width="44" height="44" rx="22" fill="white"/>
<g clip-path="url(#clip0_1069_509)">
<path fill-rule="evenodd" clip-rule="evenodd" d="M21.219 32.7692C18.1291 32.7692 15.183 32.4099 12.4524 31.7632C12.2369 31.6913 12.0931 31.4757 12.0931 31.2602V29.1044C14.8237 29.6074 18.5603 29.823 21.219 29.823C23.9496 29.823 28.1891 29.5356 31.4946 29.0326V31.2602C31.4946 31.4757 31.3509 31.6913 31.0634 31.7632C27.6143 32.4099 24.3089 32.7692 21.219 32.7692ZM12.0931 28.0984V20.4097C12.0931 20.1941 12.165 20.0504 12.3087 19.9786C12.4524 19.9067 12.668 19.8349 12.8117 19.9067L21.7939 24.4337L30.776 19.9067H30.9916C31.279 19.9067 31.4946 20.1223 31.4946 20.4097V28.0984C25.3149 29.0326 17.195 29.1044 12.0931 28.0984Z" fill="#43A047"/>
<path fill-rule="evenodd" clip-rule="evenodd" d="M21.7956 25.5123C21.7237 25.5123 21.6519 25.4405 21.58 25.4405L8.28645 18.7578C8.14274 18.6859 7.99902 18.5422 7.99902 18.3266C7.99902 18.1829 8.14274 17.9673 8.28645 17.8955L21.58 11.2846C21.7237 11.2127 21.8675 11.2127 22.0112 11.2846L35.3047 17.8955C35.4485 17.9673 35.5203 18.1829 35.5203 18.3266C35.5203 18.5422 35.4485 18.6859 35.3047 18.7578L22.0112 25.4405C21.9393 25.4405 21.8675 25.5123 21.7956 25.5123Z" fill="#43A047"/>
<path fill-rule="evenodd" clip-rule="evenodd" d="M33.8689 30.1114C33.5815 30.1114 33.3659 29.8958 33.3659 29.6084V19.4047L20.5753 18.5424C20.3597 18.5424 20.1442 18.2549 20.1442 18.0394C20.1442 17.7519 20.4316 17.5364 20.6472 17.5364L33.9407 18.4705C34.1563 18.4705 34.3719 18.6861 34.3719 18.9735V29.6084C34.3719 29.8958 34.1563 30.1114 33.8689 30.1114Z" fill="#43A047"/>
<path fill-rule="evenodd" clip-rule="evenodd" d="M33.8678 32.6259C32.9336 32.6259 32.1432 31.8355 32.1432 30.9013C32.1432 29.8953 32.9336 29.1768 33.8678 29.1768C34.8019 29.1768 35.5923 29.8953 35.5923 30.9013C35.5923 31.8355 34.8019 32.6259 33.8678 32.6259Z" fill="#43A047"/>
</g>
<defs>
<clipPath id="clip0_1069_509">
<rect width="28" height="28" fill="white" transform="translate(8 8)"/>
</clipPath>
</defs>
</svg>
