<svg width="44" height="44" viewBox="0 0 44 44" fill="none" xmlns="http://www.w3.org/2000/svg">
<rect width="44" height="44" rx="22" fill="white"/>
<g clip-path="url(#clip0_1069_383)">
<path d="M32.5559 24.3882C32.3186 24.8379 31.8719 25.7639 31.4293 27.1072C30.8598 28.8352 30.1856 31.6146 30.1337 35.1798H36V24.3882H32.5559Z" fill="#9C27B0"/>
<path d="M22 12.5455C23.0013 12.5455 23.8156 11.7309 23.8156 10.7299V8.82031H20.1844V10.7299C20.1844 11.7309 20.9988 12.5455 22 12.5455Z" fill="#9C27B0"/>
<path d="M20.4816 21.5474V25.588L23.9807 23.5678L20.4816 21.5474Z" fill="#9C27B0"/>
<path d="M36 10.73C36 12.6357 34.4495 14.1862 32.5438 14.1862C31.4883 14.1862 30.5423 13.71 29.9079 12.9619C29.7043 13.2018 29.4691 13.4142 29.2083 13.5915C29.2867 15.1926 29.7336 20.4539 32.2413 22.7476H36V10.73Z" fill="#9C27B0"/>
<path d="M16.7282 12.5455C17.7292 12.5455 18.5438 11.7309 18.5438 10.7299V8.82031H14.9124V10.7299C14.9124 11.7309 15.727 12.5455 16.7282 12.5455Z" fill="#9C27B0"/>
<path d="M15.5071 35.1798H28.4928C28.5725 29.2359 30.2576 25.2818 30.9967 23.8274C28.3619 21.2601 27.7417 16.325 27.5958 14.1704C27.4892 14.1804 27.3811 14.1862 27.2718 14.1862C26.2162 14.1862 25.2703 13.71 24.6359 12.9619C24.0014 13.71 23.0555 14.1862 22 14.1862C20.9445 14.1862 19.9985 13.71 19.3641 12.9619C18.7296 13.71 17.7837 14.1862 16.7282 14.1862C16.6188 14.1862 16.5107 14.1804 16.4041 14.1704C16.2582 16.325 15.6383 21.2599 13.0032 23.8274C13.7424 25.2818 15.4274 29.2359 15.5071 35.1798ZM18.8409 18.7058L27.2619 23.5679L18.8409 28.4297V18.7058Z" fill="#9C27B0"/>
<path d="M11.7587 22.7476C14.272 20.4505 14.715 15.1919 14.7921 13.5917C14.5311 13.4144 14.2957 13.202 14.0921 12.9619C13.4576 13.71 12.5117 14.1862 11.4562 14.1862C9.55048 14.1862 8 12.6357 8 10.73V22.7476H11.7587Z" fill="#9C27B0"/>
<path d="M11.4562 12.5455C12.4575 12.5455 13.2718 11.7309 13.2718 10.7299V8.82031H9.64062V10.7299C9.64062 11.7309 10.4552 12.5455 11.4562 12.5455Z" fill="#9C27B0"/>
<path d="M12.5707 27.1072C12.1283 25.7646 11.6816 24.8385 11.444 24.3882H8V35.1798H13.8663C13.8144 31.6144 13.1402 28.8352 12.5707 27.1072Z" fill="#9C27B0"/>
<path d="M32.5438 12.5455C33.5448 12.5455 34.3594 11.7309 34.3594 10.7299V8.82031H30.7282V10.7299C30.7282 11.7309 31.5425 12.5455 32.5438 12.5455Z" fill="#9C27B0"/>
<path d="M27.2718 12.5455C28.273 12.5455 29.0873 11.7309 29.0873 10.7299V8.82031H25.4562V10.7299C25.4562 11.7309 26.2707 12.5455 27.2718 12.5455Z" fill="#9C27B0"/>
</g>
<defs>
<clipPath id="clip0_1069_383">
<rect width="28" height="28" fill="white" transform="translate(8 8)"/>
</clipPath>
</defs>
</svg>
