<svg width="44" height="44" viewBox="0 0 44 44" fill="none" xmlns="http://www.w3.org/2000/svg">
<rect width="44" height="44" rx="22" fill="white"/>
<path d="M14.5625 20.6875V20.25H13.6875V20.6875H10.7943L11.3779 22.4375H16.8721L17.4557 20.6875H14.5625Z" fill="#E23744"/>
<path d="M9.75 25.0625H10.4553L9.77231 23.0133C9.72769 22.8798 9.75044 22.7333 9.83269 22.6191C9.91494 22.5049 10.0471 22.4375 10.1875 22.4375H10.4553L9.77231 20.3882C9.72769 20.2548 9.75044 20.1083 9.83269 19.9941C9.91494 19.8799 10.0471 19.8125 10.1875 19.8125H18.0625C18.2029 19.8125 18.3351 19.8799 18.4173 19.9945C18.4996 20.1087 18.5219 20.2552 18.4777 20.3887L17.7948 22.4375H18.0625C18.2029 22.4375 18.3351 22.5049 18.4173 22.6195C18.4996 22.7337 18.5219 22.8803 18.4777 23.0137L17.7948 25.0625H18.5V18.9375H19.375V16.75H8.875V18.9375H9.75V25.0625Z" fill="#E23744"/>
<path d="M13.6875 22.875V23.3125H10.7943L11.3779 25.0625H16.75H16.8721L17.4557 23.3125H14.5625V22.875H13.6875Z" fill="#E23744"/>
<path d="M34.7098 17.5887C34.4495 17.4281 34.1319 17.4146 33.8584 17.5506L31.8739 18.5429C31.6771 18.2528 31.3454 18.0625 30.9688 18.0625H25.8964C25.7804 17.3765 25.6011 16.708 25.0625 16.3125C26.0915 15.8028 26.6734 14.86 26.7884 13.6875H27.25H29.4375V12.8125H27.6652C27.4451 10.6049 25.5774 8.875 23.3125 8.875C20.901 8.875 18.9388 10.8363 18.9375 13.2474C18.9375 13.4893 19.1335 13.6875 19.375 13.6875H19.8366C19.9516 14.86 20.5335 15.8028 21.5625 16.3125C20.9115 16.7902 20.6875 17.6307 20.6875 18.5V22.875V23.3125C20.6875 24.5204 21.6671 25.5 22.875 25.5H25.5C26.7079 25.5 27.6875 26.4796 27.6875 27.6875V29.4375H30.3125V27.25C30.3125 24.8337 28.3538 22.875 25.9375 22.875V20.25H30.9688C31.2159 20.25 31.4417 20.1647 31.625 20.0264V31.625H31.2754C30.9495 31.0939 30.4735 30.4849 30.1931 30.3125H27.6875V31.625H26.375V30.75C26.375 29.1225 25.5608 27.684 24.3209 26.8125H25.0625C25.304 26.8125 25.5 26.6165 25.5 26.375C25.5 26.1335 25.304 25.9375 25.0625 25.9375H9.3125C9.071 25.9375 8.875 26.1335 8.875 26.375C8.875 26.6165 9.071 26.8125 9.3125 26.8125H13.9916C12.7517 27.684 11.9375 29.1225 11.9375 30.75V32.0625V32.9375H15C15 33.9039 15.7836 34.6875 16.75 34.6875C17.7164 34.6875 18.5 33.9039 18.5 32.9375H30.3125C30.3125 33.9039 31.0961 34.6875 32.0625 34.6875C33.0289 34.6875 33.8125 33.9039 33.8125 32.9375H34.6875C34.929 32.9375 35.125 32.7415 35.125 32.5V28.125C35.125 26.5854 33.9818 25.311 32.5 25.0975V19.6454L33.8584 20.3248C33.9831 20.3869 34.117 20.418 34.2504 20.418C34.4097 20.418 34.5685 20.3738 34.7098 20.2867C34.9701 20.1257 35.125 19.8475 35.125 19.5421V18.3329C35.125 18.0275 34.9701 17.7492 34.7098 17.5887ZM22.4375 32.0625H21.5625V31.625C21.5625 29.4541 19.7959 27.6875 17.625 27.6875C15.4541 27.6875 13.6875 29.4541 13.6875 31.625V32.0625H12.8125V31.625C12.8125 28.9716 14.9716 26.8125 17.625 26.8125C20.2784 26.8125 22.4375 28.9716 22.4375 31.625V32.0625Z" fill="#E23744"/>
</svg>
