<svg width="42" height="42" viewBox="0 0 42 42" fill="none" xmlns="http://www.w3.org/2000/svg">
<rect width="42" height="42" rx="21" fill="white"/>
<path d="M21.6599 20.7706C22.0126 22.3912 22.156 24.3269 23.4352 25.7148C23.6638 25.963 23.9452 26.1568 24.2585 26.2821C24.5719 26.4073 24.9093 26.4607 25.246 26.4385C27.7684 26.1807 28.2072 22.5655 28.1477 19.605L21.6599 20.7706Z" fill="#8D6E63"/>
<path d="M28.1619 18.7816L28.2475 17.6409L22.2124 18.696L20.8792 18.9313C21.102 19.2977 21.2894 19.6844 21.4389 20.0863L28.1548 18.8778C28.1633 18.8541 28.1561 18.8121 28.1619 18.7816Z" fill="#8D6E63"/>
<path d="M15.5857 19.491C13.9946 18.8234 12.4773 17.9919 11.0585 17.01C11.0371 17.3023 11.005 17.6873 10.9729 18.1436C12.4687 19.3941 14.2065 20.3225 16.0776 20.8706C16.0811 20.3288 16.0918 19.9046 16.0954 19.6408C15.9404 19.6031 15.7538 19.5497 15.5857 19.491Z" fill="#8D6E63"/>
<path d="M16.8048 19.6443C16.8012 19.9116 16.7941 20.3537 16.7905 20.9204L20.726 20.2111C20.5652 19.8087 20.3634 19.4241 20.1235 19.0632L16.8048 19.6443Z" fill="#8D6E63"/>
<path d="M30.561 19.1702L28.8606 19.4767C28.9289 22.8949 28.4007 26.8157 25.296 27.1516C22.0583 27.3079 21.3647 23.1869 20.9542 20.8955L16.787 21.6441C16.7799 24.9414 16.8618 30.9979 17.5534 34.3594C22.3193 33.6024 26.9979 32.3724 31.5199 30.6877L30.561 19.1702Z" fill="#8D6E63"/>
<path d="M16.074 21.612C14.2032 21.0845 12.4501 20.2049 10.9088 19.0205C10.6628 22.521 10.3028 28.5596 10.5808 30.948C10.9052 31.2902 12.5699 32.8587 16.8012 34.2311C16.1346 30.7163 16.0562 24.8381 16.074 21.612Z" fill="#8D6E63"/>
<path d="M28.882 18.7496L30.5006 18.4571L30.4008 17.2632L28.9711 17.5126L28.882 18.7496Z" fill="#8D6E63"/>
<path d="M15.4217 10.7574C15.4271 10.6533 15.399 10.611 15.2934 10.5898L12.8658 10.4508C12.833 10.4477 12.8002 10.4569 12.7738 10.4767C12.7474 10.4964 12.7294 10.5254 12.7232 10.5577L12.52 11.4097L15.2292 11.5844L15.4217 10.7574Z" fill="#8D6E63"/>
<path d="M15.2327 18.5856L14.2774 14.2367C13.0805 13.9849 11.8542 13.9021 10.6343 13.9907L11.0763 16.158C12.3958 17.0753 13.7856 17.887 15.2327 18.5856Z" fill="#8D6E63"/>
<path d="M14.3772 13.5273L14.9654 12.2796L12.2206 12.105L11.1013 13.2564C12.2003 13.21 13.3008 13.301 14.3772 13.5273Z" fill="#8D6E63"/>
<path d="M21.8595 16.8032C21.9139 17.2208 22.0774 17.6168 22.3337 17.951L28.5683 16.8602L30.2259 16.5679C30.2294 16.4419 30.2258 16.3157 30.2152 16.1901C30.1524 15.3476 29.8372 14.5436 29.3107 13.8829C28.7842 13.2222 28.0708 12.7355 27.2636 12.4863C27.3401 11.3733 27.2254 10.1611 26.4046 9.22816C26.3735 9.19318 26.3359 9.16469 26.2938 9.14431C26.2517 9.12394 26.206 9.11209 26.1593 9.10945C26.1126 9.10681 26.0658 9.11343 26.0217 9.12893C25.9776 9.14443 25.937 9.1685 25.9022 9.19976C25.8674 9.23101 25.8392 9.26884 25.8191 9.31106C25.7989 9.35328 25.7874 9.39906 25.785 9.44577C25.7827 9.49247 25.7896 9.53918 25.8054 9.5832C25.8212 9.62723 25.8455 9.66769 25.877 9.70228C26.7581 10.6107 26.6365 12.5473 26.3795 13.5165C26.5962 13.6267 26.84 13.6724 27.0818 13.6484C27.4894 13.6056 27.683 13.3993 27.8875 13.7696C27.9081 13.8234 27.9159 13.8813 27.9105 13.9387C27.905 13.9961 27.8864 14.0514 27.856 14.1004C27.8257 14.1494 27.7844 14.1907 27.7354 14.2211C27.6865 14.2516 27.6311 14.2702 27.5737 14.2758C27.2125 14.3889 26.8265 14.3974 26.4606 14.3002C26.0947 14.2031 25.7638 14.0042 25.5062 13.7268C25.4612 13.6778 25.4308 13.6172 25.4185 13.5518C25.4062 13.4865 25.4125 13.4189 25.4366 13.3569C25.4607 13.295 25.5018 13.241 25.555 13.2011C25.6083 13.1613 25.6717 13.1372 25.7379 13.1315C25.7936 12.8612 25.8294 12.5872 25.8449 12.3116C25.2866 12.3401 24.7397 12.4795 24.2359 12.7217C23.7321 12.9638 23.2816 13.3038 22.9106 13.7219C22.5396 14.14 22.2556 14.6278 22.0752 15.1568C21.8947 15.6859 21.8214 16.2455 21.8595 16.8032Z" fill="#8D6E63"/>
<path d="M16.0277 18.8885C16.1653 18.9311 16.3059 18.9632 16.4483 18.9848L18.8046 18.5713C18.7374 18.5259 18.6892 18.4574 18.6691 18.3788L17.1363 12.5255C16.9825 12.5075 15.8996 12.365 15.7211 12.3438L14.9511 13.9835L16.0277 18.8885Z" fill="#8D6E63"/>
<path d="M17.7673 12.112L19.3607 18.1969C19.3733 18.2453 19.3753 18.2958 19.3667 18.345C19.3581 18.3942 19.339 18.4409 19.3108 18.4821C19.3314 18.4825 20.2996 18.3049 20.284 18.3146L21.5708 18.0864C21.3447 17.7176 21.2012 17.3041 21.1502 16.8744C21.0733 15.8344 21.3284 14.7968 21.8786 13.9109C22.4289 13.0251 23.2459 12.3365 24.2123 11.9445C24.2034 11.5943 24.0836 11.256 23.8701 10.9784C23.8236 10.9287 23.7922 10.8667 23.7795 10.7998C23.7669 10.7329 23.7736 10.6638 23.7988 10.6006C23.9267 10.3507 23.9992 10.0762 24.0112 9.79582C24.0233 9.51541 23.9748 9.2357 23.8688 8.97579C23.7629 8.71588 23.6021 8.48189 23.3975 8.28982C23.1928 8.09775 22.9491 7.95211 22.683 7.86286C22.4353 7.72974 22.1617 7.65173 21.8811 7.63418C21.6004 7.61662 21.3192 7.65994 21.0569 7.76117C20.7945 7.86239 20.5571 8.01913 20.3609 8.22065C20.1648 8.42216 20.0145 8.66369 19.9204 8.9287C19.891 8.98971 19.8449 9.04117 19.7875 9.07712C19.7301 9.11308 19.6637 9.13206 19.596 9.13189C19.5318 9.13545 18.0525 9.17466 17.4144 11.8411C17.4944 11.8425 17.5719 11.8697 17.6354 11.9184C17.699 11.9672 17.7452 12.035 17.7673 12.112ZM19.3928 11.3634C19.4395 11.3619 19.486 11.3697 19.5296 11.3863C19.5732 11.4029 19.6131 11.428 19.647 11.4602C19.6808 11.4924 19.7079 11.531 19.7267 11.5737C19.7455 11.6165 19.7556 11.6625 19.7564 11.7092C19.7806 12.1499 19.8959 12.5808 20.095 12.9747C20.47 12.1123 21.1989 10.4244 21.5708 9.55967C21.6097 9.47431 21.6805 9.40763 21.7681 9.37401C21.8557 9.34038 21.9529 9.3425 22.0389 9.3799C22.125 9.4173 22.1928 9.48699 22.228 9.57396C22.2631 9.66093 22.2626 9.75822 22.2267 9.84486L21.7954 10.843L22.298 10.6826C22.3872 10.6554 22.4835 10.6643 22.5663 10.7074C22.649 10.7505 22.7115 10.8242 22.7405 10.9129C22.7694 11.0016 22.7624 11.098 22.721 11.1816C22.6796 11.2652 22.6071 11.3292 22.519 11.3598L21.4175 11.7128C21.1169 12.4039 20.3603 14.1664 20.0701 14.8354C20.0317 14.9206 19.9615 14.9873 19.8746 15.0215C19.7876 15.0556 19.6908 15.0544 19.6047 15.0181C19.5186 14.9818 19.4502 14.9133 19.4139 14.8272C19.3776 14.7412 19.3765 14.6443 19.4106 14.5574L19.7599 13.7482C19.3254 13.1607 19.0759 12.457 19.0435 11.727C19.0418 11.6325 19.0777 11.5413 19.1431 11.4731C19.2086 11.405 19.2983 11.3656 19.3928 11.3634Z" fill="#8D6E63"/>
</svg>
