<svg width="44" height="44" viewBox="0 0 44 44" fill="none" xmlns="http://www.w3.org/2000/svg">
<rect width="44" height="44" rx="22" fill="white"/>
<path d="M31.0204 15.9844C31.0204 12.8185 28.4441 10.1875 25.2782 10.1875C24.0445 10.1875 22.8917 10.7154 21.9969 11.6655C21.1021 10.7154 19.9493 10.1875 18.7157 10.1875C15.5498 10.1875 12.9735 12.8185 12.9735 15.9844C12.9735 19.1687 15.3103 20.8125 18.0164 22.7167C19.1323 23.5017 20.2867 24.314 21.4594 25.3315L21.9961 25.7977L22.5337 25.3322C23.8594 24.185 25.1204 23.2871 26.2323 22.4948C28.9071 20.5906 31.0204 19.0862 31.0204 15.9844ZM24.4579 18.4453H22.8173V20.0859H21.1766V18.4453H19.536V16.8047H21.1766V15.1641H22.8173V16.8047H24.4579V18.4453Z" fill="#0965AF"/>
<path d="M35.0124 15.5032C33.339 15.5032 32.907 23.2797 32.8741 23.4439C32.7075 24.5833 31.9048 26.2701 30.5492 27.2858L26.9961 29.8655L26.0124 28.5518L29.5655 25.9728C30.973 24.9175 31.6144 23.1157 29.8554 23.1157C28.2799 23.1157 25.3351 24.9397 24.462 25.6632C23.4195 26.5273 22.8171 27.8111 22.8171 29.1652V36.0001H27.739C27.739 35.2125 28.1655 34.354 28.8217 33.5336C29.5108 32.6313 30.4952 31.7125 31.5123 30.7774C33.4483 28.9563 35.4553 27.086 35.7179 25.1829C35.8737 23.9045 36.0032 21.712 35.9967 19.7579C35.9896 17.5696 35.8042 15.5739 35.0124 15.5032Z" fill="#0965AF"/>
<path d="M19.339 25.511C17.0257 23.9196 15.2703 23.1157 14.1383 23.1157C12.3792 23.1157 13.0207 24.9175 14.4282 25.9728L17.9813 28.5518L16.9976 29.8655L13.4445 27.2858C12.0888 26.2701 11.2861 24.5833 11.1194 23.4439C11.0866 23.2797 10.6546 15.5032 8.98109 15.5032C8.06234 15.5852 7.96391 18.2594 8.01318 20.8188C8.04605 22.6891 8.19365 24.5102 8.27563 25.1829C8.53818 27.086 10.5452 28.9564 12.4811 30.7774C13.4983 31.7125 14.4827 32.6313 15.1718 33.5336C15.828 34.354 16.2545 35.2125 16.2545 36.0001H21.1764V29.198C21.1765 27.7487 20.4962 26.3835 19.339 25.511Z" fill="#0965AF"/>
</svg>
