<svg width="44" height="44" viewBox="0 0 44 44" fill="none" xmlns="http://www.w3.org/2000/svg">
<rect width="44" height="44" rx="22" fill="white"/>
<rect x="8" y="8" width="28" height="28" fill="white"/>
<path fill-rule="evenodd" clip-rule="evenodd" d="M23.7013 34.0535H18.1614C18.1751 33.9369 18.1824 33.8183 18.1824 33.698C18.1824 32.0365 16.8314 30.6854 15.1699 30.6854C13.5083 30.6854 12.1573 32.0365 12.1573 33.698C12.1573 33.8183 12.1646 33.9369 12.1783 34.0535H11.3522C11.258 34.0535 11.1675 34.0161 11.1009 33.9494C11.0342 33.8827 10.9968 33.7923 10.9968 33.698V23.1609C10.9968 22.9646 11.1559 22.8054 11.3522 22.8054H23.7012C23.8976 22.8054 24.0567 22.9646 24.0567 23.1609V33.698C24.0568 33.8943 23.8976 34.0535 23.7013 34.0535Z" fill="#FF6F00"/>
<path fill-rule="evenodd" clip-rule="evenodd" d="M32.1716 34.0544H31.3456C31.3593 33.9378 31.3666 33.8192 31.3666 33.6989C31.3666 32.0374 30.0156 30.6863 28.354 30.6863C26.6924 30.6863 25.3414 32.0374 25.3414 33.6989C25.3414 33.8192 25.3487 33.9378 25.3624 34.0544H24.9903C24.794 34.0544 24.6349 33.8953 24.6349 33.6989V24.2021C24.6349 24.0058 24.794 23.8467 24.9903 23.8467H29.1044C29.2241 23.8467 29.3357 23.9069 29.4015 24.0069L32.4687 28.6715C32.5068 28.7295 32.5271 28.7974 32.5271 28.8668V33.6989C32.5271 33.8952 32.368 34.0544 32.1716 34.0544ZM30.5098 29.0123H26.3046C26.1082 29.0123 25.9491 28.8532 25.9491 28.6568V25.3854C25.9491 25.1891 26.1082 25.03 26.3046 25.03H28.4014C28.5222 25.03 28.6347 25.0913 28.7002 25.1929L30.8086 28.4643C30.879 28.5737 30.8841 28.7128 30.8219 28.827C30.7595 28.9413 30.6398 29.0123 30.5098 29.0123ZM26.6601 28.3014H29.8578L28.2076 25.7409H26.6601L26.6601 28.3014Z" fill="#FF6F00"/>
<path fill-rule="evenodd" clip-rule="evenodd" d="M24.9918 34.0529H23.7031C23.5068 34.0529 23.3477 33.8938 23.3477 33.6975C23.3477 33.5012 23.5068 33.342 23.7031 33.342H24.9918C25.1881 33.342 25.3472 33.5012 25.3472 33.6975C25.3472 33.8938 25.1881 34.0529 24.9918 34.0529Z" fill="#FF6F00"/>
<path fill-rule="evenodd" clip-rule="evenodd" d="M15.1747 35.9999C13.9055 35.9999 12.873 34.9674 12.873 33.6982C12.873 32.429 13.9055 31.3965 15.1747 31.3965C16.4439 31.3965 17.4763 32.429 17.4763 33.6982C17.4763 34.9674 16.4439 35.9999 15.1747 35.9999ZM28.3584 35.9999C27.0892 35.9999 26.0566 34.9674 26.0566 33.6982C26.0566 32.429 27.0892 31.3965 28.3584 31.3965C29.6275 31.3965 30.6601 32.429 30.6601 33.6982C30.6601 34.9674 29.6275 35.9999 28.3584 35.9999Z" fill="#FF6F00"/>
<path d="M21.4778 21.3494C17.6476 16.8071 16.8254 13.4089 17.4407 11.1864C18.0287 9.06222 19.8978 8 21.7656 8C23.6334 8 25.5025 9.06214 26.0905 11.1864C26.7067 13.4122 25.8813 16.8171 22.0366 21.3695C21.9099 21.5195 21.6862 21.5389 21.5362 21.4122C21.5138 21.3933 21.4943 21.3721 21.4778 21.3494ZM19.5478 12.969C19.5478 11.7462 20.5428 10.7513 21.7656 10.7513C22.9885 10.7513 23.9834 11.7461 23.9834 12.969C23.9834 14.1918 22.9885 15.1868 21.7656 15.1868C20.5427 15.1868 19.5478 14.1918 19.5478 12.969ZM18.8369 12.969C18.8369 14.5839 20.1507 15.8977 21.7656 15.8977C23.3805 15.8977 24.6944 14.5838 24.6944 12.969C24.6944 11.3541 23.3805 10.0404 21.7656 10.0404C20.1507 10.0404 18.8369 11.3541 18.8369 12.969Z" fill="#FF6F00"/>
</svg>
