<svg width="26" height="26" viewBox="0 0 26 26" fill="none" xmlns="http://www.w3.org/2000/svg">
<path d="M21.6641 4.33301H4.33073C3.13906 4.33301 2.1749 5.30801 2.1749 6.49967L2.16406 19.4997C2.16406 20.6913 3.13906 21.6663 4.33073 21.6663H21.6641C22.8557 21.6663 23.8307 20.6913 23.8307 19.4997V6.49967C23.8307 5.30801 22.8557 4.33301 21.6641 4.33301ZM20.5807 19.4997H5.41406C4.81823 19.4997 4.33073 19.0122 4.33073 18.4163V8.66634L11.8491 13.368C12.5532 13.8122 13.4416 13.8122 14.1457 13.368L21.6641 8.66634V18.4163C21.6641 19.0122 21.1766 19.4997 20.5807 19.4997ZM12.9974 11.9163L4.33073 6.49967H21.6641L12.9974 11.9163Z" fill="white"/>
</svg>
