<svg width="44" height="44" viewBox="0 0 44 44" fill="none" xmlns="http://www.w3.org/2000/svg">
<rect width="44" height="44" rx="22" fill="white"/>
<path d="M28.5883 12.9412H15.4117C14.0494 12.9412 12.9412 14.0494 12.9412 15.4117V28.5883C12.9412 29.9506 14.0494 31.0588 15.4117 31.0588H28.5883C29.9506 31.0588 31.0588 29.9506 31.0588 28.5883V15.4117C31.0588 14.0494 29.9506 12.9412 28.5883 12.9412ZM26.6316 22.6788L19.1732 27.8121C18.9143 27.9892 18.586 28.0014 18.3232 27.862C18.0522 27.7197 17.8825 27.439 17.8825 27.1334V16.8666C17.8825 16.561 18.0522 16.2804 18.3232 16.138C18.5935 15.9948 18.9207 16.0165 19.1732 16.1879L26.6316 21.3212C26.8544 21.4756 26.9879 21.729 26.9879 22C26.9878 22.271 26.8543 22.5244 26.6316 22.6788ZM19.5294 25.5668L24.7118 22L19.5294 18.4332V25.5668ZM28.5883 8H15.4117C11.3247 8 8 11.3247 8 15.4117V28.5883C8 32.6753 11.3247 36 15.4117 36H28.5883C32.6753 36 36 32.6753 36 28.5883V15.4117C36 11.3247 32.6753 8 28.5883 8ZM32.7059 28.5883C32.7059 30.8586 30.8586 32.7059 28.5883 32.7059H15.4117C13.1414 32.7059 11.2941 30.8586 11.2941 28.5883V15.4117C11.2941 13.1414 13.1414 11.2941 15.4117 11.2941H28.5883C30.8586 11.2941 32.7059 13.1414 32.7059 15.4117V28.5883Z" fill="#8E24AA"/>
</svg>
