<svg width="80" height="80" viewBox="0 0 80 80" fill="none" xmlns="http://www.w3.org/2000/svg">
<path d="M60.0209 35.3647H56.6094V12.6084H60.0209C60.91 12.6084 61.6306 13.3291 61.6306 14.2181V33.755C61.6306 34.6441 60.91 35.3647 60.0209 35.3647Z" fill="#B5ADB6"/>
<path d="M10.9652 22.18H14.3767V12.6084H10.9652C10.0761 12.6084 9.35547 13.3291 9.35547 14.2181V20.5703C9.35547 21.4592 10.0763 22.18 10.9652 22.18Z" fill="#B5ADB6"/>
<path d="M10.9652 35.3647H14.3767V25.7933H10.9652C10.0761 25.7933 9.35547 26.5139 9.35547 27.403V33.7552C9.35547 34.6441 10.0763 35.3647 10.9652 35.3647Z" fill="#B5ADB6"/>
<path d="M53.0716 80H17.9109C15.2439 80 13.082 77.838 13.082 75.1711V4.82891C13.0819 2.16203 15.2439 0 17.9109 0H53.0716C55.7386 0 57.9005 2.16203 57.9005 4.82891V75.1709C57.9005 77.838 55.7386 80 53.0716 80Z" fill="#7A6E79"/>
<path d="M57.9028 4.82891V75.1709C57.9028 77.8381 55.7411 79.9998 53.0739 79.9998H47.5898C50.257 79.9998 52.4187 77.8381 52.4187 75.1709V4.82891C52.4187 2.16172 50.257 0 47.5898 0H53.0739C55.7411 0 57.9028 2.16172 57.9028 4.82891Z" fill="#685E67"/>
<path d="M53.8787 4.82889V75.1709C53.8787 75.6151 53.5181 75.9758 53.0739 75.9758H17.9142C17.47 75.9758 17.1094 75.6151 17.1094 75.1709V4.82889C17.1094 4.38467 17.47 4.02405 17.9142 4.02405H26.7802C27.1102 4.02405 27.408 4.2253 27.5286 4.53264L28.4494 6.8667C28.6925 7.48155 29.2864 7.88561 29.9464 7.88561H41.0402C41.7002 7.88561 42.2941 7.48155 42.5372 6.8667L43.458 4.53264C43.5788 4.22514 43.8766 4.02405 44.2064 4.02405H53.0741C53.5181 4.0242 53.8787 4.38467 53.8787 4.82889Z" fill="#107295"/>
<path d="M53.8761 21.563V42.7316H39.2073C38.3188 42.7316 37.5977 42.0105 37.5977 41.1219V23.1727C37.5977 22.2841 38.3188 21.563 39.2073 21.563H53.8761Z" fill="#0D5F7F"/>
<path d="M53.8763 4.82889V75.1709C53.8763 75.6151 53.5156 75.9758 53.0714 75.9758H48.4727C48.9169 75.9758 49.2775 75.6151 49.2775 75.1709V4.82889C49.2775 4.38467 48.9169 4.02405 48.4727 4.02405H53.0714C53.5156 4.0242 53.8763 4.38467 53.8763 4.82889Z" fill="#0D5F7F"/>
<path d="M35.1422 5.23139H31.9142C31.2473 5.23139 30.707 4.69092 30.707 4.0242C30.707 3.35749 31.2475 2.81702 31.9142 2.81702H35.1422C35.8091 2.81702 36.3494 3.35749 36.3494 4.0242C36.3494 4.69092 35.8091 5.23139 35.1422 5.23139Z" fill="#433F43"/>
<path d="M39.0705 5.23969C38.4036 5.23969 37.8633 4.69922 37.8633 4.0325V4.01578C37.8633 3.34906 38.4037 2.80859 39.0705 2.80859C39.7373 2.80859 40.2777 3.34906 40.2777 4.01578V4.0325C40.2778 4.69922 39.7373 5.23969 39.0705 5.23969Z" fill="#433F43"/>
<path d="M41.7002 71.9537H29.2853C28.6184 71.9537 28.0781 71.4133 28.0781 70.7466C28.0781 70.0798 28.6186 69.5394 29.2853 69.5394H41.7002C42.367 69.5394 42.9073 70.0798 42.9073 70.7466C42.9075 71.4133 42.367 71.9537 41.7002 71.9537Z" fill="#64E0C4"/>
<path d="M69.0323 38.8844H39.2073C38.3183 38.8844 37.5977 38.1637 37.5977 37.2747V19.3258C37.5977 18.4367 38.3183 17.7161 39.2073 17.7161H69.0323C69.9214 17.7161 70.642 18.4367 70.642 19.3258V37.2747C70.6419 38.1636 69.9212 38.8844 69.0323 38.8844Z" fill="#64E0C4"/>
<path d="M70.642 19.3256V37.2748C70.642 38.1634 69.9209 38.8845 69.0323 38.8845H64.7539C65.6425 38.8845 66.3636 38.1634 66.3636 37.2748V19.3256C66.3636 18.437 65.6425 17.7159 64.7539 17.7159H69.0323C69.9208 17.7159 70.642 18.437 70.642 19.3256Z" fill="#27D1B3"/>
<path d="M48.1981 33.5097C47.8992 33.5097 47.5997 33.3994 47.3661 33.177L43.1602 29.1747C42.9206 28.9469 42.7852 28.6308 42.7852 28.3002C42.7852 27.9695 42.9206 27.6534 43.1602 27.4256L47.3661 23.4234C47.8491 22.9639 48.6131 22.9827 49.073 23.4658C49.5327 23.9488 49.5136 24.7128 49.0305 25.1725L45.7437 28.3002L49.0305 31.428C49.5136 31.8877 49.5323 32.6517 49.073 33.1348C48.8355 33.3841 48.517 33.5097 48.1981 33.5097Z" fill="#0D5F7F"/>
<path d="M60.0473 33.5097C59.7284 33.5097 59.4099 33.3841 59.1726 33.1347C58.7129 32.6517 58.7318 31.8875 59.2149 31.4278L62.5015 28.3L59.2149 25.1723C58.7318 24.7127 58.7131 23.9486 59.1726 23.4655C59.6323 22.9825 60.3965 22.9636 60.8793 23.4231L65.0851 27.4253C65.3246 27.6531 65.4601 27.9692 65.4601 28.2998C65.4601 28.6305 65.3246 28.9466 65.0851 29.1744L60.8793 33.1767C60.6457 33.3994 60.3462 33.5097 60.0473 33.5097Z" fill="#0D5F7F"/>
<path d="M52.5237 33.51C52.3744 33.51 52.2229 33.4822 52.076 33.4236C51.4569 33.1763 51.1555 32.4738 51.4029 31.8545L54.6012 23.85C54.8488 23.2308 55.5513 22.9297 56.1702 23.1769C56.7893 23.4244 57.0907 24.1267 56.8433 24.7459L53.6451 32.7505C53.4563 33.2227 53.0027 33.51 52.5237 33.51Z" fill="#0D5F7F"/>
<path d="M23.2072 45.7891C22.5403 45.7891 22 45.2486 22 44.5819V44.5652C22 43.8984 22.5405 43.358 23.2072 43.358C23.8739 43.358 24.4144 43.8984 24.4144 44.5652V44.5819C24.4145 45.2486 23.8741 45.7891 23.2072 45.7891Z" fill="#64B9FC"/>
<path d="M33.3089 45.7891H27.672C27.0052 45.7891 26.4648 45.2486 26.4648 44.5819C26.4648 43.9152 27.0053 43.3747 27.672 43.3747H33.3089C33.9758 43.3747 34.5161 43.9152 34.5161 44.5819C34.5161 45.2486 33.9758 45.7891 33.3089 45.7891Z" fill="#64B9FC"/>
<path d="M23.2072 50.9227C22.5403 50.9227 22 50.3822 22 49.7155V49.6987C22 49.032 22.5405 48.4916 23.2072 48.4916C23.8739 48.4916 24.4144 49.032 24.4144 49.6987V49.7155C24.4145 50.3822 23.8741 50.9227 23.2072 50.9227Z" fill="#27D1B3"/>
<path d="M44.1606 50.9227H27.672C27.0052 50.9227 26.4648 50.3822 26.4648 49.7155C26.4648 49.0488 27.0053 48.5083 27.672 48.5083H44.1606C44.8275 48.5083 45.3678 49.0488 45.3678 49.7155C45.3678 50.3822 44.8273 50.9227 44.1606 50.9227Z" fill="#27D1B3"/>
<path d="M23.2072 56.0564C22.5403 56.0564 22 55.5159 22 54.8492V54.8325C22 54.1658 22.5405 53.6253 23.2072 53.6253C23.8739 53.6253 24.4144 54.1658 24.4144 54.8325V54.8492C24.4145 55.5158 23.8741 56.0564 23.2072 56.0564Z" fill="#A3E440"/>
<path d="M47.7778 56.0564H27.672C27.0052 56.0564 26.4648 55.516 26.4648 54.8492C26.4648 54.1825 27.0053 53.642 27.672 53.642H47.7778C48.4447 53.642 48.985 54.1825 48.985 54.8492C48.985 55.5158 48.4445 56.0564 47.7778 56.0564Z" fill="#A3E440"/>
<path d="M23.2072 61.19C22.5403 61.19 22 60.6495 22 59.9828V59.9661C22 59.2994 22.5405 58.7589 23.2072 58.7589C23.8739 58.7589 24.4144 59.2994 24.4144 59.9661V59.9828C24.4145 60.6494 23.8741 61.19 23.2072 61.19Z" fill="#A3E440"/>
<path d="M47.7778 61.19H27.672C27.0052 61.19 26.4648 60.6495 26.4648 59.9828C26.4648 59.3161 27.0053 58.7756 27.672 58.7756H47.7778C48.4447 58.7756 48.985 59.3161 48.985 59.9828C48.985 60.6494 48.4445 61.19 47.7778 61.19Z" fill="#A3E440"/>
<path d="M32.7466 37.4363H23.2658C22.5989 37.4363 22.0586 36.8958 22.0586 36.2291C22.0586 35.5623 22.5991 35.0219 23.2658 35.0219H32.7464C33.4133 35.0219 33.9536 35.5623 33.9536 36.2291C33.9536 36.8958 33.4133 37.4363 32.7466 37.4363Z" fill="#FCC16D"/>
<path d="M32.7466 32.3025H23.2658C22.5989 32.3025 22.0586 31.762 22.0586 31.0953C22.0586 30.4286 22.5991 29.8881 23.2658 29.8881H32.7464C33.4133 29.8881 33.9536 30.4286 33.9536 31.0953C33.9536 31.762 33.4133 32.3025 32.7466 32.3025Z" fill="#FCC16D"/>
<path d="M32.7466 27.1689H23.2658C22.5989 27.1689 22.0586 26.6284 22.0586 25.9617C22.0586 25.295 22.5991 24.7545 23.2658 24.7545H32.7464C33.4133 24.7545 33.9536 25.295 33.9536 25.9617C33.9537 26.6284 33.4133 27.1689 32.7466 27.1689Z" fill="#FC5A95"/>
<path d="M32.7466 22.0353H23.2658C22.5989 22.0353 22.0586 21.4948 22.0586 20.8281C22.0586 20.1614 22.5991 19.6209 23.2658 19.6209H32.7464C33.4133 19.6209 33.9536 20.1614 33.9536 20.8281C33.9537 21.4948 33.4133 22.0353 32.7466 22.0353Z" fill="#FC5A95"/>
</svg>
