<svg width="44" height="44" viewBox="0 0 44 44" fill="none" xmlns="http://www.w3.org/2000/svg">
<rect width="44" height="44" rx="22" fill="white"/>
<g clip-path="url(#clip0_1069_375)">
<path d="M8 8V24.3289H36V8H8ZM30.4919 20.9513H12.7782V11.4116H14.4188V18.159L19.4358 13.0401L23.5679 16.959L27.4621 12.9282H26.2613V11.2876H30.4302V15.4565H28.7896V13.9153L23.6184 19.2679L19.4778 15.341L15.5872 19.3106H30.4919V20.9513Z" fill="#00C853"/>
<path d="M34.5103 32.7658L32.3793 31.924C33.0235 31.5122 33.451 30.7912 33.451 29.9699V29.2491C33.451 27.9688 32.4131 26.9309 31.1328 26.9309C29.8525 26.9309 28.8146 27.9688 28.8146 29.2491V29.9699C28.8146 30.7912 29.2421 31.5122 29.8863 31.924L27.7553 32.7658C27.2376 32.9703 26.825 33.3392 26.5664 33.7996C26.3078 33.3392 25.8952 32.9703 25.3776 32.7658L23.2465 31.924C23.8908 31.5122 24.3183 30.7912 24.3183 29.9699V29.2491C24.3183 27.9688 23.2803 26.9309 22.0001 26.9309C20.7198 26.9309 19.6819 27.9688 19.6819 29.2491V29.9699C19.6819 30.7912 20.1093 31.5122 20.7536 31.924L18.6226 32.7658C18.1049 32.9703 17.6923 33.3392 17.4337 33.7996C17.1751 33.3392 16.7625 32.9703 16.2449 32.7658L14.1138 31.924C14.7581 31.5122 15.1856 30.7912 15.1856 29.9699V29.2491C15.1856 27.9688 14.1476 26.9309 12.8674 26.9309C11.5871 26.9309 10.5491 27.9688 10.5491 29.2491V29.9699C10.5491 30.7912 10.9766 31.5122 11.6209 31.924L9.48969 32.7658C8.58472 33.1232 8 33.9829 8 34.9559V35.9999H36V34.9559C36 33.9829 35.4153 33.1232 34.5103 32.7658Z" fill="#00C853"/>
</g>
<defs>
<clipPath id="clip0_1069_375">
<rect width="28" height="28" fill="white" transform="translate(8 8)"/>
</clipPath>
</defs>
</svg>
