<svg width="93" height="93" viewBox="0 0 93 93" fill="none" xmlns="http://www.w3.org/2000/svg">
<g opacity="0.8">
<g clip-path="url(#clip0_1353_277)">
<path d="M16.8887 41.4198L63.0218 61.1081L53.8711 9.21149C53.5098 7.16269 51.0461 6.29818 49.4839 7.67206L16.1744 36.9647C14.7011 38.2603 15.0842 40.6497 16.8887 41.4198Z" fill="#DD56A7"/>
<path d="M20.8056 63.6344L62.4109 81.3904C64.3587 82.2216 66.4516 80.5602 66.0839 78.4747L56.964 26.7532L20.0913 59.1793C18.618 60.475 19.0011 62.8644 20.8056 63.6344Z" fill="#01AAEC"/>
<g style="mix-blend-mode:multiply">
<path d="M32.5788 48.1452L78.0759 67.562C80.0237 68.3932 82.1165 66.7317 81.7488 64.6463L73.4529 17.5977C73.0916 15.5489 70.6279 14.6844 69.0657 16.0583L32.5788 48.1452Z" fill="#9E22EA"/>
</g>
</g>
</g>
<defs>
<clipPath id="clip0_1353_277">
<rect x="13.8921" y="92.6765" width="80" height="80" transform="rotate(-100 13.8921 92.6765)" fill="white"/>
</clipPath>
</defs>
</svg>
