<svg width="93" height="93" viewBox="0 0 93 93" fill="none" xmlns="http://www.w3.org/2000/svg">
<g opacity="0.8" clip-path="url(#clip0_1353_288)">
<mask id="mask0_1353_288" style="mask-type:luminance" maskUnits="userSpaceOnUse" x="0" y="0" width="93" height="93">
<path d="M0.000235558 13.8919L13.8921 92.6765L92.6767 78.7847L78.7849 4.1008e-05L0.000235558 13.8919Z" fill="white"/>
</mask>
<g mask="url(#mask0_1353_288)">
<g style="mix-blend-mode:multiply">
<path d="M57.5675 30.2189C48.6163 23.7473 36.1135 25.7574 29.6419 34.7087C23.1702 43.66 25.1804 56.1627 34.1316 62.6344C43.0829 69.106 55.5857 67.0959 62.0573 58.1446C68.5289 49.1933 66.5188 36.6906 57.5675 30.2189Z" fill="#9005E5"/>
</g>
<g style="mix-blend-mode:multiply">
<path d="M82.722 40.9394C81.954 36.1624 80.2526 31.5834 77.715 27.464C75.1774 23.3446 71.8532 19.7654 67.9324 16.9306C64.0115 14.0959 59.5706 12.0612 54.8634 10.9427C50.1561 9.82413 45.2747 9.64372 40.4977 10.4117L46.3461 46.7877L82.722 40.9394Z" fill="#DD56A7"/>
</g>
<g style="mix-blend-mode:multiply">
<path d="M51.9077 83.5608C47.1306 84.3288 42.2493 84.1484 37.5419 83.0299C32.8347 81.9114 28.3939 79.8767 24.4729 77.0419C20.552 74.2072 17.2279 70.6279 14.6903 66.5085C12.1527 62.3891 10.4513 57.8102 9.68325 53.0332L46.0593 47.1848L51.9077 83.5608Z" fill="#01AAEC"/>
</g>
</g>
</g>
<defs>
<clipPath id="clip0_1353_288">
<rect width="80" height="80" fill="white" transform="translate(13.8921 92.6765) rotate(-100)"/>
</clipPath>
</defs>
</svg>
