<svg width="44" height="44" viewBox="0 0 44 44" fill="none" xmlns="http://www.w3.org/2000/svg">
<rect width="44" height="44" rx="22" fill="white"/>
<g clip-path="url(#clip0_1069_435)">
<path d="M35.5648 19.8028C34.9845 19.2226 34.0403 19.2226 33.4601 19.8028L28.7703 24.4927C28.2148 25.173 27.3699 25.6083 26.4252 25.6083H21.4352V23.9634H26.4252C26.8624 23.9634 27.2526 23.759 27.5061 23.4411L27.5009 23.4359L27.5405 23.3963C27.708 23.1676 27.8072 22.886 27.8072 22.5814V21.1993H19.4971L14.4243 26.2721L18.1454 29.9932L18.8142 29.3201H28.1522L35.5648 21.9075C36.1451 21.3273 36.1451 20.3831 35.5648 19.8028Z" fill="#D4AF37"/>
<path d="M10.965 25.1399L7.99988 28.105L15.8837 35.9888L18.8488 33.0237L10.965 25.1399Z" fill="#D4AF37"/>
<path d="M26.7304 8.01099L19.0299 14.3028L20.068 15.5733L21.424 14.4653V19.5587H24.5952V15.599H28.8919V19.5587H32.0634V14.491L33.419 15.5994L34.4575 14.3293L26.7304 8.01099Z" fill="#D4AF37"/>
<path d="M27.2511 17.2397H26.2356V19.559H27.2511V17.2397Z" fill="#D4AF37"/>
</g>
<defs>
<clipPath id="clip0_1069_435">
<rect width="28" height="28" fill="white" transform="translate(8 8)"/>
</clipPath>
</defs>
</svg>
