<svg width="44" height="44" viewBox="0 0 44 44" fill="none" xmlns="http://www.w3.org/2000/svg">
<rect width="44" height="44" rx="22" fill="white"/>
<rect x="8" y="8" width="28" height="28" fill="white"/>
<path fill-rule="evenodd" clip-rule="evenodd" d="M25.1985 30.1451H9.45594C8.65313 30.1451 8 29.4666 8 28.6327C8 27.7986 8.65319 27.1201 9.45601 27.1201H25.1985C26.0014 27.1201 26.6544 27.7986 26.6544 28.6326C26.6544 29.4666 26.0013 30.1451 25.1985 30.1451Z" fill="#68AA1B"/>
<path fill-rule="evenodd" clip-rule="evenodd" d="M9.40211 26.3814V25.4096C9.40211 20.8695 12.9578 17.1758 17.3283 17.1758C21.699 17.1758 25.2547 20.8695 25.2547 25.4096V26.3814C25.2365 26.3809 25.2181 26.3807 25.1997 26.3807H9.45721C9.43879 26.3807 9.42046 26.3809 9.40211 26.3814Z" fill="#68AA1B"/>
<path fill-rule="evenodd" clip-rule="evenodd" d="M14.8315 16.8199C15.1372 15.688 16.1395 14.8555 17.3255 14.8555C18.5116 14.8555 19.5139 15.688 19.8196 16.8199C19.0296 16.572 18.1923 16.438 17.3255 16.438C16.4586 16.438 15.6214 16.5719 14.8315 16.8199Z" fill="#68AA1B"/>
<path fill-rule="evenodd" clip-rule="evenodd" d="M28.8733 23.63C28.6769 23.63 28.5178 23.4648 28.5178 23.2609V19.4571C28.5178 19.2531 28.6769 19.0879 28.8733 19.0879C29.0695 19.0879 29.2286 19.2531 29.2286 19.4571V23.2609C29.2286 23.4647 29.0695 23.63 28.8733 23.63Z" fill="#68AA1B"/>
<path fill-rule="evenodd" clip-rule="evenodd" d="M28.8711 19.8261C27.7863 19.8261 26.9365 18.5466 26.9365 16.913C26.9365 15.2795 27.7863 14 28.8711 14C29.9559 14 30.8057 15.2796 30.8057 16.913C30.8057 18.5465 29.9559 19.8261 28.8711 19.8261Z" fill="#68AA1B"/>
<path fill-rule="evenodd" clip-rule="evenodd" d="M28.8734 30.9998C28.0717 30.9998 27.4194 30.3223 27.4194 29.4896V23.2608C27.4194 23.0569 27.5785 22.8916 27.7748 22.8916H29.972C30.1683 22.8916 30.3274 23.0569 30.3274 23.2608V29.4896C30.3273 30.3224 29.6751 30.9998 28.8734 30.9998Z" fill="#68AA1B"/>
<path fill-rule="evenodd" clip-rule="evenodd" d="M33.9052 22.2487C33.709 22.2487 33.5499 22.0834 33.5499 21.8795V14.375C33.5499 14.1712 33.709 14.0059 33.9052 14.0059C34.1016 14.0059 34.2607 14.1711 34.2607 14.375V21.8795C34.2606 22.0834 34.1016 22.2487 33.9052 22.2487Z" fill="#68AA1B"/>
<path fill-rule="evenodd" clip-rule="evenodd" d="M33.9003 30.9937C32.9855 30.9937 32.2412 30.2207 32.2412 29.2704V21.8789C32.2412 21.675 32.4003 21.5098 32.5966 21.5098H35.2039C35.4002 21.5098 35.5593 21.675 35.5593 21.8789V29.2704C35.5593 30.2207 34.815 30.9937 33.9003 30.9937Z" fill="#68AA1B"/>
<path fill-rule="evenodd" clip-rule="evenodd" d="M35.1829 17.7348H32.6299C32.1794 17.7348 31.8128 17.354 31.8128 16.886V14.375C31.8128 14.1712 31.9719 14.0059 32.1682 14.0059C32.3645 14.0059 32.5236 14.1711 32.5236 14.375V16.886C32.5236 16.9458 32.5723 16.9964 32.6299 16.9964H35.1829C35.2405 16.9964 35.2893 16.9458 35.2893 16.886V14.375C35.2893 14.1712 35.4483 14.0059 35.6446 14.0059C35.8409 14.0059 36 14.1711 36 14.375V16.886C36 17.354 35.6335 17.7348 35.1829 17.7348Z" fill="#68AA1B"/>
</svg>
