<svg width="28" height="28" viewBox="0 0 28 28" fill="none" xmlns="http://www.w3.org/2000/svg">
<path d="M10.3466 9.39003C10.7091 9.38902 11.0631 9.28062 11.364 9.07852C11.6648 8.87641 11.8991 8.58968 12.0371 8.25453C12.1751 7.91937 12.2107 7.55084 12.1393 7.19548C12.068 6.84011 11.893 6.51386 11.6363 6.25792C11.3797 6.00199 11.0529 5.82786 10.6974 5.75752C10.3418 5.68718 9.97336 5.72379 9.6386 5.86273C9.30383 6.00167 9.01775 6.2367 8.81649 6.53814C8.61523 6.83958 8.50781 7.1939 8.50781 7.55635C8.50904 8.04318 8.70333 8.50965 9.04806 8.85341C9.39278 9.19717 9.85979 9.39016 10.3466 9.39003ZM10.3466 6.38946C10.5773 6.39011 10.8026 6.45909 10.994 6.5877C11.1855 6.71631 11.3345 6.89878 11.4224 7.11205C11.5102 7.32533 11.5328 7.55985 11.4874 7.78599C11.442 8.01213 11.3307 8.21975 11.1673 8.38261C11.004 8.54548 10.7961 8.65629 10.5698 8.70105C10.3436 8.74582 10.1091 8.72252 9.89607 8.6341C9.68303 8.54569 9.50098 8.39613 9.37291 8.2043C9.24483 8.01248 9.17648 7.787 9.17647 7.55635C9.17691 7.24644 9.30043 6.9494 9.51988 6.73056C9.73932 6.51173 10.0367 6.38903 10.3466 6.38946Z" fill="black"/>
<path d="M13.1953 13.8923C13.1943 14.2562 13.3013 14.6122 13.5027 14.9153C13.7042 15.2183 13.991 15.4548 14.3269 15.5948C14.6628 15.7347 15.0327 15.7719 15.3897 15.7015C15.7467 15.6311 16.0749 15.4564 16.3325 15.1995C16.5902 14.9425 16.7659 14.6149 16.8372 14.258C16.9086 13.9012 16.8725 13.5312 16.7335 13.1949C16.5944 12.8586 16.3588 12.5711 16.0562 12.3688C15.7537 12.1666 15.398 12.0586 15.0341 12.0586C14.5473 12.0585 14.0803 12.2515 13.7356 12.5952C13.3908 12.939 13.1966 13.4054 13.1953 13.8923ZM15.0341 12.7254C15.2648 12.726 15.4901 12.795 15.6815 12.9236C15.873 13.0522 16.022 13.2347 16.1099 13.448C16.1977 13.6613 16.2203 13.8958 16.1749 14.1219C16.1295 14.3481 16.0182 14.5557 15.8548 14.7186C15.6915 14.8814 15.4836 14.9922 15.2573 15.037C15.031 15.0818 14.7966 15.0585 14.5836 14.97C14.3705 14.8816 14.1885 14.7321 14.0604 14.5402C13.9323 14.3484 13.864 14.1229 13.864 13.8923C13.8642 13.7388 13.8946 13.5869 13.9535 13.4452C14.0125 13.3035 14.0987 13.1748 14.2074 13.0665C14.316 12.9581 14.445 12.8722 14.5868 12.8137C14.7287 12.7552 14.8807 12.7252 15.0341 12.7254Z" fill="black"/>
<path d="M25.1202 24.5534H13.3122C14.4096 24.0521 15.7839 23.1977 17.454 21.7651C18.7464 20.8491 21.0381 19.3982 21.7275 19.3771C21.8073 19.375 21.8836 19.3442 21.9427 19.2905C22.0017 19.2368 22.0395 19.1636 22.0491 19.0844C22.0588 19.0052 22.0397 18.9251 21.9953 18.8588C21.951 18.7924 21.8843 18.7442 21.8073 18.7229C21.2146 18.5296 20.7221 18.1103 20.4368 17.556C20.1014 16.8451 20.1803 15.9266 20.6661 14.8371C21.1312 13.8405 21.4727 12.7909 21.6832 11.7115C21.6991 11.6245 21.6799 11.5347 21.6298 11.4618C21.5796 11.3889 21.5026 11.3389 21.4157 11.3227C21.3287 11.3065 21.2388 11.3254 21.1658 11.3753C21.0927 11.4252 21.0424 11.502 21.026 11.589C20.8236 12.6126 20.4995 13.6082 20.0604 14.5548C19.4869 15.8407 19.41 16.9459 19.8318 17.8399C20.052 18.297 20.3912 18.6865 20.8138 18.9672C19.4162 19.5679 17.3394 21.028 17.0538 21.2308C17.0453 21.2367 17.0373 21.2431 17.0294 21.2497C13.7456 24.0696 11.7256 24.5332 10.7982 24.5534H10.7927C12.511 22.7719 11.9896 21.2865 11.6004 20.1771L11.59 20.1475C11.1824 18.9851 10.2063 19.1388 9.26217 19.2866C8.97282 19.332 8.67359 19.3791 8.35885 19.4012C7.66563 19.4501 7.4148 19.3441 7.32649 19.2464C7.23507 19.1453 7.22168 18.9332 7.2842 18.5788C7.39717 17.9386 7.0963 17.7097 6.93461 17.5866C6.92914 17.5825 6.92368 17.5785 6.91828 17.5746C6.92359 17.5596 6.93134 17.5399 6.94284 17.515C7.01796 17.3775 7.05226 17.2214 7.04171 17.065C7.03116 16.9087 6.97619 16.7586 6.88327 16.6325C6.79749 16.4918 6.74084 16.399 6.87617 16.0568C6.93316 15.9361 6.95639 15.8021 6.9434 15.6692C6.93041 15.5363 6.88168 15.4094 6.80238 15.302C6.54675 14.9694 5.9975 14.8831 5.54971 14.8738L6.93902 12.0536C6.96693 11.997 6.97814 11.9336 6.97135 11.8708C6.96456 11.8081 6.94004 11.7485 6.90066 11.6992L6.1245 10.7254C6.34895 10.0277 6.65192 9.12617 6.89242 8.48156C7.00449 8.60401 7.1512 8.68941 7.31301 8.72641C7.33134 8.77356 7.3508 8.82029 7.37138 8.8666C7.27182 9.0234 7.22869 9.20946 7.24912 9.39407C7.26954 9.57868 7.35229 9.75081 7.48371 9.88206L8.01566 10.4125C8.14761 10.5438 8.32025 10.6265 8.50529 10.6468C8.69034 10.6672 8.87682 10.6241 9.03418 10.5247C9.08053 10.5451 9.12732 10.5645 9.17455 10.5828C9.21567 10.7641 9.31719 10.9261 9.46246 11.0421C9.60772 11.1582 9.78811 11.2214 9.97404 11.2215H10.0158V13.972C10.0159 14.0605 10.0512 14.1454 10.1139 14.2079C10.1766 14.2704 10.2616 14.3055 10.3501 14.3054H11.3568C11.366 14.4836 11.4331 14.6538 11.5481 14.7903C11.6631 14.9267 11.8196 15.0217 11.9936 15.0609C12.0119 15.1081 12.0314 15.1548 12.052 15.2011C11.9524 15.3579 11.9093 15.544 11.9297 15.7286C11.9501 15.9132 12.0329 16.0853 12.1643 16.2166L12.6963 16.7471C12.8282 16.8784 13.0009 16.961 13.1859 16.9814C13.371 17.0017 13.5574 16.9587 13.7148 16.8592C13.7611 16.8797 13.8079 16.899 13.8552 16.9173C13.8963 17.0986 13.9978 17.2606 14.1431 17.3766C14.2883 17.4927 14.4687 17.5559 14.6546 17.556H15.4069C15.5928 17.5559 15.7732 17.4927 15.9185 17.3766C16.0637 17.2606 16.1652 17.0986 16.2064 16.9173C16.2536 16.8991 16.3004 16.8797 16.3467 16.8592C16.5041 16.9587 16.6906 17.0017 16.8756 16.9814C17.0607 16.961 17.2333 16.8784 17.3653 16.7471L17.8972 16.2166C18.0286 16.0854 18.1114 15.9132 18.1318 15.7286C18.1522 15.544 18.1091 15.3579 18.0095 15.2011C18.0301 15.1549 18.0496 15.1081 18.0679 15.0609C18.2493 15.0205 18.4115 14.9195 18.5279 14.7746C18.6443 14.6297 18.708 14.4495 18.7084 14.2637V13.5136C18.708 13.3277 18.6443 13.1475 18.5279 13.0026C18.4115 12.8577 18.2493 12.7568 18.0679 12.7163C18.0496 12.6691 18.0301 12.6224 18.0095 12.5761C18.1091 12.4193 18.1522 12.2333 18.1318 12.0486C18.1114 11.864 18.0286 11.6919 17.8972 11.5607L17.3653 11.0302C17.2333 10.8989 17.0607 10.8162 16.8756 10.7959C16.6906 10.7755 16.5041 10.8186 16.3467 10.918C16.3004 10.8976 16.2536 10.8782 16.2064 10.8599C16.1652 10.6786 16.0637 10.5166 15.9185 10.4006C15.7732 10.2846 15.5928 10.2213 15.4069 10.2213H15.3651V7.88749H15.9501V9.76284C15.9503 9.85139 15.9856 9.93626 16.0483 9.99878C16.111 10.0613 16.1959 10.0964 16.2845 10.0962H21.0561C21.1462 10.3618 21.3287 10.586 21.5705 10.728C21.8122 10.87 22.097 10.9202 22.3727 10.8695C22.6485 10.8188 22.8967 10.6705 23.0722 10.4518C23.2476 10.2331 23.3384 9.95854 23.328 9.67837C23.3177 9.3982 23.2068 9.13112 23.0157 8.92597C22.8246 8.72081 22.5661 8.59129 22.2874 8.56107C22.0086 8.53086 21.7284 8.60198 21.4978 8.76143C21.2671 8.92088 21.1016 9.15801 21.0315 9.42945H16.6188V7.88749H17.8661C17.9462 8.15609 18.1203 8.3869 18.3566 8.5377C18.5928 8.6885 18.8755 8.74922 19.1528 8.70875C19.4302 8.66829 19.6837 8.52934 19.867 8.31732C20.0504 8.1053 20.1513 7.83438 20.1513 7.55409C20.1513 7.2738 20.0504 7.00287 19.867 6.79086C19.6837 6.57884 19.4302 6.43989 19.1528 6.39942C18.8755 6.35896 18.5928 6.41968 18.3566 6.57048C18.1203 6.72128 17.9462 6.95208 17.8661 7.22069H15.3651V6.1649H16.7581C16.8125 6.1649 16.8661 6.15166 16.9143 6.12633L18.3176 5.38701H20.7079C20.788 5.65561 20.9621 5.88642 21.1984 6.03722C21.4346 6.18802 21.7173 6.24874 21.9946 6.20827C22.272 6.16781 22.5255 6.02886 22.7088 5.81684C22.8922 5.60482 22.9931 5.3339 22.9931 5.05361C22.9931 4.77332 22.8922 4.5024 22.7088 4.29038C22.5255 4.07836 22.272 3.93941 21.9946 3.89895C21.7173 3.85848 21.4346 3.9192 21.1984 4.07C20.9621 4.2208 20.788 4.45161 20.7079 4.72021H18.2348C18.1804 4.72021 18.1268 4.73346 18.0786 4.7588L16.6753 5.49811H15.0307C14.9422 5.49799 14.8572 5.53305 14.7945 5.59557C14.7318 5.65809 14.6965 5.74296 14.6964 5.8315V7.22068H14.0278V7.17901C14.0274 6.99316 13.9637 6.81298 13.8473 6.6681C13.7309 6.52321 13.5687 6.42223 13.3873 6.38176C13.369 6.33459 13.3495 6.28786 13.329 6.24157C13.4285 6.08477 13.4716 5.89871 13.4512 5.7141C13.4308 5.52949 13.348 5.35735 13.2166 5.22611L12.6847 4.69564C12.5527 4.56432 12.3801 4.4817 12.195 4.46133C12.01 4.44096 11.8235 4.48403 11.6661 4.5835C11.6198 4.56302 11.573 4.54365 11.5258 4.52539C11.4846 4.34406 11.3831 4.18209 11.2379 4.06605C11.0926 3.95 10.9122 3.88677 10.7263 3.88672H9.97404C9.78811 3.88677 9.60772 3.95 9.46245 4.06605C9.31719 4.1821 9.21567 4.34406 9.17455 4.52539C9.12735 4.54365 9.08056 4.56302 9.03419 4.5835C8.87682 4.48403 8.69033 4.44095 8.50527 4.46133C8.32021 4.48171 8.14757 4.56434 8.01561 4.69568L7.48374 5.22608C7.3523 5.35732 7.26953 5.52946 7.2491 5.71408C7.22868 5.8987 7.27181 6.08477 7.37138 6.24158C7.3508 6.28787 7.33134 6.3346 7.31301 6.38177C7.13162 6.42224 6.9694 6.52322 6.853 6.66811C6.73661 6.81299 6.67297 6.99317 6.67255 7.17902V7.33492C6.65889 7.35023 6.64667 7.36675 6.63604 7.3843C6.32333 7.91109 5.52326 10.4095 5.43308 10.6926C5.41649 10.7448 5.413 10.8002 5.42294 10.854C5.43288 10.9078 5.45592 10.9583 5.49004 11.001L6.24563 11.949L4.70084 15.0847C4.67444 15.1383 4.66297 15.198 4.66762 15.2575C4.67227 15.3171 4.69288 15.3743 4.72727 15.4231C4.76194 15.4719 4.80895 15.5105 4.86349 15.5351C4.91802 15.5597 4.97811 15.5694 5.03761 15.5631C5.57999 15.5035 6.16793 15.5725 6.27167 15.7077C6.27782 15.7437 6.27158 15.7808 6.25396 15.8128C6.01684 16.4124 6.15258 16.7176 6.31199 16.9791C6.38822 17.1039 6.3928 17.1114 6.33526 17.2366C6.11479 17.7146 6.30954 17.9498 6.5291 18.1168C6.63024 18.1938 6.6681 18.2226 6.62567 18.4632C6.5567 18.8543 6.51752 19.3474 6.8298 19.693C7.11451 20.008 7.60066 20.1232 8.40604 20.0664C8.74934 20.0422 9.07698 19.9907 9.36617 19.9453C10.4007 19.783 10.7529 19.7797 10.9589 20.3676L10.9692 20.3972C11.3699 21.539 11.8239 22.8332 9.83688 24.5359C9.83079 24.5411 9.82663 24.5478 9.82097 24.5534H2.87972C2.8323 24.5472 2.7841 24.5512 2.73835 24.5651C2.69259 24.579 2.65033 24.6025 2.61439 24.6341C2.57845 24.6656 2.54966 24.7045 2.52993 24.7481C2.5102 24.7916 2.5 24.8389 2.5 24.8867C2.5 24.9346 2.5102 24.9818 2.52993 25.0254C2.54966 25.069 2.57845 25.1078 2.61439 25.1394C2.65033 25.1709 2.69259 25.1944 2.73835 25.2084C2.7841 25.2223 2.8323 25.2263 2.87972 25.2201H25.1202C25.1676 25.2263 25.2158 25.2223 25.2615 25.2084C25.3073 25.1944 25.3495 25.1709 25.3855 25.1394C25.4214 25.1078 25.4502 25.069 25.4699 25.0254C25.4897 24.9818 25.4999 24.9346 25.4999 24.8867C25.4999 24.8389 25.4897 24.7916 25.4699 24.7481C25.4502 24.7045 25.4214 24.6656 25.3855 24.6341C25.3495 24.6025 25.3073 24.579 25.2615 24.5651C25.2158 24.5512 25.1676 24.5472 25.1202 24.5534ZM22.1631 9.22108C22.262 9.22135 22.3585 9.25092 22.4406 9.30604C22.5226 9.36116 22.5865 9.43936 22.6242 9.53077C22.6618 9.62217 22.6715 9.72268 22.652 9.8196C22.6326 9.91651 22.5849 10.0055 22.5149 10.0753C22.4449 10.1451 22.3557 10.1926 22.2588 10.2118C22.1618 10.2309 22.0613 10.221 21.97 10.1831C21.8787 10.1452 21.8007 10.0811 21.7458 9.99886C21.6909 9.91665 21.6616 9.82002 21.6616 9.72117C21.662 9.58839 21.7149 9.46117 21.809 9.36742C21.903 9.27366 22.0304 9.22103 22.1631 9.22108ZM18.987 7.05399C19.0859 7.05427 19.1824 7.08383 19.2645 7.13895C19.3465 7.19406 19.4104 7.27226 19.448 7.36367C19.4857 7.45507 19.4954 7.55558 19.4759 7.6525C19.4565 7.74942 19.4087 7.8384 19.3387 7.9082C19.2688 7.978 19.1796 8.02549 19.0827 8.04468C18.9857 8.06386 18.8852 8.05388 18.7939 8.01599C18.7026 7.9781 18.6246 7.914 18.5697 7.83179C18.5148 7.74958 18.4855 7.65295 18.4855 7.55409C18.4858 7.42132 18.5388 7.2941 18.6328 7.20034C18.7269 7.10659 18.8542 7.05395 18.987 7.05399ZM21.8288 4.55351C21.9276 4.55379 22.0242 4.58336 22.1063 4.63848C22.1883 4.6936 22.2522 4.7718 22.2898 4.8632C22.3275 4.95461 22.3372 5.05511 22.3177 5.15203C22.2983 5.24895 22.2505 5.33793 22.1805 5.40773C22.1105 5.47753 22.0214 5.52502 21.9244 5.5442C21.8275 5.56338 21.727 5.5534 21.6357 5.51551C21.5444 5.47762 21.4664 5.41352 21.4115 5.33131C21.3566 5.2491 21.3273 5.15247 21.3273 5.05362C21.3276 4.92084 21.3806 4.79362 21.4746 4.69986C21.5687 4.6061 21.696 4.55347 21.8288 4.55351ZM15.4069 10.8881C15.4266 10.888 15.4462 10.8919 15.4644 10.8994C15.4826 10.9069 15.4992 10.918 15.5132 10.9319C15.5271 10.9458 15.5382 10.9624 15.5458 10.9806C15.5534 10.9988 15.5573 11.0184 15.5573 11.0381V11.3619C15.8753 11.4277 16.1781 11.553 16.4496 11.7312L16.6797 11.5017C16.7079 11.4736 16.7462 11.4577 16.7861 11.4577C16.826 11.4577 16.8642 11.4736 16.8925 11.5017L17.4244 12.0321C17.4383 12.046 17.4494 12.0626 17.457 12.0808C17.4645 12.099 17.4684 12.1185 17.4684 12.1382C17.4684 12.1579 17.4645 12.1774 17.457 12.1956C17.4494 12.2138 17.4383 12.2304 17.4244 12.2443L17.1942 12.4738C17.3729 12.7443 17.4985 13.0462 17.5645 13.3635H17.8893C17.909 13.3635 17.9285 13.3674 17.9468 13.3749C17.965 13.3824 17.9816 13.3935 17.9956 13.4074C18.0095 13.4213 18.0206 13.4379 18.0282 13.4561C18.0358 13.4743 18.0397 13.4938 18.0397 13.5136V14.2637C18.0397 14.2834 18.0358 14.303 18.0282 14.3212C18.0206 14.3394 18.0095 14.3559 17.9956 14.3699C17.9816 14.3838 17.965 14.3949 17.9468 14.4024C17.9285 14.4099 17.909 14.4138 17.8893 14.4137H17.5645C17.4985 14.7311 17.3729 15.033 17.1942 15.3035L17.4244 15.533C17.4383 15.5469 17.4494 15.5634 17.457 15.5816C17.4645 15.5998 17.4684 15.6194 17.4684 15.6391C17.4684 15.6588 17.4645 15.6783 17.457 15.6965C17.4494 15.7147 17.4383 15.7312 17.4244 15.7451L16.8925 16.2756C16.8642 16.3037 16.826 16.3195 16.7861 16.3195C16.7462 16.3195 16.7079 16.3037 16.6797 16.2756L16.4496 16.0461C16.1781 16.2243 15.8753 16.3496 15.5573 16.4153V16.7392C15.5573 16.779 15.5414 16.8172 15.5132 16.8454C15.485 16.8735 15.4467 16.8893 15.4069 16.8892H14.6546C14.6349 16.8892 14.6154 16.8854 14.5971 16.8779C14.5789 16.8703 14.5623 16.8593 14.5483 16.8454C14.5344 16.8314 14.5233 16.8149 14.5157 16.7967C14.5081 16.7784 14.5042 16.7589 14.5042 16.7392V16.4153C14.1862 16.3496 13.8834 16.2243 13.612 16.0461L13.3818 16.2756C13.3536 16.3037 13.3153 16.3195 13.2754 16.3195C13.2356 16.3195 13.1973 16.3037 13.1691 16.2756L12.6372 15.7451C12.6232 15.7312 12.6121 15.7147 12.6045 15.6965C12.597 15.6783 12.5931 15.6588 12.5931 15.6391C12.5931 15.6193 12.597 15.5998 12.6045 15.5816C12.6121 15.5634 12.6232 15.5469 12.6372 15.533L12.8673 15.3035C12.6887 15.033 12.563 14.7311 12.497 14.4137H12.1723C12.1324 14.4138 12.0942 14.398 12.066 14.3699C12.0377 14.3417 12.0219 14.3035 12.0218 14.2637V14.1302C12.0492 14.082 12.0636 14.0274 12.0636 13.972C12.0636 13.9165 12.0492 13.862 12.0218 13.8138V13.5136C12.0219 13.4737 12.0377 13.4355 12.066 13.4074C12.0942 13.3792 12.1324 13.3635 12.1723 13.3635H12.497C12.563 13.0462 12.6887 12.7443 12.8673 12.4738L12.6372 12.2443C12.6232 12.2304 12.6121 12.2138 12.6045 12.1956C12.597 12.1774 12.5931 12.1579 12.5931 12.1382C12.5931 12.1185 12.597 12.099 12.6045 12.0808C12.6121 12.0626 12.6232 12.046 12.6372 12.0321L13.1691 11.5017C13.1973 11.4735 13.2356 11.4577 13.2754 11.4577C13.3153 11.4577 13.3536 11.4735 13.3818 11.5017L13.612 11.7312C13.8834 11.553 14.1862 11.4277 14.5042 11.3619V11.0381C14.5042 11.0184 14.5081 10.9988 14.5157 10.9806C14.5233 10.9624 14.5344 10.9458 14.5483 10.9319C14.5623 10.918 14.5789 10.9069 14.5971 10.8994C14.6154 10.8919 14.6349 10.888 14.6546 10.8881H15.4069ZM14.0278 7.92916V7.88749H14.6964V10.2213H14.6546C14.4687 10.2213 14.2883 10.2846 14.1431 10.4006C13.9978 10.5166 13.8963 10.6786 13.8552 10.8599C13.8079 10.8782 13.7612 10.8976 13.7148 10.9181C13.5574 10.8186 13.3709 10.7755 13.1859 10.7959C13.0008 10.8163 12.8282 10.8989 12.6962 11.0302L12.1643 11.5606C12.0329 11.6919 11.9501 11.864 11.9297 12.0486C11.9093 12.2333 11.9524 12.4193 12.052 12.5761C12.0314 12.6224 12.0119 12.6692 11.9936 12.7163C11.8122 12.7568 11.65 12.8578 11.5336 13.0027C11.4172 13.1475 11.3536 13.3277 11.3532 13.5136V13.6386H10.6845V11.2215H10.7263C10.9122 11.2214 11.0926 11.1582 11.2379 11.0421C11.3831 10.9261 11.4846 10.7641 11.5258 10.5828C11.573 10.5645 11.6198 10.5452 11.6661 10.5247C11.8235 10.6241 12.01 10.6672 12.1951 10.6468C12.3801 10.6264 12.5528 10.5438 12.6847 10.4125L13.2166 9.8821C13.348 9.75086 13.4308 9.57872 13.4512 9.3941C13.4716 9.20948 13.4285 9.02341 13.3289 8.8666C13.3495 8.82033 13.369 8.7736 13.3873 8.7264C13.5687 8.68593 13.7309 8.58496 13.8473 8.44007C13.9637 8.29519 14.0274 8.11501 14.0278 7.92916ZM7.34121 7.17901C7.34126 7.13917 7.35715 7.10098 7.38536 7.07284C7.41357 7.04471 7.45181 7.02893 7.49165 7.02899H7.81642C7.88242 6.71165 8.00807 6.40972 8.18669 6.13925L7.95655 5.90975C7.94259 5.89584 7.93151 5.8793 7.92394 5.8611C7.91638 5.8429 7.91249 5.82338 7.91249 5.80366C7.91249 5.78395 7.91638 5.76443 7.92394 5.74623C7.93151 5.72802 7.94259 5.71149 7.95655 5.69758L8.48847 5.16715C8.51672 5.139 8.55497 5.1232 8.59485 5.1232C8.63473 5.1232 8.67299 5.139 8.70123 5.16715L8.93137 5.39664C9.20284 5.21842 9.50557 5.09314 9.82359 5.02739V4.70354C9.82365 4.66369 9.83953 4.6255 9.86775 4.59737C9.89596 4.56923 9.9342 4.55346 9.97404 4.55351H10.7263C10.746 4.55348 10.7655 4.55734 10.7838 4.56487C10.802 4.57239 10.8186 4.58344 10.8326 4.59737C10.8465 4.6113 10.8576 4.62784 10.8652 4.64606C10.8728 4.66428 10.8767 4.68381 10.8767 4.70354V5.02739C11.1947 5.09313 11.4975 5.21841 11.769 5.39663L11.9991 5.16715C12.0273 5.139 12.0656 5.1232 12.1055 5.1232C12.1453 5.1232 12.1836 5.139 12.2118 5.16715L12.7438 5.69758C12.7577 5.71149 12.7688 5.72802 12.7764 5.74623C12.7839 5.76443 12.7878 5.78395 12.7878 5.80366C12.7878 5.82337 12.7839 5.84289 12.7764 5.8611C12.7688 5.8793 12.7577 5.89583 12.7438 5.90974L12.5136 6.13924C12.6922 6.40972 12.8179 6.71164 12.8839 7.02898H13.2087C13.2485 7.02893 13.2867 7.0447 13.315 7.07284C13.3432 7.10097 13.3591 7.13916 13.3591 7.17901V7.92916C13.3591 7.96901 13.3432 8.00719 13.315 8.03533C13.2867 8.06346 13.2485 8.07923 13.2087 8.07918H12.8839C12.8179 8.39652 12.6923 8.69845 12.5136 8.96893L12.7438 9.19843C12.7577 9.21234 12.7688 9.22887 12.7764 9.24708C12.7839 9.26528 12.7878 9.2848 12.7878 9.30451C12.7878 9.32422 12.7839 9.34374 12.7764 9.36195C12.7688 9.38015 12.7577 9.39668 12.7438 9.41059L12.2119 9.94102C12.1836 9.96917 12.1454 9.98498 12.1055 9.98498C12.0656 9.98498 12.0273 9.96917 11.9991 9.94102L11.769 9.71154C11.4975 9.88975 11.1947 10.015 10.8767 10.0808V10.4046C10.8767 10.4244 10.8728 10.4439 10.8652 10.4621C10.8576 10.4803 10.8465 10.4969 10.8326 10.5108C10.8186 10.5247 10.802 10.5358 10.7838 10.5433C10.7655 10.5508 10.746 10.5547 10.7263 10.5547H9.97404C9.95431 10.5547 9.93477 10.5508 9.91653 10.5433C9.89829 10.5358 9.88171 10.5247 9.86774 10.5108C9.85377 10.4969 9.84268 10.4803 9.8351 10.4621C9.82753 10.4439 9.82362 10.4244 9.82359 10.4046V10.0808C9.50557 10.015 9.20284 9.88975 8.93137 9.71153L8.70123 9.94102C8.67298 9.96917 8.63473 9.98497 8.59485 9.98497C8.55497 9.98497 8.51671 9.96917 8.48846 9.94102L7.95655 9.41059C7.94259 9.39668 7.9315 9.38015 7.92394 9.36194C7.91638 9.34374 7.91249 9.32422 7.91249 9.30451C7.91249 9.28479 7.91638 9.26527 7.92394 9.24707C7.9315 9.22887 7.94259 9.21233 7.95655 9.19842L8.18668 8.96892C8.00807 8.69844 7.88242 8.39651 7.81642 8.07917H7.49165C7.45181 8.07923 7.41357 8.06345 7.38536 8.03532C7.35715 8.00719 7.34127 7.969 7.34121 7.92916V7.17901Z" fill="black"/>
</svg>
