<svg width="28" height="28" viewBox="0 0 28 28" fill="none" xmlns="http://www.w3.org/2000/svg">
<path d="M14.0023 23.4633C13.2805 23.4633 12.6953 22.8836 12.6953 22.1672C12.6953 21.4508 13.2805 20.8711 14.0023 20.8711C14.7242 20.8711 15.3094 21.4508 15.3094 22.1672C15.3094 22.8836 14.7242 23.4633 14.0023 23.4633ZM14.0023 21.4016C13.5758 21.4016 13.2258 21.7461 13.2258 22.1672C13.2258 22.5883 13.5758 22.9328 14.0023 22.9328C14.4289 22.9328 14.7789 22.5883 14.7789 22.1672C14.7789 21.7461 14.4289 21.4016 14.0023 21.4016Z" fill="black"/>
<path d="M14.0023 21.4008C13.8547 21.4008 13.7344 21.2805 13.7344 21.1328V16.8617C13.7344 16.7141 13.8547 16.5938 14.0023 16.5938C14.15 16.5938 14.2703 16.7141 14.2703 16.8617V21.1328C14.2703 21.2805 14.15 21.4008 14.0023 21.4008Z" fill="black"/>
<path d="M19.6273 21.5609C18.9055 21.5609 18.3203 20.9813 18.3203 20.2648C18.3203 19.5484 18.9055 18.9688 19.6273 18.9688C20.3492 18.9688 20.9344 19.5484 20.9344 20.2648C20.9344 20.9758 20.3492 21.5609 19.6273 21.5609ZM19.6273 19.4938C19.2008 19.4938 18.8508 19.8383 18.8508 20.2594C18.8508 20.6805 19.2008 21.025 19.6273 21.025C20.0539 21.025 20.4039 20.6805 20.4039 20.2594C20.3984 19.8383 20.0539 19.4938 19.6273 19.4938Z" fill="black"/>
<path d="M18.5898 20.5258H17.9883C17.0695 20.5258 16.3203 19.782 16.3203 18.8688V16.8617C16.3203 16.7141 16.4406 16.5938 16.5883 16.5938C16.7359 16.5938 16.8563 16.7141 16.8563 16.8617V18.8688C16.8563 19.4867 17.3648 19.9898 17.9883 19.9898H18.5898C18.7375 19.9898 18.8578 20.1102 18.8578 20.2578C18.8523 20.4055 18.732 20.5258 18.5898 20.5258Z" fill="black"/>
<path d="M8.37734 21.5609C7.65547 21.5609 7.07031 20.9813 7.07031 20.2648C7.07031 19.5484 7.65547 18.9688 8.37734 18.9688C9.09922 18.9688 9.68438 19.5484 9.68438 20.2648C9.68438 20.9758 9.09922 21.5609 8.37734 21.5609ZM8.37734 19.4938C7.95078 19.4938 7.60078 19.8383 7.60078 20.2594C7.60078 20.6805 7.95078 21.025 8.37734 21.025C8.80391 21.025 9.15391 20.6805 9.15391 20.2594C9.14844 19.8383 8.80391 19.4938 8.37734 19.4938Z" fill="black"/>
<path d="M10.0258 20.5258H9.42422C9.27656 20.5258 9.15625 20.4055 9.15625 20.2578C9.15625 20.1102 9.27656 19.9898 9.42422 19.9898H10.0258C10.6492 19.9898 11.1578 19.4867 11.1578 18.8688V16.8617C11.1578 16.7141 11.2781 16.5938 11.4258 16.5938C11.5734 16.5938 11.6938 16.7141 11.6938 16.8617V18.8688C11.6883 19.782 10.9391 20.5258 10.0258 20.5258Z" fill="black"/>
<path d="M22.3367 17.1227H5.66797C3.78672 17.1227 2.25 15.6023 2.25 13.732C2.25 11.9492 3.63906 10.4891 5.4 10.3469C5.41641 9.35156 5.78828 8.43281 6.45 7.74375C7.16094 7 8.16172 6.57891 9.20078 6.57891C9.66562 6.57891 10.125 6.66641 10.5625 6.83594C11.1203 5.44687 12.4711 4.53906 14.0023 4.53906C15.5336 4.53906 16.8844 5.45234 17.4477 6.83594C17.8797 6.66641 18.3391 6.57891 18.8094 6.57891C19.843 6.57891 20.8492 7.00547 21.5602 7.74375C22.2219 8.43281 22.5883 9.35156 22.6102 10.3469C24.3711 10.4836 25.7602 11.9492 25.7602 13.732C25.7602 15.6023 24.2234 17.1227 22.3367 17.1227ZM9.18984 7.11484C8.29844 7.11484 7.43984 7.48125 6.82734 8.11562C6.20937 8.76094 5.89219 9.64141 5.93594 10.593C5.94141 10.6695 5.91406 10.7406 5.85937 10.7898C5.81016 10.8445 5.73906 10.8719 5.66797 10.8719C4.07656 10.8719 2.78047 12.1516 2.78047 13.7266C2.78047 15.3016 4.07656 16.5813 5.66797 16.5813H22.3422C23.9336 16.5813 25.2297 15.3016 25.2297 13.7266C25.2297 12.1516 23.9336 10.8719 22.3422 10.8719C22.2656 10.8719 22.2 10.8391 22.1508 10.7898C22.1016 10.7352 22.0742 10.6641 22.0742 10.593C22.1125 9.64141 21.7953 8.75547 21.1773 8.11562C20.5648 7.47578 19.7062 7.11484 18.8148 7.11484C18.3227 7.11484 17.8523 7.21875 17.4148 7.4375C17.3437 7.47031 17.2672 7.47031 17.1906 7.44297C17.1195 7.41016 17.0648 7.35 17.043 7.27891C16.6273 5.96094 15.4078 5.08047 14.0078 5.08047C12.6078 5.08047 11.3773 5.96094 10.9617 7.27344C10.9398 7.35 10.8852 7.40469 10.8141 7.4375C10.743 7.47031 10.6664 7.47031 10.5953 7.43203C10.1469 7.22422 9.67656 7.11484 9.18984 7.11484Z" fill="black"/>
<path d="M11.8758 14.8234C11.7828 14.8234 11.7062 14.7797 11.657 14.7031L10.3609 12.7836C10.2844 12.6633 10.2734 12.5102 10.3445 12.3844C10.4101 12.2586 10.5414 12.1766 10.689 12.1766H10.9734V9.95625C10.9734 9.7375 11.143 9.5625 11.3672 9.5625H12.3789C12.5976 9.5625 12.7726 9.73203 12.7726 9.95625V12.182H13.1445C13.2922 12.182 13.4289 12.2641 13.4945 12.3953C13.5601 12.5211 13.5492 12.6797 13.4617 12.7945L12.1 14.7141C12.0453 14.7797 11.9633 14.8234 11.8758 14.8234ZM10.957 12.7125L11.8812 14.0852L12.8547 12.7125H12.4992C12.3515 12.7125 12.2312 12.5922 12.2312 12.4445V10.093H11.5039V12.4445C11.5039 12.5922 11.3836 12.7125 11.2359 12.7125H10.957Z" fill="black"/>
<path d="M16.564 14.8216H15.5469C15.3281 14.8216 15.1531 14.652 15.1531 14.4278V12.202H14.8687C14.7265 12.202 14.5953 12.1255 14.5242 11.9942C14.4531 11.8684 14.464 11.7098 14.5406 11.595L15.8367 9.67546C15.8859 9.5989 15.968 9.55515 16.0555 9.55515C16.143 9.54968 16.225 9.59343 16.2742 9.66999L17.6305 11.5895C17.7125 11.7098 17.7289 11.863 17.6633 11.9887C17.5976 12.12 17.4609 12.202 17.3133 12.202H16.9469V14.4278C16.9523 14.6466 16.7828 14.8216 16.564 14.8216ZM15.6945 14.2856H16.4219V11.9341C16.4219 11.7864 16.5422 11.6661 16.6898 11.6661H17.0453L16.0719 10.2934L15.1476 11.6661H15.4265C15.5742 11.6661 15.6945 11.7864 15.6945 11.9341V14.2856Z" fill="black"/>
</svg>
