<svg width="28" height="28" viewBox="0 0 28 28" fill="none" xmlns="http://www.w3.org/2000/svg">
<path fill-rule="evenodd" clip-rule="evenodd" d="M23.591 20.5564H4.27156C4.11638 20.5564 4 20.4401 4 20.2849V5.27156C4 5.11638 4.11638 5 4.27156 5H23.591C23.7462 5 23.8626 5.11638 23.8626 5.27156V20.2849C23.8626 20.4401 23.7462 20.5564 23.591 20.5564ZM4.54312 20.0133H23.3195V5.54312H4.54312V20.0133Z" fill="black"/>
<path fill-rule="evenodd" clip-rule="evenodd" d="M23.591 18.1486H4.27156C4.11638 18.1486 4 18.0322 4 17.877C4 17.7219 4.11638 17.6055 4.27156 17.6055H23.591C23.7462 17.6055 23.8626 17.7219 23.8626 17.877C23.8626 18.0322 23.7462 18.1486 23.591 18.1486Z" fill="black"/>
<path fill-rule="evenodd" clip-rule="evenodd" d="M17.2259 22.9989C17.1096 22.9989 16.9544 22.8825 16.9544 22.7273V20.2833C16.9544 20.1669 17.1096 20.0117 17.2259 20.0117C17.3811 20.0117 17.4975 20.1669 17.4975 20.2833V22.7273C17.4975 22.8825 17.3811 22.9989 17.2259 22.9989ZM10.6309 22.9989C10.4758 22.9989 10.3594 22.8825 10.3594 22.7273V20.2833C10.3594 20.1669 10.4758 20.0117 10.6309 20.0117C10.7473 20.0117 10.9025 20.1669 10.9025 20.2833V22.7273C10.9025 22.8825 10.7473 22.9989 10.6309 22.9989Z" fill="black"/>
<path fill-rule="evenodd" clip-rule="evenodd" d="M15.8356 14.586C15.7192 14.586 15.6417 14.5084 15.6029 14.4308C15.5253 14.3144 15.5641 14.1592 15.6805 14.0816L16.9607 13.3445L15.6805 12.6075C15.5641 12.5299 15.5253 12.3747 15.6029 12.2195C15.6805 12.1031 15.8356 12.0643 15.952 12.1419L17.659 13.1118C17.7365 13.1506 17.7753 13.2282 17.7753 13.3445C17.7753 13.4221 17.7365 13.5385 17.659 13.5773L15.952 14.5472C15.9132 14.5472 15.8744 14.586 15.8356 14.586Z" fill="black"/>
<path fill-rule="evenodd" clip-rule="evenodd" d="M12.0256 14.586C11.9868 14.586 11.9481 14.5472 11.9093 14.5472L10.2023 13.5773C10.1247 13.5385 10.0859 13.4221 10.0859 13.3445C10.0859 13.2282 10.1247 13.1506 10.2023 13.1118L11.9093 12.1419C12.0256 12.0643 12.1808 12.1031 12.2584 12.2195C12.336 12.3747 12.2972 12.5299 12.1808 12.6075L10.9006 13.3445L12.1808 14.0816C12.2972 14.1592 12.336 14.3144 12.2584 14.4308C12.2196 14.5084 12.142 14.586 12.0256 14.586Z" fill="black"/>
<path fill-rule="evenodd" clip-rule="evenodd" d="M12.2263 16.5609C12.1875 16.5609 12.1487 16.5609 12.0711 16.5221C11.9547 16.4445 11.9159 16.2893 11.9935 16.1342L15.4074 10.2375C15.485 10.1211 15.6401 10.0435 15.7953 10.1211C15.9117 10.1987 15.9505 10.3926 15.8729 10.509L12.459 16.4057C12.4202 16.5221 12.3038 16.5609 12.2263 16.5609Z" fill="black"/>
<path fill-rule="evenodd" clip-rule="evenodd" d="M23.591 9.03531H4.27156C4.11638 9.03531 4 8.91892 4 8.76375C4 8.60857 4.11638 8.49219 4.27156 8.49219H23.591C23.7462 8.49219 23.8626 8.60857 23.8626 8.76375C23.8626 8.91892 23.7462 9.03531 23.591 9.03531Z" fill="black"/>
<path fill-rule="evenodd" clip-rule="evenodd" d="M8.64847 8.14095C8.02776 8.14095 7.52344 7.63663 7.52344 7.01592C7.52344 6.43401 8.02776 5.92969 8.64847 5.92969C9.26917 5.92969 9.7347 6.43401 9.7347 7.01592C9.7347 7.63663 9.26917 8.14095 8.64847 8.14095ZM8.64847 6.47281C8.33811 6.47281 8.06656 6.70557 8.06656 7.01592C8.06656 7.32628 8.33811 7.59783 8.64847 7.59783C8.95882 7.59783 9.19158 7.32628 9.19158 7.01592C9.19158 6.70557 8.95882 6.47281 8.64847 6.47281Z" fill="black"/>
<path fill-rule="evenodd" clip-rule="evenodd" d="M6.2503 8.14095C5.62959 8.14095 5.16406 7.63663 5.16406 7.01592C5.16406 6.43401 5.62959 5.92969 6.2503 5.92969C6.871 5.92969 7.37533 6.43401 7.37533 7.01592C7.37533 7.63663 6.871 8.14095 6.2503 8.14095ZM6.2503 6.47281C5.93994 6.47281 5.70718 6.70557 5.70718 7.01592C5.70718 7.32628 5.93994 7.59783 6.2503 7.59783C6.56065 7.59783 6.83221 7.32628 6.83221 7.01592C6.83221 6.70557 6.56065 6.47281 6.2503 6.47281Z" fill="black"/>
<path fill-rule="evenodd" clip-rule="evenodd" d="M11.0159 8.14095C10.3952 8.14095 9.92969 7.63663 9.92969 7.01592C9.92969 6.43401 10.3952 5.92969 11.0159 5.92969C11.6366 5.92969 12.141 6.43401 12.141 7.01592C12.141 7.63663 11.6366 8.14095 11.0159 8.14095ZM11.0159 6.47281C10.7056 6.47281 10.4728 6.70557 10.4728 7.01592C10.4728 7.32628 10.7056 7.59783 11.0159 7.59783C11.3263 7.59783 11.5978 7.32628 11.5978 7.01592C11.5978 6.70557 11.3263 6.47281 11.0159 6.47281Z" fill="black"/>
<path fill-rule="evenodd" clip-rule="evenodd" d="M22.2752 7.28921H17.1544C16.9992 7.28921 16.8828 7.17283 16.8828 7.01765C16.8828 6.86248 16.9992 6.74609 17.1544 6.74609H22.2752C22.4304 6.74609 22.5468 6.86248 22.5468 7.01765C22.5468 7.17283 22.4304 7.28921 22.2752 7.28921Z" fill="black"/>
<path fill-rule="evenodd" clip-rule="evenodd" d="M18.7362 23.0001H9.11531C8.96013 23.0001 8.84375 22.8838 8.84375 22.7286C8.84375 22.5734 8.96013 22.457 9.11531 22.457H18.7362C18.8914 22.457 19.0078 22.5734 19.0078 22.7286C19.0078 22.8838 18.8914 23.0001 18.7362 23.0001Z" fill="black"/>
<path fill-rule="evenodd" clip-rule="evenodd" d="M13.3128 8.14095C12.7309 8.14095 12.2266 7.63663 12.2266 7.01592C12.2266 6.43401 12.7309 5.92969 13.3128 5.92969C13.9335 5.92969 14.4378 6.43401 14.4378 7.01592C14.4378 7.63663 13.9335 8.14095 13.3128 8.14095ZM13.3128 6.47281C13.0024 6.47281 12.7697 6.70557 12.7697 7.01592C12.7697 7.32628 13.0024 7.59783 13.3128 7.59783C13.6619 7.59783 13.8947 7.32628 13.8947 7.01592C13.8947 6.70557 13.6619 6.47281 13.3128 6.47281Z" fill="black"/>
</svg>
