<svg width="28" height="28" viewBox="0 0 28 28" fill="none" xmlns="http://www.w3.org/2000/svg">
<path d="M20.1248 7.65174L20.6552 7.12141C20.7346 7.03859 20.7785 6.9279 20.7773 6.81311C20.7761 6.69832 20.73 6.58856 20.6488 6.50739C20.5677 6.42622 20.4579 6.3801 20.3431 6.37893C20.2283 6.37776 20.1176 6.42162 20.0348 6.50112L18.7659 7.77001C18.7252 7.81073 18.6929 7.85908 18.6708 7.9123C18.6488 7.96552 18.6374 8.02256 18.6374 8.08017C18.6374 8.13778 18.6488 8.19482 18.6708 8.24804C18.6929 8.30125 18.7252 8.34961 18.7659 8.39033L20.0348 9.65924C20.0755 9.70004 20.1239 9.7324 20.1771 9.75446C20.2303 9.77651 20.2874 9.78783 20.345 9.78776C20.4311 9.78636 20.515 9.75981 20.5862 9.71137C20.6574 9.66294 20.7129 9.59473 20.7459 9.51515C20.7788 9.43557 20.7878 9.34809 20.7717 9.26347C20.7556 9.17886 20.715 9.10081 20.6551 9.03892L20.1464 8.5302C21.5594 8.58856 22.8952 9.19033 23.8752 10.2099C24.8551 11.2295 25.4034 12.5882 25.4057 14.0023C25.1034 21.2783 14.7385 21.2737 14.4387 14.0023C14.4367 12.3159 13.7659 10.6991 12.5735 9.50665C11.381 8.31418 9.76423 7.64341 8.07782 7.64147C-0.232641 7.9663 -0.416129 19.7706 7.87522 20.3529L7.34483 20.8833C7.30401 20.924 7.27161 20.9723 7.24949 21.0256C7.22737 21.0788 7.21597 21.1359 7.21593 21.1935C7.21589 21.2512 7.22722 21.3083 7.24926 21.3616C7.2713 21.4148 7.30364 21.4632 7.3444 21.504C7.38517 21.5448 7.43357 21.5771 7.48685 21.5991C7.54012 21.6212 7.59722 21.6325 7.65487 21.6325C7.71252 21.6324 7.7696 21.621 7.82284 21.5989C7.87609 21.5768 7.92445 21.5444 7.96516 21.5036L9.23407 20.2347C9.27481 20.1939 9.30713 20.1456 9.32919 20.0924C9.35124 20.0391 9.36259 19.9821 9.36259 19.9245C9.36259 19.8669 9.35124 19.8098 9.32919 19.7566C9.30713 19.7034 9.27481 19.6551 9.23407 19.6143L7.96516 18.3454C7.88234 18.2659 7.77165 18.222 7.65684 18.2232C7.54203 18.2243 7.43225 18.2705 7.35107 18.3517C7.26989 18.4328 7.22376 18.5426 7.2226 18.6574C7.22144 18.7722 7.26534 18.8829 7.34486 18.9657L7.85356 19.4745C0.746169 18.9167 0.939509 8.79597 8.07788 8.51881C9.53168 8.52046 10.9255 9.09873 11.9535 10.1267C12.9814 11.1547 13.5597 12.5485 13.5613 14.0023C13.5633 15.6888 14.234 17.3055 15.4265 18.498C16.619 19.6905 18.2358 20.3613 19.9222 20.3632C28.2326 20.0384 28.4162 8.23402 20.1248 7.65174Z" fill="black"/>
<path d="M11.584 12.9704H11.312C11.1618 12.5059 10.9151 12.0783 10.5882 11.7158C10.6727 11.6311 10.7373 11.5286 10.7772 11.4158C10.817 11.3029 10.8312 11.1826 10.8186 11.0636C10.8059 10.9446 10.7669 10.8299 10.7042 10.728C10.6416 10.626 10.557 10.5393 10.4565 10.4743L9.93893 10.176C9.77 10.0805 9.57019 10.0554 9.38291 10.1064C9.19563 10.1573 9.03602 10.2801 8.93873 10.448L8.80274 10.6805C8.32547 10.5796 7.83238 10.5796 7.3551 10.6805C7.22455 10.4416 7.06157 10.162 6.77168 10.1014C6.40896 9.9635 5.99387 10.3196 5.69688 10.4743C5.59572 10.5388 5.51039 10.6252 5.44723 10.7272C5.38407 10.8291 5.3447 10.9441 5.33206 11.0633C5.31942 11.1826 5.33383 11.3032 5.37422 11.4162C5.41461 11.5291 5.47993 11.6315 5.56534 11.7157C5.23627 12.0758 4.98798 12.5021 4.83709 12.966H4.5651C4.46828 12.9658 4.37237 12.9848 4.28289 13.0218C4.1934 13.0588 4.11209 13.113 4.04363 13.1815C3.97516 13.25 3.92088 13.3313 3.8839 13.4208C3.84692 13.5103 3.82797 13.6062 3.82813 13.703V14.2996C3.82872 14.4945 3.90669 14.6811 4.0449 14.8185C4.18311 14.9559 4.37023 15.0328 4.5651 15.0322H4.83708C4.9853 15.4976 5.23219 15.9256 5.56091 16.2868C5.4763 16.3715 5.41167 16.474 5.37178 16.5868C5.33189 16.6996 5.31773 16.82 5.33035 16.939C5.34297 17.058 5.38204 17.1727 5.44471 17.2746C5.50738 17.3766 5.59206 17.4633 5.69254 17.5283L6.21015 17.8266C6.29338 17.8748 6.38529 17.9061 6.48062 17.9187C6.57596 17.9313 6.67284 17.925 6.76574 17.9002C6.85864 17.8753 6.94573 17.8324 7.02202 17.7738C7.09831 17.7153 7.16231 17.6423 7.21036 17.559L7.34634 17.3221C7.82315 17.4274 8.31718 17.4274 8.79398 17.3221L8.93436 17.5634C9.03329 17.7308 9.19401 17.8526 9.3819 17.9027C9.5698 17.9527 9.76983 17.927 9.93892 17.831C10.6498 17.4636 11.1465 17.1003 10.5837 16.2912C10.9138 15.9302 11.1622 15.5022 11.312 15.0366H11.584C11.7789 15.0371 11.966 14.9603 12.1042 14.8229C12.2424 14.6855 12.3204 14.4988 12.321 14.304V13.7074C12.3211 13.6106 12.3022 13.5146 12.2652 13.4252C12.2282 13.3357 12.1739 13.2544 12.1055 13.1859C12.037 13.1174 11.9557 13.0632 11.8662 13.0262C11.7767 12.9892 11.6808 12.9702 11.584 12.9704ZM8.07455 15.9227C7.56825 15.9186 7.08408 15.7146 6.72752 15.3551C6.37096 14.9956 6.17089 14.5098 6.1709 14.0035C6.17091 13.4971 6.37099 13.0113 6.72756 12.6518C7.08413 12.2924 7.5683 12.0884 8.07461 12.0843C8.58091 12.0884 9.06508 12.2924 9.42164 12.6519C9.7782 13.0114 9.97827 13.4972 9.97826 14.0035C9.97825 14.5098 9.77817 14.9956 9.4216 15.3551C9.06503 15.7146 8.58086 15.9186 8.07455 15.9227Z" fill="black"/>
<path d="M7.03125 14.0008C7.03443 14.2756 7.14582 14.5381 7.34128 14.7313C7.53673 14.9245 7.80047 15.0328 8.0753 15.0328C8.35012 15.0328 8.61387 14.9245 8.80932 14.7313C9.00478 14.5381 9.11618 14.2756 9.11937 14.0008C9.11619 13.726 9.00479 13.4635 8.80934 13.2703C8.61389 13.0771 8.35015 12.9688 8.07532 12.9688C7.8005 12.9687 7.53675 13.0771 7.34129 13.2703C7.14584 13.4635 7.03444 13.726 7.03125 14.0008Z" fill="black"/>
<path d="M17.1862 15.8291C17.269 15.9088 17.3798 15.9527 17.4947 15.9516C17.6095 15.9505 17.7194 15.9044 17.8006 15.8231C17.8819 15.7419 17.928 15.632 17.9291 15.5172C17.9302 15.4023 17.8862 15.2915 17.8065 15.2088L16.5981 14.0003L17.8066 12.7918C17.8888 12.7095 17.935 12.5979 17.935 12.4816C17.935 12.3653 17.8888 12.2537 17.8066 12.1714C17.7243 12.0892 17.6127 12.043 17.4964 12.043C17.3801 12.043 17.2685 12.0892 17.1862 12.1714L15.6676 13.6901C15.6268 13.7308 15.5945 13.7792 15.5725 13.8324C15.5504 13.8856 15.5391 13.9427 15.5391 14.0003C15.5391 14.0579 15.5504 14.1149 15.5725 14.1681C15.5945 14.2214 15.6268 14.2697 15.6676 14.3104L17.1862 15.8291Z" fill="black"/>
<path d="M22.0426 15.8291C22.0833 15.8698 22.1317 15.9022 22.1849 15.9242C22.2381 15.9463 22.2951 15.9576 22.3527 15.9576C22.4103 15.9576 22.4674 15.9463 22.5206 15.9242C22.5738 15.9022 22.6222 15.8698 22.6629 15.8291L24.1816 14.3104C24.2223 14.2697 24.2546 14.2214 24.2767 14.1681C24.2987 14.1149 24.3101 14.0579 24.3101 14.0003C24.3101 13.9427 24.2987 13.8856 24.2767 13.8324C24.2546 13.7792 24.2223 13.7308 24.1816 13.6901L22.6629 12.1714C22.6222 12.1307 22.5738 12.0984 22.5206 12.0764C22.4674 12.0543 22.4103 12.043 22.3527 12.043C22.2951 12.043 22.2381 12.0543 22.1849 12.0764C22.1317 12.0984 22.0833 12.1307 22.0426 12.1714C22.0018 12.2122 21.9695 12.2605 21.9475 12.3137C21.9255 12.367 21.9141 12.424 21.9141 12.4816C21.9141 12.5392 21.9255 12.5962 21.9475 12.6495C21.9695 12.7027 22.0018 12.751 22.0426 12.7918L23.2511 14.0003L22.0426 15.2088C22.0018 15.2495 21.9695 15.2979 21.9475 15.3511C21.9254 15.4043 21.9141 15.4613 21.9141 15.5189C21.9141 15.5765 21.9254 15.6336 21.9475 15.6868C21.9695 15.74 22.0018 15.7884 22.0426 15.8291Z" fill="black"/>
<path d="M19.776 16.3852L20.9147 11.8296C20.9404 11.7177 20.9211 11.6001 20.8611 11.5022C20.801 11.4043 20.7049 11.3339 20.5935 11.306C20.4821 11.2782 20.3642 11.2952 20.2651 11.3534C20.1661 11.4116 20.0938 11.5063 20.0639 11.6172L18.9252 16.1728C18.8995 16.2847 18.9187 16.4023 18.9788 16.5002C19.0388 16.5981 19.1349 16.6686 19.2463 16.6964C19.3578 16.7243 19.4757 16.7072 19.5748 16.6491C19.6738 16.5909 19.7461 16.4961 19.776 16.3852Z" fill="black"/>
</svg>
