<svg width="28" height="28" viewBox="0 0 28 28" fill="none" xmlns="http://www.w3.org/2000/svg">
<path d="M4.10711 17.6952L5.03587 17.531C5.23379 17.496 5.36591 17.3072 5.33091 17.1092C5.29597 16.9112 5.10697 16.7794 4.90911 16.8141L3.98035 16.9783C3.78243 17.0133 3.65031 17.2021 3.68531 17.4001C3.71648 17.5767 3.87004 17.7008 4.04329 17.7008C4.06434 17.7008 4.08567 17.699 4.10711 17.6952Z" fill="black"/>
<path d="M5.10442 17.947L4.17566 18.1111C3.97775 18.1461 3.84562 18.335 3.88062 18.5329C3.91179 18.7095 4.06535 18.8336 4.23861 18.8336C4.25966 18.8336 4.28099 18.8318 4.30242 18.828L5.23118 18.6639C5.4291 18.6289 5.56122 18.44 5.52622 18.2421C5.49128 18.0441 5.30245 17.9122 5.10442 17.947Z" fill="black"/>
<path d="M25.3755 1.56641H5.8601C4.928 1.56641 4.16965 2.32473 4.16965 3.25685V14.1672C4.16965 14.3683 4.33262 14.5312 4.53365 14.5312C4.73468 14.5312 4.89765 14.3683 4.89765 14.1672V6.16776H26.338V18.5212C26.338 19.0519 25.9062 19.4837 25.3755 19.4837H16.4329C16.5717 18.4622 16.5355 17.2792 16.3219 16.0711C16.0538 14.5543 15.5372 13.1692 14.8673 12.171C14.1399 11.087 13.299 10.5679 12.4998 10.7092C11.9958 10.7983 11.5664 11.1399 11.2397 11.6978C10.6386 12.4632 8.85241 14.4738 6.17811 15.2154L3.22219 15.738C3.04883 15.7686 2.89598 15.8716 2.80274 16.0205C2.71779 16.1563 2.64538 16.2986 2.58416 16.4452C2.5132 16.4488 2.44219 16.4554 2.37219 16.4678C1.42631 16.635 0.795109 17.5539 0.965187 18.5163C1.11722 19.3764 1.85878 19.9845 2.69014 19.9845C2.78885 19.9845 2.88887 19.976 2.98928 19.9582C3.0385 19.9495 3.08733 19.9386 3.13554 19.9257C3.26436 20.0766 3.40802 20.2152 3.56596 20.3383C3.61006 20.3726 3.65835 20.4002 3.70913 20.4213L4.3067 22.0204C4.36117 22.166 4.49953 22.257 4.64762 22.257C4.6816 22.257 4.71611 22.2518 4.75021 22.2417L5.9296 25.8503C6.00715 26.0875 6.18417 26.2776 6.41528 26.3718C6.51831 26.4138 6.62692 26.4347 6.73536 26.4347C6.87017 26.4347 7.00453 26.4024 7.12725 26.3384L8.48848 25.6282C8.73184 25.5013 8.89924 25.2631 8.93626 24.9911C8.97328 24.7191 8.87567 24.4449 8.67507 24.2575L7.96889 23.5977L7.31231 21.4373C7.46872 21.3724 7.56119 21.2065 7.53079 21.037L7.32374 19.8825L7.55988 19.8408C7.58405 19.8365 7.60697 19.8291 7.62925 19.8203C9.81508 19.563 11.9579 21.0328 12.8175 21.713C12.9634 21.8575 13.1119 21.9808 13.262 22.083C13.2651 22.085 13.2681 22.0872 13.2713 22.0891C13.6139 22.3206 13.9641 22.4413 14.3099 22.4413C14.3968 22.4413 14.4835 22.4337 14.5697 22.4185C15.369 22.2772 15.9808 21.5012 16.2926 20.2336C16.2944 20.2264 16.2958 20.2189 16.2976 20.2117H25.3755C26.3076 20.2117 27.066 19.4534 27.066 18.5212V3.25685C27.066 2.32473 26.3076 1.56641 25.3755 1.56641ZM12.3828 15.002C12.4611 15.0242 12.5931 15.119 12.7411 15.337C12.9558 15.6529 13.1295 16.1204 13.2178 16.6199C13.3933 17.6126 13.1759 18.2564 13.0078 18.4104L11.6682 17.8669C11.5896 17.563 11.521 17.2501 11.4644 16.9298C11.3887 16.5017 11.3389 16.0887 11.3105 15.6936L12.3828 15.002ZM1.68203 18.3895C1.58969 17.867 1.89416 17.3678 2.37341 17.2164C2.27446 17.9055 2.3905 18.63 2.69779 19.2553C2.21008 19.259 1.7722 18.8996 1.68203 18.3895ZM3.39555 16.4466L6.13692 15.962C5.75301 17.0507 5.98434 18.3592 6.71814 19.2503L3.97687 19.7348C3.05375 18.9823 2.78639 17.47 3.39555 16.4466ZM8.17808 24.7894C8.21739 24.8262 8.21805 24.87 8.21493 24.8929C8.21182 24.9158 8.19946 24.9579 8.15177 24.9828L6.79055 25.6929C6.74773 25.7152 6.70923 25.7055 6.69009 25.6976C6.67095 25.6898 6.63655 25.6699 6.62162 25.6241L5.44512 22.0244L6.61812 21.6566L7.30078 23.9029C7.31937 23.9641 7.35377 24.0193 7.40053 24.063L8.17808 24.7894ZM6.75762 20.8499L4.8679 21.4424L4.47327 20.3864L6.60688 20.0092L6.75762 20.8499ZM7.58718 19.0935C6.63198 18.3119 6.38116 16.7025 7.08668 15.686C8.62365 15.118 9.83145 14.2029 10.6731 13.4027C10.4929 14.4768 10.5169 15.7521 10.7475 17.0565C10.9454 18.1762 11.2791 19.2236 11.7095 20.097C11.6733 20.077 11.6368 20.057 11.5998 20.037C10.1974 19.2808 8.82544 18.9607 7.58718 19.0935ZM14.4429 21.7016C14.209 21.7429 13.9512 21.6682 13.6863 21.4917C13.6344 21.4443 13.4987 21.3232 13.2922 21.1582C13.1289 20.9906 12.9657 20.7881 12.8066 20.551C12.4718 20.0521 12.1784 19.4429 11.9396 18.7627L12.8731 19.1414C12.8756 19.1424 12.8781 19.1431 12.8807 19.144C12.8841 19.1453 12.8875 19.1465 12.891 19.1477C12.9086 19.1538 12.9263 19.1587 12.9441 19.162C12.9458 19.1624 12.9475 19.1625 12.9493 19.1628C12.9695 19.1662 12.9897 19.1682 13.0098 19.1682C13.0298 19.1682 13.0496 19.1662 13.0692 19.1629C13.0706 19.1627 13.0719 19.1628 13.0733 19.1625C13.3045 19.1217 13.7214 18.9379 13.9158 18.1663C14.0351 17.693 14.0417 17.0988 13.9347 16.4931C13.8276 15.8874 13.6176 15.3315 13.3434 14.9278C12.898 14.2724 12.4454 14.2404 12.2132 14.2804C12.2002 14.2826 12.1874 14.2854 12.1746 14.2891C12.1712 14.29 12.1681 14.2913 12.1648 14.2923C12.1568 14.2948 12.1487 14.2973 12.1408 14.3004C12.1318 14.3039 12.1232 14.308 12.1145 14.3122C12.1125 14.3132 12.1104 14.3139 12.1084 14.315C12.0966 14.321 12.0852 14.3276 12.0742 14.3348L11.2825 14.8454C11.2926 13.6526 11.5177 12.6885 11.86 12.0896C11.9847 11.9264 12.0553 11.8218 12.0697 11.8002C12.0788 11.7865 12.0865 11.7723 12.0935 11.758C12.2566 11.5743 12.4365 11.4597 12.6265 11.4261C12.669 11.4186 12.7123 11.4149 12.7562 11.4149C13.2203 11.4149 13.7614 11.8295 14.2629 12.5767C14.8775 13.4925 15.3542 14.7786 15.6051 16.1979C16.1403 19.2256 15.4222 21.5285 14.4429 21.7016ZM4.89765 5.43976V3.25685C4.89765 2.72616 5.32941 2.29441 5.86009 2.29441H25.3755C25.9062 2.29441 26.338 2.72617 26.338 3.25685V5.43976H4.89765Z" fill="black"/>
<path d="M6.80995 3.51172H6.66088C6.45985 3.51172 6.29688 3.67469 6.29688 3.87572C6.29688 4.07675 6.45985 4.23972 6.66088 4.23972H6.80995C7.01098 4.23972 7.17395 4.07675 7.17395 3.87572C7.17395 3.67469 7.01098 3.51172 6.80995 3.51172Z" fill="black"/>
<path d="M10.013 3.51172H9.864C9.66297 3.51172 9.5 3.67469 9.5 3.87572C9.5 4.07675 9.66297 4.23972 9.864 4.23972H10.013C10.2141 4.23972 10.377 4.07675 10.377 3.87572C10.377 3.67469 10.2141 3.51172 10.013 3.51172Z" fill="black"/>
<path d="M8.41152 3.51172H8.26244C8.06141 3.51172 7.89844 3.67469 7.89844 3.87572C7.89844 4.07675 8.06141 4.23972 8.26244 4.23972H8.41152C8.61254 4.23972 8.77552 4.07675 8.77552 3.87572C8.77552 3.67469 8.61255 3.51172 8.41152 3.51172Z" fill="black"/>
<path d="M18.7964 10.3711H17.1296C16.9286 10.3711 16.7656 10.5341 16.7656 10.7351V12.7124C16.7656 12.9135 16.9286 13.0764 17.1296 13.0764H18.7964C18.9974 13.0764 19.1604 12.9135 19.1604 12.7124V10.7351C19.1604 10.5341 18.9974 10.3711 18.7964 10.3711ZM18.4324 12.3484H17.4936V11.0991H18.4324V12.3484Z" fill="black"/>
<path d="M21.7651 13.0745C21.9662 13.0745 22.1291 12.9116 22.1291 12.7105V9.39916C22.1291 9.19813 21.9662 9.03516 21.7651 9.03516H20.0984C19.8973 9.03516 19.7344 9.19813 19.7344 9.39916V12.7105C19.7344 12.9116 19.8973 13.0745 20.0984 13.0745H21.7651ZM20.4624 9.76316H21.4011V12.3465H20.4624V9.76316Z" fill="black"/>
<path d="M24.7026 13.0733C24.9037 13.0733 25.0666 12.9103 25.0666 12.7093V8.01244C25.0666 7.81141 24.9037 7.64844 24.7026 7.64844H23.0359C22.8348 7.64844 22.6719 7.81141 22.6719 8.01244V12.7093C22.6719 12.9103 22.8348 13.0733 23.0359 13.0733H24.7026ZM23.3999 8.37644H24.3386V12.3453H23.3999V8.37644Z" fill="black"/>
<path d="M18.7422 14.6374C18.7422 14.8385 18.9052 15.0014 19.1062 15.0014H24.6971C24.8981 15.0014 25.0611 14.8385 25.0611 14.6374C25.0611 14.4364 24.8981 14.2734 24.6971 14.2734H19.1062C18.9052 14.2734 18.7422 14.4364 18.7422 14.6374Z" fill="black"/>
<path d="M19.1062 16.6733H19.6568C19.8578 16.6733 20.0208 16.5103 20.0208 16.3093C20.0208 16.1083 19.8578 15.9453 19.6568 15.9453H19.1062C18.9052 15.9453 18.7422 16.1083 18.7422 16.3093C18.7422 16.5103 18.9052 16.6733 19.1062 16.6733Z" fill="black"/>
<path d="M24.7028 15.9453H21.0124C20.8114 15.9453 20.6484 16.1083 20.6484 16.3093C20.6484 16.5103 20.8114 16.6733 21.0124 16.6733H24.7028C24.9038 16.6733 25.0668 16.5103 25.0668 16.3093C25.0668 16.1083 24.9038 15.9453 24.7028 15.9453Z" fill="black"/>
<path d="M19.1062 18.3413H24.6971C24.8981 18.3413 25.0611 18.1783 25.0611 17.9773C25.0611 17.7763 24.8981 17.6133 24.6971 17.6133H19.1062C18.9052 17.6133 18.7422 17.7763 18.7422 17.9773C18.7422 18.1783 18.9052 18.3413 19.1062 18.3413Z" fill="black"/>
<path d="M6.40306 8.59128H7.31591C7.51694 8.59128 7.67991 8.42831 7.67991 8.22728C7.67991 8.02625 7.51694 7.86328 7.31591 7.86328H6.40306C6.20203 7.86328 6.03906 8.02625 6.03906 8.22728C6.03906 8.42831 6.20203 8.59128 6.40306 8.59128Z" fill="black"/>
<path d="M6.40306 10.2241H7.31591C7.51694 10.2241 7.67991 10.0611 7.67991 9.86009C7.67991 9.65906 7.51694 9.49609 7.31591 9.49609H6.40306C6.20203 9.49609 6.03906 9.65906 6.03906 9.86009C6.03906 10.0611 6.20203 10.2241 6.40306 10.2241Z" fill="black"/>
<path d="M8.69994 8.59128H9.61284C9.81387 8.59128 9.97684 8.42831 9.97684 8.22728C9.97684 8.02625 9.81387 7.86328 9.61284 7.86328H8.69994C8.49891 7.86328 8.33594 8.02625 8.33594 8.22728C8.33594 8.42831 8.4989 8.59128 8.69994 8.59128Z" fill="black"/>
<path d="M8.69994 10.2241H9.61284C9.81387 10.2241 9.97684 10.0611 9.97684 9.86009C9.97684 9.65906 9.81387 9.49609 9.61284 9.49609H8.69994C8.49891 9.49609 8.33594 9.65906 8.33594 9.86009C8.33594 10.0611 8.4989 10.2241 8.69994 10.2241Z" fill="black"/>
<path d="M6.40306 11.8608H7.31591C7.51694 11.8608 7.67991 11.6978 7.67991 11.4968C7.67991 11.2958 7.51694 11.1328 7.31591 11.1328H6.40306C6.20203 11.1328 6.03906 11.2958 6.03906 11.4968C6.03906 11.6978 6.20203 11.8608 6.40306 11.8608Z" fill="black"/>
</svg>
