<svg width="28" height="28" viewBox="0 0 28 28" fill="none" xmlns="http://www.w3.org/2000/svg">
<path d="M18.5736 17.9813V24.5C18.5736 25.4649 17.7888 26.25 16.8236 26.25H5.92969C4.96454 26.25 4.17969 25.4649 4.17969 24.5V3.5C4.17969 2.53506 4.96454 1.75 5.92969 1.75H8.31415C8.51495 1.75 8.6897 1.88672 8.73841 2.08133L9.09345 3.5H13.6599L13.8788 2.625H10.0641C9.82233 2.625 9.62665 2.42911 9.62665 2.1875C9.62665 1.94589 9.82233 1.75 10.0641 1.75H16.8236C17.5418 1.75 18.1818 2.18344 18.454 2.85422C18.5446 3.0781 18.4369 3.33337 18.213 3.42416C17.9908 3.51431 17.7345 3.4075 17.6431 3.1832C17.5055 2.84418 17.1838 2.625 16.8236 2.625H14.7809L14.4259 4.04367C14.3772 4.23828 14.2025 4.375 14.0016 4.375H8.75165C8.55085 4.375 8.3761 4.23828 8.32739 4.04367L7.97235 2.625H5.92969C5.44733 2.625 5.05469 3.01742 5.05469 3.5V21.875H16.3874C16.6292 21.875 16.8249 22.0709 16.8249 22.3125C16.8249 22.5541 16.6292 22.75 16.3874 22.75H5.05469V24.5C5.05469 24.9826 5.44733 25.375 5.92969 25.375H16.8236C17.306 25.375 17.6986 24.9826 17.6986 24.5V17.9813C17.6986 17.7397 17.8943 17.5438 18.1361 17.5438C18.3779 17.5438 18.5736 17.7397 18.5736 17.9813ZM9.62665 23.625C9.38483 23.625 9.18915 23.8209 9.18915 24.0625C9.18915 24.3041 9.38483 24.5 9.62665 24.5H13.1266C13.3685 24.5 13.5641 24.3041 13.5641 24.0625C13.5641 23.8209 13.3685 23.625 13.1266 23.625H9.62665ZM23.7018 13.1987L23.2515 13.9765C23.0084 14.3967 22.4692 14.5422 22.0471 14.2997L21.5447 14.0107C20.9636 14.574 20.2441 14.9891 19.4661 15.2095V15.7861C19.4661 16.2729 19.0701 16.6692 18.583 16.6692H17.6854C17.1983 16.6692 16.8022 16.2729 16.8022 15.7861V15.2074C16.0238 14.9865 15.3047 14.5702 14.7254 14.0047L14.2242 14.2942C13.8034 14.5375 13.2621 14.3918 13.0181 13.971L12.5682 13.1923C12.3247 12.7702 12.47 12.2291 12.8917 11.9855L13.3932 11.6963C13.1946 10.9164 13.1954 10.0748 13.3946 9.29642C13.0703 9.10379 12.5582 8.89094 12.4841 8.47056C12.3131 8.00531 12.8335 7.40722 13.0232 7.0235C13.2659 6.60309 13.8055 6.45782 14.2277 6.70029L14.7301 6.98932C15.3107 6.42599 16.0302 6.01092 16.8087 5.79047V5.2139C16.8087 4.72705 17.2047 4.33078 17.6918 4.33078H18.5894C19.0765 4.33078 19.4725 4.72705 19.4725 5.2139V5.7926C20.251 6.01349 20.97 6.42984 21.5494 6.9953L22.0505 6.70584C22.4722 6.46274 23.0131 6.60821 23.2566 7.02905L23.7065 7.80771C23.9501 8.22983 23.8048 8.77093 23.3831 9.01446L22.8815 9.30371C22.9802 9.694 23.0302 10.095 23.0302 10.5C23.0302 10.9089 22.9798 11.3124 22.8802 11.7036L23.3793 11.9922C23.8005 12.2359 23.9454 12.777 23.7018 13.1987ZM22.9443 12.7608L22.1441 12.2889C21.9642 12.1846 21.8822 11.968 21.9484 11.7706C22.0856 11.363 22.1552 10.9356 22.1552 10.5C22.1552 10.0685 22.0864 9.64273 21.9501 9.23471C21.8848 9.03754 21.9668 8.82135 22.1467 8.71753L22.9456 8.25653L22.4987 7.46698L21.6887 7.9252C21.5084 8.02923 21.2794 7.99185 21.1414 7.83526C20.5718 7.1882 19.7925 6.73681 18.9479 6.56485C18.7441 6.52319 18.5975 6.34396 18.5975 6.1361V5.21389L17.6918 5.20578L17.6837 6.13397C17.6837 6.34204 17.5371 6.52127 17.3333 6.56271C16.4887 6.73468 15.7085 7.18457 15.1364 7.82971C14.9984 7.98501 14.7694 8.02175 14.5913 7.91857L13.7915 7.45864L13.3305 8.23922L14.1307 8.71111C14.3106 8.81536 14.3926 9.03198 14.3264 9.22936C14.0516 10.0404 14.0508 10.9518 14.3247 11.7653C14.39 11.9625 14.308 12.1786 14.1281 12.2825L13.3292 12.7435C13.3292 12.7435 13.7761 13.533 13.776 13.533C13.9434 13.4605 14.6169 12.9973 14.8049 13.0163C14.9271 13.0163 15.0476 13.0675 15.1334 13.1647C15.703 13.8118 16.4823 14.2632 17.3269 14.4352C17.5307 14.4768 17.6773 14.656 17.6773 14.8639V15.7861L18.583 15.7942L18.5911 14.866C18.5911 14.658 18.7377 14.4787 18.9415 14.4373C19.7857 14.2653 20.5659 13.8154 21.1384 13.1703C21.2764 13.0146 21.5049 12.9778 21.6835 13.0814L22.4833 13.5414L22.9443 12.7608ZM18.1361 7.875C17.8067 7.875 17.4846 7.93481 17.1782 8.05295C16.9526 8.13989 16.8403 8.39304 16.927 8.61841C17.0142 8.84442 17.268 8.95615 17.4927 8.86942C17.6986 8.79016 17.9148 8.75 18.1361 8.75C19.1013 8.75 19.8861 9.53506 19.8861 10.5C19.8861 11.4649 19.1013 12.25 18.1361 12.25C17.171 12.25 16.3861 11.4649 16.3861 10.5C16.3861 10.28 16.4271 10.067 16.5075 9.86725C16.5976 9.64316 16.4891 9.3883 16.2652 9.29794C16.0418 9.20822 15.7863 9.3161 15.6957 9.54041C15.5731 9.8446 15.5111 10.1674 15.5111 10.5C15.5111 11.9475 16.6886 13.125 18.1361 13.125C19.5836 13.125 20.7611 11.9475 20.7611 10.5C20.7611 9.05249 19.5836 7.875 18.1361 7.875ZM8.88666 16.2875C8.71576 16.1166 8.4389 16.1166 8.26801 16.2875L6.46332 18.0922C6.29242 18.2631 6.29242 18.5399 6.46332 18.7108L8.26801 20.5155C8.35345 20.601 8.46539 20.6437 8.57733 20.6437C8.68927 20.6437 8.80121 20.601 8.88666 20.5155C9.05755 20.3446 9.05755 20.0677 8.88666 19.8969L7.3913 18.4015L8.88666 16.9061C9.05755 16.7352 9.05755 16.4584 8.88666 16.2875ZM13.4086 20.5155C13.4941 20.601 13.606 20.6437 13.718 20.6437C13.8299 20.6437 13.9418 20.601 14.0273 20.5155L15.832 18.7108C16.0029 18.5399 16.0029 18.2631 15.832 18.0922L14.0273 16.2875C13.8564 16.1166 13.5795 16.1166 13.4086 16.2875C13.2377 16.4584 13.2377 16.7352 13.4086 16.9061L14.904 18.4015L13.4086 19.8969C13.2377 20.0677 13.2377 20.3446 13.4086 20.5155ZM11.3344 16.4584L10.1312 20.0677C10.0548 20.297 10.1787 20.5448 10.4077 20.6212C10.4538 20.6366 10.5004 20.6439 10.5461 20.6439C10.7294 20.6439 10.8998 20.5279 10.9609 20.3446L12.1641 16.7352C12.2405 16.506 12.1166 16.2582 11.8876 16.1817C11.6569 16.1053 11.4104 16.2294 11.3344 16.4584Z" fill="black"/>
</svg>
