<svg width="44" height="44" viewBox="0 0 44 44" fill="none" xmlns="http://www.w3.org/2000/svg">
<rect width="44" height="44" rx="22" fill="white"/>
<g clip-path="url(#clip0_2308_28832)">
<path d="M32.062 12.4361C32.0194 12.5372 31.9697 12.6351 31.9132 12.7292C31.8429 12.8653 31.764 12.9969 31.677 13.1229C31.5982 13.2454 31.5151 13.3679 31.4232 13.4904C31.3314 13.6129 31.2307 13.7354 31.1301 13.8623L31.0645 13.9454C30.627 14.4573 30.1326 15.0217 29.4151 15.7523L29.7826 17.4104C31.0403 17.3633 32.2568 16.9497 33.2826 16.2204C34.2377 17.997 34.7368 19.9828 34.7351 21.9998C34.7351 22.4373 34.7089 22.8748 34.6651 23.3386C34.3358 23.3036 34.0029 23.3409 33.6895 23.4479C30.837 24.3492 30.9682 24.5854 28.1245 22.4373C26.3745 21.0986 25.2282 21.8642 24.6026 22.6429C24.2862 23.0575 24.0949 23.5539 24.0514 24.0736C23.9726 24.8042 23.4126 26.3836 20.477 28.6148C18.3726 30.2161 18.3551 32.2504 18.8539 33.8648C17.2907 33.3925 15.8363 32.616 14.5742 31.5799C13.3121 30.5438 12.2672 29.2685 11.4995 27.8273C15.2795 27.2498 20.9714 22.4373 21.8726 21.6586C21.9531 21.619 22.0306 21.5737 22.1045 21.5229L22.6951 22.5204L23.2157 21.9998L23.032 20.8711C23.7014 20.3111 25.6176 18.9461 26.532 18.0623L29.7214 22.8748L30.4389 22.1573L29.367 17.4323L28.9645 15.6211C29.5901 14.9867 30.2332 14.3086 30.7451 13.6829C30.8676 13.5298 30.9857 13.3854 31.0907 13.2454L31.3357 12.8911C31.4174 12.7657 31.4918 12.6432 31.5589 12.5236C31.6265 12.3997 31.685 12.271 31.7339 12.1386C31.8139 12.0036 31.8506 11.8472 31.8388 11.6907C31.8271 11.5342 31.7675 11.3851 31.6682 11.2636C31.4495 11.0448 31.1082 11.0623 30.6882 11.2636C30.5604 11.3216 30.4362 11.3873 30.3164 11.4604C30.1939 11.5261 30.0714 11.6092 29.9401 11.6967L29.5814 11.9592C29.3801 12.1123 29.1745 12.2786 28.9645 12.4623C28.4264 12.9261 27.8664 13.4642 27.3282 13.9892L23.8282 13.2061L20.8226 12.5323L20.092 13.2498L24.9045 16.4392C24.0295 17.3361 22.6557 19.2523 22.0957 19.9392L20.967 19.7554L20.4332 20.2498L21.4264 20.8404C21.3882 20.8953 21.3532 20.9523 21.3214 21.0111C20.4551 21.7679 14.562 26.7642 11.0882 27.0267C10.8439 26.4821 10.6392 25.9207 10.4757 25.3467C14.2995 25.6136 14.9207 22.8398 15.332 20.9236C15.4676 20.2761 16.0626 19.4929 16.9726 18.8236C18.5914 17.6248 20.2495 16.4523 19.952 14.3261C19.9138 14.0546 19.8479 13.7878 19.7551 13.5298C19.7129 13.3997 19.6587 13.2737 19.5932 13.1536C19.0438 12.0855 18.1035 11.2706 16.9682 10.8786C18.6528 10.059 20.5024 9.63546 22.3757 9.64044C22.8835 9.64593 23.3905 9.68246 23.8939 9.74982C23.6917 10.7398 23.643 11.755 23.7495 12.7598L23.9114 12.7948L27.2057 13.5298C27.6432 13.0923 28.1857 12.5804 28.6932 12.1429C28.912 11.9548 29.1307 11.7798 29.3364 11.6223C29.4589 11.5261 29.5814 11.4342 29.7082 11.3511C29.8351 11.2679 29.997 11.1542 30.1195 11.0886C30.1955 11.0413 30.2744 10.999 30.3557 10.9617C28.0393 9.27136 25.2433 8.36543 22.3757 8.37607C18.7632 8.37954 15.2995 9.81587 12.7446 12.3699C10.1897 14.924 8.75224 18.3872 8.74761 21.9998C8.74761 22.2754 8.74761 22.5467 8.77386 22.8136C8.10448 23.8504 7.86823 24.7998 8.06948 25.6442C8.35386 26.8123 9.03636 27.5648 10.047 27.8011C11.3651 30.6041 13.599 32.8744 16.3805 34.2375C19.1619 35.6006 22.3248 35.9751 25.3478 35.2994C28.3707 34.6237 31.0731 32.938 33.0094 30.5204C34.9457 28.1027 36.0004 25.0973 35.9995 21.9998C36.0044 20.2251 35.6592 18.4668 34.9835 16.8257C34.3078 15.1846 33.315 13.6929 32.062 12.4361ZM8.87448 25.4473C8.79909 25.0831 8.82327 24.7052 8.94448 24.3536C9.07838 25.1391 9.28339 25.9108 9.55698 26.6592C9.19979 26.3434 8.95937 25.9165 8.87448 25.4473Z" fill="#2196F3"/>
</g>
<defs>
<clipPath id="clip0_2308_28832">
<rect width="28" height="28" fill="white" transform="translate(8 8)"/>
</clipPath>
</defs>
</svg>
