<svg width="80" height="80" viewBox="0 0 80 80" fill="none" xmlns="http://www.w3.org/2000/svg">
<g clip-path="url(#clip0_2455_28837)">
<path d="M63.3656 9.99996L60.3101 14.7315H15.0676L10.2812 9.99996V1.12678C10.2812 0.504405 10.7857 0 11.408 0H60.9031C61.5253 0 62.0299 0.504405 62.0299 1.12678L63.3656 9.99996Z" fill="#FD8087"/>
<path d="M64.1539 0H59.3249C59.9473 0 60.4517 0.504405 60.4517 1.12678V9.99996L55.4805 14.7315H60.3095L65.2807 9.99996V1.12678C65.2807 0.504405 64.7762 0 64.1539 0Z" fill="#FE646F"/>
<path d="M22.5 61.3364H50.0855V77.5002H22.5V61.3364Z" fill="#5E6B75"/>
<path d="M47.6719 61.3364H52.5009V77.5002H47.6719V61.3364Z" fill="#4C5A60"/>
<path d="M70.0294 64.9882H2.41452C1.081 64.9882 0 63.9072 0 62.5737V14.9145C0 13.5809 1.081 12.4999 2.41452 12.4999H70.0294C71.3629 12.4999 72.4439 13.5809 72.4439 14.9145V62.5737C72.4439 63.9072 71.3629 64.9882 70.0294 64.9882Z" fill="#808B95"/>
<path d="M73.1484 12.4999H68.1484C69.482 12.4999 70.563 13.5809 70.563 14.9145V62.5737C70.563 63.9072 69.482 64.9882 68.1484 64.9882H73.1484C74.4819 64.9882 75.5629 63.9072 75.5629 62.5737V14.9145C75.5629 13.5809 74.4819 12.4999 73.1484 12.4999Z" fill="#5E6B75"/>
<path d="M53.3019 80H18.6268C18.0046 80 17.5 79.4956 17.5 78.8732V76.1268C17.5 75.5046 18.0044 75 18.6268 75H53.3019C53.9242 75 54.4287 75.5044 54.4287 76.1268V78.8732C54.4287 79.4956 53.9243 80 53.3019 80Z" fill="#808B95"/>
<path d="M56.372 75H51.543C52.1652 75 52.6698 75.5044 52.6698 76.1268V78.8732C52.6698 79.4954 52.1653 80 51.543 80H56.372C56.9942 80 57.4988 79.4956 57.4988 78.8732V76.1268C57.4988 75.5046 56.9942 75 56.372 75Z" fill="#5E6B75"/>
<path d="M69.4367 60.0001H65.2818L61.156 56.4378H14.8275L10.2817 60.0001H6.12678C5.50456 60.0001 5 59.4957 5 58.8733V18.6072C5 17.985 5.5044 17.4804 6.12678 17.4804H69.4367C70.059 17.4804 70.5635 17.9848 70.5635 18.6072V58.8733C70.5635 59.4955 70.059 60.0001 69.4367 60.0001Z" fill="#B9DEF9"/>
<path d="M60.3232 60.0001H41.4885L40.2813 58.0565L39.074 60.0001H10.2812V9.99997H39.074L40.2813 11.2844L41.4885 9.99997H60.3232L63.3206 14.7315V55.8939L60.3232 60.0001Z" fill="#F0FCFF"/>
<path d="M60.3242 9.99997H65.2822V60.0001H60.3242V9.99997Z" fill="#D7ECFE"/>
<path d="M75.5636 32.5H47.1619C46.5397 32.5 46.0352 31.9956 46.0352 31.3732V18.3645C46.0352 17.7423 46.5396 17.2377 47.1619 17.2377H75.5636C76.1858 17.2377 76.6904 17.7421 76.6904 18.3645V31.3732C76.6904 31.9956 76.1858 32.5 75.5636 32.5Z" fill="#9DCFFD"/>
<path d="M78.872 17.2377H74.043C74.6652 17.2377 75.1698 17.7421 75.1698 18.3645V31.3732C75.1698 31.9955 74.6653 32.5 74.043 32.5H78.872C79.4942 32.5 79.9988 31.9956 79.9988 31.3732V18.3645C79.9986 17.7421 79.4942 17.2377 78.872 17.2377Z" fill="#84C4F4"/>
<path d="M75.5636 54.0025H47.1619C46.5397 54.0025 46.0352 53.4981 46.0352 52.8758V39.867C46.0352 39.2448 46.5396 38.7402 47.1619 38.7402H75.5636C76.1858 38.7402 76.6904 39.2446 76.6904 39.867V52.8758C76.6904 53.4981 76.1858 54.0025 75.5636 54.0025Z" fill="#9DCFFD"/>
<path d="M78.872 38.7402H74.043C74.6652 38.7402 75.1698 39.2446 75.1698 39.867V52.8758C75.1698 53.498 74.6653 54.0025 74.043 54.0025H78.872C79.4942 54.0025 79.9988 53.4981 79.9988 52.8758V39.867C79.9986 39.2446 79.4942 38.7402 78.872 38.7402Z" fill="#84C4F4"/>
<path d="M39.0742 10.0001H41.4887V60.0001H39.0742V10.0001Z" fill="#D7ECFE"/>
<path d="M16.2504 3.79333C15.5813 3.79333 15.0391 4.33259 15.0391 4.99934C15.0391 5.5786 15.4957 6.2066 16.2463 6.2066C16.9054 6.2066 17.4536 5.67423 17.4536 4.99934C17.4536 4.33118 16.905 3.79333 16.2504 3.79333Z" fill="#F0FCFF"/>
<path d="M21.2465 3.79318C20.5939 3.79318 20.0391 4.32103 20.0391 4.99919C20.0391 5.79111 20.7682 6.32927 21.4829 6.18395C22.0598 6.063 22.4536 5.57047 22.4536 4.99919C22.4536 4.33056 21.9101 3.79318 21.2465 3.79318Z" fill="#F0FCFF"/>
<path d="M26.2465 3.79318C25.5813 3.79318 25.0391 4.33446 25.0391 4.99919C25.0391 5.66532 25.5796 6.20645 26.2463 6.20645C26.9184 6.20645 27.4536 5.66329 27.4536 4.99919C27.4536 4.33634 26.9164 3.79318 26.2465 3.79318Z" fill="#F0FCFF"/>
<path d="M60.4951 4.99998C60.4951 4.33323 59.9546 3.79272 59.2879 3.79272H32.7815C32.1147 3.79272 31.5742 4.33323 31.5742 4.99998C31.5742 5.66674 32.1147 6.20724 32.7815 6.20724H59.2879C59.9546 6.20724 60.4951 5.6669 60.4951 4.99998Z" fill="#F0FCFF"/>
<path d="M23.5636 25.3963C24.0436 25.3963 24.4975 25.108 24.6858 24.6349L27.4505 17.6837C27.6969 17.0641 27.3944 16.3622 26.7748 16.1158C26.155 15.8689 25.4534 16.1719 25.2068 16.7915L22.4421 23.7426C22.1255 24.5388 22.7169 25.3963 23.5636 25.3963Z" fill="#FFC344"/>
<path d="M30.239 24.9002C30.8161 25.2345 31.5547 25.0373 31.8888 24.4605L33.7453 21.2553C33.966 20.8745 33.9618 20.4039 33.7346 20.027L31.878 16.9477C31.5338 16.3766 30.7917 16.1928 30.2208 16.5371C29.6498 16.8813 29.466 17.6232 29.8103 18.1942L31.2985 20.6625L29.7995 23.2504C29.4654 23.8273 29.6621 24.566 30.239 24.9002Z" fill="#FFC344"/>
<path d="M18.105 24.4605C18.4393 25.0377 19.1782 25.2341 19.7548 24.9002C20.3317 24.566 20.5285 23.8273 20.1944 23.2504L18.6954 20.6625L20.1836 18.1942C20.5278 17.6232 20.3441 16.8813 19.7731 16.5371C19.2021 16.1928 18.4601 16.3766 18.1158 16.9477L16.2593 20.027C16.0321 20.4037 16.0279 20.8745 16.2485 21.2553L18.105 24.4605Z" fill="#FFC344"/>
<path d="M16.2463 31.5872H20.681C21.3477 31.5872 21.8882 31.0467 21.8882 30.3799C21.8882 29.7132 21.3477 29.1727 20.681 29.1727H16.2463C15.5796 29.1727 15.0391 29.7132 15.0391 30.3799C15.0391 31.0467 15.5796 31.5872 16.2463 31.5872Z" fill="#B9DEF9"/>
<path d="M16.2463 41.2073H27.7804C28.4472 41.2073 28.9877 40.6668 28.9877 40C28.9877 39.3333 28.4472 38.7928 27.7804 38.7928H16.2463C15.5796 38.7928 15.0391 39.3333 15.0391 40C15.0391 40.6669 15.5796 41.2073 16.2463 41.2073Z" fill="#B9DEF9"/>
<path d="M24.2695 30.3799C24.2695 31.0467 24.81 31.5872 25.4768 31.5872H34.1106C34.7773 31.5872 35.3178 31.0467 35.3178 30.3799C35.3178 29.7132 34.7773 29.1727 34.1106 29.1727H25.4768C24.81 29.1727 24.2695 29.713 24.2695 30.3799Z" fill="#B9DEF9"/>
<path d="M16.2463 36.5872H20.681C21.3477 36.5872 21.8882 36.0467 21.8882 35.3799C21.8882 34.7131 21.3477 34.1726 20.681 34.1726H16.2463C15.5796 34.1726 15.0391 34.7131 15.0391 35.3799C15.0391 36.0467 15.5796 36.5872 16.2463 36.5872Z" fill="#B9DEF9"/>
<path d="M34.1106 34.1726H25.4768C24.81 34.1726 24.2695 34.7131 24.2695 35.3799C24.2695 36.0467 24.81 36.5872 25.4768 36.5872H34.1106C34.7773 36.5872 35.3178 36.0467 35.3178 35.3799C35.3178 34.7131 34.7773 34.1726 34.1106 34.1726Z" fill="#B9DEF9"/>
<path d="M20.681 46.2929H16.2463C15.5796 46.2929 15.0391 46.8334 15.0391 47.5001C15.0391 48.1669 15.5796 48.7074 16.2463 48.7074H20.681C21.3477 48.7074 21.8882 48.1669 21.8882 47.5001C21.8882 46.8334 21.3477 46.2929 20.681 46.2929Z" fill="#B9DEF9"/>
<path d="M34.1106 46.2929H25.4768C24.81 46.2929 24.2695 46.8334 24.2695 47.5001C24.2695 48.1669 24.81 48.7074 25.4768 48.7074H34.1106C34.7773 48.7074 35.3178 48.1669 35.3178 47.5001C35.3178 46.8334 34.7773 46.2929 34.1106 46.2929Z" fill="#B9DEF9"/>
<path d="M20.681 51.2927H16.2463C15.5796 51.2927 15.0391 51.8332 15.0391 52.5C15.0391 53.1667 15.5796 53.7072 16.2463 53.7072H20.681C21.3477 53.7072 21.8882 53.1667 21.8882 52.5C21.8882 51.8332 21.3477 51.2927 20.681 51.2927Z" fill="#B9DEF9"/>
<path d="M34.1106 51.2927H25.4768C24.81 51.2927 24.2695 51.8332 24.2695 52.5C24.2695 53.1667 24.81 53.7072 25.4768 53.7072H34.1106C34.7773 53.7072 35.3178 53.1667 35.3178 52.5C35.3178 51.8332 34.7773 51.2927 34.1106 51.2927Z" fill="#B9DEF9"/>
<path d="M75.2408 22.5001C75.2408 21.8333 74.7003 21.2928 74.0336 21.2928H51.7463C51.0796 21.2928 50.5391 21.8333 50.5391 22.5001C50.5391 23.1668 51.0796 23.7073 51.7463 23.7073H74.0337C74.7005 23.7073 75.2408 23.1668 75.2408 22.5001Z" fill="#F0FCFF"/>
<path d="M51.7463 26.2928C51.0796 26.2928 50.5391 26.8333 50.5391 27.5C50.5391 28.1668 51.0796 28.7073 51.7463 28.7073H69.9994C70.6662 28.7073 71.2067 28.1668 71.2067 27.5C71.2067 26.8333 70.6662 26.2928 69.9994 26.2928H51.7463Z" fill="#F0FCFF"/>
<path d="M51.7463 45.2098H74.0337C74.7005 45.2098 75.241 44.6693 75.241 44.0026C75.241 43.3358 74.7005 42.7953 74.0337 42.7953H51.7463C51.0796 42.7953 50.5391 43.3358 50.5391 44.0026C50.5391 44.6693 51.0794 45.2098 51.7463 45.2098Z" fill="#F0FCFF"/>
<path d="M51.7463 50.2098H69.9994C70.6662 50.2098 71.2067 49.6693 71.2067 49.0026C71.2067 48.3358 70.6662 47.7953 69.9994 47.7953H51.7463C51.0796 47.7953 50.5391 48.3358 50.5391 49.0026C50.5391 49.6693 51.0794 50.2098 51.7463 50.2098Z" fill="#F0FCFF"/>
</g>
<defs>
<clipPath id="clip0_2455_28837">
<rect width="80" height="80" fill="white"/>
</clipPath>
</defs>
</svg>
