<svg width="70" height="70" viewBox="0 0 70 70" fill="none" xmlns="http://www.w3.org/2000/svg">
<g clip-path="url(#clip0_2902_11768)">
<path d="M0 70L4.82754 52.5C1.68971 47.069 0 41.0345 0 34.7586C0 15.6897 15.6897 0 34.8793 0C54.0688 0 70 15.6897 70 34.7586C70 53.8274 54.069 70 34.8793 70C28.8448 70 23.0517 68.069 17.862 65.1725L0 70Z" fill="#EDEDED"/>
<path d="M18.8282 58.8967L19.9144 59.5002C24.3799 62.276 29.5696 63.9657 35.0007 63.9657C50.811 63.9657 63.9662 50.8105 63.9662 34.7587C63.9662 18.707 50.811 6.03467 34.8799 6.03467C18.9489 6.03467 6.03516 18.8277 6.03516 34.7587C6.03516 40.3105 7.60414 45.7415 10.5007 50.3277L11.2249 51.4139L8.44906 61.5519L18.8282 58.8967Z" fill="#55CD6C"/>
<path d="M25.5868 18.5861L23.2938 18.4653C22.5696 18.4653 21.8455 18.7068 21.3628 19.1895C20.2765 20.155 18.4662 21.9653 17.9835 24.3792C17.1387 28 18.4662 32.3447 21.6042 36.6895C24.7422 41.0343 30.7767 48.0343 41.3973 51.0516C44.7765 52.0171 47.4318 51.4136 49.6042 50.0861C51.2939 48.9998 52.38 47.3103 52.7422 45.4998L53.1042 43.8101C53.2249 43.3274 52.9835 42.7239 52.5007 42.4826L44.8973 38.9826C44.4145 38.7411 43.811 38.8619 43.449 39.3446L40.4318 43.2066C40.1903 43.4481 39.8283 43.5687 39.4662 43.4481C37.4145 42.7239 30.5352 39.8274 26.7938 32.5861C26.6731 32.224 26.6731 31.8619 26.9145 31.6205L29.811 28.362C30.0525 28 30.1731 27.5172 30.0525 27.155L26.5525 19.3103C26.4316 18.9481 26.0696 18.5861 25.5868 18.5861Z" fill="#FEFEFE"/>
</g>
<defs>
<clipPath id="clip0_2902_11768">
<rect width="70" height="70" fill="white"/>
</clipPath>
</defs>
</svg>
