<svg width="8" height="11" viewBox="0 0 8 11" fill="none" xmlns="http://www.w3.org/2000/svg">
<path d="M0.896459 10.2C0.64882 10.2 0.4375 10.1119 0.2625 9.93563C0.0875 9.75937 0 9.5475 0 9.3V4.5C0 4.2525 0.088125 4.04063 0.264375 3.86438C0.440625 3.68813 0.6525 3.6 0.9 3.6H1.2V2.4C1.2 1.736 1.43428 1.17 1.90283 0.702C2.37138 0.234 2.93804 0 3.60283 0C4.26761 0 4.83333 0.234 5.3 0.702C5.76667 1.17 6 1.736 6 2.4V3.6H6.3C6.5475 3.6 6.75938 3.68813 6.93562 3.86438C7.11187 4.04063 7.2 4.2525 7.2 4.5V9.3C7.2 9.5475 7.11183 9.75937 6.93548 9.93563C6.75913 10.1119 6.54713 10.2 6.29949 10.2H0.896459ZM0.9 9.3H6.3V4.5H0.9V9.3ZM3.60265 7.8C3.85088 7.8 4.0625 7.71162 4.2375 7.53484C4.4125 7.35808 4.5 7.14558 4.5 6.89735C4.5 6.64912 4.41162 6.4375 4.23485 6.2625C4.05808 6.0875 3.84558 6 3.59734 6C3.34911 6 3.1375 6.08838 2.9625 6.26515C2.7875 6.44192 2.7 6.65442 2.7 6.90266C2.7 7.15089 2.78839 7.3625 2.96516 7.5375C3.14192 7.7125 3.35442 7.8 3.60265 7.8ZM2.1 3.6H5.1V2.4C5.1 1.98333 4.95417 1.62917 4.6625 1.3375C4.37083 1.04583 4.01667 0.9 3.6 0.9C3.18333 0.9 2.82917 1.04583 2.5375 1.3375C2.24583 1.62917 2.1 1.98333 2.1 2.4V3.6ZM0.9 9.3V4.5V9.3Z" fill="#2C2829"/>
</svg>
