<svg width="525" height="371" viewBox="0 0 525 371" fill="none" xmlns="http://www.w3.org/2000/svg">
<path opacity="0.3" d="M505.909 166.53L506.058 158.991C505.77 139.625 499.971 120.95 489.185 104.832C474.81 83.3489 453.124 68.7663 428.122 63.7688C415.501 61.2462 402.63 61.3216 389.864 63.9922L380.687 65.9124L381.2 66.242C370.853 69.4184 361.178 74.2379 352.41 80.6296L352.39 80.6441L352.354 80.6701L347.11 84.5987L341.953 88.462L316.794 107.308L314.119 102.552L314.028 102.62L300.219 79.2289L299.495 78.0022L297.985 75.4446L294.33 69.2531L294.198 69.0319C291.825 65.1292 289.187 61.3928 286.343 57.9025C277.893 47.5366 267.199 38.9232 255.28 32.8504L255.697 32.6425L247.859 29.4602C242.315 27.2085 236.56 25.4786 230.755 24.3183C206.15 19.4002 180.852 24.311 159.52 38.1471C141.052 50.1254 126.978 68.0439 119.602 88.8565L118.847 87.5466L116.863 97.2851L115.787 102.572L115.766 102.672C115.747 102.758 115.725 102.859 115.705 102.962C105.046 156.287 138.309 208.154 190.035 219.437L189.555 219.806L198.769 220.925C219.225 223.409 239.935 219.201 257.915 209.03L264.993 204.732L269.256 201.589L269.265 201.532L303.013 176.253L322.529 209.312L323.226 210.492L325.478 214.308L325.614 214.535C337.901 234.742 356.953 249.721 379.272 256.734C379.272 256.734 388.298 259.091 389.048 259.241C414.225 264.274 439.991 259.052 461.602 244.539C483.186 230.044 498.146 207.956 503.727 182.343C503.729 182.343 505.861 167.319 505.909 166.53ZM240.552 164.422L240.51 164.455C231.785 170.78 221.623 174.143 211.119 174.182L208.488 174.191L208.458 174.146L206.721 174C204.752 173.833 202.826 173.564 200.998 173.199C173.747 167.752 155.867 140.585 161.14 112.639L161.187 112.389L161.772 109.294L161.893 109.226L162.332 107.703C169.765 81.9317 195.731 65.7707 221.445 70.9106C225.158 71.6528 228.781 72.8094 232.212 74.3474L235.995 76.0435L236.1 76.2835L237.139 76.8993C242.208 79.9013 246.71 83.7922 250.519 88.465C251.982 90.2593 253.341 92.1798 254.56 94.1717L257.301 98.8151L258.83 101.405L259.548 102.62L277.883 133.679L279.02 135.605L244.055 161.797L240.552 164.422ZM222.195 67.1588C225.949 67.9093 229.545 69.0527 232.974 70.526C229.545 69.0527 225.948 67.9091 222.195 67.1588ZM156.479 123.114C156.449 120.354 156.621 117.562 157.007 114.758C156.621 117.562 156.449 120.353 156.479 123.114ZM239.872 74.1078C244.941 77.2375 249.503 81.2192 253.403 86.0048C249.503 81.2192 244.942 77.2386 239.872 74.1078ZM223.754 196.489L211.1 178.006L224.572 197.683L223.754 196.489ZM365.252 189.391L363.115 185.771L362.609 184.912L362.128 184.098L361.813 183.566L359.934 180.382L343.683 152.853L343.722 152.826L340.861 147.979L340.822 148.008L340.789 147.953L369.829 126.199L375.03 122.302L379.296 119.106C385.218 114.814 391.76 111.894 398.743 110.43L400.384 110.086L400.423 110.017L403.195 109.697C408.366 109.1 413.618 109.323 418.806 110.36C441.144 114.825 457.461 133.354 459.406 156.467L459.515 157.753L459.655 157.91L459.578 161.958C459.55 163.405 459.485 164.68 459.377 165.853L459.271 167.012L459.191 167.882L458.796 170.153C458.764 170.337 458.734 170.519 458.704 170.703L458.696 170.75C458.655 170.998 458.615 171.247 458.565 171.495C452.928 199.696 425.92 218.157 398.36 212.648C397.97 212.57 397.585 212.479 397.201 212.387L396.784 212.29L395.542 212L395.347 212.093L391.632 210.803C380.601 206.972 371.479 199.569 365.252 189.391ZM364.716 195.377C363.781 194.103 362.895 192.779 362.058 191.41C362.895 192.78 363.782 194.103 364.716 195.377ZM403.293 105.854C408.647 105.285 414.113 105.521 419.559 106.61C414.114 105.52 408.647 105.285 403.293 105.854ZM388.628 219.457L390.531 218.56L395.926 216.019L388.628 219.457ZM272.587 49.1143C275.196 51.3938 277.684 53.8255 280.036 56.3983C281.212 57.6853 282.354 59.0072 283.46 60.3639C284.144 61.2029 284.815 62.0567 285.472 62.9235C286.788 64.6571 288.049 66.4432 289.249 68.2716C288.049 66.4422 286.788 64.6553 285.473 62.9226C284.815 62.0558 284.144 61.2038 283.46 60.3639C282.354 59.0072 281.212 57.6843 280.036 56.3974C277.684 53.8255 275.196 51.3938 272.587 49.1143ZM237.226 37.6176L237.138 37.6615L246.453 33.0154L237.226 37.6176ZM147.032 113.261L146.351 113.644L136.941 118.955L147.032 113.261ZM135.543 124.096L148.238 116.932L148.488 116.791L135.543 124.096ZM239.691 212.976C240.76 212.619 241.82 212.235 242.877 211.839C241.82 212.235 240.76 212.62 239.691 212.976Z" fill="white"/>
<path d="M247.988 30.3244C260.313 36.1561 271.324 44.7213 280.072 55.453C282.791 58.7906 285.312 62.3577 287.572 66.0754L287.572 66.0763L287.694 66.279L287.694 66.278L291.346 72.4675L292.857 75.0251L293.581 76.2513L293.581 76.2523L312.256 107.887L312.54 108.367L312.987 108.033L341.451 86.71L346.608 82.8471L351.832 78.9328L351.832 78.9339L351.848 78.9221L351.861 78.9108L351.862 78.9119C361.15 72.1419 371.512 67.2247 382.356 64.2791L406.853 80.0218L394.699 101.019C387.306 102.601 380.226 105.743 373.832 110.383L373.826 110.388L369.536 113.602L364.335 117.498L332.517 141.334L332.159 141.602L332.386 141.988L353.295 177.406L355.174 180.588L355.489 181.121L355.97 181.934L356.476 182.793L358.627 186.438L358.632 186.444C365.169 197.143 374.74 205.03 386.098 209.259L365.581 218.927L365.152 219.129L365.332 219.568L376.537 247.045C356.119 240.363 338.396 226.524 326.799 207.932L326.242 207.028L326.12 206.825L323.87 203.012L323.173 201.832L321.578 199.132L304.008 169.368L301.557 165.217L301.274 164.736L300.827 165.071L265.298 191.685L262.508 193.775L262.338 193.902L262.337 193.91L262.119 194.067L262.111 194.073L260.474 195.298L260.483 195.242L259.539 195.886C241.27 208.337 219.161 213.871 197.533 211.544L221.88 192.851L222.255 192.562L221.987 192.172L209.042 173.263C220.039 173.032 230.726 169.44 239.978 162.724L239.983 162.721L240.05 162.672L240.05 162.671L243.552 160.047L281.295 131.774L281.654 131.505L281.425 131.12L278.524 126.205L260.189 95.1461L259.472 93.9301L257.943 91.3409L255.187 86.6722L255.183 86.6655L254.68 85.8567C253.489 83.9799 252.184 82.1694 250.793 80.463C246.677 75.4133 241.837 71.2378 236.434 68.0164L225.051 41.7653L247.988 30.3244Z" fill="white" stroke="#C6BEBE"/>
<path d="M406.854 80.0212L394.701 101.018C387.307 102.599 380.227 105.741 373.832 110.382L373.827 110.387L369.536 113.6L364.336 117.497L332.517 141.332L300.826 165.071L265.298 191.685L262.507 193.776L262.337 193.902L262.336 193.91L262.118 194.067L262.11 194.074L260.473 195.3L260.482 195.242L259.539 195.886C241.27 208.338 219.161 213.871 197.532 211.544L221.879 192.851L222.254 192.563L221.986 192.172L209.041 173.264C220.038 173.033 230.724 169.441 239.977 162.725L239.982 162.721L240.049 162.672L240.049 162.671L243.551 160.048L281.295 131.774L281.653 131.506L281.425 131.12L280.913 130.254C281.225 129.994 281.515 129.697 281.776 129.352L282.391 129.126L282.464 129.099L282.525 129.05L311.015 106.723C311.152 106.639 311.287 106.556 311.422 106.473L312.256 107.886L312.54 108.367L312.987 108.032L341.451 86.7104L346.608 82.8465L346.609 82.8467L351.835 78.9299L351.864 78.9108L351.863 78.9096C361.151 72.1404 371.513 67.2249 382.356 64.2795L406.854 80.0212Z" stroke="#C2BABA"/>
<path d="M132.109 119.118L132.357 119.548L132.788 119.304L153.828 107.43C148.608 137.401 167.883 166.364 197.151 172.214C199.135 172.611 201.121 172.884 203.101 173.06L215.75 191.534L190.939 210.584C190.467 210.499 190 210.415 189.534 210.321C139.17 200.254 106.557 150.13 116.863 98.5669C116.878 98.4911 116.894 98.4234 116.912 98.3377L116.938 98.2193L116.939 98.2136L117.756 94.2002L132.109 119.118Z" fill="white" stroke="#C6BEBE"/>
<path d="M226.91 23.3333C232.157 24.3822 237.282 25.8968 242.231 27.8367L219.293 39.2795L218.869 39.4904L219.058 39.9256L229.781 64.6555C226.44 63.2507 222.936 62.169 219.293 61.4409C191.259 55.8373 163.469 73.2048 155.32 101.089L134.127 113.047L119.637 87.8913C126.404 66.7283 140.135 48.6552 158.782 36.5606C179.188 23.3265 203.382 18.6304 226.91 23.3333Z" fill="white" stroke="#C6BEBE"/>
<path d="M424.275 62.7851C448.184 67.5642 468.924 81.5099 482.674 102.06C493.456 118.172 498.995 136.927 498.839 156.113L478.364 170.464L460.62 150.67C458.494 126.286 440.975 105.753 416.657 100.892C411.33 99.8277 405.982 99.5637 400.735 100.072L413.03 78.8328L413.269 78.4195L412.868 78.1619L388.894 62.7569C400.514 60.4853 412.538 60.4391 424.275 62.7851Z" fill="white" stroke="#C2BABA"/>
<path d="M498.607 162.112C498.421 164.788 498.123 167.469 497.711 170.148L497.564 171.111L497.717 171.033L496.588 176.211C491.249 200.714 476.937 221.841 456.289 235.708C435.616 249.592 410.974 254.585 386.898 249.772C385.379 249.469 383.871 249.123 382.374 248.743L371.282 221.542L392.98 211.318C393.481 211.436 393.995 211.561 394.515 211.665C424.378 217.634 453.623 197.629 459.725 167.1C459.757 166.941 459.786 166.783 459.813 166.627L459.889 166.164C459.918 165.991 459.947 165.819 459.977 165.647L460.56 162.288L460.597 162.081L460.515 161.967L460.605 160.995C460.696 160.004 460.751 159.018 460.787 158.038L477.327 176.491L477.623 176.821L477.987 176.566L498.607 162.112Z" fill="white" stroke="#C2BABA"/>
<path d="M502.741 163.675C502.807 162.884 503.059 153.765 503.059 153.765C502.77 134.399 496.971 115.724 486.186 99.6056C471.812 78.1231 450.126 63.5405 425.123 58.5428C412.502 56.0202 399.631 56.0956 386.865 58.7662L378.202 61.0162C367.855 64.1926 358.179 69.0121 349.412 75.4038L349.392 75.4183L349.356 75.4443L338.955 83.2352L313.796 102.081L294.987 70.2178L291.332 64.0263L291.2 63.8052C288.827 59.9025 286.189 56.166 283.345 52.6757C274.895 42.3089 264.201 33.6965 252.282 27.6237L244.862 24.2336C239.317 21.9817 233.562 20.252 227.758 19.0918C203.153 14.1737 177.855 19.0854 156.523 32.9205C138.055 44.8989 123.981 62.8174 116.605 83.6299L112.791 97.3453L112.769 97.4452C112.75 97.531 112.728 97.6329 112.708 97.7349C102.049 151.06 135.312 202.928 187.038 214.211L195.772 215.698C216.228 218.182 236.938 213.974 254.918 203.804L266.259 196.362L266.268 196.305L300.016 171.025L317.938 201.384L319.532 204.084L320.229 205.265L322.482 209.081L322.618 209.308C334.905 229.514 353.957 244.494 376.276 251.507C376.276 251.507 385.302 253.864 386.052 254.014C411.229 259.046 436.995 253.825 458.606 239.311C480.19 224.817 495.15 202.728 500.731 177.116L502.741 163.675ZM483.089 101.782C493.975 118.05 499.546 136.999 499.337 156.374L497.074 157.961L478.288 171.128L460.138 150.882C458.096 126.635 440.707 106.209 416.559 101.383C410.95 100.261 405.318 100.037 399.81 100.673L410.745 81.7826L412.597 78.5814L409.54 76.6173L387.584 62.5107C399.642 59.9887 412.16 59.8545 424.372 62.2953C448.414 67.1 469.266 81.1235 483.089 101.782ZM395.364 207.423C394.974 207.345 394.589 207.253 394.204 207.162L393.788 207.064L392.547 206.775L392.351 206.866L388.637 205.577C377.603 201.746 368.481 194.341 362.254 184.163L360.118 180.543L359.611 179.684L359.13 178.87L358.816 178.338L356.936 175.154L337.792 142.726L366.832 120.971L372.033 117.075L376.299 113.879C382.221 109.586 388.763 106.667 395.746 105.204L397.387 104.86L397.427 104.791L400.199 104.471C405.37 103.874 410.622 104.097 415.81 105.134C438.148 109.599 454.464 128.128 456.41 151.241L456.519 152.527L456.659 152.683L456.582 156.731C456.554 158.179 456.489 159.452 456.381 160.627L456.275 161.786L456.195 162.655L455.8 164.927C455.768 165.11 455.737 165.293 455.707 165.477L455.7 165.525C455.659 165.773 455.619 166.021 455.569 166.269C449.931 194.47 422.924 212.932 395.364 207.423ZM288.001 65.8197L288.122 66.0222L291.777 72.2137L293.287 74.7713L294.011 75.998L310.765 104.377L279.065 128.108L278.093 126.461L259.758 95.4023L259.041 94.1866L257.512 91.5971L254.756 86.9283C253.445 84.7827 251.981 82.7146 250.405 80.7808C246.29 75.7324 241.446 71.5667 236.039 68.3647L234.167 64.0468L224.404 41.5323L235.846 35.8251L247.985 29.7703C260.465 35.6358 271.614 44.2856 280.46 55.1389C283.194 58.4942 285.729 62.0814 288.001 65.8197ZM205.49 168.966L205.459 168.921L203.722 168.774C201.753 168.607 199.827 168.338 197.999 167.973C170.748 162.526 152.868 135.359 158.141 107.413L158.188 107.163L158.773 104.067L158.894 103.999L159.333 102.476C166.766 76.7047 192.732 60.5438 218.446 65.6837C222.159 66.4259 225.782 67.5824 229.213 69.1205L232.997 70.8166L233.101 71.0566L234.14 71.6724C239.209 74.6744 243.711 78.5653 247.52 83.238C248.983 85.0323 250.342 86.9529 251.561 88.9448L254.302 93.5881L255.831 96.1777L256.549 97.3936L274.884 128.452L276.021 130.378L241.056 156.57L237.555 159.194L237.512 159.226C228.787 165.551 218.625 168.915 208.122 168.954L205.49 168.966ZM158.509 36.1438C179.023 22.8387 203.349 18.1165 227.008 22.8454C232.653 23.9738 238.157 25.6388 243.453 27.7893L234.226 32.3915L222.784 38.0978L219.514 39.729L220.978 43.1042L230.741 65.6187C227.086 63.9805 223.227 62.7387 219.195 61.9327C191.359 56.3687 163.75 73.6669 155.743 101.426L152.726 103.129L143.352 108.418L133.942 113.729L119.093 87.9509C125.872 66.5885 139.702 48.3419 158.509 36.1438ZM189.436 210.813C138.79 200.689 106.015 150.293 116.373 98.4695C116.389 98.3899 116.406 98.3114 116.423 98.2331L116.449 98.1145L117.53 92.8064L132.543 118.869L145.238 111.705L154.513 106.471L154.466 106.722C148.806 136.718 167.999 165.878 197.249 171.725C199.293 172.133 201.339 172.412 203.381 172.584L216.429 191.643L194.012 208.855L191.068 211.116C190.524 211.018 189.98 210.921 189.436 210.813ZM265.596 192.089L262.805 194.179L262.804 194.192L262.409 194.477L259.8 196.432L259.819 196.302C241.105 209.057 218.385 214.593 196.247 211.905L218.663 194.693L221.574 192.458L220.756 191.264L208.102 172.781C219.323 172.74 230.251 169.169 239.683 162.324L239.749 162.275L243.251 159.651L279.851 132.233L279.855 132.239L315.789 105.338L315.777 105.321L341.151 86.3136L346.308 82.4504L351.536 78.5349L351.551 78.5235L351.567 78.512C360.966 71.6611 371.459 66.6974 382.439 63.7428L385.572 65.7559L407.527 79.8625L396.593 98.7534L395.023 101.465C387.621 103.017 380.529 106.145 374.128 110.791L369.838 114.004L364.637 117.901L335.279 139.893L335.252 139.854L299.319 166.754L299.354 166.804L265.596 192.089ZM325.813 207.291L325.69 207.087L323.437 203.271L322.741 202.09L321.146 199.39L303.575 169.626L303.025 168.695L334.724 144.964L353.726 177.151L355.605 180.334L355.919 180.866L356.4 181.68L356.907 182.539L359.058 186.183C365.754 197.141 375.656 205.119 387.403 209.198L369.098 217.822L365.795 219.379L367.185 222.787L377.404 247.851C356.11 241.161 337.647 226.753 325.813 207.291ZM497.077 176.317C491.711 200.944 477.324 222.184 456.568 236.123C435.786 250.08 411.008 255.102 386.8 250.263C385.189 249.941 383.591 249.574 382.007 249.166L380.861 246.356L370.642 221.292L387.531 213.333L392.926 210.791C393.487 210.922 394.046 211.06 394.614 211.174C424.196 217.087 453.185 197.271 459.236 167.001C459.297 166.695 459.347 166.388 459.397 166.082C459.426 165.909 459.455 165.735 459.485 165.562L460.069 162.202L460.002 162.107L460.108 160.948C460.235 159.547 460.297 158.156 460.324 156.771L477.701 176.156L480.388 174.273L499.174 161.106C498.993 164.143 497.077 176.317 497.077 176.317Z" fill="white"/>
<path opacity="0.3" d="M300.015 171.026L302.675 175.526L340.644 147.225L337.863 142.753L300.015 171.026Z" fill="white"/>
<path opacity="0.3" d="M273.274 125.599L276.02 130.381L313.797 102.082L311.122 97.326L273.274 125.599Z" fill="white"/>
<path d="M182.446 119.215L175.196 117.766L179.473 96.3706L186.869 97.849C188.993 98.2736 190.732 99.0666 192.086 100.228C193.449 101.384 194.381 102.842 194.884 104.601C195.387 106.36 195.417 108.35 194.973 110.572C194.527 112.801 193.73 114.633 192.581 116.069C191.439 117.507 190.006 118.499 188.282 119.045C186.564 119.592 184.619 119.649 182.446 119.215ZM179.742 115.187L182.928 115.824C184.419 116.122 185.716 116.098 186.821 115.754C187.927 115.403 188.839 114.735 189.558 113.748C190.278 112.755 190.801 111.44 191.128 109.803C191.455 108.167 191.476 106.759 191.19 105.579C190.906 104.392 190.327 103.433 189.452 102.7C188.585 101.962 187.428 101.448 185.979 101.159L182.678 100.499L179.742 115.187ZM196.513 122.026L200.789 100.631L214.704 103.413L214.055 106.662L204.016 104.655L202.855 110.463L212.173 112.326L211.524 115.575L202.205 113.712L201.038 119.552L211.161 121.576L210.511 124.824L196.513 122.026ZM221.521 104.775L223.723 122.728L223.942 122.772L232.866 107.043L237.128 107.895L225.309 127.782L220.525 126.826L217.269 103.925L221.521 104.775Z" fill="white"/>
<path d="M390.386 149.482C389.926 151.787 389.099 153.675 387.907 155.146C386.723 156.612 385.303 157.632 383.645 158.206C381.995 158.781 380.233 158.882 378.359 158.507C376.486 158.133 374.894 157.362 373.585 156.195C372.284 155.022 371.365 153.531 370.829 151.722C370.301 149.907 370.266 147.851 370.726 145.552C371.186 143.247 372.009 141.362 373.193 139.896C374.385 138.425 375.806 137.402 377.456 136.827C379.114 136.252 380.879 136.153 382.753 136.527C384.626 136.902 386.214 137.672 387.517 138.837C388.826 140.005 389.745 141.495 390.273 143.31C390.809 145.12 390.847 147.177 390.386 149.482ZM386.49 148.703C386.814 147.081 386.834 145.661 386.548 144.445C386.271 143.224 385.743 142.238 384.966 141.489C384.19 140.733 383.221 140.238 382.057 140.006C380.894 139.773 379.809 139.857 378.802 140.257C377.797 140.65 376.928 141.356 376.195 142.376C375.471 143.39 374.947 144.708 374.622 146.331C374.298 147.954 374.274 149.376 374.552 150.597C374.837 151.813 375.368 152.8 376.144 153.556C376.921 154.305 377.892 154.796 379.055 155.028C380.218 155.261 381.302 155.181 382.308 154.788C383.315 154.388 384.18 153.681 384.904 152.667C385.637 151.647 386.165 150.326 386.49 148.703ZM391.912 160.912L396.189 139.517L404.212 141.121C405.856 141.449 407.173 142.031 408.165 142.867C409.164 143.704 409.842 144.716 410.198 145.902C410.563 147.084 410.61 148.353 410.339 149.711C410.065 151.083 409.532 152.244 408.741 153.194C407.95 154.144 406.929 154.813 405.678 155.2C404.429 155.581 402.979 155.606 401.328 155.276L396.011 154.213L396.648 151.027L401.443 151.985C402.404 152.178 403.224 152.168 403.904 151.956C404.584 151.744 405.128 151.375 405.538 150.848C405.954 150.323 406.238 149.681 406.39 148.922C406.542 148.163 406.526 147.464 406.342 146.826C406.165 146.19 405.798 145.649 405.243 145.205C404.695 144.755 403.937 144.434 402.969 144.24L399.417 143.53L395.788 161.687L391.912 160.912ZM425.573 151.507C425.658 150.575 425.389 149.783 424.766 149.129C424.15 148.478 423.268 148.037 422.119 147.807C421.311 147.646 420.593 147.629 419.967 147.757C419.34 147.885 418.832 148.128 418.442 148.484C418.052 148.841 417.8 149.287 417.685 149.822C417.596 150.267 417.62 150.674 417.757 151.042C417.9 151.411 418.126 151.746 418.436 152.047C418.746 152.341 419.102 152.607 419.503 152.847C419.905 153.086 420.314 153.302 420.732 153.494L422.638 154.397C423.408 154.746 424.134 155.156 424.815 155.625C425.503 156.096 426.094 156.634 426.589 157.24C427.09 157.847 427.446 158.53 427.657 159.289C427.867 160.048 427.88 160.891 427.694 161.817C427.444 163.071 426.903 164.111 426.071 164.937C425.241 165.756 424.167 166.313 422.848 166.607C421.537 166.895 420.025 166.868 418.312 166.526C416.647 166.193 415.254 165.646 414.131 164.886C413.015 164.127 412.211 163.184 411.72 162.057C411.235 160.932 411.107 159.653 411.335 158.221L415.148 158.984C415.055 159.74 415.161 160.406 415.466 160.981C415.771 161.556 416.223 162.03 416.822 162.404C417.428 162.778 418.135 163.046 418.943 163.208C419.785 163.376 420.549 163.398 421.232 163.274C421.925 163.145 422.497 162.89 422.95 162.509C423.404 162.122 423.696 161.623 423.825 161.011C423.929 160.453 423.858 159.96 423.61 159.534C423.363 159.101 422.975 158.705 422.446 158.346C421.925 157.981 421.301 157.624 420.574 157.276L418.265 156.163C416.593 155.358 415.338 154.393 414.497 153.269C413.666 152.14 413.403 150.809 413.709 149.277C413.961 148.016 414.523 146.981 415.395 146.17C416.274 145.361 417.357 144.813 418.646 144.527C419.936 144.235 421.329 144.238 422.827 144.537C424.345 144.841 425.622 145.371 426.659 146.129C427.703 146.881 428.46 147.789 428.928 148.853C429.397 149.91 429.522 151.043 429.302 152.252L425.573 151.507Z" fill="white"/>
<g filter="url(#filter0_f_6351_486)">
<path opacity="0.3" d="M451.283 319.306L450.964 314.945C449.487 303.661 442.685 292.121 431.181 281.469C415.849 267.272 393.82 256.209 369.151 250.317C356.699 247.343 344.163 245.848 331.89 245.873L323.067 245.891L323.587 246.144C313.702 246.752 304.572 248.395 296.425 251.059L296.406 251.065L296.373 251.076L291.506 252.731L286.719 254.358L263.37 262.297L260.471 259.215L260.385 259.244L245.487 244.006L244.706 243.207L243.077 241.541L239.134 237.507L238.992 237.363C236.438 234.813 233.638 232.327 230.651 229.959C221.779 222.928 210.828 216.647 198.84 211.694L199.233 211.623L191.401 208.838C185.86 206.867 180.145 205.174 174.418 203.806C150.142 198.008 125.796 197.836 105.866 203.322C88.6115 208.072 76.0054 216.797 70.1032 228.005L69.287 227.154L67.9554 232.573L67.2326 235.515L67.2184 235.571C67.2051 235.618 67.1906 235.675 67.1771 235.732C60.0835 265.431 95.694 299.535 146.788 312.273L146.343 312.43L155.39 314.181C175.474 318.07 195.391 318.101 212.282 314.343L218.913 312.693L222.873 311.377L222.877 311.345L254.199 300.696L275.254 322.232L276.006 323.001L278.436 325.487L278.582 325.635C291.801 338.841 311.288 349.819 333.467 356.561C333.467 356.561 342.407 359.009 343.147 359.186C367.988 365.119 392.77 365.167 412.93 359.32C433.065 353.481 446.277 342.44 450.134 328.23C450.136 328.23 451.286 319.758 451.283 319.306ZM192.612 286.357L192.572 286.371C184.462 289.002 174.768 289.74 164.537 288.507L161.974 288.198L161.941 288.168L160.241 287.876C158.312 287.543 156.418 287.157 154.615 286.726C127.728 280.304 108.63 262.387 112.043 246.785L112.073 246.645L112.451 244.917L112.565 244.892L112.9 244.06C118.551 229.98 142.852 223.697 168.223 229.756C171.887 230.631 175.488 231.736 178.926 233.04L182.717 234.478L182.833 234.629L183.884 235.111C189.008 237.461 193.634 240.259 197.634 243.429C199.17 244.646 200.613 245.924 201.923 247.227L204.881 250.252L206.53 251.938L207.305 252.731L227.086 272.963L228.313 274.217L195.863 285.251L192.612 286.357ZM168.722 227.667C172.426 228.552 176 229.646 179.432 230.911C176 229.646 172.425 228.551 168.722 227.667ZM108.148 252.312C107.949 250.705 107.943 249.104 108.147 247.521C107.943 249.104 107.949 250.705 108.148 252.312ZM186.374 233.817C191.506 236.24 196.197 239.099 200.292 242.345C196.197 239.099 191.507 236.241 186.374 233.817ZM178.225 302.975L164.755 290.726L179.095 303.766L178.225 302.975ZM315.65 315.768L313.345 313.41L312.798 312.851L312.279 312.32L311.94 311.974L309.913 309.9L292.38 291.967L292.417 291.956L289.33 288.798L289.293 288.811L289.258 288.775L316.209 279.611L321.036 277.969L324.995 276.623C330.5 274.837 336.694 273.924 343.407 273.908L344.985 273.905L345.019 273.869L347.7 274.014C352.701 274.286 357.832 275.043 362.951 276.266C384.99 281.53 402.032 294.243 405.354 307.901L405.54 308.661L405.686 308.769L405.86 311.111C405.923 311.948 405.938 312.681 405.905 313.35L405.873 314.01L405.849 314.506L405.605 315.778C405.585 315.881 405.566 315.983 405.548 316.086L405.544 316.113C405.519 316.252 405.495 316.391 405.462 316.529C401.711 332.236 376.536 339.73 349.344 333.236C348.959 333.144 348.578 333.045 348.198 332.946L347.786 332.839L346.558 332.522L346.373 332.553L342.675 331.359C331.69 327.816 322.346 322.425 315.65 315.768ZM315.498 319.182C314.508 318.329 313.563 317.455 312.663 316.559C313.563 317.455 314.509 318.33 315.498 319.182ZM347.557 271.794C352.739 272.103 358.079 272.894 363.452 274.178C358.08 272.894 352.739 272.103 347.557 271.794ZM340.282 336.027L342.081 335.734L347.18 334.902L340.282 336.027ZM216.706 223.21C219.389 224.846 221.963 226.556 224.413 228.332C225.639 229.22 226.833 230.124 227.994 231.045C228.713 231.614 229.419 232.19 230.113 232.772C231.502 233.936 232.841 235.124 234.123 236.33C232.841 235.124 231.502 233.935 230.113 232.771C229.419 232.189 228.712 231.614 227.994 231.045C226.833 230.124 225.639 229.219 224.414 228.331C221.963 226.556 219.389 224.846 216.706 223.21ZM181.543 212.305L181.461 212.32L190.25 210.735L181.543 212.305ZM98.3348 245.459L97.6959 245.601L88.8544 247.56L98.3348 245.459ZM87.8099 250.379L99.7365 247.736L99.9714 247.684L87.8099 250.379ZM194.77 314.457C195.789 314.377 196.798 314.281 197.804 314.177C196.798 314.281 195.789 314.377 194.77 314.457Z" fill="black" fill-opacity="0.21"/>
<path d="M291.996 331.206L312.421 327.876C300.724 324.103 290.584 318.285 283.383 311.119L281.063 308.745L280.516 308.186L279.997 307.656L279.658 307.309L277.63 305.236L255.072 282.163L284.602 272.122L289.429 270.481L293.41 269.127C299.36 267.194 306.077 266.224 313.194 266.208L324.044 255.156L298.606 242.792C288.091 243.196 278.173 244.825 269.439 247.68L269.424 247.685L269.409 247.69L264.558 249.34L259.771 250.967L233.354 259.949L213.206 239.341L212.425 238.542L210.796 236.876L206.852 232.843L206.722 232.711C204.276 230.267 201.587 227.881 198.715 225.604C189.425 218.242 178.028 211.885 165.507 206.986L143.258 210.999L156.251 227.975C161.718 230.482 166.694 233.48 171.015 236.905C172.669 238.216 174.223 239.592 175.634 240.996L178.607 244.037L180.256 245.724L181.03 246.516L200.811 266.748L203.942 269.95L168.914 281.861L165.664 282.966L165.602 282.986C156.835 285.835 146.407 286.602 135.478 285.284L149.818 298.325L126.342 306.593C148.077 310.801 169.874 310.301 187.319 305.13L187.308 305.203L189.73 304.38L190.097 304.262L190.098 304.254L192.688 303.374L225.661 292.163L228.305 294.866L247.262 314.256L248.982 316.015L249.734 316.784L252.164 319.27L252.296 319.403C265.028 332.122 283.906 342.699 305.066 349.131L291.996 331.206Z" fill="black" fill-opacity="0.21"/>
<path d="M255.073 282.165L284.602 272.124L289.429 270.482L293.41 269.129C299.361 267.195 306.078 266.226 313.195 266.21L324.044 255.157L298.606 242.794C288.091 243.198 278.173 244.826 269.439 247.682L269.424 247.687L269.41 247.692L264.558 249.342L259.771 250.969L233.355 259.951L232.176 258.745C231.904 258.813 231.634 258.882 231.363 258.951L204.965 268.52L204.248 268.592C203.943 268.832 203.568 269.007 203.148 269.141L203.941 269.952L168.913 281.863L165.663 282.968L165.602 282.989C156.834 285.837 146.406 286.604 135.477 285.287L149.817 298.327L126.341 306.595C148.076 310.803 169.873 310.304 187.318 305.133L187.307 305.205L189.729 304.382L190.096 304.264L190.097 304.256L192.687 303.376L225.661 292.165L255.073 282.165Z" fill="black" fill-opacity="0.21"/>
<path d="M121.247 305.52L144.756 297.241L130.865 284.61C128.865 284.266 126.854 283.86 124.838 283.378C95.9782 276.485 75.4782 257.253 79.1411 240.506L79.1717 240.366L58.5306 244.941L42.2945 228.008L41.5689 230.962L41.5513 231.027C41.5399 231.071 41.5276 231.114 41.517 231.159C34.6233 260.022 69.668 293.213 119.638 305.148C120.174 305.276 120.711 305.398 121.247 305.52Z" fill="black" fill-opacity="0.21"/>
<path d="M59.5757 242.121L80.0585 237.581C86.1457 222.414 111.979 215.668 139.443 222.227C143.422 223.178 147.259 224.361 150.922 225.749L138.385 209.368L160.971 205.295C155.678 203.413 150.213 201.787 144.643 200.457C121.3 194.882 97.8899 194.717 78.7243 199.992C61.1535 204.829 48.8032 213.774 43.5178 225.372L59.5757 242.121Z" fill="black" fill-opacity="0.21"/>
<path d="M328.906 255.021L317.811 266.324C323.138 266.612 328.639 267.416 334.173 268.738C357.998 274.428 376.203 288.372 379.689 302.7L398.622 316.63L418.22 310.576C417.228 299.348 410.63 287.675 399.02 276.924C384.277 263.272 363.094 252.633 339.374 246.968C327.325 244.09 315.137 242.672 303.544 242.696L328.906 255.021Z" fill="black" fill-opacity="0.21"/>
<path d="M418.352 313.306L398.359 319.481L380.232 306.144C380.291 306.945 380.318 307.747 380.279 308.545L380.247 309.205L380.319 309.268L379.957 311.15C379.939 311.247 379.921 311.344 379.904 311.442C379.873 311.614 379.844 311.785 379.803 311.956C375.776 328.815 348.755 336.859 319.567 329.888C319.007 329.754 318.455 329.607 317.899 329.464L296.835 332.899L309.629 350.448C311.199 350.874 312.778 351.279 314.368 351.658C338.253 357.363 362.084 357.409 381.471 351.787C400.834 346.171 413.54 335.555 417.248 321.891L418.183 318.448L417.972 318.487C418.239 316.777 418.364 315.048 418.352 313.306Z" fill="black" fill-opacity="0.21"/>
<path d="M421.987 315.221C422.002 314.77 421.685 309.503 421.685 309.503C420.208 298.22 413.405 286.679 401.902 276.028C386.571 261.831 364.542 250.768 339.872 244.876C327.42 241.902 314.884 240.407 302.611 240.432L294.31 240.703C284.424 241.311 275.295 242.954 267.147 245.618L267.128 245.624L267.095 245.635L257.441 248.917L234.093 256.856L213.799 236.099L209.856 232.066L209.714 231.922C207.161 229.371 204.36 226.885 201.373 224.518C192.501 217.486 181.55 211.205 169.562 206.253L162.124 203.397C156.582 201.426 150.868 199.733 145.141 198.365C120.865 192.567 96.5195 192.395 76.5896 197.881C59.3346 202.631 46.7285 211.356 40.8263 222.563L37.9567 230.074L37.9415 230.129C37.9283 230.177 37.9138 230.233 37.9002 230.29C30.8066 259.99 66.4171 294.094 117.511 306.832L126.113 308.74C146.197 312.628 166.115 312.66 183.005 308.902L193.596 305.935L193.601 305.903L224.922 295.254L244.257 315.031L245.977 316.79L246.729 317.559L249.16 320.045L249.306 320.193C262.525 333.399 282.012 344.377 304.192 351.119C304.192 351.119 313.131 353.568 313.871 353.744C338.712 359.677 363.494 359.725 383.654 353.878C403.789 348.039 417.001 336.998 420.858 322.788L421.987 315.221ZM399.02 276.922C410.63 287.672 417.227 299.345 418.219 310.574L416.113 311.225L398.622 316.627L379.688 302.697C376.202 288.369 357.999 274.426 334.173 268.736C328.639 267.414 323.138 266.61 317.811 266.321L327.299 256.656L328.906 255.018L325.805 253.511L303.543 242.693C315.135 242.669 327.324 244.088 339.372 246.966C363.094 252.631 384.276 263.269 399.02 276.922ZM320.068 327.795C319.683 327.703 319.302 327.604 318.922 327.505L318.51 327.398L317.283 327.082L317.098 327.112L313.4 325.919C302.413 322.374 293.067 316.983 286.373 310.326L284.067 307.968L283.521 307.409L283.002 306.878L282.663 306.532L280.635 304.458L259.981 283.333L286.932 274.169L291.759 272.527L295.719 271.181C301.223 269.395 307.417 268.482 314.13 268.467L315.708 268.463L315.743 268.428L318.424 268.573C323.425 268.845 328.556 269.602 333.675 270.825C355.714 276.089 372.755 288.802 376.079 302.46L376.264 303.22L376.41 303.328L376.584 305.67C376.647 306.507 376.662 307.239 376.629 307.908L376.597 308.569L376.573 309.065L376.329 310.337C376.309 310.439 376.29 310.542 376.272 310.645L376.268 310.672C376.243 310.811 376.219 310.951 376.186 311.089C372.434 326.795 347.26 334.29 320.068 327.795ZM206.721 232.709L206.852 232.841L210.795 236.875L212.425 238.541L213.206 239.34L231.28 257.827L201.86 267.821L200.811 266.748L181.03 246.516L180.256 245.724L178.606 244.037L175.633 240.996C174.223 239.593 172.669 238.216 171.014 236.905C166.694 233.48 161.717 230.482 156.251 227.975L154.16 225.243L143.259 210.999L154.054 209.051L165.508 206.986C178.03 211.885 189.426 218.242 198.715 225.604C201.586 227.88 204.277 230.266 206.721 232.709ZM132.697 282.757L132.664 282.727L130.962 282.434C129.033 282.102 127.14 281.715 125.336 281.285C98.4491 274.863 79.3515 256.945 82.7638 241.344L82.7944 241.204L83.1727 239.476L83.2866 239.45L83.6209 238.618C89.272 224.538 113.573 218.255 138.944 224.315C142.608 225.19 146.209 226.295 149.647 227.598L153.438 229.036L153.554 229.188L154.605 229.669C159.729 232.019 164.356 234.817 168.355 237.987C169.891 239.204 171.334 240.482 172.645 241.785L175.602 244.81L177.251 246.497L178.026 247.289L197.807 267.521L199.034 268.775L166.584 279.809L163.334 280.914L163.295 280.928C155.184 283.559 145.491 284.298 135.26 283.065L132.697 282.757ZM78.7232 199.991C97.8889 194.715 121.299 194.88 144.642 200.456C150.212 201.786 155.677 203.411 160.97 205.293L152.264 206.863L141.469 208.81L138.383 209.367L140.018 211.502L150.92 225.747C147.258 224.358 143.421 223.176 139.442 222.225C111.978 215.666 86.1456 222.413 80.0575 237.579L77.2233 238.207L68.4171 240.159L59.5757 242.119L43.5168 225.37C48.8031 213.773 61.1524 204.828 78.7232 199.991ZM119.638 305.145C69.6677 293.21 34.6229 260.018 41.5167 231.155C41.5272 231.111 41.5386 231.067 41.5509 231.024L41.5685 230.958L42.2941 228.004L58.5302 244.937L70.4569 242.294L79.1713 240.363L79.1407 240.502C75.4779 257.249 95.9778 276.481 124.837 283.374C126.854 283.856 128.864 284.262 130.865 284.607L144.754 297.237L123.976 304.555L121.246 305.516C120.71 305.394 120.174 305.273 119.638 305.145ZM192.686 303.374L190.096 304.255L190.095 304.262L189.728 304.38L187.306 305.204L187.317 305.131C169.872 310.302 148.076 310.801 126.341 306.593L147.119 299.276L149.817 298.326L148.947 297.534L135.477 285.285C146.407 286.603 156.834 285.835 165.602 282.987L165.663 282.966L168.913 281.861L202.881 270.311L202.885 270.315L236.235 258.985L236.222 258.974L259.771 250.967L264.558 249.34L269.409 247.691L269.424 247.686L269.439 247.681C278.173 244.825 288.091 243.197 298.606 242.793L301.783 244.337L324.045 255.156L314.558 264.821L313.196 266.209C306.079 266.225 299.363 267.194 293.412 269.127L289.431 270.481L284.604 272.123L257.358 281.387L257.329 281.361L223.979 292.69L224.017 292.723L192.686 303.374ZM252.295 319.404L252.162 319.27L249.732 316.784L248.98 316.015L247.26 314.256L228.303 294.867L227.71 294.261L257.13 284.266L277.63 305.234L279.658 307.307L279.997 307.654L280.516 308.184L281.063 308.744L283.383 311.117C290.583 318.283 300.724 324.101 312.421 327.874L295.119 330.695L291.996 331.205L293.561 333.35L305.065 349.13C283.904 342.699 265.026 332.123 252.295 319.404ZM417.249 321.888C413.54 335.551 400.834 346.168 381.472 351.783C362.085 357.405 338.254 357.36 314.368 351.655C312.779 351.275 311.199 350.871 309.63 350.445L308.34 348.676L296.836 332.895L312.801 330.292L317.9 329.46C318.455 329.603 319.008 329.75 319.569 329.884C348.756 336.855 375.777 328.811 379.804 311.952C379.845 311.782 379.874 311.61 379.905 311.438C379.923 311.34 379.94 311.243 379.958 311.146L380.32 309.264L380.248 309.201L380.28 308.541C380.318 307.742 380.293 306.941 380.233 306.14L398.36 319.477L400.862 318.705L418.353 313.303C418.365 315.045 417.249 321.888 417.249 321.888Z" fill="black" fill-opacity="0.21"/>
<path opacity="0.3" d="M224.921 295.256L227.791 298.188L263.037 286.288L260.052 283.358L224.921 295.256Z" fill="#0F0B38" fill-opacity="0.29"/>
<path opacity="0.3" d="M196.063 265.673L199.034 268.779L234.094 256.857L231.194 253.775L196.063 265.673Z" fill="#0F0B38" fill-opacity="0.29"/>
</g>
<defs>
<filter id="filter0_f_6351_486" x="0" y="156.888" width="488.284" height="243.783" filterUnits="userSpaceOnUse" color-interpolation-filters="sRGB">
<feFlood flood-opacity="0" result="BackgroundImageFix"/>
<feBlend mode="normal" in="SourceGraphic" in2="BackgroundImageFix" result="shape"/>
<feGaussianBlur stdDeviation="18.5" result="effect1_foregroundBlur_6351_486"/>
</filter>
</defs>
</svg>
