<svg width="631" height="386" viewBox="0 0 631 386" fill="none" xmlns="http://www.w3.org/2000/svg">
<path d="M313.648 169.978V66.6621" stroke="#0426B2" stroke-width="7.2424" stroke-miterlimit="10"/>
<path d="M317.1 70.725L313.644 67.2666L310.188 70.725V67.7902L313.644 64.334L317.1 67.7902V70.725Z" fill="#0426B2"/>
<path d="M224.608 306.511L207.903 290.817L194.14 277.887C192.002 275.877 188.495 277.354 188.436 280.287L188.264 288.953C148.382 280.633 118.312 245.571 117.663 203.373L101.965 220.078C100.579 221.555 98.2134 221.491 96.9084 219.941L79.2771 198.998C79.2537 199.988 79.2422 200.979 79.2422 201.975C79.2422 265.796 126.221 318.646 187.487 327.825L187.333 335.489C187.274 338.399 190.674 340.021 192.899 338.148L203.525 329.203L224.469 311.571C226.018 310.266 226.085 307.901 224.608 306.511Z" fill="#8095FF"/>
<path d="M188.542 92.3772L209.485 74.7458C208.494 74.7225 207.504 74.7109 206.508 74.7109C142.684 74.7109 89.8364 121.692 80.6578 182.958L72.9913 182.804C70.0815 182.746 68.459 186.142 70.3348 188.371L79.2801 198.997L96.9115 219.94C98.2165 221.49 100.582 221.554 101.968 220.077L117.666 203.372L130.593 189.611C132.603 187.474 131.126 183.966 128.193 183.908L119.53 183.736C127.846 143.851 162.908 113.781 205.11 113.132L188.404 97.4342C186.928 96.0473 186.992 93.6822 188.542 92.3772Z" fill="#6868FC"/>
<path d="M225.522 76.1247L225.676 68.4611C225.735 65.551 222.335 63.9287 220.11 65.8018L209.484 74.7471L188.541 92.3784C186.991 93.6834 186.927 96.0486 188.404 97.4352L205.109 113.133L218.87 126.063C221.007 128.07 224.515 126.596 224.573 123.663L224.745 114.997C264.627 123.316 294.697 158.378 295.346 200.576L311.044 183.871C312.43 182.394 314.795 182.458 316.1 184.008L333.732 204.951C333.755 203.961 333.767 202.971 333.767 201.974C333.766 138.154 286.788 85.3031 225.522 76.1247Z" fill="#3849E5"/>
<path d="M335.599 220.213C343.915 260.099 378.977 290.168 421.175 290.818L404.47 306.512C402.993 307.901 403.06 310.267 404.61 311.572L425.553 329.203C424.563 329.226 423.57 329.238 422.574 329.238C358.753 329.238 305.905 282.257 296.727 220.991" fill="#1330D8"/>
<path d="M404.465 306.511L421.17 290.817L434.933 277.887C437.071 275.877 440.578 277.354 440.637 280.287L440.809 288.953C480.691 280.633 510.761 245.571 511.41 203.373L527.108 220.078C528.494 221.555 530.859 221.491 532.164 219.941L549.796 198.998C549.819 199.988 549.831 200.979 549.831 201.975C549.831 265.796 502.853 318.646 441.586 327.825L441.741 335.489C441.799 338.399 438.4 340.021 436.174 338.148L425.548 329.203L404.605 311.571C403.055 310.266 402.988 307.901 404.465 306.511Z" fill="#3849E5"/>
<path d="M440.537 92.3791L419.594 74.7478C420.584 74.7244 421.575 74.7129 422.571 74.7129C486.394 74.7129 539.242 121.694 548.421 182.96L556.087 182.806C558.997 182.748 560.62 186.144 558.744 188.373L549.799 198.999L532.167 219.942C530.862 221.492 528.497 221.556 527.11 220.079L511.413 203.374L498.486 189.613C496.476 187.476 497.953 183.968 500.886 183.91L509.549 183.738C501.232 143.853 466.17 113.783 423.969 113.134L440.674 97.4362C442.151 96.0493 442.087 93.6841 440.537 92.3791Z" fill="#6868FC"/>
<path d="M440.668 97.4355L423.963 113.133L423.628 113.448L410.203 126.063C408.065 128.07 404.557 126.597 404.499 123.663L404.333 115.318L404.327 114.997C364.445 123.317 334.375 158.379 333.725 200.577L333.699 200.58H333.725L333.743 200.6C333.731 201.162 333.725 201.727 333.725 202.295C333.725 205.738 333.921 209.132 334.302 212.473L305.844 213.335L298.631 204.576L295.34 204.952C295.316 203.961 295.305 202.971 295.305 201.975C295.305 138.154 342.283 85.3031 403.549 76.1247L403.395 68.4611C403.337 65.551 406.736 63.9287 408.962 65.8018L419.588 74.7471L440.531 92.3784C442.081 93.6837 442.145 96.0488 440.668 97.4355Z" fill="#8095FF"/>
<path opacity="0.15" d="M206.445 281.389C248.82 281.389 283.172 247.037 283.172 204.662C283.172 162.287 248.82 127.936 206.445 127.936C164.07 127.936 129.719 162.287 129.719 204.662C129.719 247.037 164.07 281.389 206.445 281.389Z" fill="#83B6FF"/>
<path opacity="0.15" d="M253.864 252.081C280.054 225.891 280.054 183.429 253.864 157.239C227.674 131.05 185.212 131.05 159.022 157.239C132.833 183.429 132.833 225.891 159.022 252.081C185.212 278.271 227.674 278.271 253.864 252.081Z" fill="#83B6FF"/>
<path opacity="0.15" d="M206.439 262.187C238.21 262.187 263.964 236.432 263.964 204.662C263.964 172.892 238.21 147.137 206.439 147.137C174.669 147.137 148.914 172.892 148.914 204.662C148.914 236.432 174.669 262.187 206.439 262.187Z" fill="#83B6FF"/>
<path d="M168.445 190.479H179.535C183.893 190.479 186.579 191.452 188.524 193.748C190.742 196.432 191.948 200.246 191.948 204.643C191.948 209.079 190.742 212.892 188.524 215.538C186.579 217.834 183.855 218.845 179.535 218.845H168.445V190.479ZM179.535 213.982C183.932 213.982 186.112 210.908 186.112 204.682C186.112 198.417 183.933 195.342 179.535 195.342H174.282V213.981L179.535 213.982Z" fill="white"/>
<path d="M202.454 213.982H217.824V218.846H196.617V190.479H217.124V195.343H202.454V201.763H216.035V206.628H202.454V213.982H202.454Z" fill="white"/>
<path d="M229.768 218.846L220.195 190.479H226.071L232.375 211.842L238.562 190.479H244.437L234.709 218.846H229.768Z" fill="white"/>
<path opacity="0.15" d="M422.453 277.309C464.828 277.309 499.18 242.957 499.18 200.582C499.18 158.207 464.828 123.855 422.453 123.855C380.078 123.855 345.727 158.207 345.727 200.582C345.727 242.957 380.078 277.309 422.453 277.309Z" fill="#83B6FF"/>
<path opacity="0.15" d="M469.872 248.003C496.062 221.813 496.062 179.351 469.872 153.161C443.682 126.971 401.22 126.971 375.03 153.161C348.84 179.351 348.84 221.813 375.03 248.003C401.22 274.193 443.682 274.193 469.872 248.003Z" fill="#83B6FF"/>
<path opacity="0.15" d="M422.455 258.107C454.225 258.107 479.98 232.352 479.98 200.582C479.98 168.812 454.225 143.057 422.455 143.057C390.685 143.057 364.93 168.812 364.93 200.582C364.93 232.352 390.685 258.107 422.455 258.107Z" fill="#83B6FF"/>
<path d="M406.191 189.645C408.72 192.33 410.16 196.338 410.16 200.774C410.16 204.782 408.642 208.907 406.191 211.513C403.739 214.159 400.548 215.443 396.502 215.443C392.455 215.443 389.264 214.159 386.813 211.513C384.283 208.829 382.844 204.821 382.844 200.579C382.844 196.338 384.283 192.369 386.813 189.645C389.225 187.038 392.494 185.715 396.463 185.715C400.587 185.715 403.7 186.96 406.191 189.645ZM388.68 200.58C388.68 206.572 391.754 210.463 396.502 210.463C401.171 210.463 404.323 206.572 404.323 200.735C404.323 194.587 401.288 190.696 396.502 190.696C391.754 190.696 388.68 194.587 388.68 200.58Z" fill="white"/>
<path d="M420.391 214.547H414.555V186.18H427.084C432.999 186.18 436.229 189.293 436.229 194.974C436.229 200.733 432.882 204.43 427.668 204.43H420.391V214.547ZM425.839 199.566C428.952 199.566 430.392 198.204 430.392 195.285C430.392 192.406 428.952 191.044 425.839 191.044H420.391V199.566H425.839Z" fill="white"/>
<path d="M455.63 194.82C455.436 191.94 453.373 190.384 449.677 190.384C446.642 190.384 444.774 191.746 444.774 193.886C444.774 195.949 445.98 196.765 450.144 197.583L454.58 198.439C459.833 199.451 462.09 201.785 462.09 206.26C462.09 212.058 457.77 215.443 450.455 215.443C443.217 215.443 439.054 212.136 438.703 206.066H444.385C444.579 209.101 446.797 210.774 450.766 210.774C454.307 210.774 456.486 209.334 456.486 206.961C456.486 204.665 455.047 203.575 451.155 202.836L447.186 202.058C441.427 200.968 439.209 198.828 439.209 194.431C439.209 188.906 443.139 185.715 449.949 185.715C457.109 185.715 461.039 188.945 461.078 194.821H455.63V194.82Z" fill="white"/>
<path d="M334.071 156.773L332.884 158.981L322.148 153.215L325.242 147.456C325.732 146.543 326.332 145.992 327.094 145.775C327.901 145.545 328.839 145.669 329.693 146.128C331.004 146.832 331.549 147.902 331.371 149.363C332.696 148.31 332.875 148.33 336.073 149.972C336.544 150.226 336.836 150.212 337.209 149.975L337.608 150.189L336.334 152.561C335.676 152.548 335.335 152.442 334.319 151.895C334.157 151.808 333.892 151.666 333.62 151.501L333.177 151.264C332.294 150.789 331.69 150.996 331.175 151.953L329.815 154.486L334.071 156.773ZM329.406 150.832C329.746 150.198 329.823 149.879 329.751 149.518C329.673 149.134 329.331 148.78 328.816 148.503C328.315 148.234 327.876 148.169 327.513 148.315C327.142 148.477 326.948 148.695 326.608 149.328L325.176 151.994L327.974 153.497L329.406 150.832Z" fill="white"/>
<path d="M338.287 145.49L342.051 140.065L343.768 141.256L338.574 148.741L328.562 141.794L333.585 134.557L335.301 135.748L331.708 140.925L333.975 142.498L337.3 137.705L339.017 138.896L335.691 143.689L338.287 145.49Z" fill="white"/>
<path d="M344.951 136.637L348.758 132.217L350.341 133.58L344.897 139.901L335.664 131.947L337.301 130.047L344.951 136.637Z" fill="white"/>
<path d="M351.813 129.218L356.617 124.689L358.051 126.209L351.422 132.458L343.062 123.592L349.472 117.549L350.906 119.069L346.32 123.392L348.213 125.399L352.457 121.397L353.891 122.917L349.646 126.919L351.813 129.218Z" fill="white"/>
<path d="M359.937 121.613L360.755 124.07L358.708 125.604L354.867 113.255L357.088 111.592L367.765 118.819L365.705 120.363L363.59 118.877L359.937 121.613ZM357.661 114.755L359.246 119.52L361.788 117.616L357.661 114.755Z" fill="white"/>
<path d="M369.943 107.716C369.242 106.693 368.139 106.568 366.771 107.375C365.648 108.038 365.254 108.949 365.721 109.741C366.171 110.505 366.796 110.544 368.516 109.937L370.344 109.285C372.509 108.512 373.854 108.884 374.831 110.539C376.097 112.685 375.238 114.881 372.531 116.478C369.852 118.059 367.589 117.744 366.134 115.574L368.236 114.333C368.971 115.414 370.158 115.549 371.626 114.682C372.937 113.909 373.429 112.9 372.91 112.022C372.409 111.172 371.638 111.084 370.037 111.66L368.398 112.238C366.029 113.092 364.741 112.785 363.781 111.157C362.574 109.113 363.332 107.074 365.852 105.587C368.501 104.023 370.661 104.36 371.958 106.527L369.943 107.716Z" fill="white"/>
<path d="M379.492 109.98L385.509 107.26L386.37 109.164L378.067 112.917L373.047 101.81L381.076 98.1816L381.937 100.086L376.193 102.682L377.329 105.196L382.646 102.793L383.507 104.697L378.19 107.1L379.492 109.98Z" fill="white"/>
<path d="M471.151 100.998L475.357 103.235C477.011 104.114 477.833 105.025 478.108 106.288C478.407 107.753 478.096 109.443 477.209 111.111C476.314 112.793 475.088 113.997 473.713 114.553C472.512 115.031 471.275 114.866 469.636 113.994L465.43 111.758L471.151 100.998ZM470.617 112.149C472.285 113.037 473.732 112.31 474.987 109.948C476.251 107.572 476.044 105.966 474.376 105.08L472.384 104.02L468.625 111.09L470.617 112.149Z" fill="white"/>
<path d="M479 117.129L484.441 120.872L483.256 122.593L475.75 117.429L482.658 107.389L489.916 112.382L488.732 114.104L483.539 110.531L481.976 112.804L486.783 116.111L485.599 117.833L480.792 114.526L479 117.129Z" fill="white"/>
<path d="M486.462 125.277L484.562 123.64L492.518 114.408L496.595 117.922C498.52 119.581 498.699 121.5 497.105 123.349C495.49 125.223 493.364 125.487 491.667 124.025L489.299 121.984L486.462 125.277ZM492.436 121.929C493.449 122.802 494.3 122.763 495.119 121.813C495.926 120.876 495.839 120.029 494.827 119.156L493.054 117.628L490.664 120.401L492.436 121.929Z" fill="white"/>
<path d="M495.796 131.08L499.809 135.316L498.292 136.753L492.555 130.697L501.402 122.314L503.126 124.135L495.796 131.08Z" fill="white"/>
<path d="M513.209 138.535C512.949 140.099 511.953 141.634 510.436 142.787C509.066 143.83 507.261 144.384 505.731 144.224C504.189 144.074 502.92 143.317 501.867 141.933C500.815 140.55 500.423 139.125 500.691 137.598C500.951 136.035 501.947 134.5 503.397 133.397C504.847 132.293 506.579 131.753 508.168 131.909C509.687 132.056 510.99 132.83 512.023 134.187C513.095 135.597 513.479 136.985 513.209 138.535ZM504.915 135.392C502.866 136.951 502.335 139.014 503.57 140.637C504.785 142.234 506.935 142.3 508.931 140.781C511.033 139.182 511.574 137.132 510.329 135.495C509.094 133.872 506.964 133.833 504.915 135.392Z" fill="white"/>
<path d="M508.929 151.793L507.633 149.646L511.498 147.314L515.978 139.885L517.42 142.275L514.098 147.19L519.908 146.398L521.36 148.803L512.794 149.461L508.929 151.793Z" fill="white"/>
<path d="M477.433 292.03C478.942 292.513 480.318 293.719 481.242 295.386C482.076 296.892 482.365 298.759 481.986 300.248C481.616 301.753 480.684 302.9 479.163 303.743C477.642 304.585 476.176 304.767 474.703 304.283C473.194 303.8 471.819 302.594 470.936 301C470.053 299.406 469.767 297.614 470.151 296.064C470.515 294.582 471.468 293.405 472.959 292.579C474.509 291.72 475.938 291.54 477.433 292.03ZM473.129 299.785C474.377 302.037 476.342 302.859 478.126 301.871C479.881 300.899 480.255 298.78 479.04 296.587C477.76 294.276 475.809 293.446 474.011 294.443C472.227 295.431 471.881 297.533 473.129 299.785Z" fill="white"/>
<path d="M488.404 297.584L486.361 299.037L479.297 289.106L483.684 285.986C485.754 284.513 487.66 284.799 489.075 286.788C490.509 288.804 490.257 290.931 488.432 292.23L485.885 294.042L488.404 297.584ZM486.58 290.982C487.67 290.207 487.835 289.372 487.108 288.35C486.391 287.342 485.548 287.224 484.458 287.999L482.551 289.355L484.673 292.339L486.58 290.982Z" fill="white"/>
<path d="M496.304 288.908L501.272 284.558L502.649 286.13L495.794 292.133L487.766 282.964L494.394 277.16L495.77 278.732L491.029 282.884L492.846 284.959L497.236 281.115L498.612 282.688L494.223 286.531L496.304 288.908Z" fill="white"/>
<path d="M506.376 282.287L504.677 284.131L495.711 275.874L500.14 271.065C500.842 270.303 501.56 269.918 502.352 269.898C503.191 269.875 504.069 270.229 504.783 270.886C505.878 271.894 506.139 273.067 505.603 274.438C507.149 273.747 507.317 273.811 510.007 276.197C510.4 276.559 510.687 276.619 511.107 276.483L511.439 276.789L509.616 278.769C508.981 278.594 508.677 278.405 507.829 277.623C507.694 277.5 507.472 277.295 507.25 277.068L506.881 276.728C506.143 276.048 505.506 276.098 504.77 276.898L502.821 279.014L506.376 282.287ZM503.334 275.371C503.821 274.842 503.975 274.552 503.995 274.185C504.014 273.793 503.772 273.366 503.341 272.969C502.923 272.584 502.514 272.411 502.125 272.463C501.726 272.527 501.484 272.69 500.997 273.219L498.947 275.445L501.284 277.597L503.334 275.371Z" fill="white"/>
<path d="M512.76 271.048L514.258 273.161L512.745 275.224L505.477 264.527L507.117 262.289L519.436 266.096L517.914 268.173L515.458 267.367L512.76 271.048ZM508.586 265.149L511.49 269.246L513.368 266.684L508.586 265.149Z" fill="white"/>
<path d="M522.546 260.867L521.252 263.015L512.602 257.806L510.697 260.971L508.906 259.893L513.942 251.529L515.733 252.607L513.896 255.658L522.546 260.867Z" fill="white"/>
<path d="M524.553 252.767L527.389 246.804L529.276 247.702L525.364 255.928L514.359 250.696L518.142 242.74L520.029 243.638L517.323 249.329L519.814 250.513L522.319 245.245L524.206 246.142L521.701 251.41L524.553 252.767Z" fill="white"/>
<path d="M327.757 266.936L326.297 264.896L336.207 257.803L338.386 260.848L331.786 268.286L340.916 264.382L343.115 267.455L333.206 274.548L331.746 272.509L339.467 266.983L330.491 270.756L329.031 268.716L335.478 261.409L327.757 266.936Z" fill="white"/>
<path d="M349.488 276.621C349.379 278.201 348.535 279.824 347.136 281.118C345.872 282.288 344.128 283.012 342.591 282.999C341.042 282.999 339.706 282.367 338.525 281.09C337.345 279.814 336.819 278.434 336.938 276.889C337.047 275.308 337.892 273.684 339.229 272.447C340.567 271.21 342.238 270.507 343.835 270.51C345.361 270.51 346.732 271.155 347.889 272.406C349.093 273.707 349.608 275.052 349.488 276.621ZM340.932 274.288C339.042 276.036 338.711 278.141 340.096 279.638C341.458 281.11 343.605 280.969 345.445 279.267C347.384 277.473 347.726 275.381 346.33 273.872C344.946 272.374 342.822 272.54 340.932 274.288Z" fill="white"/>
<path d="M352.09 282.13L346.607 288.528L344.703 286.896L352.633 277.643L354.588 279.318L352.861 288.758L358.256 282.462L360.16 284.094L352.23 293.347L350.326 291.715L352.09 282.13Z" fill="white"/>
<path d="M356.407 296.351L354.383 294.871L361.577 285.035L363.601 286.516L356.407 296.351Z" fill="white"/>
<path d="M363.066 300.77L360.945 299.432L366.335 290.895L363.211 288.923L364.327 287.156L372.581 292.367L371.466 294.134L368.455 292.233L363.066 300.77Z" fill="white"/>
<path d="M380.91 298.2C381.373 299.716 381.164 301.534 380.319 303.242C379.556 304.786 378.186 306.085 376.745 306.623C375.297 307.175 373.824 307.062 372.265 306.292C370.706 305.521 369.722 304.419 369.281 302.933C368.819 301.417 369.027 299.599 369.835 297.965C370.643 296.332 371.953 295.077 373.446 294.509C374.872 293.965 376.383 294.078 377.912 294.834C379.5 295.619 380.462 296.692 380.91 298.2ZM372.083 299.077C370.942 301.385 371.384 303.469 373.213 304.373C375.012 305.262 376.967 304.364 378.079 302.116C379.249 299.748 378.821 297.671 376.978 296.759C375.149 295.855 373.224 296.769 372.083 299.077Z" fill="white"/>
<path d="M382.667 310.418L380.305 309.575L384.401 298.096L390.557 300.293C391.533 300.641 392.168 301.152 392.496 301.873C392.845 302.636 392.862 303.583 392.537 304.496C392.036 305.897 391.059 306.596 389.588 306.639C390.828 307.791 390.835 307.971 389.69 311.379C389.51 311.883 389.567 312.17 389.857 312.504L389.705 312.929L387.17 312.024C387.083 311.372 387.138 311.019 387.526 309.933C387.588 309.759 387.689 309.476 387.811 309.182L387.98 308.71C388.317 307.765 388.022 307.198 386.999 306.833L384.29 305.866L382.667 310.418ZM387.843 304.916C388.52 305.157 388.847 305.185 389.194 305.061C389.561 304.925 389.861 304.535 390.057 303.984C390.248 303.449 390.247 303.004 390.047 302.667C389.833 302.324 389.588 302.166 388.911 301.924L386.061 300.907L384.993 303.899L387.843 304.916Z" fill="white"/>
<path d="M342.682 215.577L333.736 204.951L316.105 184.007C314.8 182.458 312.435 182.394 311.048 183.871L295.35 200.576V200.579L282.423 214.336C280.413 216.474 281.89 219.981 284.823 220.039L293.486 220.211C285.17 260.097 250.108 290.166 207.909 290.816L224.615 306.511C226.092 307.9 226.024 310.265 224.475 311.57L203.531 329.202C204.522 329.225 205.515 329.237 206.511 329.237C270.332 329.237 323.18 282.255 332.358 220.989L340.025 221.143C342.935 221.202 344.558 217.805 342.682 215.577Z" fill="#83B6FF"/>
<path d="M115.847 250.709L118.638 255.371C119.307 256.49 119.515 257.359 119.354 258.294C119.19 259.19 118.658 259.995 117.927 260.433C117.038 260.966 116.195 260.924 114.917 260.287C114.941 261.89 114.45 262.924 113.417 263.542C112.57 264.048 111.455 264.171 110.547 263.857C109.638 263.544 108.928 262.878 108.207 261.673L105.391 256.968L115.847 250.709ZM108.471 258.046L110.008 260.614C110.635 261.661 111.42 261.931 112.309 261.399C113.213 260.858 113.346 260.039 112.719 258.991L111.182 256.424L108.471 258.046ZM112.975 255.351L114.375 257.688C114.976 258.693 115.687 258.969 116.475 258.496C117.25 258.033 117.343 257.276 116.742 256.272L115.342 253.934L112.975 255.351Z" fill="white"/>
<path d="M127.665 268.136L121.1 273.146C120.01 273.977 119.017 274.273 117.936 274.068C116.76 273.851 115.634 273.09 114.741 271.922C113.849 270.752 113.414 269.465 113.514 268.274C113.602 267.177 114.15 266.296 115.239 265.465L121.804 260.455L123.325 262.448L116.76 267.458C115.591 268.35 115.489 269.374 116.443 270.623C117.396 271.872 118.41 272.044 119.579 271.152L126.144 266.142L127.665 268.136Z" fill="white"/>
<path d="M121.507 279.436L119.836 277.566L128.924 269.445L130.595 271.316L121.507 279.436Z" fill="white"/>
<path d="M126.731 281.865L130.906 285.939L129.447 287.435L123.477 281.609L131.987 272.887L133.781 274.638L126.731 281.865Z" fill="white"/>
<path d="M138.945 279.6L142.678 282.559C144.145 283.722 144.79 284.766 144.832 286.058C144.862 287.553 144.251 289.159 143.077 290.64C141.893 292.133 140.47 293.094 139.017 293.393C137.749 293.648 136.562 293.261 135.108 292.108L131.375 289.149L138.945 279.6ZM136.406 290.471C137.887 291.645 139.441 291.191 141.102 289.095C142.774 286.985 142.86 285.369 141.38 284.196L139.612 282.794L134.638 289.069L136.406 290.471Z" fill="white"/>
<path d="M118.646 138.25C117.227 137.692 116.186 137.975 115.369 139.179C114.262 140.811 114.924 142.694 117.151 144.205C119.35 145.698 121.289 145.639 122.377 144.035C123.251 142.748 123.061 141.448 121.869 140.437L123.24 138.417C125.465 140.11 125.792 142.755 124.083 145.272C122.178 148.081 118.966 148.467 115.715 146.261C112.45 144.046 111.619 140.896 113.552 138.046C114.575 136.539 115.987 135.678 117.536 135.598C118.394 135.554 119.07 135.749 119.988 136.271L118.646 138.25Z" fill="white"/>
<path d="M125.726 125.474C127.309 125.415 129.013 126.082 130.449 127.336C131.746 128.468 132.652 130.126 132.802 131.656C132.966 133.197 132.479 134.592 131.336 135.902C130.192 137.212 128.874 137.881 127.325 137.926C125.741 137.986 124.038 137.318 122.665 136.12C121.293 134.921 120.416 133.333 120.249 131.745C120.087 130.227 120.583 128.796 121.705 127.512C122.87 126.177 124.153 125.521 125.726 125.474ZM124.315 134.231C126.254 135.925 128.382 136.03 129.723 134.494C131.043 132.983 130.675 130.863 128.786 129.213C126.797 127.476 124.68 127.358 123.327 128.907C121.985 130.443 122.376 132.537 124.315 134.231Z" fill="white"/>
<path d="M127.906 121.094L131.456 117.915C132.851 116.665 133.989 116.207 135.27 116.384C136.75 116.608 138.229 117.483 139.489 118.89C140.761 120.31 141.468 121.876 141.516 123.359C141.552 124.652 140.97 125.757 139.588 126.994L136.038 130.173L127.906 121.094ZM138.193 125.438C139.6 124.177 139.417 122.569 137.632 120.576C135.836 118.571 134.258 118.212 132.85 119.472L131.169 120.977L136.512 126.943L138.193 125.438Z" fill="white"/>
<path d="M145.759 119.277L151.142 115.453L152.352 117.157L144.924 122.433L137.867 112.498L145.049 107.396L146.259 109.1L141.122 112.75L142.718 114.998L147.475 111.62L148.685 113.323L143.929 116.702L145.759 119.277Z" fill="white"/>
<path d="M267.461 299.535L265.32 300.841L260.062 292.221L256.908 294.145L255.82 292.361L264.155 287.277L265.242 289.061L262.203 290.916L267.461 299.535Z" fill="white"/>
<path d="M272.985 293.283L278.258 289.31L279.515 290.978L272.239 296.46L264.906 286.729L271.941 281.428L273.199 283.096L268.166 286.888L269.826 289.091L274.485 285.58L275.742 287.249L271.083 290.76L272.985 293.283Z" fill="white"/>
<path d="M280.598 278.55C279.695 277.701 278.59 277.814 277.427 278.896C276.472 279.784 276.282 280.758 276.908 281.431C277.511 282.081 278.13 281.985 279.679 281.024L281.326 279.996C283.275 278.779 284.668 278.853 285.977 280.261C287.672 282.086 287.304 284.415 285.001 286.554C282.723 288.671 280.445 288.848 278.56 287.04L280.348 285.378C281.297 286.276 282.484 286.154 283.733 284.993C284.847 283.958 285.112 282.867 284.418 282.121C283.746 281.398 282.975 281.476 281.534 282.381L280.057 283.297C277.926 284.639 276.602 284.614 275.315 283.23C273.699 281.491 274.003 279.337 276.146 277.346C278.399 275.251 280.581 275.118 282.312 276.957L280.598 278.55Z" fill="white"/>
<path d="M293.511 277.203L291.85 279.081L284.286 272.391L281.839 275.158L280.273 273.774L286.742 266.461L288.307 267.846L285.948 270.513L293.511 277.203Z" fill="white"/>
<path d="M244.09 109.056L241.789 108.058L246.639 96.877L251.577 99.0191C253.909 100.031 254.649 101.81 253.678 104.049C252.694 106.319 250.743 107.204 248.688 106.313L245.82 105.068L244.09 109.056ZM248.799 104.083C250.025 104.615 250.826 104.324 251.324 103.174C251.817 102.038 251.482 101.256 250.255 100.724L248.108 99.7918L246.651 103.151L248.799 104.083Z" fill="white"/>
<path d="M254.717 111.825L259.804 114.681L258.781 116.504L251.508 112.419L257.474 101.793L259.661 103.021L254.717 111.825Z" fill="white"/>
<path d="M263.668 116.851L261.571 118.372L259.492 116.883L270.108 109.498L272.364 111.114L268.692 123.473L266.599 121.974L267.378 119.509L263.668 116.851ZM269.52 112.614L265.455 115.562L268.037 117.411L269.52 112.614Z" fill="white"/>
<path d="M277.059 119.679L271.385 125.907L269.531 124.218L277.739 115.209L279.642 116.943L277.629 126.326L283.213 120.197L285.066 121.885L276.859 130.894L275.005 129.205L277.059 119.679Z" fill="white"/>
<path d="M199.972 310.234L124.398 348.09" stroke="#6868FC" stroke-width="7.2424" stroke-miterlimit="10"/>
<path d="M126.495 343.182L124.95 347.821L129.59 349.362L126.966 350.676L122.328 349.134L123.87 344.496L126.495 343.182Z" fill="#6868FC"/>
<path d="M430.609 310.234L506.183 348.09" stroke="#1330D8" stroke-width="7.2424" stroke-miterlimit="10"/>
<path d="M501.008 349.362L505.648 347.821L504.104 343.182L506.727 344.496L508.27 349.134L503.632 350.676L501.008 349.362Z" fill="#1330D8"/>
<path d="M199.981 315.72C203.013 315.72 205.47 313.263 205.47 310.231C205.47 307.2 203.013 304.742 199.981 304.742C196.95 304.742 194.492 307.2 194.492 310.231C194.492 313.263 196.95 315.72 199.981 315.72Z" fill="white"/>
<path d="M202.735 313C204.266 311.469 204.266 308.988 202.735 307.457C201.205 305.927 198.723 305.927 197.193 307.457C195.663 308.988 195.663 311.469 197.193 313C198.723 314.53 201.205 314.53 202.735 313Z" fill="#6868FC"/>
<path d="M99.4225 191.204L27.8438 190.617" stroke="#3849E5" stroke-width="7.2424" stroke-miterlimit="10"/>
<path d="M31.9348 187.196L28.4482 190.624L31.8782 194.108L28.9434 194.084L25.5156 190.6L29.0002 187.172L31.9348 187.196Z" fill="#3849E5"/>
<path d="M530.43 191.204L602.009 190.617" stroke="#3849E5" stroke-width="7.2424" stroke-miterlimit="10"/>
<path d="M597.978 194.108L601.408 190.624L597.922 187.196L600.856 187.172L604.341 190.6L600.913 194.084L597.978 194.108Z" fill="#3849E5"/>
<path d="M100.903 196.484C103.819 195.657 105.512 192.622 104.685 189.705C103.857 186.789 100.822 185.096 97.9055 185.923C94.9892 186.751 93.2959 189.786 94.1235 192.702C94.9511 195.619 97.9862 197.312 100.903 196.484Z" fill="white"/>
<path d="M103.253 191.975C103.687 189.855 102.32 187.784 100.199 187.351C98.0787 186.917 96.0082 188.284 95.5744 190.405C95.1407 192.525 96.508 194.596 98.6285 195.029C100.749 195.463 102.819 194.096 103.253 191.975Z" fill="#3849E5"/>
<path d="M213.921 93.2829L154.25 43.2852" stroke="#1330D8" stroke-width="7.2424" stroke-miterlimit="10"/>
<path d="M159.595 43.2443L154.725 43.6724L155.156 48.5428L152.906 46.6579L152.477 41.7889L157.346 41.3594L159.595 43.2443Z" fill="#1330D8"/>
<path d="M416.109 93.2829L475.78 43.2852" stroke="#6868FC" stroke-width="7.2424" stroke-miterlimit="10"/>
<path d="M474.877 48.5428L475.308 43.6724L470.438 43.2443L472.687 41.3594L477.556 41.7889L477.126 46.6579L474.877 48.5428Z" fill="#6868FC"/>
<path d="M219.279 94.4234C219.911 91.4585 218.02 88.5429 215.055 87.9111C212.09 87.2793 209.174 89.1707 208.542 92.1355C207.911 95.1004 209.802 98.0161 212.767 98.6478C215.732 99.2796 218.647 97.3883 219.279 94.4234Z" fill="white"/>
<path d="M217.745 94.17C218.239 92.0628 216.932 89.9538 214.824 89.4594C212.717 88.9651 210.608 90.2726 210.114 92.3798C209.619 94.4871 210.927 96.5961 213.034 97.0904C215.141 97.5847 217.25 96.2772 217.745 94.17Z" fill="#1330D8"/>
<path d="M431.318 314.932C434.268 314.236 436.095 311.279 435.399 308.329C434.702 305.379 431.745 303.552 428.795 304.248C425.845 304.945 424.018 307.901 424.715 310.852C425.411 313.802 428.368 315.629 431.318 314.932Z" fill="white"/>
<path d="M430.959 313.407C433.065 312.91 434.37 310.799 433.872 308.692C433.375 306.586 431.264 305.282 429.158 305.779C427.051 306.276 425.747 308.387 426.244 310.494C426.742 312.6 428.852 313.904 430.959 313.407Z" fill="#1330D8"/>
<path d="M531.497 196.026C534.49 195.54 536.522 192.72 536.036 189.728C535.551 186.736 532.731 184.703 529.739 185.189C526.746 185.675 524.714 188.494 525.2 191.487C525.685 194.479 528.505 196.511 531.497 196.026Z" fill="white"/>
<path d="M531.49 194.38C533.596 193.882 534.901 191.771 534.403 189.665C533.906 187.559 531.795 186.254 529.689 186.752C527.583 187.249 526.278 189.36 526.776 191.466C527.273 193.573 529.384 194.877 531.49 194.38Z" fill="#3849E5"/>
<path d="M421.181 96.005C422.341 93.2041 421.011 89.9931 418.21 88.8329C415.409 87.6727 412.198 89.0027 411.038 91.8036C409.878 94.6045 411.208 97.8155 414.009 98.9757C416.81 100.136 420.021 98.8058 421.181 96.005Z" fill="white"/>
<path d="M416.998 97.6882C419.104 97.1908 420.409 95.0801 419.911 92.9737C419.414 90.8673 417.303 89.563 415.197 90.0604C413.09 90.5577 411.786 92.6685 412.283 94.7749C412.781 96.8812 414.892 98.1856 416.998 97.6882Z" fill="#6868FC"/>
<path d="M313.648 323.223V211.752" stroke="#8095FF" stroke-width="7.2424" stroke-miterlimit="10"/>
<path d="M317.1 319.164L313.644 322.622L310.188 319.164V322.099L313.644 325.555L317.1 322.099V319.164Z" fill="#8095FF"/>
<path d="M313.645 214.992C316.677 214.992 319.134 212.534 319.134 209.503C319.134 206.471 316.677 204.014 313.645 204.014C310.614 204.014 308.156 206.471 308.156 209.503C308.156 212.534 310.614 214.992 313.645 214.992Z" fill="white"/>
<path d="M317.45 210.438C317.948 208.332 316.643 206.221 314.537 205.724C312.431 205.227 310.32 206.531 309.822 208.637C309.325 210.744 310.629 212.854 312.736 213.352C314.842 213.849 316.953 212.545 317.45 210.438Z" fill="#8095FF"/>
<path opacity="0.3" d="M331.521 49.3143H295.777C292.03 49.3143 288.992 46.2764 288.992 42.5292V6.78512C288.992 3.03788 292.03 0 295.777 0H331.521C335.269 0 338.306 3.03788 338.306 6.78512V42.5292C338.306 46.2764 335.269 49.3143 331.521 49.3143Z" fill="#83B6FF"/>
<path d="M328.522 45.1708H298.785C295.668 45.1708 293.141 42.6436 293.141 39.526V9.78933C293.141 6.67179 295.668 4.14453 298.785 4.14453H328.522C331.64 4.14453 334.167 6.67179 334.167 9.78933V39.526C334.167 42.6436 331.639 45.1708 328.522 45.1708Z" fill="#1330D8"/>
<path opacity="0.3" d="M331.521 386H295.777C292.03 386 288.992 382.962 288.992 379.215V343.471C288.992 339.723 292.03 336.686 295.777 336.686H331.521C335.269 336.686 338.306 339.723 338.306 343.471V379.215C338.306 382.962 335.269 386 331.521 386Z" fill="#83B6FF"/>
<path d="M328.522 381.854H298.785C295.668 381.854 293.141 379.327 293.141 376.21V346.473C293.141 343.355 295.668 340.828 298.785 340.828H328.522C331.64 340.828 334.167 343.355 334.167 346.473V376.21C334.167 379.327 331.639 381.854 328.522 381.854Z" fill="#83B6FF"/>
<path opacity="0.3" d="M103.631 374.869H67.8867C64.1394 374.869 61.1016 371.831 61.1016 368.084V332.34C61.1016 328.593 64.1394 325.555 67.8867 325.555H103.631C107.378 325.555 110.416 328.593 110.416 332.34V368.084C110.416 371.831 107.378 374.869 103.631 374.869Z" fill="#83B6FF"/>
<path d="M100.624 370.725H70.887C67.7694 370.725 65.2422 368.198 65.2422 365.081V335.344C65.2422 332.226 67.7694 329.699 70.887 329.699H100.624C103.741 329.699 106.268 332.226 106.268 335.344V365.081C106.268 368.198 103.741 370.725 100.624 370.725Z" fill="#8095FF"/>
<path opacity="0.3" d="M562.67 374.869H526.926C523.179 374.869 520.141 371.831 520.141 368.084V332.34C520.141 328.593 523.179 325.555 526.926 325.555H562.67C566.417 325.555 569.455 328.593 569.455 332.34V368.084C569.455 371.831 566.417 374.869 562.67 374.869Z" fill="#83B6FF"/>
<path d="M559.663 370.725H529.926C526.808 370.725 524.281 368.198 524.281 365.081V335.344C524.281 332.226 526.808 329.699 529.926 329.699H559.663C562.78 329.699 565.308 332.226 565.308 335.344V365.081C565.308 368.198 562.78 370.725 559.663 370.725Z" fill="#3849E5"/>
<path opacity="0.3" d="M42.5292 177.17H6.78512C3.03788 177.17 0 174.132 0 170.385V134.641C0 130.893 3.03788 127.855 6.78512 127.855H42.5292C46.2764 127.855 49.3143 130.893 49.3143 134.641V170.385C49.3143 174.132 46.2764 177.17 42.5292 177.17Z" fill="#83B6FF"/>
<path d="M39.5221 173.022H9.78542C6.66788 173.022 4.14062 170.495 4.14062 167.378V137.641C4.14062 134.523 6.66788 131.996 9.78542 131.996H39.5221C42.6396 131.996 45.1669 134.523 45.1669 137.641V167.378C45.1669 170.495 42.6396 173.022 39.5221 173.022Z" fill="#6868FC"/>
<path opacity="0.3" d="M623.771 177.17H588.027C584.28 177.17 581.242 174.132 581.242 170.385V134.641C581.242 130.893 584.28 127.855 588.027 127.855H623.771C627.519 127.855 630.556 130.893 630.556 134.641V170.385C630.556 174.132 627.519 177.17 623.771 177.17Z" fill="#83B6FF"/>
<path d="M620.757 173.022H591.02C587.902 173.022 585.375 170.495 585.375 167.378V137.641C585.375 134.523 587.902 131.996 591.02 131.996H620.757C623.874 131.996 626.401 134.523 626.401 137.641V167.378C626.401 170.495 623.874 173.022 620.757 173.022Z" fill="#6868FC"/>
<path opacity="0.3" d="M134.115 66.4471H98.371C94.6238 66.4471 91.5859 63.4092 91.5859 59.662V23.9179C91.5859 20.1707 94.6238 17.1328 98.371 17.1328H134.115C137.862 17.1328 140.9 20.1707 140.9 23.9179V59.662C140.9 63.4092 137.862 66.4471 134.115 66.4471Z" fill="#83B6FF"/>
<path d="M131.116 62.3017H101.379C98.2616 62.3017 95.7344 59.7744 95.7344 56.6569V26.9202C95.7344 23.8026 98.2616 21.2754 101.379 21.2754H131.116C134.233 21.2754 136.761 23.8026 136.761 26.9202V56.6569C136.761 59.7741 134.233 62.3017 131.116 62.3017Z" fill="#3849E5"/>
<path opacity="0.3" d="M532.178 66.4471H496.434C492.686 66.4471 489.648 63.4092 489.648 59.662V23.9179C489.648 20.1707 492.686 17.1328 496.434 17.1328H532.178C535.925 17.1328 538.963 20.1707 538.963 23.9179V59.662C538.963 63.4092 535.925 66.4471 532.178 66.4471Z" fill="#83B6FF"/>
<path d="M529.178 62.3017H499.442C496.324 62.3017 493.797 59.7744 493.797 56.6569V26.9202C493.797 23.8026 496.324 21.2754 499.442 21.2754H529.178C532.296 21.2754 534.823 23.8026 534.823 26.9202V56.6569C534.823 59.7741 532.296 62.3017 529.178 62.3017Z" fill="#8095FF"/>
<path d="M617.895 149.179H617.001C616.774 148.419 616.472 147.692 616.102 147.006L616.733 146.375C617.493 145.615 617.493 144.384 616.733 143.624L614.774 141.665C614.015 140.905 612.783 140.905 612.023 141.665L611.392 142.296C610.707 141.926 609.979 141.625 609.219 141.397V140.504C609.219 139.43 608.348 138.559 607.274 138.559H604.504C603.43 138.559 602.559 139.43 602.559 140.504V141.397C601.799 141.625 601.071 141.926 600.385 142.296L599.754 141.665C598.995 140.905 597.763 140.905 597.004 141.665L595.044 143.624C594.285 144.384 594.285 145.615 595.044 146.375L595.675 147.006C595.305 147.692 595.004 148.419 594.776 149.179H593.883C592.808 149.179 591.938 150.05 591.938 151.124V153.895C591.938 154.969 592.808 155.84 593.883 155.84H594.776C595.004 156.6 595.305 157.328 595.675 158.013L595.044 158.644C594.285 159.404 594.285 160.636 595.044 161.395L597.003 163.354C597.763 164.113 598.994 164.113 599.754 163.354L600.385 162.723C601.071 163.093 601.798 163.395 602.558 163.622V164.516C602.558 165.59 603.429 166.461 604.503 166.461H607.274C608.348 166.461 609.219 165.59 609.219 164.516V163.622C609.979 163.394 610.707 163.093 611.392 162.723L612.023 163.354C612.783 164.113 614.015 164.113 614.774 163.354L616.733 161.395C617.493 160.635 617.493 159.404 616.733 158.644L616.102 158.013C616.472 157.327 616.774 156.6 617.001 155.84H617.895C618.969 155.84 619.84 154.969 619.84 153.895V151.124C619.84 150.05 618.969 149.179 617.895 149.179ZM605.889 158.83C602.398 158.83 599.568 156 599.568 152.509C599.568 149.019 602.398 146.189 605.889 146.189C609.379 146.189 612.209 149.019 612.209 152.509C612.209 156 609.379 158.83 605.889 158.83Z" fill="white"/>
<path d="M37.0761 162.511H12.2264C11.4109 162.511 10.75 161.85 10.75 161.034V143.98C10.75 143.165 11.4109 142.504 12.2264 142.504H37.0761C37.8916 142.504 38.5525 143.165 38.5525 143.98V161.034C38.5525 161.85 37.8916 162.511 37.0761 162.511Z" fill="white"/>
<path d="M13.7606 144.507C13.7606 144.814 13.5118 145.063 13.2047 145.063C12.8976 145.063 12.6484 144.814 12.6484 144.507C12.6484 144.2 12.8973 143.951 13.2047 143.951C13.5118 143.951 13.7606 144.2 13.7606 144.507Z" fill="#6868FC"/>
<path d="M15.8544 144.507C15.8544 144.814 15.6055 145.063 15.2981 145.063C14.991 145.063 14.7422 144.814 14.7422 144.507C14.7422 144.2 14.991 143.951 15.2981 143.951C15.6055 143.951 15.8544 144.2 15.8544 144.507Z" fill="#6868FC"/>
<path d="M17.3919 145.063C17.6989 145.063 17.9478 144.814 17.9478 144.507C17.9478 144.2 17.6989 143.951 17.3919 143.951C17.0848 143.951 16.8359 144.2 16.8359 144.507C16.8359 144.814 17.0848 145.063 17.3919 145.063Z" fill="#6868FC"/>
<path d="M36.1447 145.028H27.2571C26.9683 145.028 26.7344 144.794 26.7344 144.505C26.7344 144.216 26.9686 143.982 27.2571 143.982H36.1447C36.4335 143.982 36.6674 144.217 36.6674 144.505C36.6677 144.794 36.4335 145.028 36.1447 145.028Z" fill="#6868FC"/>
<path d="M21.9037 152.799L18.5773 154.018L21.9037 155.227V156.475L17.1484 154.667V153.369L21.9037 151.561V152.799Z" fill="#6868FC"/>
<path d="M25.4763 149.102H26.8651L23.5683 158.512H22.1797L25.4763 149.102Z" fill="#6868FC"/>
<path d="M31.7943 153.369V154.668L27.0391 156.476V155.227L30.3658 154.018L27.0391 152.799V151.561L31.7943 153.369Z" fill="#6868FC"/>
<path d="M533.656 353.648V342.385H538.238" stroke="white" stroke-width="3.282" stroke-miterlimit="10" stroke-linecap="round" stroke-linejoin="round"/>
<path d="M556.949 353.648V342.385H552.367" stroke="white" stroke-width="3.282" stroke-miterlimit="10" stroke-linecap="round" stroke-linejoin="round"/>
<path d="M557.911 354.998H549.476V355.803C549.476 356.12 549.22 356.376 548.903 356.376H540.682C540.366 356.376 540.11 356.12 540.11 355.803V354.998H531.675C530.836 354.998 530.156 355.678 530.156 356.517C530.156 357.356 530.836 358.036 531.675 358.036H557.911C558.75 358.036 559.43 357.356 559.43 356.517C559.43 355.678 558.749 354.998 557.911 354.998Z" stroke="white" stroke-width="3.282" stroke-miterlimit="10" stroke-linecap="round" stroke-linejoin="round"/>
<path d="M550.846 343.761H550.442C550.339 343.417 550.202 343.087 550.034 342.776L550.32 342.49C550.665 342.146 550.665 341.588 550.32 341.244L549.433 340.357C549.089 340.012 548.531 340.012 548.187 340.357L547.901 340.643C547.59 340.475 547.26 340.338 546.916 340.235V339.831C546.916 339.344 546.521 338.949 546.035 338.949H544.779C544.293 338.949 543.898 339.344 543.898 339.831V340.235C543.554 340.338 543.224 340.475 542.913 340.643L542.627 340.357C542.283 340.012 541.725 340.012 541.381 340.357L540.494 341.244C540.149 341.589 540.149 342.146 540.494 342.49L540.78 342.776C540.612 343.087 540.475 343.417 540.372 343.761H539.967C539.481 343.761 539.086 344.156 539.086 344.642V345.898C539.086 346.384 539.481 346.779 539.967 346.779H540.372C540.475 347.123 540.612 347.453 540.779 347.764L540.493 348.05C540.149 348.394 540.149 348.952 540.493 349.296L541.381 350.183C541.725 350.528 542.283 350.528 542.627 350.183L542.913 349.897C543.224 350.065 543.554 350.202 543.898 350.305V350.709C543.898 351.196 544.292 351.591 544.779 351.591H546.034C546.521 351.591 546.916 351.196 546.916 350.709V350.305C547.26 350.202 547.59 350.065 547.9 349.897L548.186 350.183C548.53 350.527 549.089 350.527 549.433 350.183L550.32 349.296C550.664 348.952 550.664 348.394 550.32 348.05L550.034 347.764C550.202 347.453 550.338 347.123 550.441 346.779H550.846C551.333 346.779 551.728 346.384 551.728 345.898V344.642C551.728 344.156 551.333 343.761 550.846 343.761ZM545.407 348.134C543.825 348.134 542.543 346.852 542.543 345.27C542.543 343.689 543.825 342.407 545.407 342.407C546.988 342.407 548.27 343.689 548.27 345.27C548.27 346.852 546.989 348.134 545.407 348.134Z" fill="white"/>
<path d="M302.508 29.021V15.9102H321.216" stroke="white" stroke-width="3.282" stroke-miterlimit="10" stroke-linecap="round" stroke-linejoin="round"/>
<path d="M325.8 29.021V15.9102H321.219" stroke="white" stroke-width="3.282" stroke-miterlimit="10" stroke-linecap="round" stroke-linejoin="round"/>
<path d="M326.763 30.3691H318.328V31.1742C318.328 31.4906 318.072 31.7473 317.755 31.7473H309.534C309.218 31.7473 308.961 31.4909 308.961 31.1742V30.3691H300.527C299.688 30.3691 299.008 31.0492 299.008 31.8881C299.008 32.7269 299.688 33.407 300.527 33.407H326.762C327.601 33.407 328.281 32.7269 328.281 31.8881C328.281 31.0492 327.601 30.3691 326.763 30.3691Z" stroke="white" stroke-width="3.282" stroke-miterlimit="10" stroke-linecap="round" stroke-linejoin="round"/>
<path d="M306.703 27.8217H305.52C305.349 27.8217 305.211 27.6832 305.211 27.512V21.8855C305.211 21.7147 305.349 21.5762 305.52 21.5762H306.703C306.874 21.5762 307.012 21.7147 307.012 21.8855V27.512C307.012 27.6832 306.874 27.8217 306.703 27.8217Z" fill="white"/>
<path d="M309.133 27.8215H307.95C307.779 27.8215 307.641 27.6831 307.641 27.5119V20.5984C307.641 20.4276 307.779 20.2891 307.95 20.2891H309.133C309.303 20.2891 309.442 20.4276 309.442 20.5984V27.5119C309.442 27.6831 309.303 27.8215 309.133 27.8215Z" fill="white"/>
<path d="M311.554 27.8204H310.372C310.201 27.8204 310.062 27.6819 310.062 27.5108V18.8523C310.062 18.6815 310.201 18.543 310.372 18.543H311.554C311.725 18.543 311.864 18.6815 311.864 18.8523V27.5108C311.864 27.6819 311.725 27.8204 311.554 27.8204Z" fill="white"/>
<path d="M314.445 20.0938H323.187" stroke="white" stroke-width="0.547" stroke-miterlimit="10" stroke-linecap="round" stroke-linejoin="round"/>
<path d="M314.445 20.709H323.187" stroke="white" stroke-width="0.547" stroke-miterlimit="10" stroke-linecap="round" stroke-linejoin="round"/>
<path d="M317.078 21.3262H323.189" stroke="white" stroke-width="0.547" stroke-miterlimit="10" stroke-linecap="round" stroke-linejoin="round"/>
<path d="M317.078 21.9414H323.189" stroke="white" stroke-width="0.547" stroke-miterlimit="10" stroke-linecap="round" stroke-linejoin="round"/>
<path d="M317.078 22.5566H323.189" stroke="white" stroke-width="0.547" stroke-miterlimit="10" stroke-linecap="round" stroke-linejoin="round"/>
<path d="M314.539 23.6973H323.281" stroke="white" stroke-width="0.547" stroke-miterlimit="10" stroke-linecap="round" stroke-linejoin="round"/>
<path d="M314.539 24.3105H323.281" stroke="white" stroke-width="0.547" stroke-miterlimit="10" stroke-linecap="round" stroke-linejoin="round"/>
<path d="M317.172 24.9277H323.283" stroke="white" stroke-width="0.547" stroke-miterlimit="10" stroke-linecap="round" stroke-linejoin="round"/>
<path d="M317.172 25.5449H323.283" stroke="white" stroke-width="0.547" stroke-miterlimit="10" stroke-linecap="round" stroke-linejoin="round"/>
<path d="M317.172 26.1602H323.283" stroke="white" stroke-width="0.547" stroke-miterlimit="10" stroke-linecap="round" stroke-linejoin="round"/>
<path d="M121.495 30.6406H111V34.163H121.495V30.6406Z" fill="white"/>
<path d="M126.142 32.4023H106.352V54.1424H126.142V32.4023Z" stroke="white" stroke-width="3.3052" stroke-miterlimit="10" stroke-linecap="round" stroke-linejoin="round"/>
<path d="M118.022 29.9836C118.022 30.9668 117.225 31.764 116.241 31.764C115.258 31.764 114.461 30.9668 114.461 29.9836C114.461 29.0003 115.258 28.2031 116.241 28.2031C117.225 28.2031 118.022 29.0003 118.022 29.9836Z" stroke="white" stroke-width="2.2034" stroke-miterlimit="10"/>
<path d="M110.727 38.6484H121.762" stroke="white" stroke-width="3.3052" stroke-miterlimit="10" stroke-linecap="round" stroke-linejoin="round"/>
<path d="M110.727 41.75H121.762" stroke="white" stroke-width="3.3052" stroke-miterlimit="10" stroke-linecap="round" stroke-linejoin="round"/>
<path d="M110.727 44.8535H121.762" stroke="white" stroke-width="3.3052" stroke-miterlimit="10" stroke-linecap="round" stroke-linejoin="round"/>
<path d="M110.727 47.9512H121.762" stroke="white" stroke-width="3.3052" stroke-miterlimit="10" stroke-linecap="round" stroke-linejoin="round"/>
<path d="M110.727 51.0527H121.762" stroke="white" stroke-width="3.3052" stroke-miterlimit="10" stroke-linecap="round" stroke-linejoin="round"/>
<path d="M89.2091 353.578L86.2812 356.506L90.9631 361.188C91.3687 361.591 91.8968 361.794 92.4271 361.794C92.9572 361.794 93.4855 361.591 93.8911 361.188C94.6985 360.378 94.6985 359.069 93.8911 358.26L89.2091 353.578Z" fill="white"/>
<path d="M71.3646 344.349L73.6191 349.885C73.6973 350.181 73.9279 350.411 74.2237 350.489L79.4601 350.593C80.0571 350.606 80.6246 350.848 81.0468 351.269L82.3116 352.534L85.2374 349.608L83.9727 348.343C83.5524 347.921 83.3106 347.353 83.2974 346.756L83.1932 341.52C83.115 341.224 82.8844 340.993 82.5905 340.915L77.055 338.661C76.9823 338.642 76.908 338.633 76.8337 338.633C76.6105 338.633 76.3909 338.72 76.2291 338.882C75.8961 339.217 75.8961 339.756 76.2291 340.091L79.3539 343.216C79.6886 343.549 79.6886 344.09 79.3539 344.425L77.1293 346.649C76.7946 346.984 76.255 346.984 75.9203 346.649L72.7951 343.524C72.4621 343.19 71.9208 343.19 71.5861 343.524C71.3702 343.741 71.2866 344.055 71.3646 344.349Z" fill="white"/>
<path d="M95.2837 338.883C95.6173 339.217 95.6173 339.758 95.2837 340.091L92.158 343.217C91.8244 343.551 91.8244 344.092 92.158 344.425L94.3835 346.651C94.7171 346.984 95.2581 346.984 95.5917 346.651L98.7174 343.525C99.0509 343.191 99.592 343.191 99.9255 343.525C100.141 343.741 100.226 344.055 100.147 344.35L97.8932 349.886C97.8141 350.181 97.5838 350.411 97.2891 350.49L92.0516 350.594C91.4557 350.606 90.8876 350.848 90.4662 351.27L80.5492 361.187C79.7408 361.995 78.4301 361.995 77.622 361.187C76.8135 360.378 76.8135 359.068 77.622 358.259L87.539 348.342C87.9604 347.921 88.2025 347.353 88.2143 346.757L88.3187 341.52C88.3978 341.225 88.6281 340.995 88.9228 340.915L94.4584 338.662C94.7534 338.583 95.0678 338.667 95.2837 338.883Z" fill="white"/>
<path d="M308.172 372.075V366.551H310.419" stroke="white" stroke-width="1.6096" stroke-miterlimit="10" stroke-linecap="round" stroke-linejoin="round"/>
<path d="M319.598 372.075V366.551H317.352" stroke="white" stroke-width="1.6096" stroke-miterlimit="10" stroke-linecap="round" stroke-linejoin="round"/>
<path d="M320.073 372.736H315.936V373.131C315.936 373.286 315.81 373.412 315.655 373.412H311.623C311.468 373.412 311.342 373.286 311.342 373.131V372.736H307.206C306.795 372.736 306.461 373.07 306.461 373.481C306.461 373.892 306.795 374.226 307.206 374.226H320.073C320.484 374.226 320.817 373.892 320.817 373.481C320.817 373.07 320.484 372.736 320.073 372.736Z" stroke="white" stroke-width="1.6096" stroke-miterlimit="10" stroke-linecap="round" stroke-linejoin="round"/>
<path d="M316.61 367.225H316.412C316.361 367.056 316.295 366.894 316.212 366.742L316.352 366.602C316.521 366.433 316.521 366.159 316.352 365.991L315.917 365.555C315.748 365.387 315.475 365.387 315.306 365.555L315.166 365.696C315.014 365.613 314.852 365.546 314.683 365.496V365.297C314.683 365.059 314.49 364.865 314.251 364.865H313.635C313.397 364.865 313.203 365.059 313.203 365.297V365.496C313.034 365.546 312.873 365.613 312.72 365.696L312.58 365.555C312.411 365.387 312.138 365.387 311.969 365.555L311.534 365.991C311.365 366.16 311.365 366.433 311.534 366.602L311.674 366.742C311.592 366.894 311.525 367.056 311.474 367.225H311.276C311.037 367.225 310.844 367.418 310.844 367.657V368.273C310.844 368.511 311.037 368.705 311.276 368.705H311.474C311.525 368.874 311.592 369.035 311.674 369.188L311.534 369.328C311.365 369.496 311.365 369.77 311.534 369.939L311.969 370.374C312.138 370.543 312.412 370.543 312.58 370.374L312.72 370.234C312.873 370.316 313.035 370.383 313.203 370.434V370.632C313.203 370.871 313.397 371.064 313.635 371.064H314.251C314.49 371.064 314.683 370.871 314.683 370.632V370.434C314.852 370.383 315.014 370.316 315.166 370.234L315.306 370.374C315.475 370.543 315.748 370.543 315.917 370.374L316.352 369.939C316.521 369.77 316.521 369.496 316.352 369.327L316.212 369.187C316.294 369.035 316.361 368.873 316.412 368.705H316.61C316.849 368.705 317.043 368.511 317.043 368.272V367.657C317.043 367.418 316.849 367.225 316.61 367.225ZM313.943 369.369C313.167 369.369 312.538 368.74 312.538 367.965C312.538 367.189 313.167 366.56 313.943 366.56C314.718 366.56 315.347 367.189 315.347 367.965C315.347 368.74 314.719 369.369 313.943 369.369Z" fill="white"/>
<path d="M305.62 356.53C307.467 354.683 307.467 351.688 305.62 349.841C303.772 347.994 300.778 347.994 298.93 349.841C297.083 351.688 297.083 354.683 298.93 356.53C300.778 358.377 303.772 358.377 305.62 356.53Z" stroke="white" stroke-width="2.4176" stroke-miterlimit="10"/>
<path d="M299.43 353.181L301.895 356.031L305.131 351.023" stroke="white" stroke-width="2.4176" stroke-miterlimit="10" stroke-linecap="round" stroke-linejoin="round"/>
<path d="M328.338 356.53C330.185 354.683 330.185 351.688 328.338 349.841C326.491 347.994 323.496 347.994 321.649 349.841C319.802 351.688 319.802 354.683 321.649 356.53C323.496 358.377 326.491 358.377 328.338 356.53Z" stroke="white" stroke-width="2.4176" stroke-miterlimit="10"/>
<path d="M322.773 350.969L327.226 356.085" stroke="white" stroke-width="2.3347" stroke-miterlimit="10" stroke-linecap="round" stroke-linejoin="round"/>
<path d="M322.836 356.011L327.162 351.041" stroke="white" stroke-width="2.3347" stroke-miterlimit="10" stroke-linecap="round" stroke-linejoin="round"/>
<path d="M307.016 353.184H320.267" stroke="white" stroke-width="2.4176" stroke-miterlimit="10" stroke-linecap="round" stroke-linejoin="round"/>
<path d="M302.289 357.918V369.069H305.694" stroke="white" stroke-width="2.4176" stroke-miterlimit="10" stroke-linecap="round" stroke-linejoin="round"/>
<path d="M325.092 357.918V369.069H321.688" stroke="white" stroke-width="2.4176" stroke-miterlimit="10" stroke-linecap="round" stroke-linejoin="round"/>
<path d="M514.354 48.0212L516.224 51.0622L523.866 46.8296L521.415 44.2461L514.312 47.9519L507.208 44.2461L504.758 46.8296L512.4 51.0622L514.269 48.0212C514.289 47.9897 514.335 47.9897 514.354 48.0212Z" stroke="white" stroke-width="1.7476" stroke-miterlimit="10" stroke-linecap="round" stroke-linejoin="round"/>
<path d="M506.883 48.0078V52.0926L514.304 55.8167L514.262 48.0185" stroke="white" stroke-width="1.7476" stroke-miterlimit="10" stroke-linecap="round" stroke-linejoin="round"/>
<path d="M521.742 48.0078V52.0926L514.32 55.8167L514.363 48.0185" stroke="white" stroke-width="1.7476" stroke-miterlimit="10" stroke-linecap="round" stroke-linejoin="round"/>
<path d="M507.211 44.246L510.604 42.4473" stroke="white" stroke-width="1.7476" stroke-miterlimit="10" stroke-linecap="round" stroke-linejoin="round"/>
<path d="M521.416 44.246L518.023 42.4473" stroke="white" stroke-width="1.7476" stroke-miterlimit="10" stroke-linecap="round" stroke-linejoin="round"/>
<path d="M515.672 41.6191L515.971 43.3059L514.294 45.1153L512.617 43.3059L512.916 41.6191" stroke="white" stroke-width="2.4924" stroke-miterlimit="10" stroke-linecap="round" stroke-linejoin="round"/>
<path d="M514.395 27.7598C514.46 27.7598 514.524 27.7786 514.577 27.8149C515.047 28.1327 517.318 29.8175 517.413 32.7422C517.518 36.0053 516.255 36.7771 516.255 36.7771L518.22 38.2859L517.571 40.6893C517.571 40.6893 516.009 39.2157 514.395 39.2157C512.781 39.2157 511.219 40.6893 511.219 40.6893L510.57 38.2859L512.535 36.7771C512.535 36.7771 511.272 36.0053 511.377 32.7422C511.472 29.8175 513.743 28.133 514.213 27.8149C514.267 27.7789 514.331 27.7598 514.395 27.7598Z" stroke="white" stroke-width="2.4924" stroke-miterlimit="10" stroke-linecap="round" stroke-linejoin="round"/>
<path d="M515.452 32.5969C515.452 33.179 514.98 33.6508 514.398 33.6508C513.816 33.6508 513.344 33.179 513.344 32.5969C513.344 32.0148 513.816 31.543 514.398 31.543C514.98 31.543 515.452 32.015 515.452 32.5969Z" stroke="white" stroke-width="3.3816" stroke-miterlimit="10" stroke-linecap="round" stroke-linejoin="round"/>
</svg>
