<svg width="737" height="572" viewBox="0 0 737 572" fill="none" xmlns="http://www.w3.org/2000/svg">
<g filter="url(#filter0_d_2280_27923)">
<rect x="33" y="390" width="216" height="76" rx="10" fill="white" shape-rendering="crispEdges"/>
<rect x="49" y="404" width="48" height="48" rx="10" fill="#EDFCFF"/>
<path d="M67.2211 442C66.9957 441.999 66.7764 441.923 66.5955 441.782C66.403 441.63 66.2665 441.413 66.2095 441.168C66.1525 440.923 66.1784 440.665 66.2827 440.438L70.4283 431.377L63.9347 430.674C63.7349 430.652 63.5454 430.571 63.3889 430.439C63.2324 430.307 63.1156 430.131 63.0526 429.931C62.9896 429.731 62.983 429.517 63.0337 429.314C63.0844 429.11 63.1902 428.926 63.3383 428.784L78.5691 414.299C78.7491 414.12 78.9838 414.015 79.2313 414.001C79.4787 413.988 79.7226 414.067 79.9193 414.225C80.1161 414.382 80.2528 414.608 80.305 414.861C80.3571 415.115 80.3213 415.38 80.204 415.608L75.6539 425.21L82.0682 425.947C82.2688 425.97 82.4589 426.053 82.6154 426.186C82.7719 426.319 82.8881 426.497 82.9499 426.698C83.0117 426.899 83.0164 427.114 82.9636 427.318C82.9107 427.522 82.8025 427.705 82.6521 427.846L67.9176 441.716C67.7276 441.899 67.479 442 67.2211 442ZM66.4704 428.754L72.1132 429.365C72.2796 429.382 72.4397 429.441 72.5798 429.537C72.7199 429.633 72.8359 429.762 72.9181 429.915C72.9987 430.068 73.0435 430.238 73.0485 430.413C73.0536 430.587 73.0189 430.761 72.9473 430.919L70.4449 436.413L79.5284 427.846L73.944 427.2C73.7764 427.183 73.6152 427.123 73.4743 427.027C73.3334 426.93 73.217 426.799 73.135 426.645C73.053 426.491 73.0079 426.319 73.0035 426.142C72.9991 425.966 73.0357 425.791 73.1099 425.633L75.8833 419.802L66.4704 428.754Z" fill="#06D4F3"/>
<path d="M108.26 434.5V421.54H113.381C113.507 421.54 113.657 421.546 113.831 421.558C114.005 421.564 114.173 421.582 114.335 421.612C115.037 421.72 115.625 421.96 116.099 422.332C116.579 422.704 116.939 423.175 117.179 423.745C117.419 424.309 117.539 424.936 117.539 425.626C117.539 426.628 117.278 427.498 116.756 428.236C116.234 428.968 115.469 429.427 114.461 429.613L113.849 429.712H109.862V434.5H108.26ZM115.973 434.5L113.417 429.226L115.001 428.74L117.809 434.5H115.973ZM109.862 428.191H113.327C113.441 428.191 113.57 428.185 113.714 428.173C113.864 428.161 114.005 428.14 114.137 428.11C114.551 428.014 114.887 427.84 115.145 427.588C115.409 427.33 115.601 427.03 115.721 426.688C115.841 426.34 115.901 425.986 115.901 425.626C115.901 425.266 115.841 424.915 115.721 424.573C115.601 424.225 115.409 423.922 115.145 423.664C114.887 423.406 114.551 423.232 114.137 423.142C114.005 423.106 113.864 423.085 113.714 423.079C113.57 423.067 113.441 423.061 113.327 423.061H109.862V428.191ZM124.003 434.77C123.049 434.77 122.215 434.56 121.501 434.14C120.793 433.714 120.241 433.123 119.845 432.367C119.449 431.605 119.251 430.717 119.251 429.703C119.251 428.641 119.446 427.723 119.836 426.949C120.226 426.169 120.769 425.569 121.465 425.149C122.167 424.723 122.989 424.51 123.931 424.51C124.909 424.51 125.74 424.735 126.424 425.185C127.114 425.635 127.63 426.277 127.972 427.111C128.32 427.945 128.47 428.938 128.422 430.09H126.802V429.514C126.784 428.32 126.541 427.429 126.073 426.841C125.605 426.247 124.909 425.95 123.985 425.95C122.995 425.95 122.242 426.268 121.726 426.904C121.21 427.54 120.952 428.452 120.952 429.64C120.952 430.786 121.21 431.674 121.726 432.304C122.242 432.934 122.977 433.249 123.931 433.249C124.573 433.249 125.131 433.102 125.605 432.808C126.079 432.514 126.451 432.091 126.721 431.539L128.26 432.07C127.882 432.928 127.312 433.594 126.55 434.068C125.794 434.536 124.945 434.77 124.003 434.77ZM120.412 430.09V428.803H127.594V430.09H120.412ZM133.013 434.77C132.287 434.77 131.678 434.638 131.186 434.374C130.7 434.104 130.331 433.75 130.079 433.312C129.833 432.874 129.71 432.394 129.71 431.872C129.71 431.362 129.806 430.921 129.998 430.549C130.196 430.171 130.472 429.859 130.826 429.613C131.18 429.361 131.603 429.163 132.095 429.019C132.557 428.893 133.073 428.785 133.643 428.695C134.219 428.599 134.801 428.512 135.389 428.434C135.977 428.356 136.526 428.281 137.036 428.209L136.46 428.542C136.478 427.678 136.304 427.039 135.938 426.625C135.578 426.211 134.954 426.004 134.066 426.004C133.478 426.004 132.962 426.139 132.518 426.409C132.08 426.673 131.771 427.105 131.591 427.705L130.07 427.246C130.304 426.394 130.757 425.725 131.429 425.239C132.101 424.753 132.986 424.51 134.084 424.51C134.966 424.51 135.722 424.669 136.352 424.987C136.988 425.299 137.444 425.773 137.72 426.409C137.858 426.709 137.945 427.036 137.981 427.39C138.017 427.738 138.035 428.104 138.035 428.488V434.5H136.613V432.169L136.946 432.385C136.58 433.171 136.067 433.765 135.407 434.167C134.753 434.569 133.955 434.77 133.013 434.77ZM133.256 433.429C133.832 433.429 134.33 433.327 134.75 433.123C135.176 432.913 135.518 432.64 135.776 432.304C136.034 431.962 136.202 431.59 136.28 431.188C136.37 430.888 136.418 430.555 136.424 430.189C136.436 429.817 136.442 429.532 136.442 429.334L137 429.577C136.478 429.649 135.965 429.718 135.461 429.784C134.957 429.85 134.48 429.922 134.03 430C133.58 430.072 133.175 430.159 132.815 430.261C132.551 430.345 132.302 430.453 132.068 430.585C131.84 430.717 131.654 430.888 131.51 431.098C131.372 431.302 131.303 431.557 131.303 431.863C131.303 432.127 131.369 432.379 131.501 432.619C131.639 432.859 131.849 433.054 132.131 433.204C132.419 433.354 132.794 433.429 133.256 433.429ZM140.555 434.5V421.27H142.157V434.5H140.555ZM144.678 429.487V428.164H150.078V429.487H144.678ZM157.843 434.5C157.267 434.614 156.697 434.659 156.133 434.635C155.575 434.617 155.077 434.506 154.639 434.302C154.201 434.092 153.868 433.768 153.64 433.33C153.448 432.946 153.343 432.559 153.325 432.169C153.313 431.773 153.307 431.326 153.307 430.828V422.08H154.909V430.756C154.909 431.152 154.912 431.491 154.918 431.773C154.93 432.055 154.993 432.298 155.107 432.502C155.323 432.886 155.665 433.111 156.133 433.177C156.607 433.243 157.177 433.225 157.843 433.123V434.5ZM151.336 426.103V424.78H157.843V426.103H151.336ZM159.997 423.061V421.405H161.599V423.061H159.997ZM159.997 434.5V424.78H161.599V434.5H159.997ZM175.918 434.5L175.927 428.281C175.927 427.555 175.732 426.988 175.342 426.58C174.958 426.166 174.457 425.959 173.839 425.959C173.479 425.959 173.137 426.043 172.813 426.211C172.489 426.373 172.225 426.631 172.021 426.985C171.817 427.333 171.715 427.78 171.715 428.326L170.869 427.984C170.857 427.294 170.998 426.691 171.292 426.175C171.592 425.653 172 425.248 172.516 424.96C173.032 424.672 173.614 424.528 174.262 424.528C175.276 424.528 176.074 424.837 176.656 425.455C177.238 426.067 177.529 426.892 177.529 427.93L177.52 434.5H175.918ZM164.29 434.5V424.78H165.721V427.381H165.901V434.5H164.29ZM170.113 434.5L170.122 428.344C170.122 427.6 169.93 427.018 169.546 426.598C169.162 426.172 168.652 425.959 168.016 425.959C167.386 425.959 166.876 426.175 166.486 426.607C166.096 427.039 165.901 427.612 165.901 428.326L165.055 427.822C165.055 427.192 165.205 426.628 165.505 426.13C165.805 425.632 166.213 425.242 166.729 424.96C167.245 424.672 167.83 424.528 168.484 424.528C169.138 424.528 169.708 424.666 170.194 424.942C170.68 425.218 171.055 425.614 171.319 426.13C171.583 426.64 171.715 427.249 171.715 427.957L171.706 434.5H170.113ZM183.997 434.77C183.043 434.77 182.209 434.56 181.495 434.14C180.787 433.714 180.235 433.123 179.839 432.367C179.443 431.605 179.245 430.717 179.245 429.703C179.245 428.641 179.44 427.723 179.83 426.949C180.22 426.169 180.763 425.569 181.459 425.149C182.161 424.723 182.983 424.51 183.925 424.51C184.903 424.51 185.734 424.735 186.418 425.185C187.108 425.635 187.624 426.277 187.966 427.111C188.314 427.945 188.464 428.938 188.416 430.09H186.796V429.514C186.778 428.32 186.535 427.429 186.067 426.841C185.599 426.247 184.903 425.95 183.979 425.95C182.989 425.95 182.236 426.268 181.72 426.904C181.204 427.54 180.946 428.452 180.946 429.64C180.946 430.786 181.204 431.674 181.72 432.304C182.236 432.934 182.971 433.249 183.925 433.249C184.567 433.249 185.125 433.102 185.599 432.808C186.073 432.514 186.445 432.091 186.715 431.539L188.254 432.07C187.876 432.928 187.306 433.594 186.544 434.068C185.788 434.536 184.939 434.77 183.997 434.77ZM180.406 430.09V428.803H187.588V430.09H180.406ZM194.024 434.5V421.54H198.02C198.152 421.54 198.383 421.543 198.713 421.549C199.043 421.555 199.358 421.579 199.658 421.621C200.66 421.753 201.497 422.119 202.169 422.719C202.847 423.313 203.357 424.069 203.699 424.987C204.041 425.905 204.212 426.916 204.212 428.02C204.212 429.124 204.041 430.135 203.699 431.053C203.357 431.971 202.847 432.73 202.169 433.33C201.497 433.924 200.66 434.287 199.658 434.419C199.358 434.455 199.04 434.479 198.704 434.491C198.374 434.497 198.146 434.5 198.02 434.5H194.024ZM195.671 432.97H198.02C198.248 432.97 198.503 432.964 198.785 432.952C199.067 432.934 199.313 432.907 199.523 432.871C200.231 432.739 200.804 432.442 201.242 431.98C201.68 431.518 202.001 430.942 202.205 430.252C202.409 429.562 202.511 428.818 202.511 428.02C202.511 427.204 202.406 426.451 202.196 425.761C201.992 425.071 201.671 424.498 201.233 424.042C200.795 423.586 200.225 423.295 199.523 423.169C199.313 423.127 199.064 423.1 198.776 423.088C198.488 423.076 198.236 423.07 198.02 423.07H195.671V432.97ZM209.039 434.77C208.313 434.77 207.704 434.638 207.212 434.374C206.726 434.104 206.357 433.75 206.105 433.312C205.859 432.874 205.736 432.394 205.736 431.872C205.736 431.362 205.832 430.921 206.024 430.549C206.222 430.171 206.498 429.859 206.852 429.613C207.206 429.361 207.629 429.163 208.121 429.019C208.583 428.893 209.099 428.785 209.669 428.695C210.245 428.599 210.827 428.512 211.415 428.434C212.003 428.356 212.552 428.281 213.062 428.209L212.486 428.542C212.504 427.678 212.33 427.039 211.964 426.625C211.604 426.211 210.98 426.004 210.092 426.004C209.504 426.004 208.988 426.139 208.544 426.409C208.106 426.673 207.797 427.105 207.617 427.705L206.096 427.246C206.33 426.394 206.783 425.725 207.455 425.239C208.127 424.753 209.012 424.51 210.11 424.51C210.992 424.51 211.748 424.669 212.378 424.987C213.014 425.299 213.47 425.773 213.746 426.409C213.884 426.709 213.971 427.036 214.007 427.39C214.043 427.738 214.061 428.104 214.061 428.488V434.5H212.639V432.169L212.972 432.385C212.606 433.171 212.093 433.765 211.433 434.167C210.779 434.569 209.981 434.77 209.039 434.77ZM209.282 433.429C209.858 433.429 210.356 433.327 210.776 433.123C211.202 432.913 211.544 432.64 211.802 432.304C212.06 431.962 212.228 431.59 212.306 431.188C212.396 430.888 212.444 430.555 212.45 430.189C212.462 429.817 212.468 429.532 212.468 429.334L213.026 429.577C212.504 429.649 211.991 429.718 211.487 429.784C210.983 429.85 210.506 429.922 210.056 430C209.606 430.072 209.201 430.159 208.841 430.261C208.577 430.345 208.328 430.453 208.094 430.585C207.866 430.717 207.68 430.888 207.536 431.098C207.398 431.302 207.329 431.557 207.329 431.863C207.329 432.127 207.395 432.379 207.527 432.619C207.665 432.859 207.875 433.054 208.157 433.204C208.445 433.354 208.82 433.429 209.282 433.429ZM221.828 434.5C221.252 434.614 220.682 434.659 220.118 434.635C219.56 434.617 219.062 434.506 218.624 434.302C218.186 434.092 217.853 433.768 217.625 433.33C217.433 432.946 217.328 432.559 217.31 432.169C217.298 431.773 217.292 431.326 217.292 430.828V422.08H218.894V430.756C218.894 431.152 218.897 431.491 218.903 431.773C218.915 432.055 218.978 432.298 219.092 432.502C219.308 432.886 219.65 433.111 220.118 433.177C220.592 433.243 221.162 433.225 221.828 433.123V434.5ZM215.321 426.103V424.78H221.828V426.103H215.321ZM226.564 434.77C225.838 434.77 225.229 434.638 224.737 434.374C224.251 434.104 223.882 433.75 223.63 433.312C223.384 432.874 223.261 432.394 223.261 431.872C223.261 431.362 223.357 430.921 223.549 430.549C223.747 430.171 224.023 429.859 224.377 429.613C224.731 429.361 225.154 429.163 225.646 429.019C226.108 428.893 226.624 428.785 227.194 428.695C227.77 428.599 228.352 428.512 228.94 428.434C229.528 428.356 230.077 428.281 230.587 428.209L230.011 428.542C230.029 427.678 229.855 427.039 229.489 426.625C229.129 426.211 228.505 426.004 227.617 426.004C227.029 426.004 226.513 426.139 226.069 426.409C225.631 426.673 225.322 427.105 225.142 427.705L223.621 427.246C223.855 426.394 224.308 425.725 224.98 425.239C225.652 424.753 226.537 424.51 227.635 424.51C228.517 424.51 229.273 424.669 229.903 424.987C230.539 425.299 230.995 425.773 231.271 426.409C231.409 426.709 231.496 427.036 231.532 427.39C231.568 427.738 231.586 428.104 231.586 428.488V434.5H230.164V432.169L230.497 432.385C230.131 433.171 229.618 433.765 228.958 434.167C228.304 434.569 227.506 434.77 226.564 434.77ZM226.807 433.429C227.383 433.429 227.881 433.327 228.301 433.123C228.727 432.913 229.069 432.64 229.327 432.304C229.585 431.962 229.753 431.59 229.831 431.188C229.921 430.888 229.969 430.555 229.975 430.189C229.987 429.817 229.993 429.532 229.993 429.334L230.551 429.577C230.029 429.649 229.516 429.718 229.012 429.784C228.508 429.85 228.031 429.922 227.581 430C227.131 430.072 226.726 430.159 226.366 430.261C226.102 430.345 225.853 430.453 225.619 430.585C225.391 430.717 225.205 430.888 225.061 431.098C224.923 431.302 224.854 431.557 224.854 431.863C224.854 432.127 224.92 432.379 225.052 432.619C225.19 432.859 225.4 433.054 225.682 433.204C225.97 433.354 226.345 433.429 226.807 433.429Z" fill="black"/>
</g>
<g filter="url(#filter1_d_2280_27923)">
<rect x="431" y="456" width="189" height="76" rx="10" fill="white" shape-rendering="crispEdges"/>
<rect x="447" y="470" width="48" height="48" rx="10" fill="#EDFCFF"/>
<path d="M471.002 501V485.833M471.002 501C471.003 501.638 471.135 502.269 471.389 502.854C471.643 503.439 472.014 503.966 472.48 504.402C472.945 504.837 473.495 505.173 474.096 505.388C474.696 505.603 475.335 505.693 475.971 505.652C476.608 505.61 477.229 505.439 477.797 505.148C478.365 504.857 478.867 504.453 479.272 503.961C479.677 503.468 479.978 502.898 480.154 502.285C480.33 501.672 480.379 501.029 480.297 500.397M471.002 501C471.002 501.638 470.87 502.269 470.616 502.854C470.362 503.439 469.991 503.966 469.525 504.402C469.059 504.837 468.509 505.173 467.909 505.388C467.308 505.603 466.67 505.693 466.034 505.652C465.397 505.61 464.776 505.439 464.208 505.148C463.64 504.857 463.138 504.453 462.733 503.961C462.327 503.468 462.027 502.898 461.851 502.285C461.675 501.672 461.626 501.029 461.708 500.397M471.002 485.833C471.002 485.296 471.126 484.767 471.363 484.285C471.601 483.804 471.946 483.383 472.372 483.056C472.798 482.729 473.293 482.505 473.82 482.4C474.346 482.296 474.89 482.313 475.408 482.452C475.927 482.591 476.407 482.848 476.81 483.202C477.214 483.556 477.531 483.998 477.736 484.494C477.941 484.99 478.03 485.526 477.995 486.062C477.96 486.598 477.802 487.118 477.533 487.583M471.002 485.833C471.002 485.296 470.879 484.767 470.642 484.285C470.404 483.804 470.059 483.383 469.633 483.056C469.207 482.729 468.712 482.505 468.185 482.4C467.659 482.296 467.115 482.313 466.597 482.452C466.078 482.591 465.598 482.848 465.195 483.202C464.791 483.556 464.474 483.998 464.269 484.494C464.063 484.99 463.975 485.526 464.01 486.062C464.045 486.598 464.203 487.118 464.471 487.583M474.502 495.166C473.493 494.871 472.606 494.257 471.975 493.416C471.344 492.575 471.003 491.551 471.002 490.5C471.002 491.551 470.66 492.575 470.029 493.416C469.398 494.257 468.512 494.871 467.502 495.166M477.999 485.979C478.685 486.155 479.321 486.485 479.861 486.944C480.4 487.403 480.828 487.979 481.112 488.627C481.396 489.276 481.528 489.981 481.5 490.688C481.471 491.396 481.282 492.087 480.946 492.711M478.002 501C479.03 501 480.028 500.661 480.843 500.035C481.658 499.41 482.244 498.533 482.51 497.541C482.776 496.549 482.707 495.496 482.314 494.547C481.921 493.598 481.225 492.806 480.336 492.292M464.002 501C462.975 501 461.977 500.661 461.162 500.035C460.347 499.41 459.761 498.533 459.495 497.541C459.229 496.549 459.298 495.496 459.691 494.547C460.084 493.598 460.779 492.806 461.669 492.292M464.006 485.979C463.32 486.155 462.683 486.485 462.144 486.944C461.605 487.403 461.177 487.979 460.893 488.627C460.609 489.276 460.476 489.981 460.505 490.688C460.534 491.396 460.723 492.087 461.059 492.711" stroke="#00B8DB" stroke-width="2" stroke-linecap="round" stroke-linejoin="round"/>
<path d="M505.36 500.5L509.698 487.54H511.93L516.268 500.5H514.603L510.544 488.476H511.048L507.025 500.5H505.36ZM507.448 497.467V495.964H514.18V497.467H507.448ZM518.059 500.5V487.54H519.661V500.5H518.059ZM525.065 500.5L529.403 487.54H531.635L535.973 500.5H534.308L530.249 488.476H530.753L526.73 500.5H525.065ZM527.153 497.467V495.964H533.885V497.467H527.153ZM544.505 500.5V495.631C544.505 495.169 544.463 494.725 544.379 494.299C544.301 493.873 544.16 493.492 543.956 493.156C543.758 492.814 543.488 492.544 543.146 492.346C542.81 492.148 542.384 492.049 541.868 492.049C541.466 492.049 541.1 492.118 540.77 492.256C540.446 492.388 540.167 492.592 539.933 492.868C539.699 493.144 539.516 493.492 539.384 493.912C539.258 494.326 539.195 494.815 539.195 495.379L538.142 495.055C538.142 494.113 538.31 493.306 538.646 492.634C538.988 491.956 539.465 491.437 540.077 491.077C540.695 490.711 541.421 490.528 542.255 490.528C542.885 490.528 543.422 490.627 543.866 490.825C544.31 491.023 544.679 491.287 544.973 491.617C545.267 491.941 545.498 492.307 545.666 492.715C545.834 493.117 545.951 493.528 546.017 493.948C546.089 494.362 546.125 494.755 546.125 495.127V500.5H544.505ZM537.575 500.5V490.78H539.015V493.381H539.195V500.5H537.575ZM551.228 500.77C550.502 500.77 549.893 500.638 549.401 500.374C548.915 500.104 548.546 499.75 548.294 499.312C548.048 498.874 547.925 498.394 547.925 497.872C547.925 497.362 548.021 496.921 548.213 496.549C548.411 496.171 548.687 495.859 549.041 495.613C549.395 495.361 549.818 495.163 550.31 495.019C550.772 494.893 551.288 494.785 551.858 494.695C552.434 494.599 553.016 494.512 553.604 494.434C554.192 494.356 554.741 494.281 555.251 494.209L554.675 494.542C554.693 493.678 554.519 493.039 554.153 492.625C553.793 492.211 553.169 492.004 552.281 492.004C551.693 492.004 551.177 492.139 550.733 492.409C550.295 492.673 549.986 493.105 549.806 493.705L548.285 493.246C548.519 492.394 548.972 491.725 549.644 491.239C550.316 490.753 551.201 490.51 552.299 490.51C553.181 490.51 553.937 490.669 554.567 490.987C555.203 491.299 555.659 491.773 555.935 492.409C556.073 492.709 556.16 493.036 556.196 493.39C556.232 493.738 556.25 494.104 556.25 494.488V500.5H554.828V498.169L555.161 498.385C554.795 499.171 554.282 499.765 553.622 500.167C552.968 500.569 552.17 500.77 551.228 500.77ZM551.471 499.429C552.047 499.429 552.545 499.327 552.965 499.123C553.391 498.913 553.733 498.64 553.991 498.304C554.249 497.962 554.417 497.59 554.495 497.188C554.585 496.888 554.633 496.555 554.639 496.189C554.651 495.817 554.657 495.532 554.657 495.334L555.215 495.577C554.693 495.649 554.18 495.718 553.676 495.784C553.172 495.85 552.695 495.922 552.245 496C551.795 496.072 551.39 496.159 551.03 496.261C550.766 496.345 550.517 496.453 550.283 496.585C550.055 496.717 549.869 496.888 549.725 497.098C549.587 497.302 549.518 497.557 549.518 497.863C549.518 498.127 549.584 498.379 549.716 498.619C549.854 498.859 550.064 499.054 550.346 499.204C550.634 499.354 551.009 499.429 551.471 499.429ZM558.77 500.5V487.27H560.372V500.5H558.77ZM564.423 504.82L566.304 499.708L566.331 501.22L562.083 490.78H563.766L567.096 499.177H566.52L569.643 490.78H571.271L565.98 504.82H564.423ZM578.906 500.5C578.33 500.614 577.76 500.659 577.196 500.635C576.638 500.617 576.14 500.506 575.702 500.302C575.264 500.092 574.931 499.768 574.703 499.33C574.511 498.946 574.406 498.559 574.388 498.169C574.376 497.773 574.37 497.326 574.37 496.828V488.08H575.972V496.756C575.972 497.152 575.975 497.491 575.981 497.773C575.993 498.055 576.056 498.298 576.17 498.502C576.386 498.886 576.728 499.111 577.196 499.177C577.67 499.243 578.24 499.225 578.906 499.123V500.5ZM572.399 492.103V490.78H578.906V492.103H572.399ZM581.059 489.061V487.405H582.661V489.061H581.059ZM581.059 500.5V490.78H582.661V500.5H581.059ZM589.457 500.77C588.473 500.77 587.636 500.551 586.946 500.113C586.262 499.669 585.74 499.06 585.38 498.286C585.02 497.512 584.834 496.63 584.822 495.64C584.834 494.626 585.023 493.735 585.389 492.967C585.761 492.193 586.292 491.59 586.982 491.158C587.672 490.726 588.503 490.51 589.475 490.51C590.501 490.51 591.383 490.762 592.121 491.266C592.865 491.77 593.363 492.46 593.615 493.336L592.031 493.813C591.827 493.249 591.494 492.811 591.032 492.499C590.576 492.187 590.051 492.031 589.457 492.031C588.791 492.031 588.242 492.187 587.81 492.499C587.378 492.805 587.057 493.231 586.847 493.777C586.637 494.317 586.529 494.938 586.523 495.64C586.535 496.72 586.784 497.593 587.27 498.259C587.762 498.919 588.491 499.249 589.457 499.249C590.093 499.249 590.621 499.105 591.041 498.817C591.461 498.523 591.779 498.1 591.995 497.548L593.615 497.971C593.279 498.877 592.754 499.57 592.04 500.05C591.326 500.53 590.465 500.77 589.457 500.77ZM599.123 500.761C597.965 500.761 597.014 500.509 596.27 500.005C595.532 499.495 595.079 498.784 594.911 497.872L596.549 497.611C596.681 498.139 596.984 498.559 597.458 498.871C597.932 499.177 598.52 499.33 599.222 499.33C599.888 499.33 600.41 499.192 600.788 498.916C601.166 498.64 601.355 498.265 601.355 497.791C601.355 497.515 601.292 497.293 601.166 497.125C601.04 496.951 600.779 496.789 600.383 496.639C599.993 496.489 599.402 496.309 598.61 496.099C597.752 495.871 597.077 495.634 596.585 495.388C596.093 495.142 595.742 494.857 595.532 494.533C595.322 494.209 595.217 493.816 595.217 493.354C595.217 492.784 595.373 492.286 595.685 491.86C595.997 491.428 596.432 491.095 596.99 490.861C597.554 490.627 598.208 490.51 598.952 490.51C599.69 490.51 600.35 490.627 600.932 490.861C601.514 491.095 601.982 491.428 602.336 491.86C602.696 492.286 602.909 492.784 602.975 493.354L601.337 493.651C601.259 493.129 601.007 492.718 600.581 492.418C600.161 492.118 599.618 491.959 598.952 491.941C598.322 491.917 597.809 492.028 597.413 492.274C597.023 492.52 596.828 492.853 596.828 493.273C596.828 493.507 596.9 493.708 597.044 493.876C597.194 494.044 597.467 494.203 597.863 494.353C598.265 494.503 598.847 494.674 599.609 494.866C600.467 495.082 601.142 495.319 601.634 495.577C602.132 495.829 602.486 496.129 602.696 496.477C602.906 496.819 603.011 497.242 603.011 497.746C603.011 498.682 602.666 499.42 601.976 499.96C601.286 500.494 600.335 500.761 599.123 500.761Z" fill="black"/>
</g>
<g filter="url(#filter2_d_2280_27923)">
<rect x="101" y="41" width="205" height="80" rx="10" fill="white" shape-rendering="crispEdges"/>
<rect x="117" y="57" width="48" height="48" rx="10" fill="#EDFCFF"/>
<path d="M130.5 70.5V89.1667C130.5 89.7855 130.746 90.379 131.183 90.8166C131.621 91.2542 132.214 91.5 132.833 91.5H151.5M148 86.8333V77.5M142.167 86.8333V72.8333M136.333 86.8333V83.3333" stroke="#A14DFF" stroke-width="2" stroke-linecap="round" stroke-linejoin="round"/>
<path d="M181.08 61.31C182.007 61.31 182.843 61.5333 183.59 61.98C184.337 62.42 184.93 63.0267 185.37 63.8C185.81 64.5733 186.03 65.4567 186.03 66.45V71.03C186.03 72.0833 185.81 73.0067 185.37 73.8C184.937 74.5867 184.33 75.2 183.55 75.64C182.777 76.08 181.883 76.3 180.87 76.3C180.11 76.3 179.397 76.1567 178.73 75.87C178.063 75.5833 177.483 75.1567 176.99 74.59L178.53 73.16C178.803 73.5133 179.147 73.7967 179.56 74.01C179.973 74.2233 180.41 74.33 180.87 74.33C181.463 74.33 181.987 74.1867 182.44 73.9C182.9 73.6133 183.257 73.24 183.51 72.78C183.763 72.32 183.89 71.8267 183.89 71.3V68.66L184.31 69.12C183.897 69.66 183.383 70.0867 182.77 70.4C182.157 70.7133 181.5 70.87 180.8 70.87C179.9 70.87 179.1 70.6633 178.4 70.25C177.7 69.8367 177.147 69.2733 176.74 68.56C176.333 67.8467 176.13 67.04 176.13 66.14C176.13 65.24 176.357 64.4267 176.81 63.7C177.263 62.9733 177.863 62.3933 178.61 61.96C179.357 61.5267 180.18 61.31 181.08 61.31ZM181.08 63.33C180.56 63.33 180.083 63.4567 179.65 63.71C179.223 63.9567 178.883 64.2933 178.63 64.72C178.377 65.1467 178.25 65.62 178.25 66.14C178.25 66.66 178.377 67.1367 178.63 67.57C178.883 67.9967 179.223 68.3367 179.65 68.59C180.077 68.8433 180.55 68.97 181.07 68.97C181.59 68.97 182.063 68.8433 182.49 68.59C182.917 68.3367 183.257 67.9967 183.51 67.57C183.763 67.1367 183.89 66.66 183.89 66.14C183.89 65.6267 183.763 65.1567 183.51 64.73C183.263 64.3033 182.927 63.9633 182.5 63.71C182.073 63.4567 181.6 63.33 181.08 63.33ZM188.422 75.99L188.432 74.13L194.702 68.51C195.209 68.0633 195.552 67.6367 195.732 67.23C195.919 66.8233 196.012 66.4167 196.012 66.01C196.012 65.4967 195.899 65.0367 195.672 64.63C195.445 64.2167 195.132 63.89 194.732 63.65C194.332 63.41 193.872 63.29 193.352 63.29C192.819 63.29 192.342 63.4167 191.922 63.67C191.509 63.9167 191.185 64.2467 190.952 64.66C190.719 65.0733 190.605 65.52 190.612 66H188.472C188.472 65.0667 188.682 64.25 189.102 63.55C189.529 62.8433 190.112 62.2933 190.852 61.9C191.592 61.5 192.439 61.3 193.392 61.3C194.299 61.3 195.112 61.5067 195.832 61.92C196.552 62.3267 197.119 62.8867 197.532 63.6C197.952 64.3133 198.162 65.1267 198.162 66.04C198.162 66.7 198.075 67.26 197.902 67.72C197.729 68.18 197.469 68.6067 197.122 69C196.775 69.3933 196.342 69.82 195.822 70.28L190.982 74.6L190.752 74H198.162V75.99H188.422ZM202.36 76L200.96 74.6L213.97 61.6L215.37 63.01L202.36 76ZM212.37 76.3C211.71 76.3 211.107 76.14 210.56 75.82C210.02 75.4933 209.587 75.06 209.26 74.52C208.933 73.9733 208.77 73.3667 208.77 72.7C208.77 72.0467 208.937 71.4467 209.27 70.9C209.603 70.3533 210.043 69.9167 210.59 69.59C211.137 69.2633 211.73 69.1 212.37 69.1C213.03 69.1 213.633 69.2633 214.18 69.59C214.727 69.91 215.16 70.3433 215.48 70.89C215.807 71.43 215.97 72.0333 215.97 72.7C215.97 73.3667 215.807 73.9733 215.48 74.52C215.16 75.06 214.727 75.4933 214.18 75.82C213.633 76.14 213.03 76.3 212.37 76.3ZM212.37 74.49C212.697 74.49 212.993 74.41 213.26 74.25C213.533 74.0833 213.75 73.8633 213.91 73.59C214.077 73.3167 214.16 73.02 214.16 72.7C214.16 72.38 214.077 72.0833 213.91 71.81C213.75 71.5367 213.533 71.32 213.26 71.16C212.993 70.9933 212.697 70.91 212.37 70.91C212.05 70.91 211.753 70.9933 211.48 71.16C211.213 71.32 210.997 71.5367 210.83 71.81C210.67 72.0833 210.59 72.38 210.59 72.7C210.59 73.02 210.67 73.3167 210.83 73.59C210.997 73.8633 211.213 74.0833 211.48 74.25C211.753 74.41 212.05 74.49 212.37 74.49ZM203.96 68.5C203.3 68.5 202.697 68.34 202.15 68.02C201.603 67.6933 201.167 67.26 200.84 66.72C200.52 66.1733 200.36 65.5667 200.36 64.9C200.36 64.2467 200.527 63.6467 200.86 63.1C201.193 62.5533 201.633 62.1167 202.18 61.79C202.727 61.4633 203.32 61.3 203.96 61.3C204.62 61.3 205.22 61.4633 205.76 61.79C206.307 62.11 206.743 62.5433 207.07 63.09C207.397 63.63 207.56 64.2333 207.56 64.9C207.56 65.5667 207.397 66.1733 207.07 66.72C206.743 67.26 206.307 67.6933 205.76 68.02C205.22 68.34 204.62 68.5 203.96 68.5ZM203.96 66.69C204.28 66.69 204.577 66.61 204.85 66.45C205.123 66.2833 205.34 66.0633 205.5 65.79C205.667 65.5167 205.75 65.22 205.75 64.9C205.75 64.58 205.667 64.2833 205.5 64.01C205.34 63.7367 205.123 63.52 204.85 63.36C204.577 63.1933 204.28 63.11 203.96 63.11C203.64 63.11 203.343 63.1933 203.07 63.36C202.803 63.52 202.587 63.7367 202.42 64.01C202.253 64.2833 202.17 64.58 202.17 64.9C202.17 65.22 202.253 65.5167 202.42 65.79C202.587 66.0633 202.803 66.2833 203.07 66.45C203.337 66.61 203.633 66.69 203.96 66.69Z" fill="black"/>
<path d="M180.859 101.27C179.941 101.27 179.113 101.114 178.375 100.802C177.643 100.49 177.037 100.046 176.557 99.47C176.083 98.888 175.774 98.201 175.63 97.409L177.286 97.148C177.496 97.964 177.931 98.603 178.591 99.065C179.257 99.521 180.04 99.749 180.94 99.749C181.522 99.749 182.047 99.659 182.515 99.479C182.989 99.293 183.364 99.029 183.64 98.687C183.916 98.345 184.054 97.94 184.054 97.472C184.054 97.184 184.003 96.938 183.901 96.734C183.805 96.524 183.67 96.347 183.496 96.203C183.328 96.053 183.136 95.927 182.92 95.825C182.704 95.723 182.479 95.639 182.245 95.573L178.942 94.592C178.582 94.484 178.234 94.349 177.898 94.187C177.562 94.019 177.262 93.812 176.998 93.566C176.734 93.314 176.524 93.014 176.368 92.666C176.212 92.312 176.134 91.895 176.134 91.415C176.134 90.647 176.332 89.993 176.728 89.453C177.13 88.907 177.673 88.49 178.357 88.202C179.041 87.914 179.812 87.773 180.67 87.779C181.54 87.785 182.317 87.941 183.001 88.247C183.691 88.547 184.261 88.979 184.711 89.543C185.167 90.107 185.473 90.782 185.629 91.568L183.928 91.865C183.838 91.337 183.637 90.884 183.325 90.506C183.019 90.122 182.635 89.828 182.173 89.624C181.711 89.414 181.204 89.306 180.652 89.3C180.124 89.294 179.647 89.378 179.221 89.552C178.795 89.726 178.456 89.969 178.204 90.281C177.952 90.587 177.826 90.941 177.826 91.343C177.826 91.739 177.94 92.06 178.168 92.306C178.396 92.546 178.675 92.738 179.005 92.882C179.341 93.02 179.668 93.134 179.986 93.224L182.452 93.935C182.734 94.013 183.058 94.121 183.424 94.259C183.796 94.397 184.156 94.592 184.504 94.844C184.852 95.09 185.14 95.42 185.368 95.834C185.596 96.242 185.71 96.758 185.71 97.382C185.71 98.006 185.584 98.561 185.332 99.047C185.086 99.533 184.741 99.941 184.297 100.271C183.853 100.595 183.337 100.841 182.749 101.009C182.161 101.183 181.531 101.27 180.859 101.27ZM191.288 101.252C190.664 101.252 190.127 101.153 189.677 100.955C189.233 100.757 188.864 100.493 188.57 100.163C188.276 99.833 188.045 99.467 187.877 99.065C187.709 98.663 187.589 98.252 187.517 97.832C187.451 97.412 187.418 97.019 187.418 96.653V91.28H189.038V96.149C189.038 96.605 189.08 97.046 189.164 97.472C189.248 97.898 189.389 98.282 189.587 98.624C189.791 98.966 190.061 99.236 190.397 99.434C190.739 99.632 191.165 99.731 191.675 99.731C192.077 99.731 192.443 99.662 192.773 99.524C193.103 99.386 193.385 99.182 193.619 98.912C193.853 98.636 194.033 98.288 194.159 97.868C194.285 97.448 194.348 96.959 194.348 96.401L195.401 96.725C195.401 97.661 195.23 98.468 194.888 99.146C194.552 99.824 194.075 100.346 193.457 100.712C192.845 101.072 192.122 101.252 191.288 101.252ZM194.528 101V98.399H194.348V91.28H195.959V101H194.528ZM202.574 101.27C201.59 101.27 200.753 101.051 200.063 100.613C199.379 100.169 198.857 99.56 198.497 98.786C198.137 98.012 197.951 97.13 197.939 96.14C197.951 95.126 198.14 94.235 198.506 93.467C198.878 92.693 199.409 92.09 200.099 91.658C200.789 91.226 201.62 91.01 202.592 91.01C203.618 91.01 204.5 91.262 205.238 91.766C205.982 92.27 206.48 92.96 206.732 93.836L205.148 94.313C204.944 93.749 204.611 93.311 204.149 92.999C203.693 92.687 203.168 92.531 202.574 92.531C201.908 92.531 201.359 92.687 200.927 92.999C200.495 93.305 200.174 93.731 199.964 94.277C199.754 94.817 199.646 95.438 199.64 96.14C199.652 97.22 199.901 98.093 200.387 98.759C200.879 99.419 201.608 99.749 202.574 99.749C203.21 99.749 203.738 99.605 204.158 99.317C204.578 99.023 204.896 98.6 205.112 98.048L206.732 98.471C206.396 99.377 205.871 100.07 205.157 100.55C204.443 101.03 203.582 101.27 202.574 101.27ZM212.4 101.27C211.416 101.27 210.579 101.051 209.889 100.613C209.205 100.169 208.683 99.56 208.323 98.786C207.963 98.012 207.777 97.13 207.765 96.14C207.777 95.126 207.966 94.235 208.332 93.467C208.704 92.693 209.235 92.09 209.925 91.658C210.615 91.226 211.446 91.01 212.418 91.01C213.444 91.01 214.326 91.262 215.064 91.766C215.808 92.27 216.306 92.96 216.558 93.836L214.974 94.313C214.77 93.749 214.437 93.311 213.975 92.999C213.519 92.687 212.994 92.531 212.4 92.531C211.734 92.531 211.185 92.687 210.753 92.999C210.321 93.305 210 93.731 209.79 94.277C209.58 94.817 209.472 95.438 209.466 96.14C209.478 97.22 209.727 98.093 210.213 98.759C210.705 99.419 211.434 99.749 212.4 99.749C213.036 99.749 213.564 99.605 213.984 99.317C214.404 99.023 214.722 98.6 214.938 98.048L216.558 98.471C216.222 99.377 215.697 100.07 214.983 100.55C214.269 101.03 213.408 101.27 212.4 101.27ZM222.343 101.27C221.389 101.27 220.555 101.06 219.841 100.64C219.133 100.214 218.581 99.623 218.185 98.867C217.789 98.105 217.591 97.217 217.591 96.203C217.591 95.141 217.786 94.223 218.176 93.449C218.566 92.669 219.109 92.069 219.805 91.649C220.507 91.223 221.329 91.01 222.271 91.01C223.249 91.01 224.08 91.235 224.764 91.685C225.454 92.135 225.97 92.777 226.312 93.611C226.66 94.445 226.81 95.438 226.762 96.59H225.142V96.014C225.124 94.82 224.881 93.929 224.413 93.341C223.945 92.747 223.249 92.45 222.325 92.45C221.335 92.45 220.582 92.768 220.066 93.404C219.55 94.04 219.292 94.952 219.292 96.14C219.292 97.286 219.55 98.174 220.066 98.804C220.582 99.434 221.317 99.749 222.271 99.749C222.913 99.749 223.471 99.602 223.945 99.308C224.419 99.014 224.791 98.591 225.061 98.039L226.6 98.57C226.222 99.428 225.652 100.094 224.89 100.568C224.134 101.036 223.285 101.27 222.343 101.27ZM218.752 96.59V95.303H225.934V96.59H218.752ZM232.438 101.261C231.28 101.261 230.329 101.009 229.585 100.505C228.847 99.995 228.394 99.284 228.226 98.372L229.864 98.111C229.996 98.639 230.299 99.059 230.773 99.371C231.247 99.677 231.835 99.83 232.537 99.83C233.203 99.83 233.725 99.692 234.103 99.416C234.481 99.14 234.67 98.765 234.67 98.291C234.67 98.015 234.607 97.793 234.481 97.625C234.355 97.451 234.094 97.289 233.698 97.139C233.308 96.989 232.717 96.809 231.925 96.599C231.067 96.371 230.392 96.134 229.9 95.888C229.408 95.642 229.057 95.357 228.847 95.033C228.637 94.709 228.532 94.316 228.532 93.854C228.532 93.284 228.688 92.786 229 92.36C229.312 91.928 229.747 91.595 230.305 91.361C230.869 91.127 231.523 91.01 232.267 91.01C233.005 91.01 233.665 91.127 234.247 91.361C234.829 91.595 235.297 91.928 235.651 92.36C236.011 92.786 236.224 93.284 236.29 93.854L234.652 94.151C234.574 93.629 234.322 93.218 233.896 92.918C233.476 92.618 232.933 92.459 232.267 92.441C231.637 92.417 231.124 92.528 230.728 92.774C230.338 93.02 230.143 93.353 230.143 93.773C230.143 94.007 230.215 94.208 230.359 94.376C230.509 94.544 230.782 94.703 231.178 94.853C231.58 95.003 232.162 95.174 232.924 95.366C233.782 95.582 234.457 95.819 234.949 96.077C235.447 96.329 235.801 96.629 236.011 96.977C236.221 97.319 236.326 97.742 236.326 98.246C236.326 99.182 235.981 99.92 235.291 100.46C234.601 100.994 233.65 101.261 232.438 101.261ZM241.983 101.261C240.825 101.261 239.874 101.009 239.13 100.505C238.392 99.995 237.939 99.284 237.771 98.372L239.409 98.111C239.541 98.639 239.844 99.059 240.318 99.371C240.792 99.677 241.38 99.83 242.082 99.83C242.748 99.83 243.27 99.692 243.648 99.416C244.026 99.14 244.215 98.765 244.215 98.291C244.215 98.015 244.152 97.793 244.026 97.625C243.9 97.451 243.639 97.289 243.243 97.139C242.853 96.989 242.262 96.809 241.47 96.599C240.612 96.371 239.937 96.134 239.445 95.888C238.953 95.642 238.602 95.357 238.392 95.033C238.182 94.709 238.077 94.316 238.077 93.854C238.077 93.284 238.233 92.786 238.545 92.36C238.857 91.928 239.292 91.595 239.85 91.361C240.414 91.127 241.068 91.01 241.812 91.01C242.55 91.01 243.21 91.127 243.792 91.361C244.374 91.595 244.842 91.928 245.196 92.36C245.556 92.786 245.769 93.284 245.835 93.854L244.197 94.151C244.119 93.629 243.867 93.218 243.441 92.918C243.021 92.618 242.478 92.459 241.812 92.441C241.182 92.417 240.669 92.528 240.273 92.774C239.883 93.02 239.688 93.353 239.688 93.773C239.688 94.007 239.76 94.208 239.904 94.376C240.054 94.544 240.327 94.703 240.723 94.853C241.125 95.003 241.707 95.174 242.469 95.366C243.327 95.582 244.002 95.819 244.494 96.077C244.992 96.329 245.346 96.629 245.556 96.977C245.766 97.319 245.871 97.742 245.871 98.246C245.871 99.182 245.526 99.92 244.836 100.46C244.146 100.994 243.195 101.261 241.983 101.261ZM251.459 101V88.04H256.58C256.706 88.04 256.856 88.046 257.03 88.058C257.204 88.064 257.372 88.082 257.534 88.112C258.236 88.22 258.824 88.46 259.298 88.832C259.778 89.204 260.138 89.675 260.378 90.245C260.618 90.809 260.738 91.436 260.738 92.126C260.738 93.128 260.477 93.998 259.955 94.736C259.433 95.468 258.668 95.927 257.66 96.113L257.048 96.212H253.061V101H251.459ZM259.172 101L256.616 95.726L258.2 95.24L261.008 101H259.172ZM253.061 94.691H256.526C256.64 94.691 256.769 94.685 256.913 94.673C257.063 94.661 257.204 94.64 257.336 94.61C257.75 94.514 258.086 94.34 258.344 94.088C258.608 93.83 258.8 93.53 258.92 93.188C259.04 92.84 259.1 92.486 259.1 92.126C259.1 91.766 259.04 91.415 258.92 91.073C258.8 90.725 258.608 90.422 258.344 90.164C258.086 89.906 257.75 89.732 257.336 89.642C257.204 89.606 257.063 89.585 256.913 89.579C256.769 89.567 256.64 89.561 256.526 89.561H253.061V94.691ZM265.753 101.27C265.027 101.27 264.418 101.138 263.926 100.874C263.44 100.604 263.071 100.25 262.819 99.812C262.573 99.374 262.45 98.894 262.45 98.372C262.45 97.862 262.546 97.421 262.738 97.049C262.936 96.671 263.212 96.359 263.566 96.113C263.92 95.861 264.343 95.663 264.835 95.519C265.297 95.393 265.813 95.285 266.383 95.195C266.959 95.099 267.541 95.012 268.129 94.934C268.717 94.856 269.266 94.781 269.776 94.709L269.2 95.042C269.218 94.178 269.044 93.539 268.678 93.125C268.318 92.711 267.694 92.504 266.806 92.504C266.218 92.504 265.702 92.639 265.258 92.909C264.82 93.173 264.511 93.605 264.331 94.205L262.81 93.746C263.044 92.894 263.497 92.225 264.169 91.739C264.841 91.253 265.726 91.01 266.824 91.01C267.706 91.01 268.462 91.169 269.092 91.487C269.728 91.799 270.184 92.273 270.46 92.909C270.598 93.209 270.685 93.536 270.721 93.89C270.757 94.238 270.775 94.604 270.775 94.988V101H269.353V98.669L269.686 98.885C269.32 99.671 268.807 100.265 268.147 100.667C267.493 101.069 266.695 101.27 265.753 101.27ZM265.996 99.929C266.572 99.929 267.07 99.827 267.49 99.623C267.916 99.413 268.258 99.14 268.516 98.804C268.774 98.462 268.942 98.09 269.02 97.688C269.11 97.388 269.158 97.055 269.164 96.689C269.176 96.317 269.182 96.032 269.182 95.834L269.74 96.077C269.218 96.149 268.705 96.218 268.201 96.284C267.697 96.35 267.22 96.422 266.77 96.5C266.32 96.572 265.915 96.659 265.555 96.761C265.291 96.845 265.042 96.953 264.808 97.085C264.58 97.217 264.394 97.388 264.25 97.598C264.112 97.802 264.043 98.057 264.043 98.363C264.043 98.627 264.109 98.879 264.241 99.119C264.379 99.359 264.589 99.554 264.871 99.704C265.159 99.854 265.534 99.929 265.996 99.929ZM278.542 101C277.966 101.114 277.396 101.159 276.832 101.135C276.274 101.117 275.776 101.006 275.338 100.802C274.9 100.592 274.567 100.268 274.339 99.83C274.147 99.446 274.042 99.059 274.024 98.669C274.012 98.273 274.006 97.826 274.006 97.328V88.58H275.608V97.256C275.608 97.652 275.611 97.991 275.617 98.273C275.629 98.555 275.692 98.798 275.806 99.002C276.022 99.386 276.364 99.611 276.832 99.677C277.306 99.743 277.876 99.725 278.542 99.623V101ZM272.035 92.603V91.28H278.542V92.603H272.035ZM284.324 101.27C283.37 101.27 282.536 101.06 281.822 100.64C281.114 100.214 280.562 99.623 280.166 98.867C279.77 98.105 279.572 97.217 279.572 96.203C279.572 95.141 279.767 94.223 280.157 93.449C280.547 92.669 281.09 92.069 281.786 91.649C282.488 91.223 283.31 91.01 284.252 91.01C285.23 91.01 286.061 91.235 286.745 91.685C287.435 92.135 287.951 92.777 288.293 93.611C288.641 94.445 288.791 95.438 288.743 96.59H287.123V96.014C287.105 94.82 286.862 93.929 286.394 93.341C285.926 92.747 285.23 92.45 284.306 92.45C283.316 92.45 282.563 92.768 282.047 93.404C281.531 94.04 281.273 94.952 281.273 96.14C281.273 97.286 281.531 98.174 282.047 98.804C282.563 99.434 283.298 99.749 284.252 99.749C284.894 99.749 285.452 99.602 285.926 99.308C286.4 99.014 286.772 98.591 287.042 98.039L288.581 98.57C288.203 99.428 287.633 100.094 286.871 100.568C286.115 101.036 285.266 101.27 284.324 101.27ZM280.733 96.59V95.303H287.915V96.59H280.733Z" fill="black"/>
</g>
<g filter="url(#filter3_d_2280_27923)">
<rect x="487" y="230" width="153" height="80" rx="10" fill="white" shape-rendering="crispEdges"/>
<rect x="503" y="246" width="48" height="48" rx="10" fill="#EDFCFF"/>
<path d="M531.669 264.167H538.669M538.669 264.167V271.167M538.669 264.167L528.753 274.084L522.919 268.25L515.336 275.834" stroke="#2C85FF" stroke-width="2" stroke-linecap="round" stroke-linejoin="round"/>
<path d="M565.9 262.33V258.63H562.2V256.95H565.9V253.27H567.58V256.95H571.27V258.63H567.58V262.33H565.9ZM576.375 265V252.9L573.665 254.55V252.22L576.375 250.6H578.505V265H576.375ZM588.402 265V262.49H581.902V260.51L586.582 250.6H588.972L584.292 260.51H588.402V256.61H590.522V260.51H591.952V262.49H590.522V265H588.402ZM598.623 265.3C597.883 265.3 597.193 265.15 596.553 264.85C595.92 264.543 595.376 264.123 594.923 263.59C594.47 263.05 594.146 262.43 593.953 261.73L595.963 261.19C596.076 261.617 596.27 261.987 596.543 262.3C596.823 262.613 597.15 262.857 597.523 263.03C597.896 263.197 598.283 263.28 598.683 263.28C599.21 263.28 599.686 263.153 600.113 262.9C600.546 262.647 600.886 262.307 601.133 261.88C601.386 261.453 601.513 260.983 601.513 260.47C601.513 259.943 601.383 259.467 601.123 259.04C600.87 258.613 600.526 258.277 600.093 258.03C599.666 257.777 599.196 257.65 598.683 257.65C598.096 257.65 597.6 257.767 597.193 258C596.786 258.233 596.47 258.503 596.243 258.81L594.423 258.17L594.863 250.6H602.633V252.57H595.933L596.783 251.78L596.433 257.45L596.023 256.92C596.403 256.54 596.856 256.25 597.383 256.05C597.91 255.85 598.433 255.75 598.953 255.75C599.846 255.75 600.643 255.957 601.343 256.37C602.05 256.783 602.606 257.347 603.013 258.06C603.42 258.767 603.623 259.57 603.623 260.47C603.623 261.363 603.393 262.177 602.933 262.91C602.473 263.637 601.863 264.217 601.103 264.65C600.343 265.083 599.516 265.3 598.623 265.3ZM607.813 265L606.413 263.6L619.423 250.6L620.823 252.01L607.813 265ZM617.823 265.3C617.163 265.3 616.56 265.14 616.013 264.82C615.473 264.493 615.04 264.06 614.713 263.52C614.387 262.973 614.223 262.367 614.223 261.7C614.223 261.047 614.39 260.447 614.723 259.9C615.057 259.353 615.497 258.917 616.043 258.59C616.59 258.263 617.183 258.1 617.823 258.1C618.483 258.1 619.087 258.263 619.633 258.59C620.18 258.91 620.613 259.343 620.933 259.89C621.26 260.43 621.423 261.033 621.423 261.7C621.423 262.367 621.26 262.973 620.933 263.52C620.613 264.06 620.18 264.493 619.633 264.82C619.087 265.14 618.483 265.3 617.823 265.3ZM617.823 263.49C618.15 263.49 618.447 263.41 618.713 263.25C618.987 263.083 619.203 262.863 619.363 262.59C619.53 262.317 619.613 262.02 619.613 261.7C619.613 261.38 619.53 261.083 619.363 260.81C619.203 260.537 618.987 260.32 618.713 260.16C618.447 259.993 618.15 259.91 617.823 259.91C617.503 259.91 617.207 259.993 616.933 260.16C616.667 260.32 616.45 260.537 616.283 260.81C616.123 261.083 616.043 261.38 616.043 261.7C616.043 262.02 616.123 262.317 616.283 262.59C616.45 262.863 616.667 263.083 616.933 263.25C617.207 263.41 617.503 263.49 617.823 263.49ZM609.413 257.5C608.753 257.5 608.15 257.34 607.603 257.02C607.057 256.693 606.62 256.26 606.293 255.72C605.973 255.173 605.813 254.567 605.813 253.9C605.813 253.247 605.98 252.647 606.313 252.1C606.647 251.553 607.087 251.117 607.633 250.79C608.18 250.463 608.773 250.3 609.413 250.3C610.073 250.3 610.673 250.463 611.213 250.79C611.76 251.11 612.197 251.543 612.523 252.09C612.85 252.63 613.013 253.233 613.013 253.9C613.013 254.567 612.85 255.173 612.523 255.72C612.197 256.26 611.76 256.693 611.213 257.02C610.673 257.34 610.073 257.5 609.413 257.5ZM609.413 255.69C609.733 255.69 610.03 255.61 610.303 255.45C610.577 255.283 610.793 255.063 610.953 254.79C611.12 254.517 611.203 254.22 611.203 253.9C611.203 253.58 611.12 253.283 610.953 253.01C610.793 252.737 610.577 252.52 610.303 252.36C610.03 252.193 609.733 252.11 609.413 252.11C609.093 252.11 608.797 252.193 608.523 252.36C608.257 252.52 608.04 252.737 607.873 253.01C607.707 253.283 607.623 253.58 607.623 253.9C607.623 254.22 607.707 254.517 607.873 254.79C608.04 255.063 608.257 255.283 608.523 255.45C608.79 255.61 609.087 255.69 609.413 255.69Z" fill="black"/>
<path d="M567.507 290.27C566.619 290.27 565.809 290.114 565.077 289.802C564.345 289.49 563.715 289.043 563.187 288.461C562.659 287.873 562.251 287.165 561.963 286.337C561.681 285.503 561.54 284.564 561.54 283.52C561.54 282.14 561.786 280.946 562.278 279.938C562.77 278.93 563.463 278.153 564.357 277.607C565.251 277.055 566.301 276.779 567.507 276.779C568.959 276.779 570.129 277.118 571.017 277.796C571.905 278.468 572.517 279.389 572.853 280.559L571.233 280.892C570.963 280.106 570.519 279.479 569.901 279.011C569.283 278.543 568.512 278.309 567.588 278.309C566.622 278.303 565.818 278.519 565.176 278.957C564.54 279.389 564.06 279.998 563.736 280.784C563.412 281.57 563.247 282.482 563.241 283.52C563.235 284.552 563.394 285.458 563.718 286.238C564.042 287.018 564.525 287.63 565.167 288.074C565.815 288.512 566.622 288.734 567.588 288.74C568.422 288.746 569.124 288.587 569.694 288.263C570.264 287.939 570.705 287.471 571.017 286.859C571.329 286.247 571.518 285.512 571.584 284.654H568.83V283.331H573.276C573.294 283.451 573.303 283.595 573.303 283.763C573.309 283.925 573.312 284.036 573.312 284.096C573.312 285.278 573.09 286.337 572.646 287.273C572.208 288.203 571.557 288.935 570.693 289.469C569.835 290.003 568.773 290.27 567.507 290.27ZM575.11 290V280.28H576.541V282.629L576.307 282.323C576.421 282.023 576.568 281.747 576.748 281.495C576.934 281.243 577.141 281.036 577.369 280.874C577.621 280.67 577.906 280.514 578.224 280.406C578.542 280.298 578.866 280.235 579.196 280.217C579.526 280.193 579.835 280.214 580.123 280.28V281.783C579.787 281.693 579.418 281.669 579.016 281.711C578.614 281.753 578.242 281.9 577.9 282.152C577.588 282.374 577.345 282.644 577.171 282.962C577.003 283.28 576.886 283.625 576.82 283.997C576.754 284.363 576.721 284.738 576.721 285.122V290H575.11ZM585.789 290.27C584.823 290.27 583.989 290.051 583.287 289.613C582.591 289.175 582.054 288.569 581.676 287.795C581.298 287.021 581.109 286.133 581.109 285.131C581.109 284.111 581.301 283.217 581.685 282.449C582.069 281.681 582.612 281.084 583.314 280.658C584.016 280.226 584.841 280.01 585.789 280.01C586.761 280.01 587.598 280.229 588.3 280.667C589.002 281.099 589.539 281.702 589.911 282.476C590.289 283.244 590.478 284.129 590.478 285.131C590.478 286.145 590.289 287.039 589.911 287.813C589.533 288.581 588.993 289.184 588.291 289.622C587.589 290.054 586.755 290.27 585.789 290.27ZM585.789 288.749C586.797 288.749 587.547 288.413 588.039 287.741C588.531 287.069 588.777 286.199 588.777 285.131C588.777 284.033 588.528 283.16 588.03 282.512C587.532 281.858 586.785 281.531 585.789 281.531C585.111 281.531 584.553 281.684 584.115 281.99C583.677 282.296 583.35 282.719 583.134 283.259C582.918 283.799 582.81 284.423 582.81 285.131C582.81 286.223 583.062 287.099 583.566 287.759C584.07 288.419 584.811 288.749 585.789 288.749ZM594.178 290L591.208 280.271L592.801 280.28L594.97 287.39L597.157 280.28H598.57L600.748 287.39L602.926 280.28H604.51L601.54 290H600.208L597.859 282.611L595.51 290H594.178ZM611.562 290C610.986 290.114 610.416 290.159 609.852 290.135C609.294 290.117 608.796 290.006 608.358 289.802C607.92 289.592 607.587 289.268 607.359 288.83C607.167 288.446 607.062 288.059 607.044 287.669C607.032 287.273 607.026 286.826 607.026 286.328V277.58H608.628V286.256C608.628 286.652 608.631 286.991 608.637 287.273C608.649 287.555 608.712 287.798 608.826 288.002C609.042 288.386 609.384 288.611 609.852 288.677C610.326 288.743 610.896 288.725 611.562 288.623V290ZM605.055 281.603V280.28H611.562V281.603H605.055ZM620.456 290V285.131C620.456 284.669 620.414 284.225 620.33 283.799C620.252 283.373 620.111 282.992 619.907 282.656C619.709 282.314 619.439 282.044 619.097 281.846C618.761 281.648 618.335 281.549 617.819 281.549C617.417 281.549 617.051 281.618 616.721 281.756C616.397 281.888 616.118 282.092 615.884 282.368C615.65 282.644 615.467 282.992 615.335 283.412C615.209 283.826 615.146 284.315 615.146 284.879L614.093 284.555C614.093 283.613 614.261 282.806 614.597 282.134C614.939 281.456 615.416 280.937 616.028 280.577C616.646 280.211 617.372 280.028 618.206 280.028C618.836 280.028 619.373 280.127 619.817 280.325C620.261 280.523 620.63 280.787 620.924 281.117C621.218 281.441 621.449 281.807 621.617 282.215C621.785 282.617 621.902 283.028 621.968 283.448C622.04 283.862 622.076 284.255 622.076 284.627V290H620.456ZM613.526 290V277.04H614.966V284.195H615.146V290H613.526Z" fill="black"/>
</g>
<defs>
<filter id="filter0_d_2280_27923" x="23" y="380" width="236" height="96" filterUnits="userSpaceOnUse" color-interpolation-filters="sRGB">
<feFlood flood-opacity="0" result="BackgroundImageFix"/>
<feColorMatrix in="SourceAlpha" type="matrix" values="0 0 0 0 0 0 0 0 0 0 0 0 0 0 0 0 0 0 127 0" result="hardAlpha"/>
<feOffset/>
<feGaussianBlur stdDeviation="5"/>
<feComposite in2="hardAlpha" operator="out"/>
<feColorMatrix type="matrix" values="0 0 0 0 0 0 0 0 0 0 0 0 0 0 0 0 0 0 0.18 0"/>
<feBlend mode="normal" in2="BackgroundImageFix" result="effect1_dropShadow_2280_27923"/>
<feBlend mode="normal" in="SourceGraphic" in2="effect1_dropShadow_2280_27923" result="shape"/>
</filter>
<filter id="filter1_d_2280_27923" x="421" y="446" width="209" height="96" filterUnits="userSpaceOnUse" color-interpolation-filters="sRGB">
<feFlood flood-opacity="0" result="BackgroundImageFix"/>
<feColorMatrix in="SourceAlpha" type="matrix" values="0 0 0 0 0 0 0 0 0 0 0 0 0 0 0 0 0 0 127 0" result="hardAlpha"/>
<feOffset/>
<feGaussianBlur stdDeviation="5"/>
<feComposite in2="hardAlpha" operator="out"/>
<feColorMatrix type="matrix" values="0 0 0 0 0 0 0 0 0 0 0 0 0 0 0 0 0 0 0.18 0"/>
<feBlend mode="normal" in2="BackgroundImageFix" result="effect1_dropShadow_2280_27923"/>
<feBlend mode="normal" in="SourceGraphic" in2="effect1_dropShadow_2280_27923" result="shape"/>
</filter>
<filter id="filter2_d_2280_27923" x="91" y="31" width="225" height="100" filterUnits="userSpaceOnUse" color-interpolation-filters="sRGB">
<feFlood flood-opacity="0" result="BackgroundImageFix"/>
<feColorMatrix in="SourceAlpha" type="matrix" values="0 0 0 0 0 0 0 0 0 0 0 0 0 0 0 0 0 0 127 0" result="hardAlpha"/>
<feOffset/>
<feGaussianBlur stdDeviation="5"/>
<feComposite in2="hardAlpha" operator="out"/>
<feColorMatrix type="matrix" values="0 0 0 0 0 0 0 0 0 0 0 0 0 0 0 0 0 0 0.18 0"/>
<feBlend mode="normal" in2="BackgroundImageFix" result="effect1_dropShadow_2280_27923"/>
<feBlend mode="normal" in="SourceGraphic" in2="effect1_dropShadow_2280_27923" result="shape"/>
</filter>
<filter id="filter3_d_2280_27923" x="477" y="220" width="173" height="100" filterUnits="userSpaceOnUse" color-interpolation-filters="sRGB">
<feFlood flood-opacity="0" result="BackgroundImageFix"/>
<feColorMatrix in="SourceAlpha" type="matrix" values="0 0 0 0 0 0 0 0 0 0 0 0 0 0 0 0 0 0 127 0" result="hardAlpha"/>
<feOffset/>
<feGaussianBlur stdDeviation="5"/>
<feComposite in2="hardAlpha" operator="out"/>
<feColorMatrix type="matrix" values="0 0 0 0 0 0 0 0 0 0 0 0 0 0 0 0 0 0 0.18 0"/>
<feBlend mode="normal" in2="BackgroundImageFix" result="effect1_dropShadow_2280_27923"/>
<feBlend mode="normal" in="SourceGraphic" in2="effect1_dropShadow_2280_27923" result="shape"/>
</filter>
</defs>
</svg>
