<svg width="218" height="219" viewBox="0 0 218 219" fill="none" xmlns="http://www.w3.org/2000/svg">
<rect x="43.9375" y="44.6238" width="130.439" height="130.439" rx="65.2194" fill="#01AAEC"/>
<path d="M71.7104 103.545V114.905H77.0504V117.545H68.9504V103.545H71.7104ZM88.0231 113.605H80.4831C80.8164 114.859 81.7564 115.485 83.3031 115.485C84.2898 115.485 85.0364 115.152 85.5431 114.485L87.6231 115.685C86.6364 117.112 85.1831 117.825 83.2631 117.825C81.6098 117.825 80.2831 117.325 79.2831 116.325C78.2831 115.325 77.7831 114.065 77.7831 112.545C77.7831 111.052 78.2764 109.799 79.2631 108.785C80.2364 107.772 81.5031 107.265 83.0631 107.265C84.5431 107.265 85.7498 107.772 86.6831 108.785C87.6431 109.799 88.1231 111.052 88.1231 112.545C88.1231 112.825 88.0898 113.179 88.0231 113.605ZM80.4431 111.605H85.5431C85.3964 110.952 85.0964 110.452 84.6431 110.105C84.2031 109.759 83.6764 109.585 83.0631 109.585C82.3698 109.585 81.7964 109.765 81.3431 110.125C80.8898 110.472 80.5898 110.965 80.4431 111.605ZM95.3512 107.545V110.025H93.0912V114.185C93.0912 114.532 93.1779 114.785 93.3512 114.945C93.5245 115.105 93.7779 115.199 94.1112 115.225C94.4445 115.239 94.8579 115.232 95.3512 115.205V117.545C93.6045 117.745 92.3579 117.585 91.6112 117.065C90.8779 116.532 90.5112 115.572 90.5112 114.185V110.025H88.7712V107.545H90.5112V105.525L93.0912 104.745V107.545H95.3512ZM98.1414 103.525H100.941L99.4414 109.085H97.3414L98.1414 103.525ZM103.886 110.385C103.886 110.812 104.493 111.179 105.706 111.485C106.133 111.579 106.52 111.692 106.866 111.825C107.213 111.945 107.56 112.125 107.906 112.365C108.266 112.592 108.546 112.899 108.746 113.285C108.946 113.672 109.046 114.119 109.046 114.625C109.046 115.652 108.66 116.445 107.886 117.005C107.113 117.552 106.16 117.825 105.026 117.825C102.973 117.825 101.573 117.032 100.826 115.445L103.066 114.185C103.373 115.052 104.026 115.485 105.026 115.485C105.946 115.485 106.406 115.199 106.406 114.625C106.406 114.199 105.8 113.832 104.586 113.525C104.133 113.405 103.746 113.285 103.426 113.165C103.106 113.045 102.76 112.872 102.386 112.645C102.013 112.405 101.726 112.105 101.526 111.745C101.34 111.372 101.246 110.939 101.246 110.445C101.246 109.459 101.606 108.685 102.326 108.125C103.06 107.552 103.966 107.265 105.046 107.265C105.86 107.265 106.6 107.452 107.266 107.825C107.933 108.185 108.46 108.705 108.846 109.385L106.646 110.585C106.326 109.905 105.793 109.565 105.046 109.565C104.713 109.565 104.433 109.645 104.206 109.805C103.993 109.952 103.886 110.145 103.886 110.385ZM121.523 107.545V110.025H119.263V114.185C119.263 114.532 119.35 114.785 119.523 114.945C119.696 115.105 119.95 115.199 120.283 115.225C120.616 115.239 121.03 115.232 121.523 115.205V117.545C119.776 117.745 118.53 117.585 117.783 117.065C117.05 116.532 116.683 115.572 116.683 114.185V110.025H114.943V107.545H116.683V105.525L119.263 104.745V107.545H121.523ZM130.63 108.725V107.545H133.21V117.545H130.63V116.365C129.856 117.339 128.77 117.825 127.37 117.825C126.036 117.825 124.89 117.319 123.93 116.305C122.983 115.279 122.51 114.025 122.51 112.545C122.51 111.079 122.983 109.832 123.93 108.805C124.89 107.779 126.036 107.265 127.37 107.265C128.77 107.265 129.856 107.752 130.63 108.725ZM125.87 114.585C126.39 115.105 127.05 115.365 127.85 115.365C128.65 115.365 129.31 115.105 129.83 114.585C130.363 114.052 130.63 113.372 130.63 112.545C130.63 111.719 130.363 111.045 129.83 110.525C129.31 109.992 128.65 109.725 127.85 109.725C127.05 109.725 126.39 109.992 125.87 110.525C125.35 111.045 125.09 111.719 125.09 112.545C125.09 113.372 125.35 114.052 125.87 114.585ZM138.129 117.545H135.549V102.945H138.129V117.545ZM145.571 112.485L149.711 117.545H146.711L143.071 113.005V117.545H140.491V103.545H143.071V111.945L146.511 107.545H149.591L145.571 112.485Z" fill="white"/>
<g opacity="0.3" clip-path="url(#clip0_6455_8)">
<path fill-rule="evenodd" clip-rule="evenodd" d="M16.9581 76.5206L19.469 70.7208C20.3395 68.71 20.3528 66.721 19.5088 64.754C18.6367 62.7752 17.1695 61.337 15.1073 60.4391C13.031 59.5352 10.9885 59.4456 8.97955 60.1702C8.00557 60.5007 7.11383 61.0373 6.36477 61.7437C5.61571 62.4501 5.02685 63.3098 4.63809 64.2644L2.1274 70.0642L16.9581 76.5206ZM4.84783 68.9012L6.50322 65.0769C7.15917 63.5614 8.22528 62.5527 9.70153 62.0506C11.1921 61.5543 12.7214 61.6472 14.2895 62.3293C15.8577 63.0115 16.9698 64.068 17.6259 65.4987C18.2682 66.9233 18.2613 68.3932 17.6054 69.9085L15.9492 73.7331L4.84783 68.9012ZM12.7123 52.9553C12.6688 52.7839 12.5909 52.6233 12.4832 52.4833C12.3755 52.3433 12.2403 52.227 12.086 52.1414C11.9327 52.0509 11.7628 51.9922 11.5865 51.9688C11.4101 51.9454 11.2308 51.9577 11.0593 52.0051C10.8867 52.0457 10.7245 52.1221 10.583 52.2292C10.4416 52.3364 10.324 52.472 10.2378 52.6274C10.1445 52.7829 10.0846 52.9562 10.062 53.1362C10.0393 53.3163 10.0545 53.4991 10.1064 53.6729C10.1523 53.8453 10.2323 54.0067 10.3416 54.1475C10.4509 54.2883 10.5873 54.4056 10.7427 54.4926C10.8943 54.5829 11.0627 54.6411 11.2376 54.6635C11.4125 54.686 11.5901 54.6722 11.7595 54.6231C11.9336 54.5772 12.0964 54.496 12.238 54.3845C12.3795 54.2731 12.4968 54.1337 12.5825 53.9749C12.6725 53.8229 12.7304 53.654 12.7527 53.4786C12.775 53.3032 12.7613 53.1251 12.7123 52.9553ZM14.8992 54.1591L13.9007 55.9081L23.9194 61.6671L24.9187 59.9188L14.8992 54.1591ZM19.8834 49.9073C19.8898 49.3852 20.0599 48.8782 20.3698 48.4585C21.0663 47.4398 21.9384 47.0381 22.9862 47.2534L23.1585 45.3219C22.3431 45.1975 21.5093 45.3245 20.7675 45.6859C19.9796 46.0727 19.3095 46.6641 18.8268 47.3985C18.165 48.3664 17.8788 49.3585 17.9684 50.3747C18.0037 50.8477 18.147 51.3062 18.3872 51.7148C18.6274 52.1234 18.9581 52.4712 19.3537 52.7312C19.7106 52.9838 20.1227 53.1467 20.5555 53.2061C20.9211 53.2621 21.2934 53.2572 21.6575 53.1916C22.0512 53.0934 22.425 52.9278 22.7625 52.702C23.0922 52.504 23.4095 52.2861 23.7127 52.0493C23.9243 51.8768 24.231 51.6195 24.6327 51.2773C25.7868 50.2174 26.6876 49.9098 27.3351 50.3546C27.5354 50.4773 27.6988 50.6522 27.8079 50.8606C27.917 51.0691 27.9677 51.3032 27.9548 51.5383C27.9033 52.1185 27.6896 52.6723 27.3383 53.1362C26.99 53.6776 26.4928 54.1063 25.9068 54.3704C25.3798 54.6056 24.7868 54.6456 24.2332 54.4834L24.073 56.4794C24.9497 56.6709 25.8651 56.5641 26.6746 56.1759C27.5825 55.7381 28.3526 55.0579 28.9004 54.2099C29.6057 53.1784 29.9286 52.1462 29.8693 51.1133C29.8158 50.3591 29.502 49.6472 28.9818 49.0999C28.4616 48.5526 27.7675 48.2042 27.0189 48.1145C26.5125 48.0763 26.0055 48.1798 25.5543 48.4135C25.1269 48.6208 24.7195 48.8671 24.3372 49.1494C23.9434 49.4552 23.566 49.7816 23.2066 50.1273C22.0019 51.1522 21.0947 51.4552 20.4851 51.0362C20.2975 50.9148 20.1439 50.7474 20.0387 50.5498C19.9336 50.3523 19.8803 50.1312 19.884 49.9073H19.8834ZM37.7546 41.8399C37.9614 40.8147 37.8815 39.7521 37.5236 38.7696L35.6495 39.3999C35.8986 40.047 35.9583 40.752 35.8217 41.4321C35.6801 42.1496 35.3469 42.8151 34.8576 43.3575C34.511 43.7725 34.0832 44.112 33.6007 44.3549C33.1182 44.5978 32.5912 44.739 32.0521 44.7698C30.9675 44.8048 29.9102 44.4246 29.0949 43.7063C28.2796 42.9881 27.7673 41.9857 27.662 40.9025C27.6231 40.3625 27.6949 39.8202 27.873 39.309C28.0511 38.7979 28.3318 38.3287 28.6976 37.9305C29.1689 37.375 29.7857 36.9626 30.4782 36.7398C31.1268 36.527 31.824 36.5132 32.4804 36.7001L32.8643 34.7879C31.8799 34.5129 30.8362 34.5378 29.8659 34.8594C28.8385 35.1937 27.9236 35.807 27.2227 36.6312C26.0743 37.9422 25.5586 39.4199 25.6758 41.0643C25.7813 42.6988 26.4819 44.0867 27.7775 45.2279C29.0732 46.3692 30.5416 46.8921 32.1828 46.7965C33.8127 46.6907 35.2017 45.9824 36.3499 44.6715C37.0639 43.8717 37.5494 42.8934 37.7551 41.8399H37.7546ZM44.6617 32.5581C44.6292 33.4369 44.2243 34.2164 43.447 34.8965C42.7739 35.4853 42.0739 35.7494 41.347 35.6887C40.6201 35.6281 39.9529 35.2487 39.3456 34.5506L34.7602 29.2797L33.246 30.6045L37.9072 35.9625C38.869 37.0683 39.9382 37.6749 41.1147 37.7823C42.2913 37.8898 43.3902 37.497 44.4114 36.6041C45.6875 35.4874 46.1971 34.1707 45.9401 32.6538L47.0333 33.9104L48.5475 32.5856L40.9557 23.8584L39.4417 25.1831L43.4653 29.8089C44.2955 30.7629 44.6943 31.6794 44.6617 32.5581ZM47.5636 21.5345C47.7595 21.0507 48.1025 20.6411 48.5437 20.3638C49.5629 19.6702 50.5213 19.6153 51.4187 20.199L52.2824 18.4638C51.5686 18.0495 50.7462 17.8625 49.924 17.9273C49.0496 17.9991 48.2103 18.3046 47.4933 18.8118C46.5249 19.4707 45.8974 20.2895 45.6107 21.2682C45.4714 21.7215 45.4379 22.2009 45.5128 22.6692C45.5877 23.1376 45.769 23.5824 46.0426 23.9693C46.2828 24.335 46.6071 24.6375 46.9882 24.8513C47.3083 25.0372 47.6567 25.1689 48.0195 25.2411C48.4218 25.2937 48.8301 25.2762 49.2265 25.1895C49.6054 25.1258 49.9801 25.0391 50.3486 24.9299C50.6085 24.8466 50.9875 24.7193 51.4857 24.548C52.9462 23.983 53.8968 24.0267 54.3374 24.6788C54.479 24.8665 54.5673 25.0891 54.5928 25.323C54.6184 25.5569 54.5804 25.7934 54.4827 26.0073C54.2235 26.5285 53.823 26.9658 53.3272 27.269C52.8058 27.6455 52.1868 27.8625 51.5451 27.8938C50.9689 27.9198 50.4022 27.74 49.9458 27.3865L49.07 29.1859C49.8166 29.6852 50.7077 29.9209 51.6027 29.8559C52.6073 29.7807 53.5719 29.4294 54.3905 28.8406C55.4225 28.1385 56.099 27.2957 56.4198 26.3122C56.6445 25.5905 56.6115 24.8128 56.3264 24.1129C56.0413 23.413 55.522 22.8345 54.8577 22.477C54.4002 22.2564 53.8906 22.1674 53.3856 22.2201C52.9123 22.2566 52.4433 22.3368 51.9846 22.4597C51.5068 22.6002 51.0367 22.766 50.5764 22.9562C49.0817 23.4694 48.1268 23.4192 47.7117 22.8056C47.5814 22.6237 47.4994 22.4116 47.4734 22.1892C47.4475 21.9668 47.4785 21.7414 47.5636 21.5343V21.5345ZM57.4174 15.3969C57.6639 14.9369 58.0486 14.5663 58.5168 14.3378C59.604 13.7576 60.5627 13.8057 61.3929 14.4821L62.4364 12.8494C61.7707 12.3611 60.9728 12.0869 60.1484 12.0633C59.2715 12.0409 58.4046 12.2545 57.6379 12.6817C56.6047 13.233 55.8936 13.98 55.5044 14.9225C55.3176 15.3583 55.2332 15.8313 55.2578 16.3049C55.2823 16.7786 55.4151 17.2403 55.646 17.6543C55.8457 18.0439 56.1359 18.3798 56.4921 18.6335C56.7906 18.8526 57.123 19.0209 57.476 19.1317C57.8704 19.2271 58.2783 19.2534 58.6817 19.2097C59.0652 19.187 59.4471 19.1409 59.825 19.0716C60.0923 19.0169 60.4827 18.931 60.9963 18.8139C62.5084 18.4094 63.4489 18.5546 63.8178 19.2496C63.9386 19.4514 64.0027 19.6823 64.0032 19.9177C64.0037 20.1531 63.9406 20.3842 63.8206 20.5866C63.5074 21.0771 63.0625 21.4692 62.5372 21.7177C61.9786 22.0361 61.3401 22.1855 60.6987 22.148C60.1231 22.112 59.5789 21.8726 59.1628 21.4722L58.1002 23.1669C58.7893 23.743 59.6502 24.0724 60.5468 24.1032C61.5538 24.1362 62.5503 23.8903 63.427 23.3925C64.5279 22.805 65.2902 22.0392 65.7141 21.0952C66.0143 20.4016 66.0642 19.6247 65.8552 18.8982C65.6462 18.1717 65.1913 17.541 64.5687 17.1144C64.1373 16.8457 63.6401 16.7023 63.1322 16.7001C62.6577 16.6857 62.1829 16.7151 61.7138 16.7881C61.2238 16.8766 60.7387 16.991 60.2607 17.1308C58.7197 17.4809 57.7756 17.3288 57.4283 16.6745C57.3186 16.4799 57.26 16.2605 57.2581 16.037C57.2562 15.8135 57.311 15.5931 57.4174 15.3967V15.3969ZM71.7977 6.62179L69.7557 7.28933L78.1093 16.6894L78.0477 17.1724C77.9386 18.9781 77.1941 20.05 75.8141 20.3879L76.3942 22.1715C77.46 21.9191 78.3908 21.2708 78.9987 20.3572C79.6278 19.4282 79.981 18.2611 80.0583 16.8557L80.7343 3.69796L78.6923 4.36588L78.3383 14.032L71.7977 6.62179ZM96.2553 6.525C96.1239 5.73026 95.8316 4.97093 95.3963 4.29386C94.9611 3.61679 94.3921 3.03632 93.7245 2.58827C92.384 1.68812 90.746 1.34826 89.1594 1.64106C87.5728 1.93385 86.1627 2.83618 85.2295 4.15592C84.7687 4.81391 84.4472 5.55961 84.2847 6.34702C84.1223 7.13443 84.1225 7.94686 84.2852 8.73421C84.5092 9.91766 85.0761 11.0086 85.9151 11.8707C86.7541 12.7327 87.8279 13.3275 89.0022 13.5807C90.1765 13.8339 91.3992 13.7343 92.5173 13.2943C93.6355 12.8543 94.5994 12.0934 95.2887 11.1069C95.7534 10.4498 96.0789 9.70418 96.2452 8.91604C96.4114 8.1279 96.4149 7.31396 96.2553 6.52443V6.525ZM87.9505 11.0485C87.5014 10.7413 87.1197 10.3452 86.829 9.88441C86.5384 9.42365 86.3449 8.90807 86.2606 8.36946C86.1481 7.83605 86.1457 7.28518 86.2536 6.75081C86.3615 6.21644 86.5774 5.70989 86.8879 5.26241C87.5142 4.3764 88.4607 3.77061 89.5258 3.57407C90.5909 3.37753 91.6904 3.60576 92.5902 4.21015C93.0394 4.51731 93.421 4.91348 93.7117 5.37423C94.0023 5.83499 94.1958 6.35057 94.2801 6.88918C94.3897 7.42076 94.3912 7.96905 94.2846 8.50123C94.1779 9.03341 93.9653 9.53854 93.6594 9.98639C93.3536 10.4342 92.9608 10.8156 92.5045 11.1077C92.0483 11.3997 91.5379 11.5964 91.0041 11.6861C90.4787 11.7947 89.9366 11.7941 89.4115 11.6845C88.8863 11.5748 88.3891 11.3584 87.9505 11.0485V11.0485ZM106.639 9.14189C106.066 9.80812 105.265 10.1634 104.234 10.2077C103.342 10.2462 102.631 10.014 102.101 9.51097C101.571 9.00794 101.286 8.29407 101.246 7.36936L100.946 0.381136L98.9385 0.467757L99.2433 7.57179C99.3059 9.03757 99.7634 10.1808 100.616 11.0016C101.468 11.8224 102.571 12.2036 103.924 12.1454C105.616 12.0723 106.834 11.363 107.578 10.0175L107.65 11.6836L109.657 11.597L109.16 0.0263672L107.153 0.112988L107.416 6.24518C107.47 7.51034 107.211 8.47591 106.639 9.14189ZM113.437 0.214108L112.712 11.7721L114.717 11.8987L115.102 5.77291C115.181 4.5095 115.592 3.61485 116.335 3.08898C117.087 2.56097 118.01 2.3374 118.919 2.46305L119.051 0.359481C117.314 0.249887 116.071 0.890818 115.32 2.28227L115.442 0.34065L113.437 0.214108ZM130.193 4.21806L130.656 2.28114L128.702 1.8117L124.933 17.578L126.887 18.0488L128.427 11.6072C129.045 13.3271 130.282 14.4104 132.139 14.8574C132.888 15.052 133.669 15.0861 134.433 14.9576C135.196 14.8292 135.923 14.5409 136.568 14.1117C137.243 13.6859 137.827 13.1295 138.285 12.4749C138.743 11.8204 139.067 11.0808 139.237 10.2994C139.436 9.52885 139.481 8.72617 139.367 7.93825C139.254 7.15033 138.985 6.39297 138.577 5.71039C138.198 5.03168 137.682 4.44043 137.061 3.9751C136.44 3.50977 135.728 3.18077 134.971 3.00951C133.115 2.56298 131.522 2.96583 130.193 4.21806ZM129.766 11.0703C129.485 10.6007 129.299 10.0795 129.221 9.53719C129.143 8.99486 129.173 8.4423 129.31 7.91187C129.428 7.37948 129.65 6.87612 129.965 6.43164C130.28 5.98716 130.681 5.61059 131.143 5.32425C131.606 5.03791 132.121 4.84763 132.659 4.76468C133.196 4.68174 133.745 4.70781 134.272 4.84135C134.801 4.95625 135.302 5.18014 135.74 5.49886C136.179 5.81758 136.547 6.22419 136.822 6.69297C137.108 7.15646 137.297 7.67389 137.376 8.21336C137.456 8.75282 137.424 9.30287 137.283 9.82958C137.166 10.3648 136.943 10.871 136.628 11.3188C136.313 11.7665 135.912 12.1468 135.448 12.4372C134.509 12.9907 133.392 13.1576 132.333 12.9028C131.273 12.6481 130.353 11.9916 129.766 11.0711V11.0711V11.0703ZM144.071 5.96573L140.128 16.8498L142.016 17.5379L144.106 11.7691C144.537 10.5799 145.183 9.838 146.043 9.54336C146.913 9.24925 147.862 9.29559 148.699 9.6731L149.417 7.69212C147.781 7.09619 146.408 7.35982 145.297 8.48301L145.959 6.65437L144.071 5.96573ZM160.15 19.362C160.51 18.6439 160.723 17.8612 160.777 17.0596C160.832 16.258 160.726 15.4536 160.467 14.6932C160.208 13.9329 159.801 13.2319 159.269 12.6311C158.737 12.0304 158.091 11.5419 157.369 11.1942C156.655 10.8295 155.876 10.6117 155.078 10.5537C154.279 10.4958 153.477 10.5989 152.719 10.8569C151.961 11.1149 151.262 11.5226 150.663 12.056C150.065 12.5894 149.579 13.2376 149.234 13.9623C148.87 14.6777 148.653 15.4588 148.596 16.2597C148.538 17.0605 148.641 17.8649 148.898 18.6253C149.155 19.3856 149.562 20.0866 150.094 20.6868C150.625 21.2871 151.272 21.7743 151.994 22.1199C152.709 22.4831 153.489 22.6999 154.288 22.7576C155.087 22.8153 155.89 22.7128 156.649 22.456C157.408 22.1993 158.109 21.7935 158.71 21.2622C159.311 20.731 159.801 20.085 160.15 19.362ZM150.795 18.0149C150.618 17.4994 150.548 16.9531 150.589 16.4095C150.631 15.8659 150.783 15.3366 151.036 14.8542C151.264 14.359 151.59 13.9158 151.995 13.5519C152.4 13.1881 152.875 12.9113 153.391 12.7385C154.42 12.4036 155.54 12.4848 156.51 12.9649C157.481 13.4451 158.227 14.2862 158.589 15.3093C158.766 15.8248 158.836 16.3713 158.795 16.9151C158.753 17.4588 158.601 17.9883 158.348 18.4708C158.119 18.9627 157.793 19.4033 157.391 19.7661C156.988 20.129 156.517 20.4067 156.005 20.5826C155.493 20.7585 154.951 20.829 154.411 20.7899C153.871 20.7508 153.344 20.6028 152.863 20.355C152.377 20.1272 151.943 19.8021 151.587 19.3996C151.232 18.9972 150.962 18.5259 150.795 18.0149H150.795ZM169.094 15.2965C169.267 15.2594 169.43 15.1873 169.573 15.0846C169.717 14.9819 169.838 14.8508 169.929 14.6994C170.025 14.5491 170.09 14.3811 170.12 14.2052C170.15 14.0293 170.144 13.8492 170.103 13.6755C170.069 13.5009 169.999 13.3353 169.898 13.1894C169.797 13.0435 169.666 12.9204 169.514 12.8282C169.363 12.7288 169.192 12.6622 169.014 12.6326C168.835 12.6031 168.652 12.6114 168.477 12.6568C168.304 12.6964 168.14 12.7705 167.995 12.8747C167.851 12.979 167.729 13.1113 167.637 13.2637C167.541 13.4122 167.476 13.5788 167.447 13.7532C167.418 13.9276 167.425 14.1061 167.468 14.2778C167.507 14.4539 167.582 14.6202 167.687 14.7662C167.793 14.9123 167.928 15.035 168.083 15.1268C168.231 15.223 168.397 15.2876 168.571 15.3168C168.745 15.346 168.923 15.3391 169.094 15.2965H169.094ZM158.141 28.0576C157.617 28.1568 157.016 27.9489 156.339 27.4339L155.311 29.0843C156.495 29.9525 157.597 30.2825 158.616 30.0744C159.636 29.8662 160.541 29.1268 161.331 27.8559L167.813 17.4426L166.108 16.3757L159.626 26.789C159.161 27.5358 158.666 27.9587 158.141 28.0576ZM176.664 31.1093C177.697 29.7635 178.144 28.2959 178.004 26.7065C177.894 25.1023 177.169 23.7821 175.827 22.7459C174.411 21.6537 172.906 21.2224 171.311 21.4518C169.725 21.6698 168.397 22.4761 167.327 23.8708C166.265 25.2535 165.829 26.7582 166.018 28.3851C166.25 30.0064 167.086 31.3727 168.525 32.4841C170.307 33.8594 172.179 34.2046 174.144 33.5198L173.381 31.7034C172.146 32.1727 170.925 31.9411 169.717 31.0086C168.839 30.3307 168.283 29.5361 168.05 28.6248C167.818 27.6936 167.94 26.7095 168.392 25.8633L176.06 31.7836C176.277 31.5745 176.48 31.3494 176.664 31.1102V31.1102V31.1093ZM176.076 26.4459C176.255 27.3254 176.088 28.2391 175.575 29.1869L169.464 24.4679C170.144 23.7885 171.051 23.3851 172.01 23.3351C172.979 23.3076 173.925 23.6331 174.673 24.2512C175.396 24.7833 175.896 25.5655 176.077 26.4463L176.076 26.4459ZM181.165 42.963C182.17 43.2418 183.232 43.2364 184.235 42.9474L183.739 41.0283C183.078 41.232 182.373 41.2422 181.706 41.0579C181.002 40.866 180.363 40.4861 179.858 39.9586C179.47 39.5827 179.162 39.1309 178.954 38.6312C178.746 38.1314 178.642 37.5943 178.65 37.0528C178.691 35.9654 179.143 34.9344 179.915 34.1692C180.686 33.404 181.719 32.9618 182.804 32.9323C183.344 32.9312 183.879 33.0411 184.375 33.2552C184.871 33.4692 185.318 33.7829 185.688 34.1768C186.207 34.687 186.574 35.3327 186.747 36.041C186.914 36.7048 186.879 37.4032 186.646 38.0467L188.523 38.5651C188.864 37.5994 188.913 36.5537 188.662 35.5605C188.401 34.5094 187.855 33.5513 187.084 32.7924C185.86 31.5517 184.427 30.9323 182.783 30.9342C181.15 30.925 179.72 31.5285 178.494 32.7446C177.268 33.9606 176.645 35.393 176.625 37.0415C176.616 38.6794 177.223 40.1186 178.446 41.3592C179.192 42.1297 180.131 42.684 181.165 42.9634L181.165 42.963ZM194.576 41.816L197.111 39.8034L195.393 38.5971L193.329 40.2354L191.91 38.4374L190.389 39.6448L191.808 41.4428L186.9 45.3385C185.789 46.2202 185.279 47.1418 185.37 48.1032C185.462 49.0645 186.148 50.1696 187.427 51.4183L188.84 50.2969C188.395 49.7834 188.032 49.3426 187.752 48.9747C187.472 48.6067 187.356 48.2607 187.404 47.9365C187.452 47.6124 187.7 47.2731 188.147 46.9185L193.055 43.0229L194.961 45.4383L196.482 44.2309L194.576 41.816ZM205.025 52.7415C205.196 52.7872 205.374 52.7974 205.548 52.7715C205.722 52.7456 205.89 52.6841 206.039 52.5909C206.193 52.5011 206.327 52.3811 206.434 52.2382C206.54 52.0952 206.617 51.9322 206.659 51.759C206.708 51.5882 206.722 51.4089 206.698 51.2327C206.674 51.0566 206.613 50.8874 206.52 50.7361C206.43 50.5784 206.308 50.4413 206.162 50.3336C206.017 50.2258 205.85 50.1497 205.673 50.1101C205.501 50.0662 205.321 50.0573 205.146 50.0842C204.97 50.1111 204.801 50.1731 204.65 50.2666C204.497 50.3551 204.364 50.4741 204.259 50.6162C204.154 50.7582 204.08 50.9203 204.04 51.0925C203.995 51.2673 203.986 51.4494 204.014 51.6277C204.041 51.806 204.105 51.9767 204.201 52.1294C204.29 52.2824 204.409 52.4156 204.55 52.5209C204.692 52.6263 204.854 52.7015 205.026 52.7419L205.025 52.7415ZM202.909 54.0676L201.876 52.3391L191.972 58.2936L193.004 60.0218L202.909 54.0676ZM207.596 62.2758C207.275 61.5681 206.809 60.9362 206.228 60.4211C205.648 59.906 204.965 59.5193 204.226 59.2863C202.703 58.7888 201.049 58.8931 199.6 59.5779C198.152 60.2627 197.019 61.4763 196.433 62.9707C196.145 63.6911 196.012 64.4642 196.042 65.2396C196.072 66.015 196.265 66.7754 196.608 67.4712C197.428 69.2162 198.738 70.2101 200.538 70.4529L198.741 71.3023L199.599 73.1249L214.222 66.2107L213.364 64.3881L207.389 67.2127C208.349 65.6667 208.418 64.0209 207.596 62.2753V62.2758ZM198.296 63.7286C198.485 63.2144 198.774 62.7432 199.147 62.3427C199.521 61.9421 199.97 61.6202 200.468 61.3959C200.953 61.1505 201.484 61.0074 202.026 60.9754C202.569 60.9434 203.112 61.0232 203.623 61.2098C204.651 61.5858 205.489 62.3535 205.956 63.3461C206.422 64.3386 206.479 65.4758 206.114 66.5103C205.933 67.024 205.649 67.4951 205.279 67.8946C204.909 68.2941 204.462 68.6134 203.964 68.833C203.475 69.0759 202.941 69.2183 202.396 69.2519C201.85 69.2855 201.303 69.2097 200.787 69.0289C199.769 68.6397 198.941 67.8703 198.477 66.8821C198.012 65.894 197.947 64.7638 198.296 63.7286V63.7286V63.7286ZM209.425 85.0202C211.046 84.5241 212.258 83.5876 213.062 82.2109C213.9 80.84 214.071 79.3424 213.577 77.7181C213.055 76.0049 212.077 74.7786 210.644 74.0391C209.226 73.295 207.678 73.18 206 73.6944C204.335 74.2043 203.11 75.1772 202.324 76.6131C201.576 78.0693 201.468 79.6687 201.999 81.4113C202.656 83.5673 203.983 84.9368 205.98 85.5198L206.408 83.5962C205.131 83.2613 204.27 82.3628 203.824 80.9006C203.499 79.8375 203.505 78.8668 203.843 77.9887C204.192 77.095 204.86 76.3633 205.717 75.9361L208.545 85.2174C208.843 85.1736 209.137 85.1076 209.425 85.0198V85.0198V85.0202ZM211.641 80.8775C211.28 81.6986 210.616 82.3461 209.649 82.82L207.395 75.4217C208.342 75.2632 209.314 75.4613 210.124 75.9779C210.93 76.5181 211.513 77.3335 211.765 78.2725C212.048 79.1264 212.004 80.0554 211.641 80.8784V80.8775ZM216.929 92.3453C216.822 91.575 216.554 90.8358 216.144 90.176C215.733 89.5162 215.189 88.9504 214.546 88.5156C213.228 87.6036 211.613 87.2305 210.03 87.4726C208.448 87.7147 207.017 88.5536 206.03 89.8181C205.55 90.4264 205.202 91.1294 205.011 91.8813C204.819 92.6332 204.788 93.4172 204.919 94.1821C205.208 96.0902 206.181 97.4175 207.837 98.1638L205.873 98.4651L206.177 100.457L217.591 98.7112L217.289 96.7191L215.325 97.0204C216.684 95.8127 217.219 94.255 216.929 92.3472V92.3453ZM207.6 91.0775C207.928 90.6388 208.339 90.2701 208.811 89.9929C209.282 89.7156 209.804 89.5354 210.345 89.4627C210.88 89.3665 211.43 89.381 211.959 89.5056C212.488 89.6301 212.986 89.862 213.423 90.187C214.301 90.8416 214.886 91.8173 215.051 92.9019C215.216 93.9866 214.947 95.0927 214.304 95.98C213.984 96.4208 213.577 96.7912 213.109 97.0683C212.64 97.3454 212.12 97.5233 211.581 97.5912C211.042 97.6837 210.491 97.6676 209.958 97.5439C209.426 97.4201 208.924 97.1911 208.481 96.8703C207.616 96.206 207.041 95.2317 206.877 94.1518C206.713 93.0718 206.972 91.97 207.6 91.0775V91.0775ZM205.621 123.223C205.869 123.533 206.226 123.735 206.619 123.786C207.011 123.838 207.409 123.736 207.728 123.501C207.963 123.319 208.139 123.072 208.234 122.79C208.33 122.508 208.339 122.204 208.262 121.917C208.185 121.629 208.025 121.371 207.801 121.175C207.578 120.979 207.302 120.854 207.008 120.815C206.713 120.776 206.414 120.826 206.148 120.957C205.882 121.089 205.661 121.297 205.512 121.555C205.364 121.813 205.295 122.109 205.314 122.406C205.334 122.703 205.44 122.987 205.621 123.224V123.223ZM200.544 143.466L197.967 149.237C197.074 151.238 197.038 153.227 197.86 155.203C198.709 157.192 200.16 158.646 202.213 159.568C204.278 160.495 206.32 160.608 208.336 159.907C209.314 159.587 210.212 159.061 210.969 158.363C211.726 157.665 212.325 156.812 212.724 155.862L215.299 150.09L200.544 143.466ZM212.567 151.224L210.869 155.029C210.195 156.537 209.117 157.534 207.636 158.019C206.141 158.498 204.613 158.387 203.052 157.687C201.491 156.987 200.391 155.918 199.751 154.48C199.126 153.049 199.15 151.579 199.823 150.071L201.52 146.265L212.567 151.224ZM204.523 167.079C204.564 167.251 204.64 167.412 204.746 167.554C204.852 167.695 204.985 167.813 205.138 167.9C205.291 167.992 205.46 168.053 205.636 168.078C205.812 168.104 205.992 168.094 206.164 168.048C206.337 168.01 206.5 167.935 206.643 167.83C206.786 167.724 206.905 167.59 206.994 167.435C207.089 167.281 207.15 167.108 207.175 166.929C207.2 166.749 207.186 166.566 207.136 166.391C207.092 166.218 207.014 166.056 206.907 165.914C206.799 165.772 206.664 165.653 206.509 165.565C206.359 165.472 206.191 165.412 206.016 165.388C205.841 165.363 205.663 165.375 205.493 165.422C205.319 165.467 205.155 165.546 205.013 165.656C204.87 165.766 204.751 165.904 204.663 166.061C204.572 166.212 204.512 166.38 204.487 166.555C204.463 166.73 204.475 166.908 204.523 167.079V167.079ZM202.348 165.851L203.368 164.114L193.414 158.241L192.396 159.978L202.348 165.851ZM197.316 170.046C197.304 170.568 197.128 171.074 196.813 171.489C196.105 172.5 195.228 172.892 194.184 172.665L193.989 174.595C194.803 174.728 195.638 174.611 196.385 174.258C197.176 173.88 197.853 173.296 198.345 172.568C199.017 171.607 199.314 170.619 199.237 169.601C199.207 169.128 199.068 168.668 198.833 168.256C198.597 167.845 198.27 167.493 197.877 167.229C197.524 166.972 197.113 166.804 196.681 166.739C196.316 166.679 195.944 166.68 195.579 166.741C195.184 166.835 194.809 166.996 194.469 167.218C194.138 167.413 193.818 167.627 193.512 167.86C193.298 168.03 192.99 168.284 192.584 168.622C191.418 169.668 190.514 169.965 189.871 169.513C189.672 169.388 189.511 169.211 189.404 169.001C189.298 168.791 189.25 168.557 189.266 168.322C189.323 167.742 189.544 167.19 189.901 166.731C190.255 166.194 190.756 165.771 191.345 165.513C191.874 165.284 192.468 165.251 193.02 165.419L193.204 163.425C192.329 163.224 191.412 163.32 190.597 163.699C189.685 164.127 188.908 164.798 188.35 165.638C187.633 166.662 187.299 167.69 187.346 168.724C187.391 169.479 187.697 170.194 188.211 170.747C188.725 171.301 189.415 171.657 190.163 171.756C190.669 171.799 191.177 171.702 191.631 171.473C192.06 171.271 192.47 171.029 192.855 170.751C193.253 170.451 193.634 170.128 193.997 169.786C195.214 168.775 196.124 168.483 196.729 168.909C196.915 169.032 197.067 169.202 197.17 169.4C197.272 169.599 197.323 169.821 197.316 170.045V170.046ZM179.353 177.91C179.134 178.932 179.202 179.996 179.548 180.983L181.429 180.374C181.188 179.724 181.136 179.018 181.281 178.34C181.43 177.624 181.771 176.963 182.267 176.426C182.618 176.015 183.05 175.68 183.535 175.443C184.02 175.205 184.549 175.07 185.088 175.045C186.173 175.022 187.226 175.415 188.033 176.142C188.84 176.87 189.341 177.878 189.433 178.962C189.466 179.502 189.389 180.044 189.205 180.553C189.021 181.062 188.735 181.528 188.365 181.922C187.887 182.472 187.265 182.877 186.57 183.092C185.919 183.297 185.222 183.303 184.568 183.109L184.162 185.016C185.143 185.303 186.187 185.289 187.161 184.979C188.192 184.657 189.114 184.054 189.824 183.238C190.988 181.94 191.521 180.468 191.422 178.822C191.335 177.187 190.651 175.791 189.368 174.635C188.084 173.479 186.622 172.939 184.981 173.016C183.35 173.103 181.953 173.795 180.79 175.093C180.066 175.884 179.57 176.857 179.353 177.909V177.91ZM172.345 187.108C172.387 186.229 172.801 185.455 173.586 184.784C174.265 184.203 174.968 183.947 175.695 184.016C176.421 184.084 177.084 184.471 177.683 185.176L182.208 190.499L183.737 189.192L179.137 183.781C178.188 182.665 177.126 182.046 175.951 181.925C174.775 181.804 173.672 182.184 172.641 183.065C171.352 184.167 170.828 185.478 171.067 186.998L169.988 185.729L168.459 187.036L175.951 195.849L177.48 194.542L173.509 189.872C172.69 188.907 172.302 187.986 172.345 187.107V187.108ZM169.316 198.101C169.114 198.582 168.766 198.987 168.322 199.259C167.296 199.94 166.337 199.985 165.446 199.392L164.563 201.117C165.273 201.54 166.093 201.736 166.916 201.68C167.791 201.618 168.633 201.323 169.356 200.824C170.332 200.176 170.969 199.364 171.266 198.389C171.41 197.937 171.449 197.458 171.38 196.989C171.31 196.52 171.134 196.073 170.864 195.683C170.628 195.315 170.307 195.008 169.929 194.79C169.611 194.601 169.264 194.465 168.902 194.389C168.5 194.331 168.092 194.344 167.694 194.427C167.315 194.486 166.939 194.568 166.569 194.674C166.309 194.754 165.928 194.878 165.428 195.043C163.961 195.591 163.011 195.536 162.578 194.879C162.439 194.69 162.353 194.466 162.33 194.232C162.307 193.998 162.348 193.762 162.448 193.549C162.712 193.031 163.118 192.598 163.617 192.301C164.142 191.929 164.764 191.719 165.406 191.696C165.983 191.677 166.548 191.863 167 192.222L167.896 190.431C167.155 189.924 166.266 189.678 165.371 189.732C164.366 189.797 163.397 190.138 162.572 190.717C161.532 191.406 160.846 192.241 160.514 193.222C160.281 193.941 160.305 194.719 160.583 195.422C160.86 196.125 161.373 196.709 162.033 197.074C162.488 197.301 162.996 197.396 163.502 197.349C163.976 197.318 164.446 197.243 164.906 197.125C165.385 196.991 165.857 196.831 166.32 196.645C167.82 196.148 168.774 196.209 169.182 196.828C169.311 197.011 169.39 197.224 169.413 197.447C169.437 197.669 169.403 197.894 169.316 198.1V198.101ZM159.395 204.126C159.143 204.583 158.754 204.949 158.283 205.172C157.19 205.74 156.232 205.682 155.409 204.996L154.348 206.616C155.007 207.113 155.803 207.396 156.627 207.427C157.503 207.46 158.372 207.256 159.144 206.838C160.183 206.298 160.903 205.559 161.302 204.622C161.494 204.188 161.584 203.716 161.564 203.242C161.545 202.768 161.417 202.304 161.191 201.888C160.996 201.496 160.709 201.158 160.356 200.901C160.06 200.678 159.73 200.505 159.378 200.39C158.984 200.291 158.577 200.26 158.173 200.3C157.789 200.318 157.407 200.359 157.028 200.424C156.76 200.477 156.368 200.559 155.854 200.669C154.337 201.057 153.398 200.901 153.037 200.202C152.918 199.999 152.857 199.767 152.859 199.532C152.861 199.297 152.927 199.066 153.049 198.865C153.368 198.379 153.817 197.992 154.345 197.749C154.907 197.437 155.547 197.295 156.188 197.34C156.763 197.382 157.305 197.627 157.716 198.033L158.798 196.349C158.115 195.766 157.258 195.426 156.361 195.383C155.355 195.34 154.356 195.575 153.474 196.063C152.366 196.638 151.595 197.395 151.161 198.334C150.853 199.024 150.794 199.8 150.995 200.529C151.196 201.257 151.644 201.893 152.261 202.326C152.689 202.6 153.185 202.75 153.693 202.757C154.167 202.777 154.642 202.752 155.112 202.684C155.603 202.602 156.089 202.493 156.569 202.358C158.114 202.025 159.056 202.188 159.396 202.846C159.504 203.042 159.561 203.262 159.56 203.486C159.56 203.71 159.503 203.93 159.395 204.126V204.126ZM144.916 212.738L146.966 212.094L138.72 202.597L138.787 202.115C138.916 200.311 139.673 199.248 141.057 198.925L140.497 197.137C139.428 197.376 138.49 198.013 137.872 198.92C137.232 199.843 136.866 201.006 136.773 202.409L135.946 215.559L137.996 214.915L138.46 205.253L144.916 212.738ZM120.454 212.555C120.7 213.93 121.413 215.177 122.472 216.084C123.531 216.992 124.87 217.504 126.263 217.534C127.655 217.563 129.015 217.108 130.111 216.247C131.208 215.385 131.973 214.169 132.277 212.806C132.581 211.443 132.405 210.016 131.779 208.769C131.153 207.521 130.116 206.528 128.844 205.96C127.571 205.392 126.142 205.283 124.798 205.652C123.455 206.021 122.28 206.844 121.473 207.983C121.001 208.635 120.667 209.377 120.491 210.163C120.316 210.949 120.303 211.763 120.454 212.554V212.555ZM128.81 208.126C129.689 208.778 130.283 209.744 130.468 210.825C130.654 211.905 130.416 213.015 129.805 213.924C129.168 214.802 128.215 215.397 127.148 215.581C126.081 215.766 124.985 215.525 124.092 214.911C123.419 214.443 122.9 213.785 122.603 213.02C122.305 212.255 122.242 211.418 122.422 210.617C122.601 209.816 123.015 209.087 123.611 208.523C124.206 207.96 124.956 207.587 125.764 207.454C126.291 207.351 126.832 207.358 127.356 207.473C127.88 207.589 128.375 207.811 128.81 208.125L128.81 208.126ZM110.1 209.819C110.68 209.158 111.486 208.812 112.517 208.78C113.41 208.751 114.118 208.992 114.642 209.501C115.167 210.01 115.443 210.727 115.473 211.653L115.693 218.645L117.702 218.581L117.478 211.474C117.432 210.007 116.988 208.859 116.145 208.028C115.302 207.198 114.204 206.804 112.85 206.846C111.157 206.9 109.931 207.596 109.172 208.932L109.119 207.266L107.11 207.33L107.475 218.905L109.484 218.841L109.291 212.706C109.251 211.44 109.52 210.477 110.1 209.818L110.1 209.819ZM103.203 218.667L104.059 207.119L102.055 206.97L101.602 213.09C101.508 214.353 101.087 215.243 100.338 215.76C99.5804 216.279 98.6549 216.493 97.7469 216.357L97.5911 218.458C99.3265 218.588 100.577 217.962 101.343 216.579L101.2 218.519L103.203 218.667ZM86.4987 214.474L86.0139 216.406L87.9624 216.897L91.9088 201.176L89.9603 200.682L88.3479 207.107C87.7496 205.379 86.5247 204.281 84.673 203.814C83.926 203.611 83.1448 203.568 82.3801 203.688C81.6155 203.808 80.8847 204.088 80.2354 204.511C78.8863 205.375 77.9172 206.724 77.5264 208.281C77.1355 209.838 77.3523 211.486 78.1324 212.888C78.5033 213.571 79.0133 214.168 79.6292 214.64C80.2451 215.113 80.9531 215.45 81.7073 215.63C83.5589 216.097 85.1559 215.712 86.4985 214.474H86.4987ZM87.0027 207.627C87.279 208.1 87.4585 208.623 87.5307 209.166C87.6029 209.71 87.5664 210.262 87.4233 210.791C87.3042 211.323 87.0779 211.825 86.7582 212.266C86.4385 212.707 86.0322 213.078 85.5643 213.355C84.8651 213.782 84.0545 213.989 83.237 213.949C82.4194 213.91 81.6324 213.626 80.9771 213.134C80.3217 212.643 79.8282 211.966 79.5599 211.19C79.2916 210.415 79.2608 209.576 79.4715 208.783C79.5953 208.25 79.8239 207.746 80.1439 207.302C80.4639 206.857 80.869 206.482 81.3354 206.196C82.281 205.653 83.3997 205.499 84.4564 205.766C85.5131 206.033 86.4255 206.7 87.0019 207.627V207.627H87.0027ZM72.6363 212.568L76.7021 201.729L74.8216 201.019L72.6676 206.764C72.2233 207.948 71.5692 208.683 70.7054 208.967C69.8322 209.251 68.8841 209.194 68.0511 208.807L67.3111 210.78C68.9398 211.394 70.316 211.146 71.4396 210.037L70.7567 211.858L72.6363 212.568ZM56.711 198.991C56.0893 200.242 55.9184 201.67 56.2272 203.032C56.536 204.395 57.3055 205.608 58.4051 206.466C59.5047 207.324 60.8665 207.774 62.2594 207.739C63.6522 207.705 64.9903 207.188 66.0462 206.276C67.1021 205.365 67.8109 204.115 68.0522 202.739C68.2934 201.363 68.0523 199.945 67.3697 198.727C66.6871 197.509 65.6052 196.565 64.3076 196.056C63.01 195.547 61.5768 195.505 60.2513 195.935C59.4843 196.175 58.7745 196.57 58.1656 197.095C57.5567 197.621 57.0617 198.266 56.7112 198.991L56.711 198.991ZM66.0502 200.445C66.3664 201.494 66.2669 202.625 65.7725 203.602C65.278 204.579 64.4267 205.328 63.3959 205.691C62.3623 206.014 61.2439 205.92 60.2785 205.428C59.3132 204.937 58.5769 204.088 58.2262 203.061C57.9648 202.282 57.9411 201.444 58.1581 200.652C58.3751 199.86 58.8229 199.151 59.4442 198.616C60.0654 198.081 60.8319 197.744 61.6452 197.648C62.4586 197.553 63.2818 197.703 64.0095 198.08C64.4927 198.313 64.9231 198.644 65.2741 199.05C65.6251 199.457 65.8893 199.931 66.0504 200.444L66.0502 200.445ZM47.7205 202.953C47.5477 202.988 47.3838 203.058 47.2391 203.16C47.0944 203.261 46.9719 203.39 46.8793 203.541C46.7816 203.69 46.7148 203.858 46.6829 204.033C46.6509 204.209 46.6544 204.389 46.6932 204.563C46.7255 204.738 46.7937 204.904 46.8935 205.051C46.9932 205.198 47.1224 205.322 47.2727 205.416C47.423 205.517 47.5927 205.586 47.7709 205.617C47.9491 205.649 48.1318 205.642 48.3075 205.599C48.4815 205.562 48.6461 205.489 48.7917 205.387C48.9373 205.284 49.0609 205.153 49.1551 205.002C49.2525 204.855 49.3187 204.688 49.3497 204.514C49.3806 204.34 49.3756 204.161 49.335 203.989C49.2978 203.813 49.2248 203.646 49.1207 203.499C49.0166 203.352 48.8835 203.227 48.7296 203.134C48.5827 203.036 48.4174 202.97 48.2439 202.939C48.0704 202.908 47.8923 202.912 47.7207 202.953L47.7205 202.953ZM58.8178 190.318C59.3436 190.224 59.9423 190.439 60.614 190.962L61.6601 189.324C60.4864 188.442 59.3888 188.1 58.3674 188.296C57.3459 188.492 56.4325 189.221 55.6272 190.484L49.0272 200.822L50.7194 201.908L57.3194 191.57C57.7922 190.828 58.2915 190.41 58.8173 190.317L58.8178 190.318ZM40.3325 187.055C39.284 188.388 38.8208 189.85 38.943 191.442C39.0339 193.047 39.7444 194.375 41.0746 195.427C42.4775 196.536 43.9776 196.985 45.5749 196.773C47.1633 196.574 48.5007 195.783 49.587 194.401C50.6643 193.03 51.1176 191.53 50.947 189.902C50.7342 188.277 49.914 186.901 48.4863 185.774C46.7212 184.378 44.8525 184.012 42.8802 184.675L43.6219 186.5C44.8619 186.044 46.0805 186.29 47.2776 187.237C48.1481 187.925 48.6949 188.725 48.918 189.638C49.1388 190.573 49.0057 191.556 48.5445 192.397L40.9446 186.389C40.7244 186.595 40.5199 186.818 40.3327 187.055V187.055L40.3325 187.055ZM40.8673 191.725C40.6978 190.844 40.8752 189.932 41.3996 188.991L47.4578 193.779C46.7696 194.45 45.8585 194.843 44.8993 194.883C43.93 194.899 42.9878 194.562 42.2466 193.936C41.529 193.395 41.0372 192.607 40.8667 191.724L40.8673 191.725ZM35.9664 175.149C34.9644 174.859 33.9017 174.852 32.896 175.13L33.3697 177.054C34.0332 176.858 34.7387 176.856 35.4033 177.048C36.1048 177.248 36.739 177.635 37.2382 178.168C37.6225 178.549 37.925 179.004 38.1271 179.506C38.3293 180.008 38.4268 180.546 38.4136 181.087C38.3598 182.174 37.8956 183.2 37.1153 183.956C36.335 184.712 35.2971 185.142 34.2121 185.159C33.6722 185.154 33.139 185.038 32.6455 184.819C32.152 184.599 31.7087 184.28 31.3427 183.882C30.8291 183.366 30.4695 182.715 30.3047 182.005C30.1461 181.339 30.1892 180.641 30.4287 180.001L28.5594 179.461C28.2059 180.422 28.1455 181.468 28.3859 182.464C28.6343 183.518 29.1691 184.483 29.9311 185.251C31.1406 186.506 32.5671 187.142 34.2108 187.158C35.8439 187.186 37.2803 186.599 38.5201 185.397C39.7599 184.195 40.3993 182.771 40.4384 181.123C40.4662 179.485 39.8755 178.039 38.6664 176.785C37.9298 176.005 36.9969 175.44 35.9662 175.148L35.9664 175.149ZM22.5442 176.144L19.986 178.126L21.69 179.352L23.7729 177.737L25.1714 179.551L26.7063 178.361L25.3078 176.547L30.2593 172.708C31.3803 171.839 31.9005 170.923 31.8199 169.961C31.7393 168.999 31.0662 167.886 29.8008 166.622L28.3756 167.727C28.8147 168.246 29.1724 168.691 29.4485 169.062C29.7247 169.433 29.8368 169.78 29.7848 170.104C29.7326 170.428 29.4811 170.764 29.0303 171.114L24.0788 174.953L22.1998 172.516L20.6651 173.706L22.5442 176.144ZM12.2201 165.103C12.0503 165.056 11.8726 165.043 11.6979 165.067C11.5232 165.091 11.3553 165.151 11.2045 165.242C11.0498 165.331 10.9145 165.449 10.8063 165.591C10.6982 165.733 10.6196 165.895 10.575 166.067C10.5242 166.238 10.5094 166.417 10.5316 166.593C10.5538 166.77 10.6125 166.939 10.7039 167.092C10.7918 167.25 10.9118 167.389 11.0562 167.498C11.2005 167.608 11.3661 167.686 11.5423 167.727C11.7142 167.773 11.8936 167.784 12.0697 167.759C12.2459 167.734 12.4153 167.674 12.5679 167.582C12.7215 167.495 12.8558 167.378 12.9624 167.237C13.069 167.096 13.1456 166.935 13.1875 166.763C13.2346 166.589 13.2456 166.407 13.2197 166.228C13.1939 166.049 13.1318 165.878 13.0373 165.724C12.9507 165.57 12.8335 165.436 12.6929 165.329C12.5524 165.222 12.3914 165.145 12.2201 165.103V165.103ZM14.3504 163.801L15.3643 165.541L25.335 159.698L24.321 157.958L14.3504 163.801ZM9.75486 155.541C10.0682 156.252 10.5273 156.889 11.1024 157.411C11.6775 157.932 12.3556 158.327 13.0927 158.568C13.8393 158.839 14.6322 158.957 15.425 158.917C16.2178 158.877 16.9947 158.678 17.7102 158.333C18.442 158.016 19.1032 157.555 19.6553 156.977C20.2075 156.4 20.6393 155.719 20.9258 154.972C21.2214 154.255 21.3631 153.483 21.3416 152.708C21.3201 151.932 21.1358 151.169 20.8009 150.47C19.9997 148.715 18.7011 147.706 16.905 147.444L18.711 146.615L17.8747 144.783L3.1746 151.53L4.01094 153.362L10.017 150.605C9.0412 152.14 8.95383 153.785 9.75486 155.541ZM19.0715 154.193C18.8767 154.705 18.5821 155.173 18.2048 155.569C17.8276 155.965 17.3754 156.282 16.8746 156.501C16.3864 156.741 15.8545 156.878 15.3114 156.904C14.7684 156.93 14.2259 156.844 13.7172 156.652C12.6936 156.264 11.864 155.487 11.4086 154.489C10.9532 153.491 10.9088 152.353 11.285 151.323C11.4722 150.811 11.7618 150.343 12.1362 149.948C12.5105 149.552 12.9616 149.238 13.4617 149.024C13.9542 148.787 14.489 148.651 15.0347 148.623C15.5804 148.596 16.1261 148.678 16.6399 148.864C17.6537 149.265 18.4734 150.043 18.9269 151.037C19.3804 152.03 19.4325 153.161 19.0721 154.193V154.193L19.0715 154.193ZM8.18321 132.773C6.55837 133.251 5.33579 134.174 4.51548 135.541C3.66174 136.902 3.47303 138.397 3.94935 140.027C4.4517 141.747 5.41503 142.984 6.83934 143.74C8.24912 144.5 9.79611 144.633 11.4803 144.138C13.1502 143.647 14.3863 142.688 15.1886 141.262C15.9537 139.814 16.0803 138.216 15.5684 136.468C14.9363 134.304 13.6251 132.92 11.635 132.314L11.1844 134.232C12.458 134.582 13.3092 135.49 13.7381 136.957C14.0499 138.024 14.0327 138.995 13.6864 139.869C13.3266 140.758 12.6503 141.482 11.7886 141.899L9.06705 132.586C8.76819 132.627 8.47276 132.69 8.18321 132.775V132.775V132.773ZM5.92057 136.89C6.29186 136.073 6.96326 135.433 7.93479 134.97L10.1043 142.394C9.15555 142.541 8.18592 142.332 7.38162 141.806C6.58222 141.256 6.00855 140.435 5.76679 139.493C5.49468 138.636 5.54948 137.708 5.92057 136.89V136.89ZM0.765308 125.362C0.863156 126.134 1.12185 126.876 1.52456 127.54C1.92727 128.205 2.46497 128.777 3.10269 129.219C3.74129 129.692 4.46746 130.033 5.23876 130.221C6.01007 130.409 6.81105 130.441 7.59493 130.316C8.38675 130.221 9.15171 129.968 9.8451 129.573C10.5385 129.178 11.1464 128.648 11.6333 128.015C12.1208 127.412 12.4762 126.713 12.6764 125.963C12.8766 125.214 12.917 124.43 12.7951 123.664C12.5271 121.753 11.5694 120.414 9.92216 119.649L11.8891 119.371L11.6089 117.375L0.173828 118.991L0.453983 120.987L2.42089 120.709C1.04891 121.901 0.497108 123.452 0.765496 125.363L0.765308 125.362ZM10.0788 126.737C9.74632 127.172 9.33072 127.536 8.85628 127.808C8.38184 128.08 7.8581 128.254 7.31571 128.32C6.7796 128.41 6.23073 128.39 5.70295 128.259C5.17517 128.128 4.67966 127.891 4.24696 127.561C3.3767 126.896 2.80294 125.914 2.65022 124.828C2.49751 123.742 2.77817 122.639 3.43129 121.759C3.75628 121.322 4.16708 120.956 4.63838 120.684C5.10968 120.413 5.63149 120.241 6.17162 120.179C6.7112 120.092 7.26256 120.115 7.79342 120.245C8.32429 120.374 8.82399 120.609 9.26328 120.935C10.1211 121.609 10.6851 122.59 10.8371 123.672C10.989 124.754 10.7169 125.853 10.078 126.738V126.738L10.0788 126.737ZM12.4231 94.612C12.179 94.2993 11.8239 94.0934 11.432 94.0373C11.04 93.9811 10.6416 94.0791 10.3201 94.3107C10.1202 94.4583 9.9598 94.6532 9.85316 94.878C9.74651 95.1028 9.69692 95.3506 9.70879 95.5993C9.72066 95.8479 9.79362 96.0898 9.92118 96.3034C10.0487 96.5169 10.227 96.6956 10.44 96.8234C10.653 96.9513 10.8942 97.0243 11.1422 97.0361C11.3901 97.0479 11.6372 96.9981 11.8613 96.891C12.0854 96.784 12.2797 96.6231 12.4268 96.4226C12.574 96.2221 12.6695 95.9882 12.7047 95.7418C12.7386 95.5442 12.7309 95.3416 12.6822 95.1471C12.6336 94.9526 12.545 94.7704 12.4222 94.6122L12.4231 94.612Z" fill="black"/>
</g>
<defs>
<clipPath id="clip0_6455_8">
<rect width="217.627" height="219" fill="white"/>
</clipPath>
</defs>
</svg>
