<svg width="24" height="24" viewBox="0 0 24 24" fill="none" xmlns="http://www.w3.org/2000/svg">
<g clip-path="url(#clip0_1988_18506)">
<path d="M22.6753 24C23.4068 24 23.9998 23.4069 23.9998 22.6754V1.32457C23.9998 0.592862 23.4067 0 22.6753 0H1.32457C0.592862 0 0 0.592952 0 1.32457V22.6753C0 23.4069 0.592862 23.9999 1.32457 23.9999L22.6753 24Z" fill="#485A96"/>
<path d="M16.5556 24.0002V14.7061H19.6752L20.1423 11.084H16.5555V8.77147C16.5555 7.72279 16.8467 7.00817 18.3506 7.00817L20.2686 7.00727V3.76771C19.9368 3.72365 18.7982 3.625 17.4738 3.625C14.7084 3.625 12.8151 5.31294 12.8151 8.41286V11.084H9.6875V14.7061H12.8151V24.0001L16.5556 24.0002Z" fill="white"/>
</g>
<defs>
<clipPath id="clip0_1988_18506">
<rect width="24" height="24" fill="white"/>
</clipPath>
</defs>
</svg>
