<svg width="355" height="208" viewBox="0 0 355 208" fill="none" xmlns="http://www.w3.org/2000/svg">
<path d="M354.897 0H0V69.0551H354.897V0Z" fill="#FF9533"/>
<path d="M354.92 138.257H0.0234375V207.271H354.92V138.257Z" fill="#008900"/>
<path d="M354.92 69.0547H0.0234375V138.257H354.92V69.0547Z" fill="white"/>
<path d="M177.46 72.5791C160.318 72.5791 146.398 86.4646 146.398 103.615C146.398 120.764 160.318 134.692 177.46 134.692C194.602 134.692 208.522 120.764 208.522 103.615C208.502 86.4645 194.602 72.5791 177.46 72.5791ZM177.44 75.5953L176.656 91.2169L177.501 100.101L178.287 91.2169L177.501 75.5953C178.328 75.5953 179.113 75.6365 179.898 75.7192C179.898 75.7604 179.856 75.7604 179.856 75.8017C179.856 76.5465 180.435 77.1663 181.137 77.1663C181.798 77.1663 182.335 76.6289 182.396 76.0089C183.182 76.174 183.925 76.2978 184.689 76.5464L179.898 91.4232L178.37 100.225L181.467 91.7956L184.771 76.5465C185.516 76.794 186.259 77.0004 187.003 77.2902C186.961 77.414 186.899 77.579 186.899 77.7441C186.899 78.4465 187.477 79.0253 188.201 79.0253C188.695 79.0253 189.191 78.6952 189.378 78.2402C190.08 78.5714 190.762 78.9428 191.464 79.3564L182.975 92.4156L179.217 100.598L184.4 93.2831L191.525 79.3976C192.166 79.769 192.827 80.1826 193.488 80.5962C193.302 80.8437 193.198 81.0913 193.198 81.4225C193.198 82.125 193.776 82.7036 194.5 82.7036C194.912 82.7036 195.284 82.5386 195.512 82.1662C196.131 82.7036 196.71 83.241 197.246 83.7784L185.681 94.2329L179.96 101.135L186.838 95.4316L197.308 83.8196C197.845 84.3972 198.382 84.9346 198.877 85.5547C198.568 85.8033 198.424 86.1746 198.424 86.547C198.424 87.2495 199.001 87.8283 199.683 87.8283C199.993 87.8283 200.22 87.7457 200.448 87.5796C200.923 88.2408 201.336 88.902 201.707 89.5633L187.829 96.6715L180.518 101.879L188.634 98.159L201.748 89.6045C202.182 90.3482 202.533 91.1343 202.884 91.7955C202.451 92.0019 202.099 92.498 202.099 93.0354C202.099 93.7379 202.678 94.3156 203.36 94.3156C203.566 94.3156 203.711 94.2743 203.855 94.1917C204.103 94.9354 204.331 95.638 204.516 96.3828L189.254 99.6053L180.89 102.705L189.687 101.218L204.557 96.4652C204.743 97.1264 204.929 97.9528 205.074 98.6964C204.433 98.779 203.958 99.2751 203.958 99.9775C203.958 100.68 204.557 101.259 205.259 101.259C205.301 101.259 205.343 101.259 205.384 101.259C205.466 102.002 205.466 102.829 205.466 103.572L189.894 102.829L180.972 103.615L189.894 104.482L205.466 103.656C205.466 104.482 205.466 105.267 205.384 106.011C205.343 106.011 205.301 106.011 205.259 106.011C204.557 106.011 203.958 106.631 203.958 107.292C203.958 107.954 204.433 108.45 205.053 108.573C204.908 109.358 204.743 110.102 204.557 110.846L199.25 109.152L189.688 106.052L180.89 104.565L189.254 107.665L204.516 110.93C204.331 111.673 204.103 112.458 203.814 113.119C203.772 113.119 203.69 113.078 203.649 113.078C203.525 113.078 203.442 113.078 203.36 113.078C202.637 113.078 202.058 113.616 202.058 114.36C202.058 114.566 202.099 114.69 202.182 114.856C202.244 115.062 202.368 115.227 202.533 115.351C202.574 115.351 202.595 115.392 202.637 115.392C202.678 115.433 202.719 115.474 202.76 115.474C202.781 115.474 202.823 115.517 202.843 115.558C202.513 116.26 202.141 116.963 201.748 117.624L188.654 109.152H188.634L180.517 105.433H180.559L184.814 108.408L187.829 110.557L201.707 117.665C201.294 118.368 200.881 119.07 200.426 119.69C200.22 119.566 199.952 119.484 199.683 119.484C198.96 119.484 198.403 120.02 198.403 120.723C198.403 121.136 198.568 121.509 198.877 121.715C198.362 122.294 197.845 122.873 197.308 123.409L186.838 111.838L179.98 106.135L185.681 113.037L197.246 123.492C196.71 124.07 196.173 124.525 195.573 125.021C195.326 124.815 195.057 124.731 194.768 124.731C194.066 124.731 193.488 125.351 193.488 126.012C193.488 126.261 193.529 126.426 193.59 126.591C192.909 127.005 192.207 127.46 191.525 127.914L184.4 114.028L179.217 106.672L182.955 114.813L191.443 127.955C190.762 128.327 190.08 128.699 189.378 129.03C189.191 128.534 188.737 128.245 188.221 128.245C187.499 128.245 186.92 128.865 186.92 129.526C186.92 129.691 186.961 129.856 187.003 130.021C186.259 130.27 185.536 130.517 184.771 130.682L181.467 115.392L178.37 107.086V107.045L179.898 115.847L184.689 130.725C183.925 130.931 183.161 131.137 182.396 131.22C182.294 130.641 181.757 130.146 181.137 130.146C180.394 130.146 179.856 130.725 179.856 131.386C179.856 131.469 179.856 131.51 179.856 131.551C179.072 131.634 178.287 131.675 177.502 131.675L178.287 116.095L177.46 107.169L176.656 116.095L177.44 131.675C176.615 131.675 175.85 131.634 175.044 131.551C175.044 131.51 175.044 131.469 175.044 131.386C175.044 130.725 174.466 130.146 173.744 130.146C173.124 130.146 172.587 130.641 172.483 131.22C171.72 131.096 170.976 130.931 170.253 130.725L175.044 115.847L176.531 107.086L173.434 115.392L170.171 130.682C169.427 130.517 168.684 130.27 167.919 130.021C167.982 129.856 168.023 129.691 168.023 129.526C168.023 128.865 167.445 128.245 166.763 128.245C166.225 128.245 165.772 128.575 165.544 129.03C164.862 128.699 164.16 128.327 163.479 127.955L171.967 114.813L175.685 106.672L170.522 113.987L163.417 127.914C162.736 127.46 162.054 127.046 161.414 126.591C161.558 126.426 161.662 126.179 161.662 125.889C161.662 125.145 161.083 124.566 160.402 124.566C159.968 124.566 159.616 124.774 159.41 125.063C158.791 124.525 158.212 124.07 157.675 123.492L169.282 113.037L174.983 106.135L168.105 111.838L157.634 123.409C157.056 122.873 156.539 122.253 156.023 121.715C156.312 121.468 156.519 121.095 156.519 120.682C156.519 119.979 155.941 119.442 155.239 119.442C154.949 119.442 154.68 119.525 154.474 119.649C154.02 119.029 153.607 118.368 153.215 117.665L167.135 110.516L174.383 105.432L166.267 109.152L153.174 117.624C152.781 116.963 152.472 116.302 152.12 115.558C152.615 115.392 152.946 114.938 152.946 114.401C152.946 113.657 152.388 113.078 151.645 113.078C151.46 113.078 151.274 113.119 151.109 113.202C150.86 112.499 150.613 111.714 150.385 110.929L165.668 107.665L174.073 104.565L165.235 106.052L150.364 110.846C150.158 110.102 150.013 109.358 149.848 108.532C150.489 108.45 150.964 107.953 150.964 107.292C150.964 106.59 150.385 106.011 149.683 106.011C149.642 106.011 149.58 106.011 149.538 106.011C149.497 105.267 149.435 104.482 149.435 103.656L165.028 104.482L173.93 103.615L165.028 102.829L149.435 103.572C149.435 102.829 149.497 102.002 149.538 101.259C149.621 101.259 149.683 101.259 149.766 101.259C150.468 101.259 151.046 100.721 151.046 99.9773C151.046 99.2749 150.53 98.7788 149.848 98.6962C150.013 97.9526 150.158 97.1262 150.364 96.465L165.235 101.217L174.073 102.705L165.668 99.6051L150.385 96.3413C150.613 95.5553 150.86 94.8116 151.109 94.109C151.232 94.1502 151.438 94.1915 151.583 94.1915C152.306 94.1915 152.864 93.6129 152.864 92.9104C152.864 92.374 152.533 91.9191 152.099 91.754C152.43 91.0092 152.781 90.3068 153.174 89.6043L166.267 98.1588L174.425 101.879L167.135 96.6713L153.215 89.5631C153.607 88.9019 154.041 88.2406 154.495 87.5382C154.68 87.7456 154.99 87.8282 155.259 87.8282C155.941 87.8282 156.539 87.2494 156.539 86.5469C156.539 86.1745 156.333 85.8033 156.065 85.5134C156.539 84.9346 157.057 84.3972 157.614 83.8196L168.084 95.4316L174.983 101.135L169.283 94.2329L157.675 83.7784C158.254 83.2409 158.812 82.7035 159.41 82.2074C159.617 82.4972 159.989 82.7035 160.402 82.7035C161.125 82.7035 161.703 82.1248 161.703 81.3811C161.703 81.0911 161.579 80.8435 161.434 80.596C162.095 80.2236 162.736 79.7688 163.417 79.3974L170.522 93.2829L175.685 100.556L171.967 92.4154L163.479 79.3562C164.16 78.9426 164.842 78.5712 165.524 78.24C165.731 78.7362 166.184 79.0663 166.722 79.0663C167.445 79.0663 168.002 78.4887 168.002 77.8275C168.002 77.62 167.961 77.4138 167.92 77.29C168.643 77.0001 169.428 76.7938 170.171 76.5463L173.475 91.7954L176.573 100.225L175.066 91.423L170.274 76.5462C171.018 76.2976 171.761 76.1738 172.546 76.0087C172.628 76.6287 173.165 77.1238 173.805 77.1238C174.528 77.1238 175.107 76.5462 175.107 75.8014C175.107 75.7602 175.107 75.7189 175.107 75.6775C175.87 75.5953 176.656 75.5953 177.44 75.5953Z" fill="#130080"/>
<path d="M177.503 98.9863C180.064 98.9863 182.13 101.094 182.13 103.615C182.13 106.176 180.064 108.285 177.503 108.285C174.902 108.285 172.836 106.176 172.836 103.615C172.836 101.094 174.902 98.9863 177.503 98.9863Z" fill="white"/>
<path d="M177.502 100.061C179.464 100.061 181.075 101.632 181.075 103.615C181.075 105.64 179.464 107.251 177.502 107.251C175.499 107.251 173.867 105.64 173.867 103.615C173.867 101.632 175.499 100.061 177.502 100.061Z" fill="#130080"/>
</svg>
