<svg width="24" height="24" viewBox="0 0 24 24" fill="none" xmlns="http://www.w3.org/2000/svg">
<g clip-path="url(#clip0_1988_18509)">
<path d="M6.08577 23.9151C4.65848 23.8502 3.88314 23.6127 3.36743 23.4115C2.6841 23.1455 2.19693 22.8288 1.68407 22.3166C1.17122 21.8045 0.853806 21.3173 0.589176 20.634C0.388029 20.1183 0.150504 19.3429 0.0855946 17.9157C0.0142658 16.3728 0 15.9099 0 12.0011C0 8.09225 0.0156923 7.63004 0.0848813 6.08577C0.14979 4.65848 0.388742 3.88457 0.588463 3.36743C0.854519 2.6841 1.17193 2.19693 1.68336 1.68336C2.1955 1.17122 2.68268 0.853092 3.36672 0.588463C3.88243 0.387315 4.65777 0.14979 6.08506 0.0848813C7.62861 0.0142658 8.09225 0 11.9996 0C15.9085 0 16.3707 0.0156923 17.9149 0.0848813C19.3422 0.14979 20.1161 0.388742 20.6333 0.588463C21.3166 0.853092 21.8038 1.17122 22.3166 1.68336C22.8295 2.1955 23.1455 2.68339 23.4115 3.36672C23.6127 3.88243 23.8502 4.65777 23.9151 6.08506C23.9857 7.62933 24 8.09154 24 12.0004C24 15.9077 23.9857 16.3714 23.9151 17.9157C23.8502 19.3429 23.6113 20.1183 23.4115 20.634C23.1455 21.3173 22.8288 21.8045 22.3166 22.3166C21.8045 22.8288 21.3166 23.1455 20.6333 23.4115C20.1176 23.6127 19.3422 23.8502 17.9149 23.9151C16.3721 23.9857 15.9085 24 11.9996 24C8.09225 24 7.62862 23.9864 6.08577 23.9151Z" fill="url(#paint0_radial_1988_18509)"/>
<path d="M6.08577 23.9151C4.65848 23.8502 3.88314 23.6127 3.36743 23.4115C2.6841 23.1455 2.19693 22.8288 1.68407 22.3166C1.17122 21.8045 0.853806 21.3173 0.589176 20.634C0.388029 20.1183 0.150504 19.3429 0.0855946 17.9157C0.0142658 16.3728 0 15.9099 0 12.0011C0 8.09225 0.0156923 7.63004 0.0848813 6.08577C0.14979 4.65848 0.388742 3.88457 0.588463 3.36743C0.854519 2.6841 1.17193 2.19693 1.68336 1.68336C2.1955 1.17122 2.68268 0.853092 3.36672 0.588463C3.88243 0.387315 4.65777 0.14979 6.08506 0.0848813C7.62861 0.0142658 8.09225 0 11.9996 0C15.9085 0 16.3707 0.0156923 17.9149 0.0848813C19.3422 0.14979 20.1161 0.388742 20.6333 0.588463C21.3166 0.853092 21.8038 1.17122 22.3166 1.68336C22.8295 2.1955 23.1455 2.68339 23.4115 3.36672C23.6127 3.88243 23.8502 4.65777 23.9151 6.08506C23.9857 7.62933 24 8.09154 24 12.0004C24 15.9077 23.9857 16.3714 23.9151 17.9157C23.8502 19.3429 23.6113 20.1183 23.4115 20.634C23.1455 21.3173 22.8288 21.8045 22.3166 22.3166C21.8045 22.8288 21.3166 23.1455 20.6333 23.4115C20.1176 23.6127 19.3422 23.8502 17.9149 23.9151C16.3721 23.9857 15.9085 24 11.9996 24C8.09225 24 7.62862 23.9864 6.08577 23.9151Z" fill="url(#paint1_radial_1988_18509)"/>
<path d="M9.05392 12.0509C9.05392 10.4095 10.3841 9.07859 12.0255 9.07859C13.6668 9.07859 14.9977 10.4095 14.9977 12.0509C14.9977 13.6922 13.6668 15.0231 12.0255 15.0231C10.3841 15.0231 9.05392 13.6922 9.05392 12.0509ZM7.44716 12.0509C7.44716 14.5795 9.49687 16.6292 12.0255 16.6292C14.5541 16.6292 16.6038 14.5795 16.6038 12.0509C16.6038 9.52226 14.5541 7.47256 12.0255 7.47256C9.49687 7.47256 7.44724 9.52212 7.44724 12.0509M15.7152 7.29102C15.7151 7.50264 15.7778 7.70952 15.8952 7.88552C16.0127 8.06151 16.1798 8.19872 16.3753 8.27978C16.5707 8.36084 16.7859 8.38211 16.9934 8.34091C17.201 8.29971 17.3917 8.19788 17.5414 8.04831C17.691 7.89874 17.793 7.70813 17.8344 7.5006C17.8758 7.29307 17.8547 7.07794 17.7738 6.8824C17.6929 6.68687 17.5558 6.51971 17.3799 6.40207C17.204 6.28444 16.9971 6.2216 16.7855 6.22152H16.7851C16.5015 6.22165 16.2295 6.33436 16.0288 6.53489C15.8282 6.73542 15.7154 7.00738 15.7152 7.29102ZM8.42337 19.3084C7.55409 19.2688 7.0816 19.124 6.76762 19.0017C6.35134 18.8397 6.05433 18.6466 5.74205 18.3348C5.42977 18.0229 5.23647 17.7262 5.07513 17.3099C4.95273 16.9961 4.80793 16.5235 4.76841 15.6542C4.72519 14.7144 4.71656 14.432 4.71656 12.051C4.71656 9.66998 4.7259 9.38845 4.76841 8.44783C4.808 7.57855 4.95387 7.10685 5.07513 6.79208C5.23718 6.3758 5.4302 6.07879 5.74205 5.76651C6.0539 5.45424 6.35063 5.26093 6.76762 5.09959C7.08146 4.97719 7.55409 4.83239 8.42337 4.79287C9.3632 4.74965 9.64552 4.74102 12.0255 4.74102C14.4054 4.74102 14.688 4.75022 15.6286 4.79302C16.4979 4.83261 16.9696 4.97847 17.2844 5.09973C17.7007 5.26108 17.9977 5.45481 18.31 5.76666C18.6222 6.07851 18.8148 6.37595 18.9769 6.79222C19.0993 7.10607 19.2441 7.57869 19.2836 8.44798C19.3268 9.38859 19.3355 9.67013 19.3355 12.0512C19.3355 14.4322 19.3268 14.7137 19.2836 15.6543C19.244 16.5236 19.0985 16.9961 18.9769 17.3101C18.8148 17.7264 18.6218 18.0234 18.31 18.3349C17.9981 18.6465 17.7007 18.8398 17.2844 19.0019C16.9706 19.1243 16.4979 19.2691 15.6286 19.3086C14.6888 19.3518 14.4065 19.3604 12.0255 19.3604C9.64445 19.3604 9.36291 19.3518 8.42337 19.3086M8.34955 3.18876C7.40037 3.23199 6.75178 3.38249 6.18536 3.6029C5.59911 3.83051 5.10216 4.13587 4.60592 4.63132C4.10969 5.12677 3.80512 5.62378 3.57751 6.21075C3.3571 6.77753 3.2066 7.42576 3.16337 8.37494C3.11943 9.32561 3.10938 9.62954 3.10938 12.0509C3.10938 14.4722 3.11943 14.7761 3.16337 15.7268C3.2066 16.676 3.3571 17.3242 3.57751 17.891C3.80512 18.4772 4.10976 18.9752 4.60592 19.4704C5.10209 19.9657 5.59839 20.2706 6.18536 20.4988C6.75285 20.7192 7.40037 20.8697 8.34955 20.913C9.30071 20.9562 9.60415 20.967 12.0255 20.967C14.4468 20.967 14.7507 20.9569 15.7014 20.913C16.6506 20.8697 17.2988 20.7192 17.8656 20.4988C18.4518 20.2706 18.9488 19.9659 19.445 19.4704C19.9413 18.975 20.2452 18.4772 20.4734 17.891C20.6938 17.3242 20.8451 16.676 20.8876 15.7268C20.9308 14.7754 20.9409 14.4722 20.9409 12.0509C20.9409 9.62954 20.9308 9.32561 20.8876 8.37494C20.8444 7.42569 20.6938 6.77717 20.4734 6.21075C20.2452 5.6245 19.9405 5.12755 19.445 4.63132C18.9496 4.13508 18.4518 3.83051 17.8663 3.6029C17.2988 3.38249 16.6506 3.23127 15.7021 3.18876C14.7513 3.14532 14.4475 3.13477 12.0265 3.13477C9.60557 3.13477 9.30107 3.14482 8.3499 3.18876" fill="white"/>
</g>
<defs>
<radialGradient id="paint0_radial_1988_18509" cx="0" cy="0" r="1" gradientUnits="userSpaceOnUse" gradientTransform="translate(1.55326 23.4742) scale(30.4711)">
<stop offset="0.09" stop-color="#FA8F21"/>
<stop offset="0.78" stop-color="#D82D7E"/>
</radialGradient>
<radialGradient id="paint1_radial_1988_18509" cx="0" cy="0" r="1" gradientUnits="userSpaceOnUse" gradientTransform="translate(16.624 22.7036) scale(26.8148)">
<stop offset="0.64" stop-color="#8C3AAA" stop-opacity="0"/>
<stop offset="1" stop-color="#8C3AAA"/>
</radialGradient>
<clipPath id="clip0_1988_18509">
<rect width="24" height="24" fill="white"/>
</clipPath>
</defs>
</svg>
