<svg width="24" height="24" viewBox="0 0 24 24" fill="none" xmlns="http://www.w3.org/2000/svg">
<g clip-path="url(#clip0_1988_18502)">
<path d="M0 1.71919C0 0.77025 0.794438 0 1.77375 0H22.2262C23.2059 0 24 0.77025 24 1.71919V22.2811C24 23.2303 23.2059 24 22.2262 24H1.77375C0.794531 24 0 23.2304 0 22.2814V1.71891V1.71919Z" fill="#006699"/>
<path d="M7.29525 20.0847V9.27985H3.70387V20.0847H7.29563H7.29525ZM5.50031 7.80488C6.75244 7.80488 7.53197 6.9752 7.53197 5.93832C7.50853 4.87782 6.75244 4.07129 5.52413 4.07129C4.29497 4.07129 3.49219 4.87782 3.49219 5.93823C3.49219 6.9751 4.27144 7.80479 5.47678 7.80479H5.50003L5.50031 7.80488ZM9.28312 20.0847H12.8742V14.0514C12.8742 13.7289 12.8977 13.4056 12.9925 13.1753C13.252 12.5298 13.8429 11.8616 14.8353 11.8616C16.1345 11.8616 16.6545 12.8524 16.6545 14.305V20.0847H20.2455V13.8895C20.2455 10.5709 18.474 9.02654 16.1112 9.02654C14.1741 9.02654 13.3233 10.1093 12.8506 10.8467H12.8745V9.28023H9.28331C9.33019 10.2939 9.28303 20.0851 9.28303 20.0851L9.28312 20.0847Z" fill="white"/>
</g>
<defs>
<clipPath id="clip0_1988_18502">
<rect width="24" height="24" fill="white"/>
</clipPath>
</defs>
</svg>
