<svg width="357" height="434" viewBox="0 0 357 434" fill="none" xmlns="http://www.w3.org/2000/svg">
<path opacity="0.5" fill-rule="evenodd" clip-rule="evenodd" d="M300.492 414L164.53 336.384C159.483 334.079 152.069 331.905 147.12 334.919L134.456 342.63C131.909 344.182 123.531 349.33 129.135 352.375C145.619 361.334 250.942 422.842 267.681 431.943C270.847 433.664 275.478 434.286 280.339 433.882C285.179 433.48 290.204 432.172 294.049 429.802L299.107 426.683C302.683 424.479 304.663 422.072 304.854 419.762C305.04 417.505 303.589 415.413 300.492 414Z" fill="#6D6AFD"/>
<path fill-rule="evenodd" clip-rule="evenodd" d="M296.887 405.164C296.868 411.778 294.508 416.435 290.736 418.626L284.749 422.224C264.212 413.464 271.834 309.44 270.582 279.867L276.888 124.668C271.586 115.407 251.188 107.326 255.949 88.4146L195.756 60.2516C193.084 58.4354 122.842 17.7768 135.451 10.1522C137.56 8.87773 139.647 7.59364 141.729 6.3836C146.384 3.63112 152.317 5.33299 156.675 7.8446L276.447 76.5094C288.203 83.279 297.424 99.661 297.388 112.76L296.887 405.164Z" fill="#303A7D"/>
<path fill-rule="evenodd" clip-rule="evenodd" d="M129.322 23.6078C129.34 17.1229 131.587 12.5177 135.228 10.2743C139.063 7.91059 144.446 8.16623 150.398 11.6022L270.17 80.2648C281.761 86.9554 291.147 103.202 291.109 116.518L290.61 408.92C290.572 422.234 281.125 427.616 269.531 420.926L149.761 352.262C138.155 345.565 128.783 329.324 128.82 316.01L129.322 23.6078Z" fill="#3E4992"/>
<path fill-rule="evenodd" clip-rule="evenodd" d="M135.743 36.1794C135.777 23.9241 144.461 18.9648 155.141 25.1299L265.38 88.3271C276.049 94.4856 284.687 109.439 284.652 121.694L284.193 396.347C284.158 408.601 275.463 413.555 264.792 407.397L154.555 344.199C143.873 338.035 135.247 323.087 135.281 310.833L135.743 36.1794Z" fill="url(#paint0_linear_2208_26301)"/>
<path opacity="0.5" fill-rule="evenodd" clip-rule="evenodd" d="M5.74793 370.204L62.5598 337.864C68.7528 335.036 77.617 332.785 83.9272 336.067C89.6767 339.058 99.1479 345.178 103.336 347.565C106.516 349.378 117.558 355.99 110.681 359.728C90.4496 370.724 70.428 383.09 49.8842 394.26C45.9985 396.372 40.315 397.136 34.3484 396.64C28.408 396.147 22.3141 394.418 17.5223 391.632C14.108 389.647 10.7505 387.693 7.44795 385.771C2.99136 383.178 0.628661 380.111 0.394557 377.275C0.165623 374.505 1.94639 371.938 5.74793 370.204Z" fill="#6D6AFD"/>
<path fill-rule="evenodd" clip-rule="evenodd" d="M87.7602 182.837C83.493 180.384 68.3432 158.61 60.3056 146.646C55.7444 139.857 56.7256 133.49 63.7372 131.057C77.6076 126.243 81.6063 143.594 86.0304 151.872C90.9734 161.12 96.4191 168.46 97.6113 175.582C98.4874 180.815 92.2013 185.389 87.7602 182.837Z" fill="#7662E3"/>
<path fill-rule="evenodd" clip-rule="evenodd" d="M31.6167 350.355C31.2725 351.485 31.4212 352.429 30.8223 353.913C30.2236 355.397 29.5112 357.052 28.8323 359.629C27.7836 363.611 28.9231 368.944 27.5008 374.577C26.7857 376.829 26.784 378.633 28.2258 380.623C29.6387 382.573 32.3136 385.699 35.9172 385.581C36.7406 385.554 38.4288 385.227 39.7675 383.739C41.1733 382.177 42.3507 379.893 42.2245 377.062C42.1765 375.988 41.6502 372.528 41.8444 369.378C42.0145 366.619 42.5624 365.1 42.5841 362.075C42.606 358.878 42.4832 354.476 42.4915 352.412L31.6167 350.355Z" fill="#16193B"/>
<path fill-rule="evenodd" clip-rule="evenodd" d="M63.878 333.97C62.755 336.803 62.0345 338.014 61.875 341.969C62.4572 344.056 63.9039 344.905 65.5035 346.347L66.6521 346.599C69.4746 348.149 70.3702 353.584 72.9598 356.059C74.7874 357.805 78.4934 358.755 82.18 359.471C86.1199 360.235 89.9148 359.104 88.9705 355.99C86.6255 348.255 75.7979 339.519 75.7863 330.875L63.878 333.97Z" fill="#16193B"/>
<path fill-rule="evenodd" clip-rule="evenodd" d="M82.0477 278.837C81.3486 293.656 77.3407 321.39 77.4252 335.992C73.5308 339.788 65.9794 338.613 63.6231 334.729C62.4615 321.292 61.2031 302.203 61.2326 294.83C61.257 288.693 61.9657 283.049 63.6889 277.538C61.9416 261.324 53.1919 239.199 55.8505 223.944C57.018 217.244 61.613 210.031 63.0466 204.503C73.7162 218.11 82.3192 211.588 86.9249 210.406C86.7667 215.108 87.1409 214.48 86.8499 219.422C85.8662 236.131 84.5888 253.974 83.1847 271.312C83.1441 273.902 82.8324 276.747 82.0477 278.837Z" fill="url(#paint1_linear_2208_26301)"/>
<path opacity="0.3" fill-rule="evenodd" clip-rule="evenodd" d="M61.8008 308.886C61.4465 303.051 61.2201 297.971 61.2324 294.83C61.257 288.693 61.9657 283.049 63.6889 277.538C61.9416 261.324 53.1919 239.199 55.8505 223.944C57.018 217.244 61.613 210.031 63.0466 204.503C73.7162 218.11 82.3192 211.588 86.9249 210.406C86.9072 210.931 86.8962 211.388 86.8902 211.795L72.1085 222.49L75.6996 221.685C75.0243 240.941 72.1491 258.495 71.2582 277.484C67.2191 288.252 64.7631 297.45 61.8702 308.547L61.8008 308.886Z" fill="#1E2353"/>
<path fill-rule="evenodd" clip-rule="evenodd" d="M57.1331 289.617C54.0553 304.436 45.2787 340.396 43.0187 354.999C38.1606 357.655 32.0892 356.267 30.5078 352.383C30.8291 338.946 31.5602 314.779 32.7725 307.406C33.7818 301.269 36.2203 291.802 38.828 286.291C38.8179 251.669 35.2064 242.441 40.3131 227.185C42.5561 220.485 48.1155 214.02 50.4369 208.492C53.2754 213.045 57.67 219.506 67.4959 218.707C68.457 218.629 76.7941 212.792 79.5118 212.122C75.5143 232.72 64.9041 259.625 59.4786 282.091C59.0222 284.681 58.2534 287.526 57.1331 289.617Z" fill="url(#paint2_linear_2208_26301)"/>
<path fill-rule="evenodd" clip-rule="evenodd" d="M69.6554 132.444C70.7242 132.5 71.6904 132.764 72.7095 133.24C80.0984 136.693 82.8516 148.139 84.7035 158.239C86.3095 167.001 85.7999 174.248 86.082 182.346C86.307 188.807 87.5543 194.713 87.6899 200.834C87.7303 202.646 88.1286 204.502 87.5989 206.581C87.4142 207.957 87.2121 210.123 87.3027 211.184C81.4383 224.052 50.0741 225.943 44.6297 218.286C45.2111 216.899 45.3691 216.109 45.5412 214.784C42.744 212.215 44.5381 205.008 43.6964 200.131C43.0643 196.469 42.2731 192.744 40.9935 190.131C35.6301 179.178 28.6336 170.945 26.7607 162.38C25.4713 156.482 32.5747 148.531 42.2039 141.821C51.4696 135.365 64.3721 131.295 69.6554 132.444Z" fill="url(#paint3_linear_2208_26301)"/>
<path fill-rule="evenodd" clip-rule="evenodd" d="M84.6026 164.295C83.0618 165.982 80.4662 168.648 77.032 171.545L81.9696 177.973L84.6026 164.295ZM46.1854 192.187C46.6576 192.188 47.0677 192.585 47.1017 193.074C47.1356 193.562 46.7807 193.958 46.3085 193.956C45.8366 193.956 45.4265 193.559 45.3923 193.07C45.3581 192.582 45.7133 192.186 46.1854 192.187ZM50.9537 186.624C51.4253 186.625 51.8359 187.021 51.8699 187.51C51.9036 187.999 51.5487 188.394 51.0768 188.393C50.6046 188.392 50.1945 187.995 50.1605 187.507C50.1263 187.018 50.4815 186.623 50.9537 186.624ZM57.2171 190.064C57.6893 190.065 58.0994 190.461 58.1338 190.95C58.1678 191.438 57.8126 191.834 57.3405 191.833C56.8683 191.832 56.4582 191.435 56.4242 190.946C56.3903 190.458 56.7455 190.063 57.2171 190.064ZM61.8241 182.995C62.2963 182.996 62.7064 183.392 62.7408 183.881C62.7748 184.37 62.4196 184.765 61.9477 184.764C61.4755 184.763 61.0654 184.366 61.0315 183.878C60.9975 183.389 61.3525 182.994 61.8241 182.995ZM68.3576 185.07C68.8295 185.071 69.2399 185.468 69.2736 185.956C69.3076 186.445 68.9526 186.84 68.4804 186.839C68.0085 186.838 67.5984 186.441 67.5647 185.953C67.5305 185.464 67.8855 185.069 68.3576 185.07ZM71.6328 177.385C72.105 177.386 72.5151 177.783 72.5493 178.272C72.5833 178.76 72.2283 179.156 71.7562 179.155C71.284 179.153 70.8739 178.757 70.8399 178.268C70.806 177.779 71.1612 177.384 71.6328 177.385ZM78.156 178.513C78.6281 178.514 79.0382 178.911 79.0727 179.399C79.1064 179.888 78.7514 180.283 78.2795 180.282C77.8074 180.281 77.3973 179.885 77.3633 179.396C77.3291 178.907 77.6843 178.512 78.156 178.513ZM80.9962 170.214C81.4684 170.215 81.8785 170.612 81.9127 171.101C81.9467 171.589 81.5917 171.985 81.1196 171.983C80.6474 171.982 80.2373 171.586 80.2034 171.097C80.1694 170.609 80.5246 170.213 80.9962 170.214ZM85.9245 172.084C85.8132 171.938 85.7416 171.76 85.728 171.568C85.7123 171.343 85.779 171.139 85.9009 170.984L85.9245 172.084ZM40.1463 187.549C40.6184 187.55 41.0285 187.947 41.0625 188.436C41.0891 188.816 40.8796 189.14 40.5628 189.264C40.2905 188.723 40.0143 188.19 39.7357 187.662C39.8538 187.59 39.9939 187.549 40.1463 187.549ZM75.6382 172.695C73.1401 174.709 70.2647 176.784 67.0785 178.679L73.7442 184.935L75.6382 172.695ZM65.6018 179.529C62.9565 181.009 60.1174 182.347 57.1206 183.417L63.3353 190.623L65.6018 179.529ZM55.1491 184.073C52.2232 184.979 49.1601 185.613 45.9927 185.868L51.7205 194.155L55.1491 184.073ZM44.8283 185.944C42.8241 186.046 40.7806 185.994 38.705 185.759C38.3653 185.146 38.0233 184.54 37.6797 183.942C44.0997 184.88 50.2356 183.966 55.8344 182.058L55.8667 181.963L55.9225 182.028C72.8388 176.227 84.8271 161.39 84.8736 161.333L85.1375 160.921C85.3199 162.211 85.4607 163.472 85.5693 164.712L83.1081 177.499C84.2742 176.355 85.232 175.347 85.957 174.555L85.9794 177.075C79.486 183.813 62.8878 198.579 43.1655 197.285C43.0478 196.71 42.9245 196.139 42.7935 195.581C45.6948 195.802 48.5302 195.657 51.2752 195.231L45.5486 186.947L42.5331 194.526C42.3866 193.963 42.231 193.415 42.0651 192.888L44.8283 185.944ZM52.5245 195.018C56.1931 194.33 59.6906 193.148 62.9572 191.677L56.2898 183.947L52.5245 195.018ZM64.3015 191.051C67.5359 189.488 70.5256 187.659 73.2093 185.771L66.6398 179.604L64.3015 191.051ZM74.8352 184.593L76.677 172.691L81.529 179.008C79.6647 180.741 77.4113 182.674 74.8352 184.593Z" fill="#9789E9"/>
<path opacity="0.25" fill-rule="evenodd" clip-rule="evenodd" d="M51.1302 221.861C48.1216 221.111 45.7882 219.915 44.63 218.287C45.2114 216.9 45.3697 216.11 45.541 214.784C42.7439 212.217 44.5384 205.009 43.6968 200.132C43.0646 196.47 42.2735 192.744 40.9941 190.132C35.6299 179.179 28.6334 170.946 26.7608 162.381C26.0785 159.261 27.745 155.567 30.8912 151.786C34.1367 151.257 37.2295 151.669 39.2417 153.37C44.6017 157.903 45.8603 168.508 47.5138 175.714C50.0203 186.638 57.3969 182.832 62.7677 179.981C60.4188 182.665 56.8822 184.198 53.3371 185.08C52.0886 185.391 51.0761 187.838 51.262 190.347C51.818 197.846 52.6063 207.385 52.6063 215.019C62.8377 218.724 74.7964 215.722 80.4769 213.277C71.6703 218.766 61.4857 219.251 52.461 217.993C51.3131 219.028 51.0884 220.383 51.1302 221.861Z" fill="url(#paint4_linear_2208_26301)"/>
<path fill-rule="evenodd" clip-rule="evenodd" d="M31.3912 215.966C33.0183 216.559 35.8345 216.894 37.0239 217.32C37.6393 217.54 42.0748 219.22 44.5911 220.275C47.2816 221.403 48.4066 223.574 50.3294 225.854C51.7584 227.74 52.49 229.163 52.8428 230.178C53.2066 231.227 50.8742 233.842 49.6576 233.813C46.8957 233.749 43.554 231.033 42.784 230.809C36.2502 228.903 33.3514 229.159 30.726 227.136C29.6052 226.272 28.4438 223.329 26.0156 220.957L29.0021 216.952L31.3912 215.966Z" fill="url(#paint5_linear_2208_26301)"/>
<path fill-rule="evenodd" clip-rule="evenodd" d="M25.8832 154.632C17.762 162.569 9.54987 176.499 1.55761 186.767C-1.30948 190.451 0.243097 193.501 2.51102 196.833C7.08601 203.555 12.3874 210.934 22.1649 219.246C22.897 219.868 23.7118 219.914 24.8026 220.213C25.4163 220.721 26.2749 221.635 26.9302 222.166C26.1178 221.121 30.4969 215.876 32.7025 216.225C32.1353 215.523 31.9874 215.24 31.3991 214.433C31.3228 213.429 31.3038 212.779 30.9252 211.922C28.6135 206.685 22.6329 198.001 17.5815 192.469C24.1079 187.201 29.9969 181.169 35.1164 175.26C36.4531 173.718 37.1729 172.968 38.4874 171.368C44.0655 164.576 42.4549 155.002 37.5141 151.741C34.6039 149.821 30.8558 149.772 25.8832 154.632Z" fill="url(#paint6_linear_2208_26301)"/>
<path fill-rule="evenodd" clip-rule="evenodd" d="M61.5792 137.135C61.5489 136.586 61.547 136.03 61.5213 135.439C61.4497 133.754 60.2684 130.735 59.7979 126.95L44.4141 124.468C46.0954 132.351 45.2077 134.277 45.3254 141.006C47.0138 147.238 63.2819 146.238 61.8076 138.793C61.6993 138.247 61.6095 137.69 61.5792 137.135Z" fill="#FFA698"/>
<path fill-rule="evenodd" clip-rule="evenodd" d="M61.5792 137.135C61.5489 136.586 61.547 136.03 61.5214 135.439C61.4497 133.754 60.2684 130.735 59.798 126.95L44.4141 124.468C44.7959 126.258 45.0465 127.747 45.2075 129.057C45.9782 134.361 53.1566 142.175 61.8076 138.792C61.6993 138.247 61.6095 137.69 61.5792 137.135Z" fill="url(#paint7_linear_2208_26301)"/>
<path fill-rule="evenodd" clip-rule="evenodd" d="M62.9472 134.585C60.8666 134.233 55.2819 133.502 53.3716 133.081C49.1917 132.158 48.2701 129.036 45.3129 124.812C41.4282 124.005 39.6979 122.769 38.5985 120.994C35.9889 116.779 36.4118 110.811 38.6753 106.653C40.6537 103.019 43.8174 100.85 48.0709 99.988C56.335 98.3132 61.9549 102.642 65.2299 108.981C65.5105 109.524 65.6605 110.063 65.7331 110.693C65.9039 112.183 65.8879 112.418 66.1046 113.419C66.5609 115.527 68.1768 115.651 68.7154 118.281C69.4487 121.86 69.5523 129.428 68.9121 130.983C68.42 132.178 64.7314 134.122 62.9472 134.585Z" fill="#FFA698"/>
<path fill-rule="evenodd" clip-rule="evenodd" d="M63.627 106.301C64.2183 107.141 64.7569 108.038 65.2436 108.979C65.5242 109.522 65.6741 110.062 65.7467 110.691C65.9176 112.181 65.9016 112.417 66.1182 113.418C66.5746 115.526 68.1904 115.65 68.729 118.28C69.0857 120.02 69.2937 122.704 69.339 125.181C66.1165 131.009 59.8855 128.377 58.8676 127.827C54.0969 125.25 51.2747 119.491 51.1562 113.002C55.1754 112.632 60.7963 109.874 63.627 106.301Z" fill="url(#paint8_linear_2208_26301)"/>
<path fill-rule="evenodd" clip-rule="evenodd" d="M35.5532 119.801C36.8532 122.202 41.6288 127.739 44.153 129.46C46.5366 131.085 45.0896 128.972 44.8615 127.042C44.3694 126.872 43.8805 126.654 43.4807 125.982C42.2981 123.992 41.1515 120.445 44.5629 120.48C46.319 120.497 47.6892 122.193 48.3452 123.834C48.6999 124.092 49.062 124.261 49.4286 124.292C50.0053 124.34 51.1008 124.273 50.5472 122.92C48.6354 118.242 50.6808 116.955 48.7674 114.49C47.3332 112.643 47.0646 111.695 47.2411 110.722C48.8427 110.267 50.4964 111.383 52.6024 111.367C54.0658 111.355 59.7434 109.537 62.6688 105.733C65.4968 102.055 63.8413 97.3642 59.4246 95.8306C56.9669 94.9766 54.8312 95.4278 51.2901 94.8053C44.5333 93.617 38.565 97.732 36.7515 103.147C30.5053 107.56 32.6462 114.432 35.5532 119.801Z" fill="#562E65"/>
<path fill-rule="evenodd" clip-rule="evenodd" d="M48.2047 107.625C48.7815 109.677 52.2679 110.851 55.8465 109.5C59.164 108.248 63.2176 105.547 63.1034 100.898C63.063 99.2634 61.2919 97.1054 59.2573 96.7929C57.8672 96.5791 56.5204 97.2818 55.3819 98.5253C53.4515 100.633 52.635 104.188 51.2121 105.601C49.859 106.946 48.1434 107.408 48.2047 107.625Z" fill="url(#paint9_linear_2208_26301)"/>
<path fill-rule="evenodd" clip-rule="evenodd" d="M44.5687 120.478C41.1573 120.443 42.3037 123.99 43.4865 125.98C44.2994 127.347 45.4814 126.837 46.3066 127.856C47.2898 129.07 48.5809 129.361 49.4927 129.033C51.3431 128.367 49.2741 125.975 48.6897 124.948C48.3124 123.073 46.7337 120.499 44.5687 120.478Z" fill="#FFA698"/>
<path fill-rule="evenodd" clip-rule="evenodd" d="M78.666 148.983C77.6936 147.391 75.1172 144.807 72.8988 142.788C70.0736 140.216 68.7344 137.461 68.1062 133.032C67.973 132.091 68.9262 130.577 70.0472 130.331C70.4736 130.239 70.9804 130.174 71.9422 130.104C72.6172 128.953 72.8008 128.772 73.7929 127.828C74.5698 127.091 75.105 126.983 76.1561 127.321C77.7596 127.836 79.1509 128.398 79.8055 128.936C80.4379 129.456 81.6714 131.174 82.7238 132.843C83.6329 134.284 84.8563 137.034 84.5865 138.177C83.994 140.687 83.2816 141.28 83.7806 142.795L85.1256 146.877L78.666 148.983Z" fill="#FFB79D"/>
<path fill-rule="evenodd" clip-rule="evenodd" d="M70.4531 130.143C70.9932 128.842 70.9011 128.738 71.8033 127.608C72.5089 126.724 73.0539 126.534 74.2022 126.735C75.9542 127.043 77.4905 127.43 78.2536 127.899C78.9899 128.351 80.5292 129.971 81.8715 131.565C83.0305 132.941 83.332 133.592 84.2131 135.658L82.7225 135.997L79.3358 135.257C74.0538 135.29 71.296 130.424 70.4531 130.143Z" fill="#FFB79D"/>
<path fill-rule="evenodd" clip-rule="evenodd" d="M80.2389 136.299C79.2591 136.355 79.5584 136.559 78.658 136.172C78.6427 137.031 78.044 137.919 77.6659 137.814C77.097 137.572 76.775 137.182 76.6768 136.677C76.4885 135.712 76.9097 134.526 77.8429 133.905C78.2306 133.646 79.653 133.622 81.5681 133.597C82.5653 133.585 83.0035 133.515 83.4028 133.964C83.6443 134.236 83.9232 134.751 84.1541 135.431C84.6095 136.772 84.784 137.918 84.373 138.67C83.1594 137.783 81.978 135.566 80.2389 136.299Z" fill="#FF9989"/>
<path fill-rule="evenodd" clip-rule="evenodd" d="M70.1875 130.257C70.7273 128.955 70.8933 128.738 71.7952 127.609C72.0411 127.3 72.2678 127.076 72.5074 126.924L77.6584 133.97C77.2136 134.557 75.8759 137.151 77.7463 137.828C76.0888 137.232 72.7634 134.708 70.1875 130.257Z" fill="#FF9989"/>
<path fill-rule="evenodd" clip-rule="evenodd" d="M68.9484 136.267C68.1424 134.841 68.2643 133.729 67.8815 132.359C67.6117 131.393 67.974 130.169 69.1578 129.91C69.6078 129.812 70.1432 129.743 71.1587 129.67L72.4584 129.896C73.3902 131.94 72.0235 133.336 70.8281 133.441C70.5945 133.673 71.6815 138.02 72.1579 139.623C72.3016 140.107 69.9943 138.551 68.9484 136.267Z" fill="#FFB79D"/>
<path fill-rule="evenodd" clip-rule="evenodd" d="M72.4641 129.838C72.4813 131.205 71.2229 132.857 68.8203 132.785C69.8749 133.547 70.9753 133.531 71.7928 133.115C73.0152 132.494 73.605 130.98 72.4641 129.838Z" fill="#FF9989"/>
<path fill-rule="evenodd" clip-rule="evenodd" d="M75.9609 145.738C76.9712 147.103 83.6352 144.778 84.126 143.468L85.3448 145.883C86.0914 146.449 87.3771 147.592 87.7919 148.224C93.7752 157.351 95.9326 165.922 98.5548 176.58C100.25 183.469 93.3033 187.323 88.8551 185.129C80.2851 180.901 77.6706 158.941 76.6172 151.241C76.5446 150.71 77.1253 149.197 76.9857 148.683C76.6852 147.917 76.1721 146.205 75.9609 145.738Z" fill="url(#paint10_linear_2208_26301)"/>
<path opacity="0.25" fill-rule="evenodd" clip-rule="evenodd" d="M75.9609 145.737C76.2002 146.06 76.7551 146.176 77.4695 146.148C77.7087 147.51 77.9081 148.275 78.4285 148.726C81.6749 147.992 82.4319 147.484 85.3448 145.882C83.9864 147.934 81.3527 149.84 79.6633 150.472C80.0805 155.282 85.6779 181.775 94.529 185.118C92.6973 185.919 90.5874 185.981 88.8553 185.128C80.2851 180.9 77.6703 158.94 76.6172 151.24C76.5441 150.709 77.1253 149.195 76.9857 148.682C76.6852 147.916 76.1726 146.204 75.9609 145.737Z" fill="url(#paint11_linear_2208_26301)"/>
<path fill-rule="evenodd" clip-rule="evenodd" d="M138.328 34.243C138.345 28.025 142.751 25.5087 148.17 28.6367C188.986 52.0356 229.83 75.3668 270.644 98.7652C276.058 101.89 280.441 109.477 280.423 115.695L280.19 121.676C280.173 127.893 275.761 130.406 270.347 127.283C229.538 103.887 188.685 80.5509 147.873 57.1535C142.453 54.0258 138.076 46.4413 138.094 40.2241L138.328 34.243Z" fill="#833DF4"/>
<path fill-rule="evenodd" clip-rule="evenodd" d="M241.788 95.6492C241.795 94.5519 242.032 93.627 242.448 92.9071C242.778 92.3373 243.221 91.8917 243.753 91.5863C244.283 91.282 244.891 91.1245 245.552 91.126C246.403 91.1277 247.342 91.3952 248.311 91.9547L257.693 97.3014C259.218 98.1815 260.593 99.6575 261.595 101.346C262.506 102.879 263.12 104.607 263.27 106.241L263.521 106.383C264.175 106.761 264.761 107.397 265.176 108.115C265.59 108.831 265.845 109.653 265.842 110.407L265.798 111.592C265.792 112.082 265.679 112.507 265.484 112.846C265.313 113.142 265.082 113.374 264.803 113.534C264.527 113.695 264.212 113.776 263.869 113.776C263.466 113.775 263.031 113.655 262.593 113.403L262.33 113.254C261.854 113.932 261.204 114.392 260.431 114.607C259.592 114.841 258.624 114.773 257.6 114.371C257.301 114.253 256.987 114.101 256.664 113.915L247.276 108.565C245.709 107.661 244.3 106.125 243.29 104.376C242.281 102.629 241.659 100.646 241.664 98.8456L241.788 95.6492ZM243.964 93.7847C243.692 94.2549 243.538 94.8934 243.536 95.6802L243.413 98.8771C243.417 100.359 243.948 102.02 244.806 103.506C245.668 104.999 246.853 106.3 248.153 107.05L257.531 112.398C257.766 112.533 258.003 112.648 258.238 112.74C258.9 113 259.489 113.054 259.965 112.921C260.397 112.801 260.757 112.514 261.006 112.082C261.064 111.982 261.12 111.865 261.171 111.733L261.543 110.792C261.943 111.02 263.209 111.667 263.459 111.886C263.627 111.982 263.766 112.029 263.869 112.029C263.896 112.029 263.917 112.025 263.932 112.016C263.942 112.013 263.955 111.998 263.967 111.976C264.019 111.887 264.048 111.747 264.049 111.562L264.093 110.381C264.088 109.943 263.923 109.442 263.66 108.986C263.392 108.523 263.031 108.124 262.643 107.899L261.568 107.286L261.552 106.795C261.503 105.324 260.951 103.693 260.086 102.237C259.229 100.794 258.075 99.5438 256.815 98.817L247.433 93.4703C246.735 93.0673 246.097 92.8753 245.551 92.8741C245.2 92.8731 244.886 92.9514 244.624 93.1017C244.364 93.2506 244.14 93.4816 243.964 93.7847Z" fill="white"/>
<path opacity="0.5" fill-rule="evenodd" clip-rule="evenodd" d="M162.898 95.2215L162.867 105.746C155.017 101.215 148.621 104.851 148.595 113.889C148.569 122.913 154.923 133.907 162.775 138.438C170.65 142.983 177.04 139.343 177.065 130.319C177.068 129.915 177.05 129.493 177.025 129.068L186.173 133.551C186.208 134.229 186.225 134.926 186.223 135.603C186.182 150.441 175.664 156.411 162.745 148.954C149.825 141.5 139.395 123.444 139.438 108.605C139.48 93.7524 149.977 87.7654 162.898 95.2215Z" fill="white"/>
<path fill-rule="evenodd" clip-rule="evenodd" d="M169.212 125.087C169.826 126.193 170.137 127.304 170.134 128.436C170.131 129.599 169.776 130.369 169.102 130.781C168.403 131.173 167.554 131.095 166.587 130.536C165.694 130.022 164.923 129.281 164.29 128.323C163.657 127.387 163.245 126.355 163.053 125.239L165.132 126.439C165.288 126.897 165.501 127.288 165.757 127.646C166.015 127.974 166.316 128.234 166.63 128.416C167.064 128.666 167.422 128.692 167.737 128.513C168.039 128.347 168.198 127.955 168.199 127.414C168.201 126.866 168.064 126.332 167.764 125.797C167.489 125.298 167.156 124.92 166.741 124.68C166.522 124.552 166.327 124.512 166.107 124.502C165.905 124.522 165.691 124.579 165.49 124.709L163.888 123.381L165.158 117.487L170 120.281L169.995 122.374L166.634 120.434L166.189 122.359C166.308 122.385 166.427 122.432 166.546 122.479C166.647 122.515 166.766 122.584 166.867 122.642C167.815 123.19 168.586 123.996 169.212 125.087ZM159.724 118.947C159.976 118.774 160.097 118.483 160.098 118.028C160.099 117.552 159.981 117.094 159.705 116.638C159.449 116.172 159.154 115.843 158.802 115.64C158.444 115.433 158.123 115.407 157.865 115.555C157.588 115.713 157.467 116.034 157.466 116.488C157.465 116.964 157.583 117.394 157.84 117.859C158.097 118.304 158.417 118.647 158.812 118.876C159.163 119.078 159.485 119.105 159.724 118.947ZM158.783 113.513C159.712 114.049 160.484 114.863 161.116 115.979C161.73 117.084 162.042 118.125 162.039 119.076C162.037 119.444 161.981 119.772 161.897 120.115C161.796 120.417 161.556 120.85 161.22 121.429L158.534 125.891L156.853 123.938L158.686 120.943C157.795 120.428 157.042 119.632 156.434 118.573C155.822 117.497 155.528 116.417 155.531 115.351C155.535 114.305 155.851 113.62 156.487 113.257C157.124 112.894 157.872 112.987 158.783 113.513Z" fill="white"/>
<path opacity="0.25" fill-rule="evenodd" clip-rule="evenodd" d="M162.897 95.2217C175.238 102.344 185.319 119.129 186.173 133.551L177.025 129.068C176.497 120.273 170.386 110.085 162.867 105.747L162.897 95.2217Z" fill="white"/>
<path fill-rule="evenodd" clip-rule="evenodd" d="M206.596 168.679C206.904 168.244 207.075 167.337 207.079 165.914C207.082 164.47 206.941 163.403 206.664 162.697C206.377 161.985 206.012 161.502 205.572 161.247C205.265 161.07 204.993 161.019 204.755 161.109C204.517 161.204 204.331 161.496 204.201 161.969C204.072 162.44 204.018 163.202 204.015 164.273C204.012 165.657 204.153 166.703 204.441 167.396C204.712 168.072 205.099 168.569 205.551 168.829C205.991 169.083 206.339 169.032 206.596 168.679ZM198.919 163.45L197.839 164.125L201.249 166.093L201.243 168.022L194.625 164.204L194.628 163.199L197.591 161.445C198.306 161.038 198.782 160.647 199.021 160.278C199.26 159.91 199.389 159.523 199.389 159.105C199.39 158.686 199.264 158.28 199.01 157.84C198.773 157.43 198.462 157.124 198.079 156.904C197.68 156.673 197.366 156.659 197.093 156.834C196.837 157.006 196.691 157.382 196.667 157.953L194.901 156.935C194.956 155.775 195.289 155.02 195.893 154.695C196.497 154.371 197.262 154.46 198.195 154.998C198.78 155.335 199.289 155.776 199.722 156.299C200.178 156.856 200.525 157.456 200.796 158.131C201.049 158.824 201.193 159.433 201.19 159.997C201.189 160.649 201.025 161.247 200.692 161.808C200.366 162.38 199.778 162.921 198.919 163.45ZM208.472 163.32C208.742 164.296 208.889 165.513 208.885 166.936C208.881 168.399 208.728 169.45 208.453 170.104C208.179 170.745 207.795 171.13 207.32 171.235C206.843 171.34 206.258 171.189 205.528 170.768C204.816 170.357 204.214 169.824 203.723 169.16C203.231 168.476 202.852 167.691 202.581 166.736C202.311 165.808 202.169 164.613 202.174 163.17C202.18 161.154 202.456 159.869 203.003 159.258C203.608 158.622 204.449 158.607 205.526 159.229C206.221 159.63 206.823 160.184 207.314 160.847C207.821 161.54 208.203 162.365 208.472 163.32Z" fill="white"/>
<path fill-rule="evenodd" clip-rule="evenodd" d="M194.828 131.927L194.834 129.978L201.106 133.597L201.102 134.68L196.754 142.331L195.245 140.62L198.841 134.243L194.828 131.927ZM207.438 142.094C208.004 143.093 208.297 144.142 208.293 145.192C208.29 146.256 207.976 146.981 207.336 147.344C206.691 147.705 205.926 147.623 205.017 147.099C204.194 146.624 203.501 145.971 202.923 145.091C202.34 144.228 201.96 143.276 201.776 142.224L203.693 143.33C203.837 143.773 204.021 144.133 204.276 144.447C204.513 144.769 204.767 145.003 205.057 145.17C205.457 145.4 205.804 145.435 206.077 145.253C206.374 145.091 206.503 144.745 206.504 144.22C206.505 143.721 206.379 143.248 206.125 142.762C205.871 142.303 205.541 141.946 205.176 141.735C204.974 141.618 204.776 141.565 204.592 141.565C204.388 141.554 204.208 141.637 204.004 141.752L202.53 140.502L203.716 135.104L208.181 137.68L208.175 139.582L205.06 137.785L204.672 139.6C204.783 139.617 204.869 139.647 204.979 139.69C205.089 139.734 205.182 139.787 205.293 139.851C206.15 140.345 206.861 141.088 207.438 142.094Z" fill="white"/>
<path opacity="0.5" fill-rule="evenodd" clip-rule="evenodd" d="M212.423 155.415C212.77 155.616 213.041 156.092 213.04 156.492L213.036 157.828C213.035 158.227 212.762 158.382 212.414 158.182L193.204 147.181C192.862 146.984 192.585 146.511 192.586 146.112L192.59 144.775C192.591 144.376 192.87 144.218 193.212 144.414L212.423 155.415Z" fill="white"/>
<path opacity="0.5" fill-rule="evenodd" clip-rule="evenodd" d="M212.469 133.459C212.817 133.659 213.088 134.155 213.086 134.548L213.083 135.871C213.082 136.27 212.809 136.446 212.461 136.246L193.25 125.245C192.909 125.048 192.632 124.555 192.633 124.156L192.637 122.832C192.637 122.439 192.916 122.261 193.258 122.457L212.469 133.459Z" fill="white"/>
<path fill-rule="evenodd" clip-rule="evenodd" d="M190.049 119.955C191.043 120.528 191.848 121.912 191.845 123.02C191.842 124.162 191.031 124.623 190.036 124.049C189.072 123.493 188.277 122.104 188.281 120.962C188.284 119.853 189.083 119.399 190.049 119.955Z" fill="white"/>
<path fill-rule="evenodd" clip-rule="evenodd" d="M189.991 141.831C191.015 142.422 191.842 143.855 191.839 145.019C191.835 146.193 191.002 146.633 189.979 146.043C188.987 145.469 188.169 144.077 188.172 142.901C188.177 141.74 188.998 141.259 189.991 141.831Z" fill="white"/>
<path fill-rule="evenodd" clip-rule="evenodd" d="M137.559 259.534C137.575 253.717 139.595 249.583 142.857 247.574C146.293 245.459 151.125 245.684 156.464 248.766L263.896 310.354C274.293 316.356 282.712 330.929 282.678 342.872L282.23 393.664C282.196 405.606 273.722 410.434 263.323 404.433L155.893 342.844C145.482 336.836 137.076 322.268 137.109 310.326L137.559 259.534Z" fill="url(#paint12_linear_2208_26301)"/>
<path opacity="0.5" fill-rule="evenodd" clip-rule="evenodd" d="M148.571 336.918L148.699 290.419L147.438 289.468L147.312 335.512C147.723 335.993 148.143 336.462 148.571 336.918ZM148.078 285.765C147.354 285.219 146.754 285.439 146.75 286.263C146.746 287.07 147.343 288.193 148.066 288.737C148.802 289.293 149.404 289.074 149.407 288.264C149.41 287.441 148.814 286.319 148.078 285.765ZM169.18 350.461L169.372 285.894L168.099 284.935L167.907 349.731L169.18 350.461ZM168.764 281.25C168.029 280.696 167.427 280.915 167.424 281.738C167.421 282.548 168.017 283.671 168.754 284.224C169.464 284.76 170.065 284.541 170.069 283.732C170.072 282.908 169.476 281.787 168.764 281.25ZM189.783 362.272L190.035 281.363L188.798 280.43L188.546 361.563L189.783 362.272ZM189.427 276.719C188.69 276.163 188.113 276.4 188.112 277.238C188.108 278.036 188.68 279.137 189.415 279.691C190.162 280.254 190.74 280.018 190.743 279.222C190.746 278.385 190.173 277.283 189.427 276.719ZM210.404 374.094L210.658 292.886L209.398 291.938L209.144 373.372L210.404 374.094ZM210.039 288.232C209.314 287.688 208.713 287.907 208.709 288.73C208.706 289.539 209.303 290.66 210.027 291.207C210.763 291.76 211.363 291.541 211.366 290.733C211.371 289.908 210.775 288.788 210.039 288.232ZM231.014 385.909L231.224 316.418L229.951 315.459L229.74 385.179L231.014 385.909ZM230.591 311.771C229.88 311.233 229.278 311.439 229.276 312.276C229.272 313.072 229.869 314.193 230.579 314.728C231.327 315.292 231.917 315.065 231.919 314.269C231.924 313.433 231.338 312.334 230.591 311.771ZM251.608 397.716L251.76 343.962L250.501 343.013L250.347 396.993L251.608 397.716ZM251.152 339.318C250.416 338.764 249.814 338.983 249.811 339.806C249.809 340.616 250.405 341.736 251.141 342.292C251.866 342.837 252.464 342.617 252.469 341.808C252.471 340.984 251.877 339.864 251.152 339.318ZM272.199 407.003L272.316 363.358L271.069 362.418L270.948 406.982C271.374 407.011 271.79 407.018 272.199 407.003ZM271.709 358.728C270.984 358.182 270.396 358.397 270.393 359.208C270.389 360.029 270.974 361.142 271.696 361.687C272.433 362.241 273.034 362.022 273.038 361.201C273.041 360.391 272.445 359.284 271.709 358.728Z" fill="#3856D8"/>
<path opacity="0.5" fill-rule="evenodd" clip-rule="evenodd" d="M277.904 343.549C277.712 343.224 277.477 342.96 277.242 342.783C276.932 342.55 276.623 342.466 276.41 342.589C274.516 343.775 272.773 344.773 271.124 345.601C269.502 346.449 267.954 347.096 266.511 347.62C259.782 349.985 254.536 349.008 248.921 344.774C243.412 340.519 237.618 332.946 229.965 322.412C221.403 310.625 214.133 302.289 207.254 297.105C206.237 296.339 205.23 295.642 204.229 295.013C196.453 290.122 189.134 289.415 180.908 292.46C180.05 292.75 179.23 293.089 178.41 293.409C172.097 295.875 166.181 298.18 158.673 292.523C154.768 289.58 150.432 284.483 145.387 276.132C145.197 275.811 144.965 275.549 144.731 275.374C144.42 275.139 144.106 275.057 143.893 275.195C143.539 275.437 143.601 276.244 144.044 276.975C149.681 286.311 154.48 291.966 158.777 295.205C166.87 301.303 173.179 298.825 179.915 296.198C180.754 295.893 181.574 295.575 182.412 295.27C190.257 292.354 197.185 292.985 204.469 297.558C205.371 298.126 206.279 298.755 207.196 299.446C213.684 304.335 220.659 312.341 228.928 323.723C236.867 334.629 242.894 342.501 248.875 347.124C248.989 347.212 249.104 347.3 249.218 347.385C255.133 351.843 260.833 352.952 267.989 350.452C269.47 349.934 271.045 349.246 272.722 348.398C274.383 347.536 276.162 346.524 278.056 345.338C278.429 345.1 278.366 344.324 277.904 343.549Z" fill="#3856D8"/>
<path fill-rule="evenodd" clip-rule="evenodd" d="M276.045 338.514C275.854 338.191 275.62 337.93 275.384 337.756C275.075 337.527 274.766 337.448 274.554 337.574C272.665 338.791 270.926 339.817 269.28 340.671C267.661 341.545 266.117 342.216 264.677 342.763C257.962 345.234 252.727 344.332 247.123 340.173C241.623 335.992 235.839 328.49 228.198 318.049C219.65 306.366 212.394 298.121 205.527 293.028C204.512 292.276 203.508 291.593 202.509 290.978C194.746 286.192 187.443 285.593 179.234 288.767C178.378 289.07 177.56 289.423 176.742 289.755C170.442 292.32 164.539 294.719 157.045 289.162C153.147 286.271 148.819 281.228 143.781 272.936C143.593 272.618 143.36 272.358 143.127 272.185C142.816 271.955 142.503 271.878 142.29 272.018C141.938 272.267 141.999 273.074 142.442 273.8C148.07 283.071 152.861 288.667 157.15 291.848C165.228 297.838 171.523 295.261 178.245 292.528C179.082 292.21 179.9 291.878 180.737 291.561C188.565 288.522 195.478 289.05 202.748 293.524C203.648 294.08 204.555 294.697 205.47 295.375C211.946 300.178 218.91 308.095 227.164 319.377C235.09 330.188 241.106 337.986 247.077 342.529C247.19 342.615 247.306 342.702 247.419 342.785C253.322 347.164 259.012 348.191 266.152 345.579C267.63 345.037 269.202 344.325 270.875 343.451C272.532 342.561 274.308 341.521 276.196 340.305C276.569 340.06 276.507 339.283 276.045 338.514Z" fill="#00FFFF"/>
<path fill-rule="evenodd" clip-rule="evenodd" d="M137.816 149.225C137.83 144.542 141.147 142.647 145.227 145.003C188.561 169.845 231.859 194.731 275.188 219.57C279.264 221.922 282.564 227.636 282.551 232.318L282.375 236.821C282.362 241.502 279.04 243.395 274.964 241.042C231.63 216.2 188.331 191.315 145.003 166.475C140.922 164.12 137.627 158.409 137.641 153.728L137.816 149.225Z" fill="url(#paint13_linear_2208_26301)"/>
<path opacity="0.5" fill-rule="evenodd" clip-rule="evenodd" d="M141.339 153.465C141.344 151.739 142.567 151.04 144.071 151.908C160.051 161.069 258.477 217.859 274.455 227.018C275.959 227.886 277.175 229.992 277.17 231.719L277.106 233.38C277.101 235.106 275.876 235.804 274.373 234.937C258.393 225.775 159.966 168.987 143.989 159.827C142.484 158.959 141.268 156.852 141.273 155.126L141.339 153.465Z" fill="white"/>
<path fill-rule="evenodd" clip-rule="evenodd" d="M141.338 153.465C141.344 151.739 142.567 151.04 144.071 151.908C160.051 161.069 208.833 189.132 224.811 198.291C226.315 199.159 227.531 201.265 227.526 202.992L227.462 204.652C227.457 206.379 226.232 207.077 224.729 206.209C208.749 197.048 159.967 168.987 143.989 159.827C142.484 158.959 141.269 156.852 141.273 155.126L141.338 153.465Z" fill="white"/>
<path opacity="0.5" fill-rule="evenodd" clip-rule="evenodd" d="M216.602 120.545C216.63 110.574 223.695 106.539 232.385 111.555L298.517 156.182L297.473 227.482L291.172 232.229L231.908 197.741C223.217 192.726 216.199 180.564 216.227 170.593L216.602 120.545Z" fill="url(#paint14_linear_2208_26301)"/>
<path fill-rule="evenodd" clip-rule="evenodd" d="M224.054 119.896C224.063 116.713 222.936 114.74 224.3 113C225.169 111.893 228.191 110.552 229.469 110.11C231.944 109.253 235.084 109.696 238.499 111.667L337.214 169.113C345.158 173.699 351.591 184.834 351.566 193.96L351.223 239.767C351.216 242.596 350.623 246.219 348.452 248.205C346.906 249.62 344.194 251.037 342.178 251.201C340.11 251.37 339.31 249.458 336.776 247.996L238.063 190.55C230.108 185.959 223.684 174.828 223.71 165.703L224.054 119.896Z" fill="#D0E7FF"/>
<path fill-rule="evenodd" clip-rule="evenodd" d="M221.758 121.247C221.783 112.121 228.25 108.428 236.203 113.019L334.918 170.464C342.862 175.05 349.295 186.185 349.27 195.311L348.928 241.118C348.902 250.243 342.427 253.932 334.48 249.346L235.767 191.9C227.812 187.31 221.389 176.178 221.414 167.053L221.758 121.247Z" fill="white"/>
<path fill-rule="evenodd" clip-rule="evenodd" d="M221.445 121.276C221.471 112.125 227.955 108.291 235.931 112.895L334.898 170.451C343.211 175.05 349.294 186.368 349.268 195.52L349.238 204.187L221.414 130.054L221.445 121.276Z" fill="url(#paint15_linear_2208_26301)"/>
<path fill-rule="evenodd" clip-rule="evenodd" d="M233.709 122.04C235.44 122.497 236.989 124.545 237.168 126.613C237.347 128.681 236.09 129.987 234.359 129.529C232.627 129.072 231.079 127.024 230.9 124.956C230.72 122.888 231.979 121.582 233.709 122.04Z" fill="white"/>
<path fill-rule="evenodd" clip-rule="evenodd" d="M243.405 127.926C245.136 128.384 246.684 130.432 246.864 132.5C247.043 134.568 245.785 135.874 244.054 135.416C242.323 134.959 240.774 132.911 240.595 130.843C240.416 128.774 241.674 127.469 243.405 127.926Z" fill="white"/>
<path fill-rule="evenodd" clip-rule="evenodd" d="M253.108 133.809C254.839 134.267 256.388 136.314 256.567 138.383C256.746 140.451 255.488 141.757 253.757 141.299C252.026 140.841 250.478 138.794 250.298 136.725C250.119 134.657 251.377 133.352 253.108 133.809Z" fill="white"/>
<path opacity="0.2" fill-rule="evenodd" clip-rule="evenodd" d="M241.877 149.297C251.503 151.842 260.116 163.23 261.113 174.732C262.11 186.234 255.114 193.496 245.487 190.951C235.86 188.406 227.248 177.019 226.251 165.516C225.254 154.014 232.25 146.752 241.877 149.297Z" fill="#6D6AFD"/>
<path fill-rule="evenodd" clip-rule="evenodd" d="M242.702 158.894C247.893 160.266 252.536 166.406 253.074 172.607C253.611 178.809 249.839 182.724 244.649 181.352C239.459 179.98 234.815 173.84 234.278 167.638C233.74 161.437 237.512 157.522 242.702 158.894Z" fill="url(#paint16_linear_2208_26301)"/>
<path opacity="0.2" fill-rule="evenodd" clip-rule="evenodd" d="M266.384 172.445C266.391 170.01 268.117 169.053 270.239 170.314L334.565 206.781C336.685 208.04 338.402 211.04 338.395 213.476L338.394 218.294C338.388 220.729 336.66 221.685 334.539 220.425L270.213 183.958C268.09 182.698 266.376 179.699 266.383 177.263L266.384 172.445Z" fill="#6D6AFD"/>
<path opacity="0.2" fill-rule="evenodd" clip-rule="evenodd" d="M266.384 190.167C266.388 188.729 267.407 188.164 268.66 188.908L306.645 210.443C307.897 211.187 308.911 212.958 308.907 214.396V217.241C308.903 218.679 307.882 219.243 306.63 218.5L268.645 196.966C267.392 196.221 266.379 194.45 266.383 193.012L266.384 190.167Z" fill="#6D6AFD"/>
<path opacity="0.5" fill-rule="evenodd" clip-rule="evenodd" d="M321.641 175.412C321.644 174.505 322.286 174.139 323.076 174.594L336.796 181.967C337.585 182.423 338.224 183.528 338.221 184.435L338.221 187.807C338.218 188.713 337.575 189.08 336.786 188.624L323.066 181.251C322.276 180.796 321.638 179.69 321.641 178.784L321.641 175.412Z" fill="white"/>
<path opacity="0.5" fill-rule="evenodd" clip-rule="evenodd" d="M146.57 171.895L205.901 206.284L205.707 273.614L146.375 239.219L146.57 171.895ZM214.327 211.068L273.657 245.459L273.463 312.788L214.131 278.394L214.327 211.068Z" fill="white"/>
<path opacity="0.5" fill-rule="evenodd" clip-rule="evenodd" d="M130.437 174.052L163.835 193.182C172.441 198.15 179.409 210.212 179.382 220.098L179.011 269.716C178.983 279.601 171.969 283.596 163.361 278.629L128.938 258.905L129.097 244.957L130.437 174.052Z" fill="url(#paint17_linear_2208_26301)"/>
<path fill-rule="evenodd" clip-rule="evenodd" d="M105.936 174.86C105.945 171.678 104.819 169.704 106.183 167.964C107.052 166.858 110.074 165.517 111.352 165.075C113.826 164.218 116.967 164.661 120.382 166.632L158.491 188.462C166.435 193.048 172.868 204.182 172.842 213.309L172.5 259.116C172.493 261.945 171.9 265.568 169.729 267.554C168.183 268.968 165.471 270.386 163.455 270.55C161.387 270.718 160.587 268.807 158.053 267.344L119.945 245.514C111.99 240.923 105.566 229.792 105.592 220.667L105.936 174.86Z" fill="#D0E7FF"/>
<path fill-rule="evenodd" clip-rule="evenodd" d="M103.64 176.214C103.666 167.087 110.132 163.394 118.086 167.985L156.195 189.815C164.14 194.401 170.572 205.536 170.547 214.663L170.205 260.469C170.179 269.594 163.704 273.282 155.757 268.697L117.65 246.867C109.695 242.277 103.271 231.145 103.297 222.02L103.64 176.214Z" fill="url(#paint18_linear_2208_26301)"/>
<path fill-rule="evenodd" clip-rule="evenodd" d="M137.712 229.955C131.048 226.268 125.221 217.337 124.693 210C124.166 202.667 129.137 199.705 135.802 203.391C142.462 207.076 148.293 216.014 148.82 223.347C149.348 230.684 144.372 233.639 137.712 229.955ZM162.442 227.08L158.109 224.683C157.284 220.66 155.711 216.496 153.587 212.499L156.412 210.823C154.804 207.903 152.955 205.07 150.919 202.404L148.095 204.084C145.278 200.504 142.057 197.32 138.64 194.841L138.297 190.065C137.108 189.24 135.901 188.482 134.68 187.807C133.456 187.129 132.262 186.559 131.099 186.084L131.443 190.859C128.114 189.606 125.102 189.343 122.589 189.974L119.279 184.899C117.474 185.441 115.896 186.379 114.592 187.688L117.902 192.758C116.201 194.639 115.121 197.336 114.831 200.741L110.499 198.344C110.428 199.549 110.439 200.823 110.535 202.167C110.632 203.511 110.813 204.884 111.068 206.268L115.401 208.665C116.226 212.687 117.798 216.852 119.922 220.844L117.097 222.525C118.706 225.444 120.554 228.278 122.59 230.944L125.415 229.264C128.231 232.844 131.453 236.028 134.869 238.508L135.213 243.278C136.401 244.108 137.608 244.865 138.833 245.543C140.053 246.218 141.247 246.788 142.41 247.259L142.066 242.489C145.396 243.741 148.407 244.004 150.92 243.373L154.231 248.448C156.036 247.906 157.613 246.968 158.917 245.659L155.607 240.585C157.308 238.709 158.387 236.011 158.678 232.606L163.011 235.003C163.081 233.798 163.07 232.52 162.974 231.176C162.878 229.833 162.697 228.464 162.442 227.08Z" fill="white"/>
<path fill-rule="evenodd" clip-rule="evenodd" d="M91.4474 80.7771L47.4766 55.2369L57.685 6.81063L57.687 6.79759L57.688 6.79168L57.6897 6.78357L57.6917 6.772L57.6922 6.76954L57.6951 6.75478L57.6961 6.75084L57.6986 6.73952L57.7011 6.72944L57.702 6.72427L57.7057 6.70852V6.7068L57.7097 6.69179L57.7116 6.68343L57.7136 6.67531L57.7173 6.65956L57.7183 6.65784L57.723 6.64037L57.7242 6.63496L57.7274 6.62265L57.7313 6.60912L57.7331 6.60469L57.7382 6.58648L57.7392 6.58328L57.7444 6.56803L57.7478 6.55696L57.7503 6.54884L57.7567 6.52989H57.7572L57.7636 6.51021L57.766 6.50209L57.7702 6.49077L57.7756 6.47453L57.7769 6.47109L57.784 6.45116L57.7862 6.44599L57.7916 6.43074L57.7968 6.41745L57.7998 6.41081L57.8079 6.39039L57.8084 6.38867L57.8165 6.36997L57.8202 6.35939L57.8249 6.3493L57.8328 6.3306L57.8337 6.32888L57.8426 6.30821L57.8458 6.30157L57.8522 6.28803L57.8593 6.27229L57.8616 6.26712L57.8721 6.24621L57.8734 6.24277L57.8817 6.22554L57.8876 6.21422L57.8923 6.20536L57.9029 6.18494H57.9034L57.9145 6.16428L57.9192 6.15567L57.9258 6.14385L57.9352 6.12737L57.9374 6.12393L57.9492 6.1035L57.9521 6.09883L57.961 6.08357L57.9696 6.07004L57.9738 6.06364L57.9871 6.04372L57.9876 6.04248L57.9999 6.02477L58.0063 6.01493L58.0134 6.00558L58.0258 5.98786L58.027 5.98663L58.0405 5.96769L58.0452 5.96178L58.0548 5.94948L58.0691 5.93127L58.0838 5.91307L58.0863 5.91011L58.0989 5.89535L58.1077 5.88526L58.1141 5.87862L58.1299 5.86164L58.1459 5.84467L58.1528 5.83802L58.1621 5.82867L58.1761 5.81563L58.1789 5.81317L58.1958 5.79792L58.1995 5.79373L58.2126 5.78266L58.2246 5.77282L58.2301 5.76815L58.248 5.75412L58.2493 5.75289L58.2663 5.74059L58.2751 5.7337L58.2845 5.72755L58.3015 5.71549L58.3032 5.71476L58.3219 5.7027L58.3283 5.69852L58.3411 5.69138C58.5198 5.58829 58.7369 5.55901 58.9969 5.66087L102.963 31.2003C101.524 30.4108 95.6753 66.4973 91.4474 80.7771Z" fill="url(#paint19_linear_2208_26301)"/>
<path fill-rule="evenodd" clip-rule="evenodd" d="M57.685 6.81055C76.1524 27.9631 98.1805 41.0262 96.0261 59.3834L91.4469 80.777L47.4766 55.2369L57.685 6.81055Z" fill="#E23B93"/>
<path fill-rule="evenodd" clip-rule="evenodd" d="M90.8368 26.7449L89.8433 75.8594L43.7266 49.2506L43.8642 0.561523L90.8368 26.7449Z" fill="#F2F4FF"/>
<path fill-rule="evenodd" clip-rule="evenodd" d="M89.9735 27.1728L90.9368 26.6123L90.7994 75.3039L89.8359 75.8597L89.9735 27.1728Z" fill="#C5DBF1"/>
<path fill-rule="evenodd" clip-rule="evenodd" d="M43.8672 0.560732L44.8346 0L90.9466 26.6112L89.9834 27.1717L43.8672 0.560732Z" fill="#DCE8F8"/>
<path fill-rule="evenodd" clip-rule="evenodd" d="M88.2245 65.3234L88.2152 68.3942L45.5312 43.7624L45.5411 40.6928L88.2245 65.3234ZM88.3205 30.0205L88.3161 33.0908L45.6324 8.46025L45.6418 5.39062L88.3205 30.0205ZM88.3062 35.0616L45.628 10.4315L45.6186 13.5012L88.2971 38.131L88.3062 35.0616ZM88.2927 40.1065L45.609 15.4764L45.6049 18.5465L88.2836 43.1756L88.2927 40.1065ZM88.2792 45.1508L45.5953 20.521L45.5859 23.5906L88.2696 48.221L88.2792 45.1508ZM88.2656 50.193L45.582 25.5619L45.5726 28.6323L88.2565 53.2621L88.2656 50.193ZM88.2521 55.2373L45.5682 30.6063L45.5588 33.6769L88.2422 58.3067L88.2521 55.2373ZM88.2381 60.2817L45.5546 35.6519L45.5453 38.7215L88.2287 63.3513L88.2381 60.2817Z" fill="#C5DBF1"/>
<path fill-rule="evenodd" clip-rule="evenodd" d="M79.5499 45.5822L90.0324 82.4243L90.0337 82.4256C90.1745 82.8057 90.4706 83.3745 90.6794 83.5982L46.7122 58.0619C46.3267 57.8432 46.1199 57.2458 46.065 56.89L35.5825 20.0454L35.5914 20.0506L33.6263 13.1435C33.5261 12.6169 33.9 12.0055 34.0056 11.8936C35.8312 13.5561 45.5806 19.5196 47.3785 20.5774C50.3894 22.9352 50.4925 25.8474 55.0528 30.6814C55.9262 31.6065 56.2265 31.8503 57.3094 32.4876L79.5499 45.5822Z" fill="url(#paint20_linear_2208_26301)"/>
<path fill-rule="evenodd" clip-rule="evenodd" d="M80.0859 44.1627C80.1575 44.0975 80.2321 44.0446 80.301 44.0042C80.6442 43.8079 80.9531 43.8918 81.0563 44.2316L91.4395 80.7772L101.646 32.3504C101.736 31.8982 102.052 31.4553 102.391 31.2592C102.463 31.2189 102.535 31.1876 102.603 31.1689C103.024 31.057 103.271 31.4152 103.153 31.958L92.8868 80.7086C92.7095 81.5538 92.4944 82.1893 92.2637 82.6164C92.0326 83.062 91.7517 83.3673 91.4368 83.5479C91.1247 83.7293 90.8537 83.7256 90.6225 83.5674C90.3914 83.3924 90.192 83.012 90.0268 82.4289L79.5431 45.5819C79.4306 45.1705 79.674 44.5313 80.0859 44.1627Z" fill="#E23B93"/>
<path fill-rule="evenodd" clip-rule="evenodd" d="M58.6818 31.0694L80.8601 43.951C80.2828 43.6685 79.3979 44.9647 79.5498 45.5815L57.1504 32.5718C56.4033 32.1375 55.9402 31.8836 55.2827 31.3647C52.0988 28.8513 50.5962 25.4077 48.5166 22.6223C47.9241 21.8288 47.3284 21.271 46.7329 20.8176C46.1803 20.5167 45.8876 20.3562 45.9855 20.4042L33.6243 13.1319C33.531 12.6074 33.9005 12.0043 34.0054 11.8931C34.2395 11.6441 34.6051 11.3378 34.9381 11.5122L47.321 18.7973C47.223 18.7496 47.5152 18.9093 48.0683 19.2102C48.6636 19.6639 49.2588 20.2214 49.8516 21.0149C52.0528 23.9625 53.6275 27.2762 57.1981 30.0875C57.707 30.4883 58.1257 30.7461 58.6818 31.0694Z" fill="#FB84B6"/>
<path fill-rule="evenodd" clip-rule="evenodd" d="M342.927 130.53C335.056 125.982 328.192 115.256 327.589 106.564C326.987 97.8767 332.876 94.5145 340.747 99.0626C348.612 103.608 355.481 114.342 356.083 123.029C356.686 131.721 350.793 135.075 342.927 130.53Z" fill="url(#paint21_linear_2208_26301)"/>
<path fill-rule="evenodd" clip-rule="evenodd" d="M346.783 108.603L348.87 109.646L339.603 123.745L331.422 111.62L334.116 112.672L338.436 116.772L346.783 108.603Z" fill="white"/>
<path fill-rule="evenodd" clip-rule="evenodd" d="M152.206 86.2271C146.941 83.3144 142.338 76.2582 141.921 70.4612C141.504 64.6671 145.432 62.3273 150.697 65.2402C155.96 68.1511 160.567 75.2123 160.983 81.0061C161.4 86.8031 157.469 89.1378 152.206 86.2271Z" fill="white"/>
<path fill-rule="evenodd" clip-rule="evenodd" d="M166.08 80.1182L166.07 83.6845L206.691 107.127L206.701 103.557L166.08 80.1182Z" fill="white"/>
<path fill-rule="evenodd" clip-rule="evenodd" d="M166.055 90.0232L180.425 98.3123L180.434 94.7474L166.069 86.458L166.055 90.0232Z" fill="white"/>
<path fill-rule="evenodd" clip-rule="evenodd" d="M193.332 89.3456L166.104 73.6309L166.094 77.1963L193.322 92.9103L193.332 89.3456Z" fill="white"/>
<defs>
<linearGradient id="paint0_linear_2208_26301" x1="170.977" y1="31.4606" x2="251.099" y2="411.603" gradientUnits="userSpaceOnUse">
<stop stop-color="#965CF2"/>
<stop offset="1" stop-color="#FF8ADC"/>
</linearGradient>
<linearGradient id="paint1_linear_2208_26301" x1="81.6279" y1="235.116" x2="57.0325" y2="308.02" gradientUnits="userSpaceOnUse">
<stop stop-color="#40457F"/>
<stop offset="1" stop-color="#1E2353"/>
</linearGradient>
<linearGradient id="paint2_linear_2208_26301" x1="68.5473" y1="239.461" x2="24.5656" y2="323.386" gradientUnits="userSpaceOnUse">
<stop stop-color="#40457F"/>
<stop offset="1" stop-color="#1E2353"/>
</linearGradient>
<linearGradient id="paint3_linear_2208_26301" x1="53.6776" y1="151.848" x2="70.0328" y2="212.872" gradientUnits="userSpaceOnUse">
<stop stop-color="#A77EF7"/>
<stop offset="1" stop-color="#5E65D6"/>
</linearGradient>
<linearGradient id="paint4_linear_2208_26301" x1="45.828" y1="162.322" x2="60.9907" y2="212.266" gradientUnits="userSpaceOnUse">
<stop stop-color="#A77EF7"/>
<stop offset="1" stop-color="#5E65D6"/>
</linearGradient>
<linearGradient id="paint5_linear_2208_26301" x1="39.2681" y1="226.47" x2="40.5375" y2="221.491" gradientUnits="userSpaceOnUse">
<stop stop-color="#FF8A78"/>
<stop offset="1" stop-color="#FFA799"/>
</linearGradient>
<linearGradient id="paint6_linear_2208_26301" x1="18.7472" y1="165.969" x2="30.1211" y2="214.935" gradientUnits="userSpaceOnUse">
<stop stop-color="#A77EF7"/>
<stop offset="1" stop-color="#5E65D6"/>
</linearGradient>
<linearGradient id="paint7_linear_2208_26301" x1="54.081" y1="129.805" x2="51.2366" y2="135.161" gradientUnits="userSpaceOnUse">
<stop stop-color="#FF8A78"/>
<stop offset="1" stop-color="#FFA799"/>
</linearGradient>
<linearGradient id="paint8_linear_2208_26301" x1="60.1056" y1="114.421" x2="60.5243" y2="128.06" gradientUnits="userSpaceOnUse">
<stop stop-color="#FFB89E"/>
<stop offset="1" stop-color="#FFA799"/>
</linearGradient>
<linearGradient id="paint9_linear_2208_26301" x1="58.8075" y1="104.644" x2="54.1611" y2="102.955" gradientUnits="userSpaceOnUse">
<stop stop-color="#8A4791"/>
<stop offset="1" stop-color="#562E65"/>
</linearGradient>
<linearGradient id="paint10_linear_2208_26301" x1="81.761" y1="151.692" x2="92.8315" y2="181.145" gradientUnits="userSpaceOnUse">
<stop stop-color="#A77EF7"/>
<stop offset="1" stop-color="#5E65D6"/>
</linearGradient>
<linearGradient id="paint11_linear_2208_26301" x1="80.3567" y1="150.719" x2="90.532" y2="182.546" gradientUnits="userSpaceOnUse">
<stop stop-color="#A77EF7"/>
<stop offset="1" stop-color="#5E65D6"/>
</linearGradient>
<linearGradient id="paint12_linear_2208_26301" x1="214.897" y1="306.598" x2="202.636" y2="355.668" gradientUnits="userSpaceOnUse">
<stop stop-color="#A77EF7"/>
<stop offset="1" stop-color="#5E65D6"/>
</linearGradient>
<linearGradient id="paint13_linear_2208_26301" x1="183.658" y1="202.31" x2="229.057" y2="186.344" gradientUnits="userSpaceOnUse">
<stop stop-color="#FA5DB1"/>
<stop offset="1" stop-color="#FEBFBF"/>
</linearGradient>
<linearGradient id="paint14_linear_2208_26301" x1="252.56" y1="173.913" x2="346.701" y2="106.562" gradientUnits="userSpaceOnUse">
<stop stop-color="#6D6AFE"/>
<stop offset="1" stop-color="#3FB0F7"/>
</linearGradient>
<linearGradient id="paint15_linear_2208_26301" x1="285.895" y1="172.042" x2="283.182" y2="124.992" gradientUnits="userSpaceOnUse">
<stop stop-color="#6D6AFE"/>
<stop offset="1" stop-color="#3FB0F7"/>
</linearGradient>
<linearGradient id="paint16_linear_2208_26301" x1="243.481" y1="179.47" x2="243.925" y2="158.135" gradientUnits="userSpaceOnUse">
<stop stop-color="#6D6AFE"/>
<stop offset="1" stop-color="#3FB0F7"/>
</linearGradient>
<linearGradient id="paint17_linear_2208_26301" x1="143.541" y1="236.091" x2="207.526" y2="171.214" gradientUnits="userSpaceOnUse">
<stop stop-color="#6D6AFE"/>
<stop offset="1" stop-color="#3FB0F7"/>
</linearGradient>
<linearGradient id="paint18_linear_2208_26301" x1="122.599" y1="186.075" x2="149.726" y2="247.252" gradientUnits="userSpaceOnUse">
<stop stop-color="#1C8EF4"/>
<stop offset="1" stop-color="#00CFDD"/>
</linearGradient>
<linearGradient id="paint19_linear_2208_26301" x1="82.0956" y1="51.4288" x2="57.1239" y2="21.5783" gradientUnits="userSpaceOnUse">
<stop stop-color="#FA5DB1"/>
<stop offset="1" stop-color="#FEBFBF"/>
</linearGradient>
<linearGradient id="paint20_linear_2208_26301" x1="85.5893" y1="68.3107" x2="35.9439" y2="30.9372" gradientUnits="userSpaceOnUse">
<stop stop-color="#FA5DB1"/>
<stop offset="1" stop-color="#FEBFBF"/>
</linearGradient>
<linearGradient id="paint21_linear_2208_26301" x1="345.449" y1="101.233" x2="337.769" y2="130.093" gradientUnits="userSpaceOnUse">
<stop stop-color="#FA5DB1"/>
<stop offset="1" stop-color="#FEBFBF"/>
</linearGradient>
</defs>
</svg>
