<svg width="24" height="24" viewBox="0 0 24 24" fill="none" xmlns="http://www.w3.org/2000/svg">
<g clip-path="url(#clip0_1988_18513)">
<path d="M24 0H0V24H24V0Z" fill="#C9353D"/>
<path d="M8.458 20.1167C4.54106 18.4799 1.99134 13.8153 3.61288 9.07768C5.21693 4.39118 10.4059 1.93694 15.0781 3.67197C19.7636 5.41194 22.0811 10.582 20.2646 15.2167C18.3841 20.0149 13.3426 21.7125 9.56254 20.5154C9.84513 19.8175 10.1667 19.1288 10.4023 18.4119C10.6388 17.6919 10.7896 16.9438 10.9671 16.2508C11.1198 16.3793 11.2732 16.5155 11.434 16.6426C12.2692 17.3027 13.2142 17.3668 14.2043 17.1287C15.2563 16.8758 16.0877 16.2793 16.7034 15.4025C17.7447 13.9195 18.1122 12.2417 17.8605 10.4761C17.6002 8.65038 16.5192 7.32918 14.8245 6.66389C12.271 5.66151 9.85035 5.99897 7.75353 7.83611C6.14089 9.24905 5.59878 11.6444 6.37445 13.5091C6.6433 14.1555 7.06818 14.6628 7.71098 14.9676C8.03675 15.1221 8.17504 15.0591 8.26931 14.7189C8.27631 14.6935 8.28484 14.6686 8.29411 14.644C8.47464 14.1679 8.43251 13.7765 8.11121 13.3169C7.52571 12.4793 7.63014 11.5096 7.91262 10.5805C8.44831 8.81869 10.0224 7.64315 11.8684 7.62609C12.3629 7.62151 12.872 7.6639 13.3509 7.78076C14.7754 8.12828 15.6951 9.22993 15.7873 10.6905C15.8612 11.8619 15.6782 12.9997 15.1689 14.0693C14.9168 14.5988 14.584 15.0697 14.0887 15.403C13.6234 15.7161 13.1146 15.8423 12.5626 15.698C11.802 15.4993 11.3702 14.8054 11.5626 14.044C11.7619 13.2549 12.0199 12.4805 12.2155 11.6905C12.2982 11.3564 12.3417 10.9936 12.3077 10.6533C12.2152 9.72638 11.3394 9.29413 10.5207 9.74666C9.9473 10.0636 9.67119 10.5934 9.54311 11.2064C9.41119 11.8379 9.47507 12.4604 9.68056 13.0727C9.72185 13.1958 9.72796 13.3478 9.69883 13.4748C9.32688 15.0967 8.92906 16.713 8.5768 18.3391C8.47401 18.8137 8.49307 19.3148 8.45889 19.804C8.45242 19.8976 8.458 19.9922 8.458 20.1167Z" fill="white"/>
</g>
<defs>
<clipPath id="clip0_1988_18513">
<rect width="24" height="24" fill="white"/>
</clipPath>
</defs>
</svg>
