<svg width="221" height="75" viewBox="0 0 221 75" fill="none" xmlns="http://www.w3.org/2000/svg">
<path d="M2.85547 30.3896H38.2147V65.7019H8.61764L23.456 50.8948L27.7154 55.2007V54.5941C27.7154 50.2186 27.7054 45.8431 27.7253 41.4776C27.7253 40.9704 27.6258 40.7914 27.0785 40.7914C22.7593 40.8113 18.4302 40.8013 14.1111 40.8013H13.4742L13.3946 40.9406L17.6042 45.1669L2.85547 59.8944V30.3896Z" fill="white"/>
<path d="M43.0838 25.7061L42.5464 25.6862L12.0836 25.7061C11.6954 25.7061 11.4068 25.6166 11.1282 25.3282C7.86395 22.0466 4.58976 18.7716 1.30563 15.5032L1.04688 15.2148H53.5931V67.5816L53.4637 67.6711C53.0656 67.2534 52.6775 66.8258 52.2794 66.4281C49.3535 63.4978 46.4244 60.5742 43.4919 57.6572C43.2033 57.3787 43.1137 57.0804 43.1137 56.6926C43.127 46.5096 43.1303 36.3266 43.1236 26.1436C43.1236 26.0144 43.1037 25.895 43.0838 25.7061Z" fill="white"/>
<path d="M75.9639 20.7835H65.375V15.1152H92.703V20.7835H82.1141V49.5325H75.9639V20.7835Z" fill="white"/>
<path d="M96.9814 49.5327H91.0898V24.2045C93.3788 23.1405 96.4937 22.6035 100.455 22.6035C102.485 22.6035 104.303 22.8157 105.908 23.24L104.943 28.7491C103.878 28.3513 102.505 28.1624 100.823 28.1624C99.141 28.1624 97.7974 28.3414 96.9814 28.6894V49.5327Z" fill="white"/>
<path d="M108.586 17.4224C107.921 16.7352 107.556 15.8125 107.571 14.8567C107.571 13.8524 107.909 13.017 108.586 12.3408C108.917 11.9959 109.316 11.7232 109.758 11.5401C110.2 11.357 110.675 11.2673 111.153 11.2768C111.623 11.2658 112.09 11.355 112.522 11.5385C112.955 11.722 113.343 11.9955 113.661 12.3408C114.378 13.0568 114.736 13.8921 114.736 14.8567C114.738 15.3258 114.644 15.7902 114.459 16.2213C114.274 16.6524 114.003 17.0409 113.661 17.3627C113.347 17.7083 112.962 17.9829 112.533 18.1681C112.104 18.3533 111.641 18.4449 111.173 18.4367C110.213 18.4431 109.286 18.0799 108.586 17.4224ZM114.089 49.5326H108.208V23.1404H114.089V49.5326Z" fill="white"/>
<path d="M124.628 49.5328H118.746V24.314C121.519 23.1737 125.261 22.6036 129.972 22.6036C132.758 22.6036 134.978 23.3295 136.66 24.7913C139.187 23.3262 142.253 22.5969 145.855 22.6036C152.775 22.6036 156.235 26.041 156.235 32.9158V49.5328H150.353V33.0749C150.353 31.3347 149.965 30.0717 149.199 29.306C148.433 28.5403 147.268 28.1624 145.696 28.1624C143.234 28.1624 141.291 28.59 139.864 29.4452C140.222 30.4795 140.402 31.7623 140.402 33.2937V49.5328H134.57V33.0749C134.57 31.2949 134.182 30.032 133.395 29.2762C132.609 28.5204 131.395 28.1624 129.763 28.1624C127.723 28.1624 126.011 28.3713 124.628 28.7989V49.5328Z" fill="white"/>
<path d="M159.172 48.7869L160.087 43.1186C162.436 44.0799 165.253 44.5606 168.537 44.5606C170.069 44.5606 171.283 44.3517 172.199 43.9241C173.115 43.4965 173.562 42.87 173.562 42.0546C173.562 40.6624 171.904 39.6116 168.586 38.9022C167.511 38.7155 166.448 38.4665 165.402 38.1564C164.396 37.8233 163.428 37.3833 162.516 36.8438C161.519 36.2748 160.71 35.4282 160.187 34.4074C159.66 33.3831 159.401 32.1501 159.441 30.728C159.441 25.3117 163.076 22.6035 170.348 22.6035C173.134 22.6035 175.712 23.1405 178.11 24.2045L177.195 29.9225C174.913 28.7491 172.398 28.1624 169.651 28.1624C166.905 28.1624 165.481 28.9281 165.382 30.4595C165.382 31.739 167.037 32.7533 170.348 33.5025C171.415 33.6931 172.469 33.9522 173.503 34.2781C174.514 34.615 175.485 35.0619 176.399 35.6107C177.376 36.1806 178.173 37.0147 178.698 38.0172C179.225 39.0315 179.494 40.2348 179.494 41.627C179.494 47.282 175.556 50.1128 167.681 50.1194C164.791 50.1344 161.918 49.6845 159.172 48.7869Z" fill="white"/>
<path d="M204.521 34.3577C204.521 36.0681 204.342 37.4603 203.984 38.5244H187.513V38.7929C187.513 40.6094 188.137 42.0248 189.384 43.0391C190.632 44.0534 192.433 44.5606 194.788 44.5606C197.787 44.5606 200.444 44.0103 202.76 42.9098L203.665 48.4687C201.247 49.5725 198.262 50.1195 194.739 50.1195C190.24 50.1195 186.906 49.0057 184.737 46.7782C182.567 44.5506 181.479 41.1066 181.473 36.446C181.473 32.1037 182.445 28.7094 184.389 26.263C186.333 23.8167 189.302 22.5969 193.296 22.6035C196.971 22.6035 199.761 23.6013 201.665 25.5968C203.569 27.5923 204.521 30.5126 204.521 34.3577ZM187.513 33.4528V33.7213H198.908V33.4528C198.908 29.6342 196.978 27.7348 193.136 27.7348C189.295 27.7348 187.513 29.6342 187.513 33.4528Z" fill="white"/>
<path d="M208.105 41.7859V12.4502H213.987V40.5528C213.987 41.9848 214.156 42.9892 214.495 43.5759C214.833 44.1626 215.4 44.4609 216.186 44.4609C216.811 44.4708 217.429 44.3417 217.998 44.0831L218.854 49.4828C217.998 49.8408 216.893 50.0198 215.54 50.0198C213.217 50.0198 211.4 49.3336 210.086 47.9613C208.772 46.589 208.112 44.5305 208.105 41.7859Z" fill="white"/>
<path d="M72.7599 57.7667L71.3766 65.931C71.369 65.9987 71.3361 66.061 71.2844 66.1053C71.2326 66.1496 71.166 66.1726 71.0979 66.1697H70.9188C70.851 66.1731 70.7844 66.1518 70.7312 66.1097C70.6781 66.0676 70.6422 66.0076 70.6302 65.9409L69.1672 58.8109L67.6744 65.9409C67.6747 65.9737 67.668 66.0061 67.6546 66.0359C67.6413 66.0658 67.6217 66.0925 67.5972 66.1142C67.5727 66.1359 67.5438 66.152 67.5125 66.1616C67.4812 66.1712 67.4482 66.1739 67.4157 66.1697H67.2067C67.1386 66.1726 67.072 66.1496 67.0202 66.1053C66.9685 66.061 66.9355 65.9987 66.928 65.931L65.5447 57.7667C65.5149 57.5877 65.6044 57.4883 65.7836 57.4883H65.9428C66.0098 57.4855 66.0753 57.5088 66.1254 57.5534C66.1755 57.5979 66.2064 57.6601 66.2115 57.7269L67.356 64.8073L68.7891 57.717C68.7989 57.6493 68.8343 57.5879 68.888 57.5454C68.9416 57.5029 69.0094 57.4825 69.0777 57.4883H69.2667C69.3338 57.4827 69.4005 57.5034 69.4525 57.5461C69.5045 57.5888 69.5379 57.6501 69.5454 57.717L70.9785 64.8073L72.1329 57.7269C72.1342 57.6943 72.1419 57.6622 72.1556 57.6325C72.1693 57.6028 72.1887 57.5762 72.2128 57.554C72.2368 57.5318 72.265 57.5146 72.2957 57.5033C72.3263 57.4921 72.359 57.4869 72.3917 57.4883H72.531C72.7002 57.4883 72.7897 57.5877 72.7599 57.7667Z" fill="white"/>
<path d="M74.2129 57.4877H74.3722C74.4056 57.4847 74.4393 57.489 74.4709 57.5004C74.5025 57.5118 74.5311 57.5301 74.5549 57.5538C74.5786 57.5775 74.5968 57.6062 74.6083 57.6377C74.6197 57.6693 74.624 57.7029 74.621 57.7363V61.4456H77.4175V57.7363C77.4124 57.7025 77.4154 57.668 77.4261 57.6356C77.4368 57.6031 77.455 57.5736 77.4792 57.5494C77.5034 57.5253 77.5329 57.5071 77.5654 57.4964C77.5979 57.4857 77.6324 57.4827 77.6663 57.4877H77.8255C77.8597 57.4831 77.8945 57.4862 77.9274 57.4969C77.9602 57.5076 77.9902 57.5256 78.0151 57.5495C78.0399 57.5734 78.0591 57.6026 78.0711 57.635C78.0831 57.6674 78.0876 57.702 78.0842 57.7363V65.9205C78.0876 65.9549 78.0831 65.9895 78.0711 66.0219C78.0591 66.0542 78.0399 66.0835 78.0151 66.1074C77.9902 66.1313 77.9602 66.1493 77.9274 66.16C77.8945 66.1706 77.8597 66.1738 77.8255 66.1691H77.6663C77.6324 66.1742 77.5979 66.1712 77.5654 66.1605C77.5329 66.1498 77.5034 66.1316 77.4792 66.1074C77.455 66.0833 77.4368 66.0538 77.4261 66.0213C77.4154 65.9888 77.4124 65.9543 77.4175 65.9205V62.0621H74.621V65.9205C74.624 65.9539 74.6197 65.9876 74.6083 66.0192C74.5968 66.0507 74.5786 66.0794 74.5549 66.1031C74.5311 66.1268 74.5025 66.145 74.4709 66.1564C74.4393 66.1678 74.4056 66.1722 74.3722 66.1691H74.2129C74.1787 66.1738 74.1439 66.1706 74.1111 66.16C74.0782 66.1493 74.0483 66.1313 74.0234 66.1074C73.9985 66.0835 73.9793 66.0542 73.9673 66.0219C73.9554 65.9895 73.9509 65.9549 73.9542 65.9205V57.7363C73.9509 57.702 73.9554 57.6674 73.9673 57.635C73.9793 57.6026 73.9985 57.5734 74.0234 57.5495C74.0483 57.5256 74.0782 57.5076 74.1111 57.4969C74.1439 57.4862 74.1787 57.4831 74.2129 57.4877Z" fill="white"/>
<path d="M82.9094 66.1693H79.9835C79.8144 66.1693 79.7148 66.0798 79.7148 65.9207V57.7365C79.7148 57.5774 79.8144 57.4879 79.9835 57.4879H82.8696C82.9038 57.4833 82.9386 57.4864 82.9715 57.4971C83.0043 57.5078 83.0343 57.5258 83.0592 57.5497C83.0841 57.5736 83.1032 57.6028 83.1152 57.6352C83.1272 57.6676 83.1317 57.7022 83.1284 57.7365V57.8559C83.1314 57.8906 83.1268 57.9256 83.1149 57.9583C83.1029 57.9911 83.084 58.0208 83.0593 58.0454C83.0346 58.0701 83.0049 58.089 82.9721 58.1009C82.9393 58.1129 82.9044 58.1175 82.8696 58.1144H80.3916V61.4557H82.4815C82.517 61.4511 82.5531 61.4545 82.5871 61.4657C82.6212 61.4769 82.6522 61.4956 82.678 61.5205C82.7038 61.5453 82.7237 61.5756 82.7362 61.6092C82.7487 61.6427 82.7535 61.6786 82.7502 61.7143V61.8137C82.7532 61.8497 82.7483 61.886 82.7359 61.9199C82.7235 61.9539 82.7038 61.9847 82.6782 62.0103C82.6526 62.0358 82.6217 62.0555 82.5878 62.0679C82.5538 62.0804 82.5175 62.0852 82.4815 62.0822H80.3916V65.5528H82.9094C82.9442 65.5497 82.9791 65.5543 83.0119 65.5663C83.0447 65.5782 83.0745 65.5971 83.0991 65.6218C83.1238 65.6464 83.1427 65.6762 83.1547 65.7089C83.1666 65.7417 83.1712 65.7766 83.1682 65.8113V65.9207C83.1715 65.9551 83.167 65.9897 83.155 66.0221C83.143 66.0544 83.1239 66.0837 83.099 66.1076C83.0741 66.1315 83.0441 66.1495 83.0113 66.1602C82.9785 66.1708 82.9436 66.174 82.9094 66.1693Z" fill="white"/>
<path d="M88.4044 66.1698H88.2054C88.1405 66.1742 88.0761 66.1557 88.0233 66.1175C87.9706 66.0794 87.9329 66.024 87.9168 65.961L86.5633 62.4208H85.0506V65.9212C85.0557 65.955 85.0527 65.9895 85.042 66.022C85.0313 66.0544 85.0131 66.0839 84.9889 66.1081C84.9647 66.1323 84.9352 66.1505 84.9027 66.1612C84.8702 66.1719 84.8357 66.1748 84.8018 66.1698H84.6426C84.6084 66.1745 84.5736 66.1713 84.5408 66.1606C84.5079 66.1499 84.4779 66.132 84.4531 66.1081C84.4282 66.0841 84.409 66.0549 84.397 66.0226C84.3851 65.9902 84.3806 65.9555 84.3839 65.9212V57.737C84.3806 57.7027 84.3851 57.668 84.397 57.6357C84.409 57.6033 84.4282 57.5741 84.4531 57.5502C84.4779 57.5263 84.5079 57.5083 84.5408 57.4976C84.5736 57.4869 84.6084 57.4838 84.6426 57.4884H86.434C87.7476 57.4884 88.4144 58.1149 88.4144 59.3281V60.5911C88.4144 61.5391 88.0163 62.1158 87.2202 62.3214L88.6035 65.8715C88.6632 66.0405 88.5935 66.1698 88.4044 66.1698ZM87.7476 60.3822V59.5469C87.7476 58.5226 87.3595 58.1149 86.3842 58.1149H85.0506V61.8142H86.3842C87.3595 61.8142 87.7476 61.3965 87.7476 60.3822Z" fill="white"/>
<path d="M93.1583 66.1698H90.2325C90.1983 66.1745 90.1634 66.1713 90.1306 66.1606C90.0978 66.1499 90.0678 66.132 90.0429 66.1081C90.018 66.0841 89.9989 66.0549 89.9869 66.0226C89.9749 65.9902 89.9704 65.9555 89.9737 65.9212V57.737C89.9704 57.7027 89.9749 57.668 89.9869 57.6357C89.9989 57.6033 90.018 57.5741 90.0429 57.5502C90.0678 57.5263 90.0978 57.5083 90.1306 57.4976C90.1634 57.4869 90.1983 57.4838 90.2325 57.4884H93.1285C93.1627 57.4838 93.1975 57.4869 93.2303 57.4976C93.2632 57.5083 93.2932 57.5263 93.318 57.5502C93.3429 57.5741 93.3621 57.6033 93.3741 57.6357C93.3861 57.668 93.3906 57.7027 93.3872 57.737V57.8564C93.3903 57.8911 93.3857 57.926 93.3737 57.9588C93.3618 57.9915 93.3428 58.0213 93.3182 58.0459C93.2935 58.0706 93.2638 58.0895 93.231 58.1014C93.1982 58.1134 93.1632 58.118 93.1285 58.1149H90.6405V61.4562H92.7404C92.7751 61.4532 92.8101 61.4578 92.8429 61.4697C92.8756 61.4816 92.9054 61.5006 92.9301 61.5252C92.9547 61.5498 92.9737 61.5796 92.9856 61.6123C92.9975 61.6451 93.0021 61.68 92.9991 61.7148V61.8142C93.0037 61.8497 93.0003 61.8858 92.9891 61.9198C92.9779 61.9538 92.9592 61.9848 92.9343 62.0106C92.9095 62.0364 92.8791 62.0562 92.8456 62.0687C92.812 62.0812 92.776 62.086 92.7404 62.0827H90.6405V65.5533H93.1583C93.1939 65.5486 93.23 65.5521 93.264 65.5633C93.298 65.5745 93.3291 65.5932 93.3549 65.618C93.3807 65.6428 93.4006 65.6731 93.4131 65.7067C93.4255 65.7402 93.4303 65.7762 93.427 65.8118V65.9212C93.427 66.0803 93.3275 66.1698 93.1583 66.1698Z" fill="white"/>
<path d="M100.354 66.1696H100.175C100.142 66.1737 100.108 66.171 100.075 66.1616C100.043 66.1522 100.013 66.1364 99.9868 66.115C99.9608 66.0936 99.9393 66.0671 99.9238 66.0372C99.9083 66.0072 99.8991 65.9745 99.8966 65.9409L99.4687 63.9321H97.12L96.6821 65.9409C96.681 65.974 96.673 66.0066 96.6586 66.0365C96.6441 66.0664 96.6236 66.093 96.5983 66.1145C96.573 66.136 96.5435 66.152 96.5117 66.1615C96.4799 66.171 96.4464 66.1738 96.4134 66.1696H96.2642C96.095 66.1696 96.0154 66.0701 96.0452 65.8812L97.8764 57.7169C97.8839 57.6501 97.9172 57.5888 97.9693 57.5461C98.0213 57.5034 98.0879 57.4826 98.155 57.4882H98.4436C98.5107 57.4826 98.5774 57.5034 98.6294 57.5461C98.6814 57.5888 98.7148 57.6501 98.7223 57.7169L100.583 65.8812C100.623 66.0701 100.534 66.1696 100.354 66.1696ZM99.3294 63.3255L98.2944 58.5423L97.2594 63.3255H99.3294Z" fill="white"/>
<path d="M105.779 66.1698H105.58C105.515 66.1742 105.451 66.1557 105.398 66.1175C105.346 66.0794 105.308 66.024 105.292 65.961L103.948 62.4208H102.436V65.9212C102.439 65.9546 102.434 65.9883 102.423 66.0198C102.411 66.0514 102.393 66.08 102.37 66.1038C102.346 66.1275 102.317 66.1457 102.286 66.1571C102.254 66.1685 102.22 66.1729 102.187 66.1698H102.018C101.983 66.1745 101.949 66.1713 101.916 66.1606C101.883 66.1499 101.853 66.132 101.828 66.1081C101.803 66.0841 101.784 66.0549 101.772 66.0226C101.76 65.9902 101.756 65.9555 101.759 65.9212V57.737C101.756 57.7027 101.76 57.668 101.772 57.6357C101.784 57.6033 101.803 57.5741 101.828 57.5502C101.853 57.5263 101.883 57.5083 101.916 57.4976C101.949 57.4869 101.983 57.4838 102.018 57.4884H103.809C105.123 57.4884 105.789 58.1149 105.789 59.3281V60.5911C105.789 61.5358 105.391 62.1125 104.605 62.3214L105.978 65.8715C106.038 66.0405 105.969 66.1698 105.779 66.1698ZM105.123 60.3822V59.5469C105.123 58.5226 104.734 58.1149 103.759 58.1149H102.436V61.8142H103.759C104.734 61.8142 105.123 61.3965 105.123 60.3822Z" fill="white"/>
<path d="M110.575 57.737V57.8564C110.578 57.8911 110.573 57.926 110.561 57.9588C110.549 57.9915 110.53 58.0213 110.506 58.0459C110.481 58.0706 110.451 58.0895 110.419 58.1014C110.386 58.1134 110.351 58.118 110.316 58.1149H108.943V65.9212C108.946 65.9555 108.942 65.9902 108.93 66.0226C108.918 66.0549 108.898 66.0841 108.874 66.1081C108.849 66.132 108.819 66.1499 108.786 66.1606C108.753 66.1713 108.718 66.1745 108.684 66.1698H108.515C108.482 66.1732 108.448 66.169 108.417 66.1575C108.386 66.146 108.358 66.1276 108.335 66.1037C108.312 66.0797 108.294 66.0508 108.284 66.0192C108.274 65.9876 108.271 65.9541 108.276 65.9212V58.1149H106.893C106.858 58.118 106.823 58.1134 106.79 58.1014C106.757 58.0895 106.728 58.0706 106.703 58.0459C106.678 58.0213 106.659 57.9915 106.647 57.9588C106.635 57.926 106.631 57.8911 106.634 57.8564V57.737C106.631 57.7027 106.635 57.668 106.647 57.6357C106.659 57.6033 106.678 57.5741 106.703 57.5502C106.728 57.5263 106.758 57.5083 106.791 57.4976C106.824 57.4869 106.858 57.4838 106.893 57.4884H110.316C110.35 57.4838 110.385 57.4869 110.418 57.4976C110.451 57.5083 110.481 57.5263 110.506 57.5502C110.531 57.5741 110.55 57.6033 110.562 57.6357C110.574 57.668 110.578 57.7027 110.575 57.737Z" fill="white"/>
<path d="M116.556 64.4992C116.541 64.5571 116.507 64.6088 116.461 64.6464C116.414 64.684 116.357 64.7056 116.297 64.708C116.235 64.7095 116.174 64.6896 116.125 64.6515C116.076 64.6135 116.042 64.5596 116.028 64.4992L114.068 59.1889V65.9212C114.071 65.9546 114.066 65.9883 114.055 66.0198C114.044 66.0514 114.025 66.08 114.002 66.1038C113.978 66.1275 113.949 66.1457 113.918 66.1571C113.886 66.1685 113.852 66.1729 113.819 66.1698H113.689C113.655 66.1745 113.62 66.1713 113.588 66.1606C113.555 66.1499 113.525 66.132 113.5 66.1081C113.475 66.0841 113.456 66.0549 113.444 66.0226C113.432 65.9902 113.427 65.9555 113.431 65.9212V57.737C113.427 57.7027 113.432 57.668 113.444 57.6357C113.456 57.6033 113.475 57.5741 113.5 57.5502C113.525 57.5263 113.555 57.5083 113.588 57.4976C113.62 57.4869 113.655 57.4838 113.689 57.4884H113.879C113.944 57.4865 114.009 57.5071 114.062 57.5469C114.114 57.5867 114.151 57.6433 114.167 57.7072L116.267 63.5047L118.407 57.7072C118.426 57.6434 118.466 57.5875 118.519 57.5481C118.573 57.5086 118.639 57.4877 118.705 57.4884H118.914C118.948 57.4838 118.983 57.4869 119.016 57.4976C119.049 57.5083 119.079 57.5263 119.104 57.5502C119.129 57.5741 119.148 57.6033 119.16 57.6357C119.172 57.668 119.176 57.7027 119.173 57.737V65.9212C119.176 65.9555 119.172 65.9902 119.16 66.0226C119.148 66.0549 119.129 66.0841 119.104 66.1081C119.079 66.132 119.049 66.1499 119.016 66.1606C118.983 66.1713 118.948 66.1745 118.914 66.1698H118.765C118.731 66.1745 118.696 66.1713 118.663 66.1606C118.63 66.1499 118.6 66.132 118.575 66.1081C118.551 66.0841 118.531 66.0549 118.519 66.0226C118.507 65.9902 118.503 65.9555 118.506 65.9212V59.1889L116.556 64.4992Z" fill="white"/>
<path d="M124.002 66.1698H121.076C121.042 66.1745 121.007 66.1713 120.974 66.1606C120.942 66.1499 120.912 66.132 120.887 66.1081C120.862 66.0841 120.843 66.0549 120.831 66.0226C120.819 65.9902 120.814 65.9555 120.817 65.9212V57.737C120.814 57.7027 120.819 57.668 120.831 57.6357C120.843 57.6033 120.862 57.5741 120.887 57.5502C120.912 57.5263 120.942 57.5083 120.974 57.4976C121.007 57.4869 121.042 57.4838 121.076 57.4884H123.962C123.996 57.4838 124.031 57.4869 124.064 57.4976C124.097 57.5083 124.127 57.5263 124.152 57.5502C124.177 57.5741 124.196 57.6033 124.208 57.6357C124.22 57.668 124.224 57.7027 124.221 57.737V57.8564C124.224 57.8911 124.219 57.926 124.208 57.9588C124.196 57.9915 124.177 58.0213 124.152 58.0459C124.127 58.0706 124.098 58.0895 124.065 58.1014C124.032 58.1134 123.997 58.118 123.962 58.1149H121.484V61.4562H123.584C123.619 61.4532 123.654 61.4578 123.687 61.4697C123.719 61.4816 123.749 61.5006 123.774 61.5252C123.798 61.5498 123.817 61.5796 123.829 61.6123C123.841 61.6451 123.846 61.68 123.843 61.7148V61.8142C123.847 61.8497 123.844 61.8858 123.833 61.9198C123.822 61.9538 123.803 61.9848 123.778 62.0106C123.753 62.0364 123.723 62.0562 123.689 62.0687C123.656 62.0812 123.62 62.086 123.584 62.0827H121.484V65.5533H124.002C124.037 65.5502 124.072 65.5548 124.105 65.5668C124.137 65.5787 124.167 65.5976 124.192 65.6223C124.216 65.6469 124.235 65.6766 124.247 65.7094C124.259 65.7421 124.264 65.7771 124.261 65.8118V65.9212C124.264 65.9555 124.26 65.9902 124.248 66.0226C124.236 66.0549 124.217 66.0841 124.192 66.1081C124.167 66.132 124.137 66.1499 124.104 66.1606C124.071 66.1713 124.036 66.1745 124.002 66.1698Z" fill="white"/>
<path d="M128.668 66.1698H125.732C125.698 66.1745 125.663 66.1713 125.631 66.1606C125.598 66.1499 125.568 66.132 125.543 66.1081C125.518 66.0841 125.499 66.0549 125.487 66.0226C125.475 65.9902 125.47 65.9555 125.474 65.9212V57.737C125.47 57.7027 125.475 57.668 125.487 57.6357C125.499 57.6033 125.518 57.5741 125.543 57.5502C125.568 57.5263 125.598 57.5083 125.631 57.4976C125.663 57.4869 125.698 57.4838 125.732 57.4884H128.628C128.663 57.4838 128.698 57.4869 128.73 57.4976C128.763 57.5083 128.793 57.5263 128.818 57.5502C128.843 57.5741 128.862 57.6033 128.874 57.6357C128.886 57.668 128.891 57.7027 128.887 57.737V57.8564C128.89 57.8911 128.886 57.926 128.874 57.9588C128.862 57.9915 128.843 58.0213 128.818 58.0459C128.794 58.0706 128.764 58.0895 128.731 58.1014C128.698 58.1134 128.663 58.118 128.628 58.1149H126.15V61.4562H128.24C128.275 61.4532 128.31 61.4578 128.343 61.4697C128.376 61.4816 128.405 61.5006 128.43 61.5252C128.455 61.5498 128.474 61.5796 128.486 61.6123C128.498 61.6451 128.502 61.68 128.499 61.7148V61.8142C128.504 61.8497 128.5 61.8858 128.489 61.9198C128.478 61.9538 128.459 61.9848 128.434 62.0106C128.409 62.0364 128.379 62.0562 128.346 62.0687C128.312 62.0812 128.276 62.086 128.24 62.0827H126.15V65.5533H128.668C128.703 65.5502 128.738 65.5548 128.771 65.5668C128.804 65.5787 128.833 65.5976 128.858 65.6223C128.883 65.6469 128.902 65.6766 128.914 65.7094C128.925 65.7421 128.93 65.7771 128.927 65.8118V65.9212C128.93 65.9555 128.926 65.9902 128.914 66.0226C128.902 66.0549 128.883 66.0841 128.858 66.1081C128.833 66.132 128.803 66.1499 128.77 66.1606C128.737 66.1713 128.702 66.1745 128.668 66.1698Z" fill="white"/>
<path d="M133.434 57.737V57.8564C133.437 57.8911 133.433 57.926 133.421 57.9588C133.409 57.9915 133.39 58.0213 133.365 58.0459C133.341 58.0706 133.311 58.0895 133.278 58.1014C133.245 58.1134 133.21 58.118 133.175 58.1149H131.802V65.9212C131.805 65.9555 131.801 65.9902 131.789 66.0226C131.777 66.0549 131.758 66.0841 131.733 66.1081C131.708 66.132 131.678 66.1499 131.645 66.1606C131.612 66.1713 131.578 66.1745 131.543 66.1698H131.374C131.341 66.1732 131.308 66.169 131.277 66.1575C131.245 66.146 131.217 66.1276 131.194 66.1037C131.171 66.0797 131.154 66.0508 131.144 66.0192C131.133 65.9876 131.131 65.9541 131.135 65.9212V58.1149H129.752C129.717 58.118 129.682 58.1134 129.649 58.1014C129.617 58.0895 129.587 58.0706 129.562 58.0459C129.538 58.0213 129.519 57.9915 129.507 57.9588C129.495 57.926 129.49 57.8911 129.493 57.8564V57.737C129.49 57.7027 129.494 57.668 129.506 57.6357C129.518 57.6033 129.538 57.5741 129.562 57.5502C129.587 57.5263 129.617 57.5083 129.65 57.4976C129.683 57.4869 129.718 57.4838 129.752 57.4884H133.175C133.21 57.4838 133.244 57.4869 133.277 57.4976C133.31 57.5083 133.34 57.5263 133.365 57.5502C133.39 57.5741 133.409 57.6033 133.421 57.6357C133.433 57.668 133.438 57.7027 133.434 57.737Z" fill="white"/>
<path d="M137.844 60.4913H137.685C137.651 60.4928 137.617 60.4871 137.586 60.4745C137.554 60.4619 137.526 60.4428 137.502 60.4183C137.479 60.3938 137.461 60.3646 137.449 60.3326C137.438 60.3006 137.433 60.2666 137.436 60.2327V59.3775C137.436 58.4229 137.088 57.9953 136.152 57.9953C135.217 57.9953 134.879 58.4229 134.879 59.3775V59.9841C134.879 60.6305 135.098 60.7996 135.754 61.1476L137.088 61.8835C137.695 62.2017 138.123 62.689 138.123 63.3453V64.4591C138.123 65.6922 137.496 66.2689 136.182 66.2689H136.152C134.839 66.2689 134.212 65.7121 134.212 64.4591V63.3055C134.209 63.2708 134.213 63.2359 134.225 63.2031C134.237 63.1704 134.256 63.1406 134.281 63.116C134.306 63.0913 134.335 63.0724 134.368 63.0605C134.401 63.0486 134.436 63.044 134.471 63.047H134.63C134.664 63.0455 134.698 63.0512 134.729 63.0638C134.761 63.0763 134.789 63.0955 134.813 63.12C134.836 63.1445 134.854 63.1737 134.866 63.2057C134.877 63.2377 134.881 63.2717 134.879 63.3055V64.2602C134.879 65.2049 135.227 65.6623 136.172 65.6623C137.118 65.6623 137.456 65.2049 137.456 64.2602V63.5641C137.456 62.9177 137.197 62.6989 136.541 62.3211L135.237 61.615C134.52 61.2073 134.212 60.8791 134.212 60.183V59.1786C134.212 57.9853 134.948 57.3887 136.143 57.3887H136.172C137.357 57.3887 138.103 57.9853 138.103 59.1786V60.2327C138.106 60.2675 138.101 60.3024 138.09 60.3352C138.078 60.3679 138.059 60.3977 138.034 60.4223C138.009 60.4469 137.98 60.4659 137.947 60.4778C137.914 60.4897 137.879 60.4943 137.844 60.4913Z" fill="white"/>
<path d="M145.557 59.328V64.33C145.557 65.5531 144.891 66.1697 143.577 66.1697H141.816C141.646 66.1697 141.547 66.0802 141.547 65.9211V57.7369C141.547 57.5778 141.646 57.4883 141.816 57.4883H143.577C144.891 57.4883 145.557 58.1148 145.557 59.328ZM143.527 58.1148H142.224V65.5531H143.527C144.503 65.5531 144.891 65.1355 144.891 64.1112V59.5468C144.891 58.5225 144.503 58.1148 143.527 58.1148Z" fill="white"/>
<path d="M147.618 66.1698H147.459C147.425 66.1745 147.39 66.1713 147.357 66.1606C147.324 66.1499 147.294 66.132 147.269 66.1081C147.245 66.0841 147.225 66.0549 147.213 66.0226C147.201 65.9902 147.197 65.9555 147.2 65.9212V57.737C147.197 57.7027 147.201 57.668 147.213 57.6357C147.225 57.6033 147.245 57.5741 147.269 57.5502C147.294 57.5263 147.324 57.5083 147.357 57.4976C147.39 57.4869 147.425 57.4838 147.459 57.4884H147.618C147.652 57.4854 147.685 57.4897 147.717 57.5011C147.749 57.5125 147.777 57.5307 147.801 57.5545C147.825 57.5782 147.843 57.6068 147.854 57.6384C147.866 57.6699 147.87 57.7036 147.867 57.737V65.9212C147.87 65.9546 147.866 65.9883 147.854 66.0198C147.843 66.0514 147.825 66.08 147.801 66.1038C147.777 66.1275 147.749 66.1457 147.717 66.1571C147.685 66.1685 147.652 66.1729 147.618 66.1698Z" fill="white"/>
<path d="M153.58 62.1122V64.4292C153.58 65.6723 152.913 66.2689 151.599 66.2689H151.5C150.186 66.2689 149.52 65.6822 149.52 64.4292V59.2284C149.52 58.0351 150.186 57.3887 151.5 57.3887H151.599C152.913 57.3887 153.58 58.0351 153.58 59.2284V60.1035C153.585 60.139 153.581 60.175 153.57 60.209C153.559 60.243 153.54 60.2741 153.515 60.2999C153.49 60.3256 153.46 60.3455 153.426 60.358C153.393 60.3705 153.357 60.3752 153.321 60.372H153.162C153.003 60.372 152.913 60.2725 152.913 60.1035V59.4471C152.913 58.4229 152.525 58.0152 151.55 58.0152C150.574 58.0152 150.186 58.4229 150.186 59.4471V64.2105C150.186 65.2347 150.574 65.6425 151.55 65.6425C152.525 65.6425 152.913 65.2347 152.913 64.2105V62.4702H151.749C151.715 62.4753 151.68 62.4723 151.648 62.4616C151.615 62.4509 151.586 62.4327 151.562 62.4085C151.538 62.3844 151.519 62.3549 151.509 62.3224C151.498 62.2899 151.495 62.2554 151.5 62.2216V62.1122C151.497 62.0788 151.501 62.0451 151.513 62.0136C151.524 61.982 151.542 61.9534 151.566 61.9297C151.59 61.9059 151.618 61.8877 151.65 61.8763C151.682 61.8649 151.715 61.8606 151.749 61.8636H153.321C153.355 61.8607 153.389 61.8651 153.421 61.8765C153.453 61.8878 153.482 61.9059 153.507 61.9294C153.531 61.9529 153.551 61.9814 153.563 62.0129C153.576 62.0445 153.581 62.0783 153.58 62.1122Z" fill="white"/>
<path d="M155.619 66.1696H155.46C155.291 66.1696 155.191 66.0801 155.191 65.921V57.7369C155.191 57.5778 155.291 57.4883 155.46 57.4883H155.619C155.653 57.4852 155.686 57.4895 155.718 57.5009C155.75 57.5124 155.778 57.5306 155.802 57.5543C155.826 57.578 155.844 57.6067 155.855 57.6382C155.867 57.6698 155.871 57.7035 155.868 57.7369V65.921C155.871 65.9544 155.867 65.9881 155.855 66.0197C155.844 66.0512 155.826 66.0799 155.802 66.1036C155.778 66.1273 155.75 66.1455 155.718 66.157C155.686 66.1684 155.653 66.1727 155.619 66.1696Z" fill="white"/>
<path d="M160.864 57.737V57.8564C160.867 57.8911 160.862 57.926 160.85 57.9588C160.838 57.9915 160.82 58.0213 160.795 58.0459C160.77 58.0706 160.74 58.0895 160.708 58.1014C160.675 58.1134 160.64 58.118 160.605 58.1149H159.232V65.9212C159.232 66.0803 159.132 66.1698 158.963 66.1698H158.804C158.77 66.1729 158.737 66.1685 158.705 66.1571C158.674 66.1457 158.645 66.1275 158.621 66.1038C158.597 66.08 158.579 66.0514 158.568 66.0198C158.556 65.9883 158.552 65.9546 158.555 65.9212V58.1149H157.182C157.147 58.118 157.112 58.1134 157.079 58.1014C157.046 58.0895 157.017 58.0706 156.992 58.0459C156.967 58.0213 156.948 57.9915 156.936 57.9588C156.925 57.926 156.92 57.8911 156.923 57.8564V57.737C156.92 57.7027 156.924 57.668 156.936 57.6357C156.948 57.6033 156.967 57.5741 156.992 57.5502C157.017 57.5263 157.047 57.5083 157.08 57.4976C157.113 57.4869 157.147 57.4838 157.182 57.4884H160.605C160.639 57.4838 160.674 57.4869 160.707 57.4976C160.74 57.5083 160.77 57.5263 160.795 57.5502C160.82 57.5741 160.839 57.6033 160.851 57.6357C160.863 57.668 160.867 57.7027 160.864 57.737Z" fill="white"/>
<path d="M165.173 66.1696H164.984C164.95 66.1737 164.916 66.171 164.884 66.1616C164.852 66.1522 164.821 66.1364 164.795 66.115C164.769 66.0936 164.748 66.0671 164.732 66.0372C164.717 66.0073 164.708 65.9745 164.705 65.9409L164.277 63.9321H161.929L161.501 65.9409C161.498 65.9745 161.489 66.0073 161.473 66.0372C161.458 66.0671 161.437 66.0936 161.41 66.115C161.384 66.1364 161.354 66.1522 161.322 66.1616C161.289 66.171 161.256 66.1737 161.222 66.1696H161.073C160.904 66.1696 160.824 66.0702 160.854 65.8812L162.685 57.7169C162.692 57.6501 162.726 57.5888 162.778 57.5461C162.83 57.5034 162.897 57.4826 162.964 57.4882H163.262C163.295 57.484 163.329 57.4868 163.36 57.4963C163.392 57.5058 163.422 57.5218 163.447 57.5433C163.472 57.5648 163.493 57.5914 163.507 57.6213C163.522 57.6512 163.53 57.6838 163.531 57.7169L165.392 65.8812C165.432 66.0702 165.342 66.1696 165.173 66.1696ZM164.138 63.3255L163.113 58.5423L162.068 63.3255H164.138Z" fill="white"/>
<path d="M169.831 65.7918V65.921C169.834 65.9554 169.829 65.99 169.817 66.0224C169.806 66.0547 169.786 66.084 169.761 66.1079C169.737 66.1318 169.707 66.1498 169.674 66.1605C169.641 66.1712 169.606 66.1743 169.572 66.1696H166.835C166.666 66.1696 166.566 66.0801 166.566 65.921V57.7369C166.566 57.5778 166.666 57.4883 166.835 57.4883H166.994C167.028 57.4852 167.061 57.4895 167.093 57.5009C167.125 57.5124 167.153 57.5306 167.177 57.5543C167.201 57.578 167.219 57.6067 167.23 57.6382C167.242 57.6698 167.246 57.7035 167.243 57.7369V65.5531H169.572C169.731 65.5531 169.831 65.6326 169.831 65.7918Z" fill="white"/>
<path d="M173.234 66.1698H173.064C173.03 66.1745 172.995 66.1713 172.963 66.1606C172.93 66.1499 172.9 66.132 172.875 66.1081C172.85 66.0841 172.831 66.0549 172.819 66.0226C172.807 65.9902 172.802 65.9555 172.806 65.9212V57.737C172.802 57.7027 172.807 57.668 172.819 57.6357C172.831 57.6033 172.85 57.5741 172.875 57.5502C172.9 57.5263 172.93 57.5083 172.963 57.4976C172.995 57.4869 173.03 57.4838 173.064 57.4884H173.234C173.267 57.4854 173.301 57.4897 173.332 57.5011C173.364 57.5125 173.393 57.5307 173.416 57.5545C173.44 57.5782 173.458 57.6068 173.47 57.6384C173.481 57.6699 173.486 57.7036 173.482 57.737V65.9212C173.486 65.9546 173.481 65.9883 173.47 66.0198C173.458 66.0514 173.44 66.08 173.416 66.1038C173.393 66.1275 173.364 66.1457 173.332 66.1571C173.301 66.1685 173.267 66.1729 173.234 66.1698Z" fill="white"/>
<path d="M175.571 66.1698H175.432C175.397 66.1745 175.363 66.1713 175.33 66.1606C175.297 66.1499 175.267 66.132 175.242 66.1081C175.217 66.0841 175.198 66.0549 175.186 66.0226C175.174 65.9902 175.17 65.9555 175.173 65.9212V57.737C175.17 57.7027 175.174 57.668 175.186 57.6357C175.198 57.6033 175.217 57.5741 175.242 57.5502C175.267 57.5263 175.297 57.5083 175.33 57.4976C175.363 57.4869 175.397 57.4838 175.432 57.4884H175.661C175.724 57.4835 175.788 57.5006 175.84 57.5368C175.893 57.573 175.931 57.6262 175.949 57.6873L178.716 64.5787V57.737C178.711 57.7042 178.714 57.6706 178.724 57.639C178.734 57.6074 178.752 57.5785 178.775 57.5546C178.798 57.5306 178.826 57.5122 178.857 57.5007C178.888 57.4893 178.922 57.4851 178.955 57.4884H179.094C179.128 57.4838 179.163 57.4869 179.196 57.4976C179.229 57.5083 179.259 57.5263 179.284 57.5502C179.308 57.5741 179.328 57.6033 179.34 57.6357C179.352 57.668 179.356 57.7027 179.353 57.737V65.9212C179.356 65.9555 179.352 65.9902 179.34 66.0226C179.328 66.0549 179.308 66.0841 179.284 66.1081C179.259 66.132 179.229 66.1499 179.196 66.1606C179.163 66.1713 179.128 66.1745 179.094 66.1698H178.905C178.842 66.1763 178.779 66.1596 178.728 66.123C178.677 66.0864 178.64 66.0323 178.626 65.9709L175.82 59.0298V65.9212C175.823 65.9546 175.819 65.9883 175.807 66.0198C175.796 66.0514 175.777 66.08 175.754 66.1038C175.73 66.1275 175.701 66.1457 175.67 66.1571C175.638 66.1685 175.604 66.1729 175.571 66.1698Z" fill="white"/>
<path d="M181.395 66.1698H181.256C181.222 66.1745 181.187 66.1713 181.154 66.1606C181.121 66.1499 181.091 66.132 181.066 66.1081C181.041 66.0841 181.022 66.0549 181.01 66.0226C180.998 65.9902 180.994 65.9555 180.997 65.9212V57.737C180.994 57.7027 180.998 57.668 181.01 57.6357C181.022 57.6033 181.041 57.5741 181.066 57.5502C181.091 57.5263 181.121 57.5083 181.154 57.4976C181.187 57.4869 181.222 57.4838 181.256 57.4884H181.475C181.538 57.4835 181.602 57.5006 181.654 57.5368C181.707 57.573 181.745 57.6262 181.763 57.6873L184.53 64.5787V57.737C184.527 57.7036 184.531 57.6699 184.543 57.6384C184.554 57.6068 184.572 57.5782 184.596 57.5545C184.62 57.5307 184.649 57.5125 184.68 57.5011C184.712 57.4897 184.745 57.4854 184.779 57.4884H184.918C184.952 57.4838 184.987 57.4869 185.02 57.4976C185.053 57.5083 185.083 57.5263 185.108 57.5502C185.133 57.5741 185.152 57.6033 185.164 57.6357C185.176 57.668 185.18 57.7027 185.177 57.737V65.9212C185.18 65.9555 185.176 65.9902 185.164 66.0226C185.152 66.0549 185.133 66.0841 185.108 66.1081C185.083 66.132 185.053 66.1499 185.02 66.1606C184.987 66.1713 184.952 66.1745 184.918 66.1698H184.729C184.665 66.1767 184.601 66.1604 184.548 66.1239C184.495 66.0874 184.457 66.0331 184.441 65.9709L181.644 59.0298V65.9212C181.647 65.9546 181.643 65.9883 181.631 66.0198C181.62 66.0514 181.602 66.08 181.578 66.1038C181.554 66.1275 181.526 66.1457 181.494 66.1571C181.462 66.1685 181.429 66.1729 181.395 66.1698Z" fill="white"/>
<path d="M188.748 57.3887H188.848C190.161 57.3887 190.828 58.0152 190.828 59.2284V64.4292C190.828 65.6425 190.161 66.2689 188.848 66.2689H188.748C187.435 66.2689 186.758 65.6425 186.758 64.4292V59.2284C186.758 57.9953 187.435 57.3887 188.748 57.3887ZM188.798 65.6425C189.773 65.6425 190.161 65.2347 190.161 64.2105V59.4471C190.161 58.4229 189.773 58.0152 188.798 58.0152C187.823 58.0152 187.435 58.4229 187.435 59.4471V64.2105C187.435 65.2347 187.813 65.6425 188.798 65.6425Z" fill="white"/>
<path d="M196.221 57.7766L194.46 65.9409C194.457 65.9736 194.448 66.0054 194.433 66.0347C194.419 66.0639 194.398 66.0898 194.373 66.1111C194.348 66.1324 194.319 66.1485 194.288 66.1585C194.257 66.1686 194.224 66.1723 194.191 66.1696H193.922C193.855 66.1752 193.789 66.1544 193.737 66.1117C193.685 66.069 193.651 66.0077 193.644 65.9409L191.882 57.7766C191.862 57.5877 191.932 57.4882 192.111 57.4882H192.29C192.357 57.4826 192.424 57.5034 192.476 57.5461C192.528 57.5888 192.561 57.6501 192.569 57.7169L194.072 64.9564L195.584 57.7169C195.585 57.6838 195.593 57.6512 195.608 57.6213C195.622 57.5914 195.643 57.5648 195.668 57.5433C195.693 57.5218 195.723 57.5058 195.755 57.4963C195.787 57.4868 195.82 57.484 195.853 57.4882H196.002C196.171 57.4882 196.261 57.5877 196.221 57.7766Z" fill="white"/>
<path d="M200.83 66.1696H200.641C200.608 66.1738 200.575 66.171 200.543 66.1615C200.511 66.1521 200.482 66.136 200.456 66.1145C200.431 66.093 200.41 66.0664 200.396 66.0365C200.382 66.0066 200.374 65.9741 200.372 65.9409L199.935 63.9321H197.596L197.158 65.9409C197.156 65.9745 197.146 66.0073 197.131 66.0372C197.115 66.0671 197.094 66.0936 197.068 66.115C197.042 66.1364 197.012 66.1522 196.979 66.1616C196.947 66.171 196.913 66.1737 196.879 66.1696H196.74C196.561 66.1696 196.491 66.0702 196.511 65.8812L198.352 57.7169C198.353 57.6838 198.361 57.6512 198.376 57.6213C198.39 57.5914 198.411 57.5648 198.436 57.5433C198.461 57.5218 198.491 57.5058 198.523 57.4963C198.554 57.4868 198.588 57.484 198.621 57.4882H198.919C198.952 57.484 198.986 57.4868 199.018 57.4963C199.05 57.5058 199.079 57.5218 199.104 57.5433C199.13 57.5648 199.15 57.5914 199.165 57.6213C199.179 57.6512 199.187 57.6838 199.188 57.7169L201.049 65.8812C201.089 66.0702 200.999 66.1696 200.83 66.1696ZM199.795 63.3255L198.77 58.5423L197.725 63.3255H199.795Z" fill="white"/>
<path d="M204.981 57.737V57.8564C204.984 57.8911 204.98 57.926 204.968 57.9588C204.956 57.9915 204.937 58.0213 204.912 58.0459C204.887 58.0706 204.858 58.0895 204.825 58.1014C204.792 58.1134 204.757 58.118 204.722 58.1149H203.349V65.9212C203.352 65.9555 203.348 65.9902 203.336 66.0226C203.324 66.0549 203.305 66.0841 203.28 66.1081C203.255 66.132 203.225 66.1499 203.192 66.1606C203.159 66.1713 203.124 66.1745 203.09 66.1698H202.921C202.888 66.1732 202.855 66.169 202.823 66.1575C202.792 66.146 202.764 66.1276 202.741 66.1037C202.718 66.0797 202.701 66.0508 202.691 66.0192C202.68 65.9876 202.677 65.9541 202.682 65.9212V58.1149H201.299C201.264 58.118 201.229 58.1134 201.196 58.1014C201.164 58.0895 201.134 58.0706 201.109 58.0459C201.085 58.0213 201.066 57.9915 201.054 57.9588C201.042 57.926 201.037 57.8911 201.04 57.8564V57.737C201.037 57.7027 201.041 57.668 201.053 57.6357C201.065 57.6033 201.084 57.5741 201.109 57.5502C201.134 57.5263 201.164 57.5083 201.197 57.4976C201.23 57.4869 201.265 57.4838 201.299 57.4884H204.722C204.757 57.4838 204.791 57.4869 204.824 57.4976C204.857 57.5083 204.887 57.5263 204.912 57.5502C204.937 57.5741 204.956 57.6033 204.968 57.6357C204.98 57.668 204.984 57.7027 204.981 57.737Z" fill="white"/>
<path d="M206.442 66.1691H206.283C206.249 66.1738 206.214 66.1706 206.181 66.16C206.149 66.1493 206.119 66.1313 206.094 66.1074C206.069 66.0835 206.05 66.0542 206.038 66.0219C206.026 65.9895 206.021 65.9549 206.024 65.9205V57.7363C206.021 57.702 206.026 57.6674 206.038 57.635C206.05 57.6026 206.069 57.5734 206.094 57.5495C206.119 57.5256 206.149 57.5076 206.181 57.4969C206.214 57.4862 206.249 57.4831 206.283 57.4877H206.442C206.476 57.4827 206.511 57.4857 206.543 57.4964C206.576 57.5071 206.605 57.5253 206.63 57.5494C206.654 57.5736 206.672 57.6031 206.683 57.6356C206.693 57.668 206.696 57.7025 206.691 57.7363V65.9205C206.696 65.9543 206.693 65.9888 206.683 66.0213C206.672 66.0538 206.654 66.0833 206.63 66.1074C206.605 66.1316 206.576 66.1498 206.543 66.1605C206.511 66.1712 206.476 66.1742 206.442 66.1691Z" fill="white"/>
<path d="M210.334 57.3887H210.424C211.747 57.3887 212.414 58.0152 212.414 59.2284V64.4292C212.414 65.6425 211.747 66.2689 210.424 66.2689H210.334C209.011 66.2689 208.344 65.6425 208.344 64.4292V59.2284C208.344 57.9953 209.011 57.3887 210.334 57.3887ZM210.374 65.6425C211.359 65.6425 211.747 65.2347 211.747 64.2105V59.4471C211.747 58.4229 211.359 58.0152 210.374 58.0152C209.389 58.0152 209.011 58.4229 209.011 59.4471V64.2105C209.011 65.2347 209.399 65.6425 210.374 65.6425Z" fill="white"/>
<path d="M214.394 66.1691H214.265C214.096 66.1691 213.996 66.0796 213.996 65.9205V57.7363C213.996 57.5772 214.096 57.4877 214.265 57.4877H214.484C214.547 57.4829 214.611 57.4999 214.663 57.5361C214.716 57.5723 214.754 57.6255 214.772 57.6866L217.539 64.578V57.7363C217.534 57.7025 217.537 57.668 217.548 57.6356C217.558 57.6031 217.577 57.5736 217.601 57.5494C217.625 57.5253 217.654 57.5071 217.687 57.4964C217.719 57.4857 217.754 57.4827 217.788 57.4877H217.917C217.951 57.4831 217.986 57.4862 218.019 57.4969C218.052 57.5076 218.082 57.5256 218.107 57.5495C218.132 57.5734 218.151 57.6026 218.163 57.635C218.175 57.6674 218.179 57.702 218.176 57.7363V65.9205C218.179 65.9549 218.175 65.9895 218.163 66.0219C218.151 66.0542 218.132 66.0835 218.107 66.1074C218.082 66.1313 218.052 66.1493 218.019 66.16C217.986 66.1706 217.951 66.1738 217.917 66.1691H217.738C217.674 66.176 217.61 66.1597 217.557 66.1232C217.504 66.0867 217.466 66.0324 217.449 65.9702L214.643 59.0291V65.9205C214.648 65.9543 214.645 65.9888 214.634 66.0213C214.624 66.0538 214.605 66.0833 214.581 66.1074C214.557 66.1316 214.528 66.1498 214.495 66.1605C214.463 66.1712 214.428 66.1742 214.394 66.1691Z" fill="white"/>
</svg>
