<svg width="172" height="59" viewBox="0 0 172 59" fill="none" xmlns="http://www.w3.org/2000/svg">
<path d="M2.23438 23.9067H29.8725V51.6858H6.7383L18.3365 40.0373L21.6658 43.4249V42.9475C21.6658 39.5054 21.6581 36.0634 21.6736 32.6291C21.6736 32.2302 21.5958 32.0894 21.168 32.0894C17.792 32.105 14.4082 32.0972 11.0322 32.0972H10.5344L10.4721 32.2068L13.7626 35.5315L2.23438 47.117V23.9067Z" fill="url(#paint0_linear_2422_16839)"/>
<path d="M33.678 20.2223L33.2578 20.2067L9.44701 20.2223C9.14363 20.2223 8.91806 20.1519 8.70023 19.9251C6.1488 17.3435 3.58957 14.7672 1.02256 12.1961L0.820312 11.9692H41.8923V53.1643L41.7914 53.2347C41.4802 52.9061 41.1766 52.5698 40.8657 52.2568C38.5788 49.9519 36.2892 47.6518 33.997 45.3571C33.7714 45.1382 33.7012 44.9034 33.7012 44.5982C33.7116 36.5877 33.7143 28.5771 33.7092 20.5666C33.7092 20.4648 33.6934 20.371 33.678 20.2223Z" fill="url(#paint1_linear_2422_16839)"/>
<path d="M59.3781 16.3497H51.1016V11.8906H72.462V16.3497H64.1855V38.9655H59.3781V16.3497Z" fill="#231F20"/>
<path d="M75.8081 38.9657H71.2031V19.0407C72.9922 18.2037 75.4269 17.7812 78.5229 17.7812C80.1096 17.7812 81.5306 17.9481 82.7857 18.2819L82.0311 22.6158C81.1988 22.3029 80.1254 22.1542 78.8107 22.1542C77.496 22.1542 76.4459 22.295 75.8081 22.5688V38.9657Z" fill="#231F20"/>
<path d="M84.8718 13.7059C84.3522 13.1653 84.0669 12.4394 84.0785 11.6876C84.0785 10.8974 84.343 10.2403 84.8718 9.70837C85.1307 9.43703 85.4429 9.22256 85.788 9.07848C86.1335 8.93442 86.5049 8.86389 86.8787 8.87132C87.2459 8.86266 87.6107 8.93286 87.9488 9.07719C88.2868 9.22154 88.5903 9.43673 88.8391 9.70837C89.3992 10.2716 89.6792 10.9287 89.6792 11.6876C89.681 12.0565 89.6075 12.4219 89.4628 12.761C89.3182 13.1002 89.106 13.4058 88.8391 13.6589C88.5933 13.9308 88.2928 14.1468 87.9574 14.2925C87.622 14.4382 87.2596 14.5103 86.8944 14.5038C86.1434 14.5088 85.419 14.2231 84.8718 13.7059ZM89.1736 38.966H84.5763V18.204H89.1736V38.966Z" fill="#231F20"/>
<path d="M97.4098 38.9655H92.8125V19.1268C94.9804 18.2298 97.9052 17.7813 101.587 17.7813C103.765 17.7813 105.5 18.3524 106.814 19.5023C108.79 18.3498 111.186 17.7761 114.002 17.7813C119.411 17.7813 122.115 20.4854 122.115 25.8936V38.9655H117.518V26.0188C117.518 24.6498 117.215 23.6562 116.616 23.0539C116.017 22.4515 115.107 22.1543 113.877 22.1543C111.954 22.1543 110.434 22.4907 109.319 23.1634C109.599 23.977 109.739 24.9861 109.739 26.1909V38.9655H105.181V26.0188C105.181 24.6185 104.877 23.625 104.263 23.0304C103.649 22.4359 102.7 22.1543 101.424 22.1543C99.8291 22.1543 98.4912 22.3185 97.4098 22.6549V38.9655Z" fill="#231F20"/>
<path d="M124.414 38.3788L125.13 33.9197C126.965 34.6759 129.167 35.0541 131.734 35.0541C132.932 35.0541 133.881 34.8897 134.597 34.5534C135.312 34.2171 135.662 33.7241 135.662 33.0829C135.662 31.9876 134.366 31.161 131.773 30.6028C130.933 30.456 130.101 30.2602 129.284 30.0161C128.497 29.7542 127.741 29.408 127.028 28.9836C126.249 28.536 125.616 27.87 125.207 27.067C124.795 26.2612 124.593 25.2912 124.624 24.1725C124.624 19.9117 127.466 17.7812 133.149 17.7812C135.328 17.7812 137.342 18.2037 139.217 19.0407L138.501 23.5389C136.717 22.6158 134.752 22.1542 132.605 22.1542C130.458 22.1542 129.346 22.7566 129.268 23.9613C129.268 24.9678 130.562 25.7658 133.149 26.3551C133.984 26.505 134.807 26.7088 135.615 26.9653C136.406 27.2303 137.165 27.5818 137.879 28.0135C138.643 28.4618 139.266 29.1181 139.676 29.9067C140.088 30.7046 140.298 31.6513 140.298 32.7463C140.298 37.1949 137.221 39.4219 131.065 39.427C128.806 39.439 126.561 39.085 124.414 38.3788Z" fill="#231F20"/>
<path d="M159.859 27.0279C159.859 28.3734 159.72 29.4686 159.44 30.3057H146.565V30.5169C146.565 31.9457 147.053 33.0592 148.028 33.8574C149.003 34.6552 150.411 35.0542 152.252 35.0542C154.596 35.0542 156.673 34.6214 158.483 33.7556L159.19 38.1285C157.3 38.997 154.967 39.4271 152.213 39.4271C148.697 39.4271 146.091 38.551 144.395 36.7987C142.699 35.0464 141.849 32.3369 141.844 28.6707C141.844 25.2547 142.603 22.5845 144.123 20.6601C145.642 18.7357 147.963 17.7761 151.085 17.7813C153.958 17.7813 156.138 18.5662 157.627 20.136C159.115 21.7058 159.859 24.0031 159.859 27.0279ZM146.565 26.316V26.5272H155.472V26.316C155.472 23.3121 153.963 21.8179 150.961 21.8179C147.958 21.8179 146.565 23.3121 146.565 26.316Z" fill="#231F20"/>
<path d="M162.664 32.8715V9.79395H167.261V31.9014C167.261 33.0278 167.393 33.8178 167.658 34.2794C167.923 34.7412 168.366 34.9757 168.98 34.9757C169.468 34.9835 169.952 34.8819 170.396 34.6786L171.065 38.9263C170.396 39.2078 169.533 39.3486 168.475 39.3486C166.66 39.3486 165.239 38.8089 164.212 37.7295C163.185 36.6498 162.669 35.0305 162.664 32.8715Z" fill="#231F20"/>
<path d="M56.8706 45.4428L55.7895 51.8654C55.7836 51.9187 55.7577 51.9679 55.7172 52.0026C55.6768 52.0373 55.6247 52.0556 55.5717 52.0532H55.4316C55.3786 52.0559 55.3265 52.0391 55.2851 52.0062C55.2435 51.9729 55.2155 51.9259 55.206 51.8732L54.0624 46.2643L52.8956 51.8732C52.8959 51.899 52.8905 51.9244 52.8801 51.9481C52.8697 51.9714 52.8545 51.9927 52.8352 52.0095C52.8161 52.0266 52.7935 52.0394 52.7691 52.0469C52.7447 52.0544 52.7188 52.0565 52.6935 52.0532H52.5302C52.4769 52.0556 52.4248 52.0373 52.3844 52.0026C52.3439 51.9679 52.3183 51.9187 52.3123 51.8654L51.2309 45.4428C51.2077 45.3021 51.2777 45.2239 51.4178 45.2239H51.5422C51.5946 45.2218 51.6458 45.2401 51.6851 45.2751C51.724 45.3101 51.7481 45.359 51.7523 45.4117L52.6468 50.9816L53.7669 45.4039C53.7746 45.3506 53.8023 45.3023 53.8443 45.2688C53.8862 45.2356 53.9392 45.2194 53.9925 45.2239H54.1404C54.1927 45.2194 54.2448 45.2359 54.2856 45.2694C54.3261 45.303 54.3522 45.3512 54.3582 45.4039L55.4783 50.9816L56.3805 45.4117C56.3817 45.3859 56.3877 45.3607 56.3984 45.3374C56.4091 45.314 56.4243 45.2931 56.443 45.2757C56.4618 45.258 56.4838 45.2445 56.5079 45.2359C56.5317 45.2269 56.5573 45.223 56.5829 45.2239H56.6918C56.8239 45.2239 56.8939 45.3021 56.8706 45.4428Z" fill="#2C2829"/>
<path d="M58.0076 45.224H58.1323C58.1585 45.2217 58.1847 45.2249 58.2094 45.2339C58.2341 45.2429 58.2564 45.2573 58.2751 45.2759C58.2936 45.2947 58.3079 45.3172 58.3168 45.342C58.3257 45.3669 58.329 45.3933 58.3266 45.4196V48.3376H60.5126V45.4196C60.5085 45.393 60.5108 45.3657 60.5192 45.3402C60.5278 45.3148 60.5418 45.2914 60.5608 45.2726C60.5796 45.2534 60.6028 45.2393 60.6281 45.2309C60.6537 45.2222 60.6805 45.2202 60.7069 45.224H60.8313C60.8581 45.2205 60.8855 45.2228 60.9111 45.2312C60.9367 45.2396 60.9602 45.2537 60.9795 45.2726C60.9992 45.2914 61.014 45.3145 61.0233 45.34C61.0328 45.3654 61.0364 45.3927 61.0337 45.4196V51.8578C61.0364 51.8848 61.0328 51.912 61.0233 51.9375C61.014 51.9629 60.9992 51.986 60.9795 52.0049C60.9602 52.0237 60.9367 52.0378 60.9111 52.0462C60.8855 52.0546 60.8581 52.057 60.8313 52.0534H60.7069C60.6805 52.0573 60.6537 52.0549 60.6281 52.0465C60.6028 52.0381 60.5796 52.0237 60.5608 52.0049C60.5418 51.9857 60.5278 51.9626 60.5192 51.9372C60.5108 51.9114 60.5085 51.8845 60.5126 51.8578V48.8224H58.3266V51.8578C58.329 51.8842 58.3257 51.9105 58.3168 51.9354C58.3079 51.9602 58.2936 51.9827 58.2751 52.0016C58.2564 52.0201 58.2341 52.0345 58.2094 52.0435C58.1847 52.0525 58.1585 52.0558 58.1323 52.0534H58.0076C57.9811 52.057 57.9537 52.0546 57.9282 52.0462C57.9026 52.0378 57.8791 52.0237 57.8597 52.0049C57.8401 51.986 57.8252 51.9629 57.8157 51.9375C57.8064 51.912 57.8029 51.8848 57.8056 51.8578V45.4196C57.8029 45.3927 57.8064 45.3654 57.8157 45.34C57.8252 45.3145 57.8401 45.2914 57.8597 45.2726C57.8791 45.2537 57.9026 45.2396 57.9282 45.2312C57.9537 45.2228 57.9811 45.2205 58.0076 45.224Z" fill="#2C2829"/>
<path d="M64.8017 52.0531H62.5148C62.3824 52.0531 62.3047 51.9827 62.3047 51.8575V45.4194C62.3047 45.2942 62.3824 45.2238 62.5148 45.2238H64.7704C64.7972 45.2202 64.8246 45.2226 64.8502 45.231C64.8758 45.2394 64.8993 45.2534 64.9186 45.2723C64.9383 45.2912 64.9531 45.3142 64.9624 45.3397C64.9719 45.3651 64.9754 45.3924 64.9728 45.4194V45.5134C64.9752 45.5406 64.9716 45.5682 64.9621 45.594C64.9528 45.6197 64.938 45.6431 64.9189 45.6622C64.8996 45.6817 64.8764 45.6967 64.8508 45.706C64.8249 45.7156 64.7978 45.7191 64.7704 45.7167H62.8335V48.3451H64.4672C64.4949 48.3415 64.5231 48.3442 64.5496 48.3529C64.5764 48.3619 64.6005 48.3765 64.6207 48.396C64.641 48.4155 64.6564 48.4394 64.6663 48.4658C64.6761 48.4921 64.6797 48.5206 64.6773 48.5484V48.6266C64.6797 48.6551 64.6758 48.6835 64.666 48.7102C64.6562 48.7371 64.641 48.7614 64.6207 48.7815C64.6008 48.8015 64.5767 48.8171 64.5502 48.8267C64.5237 48.8366 64.4952 48.8405 64.4672 48.8381H62.8335V51.5682H64.8017C64.8287 51.5658 64.8561 51.5694 64.8817 51.5787C64.9073 51.588 64.9305 51.603 64.9499 51.6224C64.9692 51.6419 64.9841 51.6653 64.9933 51.691C65.0025 51.7168 65.0061 51.7443 65.0037 51.7716V51.8575C65.0064 51.8845 65.0028 51.9118 64.9936 51.9372C64.9841 51.9627 64.9692 51.9857 64.9499 52.0046C64.9302 52.0235 64.907 52.0375 64.8811 52.0459C64.8555 52.0543 64.8284 52.0567 64.8017 52.0531Z" fill="#2C2829"/>
<path d="M69.0966 52.0531H68.941C68.8904 52.0567 68.8398 52.042 68.7987 52.0121C68.7574 51.9821 68.7279 51.9384 68.7154 51.889L67.6575 49.104H66.4752V51.8575C66.4791 51.8842 66.4767 51.9115 66.4684 51.9369C66.4601 51.9624 66.4458 51.9857 66.427 52.0046C66.408 52.0238 66.3848 52.0378 66.3595 52.0462C66.3342 52.0549 66.3071 52.057 66.2806 52.0531H66.1562C66.1294 52.0567 66.1024 52.0543 66.0765 52.0459C66.0509 52.0375 66.0274 52.0235 66.008 52.0046C65.9887 51.9857 65.9735 51.9627 65.9643 51.9372C65.9548 51.9117 65.9515 51.8845 65.9539 51.8575V45.4194C65.9515 45.3924 65.9548 45.3651 65.9643 45.3397C65.9735 45.3142 65.9887 45.2912 66.008 45.2723C66.0274 45.2534 66.0509 45.2394 66.0765 45.231C66.1024 45.2226 66.1294 45.2202 66.1562 45.2238H67.5563C68.5833 45.2238 69.1043 45.7167 69.1043 46.6709V47.6646C69.1043 48.4104 68.7934 48.8641 68.1708 49.0258L69.2522 51.8186C69.2989 51.9516 69.2445 52.0531 69.0966 52.0531ZM68.5833 47.5002V46.8431C68.5833 46.0375 68.2797 45.7167 67.5176 45.7167H66.4752V48.6266H67.5176C68.2797 48.6266 68.5833 48.2981 68.5833 47.5002Z" fill="#2C2829"/>
<path d="M72.8182 52.0531H70.5313C70.5046 52.0567 70.4772 52.0543 70.4516 52.0459C70.426 52.0375 70.4025 52.0235 70.3832 52.0046C70.3635 51.9857 70.3486 51.9627 70.3391 51.9372C70.3299 51.9118 70.3263 51.8845 70.329 51.8575V45.4194C70.3263 45.3924 70.3299 45.3651 70.3391 45.3397C70.3486 45.3142 70.3635 45.2912 70.3832 45.2723C70.4025 45.2534 70.426 45.2394 70.4516 45.231C70.4772 45.2226 70.5046 45.2202 70.5313 45.2238H72.7947C72.8215 45.2202 72.8489 45.2226 72.8745 45.231C72.9001 45.2394 72.9236 45.2534 72.9429 45.2723C72.9626 45.2912 72.9774 45.3142 72.987 45.3397C72.9962 45.3651 72.9998 45.3924 72.9971 45.4194V45.5134C72.9995 45.5406 72.9959 45.5682 72.9867 45.594C72.9771 45.6197 72.9623 45.6431 72.9432 45.6622C72.9239 45.6817 72.9007 45.6967 72.8751 45.706C72.8495 45.7156 72.8221 45.7191 72.7947 45.7167H70.8501V48.3451H72.4915C72.5186 48.3427 72.5459 48.3463 72.5715 48.3559C72.5971 48.3652 72.6203 48.3801 72.6397 48.3993C72.659 48.4188 72.6739 48.4421 72.6831 48.4679C72.6924 48.4936 72.6962 48.5212 72.6938 48.5484V48.6266C72.6974 48.6548 72.6947 48.6829 72.6858 48.7099C72.6772 48.7365 72.6626 48.7611 72.643 48.7812C72.6236 48.8015 72.5998 48.8171 72.5736 48.827C72.5474 48.8369 72.5195 48.8405 72.4915 48.8381H70.8501V51.5682H72.8182C72.8459 51.5646 72.8742 51.5673 72.9007 51.576C72.9274 51.5847 72.9515 51.5997 72.9718 51.6191C72.992 51.6386 73.0075 51.6626 73.0173 51.6889C73.0271 51.7153 73.0307 51.7434 73.0283 51.7716V51.8575C73.0283 51.9827 72.9504 52.0531 72.8182 52.0531Z" fill="#2C2829"/>
<path d="M78.4435 52.0532H78.3033C78.2771 52.0565 78.2506 52.0544 78.2253 52.0469C78.2 52.0394 78.1765 52.0271 78.156 52.0101C78.1358 51.9933 78.1188 51.9726 78.1069 51.949C78.0947 51.9256 78.0876 51.8996 78.0855 51.8732L77.751 50.2931H75.9152L75.573 51.8732C75.5721 51.8993 75.5659 51.925 75.5546 51.9484C75.5433 51.972 75.5272 51.993 75.5076 52.0098C75.4876 52.0268 75.4647 52.0394 75.4397 52.0469C75.415 52.0544 75.3888 52.0565 75.3629 52.0532H75.2463C75.1142 52.0532 75.0517 51.975 75.0752 51.8262L76.5065 45.4039C76.5125 45.3512 76.5384 45.3029 76.5791 45.2694C76.6196 45.2359 76.6717 45.2194 76.7244 45.2239H76.9499C77.0023 45.2194 77.0544 45.2359 77.0951 45.2694C77.1356 45.3029 77.1618 45.3512 77.1677 45.4039L78.6223 51.8262C78.6533 51.975 78.5833 52.0532 78.4435 52.0532ZM77.6421 49.816L76.8333 46.0532L76.0241 49.816H77.6421Z" fill="#2C2829"/>
<path d="M82.6826 52.0531H82.527C82.4761 52.0567 82.4258 52.042 82.3848 52.0121C82.3434 51.9821 82.3139 51.9384 82.3014 51.889L81.2513 49.104H80.069V51.8575C80.0714 51.8839 80.0678 51.9103 80.0589 51.9351C80.05 51.96 80.0357 51.9824 80.0172 52.0013C79.9988 52.0199 79.9762 52.0342 79.9515 52.0432C79.9268 52.0522 79.9006 52.0555 79.8744 52.0531H79.7423C79.7155 52.0567 79.6881 52.0543 79.6625 52.0459C79.6369 52.0375 79.6134 52.0235 79.5941 52.0046C79.5744 51.9857 79.5596 51.9627 79.5503 51.9372C79.5408 51.9118 79.5372 51.8845 79.5399 51.8575V45.4194C79.5372 45.3924 79.5408 45.3651 79.5503 45.3397C79.5596 45.3142 79.5744 45.2912 79.5941 45.2723C79.6134 45.2534 79.6369 45.2394 79.6625 45.231C79.6881 45.2226 79.7155 45.2202 79.7423 45.2238H81.1424C82.169 45.2238 82.6904 45.7167 82.6904 46.6709V47.6646C82.6904 48.4077 82.3791 48.8614 81.7646 49.0258L82.8383 51.8186C82.8847 51.9516 82.8302 52.0531 82.6826 52.0531ZM82.169 47.5002V46.8431C82.169 46.0375 81.8658 45.7167 81.1034 45.7167H80.069V48.6266H81.1034C81.8658 48.6266 82.169 48.2981 82.169 47.5002Z" fill="#2C2829"/>
<path d="M86.4327 45.4194V45.5134C86.435 45.5406 86.4315 45.5682 86.4222 45.594C86.4127 45.6197 86.3981 45.6431 86.3788 45.6622C86.3594 45.6817 86.3362 45.6967 86.3106 45.706C86.2851 45.7156 86.2577 45.7191 86.2306 45.7167H85.1569V51.8575C85.1596 51.8845 85.156 51.9118 85.1468 51.9372C85.1373 51.9627 85.1224 51.9857 85.1028 52.0046C85.0834 52.0235 85.0599 52.0375 85.0343 52.0459C85.0087 52.0543 84.9814 52.0567 84.9549 52.0531H84.8225C84.7966 52.0558 84.7707 52.0525 84.7463 52.0435C84.7219 52.0345 84.6999 52.0199 84.6817 52.001C84.6638 51.9824 84.6502 51.9597 84.6424 51.9348C84.6344 51.91 84.632 51.8836 84.6359 51.8575V45.7167H83.5545C83.5274 45.7191 83.5 45.7156 83.4744 45.706C83.4488 45.6967 83.4256 45.6817 83.4063 45.6622C83.3869 45.6431 83.3721 45.6197 83.3628 45.594C83.3536 45.5682 83.35 45.5406 83.3524 45.5134V45.4194C83.3498 45.3924 83.3533 45.3651 83.3625 45.3397C83.3721 45.3142 83.3869 45.2912 83.4063 45.2723C83.4259 45.2534 83.4494 45.2394 83.475 45.231C83.5006 45.2226 83.5277 45.2202 83.5545 45.2238H86.2306C86.2571 45.2202 86.2845 45.2226 86.3101 45.231C86.3356 45.2394 86.3592 45.2534 86.3788 45.2723C86.3981 45.2912 86.413 45.3142 86.4225 45.3397C86.4318 45.3651 86.4353 45.3924 86.4327 45.4194Z" fill="#2C2829"/>
<path d="M91.1074 50.7389C91.0958 50.7845 91.0699 50.8252 91.0333 50.8548C90.997 50.8842 90.9521 50.9013 90.9054 50.9034C90.8569 50.9046 90.8093 50.8887 90.7712 50.8587C90.7328 50.8288 90.706 50.7866 90.6953 50.7389L89.1628 46.5616V51.8575C89.1652 51.8839 89.1619 51.9103 89.1529 51.9351C89.144 51.96 89.1297 51.9824 89.1113 52.0013C89.0925 52.0199 89.0702 52.0342 89.0455 52.0432C89.0208 52.0522 88.9943 52.0555 88.9685 52.0531H88.8673C88.8405 52.0567 88.8131 52.0543 88.7875 52.0459C88.7619 52.0375 88.7384 52.0235 88.7191 52.0046C88.6997 51.9857 88.6846 51.9627 88.6753 51.9372C88.6658 51.9118 88.6622 51.8845 88.6649 51.8575V45.4194C88.6622 45.3924 88.6658 45.3651 88.6753 45.3397C88.6846 45.3142 88.6997 45.2912 88.7191 45.2723C88.7384 45.2534 88.7619 45.2394 88.7875 45.231C88.8131 45.2226 88.8405 45.2202 88.8673 45.2238H89.0149C89.0667 45.2223 89.1169 45.2385 89.158 45.2699C89.1991 45.3011 89.2282 45.3457 89.2407 45.396L90.8819 49.9567L92.5543 45.396C92.5694 45.3457 92.6004 45.3017 92.6427 45.2708C92.6846 45.2397 92.7355 45.2232 92.7879 45.2238H92.9512C92.9777 45.2202 93.0051 45.2226 93.0307 45.231C93.0563 45.2394 93.0798 45.2534 93.0991 45.2723C93.1188 45.2912 93.1336 45.3142 93.1432 45.3397C93.1524 45.3651 93.156 45.3924 93.1533 45.4194V51.8575C93.156 51.8845 93.1524 51.9118 93.1432 51.9372C93.1336 51.9627 93.1188 51.9857 93.0991 52.0046C93.0798 52.0235 93.0563 52.0375 93.0307 52.0459C93.0051 52.0543 92.9777 52.0567 92.9512 52.0531H92.8343C92.8078 52.0567 92.7804 52.0543 92.7548 52.0459C92.7292 52.0375 92.7057 52.0235 92.6864 52.0046C92.6668 51.9857 92.6519 51.9627 92.6424 51.9372C92.6331 51.9118 92.6296 51.8845 92.6322 51.8575V46.5616L91.1074 50.7389Z" fill="#2C2829"/>
<path d="M96.9273 52.0531H94.6404C94.6136 52.0567 94.5866 52.0543 94.561 52.0459C94.5351 52.0375 94.5119 52.0235 94.4922 52.0046C94.4729 51.9857 94.458 51.9627 94.4485 51.9372C94.4393 51.9118 94.4357 51.8845 94.4384 51.8575V45.4194C94.4357 45.3924 94.4393 45.3651 94.4485 45.3397C94.458 45.3142 94.4729 45.2912 94.4922 45.2723C94.5119 45.2534 94.5351 45.2394 94.561 45.231C94.5866 45.2226 94.6136 45.2202 94.6404 45.2238H96.8964C96.9231 45.2202 96.9502 45.2226 96.9758 45.231C97.0017 45.2394 97.0249 45.2534 97.0446 45.2723C97.0639 45.2912 97.0788 45.3142 97.0883 45.3397C97.0975 45.3651 97.1011 45.3924 97.0987 45.4194V45.5134C97.1011 45.5406 97.0972 45.5682 97.088 45.594C97.0788 45.6197 97.0639 45.6431 97.0446 45.6622C97.0252 45.6817 97.002 45.6967 96.9764 45.706C96.9508 45.7156 96.9234 45.7191 96.8964 45.7167H94.9594V48.3451H96.6009C96.6279 48.3427 96.6553 48.3463 96.6809 48.3559C96.7065 48.3652 96.7297 48.3801 96.7491 48.3993C96.7684 48.4188 96.783 48.4421 96.7925 48.4679C96.8017 48.4936 96.8053 48.5212 96.8029 48.5484V48.6266C96.8065 48.6548 96.8038 48.6829 96.7952 48.7099C96.7863 48.7365 96.7717 48.7611 96.7523 48.7812C96.733 48.8015 96.7092 48.8171 96.683 48.827C96.6568 48.8369 96.6285 48.8405 96.6009 48.8381H94.9594V51.5682H96.9273C96.9547 51.5658 96.9821 51.5694 97.0077 51.5787C97.0332 51.588 97.0565 51.603 97.0758 51.6224C97.0948 51.6419 97.1097 51.6653 97.1192 51.691C97.1285 51.7168 97.132 51.7443 97.1297 51.7716V51.8575C97.1323 51.8845 97.1288 51.9118 97.1195 51.9372C97.11 51.9627 97.0951 51.9857 97.0755 52.0046C97.0562 52.0235 97.0327 52.0375 97.0071 52.0459C96.9815 52.0543 96.9541 52.0567 96.9273 52.0531Z" fill="#2C2829"/>
<path d="M100.576 52.0531H98.2813C98.2546 52.0567 98.2272 52.0543 98.2016 52.0459C98.176 52.0375 98.1525 52.0235 98.1331 52.0046C98.1135 51.9857 98.0986 51.9627 98.0894 51.9372C98.0799 51.9118 98.0763 51.8845 98.079 51.8575V45.4194C98.0763 45.3924 98.0799 45.3651 98.0894 45.3397C98.0986 45.3142 98.1135 45.2912 98.1331 45.2723C98.1525 45.2534 98.176 45.2394 98.2016 45.231C98.2272 45.2226 98.2546 45.2202 98.2813 45.2238H100.545C100.572 45.2202 100.599 45.2226 100.624 45.231C100.65 45.2394 100.674 45.2534 100.693 45.2723C100.713 45.2912 100.727 45.3142 100.737 45.3397C100.746 45.3651 100.75 45.3924 100.747 45.4194V45.5134C100.749 45.5406 100.746 45.5682 100.737 45.594C100.727 45.6197 100.713 45.6431 100.693 45.6622C100.674 45.6817 100.651 45.6967 100.625 45.706C100.599 45.7156 100.572 45.7191 100.545 45.7167H98.6081V48.3451H100.241C100.269 48.3427 100.296 48.3463 100.322 48.3559C100.347 48.3652 100.371 48.3801 100.39 48.3993C100.409 48.4188 100.424 48.4421 100.433 48.4679C100.443 48.4936 100.446 48.5212 100.444 48.5484V48.6266C100.447 48.6548 100.445 48.6829 100.436 48.7099C100.427 48.7365 100.413 48.7611 100.393 48.7812C100.374 48.8015 100.35 48.8171 100.324 48.827C100.297 48.8369 100.269 48.8405 100.241 48.8381H98.6081V51.5682H100.576C100.603 51.5658 100.63 51.5694 100.656 51.5787C100.682 51.588 100.705 51.603 100.724 51.6224C100.744 51.6419 100.758 51.6653 100.768 51.691C100.777 51.7168 100.781 51.7443 100.778 51.7716V51.8575C100.781 51.8845 100.777 51.9118 100.768 51.9372C100.759 51.9627 100.744 51.9857 100.724 52.0046C100.705 52.0235 100.681 52.0375 100.656 52.0459C100.63 52.0543 100.603 52.0567 100.576 52.0531Z" fill="#2C2829"/>
<path d="M104.3 45.4194V45.5134C104.302 45.5406 104.299 45.5682 104.289 45.594C104.28 45.6197 104.265 45.6431 104.246 45.6622C104.227 45.6817 104.203 45.6967 104.178 45.706C104.152 45.7156 104.125 45.7191 104.098 45.7167H103.024V51.8575C103.027 51.8845 103.023 51.9118 103.014 51.9372C103.004 51.9627 102.99 51.9857 102.97 52.0046C102.951 52.0235 102.927 52.0375 102.902 52.0459C102.876 52.0543 102.849 52.0567 102.822 52.0531H102.69C102.664 52.0558 102.638 52.0525 102.613 52.0435C102.589 52.0345 102.567 52.0199 102.549 52.001C102.531 51.9824 102.517 51.9597 102.51 51.9348C102.502 51.91 102.499 51.8836 102.503 51.8575V45.7167H101.422C101.395 45.7191 101.367 45.7156 101.342 45.706C101.316 45.6967 101.293 45.6817 101.273 45.6622C101.254 45.6431 101.239 45.6197 101.23 45.594C101.221 45.5682 101.217 45.5406 101.22 45.5134V45.4194C101.217 45.3924 101.221 45.3651 101.23 45.3397C101.239 45.3142 101.254 45.2912 101.273 45.2723C101.293 45.2534 101.316 45.2394 101.342 45.231C101.368 45.2226 101.395 45.2202 101.422 45.2238H104.098C104.124 45.2202 104.152 45.2226 104.177 45.231C104.203 45.2394 104.226 45.2534 104.246 45.2723C104.265 45.2912 104.28 45.3142 104.29 45.3397C104.299 45.3651 104.303 45.3924 104.3 45.4194Z" fill="#2C2829"/>
<path d="M107.746 47.5866H107.622C107.595 47.5878 107.569 47.5833 107.544 47.5734C107.519 47.5635 107.497 47.5485 107.479 47.5294C107.46 47.5099 107.446 47.4871 107.437 47.462C107.428 47.4365 107.425 47.4099 107.427 47.3832V46.7105C107.427 45.9594 107.155 45.6231 106.424 45.6231C105.693 45.6231 105.428 45.9594 105.428 46.7105V47.1876C105.428 47.6962 105.599 47.8291 106.112 48.1029L107.155 48.6818C107.63 48.9322 107.964 49.3155 107.964 49.8319V50.7079C107.964 51.6779 107.474 52.1317 106.447 52.1317H106.424C105.397 52.1317 104.907 51.6938 104.907 50.7079V49.8004C104.905 49.7732 104.908 49.7456 104.917 49.7198C104.927 49.6941 104.941 49.6707 104.961 49.6513C104.98 49.6321 105.003 49.6171 105.029 49.6078C105.055 49.5983 105.082 49.5947 105.109 49.5971H105.234C105.26 49.5959 105.287 49.6003 105.311 49.6102C105.336 49.6201 105.358 49.6354 105.377 49.6546C105.395 49.6737 105.409 49.6968 105.418 49.7219C105.427 49.7471 105.43 49.7741 105.428 49.8004V50.5515C105.428 51.2946 105.7 51.6546 106.439 51.6546C107.178 51.6546 107.443 51.2946 107.443 50.5515V50.0038C107.443 49.4955 107.241 49.3233 106.727 49.0259L105.708 48.4707C105.148 48.1499 104.907 47.8917 104.907 47.3443V46.5539C104.907 45.6153 105.482 45.146 106.416 45.146H106.439C107.365 45.146 107.949 45.6153 107.949 46.5539V47.3832C107.951 47.4105 107.947 47.438 107.938 47.4638C107.929 47.4895 107.914 47.5129 107.894 47.5324C107.875 47.5518 107.852 47.5668 107.826 47.5761C107.801 47.5854 107.773 47.589 107.746 47.5866Z" fill="#2C2829"/>
<path d="M113.775 46.6713V50.6063C113.775 51.5686 113.254 52.0534 112.227 52.0534H110.851C110.718 52.0534 110.641 51.9831 110.641 51.8579V45.4197C110.641 45.2945 110.718 45.2241 110.851 45.2241H112.227C113.254 45.2241 113.775 45.7171 113.775 46.6713ZM112.189 45.7171H111.169V51.5686H112.189C112.951 51.5686 113.254 51.24 113.254 50.4341V46.8435C113.254 46.0375 112.951 45.7171 112.189 45.7171Z" fill="#2C2829"/>
<path d="M115.382 52.0531H115.258C115.231 52.0567 115.204 52.0543 115.178 52.0459C115.152 52.0375 115.129 52.0235 115.11 52.0046C115.09 51.9857 115.075 51.9627 115.066 51.9372C115.056 51.9118 115.053 51.8845 115.055 51.8575V45.4194C115.053 45.3924 115.056 45.3651 115.066 45.3397C115.075 45.3142 115.09 45.2912 115.11 45.2723C115.129 45.2534 115.152 45.2394 115.178 45.231C115.204 45.2226 115.231 45.2202 115.258 45.2238H115.382C115.408 45.2214 115.435 45.2247 115.46 45.2337C115.484 45.2427 115.507 45.257 115.525 45.2759C115.544 45.2945 115.558 45.3169 115.567 45.3418C115.576 45.3666 115.579 45.393 115.577 45.4194V51.8575C115.579 51.8839 115.576 51.9103 115.567 51.9351C115.558 51.96 115.544 51.9824 115.525 52.0013C115.507 52.0199 115.484 52.0342 115.46 52.0432C115.435 52.0522 115.408 52.0555 115.382 52.0531Z" fill="#2C2829"/>
<path d="M120.041 48.8618V50.6845C120.041 51.6624 119.52 52.1317 118.493 52.1317H118.415C117.389 52.1317 116.867 51.6701 116.867 50.6845V46.5931C116.867 45.6545 117.389 45.146 118.415 45.146H118.493C119.52 45.146 120.041 45.6545 120.041 46.5931V47.2817C120.045 47.3095 120.042 47.338 120.033 47.3646C120.024 47.3913 120.01 47.4158 119.99 47.4359C119.971 47.4563 119.947 47.4719 119.921 47.4817C119.895 47.4916 119.867 47.4952 119.839 47.4928H119.714C119.59 47.4928 119.52 47.4146 119.52 47.2817V46.7654C119.52 45.9594 119.217 45.6387 118.454 45.6387C117.692 45.6387 117.389 45.9594 117.389 46.7654V50.5123C117.389 51.3182 117.692 51.639 118.454 51.639C119.217 51.639 119.52 51.3182 119.52 50.5123V49.1433H118.61C118.583 49.1472 118.556 49.1451 118.531 49.1367C118.505 49.128 118.482 49.114 118.463 49.0948C118.445 49.0759 118.43 49.0526 118.422 49.0271C118.414 49.0017 118.411 48.9744 118.415 48.9478V48.8618C118.413 48.8354 118.416 48.8091 118.425 48.7842C118.434 48.7594 118.448 48.7369 118.467 48.718C118.485 48.6995 118.508 48.6851 118.532 48.6761C118.557 48.6671 118.584 48.6638 118.61 48.6662H119.839C119.865 48.6638 119.892 48.6674 119.917 48.6764C119.942 48.6851 119.965 48.6995 119.984 48.718C120.003 48.7363 120.018 48.7588 120.028 48.7836C120.038 48.8085 120.042 48.8351 120.041 48.8618Z" fill="#2C2829"/>
<path d="M121.639 52.0532H121.515C121.382 52.0532 121.305 51.9828 121.305 51.8577V45.4195C121.305 45.2943 121.382 45.2239 121.515 45.2239H121.639C121.665 45.2215 121.692 45.2248 121.716 45.2338C121.741 45.2428 121.763 45.2571 121.782 45.2757C121.8 45.2946 121.815 45.317 121.824 45.3419C121.833 45.3668 121.836 45.3931 121.833 45.4195V51.8577C121.836 51.884 121.833 51.9104 121.824 51.9352C121.815 51.9601 121.8 51.9825 121.782 52.0014C121.763 52.02 121.741 52.0344 121.716 52.0433C121.692 52.0523 121.665 52.0556 121.639 52.0532Z" fill="#2C2829"/>
<path d="M125.737 45.4194V45.5134C125.74 45.5406 125.736 45.5682 125.727 45.594C125.718 45.6197 125.703 45.6431 125.684 45.6622C125.664 45.6817 125.641 45.6967 125.615 45.706C125.59 45.7156 125.563 45.7191 125.535 45.7167H124.462V51.8575C124.462 51.9827 124.384 52.0531 124.252 52.0531H124.127C124.101 52.0555 124.075 52.0522 124.05 52.0432C124.026 52.0342 124.003 52.0199 123.984 52.0013C123.966 51.9824 123.952 51.96 123.943 51.9351C123.934 51.9103 123.93 51.8839 123.933 51.8575V45.7167H122.859C122.832 45.7191 122.805 45.7156 122.779 45.706C122.754 45.6967 122.73 45.6817 122.711 45.6622C122.692 45.6431 122.677 45.6197 122.668 45.594C122.658 45.5682 122.655 45.5406 122.657 45.5134V45.4194C122.655 45.3924 122.658 45.3651 122.667 45.3397C122.677 45.3142 122.692 45.2912 122.711 45.2723C122.731 45.2534 122.754 45.2394 122.78 45.231C122.805 45.2226 122.833 45.2202 122.859 45.2238H125.535C125.562 45.2202 125.589 45.2226 125.615 45.231C125.64 45.2394 125.664 45.2534 125.683 45.2723C125.703 45.2912 125.718 45.3142 125.727 45.3397C125.737 45.3651 125.74 45.3924 125.737 45.4194Z" fill="#2C2829"/>
<path d="M129.107 52.0535H128.96C128.934 52.0568 128.907 52.0544 128.881 52.0472C128.856 52.0397 128.833 52.0271 128.812 52.0104C128.792 51.9936 128.775 51.9726 128.763 51.9493C128.751 51.9256 128.744 51.8999 128.742 51.8735L128.407 50.2934H126.571L126.237 51.8735C126.235 51.8999 126.228 51.9256 126.216 51.9493C126.204 51.9726 126.187 51.9936 126.166 52.0104C126.146 52.0271 126.123 52.0397 126.097 52.0472C126.072 52.0544 126.045 52.0568 126.019 52.0535H125.902C125.77 52.0535 125.708 51.975 125.731 51.8265L127.163 45.4039C127.169 45.3515 127.195 45.3032 127.235 45.2697C127.276 45.2358 127.328 45.2197 127.381 45.2242H127.614C127.64 45.2209 127.666 45.223 127.691 45.2305C127.716 45.2379 127.738 45.2505 127.758 45.2673C127.778 45.2844 127.794 45.3053 127.805 45.3287C127.817 45.3523 127.823 45.3778 127.824 45.4039L129.278 51.8265C129.31 51.975 129.24 52.0535 129.107 52.0535ZM128.299 49.816L127.497 46.0532L126.68 49.816H128.299Z" fill="#2C2829"/>
<path d="M132.747 51.7561V51.8577C132.749 51.8846 132.746 51.9119 132.736 51.9373C132.727 51.9628 132.712 51.9858 132.693 52.0047C132.673 52.0236 132.65 52.0377 132.624 52.046C132.598 52.0544 132.571 52.0568 132.544 52.0532H130.405C130.273 52.0532 130.195 51.9828 130.195 51.8577V45.4195C130.195 45.2943 130.273 45.2239 130.405 45.2239H130.53C130.556 45.2215 130.582 45.2248 130.607 45.2338C130.632 45.2428 130.654 45.2571 130.673 45.2757C130.691 45.2946 130.705 45.317 130.714 45.3419C130.723 45.3668 130.726 45.3931 130.724 45.4195V51.5683H132.544C132.669 51.5683 132.747 51.6309 132.747 51.7561Z" fill="#2C2829"/>
<path d="M135.406 52.0531H135.274C135.247 52.0567 135.219 52.0543 135.194 52.0459C135.168 52.0375 135.145 52.0235 135.125 52.0046C135.106 51.9857 135.091 51.9627 135.082 51.9372C135.072 51.9118 135.068 51.8845 135.071 51.8575V45.4194C135.068 45.3924 135.072 45.3651 135.082 45.3397C135.091 45.3142 135.106 45.2912 135.125 45.2723C135.145 45.2534 135.168 45.2394 135.194 45.231C135.219 45.2226 135.247 45.2202 135.274 45.2238H135.406C135.432 45.2214 135.458 45.2247 135.483 45.2337C135.507 45.2427 135.53 45.257 135.548 45.2759C135.567 45.2945 135.581 45.3169 135.59 45.3418C135.599 45.3666 135.603 45.393 135.6 45.4194V51.8575C135.603 51.8839 135.599 51.9103 135.59 51.9351C135.581 51.96 135.567 51.9824 135.548 52.0013C135.53 52.0199 135.507 52.0342 135.483 52.0432C135.458 52.0522 135.432 52.0555 135.406 52.0531Z" fill="#2C2829"/>
<path d="M137.234 52.0531H137.125C137.098 52.0567 137.071 52.0543 137.045 52.0459C137.02 52.0375 136.996 52.0235 136.977 52.0046C136.957 51.9857 136.942 51.9627 136.933 51.9372C136.924 51.9118 136.92 51.8845 136.923 51.8575V45.4194C136.92 45.3924 136.924 45.3651 136.933 45.3397C136.942 45.3142 136.957 45.2912 136.977 45.2723C136.996 45.2534 137.02 45.2394 137.045 45.231C137.071 45.2226 137.098 45.2202 137.125 45.2238H137.304C137.354 45.2199 137.403 45.2334 137.444 45.2618C137.485 45.2903 137.516 45.3322 137.53 45.3801L139.692 50.8015V45.4194C139.688 45.3936 139.691 45.3672 139.699 45.3424C139.707 45.3175 139.72 45.2948 139.738 45.2759C139.756 45.257 139.778 45.2427 139.802 45.2334C139.827 45.2244 139.853 45.2211 139.879 45.2238H139.987C140.014 45.2202 140.042 45.2226 140.067 45.231C140.093 45.2394 140.116 45.2534 140.136 45.2723C140.155 45.2912 140.17 45.3142 140.179 45.3397C140.189 45.3651 140.193 45.3924 140.19 45.4194V51.8575C140.193 51.8845 140.189 51.9118 140.179 51.9372C140.17 51.9627 140.155 51.9857 140.136 52.0046C140.116 52.0235 140.093 52.0375 140.067 52.0459C140.042 52.0543 140.014 52.0567 139.987 52.0531H139.84C139.791 52.0582 139.742 52.045 139.702 52.0163C139.661 51.9875 139.633 51.945 139.622 51.8968L137.428 46.4364V51.8575C137.431 51.8839 137.427 51.9103 137.418 51.9351C137.41 51.96 137.395 51.9824 137.377 52.0013C137.358 52.0199 137.336 52.0342 137.311 52.0432C137.286 52.0522 137.26 52.0555 137.234 52.0531Z" fill="#2C2829"/>
<path d="M141.788 52.0531H141.679C141.653 52.0567 141.626 52.0543 141.6 52.0459C141.574 52.0375 141.551 52.0235 141.532 52.0046C141.512 51.9857 141.497 51.9627 141.488 51.9372C141.478 51.9118 141.475 51.8845 141.477 51.8575V45.4194C141.475 45.3924 141.478 45.3651 141.488 45.3397C141.497 45.3142 141.512 45.2912 141.532 45.2723C141.551 45.2534 141.574 45.2394 141.6 45.231C141.626 45.2226 141.653 45.2202 141.679 45.2238H141.851C141.901 45.2199 141.95 45.2334 141.991 45.2618C142.032 45.2903 142.062 45.3322 142.076 45.3801L144.239 50.8015V45.4194C144.237 45.393 144.24 45.3666 144.249 45.3418C144.258 45.3169 144.272 45.2945 144.29 45.2759C144.309 45.257 144.331 45.2427 144.356 45.2337C144.381 45.2247 144.407 45.2214 144.433 45.2238H144.542C144.569 45.2202 144.596 45.2226 144.622 45.231C144.648 45.2394 144.671 45.2534 144.69 45.2723C144.71 45.2912 144.725 45.3142 144.734 45.3397C144.744 45.3651 144.747 45.3924 144.745 45.4194V51.8575C144.747 51.8845 144.744 51.9118 144.734 51.9372C144.725 51.9627 144.71 51.9857 144.69 52.0046C144.671 52.0235 144.648 52.0375 144.622 52.0459C144.596 52.0543 144.569 52.0567 144.542 52.0531H144.394C144.344 52.0585 144.294 52.0456 144.253 52.0172C144.211 51.9884 144.182 51.9456 144.169 51.8968L141.983 46.4364V51.8575C141.985 51.8839 141.982 51.9103 141.973 51.9351C141.964 51.96 141.95 51.9824 141.931 52.0013C141.913 52.0199 141.89 52.0342 141.866 52.0432C141.841 52.0522 141.815 52.0555 141.788 52.0531Z" fill="#2C2829"/>
<path d="M147.532 45.146H147.61C148.637 45.146 149.158 45.6387 149.158 46.5931V50.6845C149.158 51.639 148.637 52.1317 147.61 52.1317H147.532C146.505 52.1317 145.977 51.639 145.977 50.6845V46.5931C145.977 45.6231 146.505 45.146 147.532 45.146ZM147.571 51.639C148.333 51.639 148.637 51.3182 148.637 50.5123V46.7654C148.637 45.9594 148.333 45.6387 147.571 45.6387C146.809 45.6387 146.505 45.9594 146.505 46.7654V50.5123C146.505 51.3182 146.801 51.639 147.571 51.639Z" fill="#2C2829"/>
<path d="M153.371 45.4509L151.994 51.8735C151.992 51.8993 151.985 51.9241 151.973 51.9472C151.962 51.9702 151.946 51.9906 151.926 52.0074C151.907 52.0241 151.884 52.0367 151.86 52.0448C151.835 52.0526 151.809 52.0556 151.784 52.0535H151.574C151.521 52.0577 151.469 52.0415 151.428 52.008C151.388 51.9741 151.362 51.9259 151.356 51.8735L149.979 45.4509C149.963 45.3023 150.018 45.2242 150.158 45.2242H150.298C150.351 45.2197 150.403 45.2358 150.443 45.2697C150.484 45.3032 150.51 45.3515 150.516 45.4039L151.69 51.099L152.873 45.4039C152.874 45.3778 152.88 45.3523 152.891 45.3287C152.903 45.3053 152.919 45.2844 152.938 45.2673C152.958 45.2505 152.981 45.2379 153.006 45.2305C153.031 45.223 153.057 45.2209 153.083 45.2242H153.2C153.332 45.2242 153.402 45.3023 153.371 45.4509Z" fill="#2C2829"/>
<path d="M156.98 52.0535H156.832C156.807 52.0568 156.78 52.0544 156.755 52.0469C156.73 52.0397 156.708 52.0268 156.688 52.0101C156.668 51.993 156.652 51.9723 156.641 51.9487C156.629 51.9253 156.623 51.8996 156.622 51.8735L156.28 50.2934H154.452L154.11 51.8735C154.108 51.8999 154.1 51.9256 154.088 51.9493C154.076 51.9726 154.059 51.9936 154.039 52.0104C154.019 52.0271 153.995 52.0397 153.97 52.0472C153.945 52.0544 153.918 52.0568 153.892 52.0535H153.783C153.643 52.0535 153.589 51.975 153.604 51.8265L155.043 45.4039C155.044 45.3778 155.05 45.3523 155.062 45.3287C155.073 45.3053 155.089 45.2844 155.109 45.2673C155.128 45.2505 155.152 45.2379 155.176 45.2305C155.201 45.223 155.227 45.2209 155.253 45.2242H155.487C155.512 45.2209 155.538 45.223 155.563 45.2305C155.588 45.2379 155.611 45.2505 155.631 45.2673C155.651 45.2844 155.667 45.3053 155.678 45.3287C155.69 45.3523 155.696 45.3778 155.697 45.4039L157.151 51.8265C157.182 51.975 157.112 52.0535 156.98 52.0535ZM156.171 49.816L155.37 46.0532L154.553 49.816H156.171Z" fill="#2C2829"/>
<path d="M160.222 45.4194V45.5134C160.224 45.5406 160.221 45.5682 160.211 45.594C160.202 45.6197 160.187 45.6431 160.168 45.6622C160.149 45.6817 160.125 45.6967 160.1 45.706C160.074 45.7156 160.047 45.7191 160.02 45.7167H158.946V51.8575C158.949 51.8845 158.945 51.9118 158.936 51.9372C158.927 51.9627 158.912 51.9857 158.892 52.0046C158.873 52.0235 158.849 52.0375 158.824 52.0459C158.798 52.0543 158.771 52.0567 158.744 52.0531H158.612C158.586 52.0558 158.56 52.0525 158.535 52.0435C158.511 52.0345 158.489 52.0199 158.471 52.001C158.453 51.9824 158.439 51.9597 158.431 51.9348C158.424 51.91 158.421 51.8836 158.425 51.8575V45.7167H157.344C157.317 45.7191 157.289 45.7156 157.264 45.706C157.238 45.6967 157.215 45.6817 157.196 45.6622C157.176 45.6431 157.161 45.6197 157.152 45.594C157.143 45.5682 157.139 45.5406 157.141 45.5134V45.4194C157.139 45.3924 157.142 45.3651 157.152 45.3397C157.161 45.3142 157.176 45.2912 157.196 45.2723C157.215 45.2534 157.238 45.2394 157.264 45.231C157.29 45.2226 157.317 45.2202 157.344 45.2238H160.02C160.046 45.2202 160.074 45.2226 160.099 45.231C160.125 45.2394 160.148 45.2534 160.168 45.2723C160.187 45.2912 160.202 45.3142 160.211 45.3397C160.221 45.3651 160.225 45.3924 160.222 45.4194Z" fill="#2C2829"/>
<path d="M161.367 52.0534H161.242C161.215 52.057 161.188 52.0546 161.163 52.0462C161.137 52.0378 161.113 52.0237 161.094 52.0049C161.074 51.986 161.06 51.9629 161.05 51.9375C161.041 51.912 161.037 51.8848 161.04 51.8578V45.4196C161.037 45.3927 161.041 45.3654 161.05 45.34C161.06 45.3145 161.074 45.2914 161.094 45.2726C161.113 45.2537 161.137 45.2396 161.163 45.2312C161.188 45.2228 161.215 45.2205 161.242 45.224H161.367C161.393 45.2202 161.42 45.2222 161.446 45.2309C161.471 45.2393 161.494 45.2534 161.513 45.2726C161.532 45.2914 161.546 45.3148 161.554 45.3402C161.563 45.3657 161.565 45.393 161.561 45.4196V51.8578C161.565 51.8845 161.563 51.9114 161.554 51.9372C161.546 51.9626 161.532 51.9857 161.513 52.0049C161.494 52.0237 161.471 52.0381 161.446 52.0465C161.42 52.0549 161.393 52.0573 161.367 52.0534Z" fill="#2C2829"/>
<path d="M164.407 45.146H164.477C165.512 45.146 166.033 45.6387 166.033 46.5931V50.6845C166.033 51.639 165.512 52.1317 164.477 52.1317H164.407C163.373 52.1317 162.852 51.639 162.852 50.6845V46.5931C162.852 45.6231 163.373 45.146 164.407 45.146ZM164.439 51.639C165.209 51.639 165.512 51.3182 165.512 50.5123V46.7654C165.512 45.9594 165.209 45.6387 164.439 45.6387C163.668 45.6387 163.373 45.9594 163.373 46.7654V50.5123C163.373 51.3182 163.676 51.639 164.439 51.639Z" fill="#2C2829"/>
<path d="M167.577 52.0534H167.475C167.343 52.0534 167.266 51.983 167.266 51.8578V45.4196C167.266 45.2944 167.343 45.224 167.475 45.224H167.647C167.697 45.2202 167.746 45.2336 167.787 45.2621C167.828 45.2905 167.858 45.3325 167.872 45.3804L170.035 50.8018V45.4196C170.031 45.393 170.033 45.3657 170.041 45.3402C170.05 45.3148 170.064 45.2914 170.083 45.2726C170.102 45.2534 170.125 45.2393 170.15 45.2309C170.176 45.2222 170.203 45.2202 170.229 45.224H170.33C170.357 45.2205 170.384 45.2228 170.41 45.2312C170.436 45.2396 170.459 45.2537 170.479 45.2726C170.498 45.2914 170.513 45.3145 170.522 45.34C170.532 45.3654 170.535 45.3927 170.533 45.4196V51.8578C170.535 51.8848 170.532 51.912 170.522 51.9375C170.513 51.9629 170.498 51.986 170.479 52.0049C170.459 52.0237 170.436 52.0378 170.41 52.0462C170.384 52.0546 170.357 52.057 170.33 52.0534H170.19C170.14 52.0588 170.09 52.0459 170.049 52.0171C170.007 51.9884 169.977 51.9459 169.965 51.897L167.771 46.4367V51.8578C167.775 51.8845 167.773 51.9114 167.764 51.9372C167.756 51.9626 167.742 51.9857 167.723 52.0049C167.704 52.0237 167.681 52.0381 167.655 52.0465C167.63 52.0549 167.603 52.0573 167.577 52.0534Z" fill="#2C2829"/>
<defs>
<linearGradient id="paint0_linear_2422_16839" x1="2.23593" y1="37.7962" x2="29.8755" y2="37.7962" gradientUnits="userSpaceOnUse">
<stop stop-color="#1C75BC"/>
<stop offset="0.25" stop-color="#1D7CC1"/>
<stop offset="0.62" stop-color="#218FCE"/>
<stop offset="1" stop-color="#27AAE1"/>
</linearGradient>
<linearGradient id="paint1_linear_2422_16839" x1="0.822646" y1="32.602" x2="41.8962" y2="32.602" gradientUnits="userSpaceOnUse">
<stop stop-color="#00A79D"/>
<stop offset="0.29" stop-color="#07A996"/>
<stop offset="0.71" stop-color="#1AB084"/>
<stop offset="1" stop-color="#2BB673"/>
</linearGradient>
</defs>
</svg>
