<svg width="257" height="257" viewBox="0 0 257 257" fill="none" xmlns="http://www.w3.org/2000/svg">
<path d="M8.87305 74.272H181.435V246.605H36.9939L109.409 174.342L130.196 195.356V192.396C130.196 171.042 130.147 149.689 130.244 128.384C130.244 125.909 129.759 125.035 127.088 125.035C106.009 125.132 84.882 125.084 63.8034 125.084H60.6951L60.3066 125.763L80.8508 146.389L8.87305 218.263V74.272Z" fill="url(#paint0_linear_169_314)"/>
<path d="M205.198 51.4148L202.575 51.3178L53.9088 51.4148C52.0146 51.4148 50.6062 50.9781 49.2463 49.5707C33.316 33.5555 17.3371 17.5727 1.30964 1.62223L0.046875 0.214844H256.486V255.778L255.854 256.215C253.912 254.177 252.018 252.09 250.075 250.148C235.796 235.848 221.501 221.58 207.189 207.344C205.781 205.985 205.344 204.53 205.344 202.637C205.409 152.941 205.425 103.246 205.392 53.5502C205.392 52.9193 205.295 52.3369 205.198 51.4148Z" fill="url(#paint1_linear_169_314)"/>
<defs>
<linearGradient id="paint0_linear_169_314" x1="8.88276" y1="160.438" x2="181.455" y2="160.438" gradientUnits="userSpaceOnUse">
<stop stop-color="#1C75BC"/>
<stop offset="0.25" stop-color="#1D7CC1"/>
<stop offset="0.62" stop-color="#218FCE"/>
<stop offset="1" stop-color="#27AAE1"/>
</linearGradient>
<linearGradient id="paint1_linear_169_314" x1="0.0614454" y1="128.215" x2="256.51" y2="128.215" gradientUnits="userSpaceOnUse">
<stop stop-color="#00A79D"/>
<stop offset="0.29" stop-color="#07A996"/>
<stop offset="0.71" stop-color="#1AB084"/>
<stop offset="1" stop-color="#2BB673"/>
</linearGradient>
</defs>
</svg>
