<svg width="66" height="66" viewBox="0 0 66 66" fill="none" xmlns="http://www.w3.org/2000/svg">
<rect width="66" height="66" rx="10" fill="#E7F4F9"/>
<path d="M50.6 25.6667H50.3345C48.9324 17.3565 41.7032 11 33 11C24.2968 11 17.0676 17.3565 15.6655 25.6667H15.4C12.9741 25.6667 11 27.6408 11 30.0667V35.9333C11 38.3592 12.9741 40.3333 15.4 40.3333H16.8667C17.6763 40.3333 18.3333 39.6777 18.3333 38.8667V28.6C18.3333 20.5128 24.9128 13.9333 33 13.9333C41.0872 13.9333 47.6667 20.5128 47.6667 28.6V37.4C47.6667 41.5536 45.936 45.4124 42.9073 48.1815C42.3647 47.8632 41.7399 47.6667 41.0667 47.6667C39.0456 47.6667 37.4 49.3108 37.4 51.3333C37.4 53.3559 39.0456 55 41.0667 55C43.0877 55 44.7333 53.3559 44.7333 51.3333C44.7333 51.0635 44.7011 50.8053 44.6453 50.5531C47.6901 47.8691 49.6701 44.2889 50.3301 40.3333H50.6C53.0259 40.3333 55 38.3592 55 35.9333V30.0667C55 27.6408 53.0259 25.6667 50.6 25.6667Z" fill="black"/>
<path d="M25.6667 25.6667C24.049 25.6667 22.7334 26.9823 22.7334 28.6V31.5334C22.7334 33.1511 24.049 34.4667 25.6667 34.4667H30.0667C30.8763 34.4667 31.5334 33.8111 31.5334 33C31.5334 32.189 30.8763 31.5334 30.0667 31.5334H25.6667V28.6H28.6001C30.2178 28.6 31.5334 27.2844 31.5334 25.6667V22.7334C31.5334 21.1156 30.2178 19.8 28.6001 19.8H24.2001C23.3905 19.8 22.7334 20.4556 22.7334 21.2667C22.7334 22.0778 23.3905 22.7334 24.2001 22.7334H28.6001V25.6667H25.6667Z" fill="black"/>
<path d="M35.9335 19.8C35.1239 19.8 34.4668 20.4556 34.4668 21.2667V25.6667C34.4668 27.2844 35.7824 28.6 37.4001 28.6H40.3335V33C40.3335 33.8111 40.9905 34.4667 41.8001 34.4667C42.6097 34.4667 43.2668 33.8111 43.2668 33V27.1363C43.2668 27.1363 43.2668 27.1348 43.2668 27.1334C43.2668 27.1319 43.2668 27.1304 43.2668 27.1304V21.2667C43.2668 20.4556 42.6097 19.8 41.8001 19.8C40.9905 19.8 40.3335 20.4556 40.3335 21.2667V25.6667H37.4001V21.2667C37.4001 20.4556 36.7431 19.8 35.9335 19.8Z" fill="black"/>
<path d="M43.2667 37.4C43.2667 36.5889 42.6097 35.9333 41.8001 35.9333H24.2001C23.3905 35.9333 22.7334 36.5889 22.7334 37.4C22.7334 38.2111 23.3905 38.8667 24.2001 38.8667H41.8001C42.6097 38.8667 43.2667 38.2111 43.2667 37.4Z" fill="black"/>
<path d="M34.4663 40.3333H30.0663C29.2567 40.3333 28.5996 40.9889 28.5996 41.7999C28.5996 42.611 29.2567 43.2666 30.0663 43.2666H34.0541L31.5769 53.1783C31.3804 53.963 31.8585 54.7594 32.6447 54.9559C32.7635 54.9853 32.8823 54.9999 33.0011 54.9999C33.6581 54.9999 34.2551 54.5555 34.4223 53.8882L36.9992 43.5775C37.2031 42.7635 37.0403 41.9393 36.5519 41.3159C36.0664 40.6911 35.3052 40.3333 34.4663 40.3333Z" fill="black"/>
</svg>
