<svg width="66" height="66" viewBox="0 0 66 66" fill="none" xmlns="http://www.w3.org/2000/svg">
<rect width="66" height="66" rx="10" fill="#E7F4F9"/>
<path d="M45.183 32.5624C44.041 30.0198 42.1316 27.8986 39.7227 26.4965C39.7365 26.4743 39.7449 26.4465 39.7588 26.4243L41.7613 21.9388C41.8042 21.8454 41.8663 21.7619 41.9434 21.6938C42.0205 21.6258 42.1109 21.5745 42.209 21.5434C42.307 21.5123 42.4105 21.502 42.5127 21.5132C42.615 21.5243 42.7138 21.5568 42.8028 21.6083C46.1234 23.5827 48.7656 26.5194 50.3795 30.0294C50.4209 30.124 50.442 30.2263 50.4413 30.3295C50.4406 30.4328 50.4182 30.5348 50.3755 30.6288C50.3328 30.7229 50.2707 30.8069 50.1934 30.8754C50.1161 30.9439 50.0253 30.9954 49.9268 31.0265L45.2552 32.5429C45.2304 32.5461 45.2061 32.5526 45.183 32.5624Z" fill="black"/>
<path d="M52.1597 38.045C52.1595 41.1512 51.3965 44.2098 49.9378 46.9521C49.8896 47.0382 49.8248 47.1138 49.7471 47.1745C49.6693 47.2352 49.5803 47.2798 49.4851 47.3056C49.3899 47.3315 49.2905 47.3381 49.1928 47.3251C49.095 47.3121 49.0008 47.2797 48.9157 47.2298L45.1829 45.0718C45.0172 44.9747 44.8957 44.817 44.8439 44.6321C44.7921 44.4472 44.8141 44.2493 44.9052 44.0803C45.8579 42.2093 46.3528 40.139 46.3494 38.0395C46.3532 37.1231 46.2601 36.2089 46.0717 35.312L46.1522 35.2898L50.8266 33.7678C50.9256 33.7351 51.0304 33.7239 51.1341 33.7347C51.2378 33.7456 51.338 33.7784 51.4281 33.8309C51.5181 33.8834 51.596 33.9545 51.6565 34.0394C51.7171 34.1243 51.7589 34.221 51.7792 34.3233C52.0259 35.5487 52.1533 36.7951 52.1597 38.045Z" fill="black"/>
<path d="M19.6306 38.045C19.6275 40.1511 20.1233 42.2279 21.0776 44.1053C21.1673 44.2747 21.1885 44.472 21.1368 44.6566C21.0851 44.8411 20.9645 44.9987 20.7999 45.0968L17.0726 47.2465C16.9878 47.2967 16.8938 47.3294 16.7962 47.3426C16.6985 47.3557 16.5992 47.3492 16.5042 47.3233C16.4091 47.2974 16.3202 47.2527 16.2428 47.1918C16.1653 47.1309 16.1009 47.0551 16.0533 46.9688C14.0159 43.0918 13.368 38.6338 14.2174 34.3372C14.2378 34.235 14.2796 34.1382 14.3401 34.0533C14.4006 33.9684 14.4785 33.8973 14.5686 33.8448C14.6587 33.7923 14.7589 33.7595 14.8626 33.7486C14.9663 33.7378 15.0711 33.749 15.1701 33.7817L19.8361 35.3037L19.9166 35.326C19.726 36.2197 19.6301 37.1311 19.6306 38.045Z" fill="black"/>
<path d="M26.2329 26.4243C26.2495 26.4466 26.2551 26.4743 26.269 26.4966C23.8601 27.8987 21.9506 30.0198 20.8086 32.5624C20.7861 32.5488 20.7618 32.5385 20.7364 32.5318L16.0732 31.0182C15.9746 30.9867 15.8837 30.935 15.8064 30.8662C15.7291 30.7974 15.667 30.7132 15.6244 30.6189C15.5817 30.5247 15.5593 30.4225 15.5586 30.319C15.5579 30.2156 15.579 30.1131 15.6204 30.0183C17.2322 26.5098 19.8752 23.5761 23.1972 21.6083C23.2869 21.5568 23.3866 21.5247 23.4896 21.5143C23.5926 21.5038 23.6966 21.5152 23.7949 21.5477C23.8932 21.5802 23.9835 21.6331 24.06 21.7029C24.1365 21.7727 24.1974 21.8578 24.2387 21.9527L26.2329 26.4243Z" fill="black"/>
<path d="M32.9958 18.8922C35.1891 18.8857 37.3668 19.2616 39.431 20.0031L37.098 25.2385L37.0674 25.3107C34.4198 24.459 31.5717 24.459 28.9241 25.3107C28.9136 25.2871 28.9044 25.263 28.8963 25.2385L26.5605 20.0115C28.6241 19.2666 30.8019 18.8878 32.9958 18.8922Z" fill="black"/>
<path d="M41.7777 31.5376L35.0675 37.6256C35.0546 38.063 34.9039 38.4851 34.6368 38.8316C34.3696 39.1781 33.9998 39.4312 33.5801 39.5549C33.1604 39.6786 32.7124 39.6664 32.3 39.5201C31.8877 39.3739 31.5321 39.101 31.2842 38.7405C31.0363 38.38 30.9087 37.9503 30.9196 37.513C30.9305 37.0756 31.0795 36.6528 31.3451 36.3052C31.6107 35.9575 31.9794 35.7027 32.3986 35.5773C32.8177 35.4518 33.2658 35.462 33.6788 35.6065L41.7777 31.5376Z" fill="#1A1A1A"/>
<path d="M40.1414 44.0664H25.8489C25.4155 44.0671 25.0002 44.2398 24.694 44.5465C24.3878 44.8532 24.2158 45.2689 24.2158 45.7023C24.2158 46.1354 24.3879 46.5508 24.6941 46.8571C25.0004 47.1633 25.4158 47.3354 25.8489 47.3354H40.1414C40.5748 47.3354 40.9904 47.1634 41.2971 46.8572C41.6039 46.5511 41.7765 46.1357 41.7773 45.7023C41.7773 45.2684 41.6049 44.8523 41.2981 44.5455C40.9913 44.2388 40.5752 44.0664 40.1414 44.0664Z" fill="#1A1A1A"/>
<path d="M45.183 32.5624C44.04 30.0204 42.1308 27.8995 39.7227 26.4965C39.7365 26.4743 39.7449 26.4465 39.7588 26.4243L41.7613 21.9388C41.8042 21.8454 41.8663 21.7619 41.9434 21.6938C42.0205 21.6258 42.1109 21.5745 42.209 21.5434C42.307 21.5123 42.4105 21.502 42.5127 21.5132C42.615 21.5243 42.7138 21.5568 42.8028 21.6083C46.1234 23.5827 48.7656 26.5194 50.3795 30.0294C50.4209 30.124 50.442 30.2263 50.4413 30.3295C50.4406 30.4328 50.4182 30.5348 50.3755 30.6288C50.3328 30.7229 50.2707 30.8069 50.1934 30.8754C50.1161 30.9439 50.0253 30.9954 49.9268 31.0265L45.2552 32.5429C45.2304 32.5461 45.2061 32.5526 45.183 32.5624Z" fill="#1A1A1A"/>
<path d="M52.1597 38.045C52.1595 41.1512 51.3965 44.2098 49.9378 46.9521C49.8896 47.0382 49.8248 47.1138 49.7471 47.1745C49.6693 47.2352 49.5803 47.2798 49.4851 47.3056C49.3899 47.3315 49.2905 47.3381 49.1928 47.3251C49.095 47.3121 49.0008 47.2797 48.9157 47.2298L45.1829 45.0718C45.0172 44.9747 44.8957 44.817 44.8439 44.6321C44.7921 44.4472 44.8141 44.2493 44.9052 44.0803C45.8579 42.2093 46.3528 40.139 46.3494 38.0395C46.3532 37.1231 46.2601 36.2089 46.0717 35.312L46.1522 35.2898L50.8266 33.7678C50.9256 33.7351 51.0304 33.7239 51.1341 33.7347C51.2378 33.7456 51.338 33.7784 51.4281 33.8309C51.5181 33.8834 51.596 33.9545 51.6565 34.0394C51.7171 34.1243 51.7589 34.221 51.7792 34.3233C52.0259 35.5487 52.1533 36.7951 52.1597 38.045Z" fill="black"/>
<path d="M19.6306 38.045C19.6275 40.1511 20.1233 42.2279 21.0776 44.1053C21.1673 44.2747 21.1885 44.472 21.1368 44.6566C21.0851 44.8411 20.9645 44.9987 20.7999 45.0968L17.0726 47.2465C16.9878 47.2967 16.8938 47.3294 16.7962 47.3426C16.6985 47.3557 16.5992 47.3492 16.5042 47.3233C16.4091 47.2974 16.3202 47.2527 16.2428 47.1918C16.1653 47.1309 16.1009 47.0551 16.0533 46.9688C14.0159 43.0918 13.368 38.6338 14.2174 34.3372C14.2378 34.235 14.2796 34.1382 14.3401 34.0533C14.4006 33.9684 14.4785 33.8973 14.5686 33.8448C14.6587 33.7923 14.7589 33.7595 14.8626 33.7486C14.9663 33.7378 15.0711 33.749 15.1701 33.7817L19.8361 35.3037L19.9166 35.326C19.726 36.2197 19.6301 37.1311 19.6306 38.045Z" fill="black"/>
<path d="M26.2329 26.4243C26.2495 26.4466 26.2551 26.4743 26.269 26.4966C23.8601 27.8987 21.9506 30.0198 20.8086 32.5624C20.7861 32.5488 20.7618 32.5385 20.7364 32.5318L16.0732 31.0182C15.9746 30.9867 15.8837 30.935 15.8064 30.8662C15.7291 30.7974 15.667 30.7132 15.6244 30.6189C15.5817 30.5247 15.5593 30.4225 15.5586 30.319C15.5579 30.2156 15.579 30.1131 15.6204 30.0183C17.2322 26.5098 19.8752 23.5761 23.1972 21.6083C23.2869 21.5568 23.3866 21.5247 23.4896 21.5143C23.5926 21.5038 23.6966 21.5152 23.7949 21.5477C23.8932 21.5802 23.9835 21.6331 24.06 21.7029C24.1365 21.7727 24.1974 21.8578 24.2387 21.9527L26.2329 26.4243Z" fill="black"/>
<path d="M32.9958 18.8922C35.1891 18.8857 37.3668 19.2616 39.431 20.0031L37.098 25.2385L37.0674 25.3107C34.4198 24.459 31.5717 24.459 28.9241 25.3107L28.8936 25.2385L26.5605 20.0031C28.6246 19.2611 30.8024 18.8852 32.9958 18.8922Z" fill="#1A1A1A"/>
<g opacity="0.5">
<g opacity="0.7">
<path d="M49.9371 31.0181L45.2628 32.5318C45.2377 32.5396 45.2136 32.5498 45.1905 32.5623C45.1267 32.4207 45.0628 32.2846 44.9933 32.143L48.4651 31.0181C48.5634 30.9863 48.654 30.9344 48.7311 30.8655C48.8082 30.7967 48.87 30.7125 48.9126 30.6183C48.9553 30.5242 48.9777 30.4222 48.9786 30.3188C48.9795 30.2155 48.9588 30.1131 48.9178 30.0182C47.3781 26.6757 44.9026 23.851 41.791 21.886C41.8384 21.8006 41.9023 21.7255 41.9791 21.6652C42.0558 21.6048 42.1439 21.5604 42.2381 21.5345C42.3322 21.5086 42.4306 21.5018 42.5275 21.5145C42.6243 21.5272 42.7176 21.5591 42.802 21.6083C46.1232 23.5818 48.7657 26.5188 50.3787 30.0294C50.419 30.1228 50.4394 30.2236 50.4387 30.3254C50.438 30.4271 50.4162 30.5277 50.3747 30.6206C50.3332 30.7135 50.2729 30.7968 50.1976 30.8652C50.1223 30.9336 50.0336 30.9857 49.9371 31.0181Z" fill="black"/>
</g>
<g opacity="0.7">
<path d="M52.1593 38.045C52.1594 41.1512 51.3964 44.2099 49.9374 46.9521C49.8898 47.0384 49.8253 47.1142 49.7479 47.1751C49.6704 47.236 49.5815 47.2807 49.4865 47.3066C49.3914 47.3325 49.2921 47.3391 49.1945 47.3259C49.0969 47.3127 49.0029 47.28 48.9181 47.2298L48.457 46.9521V46.9354C49.9071 44.1908 50.6623 41.1325 50.6567 38.0284C50.6559 36.778 50.534 35.5307 50.2929 34.3039C50.2695 34.1836 50.2149 34.0715 50.1346 33.9789L50.8123 33.7595C50.9111 33.7268 51.0157 33.7155 51.1193 33.7264C51.2228 33.7373 51.3228 33.7701 51.4127 33.8227C51.5025 33.8752 51.5802 33.9463 51.6404 34.0312C51.7007 34.1161 51.7422 34.2128 51.7621 34.315C52.0162 35.5423 52.1492 36.7917 52.1593 38.045Z" fill="#1A1A1A"/>
</g>
<path d="M20.7997 45.0857L17.0725 47.2354C16.9879 47.2839 16.8946 47.3152 16.798 47.3275C16.7013 47.3398 16.6031 47.3328 16.5092 47.307C16.4152 47.2812 16.3273 47.237 16.2504 47.1771C16.1736 47.1171 16.1094 47.0426 16.0615 46.9577L19.3277 45.0746C19.4921 44.977 19.6127 44.8199 19.6644 44.6358C19.7161 44.4517 19.695 44.2548 19.6054 44.0859C18.6525 42.2109 18.1566 40.1371 18.1584 38.0339C18.1548 37.1176 18.2479 36.2034 18.4362 35.3065L18.3556 35.2843L14.3867 33.9956C14.483 33.8852 14.6097 33.8055 14.7509 33.7665C14.8921 33.7275 15.0417 33.7308 15.1811 33.7762L19.8499 35.2954C19.8762 35.3045 19.9031 35.3119 19.9304 35.3176C19.7421 36.2145 19.649 37.1287 19.6527 38.045C19.6427 40.1493 20.1309 42.226 21.0775 44.1053C21.1645 44.2734 21.1843 44.4684 21.1327 44.6505C21.0811 44.8326 20.962 44.9883 20.7997 45.0857Z" fill="#1A1A1A"/>
<g opacity="0.7">
<path d="M26.2713 26.4965C23.863 27.8993 21.9538 30.0203 20.811 32.5623C20.7877 32.5503 20.7636 32.5401 20.7387 32.5318L19.5361 32.1429C20.6968 29.784 22.5276 27.8199 24.7993 26.4965C24.7993 26.4771 24.7771 26.4465 24.7632 26.4243L22.769 21.9471C22.7607 21.9254 22.7495 21.9048 22.7357 21.886C22.8884 21.7888 23.044 21.6944 23.1995 21.6083C23.2892 21.5572 23.3886 21.5255 23.4913 21.5153C23.594 21.5051 23.6976 21.5166 23.7956 21.5491C23.8935 21.5816 23.9836 21.6343 24.0598 21.7038C24.1361 21.7734 24.1969 21.8581 24.2383 21.9527L26.2352 26.4298C26.2491 26.4465 26.2574 26.4771 26.2713 26.4965Z" fill="#1A1A1A"/>
</g>
<g opacity="0.7">
<path d="M39.4306 20.0114L37.0976 25.2468C37.0976 25.269 37.0754 25.2996 37.0698 25.319C36.6365 25.1793 36.1962 25.0625 35.7506 24.9691L37.9725 20.0114C36.1411 19.3469 34.2174 18.9721 32.2705 18.9005C32.5149 18.9005 32.7593 18.8838 33.0065 18.8838C35.1971 18.8837 37.371 19.2653 39.4306 20.0114Z" fill="#1A1A1A"/>
</g>
</g>
<g opacity="0.5">
<path d="M41.7774 31.5376L35.07 37.6256C35.0554 38.0645 34.9021 38.4875 34.6321 38.8339C34.3621 39.1802 33.9893 39.4321 33.5673 39.5534C33.1452 39.6746 32.6955 39.659 32.2829 39.5088C31.8702 39.3585 31.5158 39.0814 31.2705 38.7172C31.5779 38.9257 31.9357 39.0479 32.3065 39.0709C32.6772 39.094 33.0474 39.0171 33.3783 38.8482C33.7091 38.6794 33.9886 38.4248 34.1875 38.111C34.3864 37.7973 34.4974 37.4359 34.5089 37.0646L39.1333 32.8652L41.7774 31.5376Z" fill="black"/>
</g>
<g opacity="0.7">
<path d="M41.7772 45.7022C41.7772 46.1353 41.6051 46.5507 41.2989 46.857C40.9926 47.1633 40.5772 47.3353 40.1441 47.3353H25.8489C25.6343 47.3355 25.4219 47.2934 25.2236 47.2114C25.0254 47.1294 24.8452 47.0092 24.6935 46.8576C24.5306 46.693 24.4039 46.4962 24.3213 46.2799C24.5061 46.3528 24.7031 46.3896 24.9018 46.3882H39.1942C39.6276 46.3875 40.043 46.2148 40.3492 45.9081C40.6554 45.6014 40.8273 45.1857 40.8273 44.7523C40.827 44.5541 40.7912 44.3575 40.7218 44.1719C41.032 44.29 41.299 44.4996 41.4875 44.7729C41.676 45.0462 41.777 45.3703 41.7772 45.7022Z" fill="#1A1A1A"/>
</g>
</svg>
