<svg width="428" height="517" viewBox="0 0 428 517" fill="none" xmlns="http://www.w3.org/2000/svg">
<path opacity="0.31" fill-rule="evenodd" clip-rule="evenodd" d="M207.815 347.745C208.699 347.258 209.79 347.258 210.675 347.745C217.886 351.715 250.284 369.548 259.583 374.667C260.099 374.951 260.417 375.476 260.417 376.044C260.417 376.613 260.099 377.138 259.583 377.422C250.284 382.54 217.886 400.374 210.675 404.343C209.79 404.83 208.699 404.83 207.815 404.343C200.603 400.374 168.205 382.54 158.906 377.422C158.39 377.138 158.072 376.613 158.072 376.044C158.072 375.476 158.39 374.951 158.906 374.667C168.205 369.548 200.603 351.715 207.815 347.745Z" fill="black"/>
<path fill-rule="evenodd" clip-rule="evenodd" d="M199.845 267.004V263.828L260.354 298.227V366.422C260.354 369.582 258.036 372.468 255.296 374.05L223.926 392.163C223.91 392.173 223.893 392.182 223.877 392.191L221.176 393.751C217.137 396.08 212.166 396.08 208.127 393.751L159.794 366.053C158.723 365.434 158.166 364.371 158.124 363.289H158.121V360.307H159.706C159.735 360.289 159.765 360.272 159.794 360.254L162.519 358.682C162.527 358.677 162.536 358.672 162.545 358.667L192.706 341.254C195.421 339.667 197.094 336.756 197.094 333.61V265.416L199.845 267.004Z" fill="url(#paint0_linear_2243_26237)"/>
<path fill-rule="evenodd" clip-rule="evenodd" d="M199.845 265.536V262.361L259.725 296.722V364.917C259.725 368.077 258.036 371 255.296 372.582L223.926 390.695C223.91 390.705 223.893 390.715 223.877 390.724L221.176 392.283C217.137 394.612 212.166 394.612 208.127 392.283L159.794 364.586C158.723 363.967 158.166 362.903 158.124 361.822H158.121V358.839H159.706C159.735 358.822 159.765 358.804 159.794 358.787L162.519 357.214C162.527 357.21 162.536 357.204 162.545 357.199L192.706 339.787C195.421 338.2 197.094 335.289 197.094 332.143V263.948L199.845 265.536Z" fill="url(#paint1_linear_2243_26237)"/>
<path fill-rule="evenodd" clip-rule="evenodd" d="M197.087 329.24V261.046L256.967 295.408V363.602C256.967 366.763 255.278 369.685 252.538 371.267L221.168 389.381C217.13 391.71 212.159 391.71 208.12 389.381L159.787 361.683C157.555 360.394 157.555 357.174 159.787 355.885L192.662 336.905C195.399 335.323 197.087 332.4 197.087 329.24Z" fill="url(#paint2_linear_2243_26237)"/>
<path fill-rule="evenodd" clip-rule="evenodd" d="M374.188 399.279C376.501 398.203 377.99 395.307 377.99 391.091V221.931C377.99 214.662 373.563 206.205 368.111 203.057L110.357 54.2425C107.88 52.8124 105.615 52.7227 103.88 53.732L92.707 60.1866L100.479 64.2657V230.871C100.479 238.14 104.905 246.597 110.357 249.745L366.412 397.579L364.669 399.402L363.693 405.459L374.188 399.279Z" fill="url(#paint3_linear_2243_26237)"/>
<path fill-rule="evenodd" clip-rule="evenodd" d="M370.481 401.467C372.795 400.391 374.283 397.495 374.283 393.28V224.119C374.283 216.85 369.857 208.393 364.405 205.245L106.651 56.4305C104.174 55.0004 101.908 54.9107 100.174 55.92L92.3164 60.459L96.7724 66.4537V233.059C96.7724 240.328 101.198 248.785 106.651 251.933L362.706 399.767L360.963 401.59L363.693 405.46L370.481 401.467Z" fill="url(#paint4_linear_2243_26237)"/>
<path fill-rule="evenodd" clip-rule="evenodd" d="M367.601 403.264C369.914 402.189 371.403 399.293 371.403 395.077V225.917C371.403 218.648 366.976 210.19 361.524 207.042L103.77 58.2278C101.293 56.7978 99.0278 56.7081 97.2935 57.7174L92.707 60.185L93.8918 68.2511V234.856C93.8918 242.126 98.3177 250.583 103.77 253.731L359.825 401.564L358.082 403.387L363.693 405.458L367.601 403.264Z" fill="url(#paint5_linear_2243_26237)"/>
<path fill-rule="evenodd" clip-rule="evenodd" d="M89.4414 68.081C89.4414 60.8115 93.8678 57.4653 99.32 60.6131L357.074 209.428C362.526 212.575 366.952 221.033 366.952 228.302V397.463C366.952 404.732 362.526 408.078 357.074 404.93L99.32 256.116C93.8678 252.968 89.4414 244.511 89.4414 237.242V68.081Z" fill="#041D30"/>
<path fill-rule="evenodd" clip-rule="evenodd" d="M92.707 71.183C92.707 65.3825 96.2391 62.7121 100.59 65.224L355.811 212.576C360.161 215.088 363.693 221.836 363.693 227.637V394.362C363.693 400.163 360.161 402.833 355.811 400.321L100.59 252.969C96.2389 250.457 92.707 243.709 92.707 237.908V71.183Z" fill="url(#paint6_linear_2243_26237)"/>
<path opacity="0.2" fill-rule="evenodd" clip-rule="evenodd" d="M354.292 222.372V388.764L102.117 243.171V76.7783L354.292 222.372Z" fill="#21B9E8"/>
<path opacity="0.3" fill-rule="evenodd" clip-rule="evenodd" d="M354.292 222.372V239.011L102.117 93.4175V76.7783L354.292 222.372Z" fill="#21B9E8"/>
<path opacity="0.3" fill-rule="evenodd" clip-rule="evenodd" d="M291.443 215.357V225.466C291.443 227.845 289.996 228.937 288.213 227.91L168.183 158.61C166.4 157.579 164.953 154.814 164.953 152.44V142.326C164.953 139.952 166.4 138.855 168.183 139.886L288.213 209.182C289.996 210.214 291.443 212.978 291.443 215.357Z" fill="#21B9E8"/>
<path opacity="0.4" fill-rule="evenodd" clip-rule="evenodd" d="M270.951 205.784V211.366C270.951 212.678 270.152 213.285 269.168 212.713L171.01 156.044C170.026 155.477 169.227 153.947 169.227 152.639V147.058C169.227 145.745 170.026 145.138 171.01 145.71L269.169 202.379C270.153 202.946 270.951 204.476 270.951 205.784Z" fill="#B0FBFF"/>
<path opacity="0.7" fill-rule="evenodd" clip-rule="evenodd" d="M287.157 223.893L283.127 216.913C283.617 216.315 283.903 215.433 283.903 214.308C283.903 211.184 281.707 207.38 279.002 205.82C276.297 204.26 274.102 205.525 274.102 208.649C274.102 211.774 276.297 215.578 279.002 217.138C280.007 217.717 280.94 217.906 281.718 217.756L285.734 224.712L287.157 223.893ZM279.003 215.448C277.105 214.352 275.564 211.687 275.564 209.494C275.564 207.302 277.105 206.413 279.003 207.51C280.9 208.606 282.441 211.271 282.441 213.463C282.441 215.656 280.9 216.544 279.003 215.448Z" fill="#B0FBFF"/>
<path opacity="0.4" fill-rule="evenodd" clip-rule="evenodd" d="M343.478 220.292C345.466 221.44 347.08 224.235 347.08 226.531C347.08 228.828 345.466 229.76 343.478 228.611C341.489 227.463 339.875 224.668 339.875 222.372C339.875 220.075 341.489 219.143 343.478 220.292Z" fill="#B0FBFF"/>
<path opacity="0.7" fill-rule="evenodd" clip-rule="evenodd" d="M332.674 214.054C334.663 215.202 336.277 217.997 336.277 220.293C336.277 222.59 334.663 223.521 332.674 222.373C330.687 221.225 329.072 218.43 329.072 216.133C329.072 213.837 330.686 212.905 332.674 214.054Z" fill="#B0FBFF"/>
<path opacity="0.7" fill-rule="evenodd" clip-rule="evenodd" d="M321.872 207.813C323.86 208.962 325.475 211.756 325.475 214.053C325.475 216.349 323.86 217.281 321.872 216.133C319.884 214.985 318.27 212.19 318.27 209.893C318.27 207.596 319.884 206.665 321.872 207.813Z" fill="#B0FBFF"/>
<path opacity="0.2" fill-rule="evenodd" clip-rule="evenodd" d="M195.774 199.158V270.542C195.774 276.097 192.391 278.654 188.224 276.249L124.07 239.21C119.902 236.805 116.52 230.34 116.52 224.785V153.4C116.52 147.845 119.903 145.289 124.07 147.693L188.224 184.733C192.391 187.138 195.774 193.603 195.774 199.158Z" fill="#21B9E8"/>
<path opacity="0.2" fill-rule="evenodd" clip-rule="evenodd" d="M339.875 276.784V292.756C339.875 295.235 338.366 296.379 336.506 295.304L206.35 220.159C204.49 219.084 202.98 216.199 202.98 213.72V197.748C202.98 195.27 204.49 194.125 206.35 195.2L336.506 270.345C338.366 271.42 339.875 274.306 339.875 276.784Z" fill="#21B9E8"/>
<path fill-rule="evenodd" clip-rule="evenodd" d="M234.23 217.531V221.691L210.193 207.812V203.652L234.23 217.531Z" fill="#949494"/>
<path opacity="0.7" fill-rule="evenodd" clip-rule="evenodd" d="M234.23 217.531V221.691L210.193 207.812V203.652L234.23 217.531Z" fill="#B0FBFF"/>
<path opacity="0.4" fill-rule="evenodd" clip-rule="evenodd" d="M224.87 220.448V224.608L210.193 216.132V211.972L224.87 220.448Z" fill="#B0FBFF"/>
<path fill-rule="evenodd" clip-rule="evenodd" d="M243.685 231.31V235.47L229.008 226.995V222.835L243.685 231.31Z" fill="#949494"/>
<path opacity="0.7" fill-rule="evenodd" clip-rule="evenodd" d="M243.685 231.31V235.47L229.008 226.995V222.835L243.685 231.31Z" fill="#B0FBFF"/>
<path opacity="0.4" fill-rule="evenodd" clip-rule="evenodd" d="M250.941 227.181V231.341L237.305 223.467V219.308L250.941 227.181Z" fill="#B0FBFF"/>
<path opacity="0.4" fill-rule="evenodd" clip-rule="evenodd" d="M285.094 246.903V251.063L255.857 234.181V230.021L285.094 246.903Z" fill="#B0FBFF"/>
<path opacity="0.2" fill-rule="evenodd" clip-rule="evenodd" d="M339.876 311.391V357.981C339.876 361.196 337.918 362.674 335.508 361.283L207.348 287.29C204.938 285.899 202.98 282.16 202.98 278.945V232.355C202.98 229.139 204.938 227.662 207.348 229.053L335.508 303.045C337.918 304.436 339.876 308.176 339.876 311.391Z" fill="#21B9E8"/>
<path fill-rule="evenodd" clip-rule="evenodd" d="M224.87 245.407V249.567L210.193 241.091V236.931L224.87 245.407Z" fill="#949494"/>
<path opacity="0.7" fill-rule="evenodd" clip-rule="evenodd" d="M224.87 245.407V249.567L210.193 241.091V236.931L224.87 245.407Z" fill="#B0FBFF"/>
<path opacity="0.4" fill-rule="evenodd" clip-rule="evenodd" d="M224.731 253.65V257.81L210.055 249.334V245.174L224.731 253.65Z" fill="#B0FBFF"/>
<path fill-rule="evenodd" clip-rule="evenodd" d="M239.416 262.124V266.283L227.859 259.61V255.451L239.416 262.124Z" fill="#949494"/>
<path opacity="0.7" fill-rule="evenodd" clip-rule="evenodd" d="M239.416 262.124V266.283L227.859 259.61V255.451L239.416 262.124Z" fill="#B0FBFF"/>
<path opacity="0.4" fill-rule="evenodd" clip-rule="evenodd" d="M221.75 268.563V272.723L210.193 266.05V261.89L221.75 268.563Z" fill="#B0FBFF"/>
<path fill-rule="evenodd" clip-rule="evenodd" d="M231.808 282.69V286.85L210.193 274.371V270.211L231.808 282.69Z" fill="#949494"/>
<path opacity="0.7" fill-rule="evenodd" clip-rule="evenodd" d="M231.808 282.69V286.85L210.193 274.371V270.211L231.808 282.69Z" fill="#B0FBFF"/>
<path opacity="0.4" fill-rule="evenodd" clip-rule="evenodd" d="M250.71 293.609V297.769L236.375 289.493V285.333L250.71 293.609Z" fill="#B0FBFF"/>
<path opacity="0.4" fill-rule="evenodd" clip-rule="evenodd" d="M239.013 295.17V299.33L210.193 282.691V278.531L239.013 295.17Z" fill="#B0FBFF"/>
<path fill-rule="evenodd" clip-rule="evenodd" d="M258.922 306.665V310.825L243.621 301.99V297.83L258.922 306.665Z" fill="#949494"/>
<path opacity="0.7" fill-rule="evenodd" clip-rule="evenodd" d="M258.922 306.665V310.825L243.621 301.99V297.83L258.922 306.665Z" fill="#B0FBFF"/>
<path opacity="0.4" fill-rule="evenodd" clip-rule="evenodd" d="M273.514 281.813V285.972L243.238 268.493V264.333L273.514 281.813Z" fill="#B0FBFF"/>
<path fill-rule="evenodd" clip-rule="evenodd" d="M232.15 266.249V270.409L210.193 257.73V253.57L232.15 266.249Z" fill="#949494"/>
<path opacity="0.7" fill-rule="evenodd" clip-rule="evenodd" d="M232.15 266.249V270.409L210.193 257.73V253.57L232.15 266.249Z" fill="#B0FBFF"/>
<path opacity="0.4" fill-rule="evenodd" clip-rule="evenodd" d="M250.176 276.653V280.813L236.539 272.94V268.78L250.176 276.653Z" fill="#B0FBFF"/>
<path opacity="0.4" fill-rule="evenodd" clip-rule="evenodd" d="M268.428 287.192V291.352L254.791 283.478V279.319L268.428 287.192Z" fill="#B0FBFF"/>
<path fill-rule="evenodd" clip-rule="evenodd" d="M297.69 304.091V308.25L272.613 293.773V289.614L297.69 304.091Z" fill="#949494"/>
<path opacity="0.7" fill-rule="evenodd" clip-rule="evenodd" d="M297.69 304.091V308.25L272.613 293.773V289.614L297.69 304.091Z" fill="#B0FBFF"/>
<path d="M198.377 126.353C197.564 126.353 196.726 126.107 195.888 125.623L179.805 116.339C176.854 114.635 174.543 110.269 174.543 106.401V89.4747C174.543 85.7735 176.604 84.1167 178.647 84.1167C179.461 84.1167 180.298 84.3622 181.137 84.8464L197.219 94.1305C200.17 95.8347 202.481 100.2 202.481 104.068V120.994C202.481 124.696 200.42 126.353 198.377 126.353ZM178.647 84.6495C176.869 84.6495 175.076 86.1415 175.076 89.4749V106.401C175.076 110.097 177.27 114.26 180.071 115.878L196.154 125.162C196.91 125.598 197.658 125.82 198.377 125.82C200.155 125.82 201.949 124.328 201.949 120.995V104.068C201.949 100.372 199.754 96.2097 196.953 94.5919L180.87 85.3078C180.114 84.871 179.366 84.6495 178.647 84.6495Z" fill="#21B9E8"/>
<path d="M192.053 130.003C191.239 130.003 190.402 129.757 189.564 129.273L173.481 119.989C170.53 118.285 168.219 113.92 168.219 110.052V93.1253C168.219 89.4241 170.28 87.7671 172.323 87.7671C173.137 87.7671 173.974 88.0126 174.813 88.4968L190.895 97.7811C193.846 99.4853 196.157 103.85 196.157 107.718V124.645C196.157 128.346 194.096 130.003 192.053 130.003ZM172.323 88.2997C170.545 88.2997 168.751 89.7916 168.751 93.1253V110.052C168.751 113.748 170.946 117.91 173.747 119.528L189.83 128.812C190.586 129.249 191.334 129.47 192.053 129.47C193.831 129.47 195.625 127.978 195.625 124.645V107.718C195.625 104.022 193.43 99.8601 190.629 98.2422L174.546 88.9579C173.79 88.5212 173.042 88.2997 172.323 88.2997Z" fill="#21B9E8"/>
<path d="M185.74 133.651C184.927 133.651 184.089 133.405 183.251 132.921L167.168 123.637C164.218 121.933 161.906 117.568 161.906 113.7V96.7732C161.906 93.072 163.968 91.415 166.011 91.415C166.824 91.415 167.662 91.6605 168.5 92.1447L184.583 101.429C187.533 103.133 189.845 107.498 189.845 111.366V128.293C189.845 131.994 187.783 133.651 185.74 133.651ZM166.011 91.9476C164.233 91.9476 162.439 93.4396 162.439 96.7732V113.7C162.439 117.396 164.633 121.558 167.435 123.176L183.517 132.46C184.274 132.897 185.021 133.119 185.74 133.119C187.518 133.119 189.312 131.627 189.312 128.293V111.366C189.312 107.67 187.118 103.508 184.316 101.89L168.234 92.6059C167.477 92.1692 166.73 91.9476 166.011 91.9476Z" fill="#21B9E8"/>
<path opacity="0.3" fill-rule="evenodd" clip-rule="evenodd" d="M201.16 104.069V120.995C201.16 124.38 199.101 125.936 196.564 124.471L180.481 115.187C177.944 113.722 175.885 109.786 175.885 106.402V89.4758C175.885 86.0915 177.945 84.5353 180.481 86.0004L196.564 95.2845C199.101 96.7493 201.16 100.685 201.16 104.069Z" fill="#21B9E8"/>
<path opacity="0.3" fill-rule="evenodd" clip-rule="evenodd" d="M194.834 107.716V124.643C194.834 128.027 192.774 129.583 190.238 128.118L174.155 118.834C171.618 117.369 169.559 113.434 169.559 110.05V93.123C169.559 89.7387 171.618 88.1826 174.155 89.6476L190.238 98.9317C192.775 100.397 194.834 104.332 194.834 107.716Z" fill="#21B9E8"/>
<path opacity="0.3" fill-rule="evenodd" clip-rule="evenodd" d="M188.516 111.365V128.292C188.516 131.676 186.456 133.232 183.92 131.767L167.837 122.483C165.3 121.018 163.24 117.083 163.24 113.699V96.7724C163.24 93.3881 165.3 91.832 167.837 93.297L183.92 102.581C186.456 104.046 188.516 107.981 188.516 111.365Z" fill="#21B9E8"/>
<path d="M124.125 323.212C123.142 323.212 122.124 322.912 121.099 322.32L9.77896 258.049C6.0685 255.906 3.16211 250.406 3.16211 245.528V173.835C3.16211 169.922 5.14032 167.293 8.08468 167.293C9.0678 167.293 10.0857 167.593 11.1104 168.185L122.431 232.455C126.14 234.597 129.046 240.098 129.046 244.977V316.669C129.046 320.583 127.068 323.212 124.125 323.212ZM8.0849 167.825C5.45905 167.825 3.69492 170.241 3.69492 173.835V245.527C3.69492 250.233 6.48444 255.531 10.0455 257.588L121.366 321.859C122.308 322.403 123.237 322.679 124.125 322.679C126.75 322.679 128.513 320.264 128.513 316.669V244.977C128.513 240.27 125.725 234.972 122.165 232.917L10.8444 168.646C9.90171 168.101 8.9733 167.825 8.0849 167.825Z" fill="#21B9E8"/>
<path opacity="0.3" fill-rule="evenodd" clip-rule="evenodd" d="M127.709 244.977V316.669C127.709 321.047 125.043 323.063 121.76 321.167L10.4396 256.896C7.15618 255 4.48828 249.905 4.48828 245.528V173.835C4.48828 169.457 7.15618 167.441 10.4396 169.337L121.76 233.608C125.043 235.504 127.709 240.599 127.709 244.977Z" fill="#21B9E8"/>
<path opacity="0.4" fill-rule="evenodd" clip-rule="evenodd" d="M23.4507 213.329V253.46L13.9727 247.988V207.857L23.4507 213.329Z" fill="#B0FBFF"/>
<path opacity="0.7" fill-rule="evenodd" clip-rule="evenodd" d="M39.2456 200.56V262.581L29.7676 257.108V195.087L39.2456 200.56Z" fill="#B0FBFF"/>
<path opacity="0.4" fill-rule="evenodd" clip-rule="evenodd" d="M55.0404 253.46V271.701L45.5605 266.229V247.987L55.0404 253.46Z" fill="#B0FBFF"/>
<path opacity="0.7" fill-rule="evenodd" clip-rule="evenodd" d="M70.8411 233.393V280.821L61.3633 275.349V227.921L70.8411 233.393Z" fill="#B0FBFF"/>
<path opacity="0.4" fill-rule="evenodd" clip-rule="evenodd" d="M86.6343 257.109V289.944L77.1562 284.471V251.636L86.6343 257.109Z" fill="#B0FBFF"/>
<path opacity="0.7" fill-rule="evenodd" clip-rule="evenodd" d="M102.437 237.043V299.064L92.959 293.591V231.57L102.437 237.043Z" fill="#B0FBFF"/>
<path opacity="0.4" fill-rule="evenodd" clip-rule="evenodd" d="M118.24 257.109V308.185L108.762 302.712V251.636L118.24 257.109Z" fill="#B0FBFF"/>
<path d="M136.437 128.557C135.454 128.557 134.436 128.256 133.411 127.665L69.484 90.7563C65.7736 88.6149 62.8672 83.1148 62.8672 78.2349V6.54226C62.8672 2.62902 64.8452 0 67.7891 0C68.7722 0 69.7903 0.299975 70.8155 0.891561L134.743 37.8002C138.453 39.9421 141.359 45.4422 141.359 50.3219V122.014C141.359 125.928 139.381 128.557 136.437 128.557ZM67.7889 0.532583C65.1634 0.532583 63.3995 2.94776 63.3995 6.54226V78.2349C63.3995 82.9425 66.1891 88.2401 69.7501 90.2949L133.677 127.204C134.62 127.748 135.549 128.024 136.437 128.024C139.063 128.024 140.827 125.609 140.827 122.014V50.3219C140.827 45.6145 138.037 40.3171 134.476 38.2616L70.549 1.35294C69.6061 0.808373 68.6775 0.532583 67.7889 0.532583Z" fill="#21B9E8"/>
<path opacity="0.3" fill-rule="evenodd" clip-rule="evenodd" d="M140.023 50.3213V122.014C140.023 126.392 137.357 128.408 134.071 126.512L70.1447 89.6033C66.8592 87.7069 64.1934 82.6125 64.1934 78.2348V6.54188C64.1934 2.16387 66.8592 0.147915 70.1447 2.04429L134.071 38.9527C137.357 40.8491 140.023 45.9435 140.023 50.3213Z" fill="#21B9E8"/>
<path opacity="0.7" fill-rule="evenodd" clip-rule="evenodd" d="M95.7936 75.2248V78.873L73.6777 66.1041V62.4558L95.7936 75.2248Z" fill="#B0FBFF"/>
<path opacity="0.4" fill-rule="evenodd" clip-rule="evenodd" d="M108.435 82.5192V86.1675L98.957 80.6952V77.0469L108.435 82.5192Z" fill="#B0FBFF"/>
<path opacity="0.7" fill-rule="evenodd" clip-rule="evenodd" d="M83.1558 75.2226V78.8709L73.6777 73.3985V69.7502L83.1558 75.2226Z" fill="#B0FBFF"/>
<path opacity="0.4" fill-rule="evenodd" clip-rule="evenodd" d="M127.39 100.762V104.41L117.91 98.9379V95.2896L127.39 100.762Z" fill="#B0FBFF"/>
<path opacity="0.4" fill-rule="evenodd" clip-rule="evenodd" d="M86.3158 84.3432V87.9918L73.6777 80.6952V77.0469L86.3158 84.3432Z" fill="#B0FBFF"/>
<path opacity="0.7" fill-rule="evenodd" clip-rule="evenodd" d="M98.9507 91.641V95.2893L92.6309 91.641V87.9929L98.9507 91.641Z" fill="#B0FBFF"/>
<path opacity="0.7" fill-rule="evenodd" clip-rule="evenodd" d="M111.591 91.6415V95.2898L89.4727 82.5209V78.8726L111.591 91.6415Z" fill="#B0FBFF"/>
<path opacity="0.7" fill-rule="evenodd" clip-rule="evenodd" d="M91.0564 41.1107C92.9736 42.2186 94.5318 44.9147 94.5318 47.1303C94.5318 49.3459 92.9736 50.2446 91.0564 49.1368C89.1372 48.0289 87.5811 45.3327 87.5811 43.1171C87.5811 40.9016 89.1372 40.0028 91.0564 41.1107ZM92.736 26.1223L93.2908 29.5541C94.3605 30.3615 95.4114 31.2927 96.4223 32.3302L98.2484 31.0096C99.2706 32.1365 100.245 33.3507 101.16 34.6313L100.291 37.1452C101.137 38.4163 101.906 39.7464 102.583 41.1145L105.193 41.62C105.847 43.0527 106.41 44.5024 106.875 45.9523L104.817 46.8739C105.211 48.2667 105.494 49.6424 105.657 50.9746L108.351 53.1694C108.46 54.5223 108.46 55.8219 108.351 57.0514L105.657 56.1336C105.494 57.2756 105.211 58.3263 104.817 59.2651L106.875 62.5619C106.41 63.4741 105.847 64.2759 105.193 64.9543L102.583 62.4442C101.906 63.0294 101.137 63.472 100.291 63.7666L101.16 67.2838C100.246 67.5098 99.2708 67.5973 98.2484 67.5422L96.4223 64.1124C95.4114 63.9852 94.3607 63.7019 93.2908 63.2745L92.736 66.0658C91.6186 65.547 90.4938 64.8953 89.3746 64.1258L88.8217 60.694C87.7499 59.8866 86.701 58.9555 85.6901 57.9179L83.864 59.2385C82.8418 58.1116 81.8671 56.8974 80.9529 55.6168L81.8194 53.1029C80.9739 51.8318 80.2062 50.5017 79.5279 49.1334L76.9172 48.6279C76.2654 47.1952 75.701 45.7455 75.2373 44.2956L77.2933 43.3739C76.9 41.9812 76.6188 40.6054 76.4553 39.2733L73.7589 37.0785C73.6507 35.7256 73.6507 34.426 73.7589 33.1965L76.4553 34.1143C76.6188 32.9722 76.9 31.9215 77.2933 30.9827L75.2373 27.6859C75.701 26.7738 76.2654 25.972 76.9172 25.2936L79.5279 27.8037C80.2062 27.2185 80.9739 26.7756 81.8194 26.4813L80.9529 22.9641C81.8669 22.7381 82.8416 22.6506 83.864 22.7057L85.6901 26.1354C86.701 26.2627 87.7499 26.5459 88.8217 26.9734L89.3746 24.1821C90.4938 24.7009 91.6189 25.3526 92.736 26.1223Z" fill="#B0FBFF"/>
<path opacity="0.4" fill-rule="evenodd" clip-rule="evenodd" d="M119.492 64.4614C120.712 65.1663 121.704 66.8822 121.704 68.2922C121.704 69.7021 120.712 70.274 119.492 69.5691C118.27 68.8643 117.281 67.1483 117.281 65.7384C117.281 64.3285 118.27 63.7566 119.492 64.4614ZM120.562 54.9228L120.914 57.1081C121.596 57.6212 122.263 58.2139 122.907 58.8752L124.068 58.0333C124.72 58.7515 125.339 59.523 125.921 60.3382L125.37 61.9382C125.907 62.7457 126.396 63.5931 126.827 64.4655L128.49 64.7867C128.904 65.6968 129.263 66.6205 129.559 67.5419L128.25 68.1289C128.499 69.0164 128.679 69.8904 128.784 70.7378L130.498 72.1344C130.566 72.997 130.566 73.8237 130.498 74.6045L128.784 74.0211C128.679 74.749 128.499 75.4158 128.25 76.0144L129.559 78.1122C129.263 78.6936 128.904 79.2029 128.49 79.6342L126.827 78.0362C126.396 78.4086 125.907 78.6918 125.37 78.8799L125.921 81.1165C125.339 81.2609 124.72 81.3161 124.068 81.2817L122.907 79.0985C122.263 79.0167 121.596 78.8381 120.914 78.5645L120.562 80.3411C119.849 80.0104 119.133 79.5981 118.422 79.108L118.069 76.9227C117.389 76.4096 116.72 75.8168 116.078 75.1556L114.915 75.9975C114.265 75.2793 113.644 74.5078 113.062 73.6926L113.615 72.0926C113.077 71.2851 112.587 70.4376 112.156 69.5653L110.495 69.2441C110.079 68.334 109.722 67.4103 109.425 66.4889L110.735 65.9018C110.484 65.0144 110.305 64.1404 110.201 63.2929L108.485 61.8964C108.417 61.0338 108.417 60.2071 108.485 59.4263L110.201 60.0097C110.305 59.2821 110.484 58.615 110.735 58.0164L109.425 55.9186C109.722 55.3372 110.079 54.8279 110.495 54.3966L112.156 55.9945C112.587 55.6222 113.077 55.339 113.615 55.1509L113.062 52.9143C113.644 52.7699 114.265 52.7149 114.915 52.7491L116.078 54.9323C116.72 55.0139 117.389 55.1927 118.069 55.4662L118.422 53.6897C119.133 54.0202 119.849 54.4325 120.562 54.9228Z" fill="#B0FBFF"/>
<path d="M310.416 133.623C309.784 133.623 309.14 133.436 308.502 133.067L191.574 65.5587C189.436 64.3238 187.762 61.1766 187.762 58.3937V48.5433C187.762 45.7197 189.384 44.4558 190.992 44.4558C191.623 44.4558 192.267 44.6428 192.906 45.0114L309.833 112.52C311.971 113.755 313.645 116.902 313.645 119.685V129.535C313.645 132.359 312.023 133.623 310.416 133.623ZM190.991 44.9882C189.649 44.9882 188.294 46.0872 188.294 48.5433V58.3937C188.294 61.0044 189.852 63.949 191.84 65.0976L308.768 132.606C309.324 132.928 309.879 133.091 310.416 133.091C311.758 133.091 313.113 131.992 313.113 129.535V119.685C313.113 117.074 311.555 114.13 309.567 112.981L192.639 45.4728C192.083 45.1512 191.528 44.9882 190.991 44.9882Z" fill="#21B9E8"/>
<path opacity="0.3" fill-rule="evenodd" clip-rule="evenodd" d="M312.323 119.687V129.537C312.323 131.854 310.913 132.92 309.176 131.916L192.248 64.4077C190.511 63.4045 189.102 60.7119 189.102 58.3956V48.5452C189.102 46.229 190.511 45.163 192.248 46.1662L309.176 113.675C310.913 114.678 312.323 117.371 312.323 119.687Z" fill="#21B9E8"/>
<path opacity="0.4" fill-rule="evenodd" clip-rule="evenodd" d="M293.369 110.711V116.621C293.369 118.01 292.523 118.65 291.482 118.048L194.139 61.8491C193.098 61.2467 192.252 59.6297 192.252 58.2409V52.3313C192.252 50.9422 193.097 50.302 194.139 50.9042L291.482 107.103C292.523 107.705 293.369 109.322 293.369 110.711Z" fill="#B0FBFF"/>
<path opacity="0.7" fill-rule="evenodd" clip-rule="evenodd" d="M308.153 128L304.228 121.201C304.706 120.618 304.984 119.759 304.984 118.665C304.984 115.622 302.844 111.917 300.211 110.395C297.575 108.875 295.436 110.11 295.436 113.152C295.436 116.194 297.575 119.9 300.211 121.422C301.188 121.986 302.097 122.17 302.855 122.023L306.768 128.8L308.153 128ZM300.211 119.776C298.362 118.708 296.861 116.109 296.861 113.975C296.861 111.841 298.362 110.975 300.211 112.041C302.059 113.109 303.559 115.708 303.559 117.842C303.559 119.976 302.059 120.842 300.211 119.776Z" fill="#B0FBFF"/>
<path d="M73.5694 175.864C72.5863 175.864 71.5681 175.564 70.5436 174.972L6.61685 138.064C2.90639 135.922 0 130.422 0 125.542V53.8496C0 49.9364 1.97798 47.3074 4.92189 47.3074C5.905 47.3074 6.92316 47.6076 7.94831 48.1989L71.8753 85.1076C75.5858 87.2502 78.4922 92.7503 78.4922 97.629V169.322C78.4919 173.235 76.5137 175.864 73.5694 175.864ZM4.92189 47.84C2.29649 47.84 0.532583 50.2551 0.532583 53.8496V125.542C0.532583 130.25 3.3221 135.547 6.88314 137.602L70.8099 174.511C71.7526 175.056 72.681 175.332 73.5694 175.332C76.1952 175.332 77.9594 172.916 77.9594 169.322V97.629C77.9594 92.9225 75.1698 87.6252 71.6088 85.569L7.6818 48.6603C6.73892 48.1157 5.81029 47.84 4.92189 47.84Z" fill="#21B9E8"/>
<path opacity="0.3" fill-rule="evenodd" clip-rule="evenodd" d="M77.1576 97.6284V169.321C77.1576 173.699 74.4897 175.715 71.2063 173.819L7.27948 136.91C3.99422 135.014 1.32812 129.919 1.32812 125.542V53.849C1.32812 49.471 3.994 47.455 7.27948 49.3514L71.2063 86.2599C74.4897 88.1562 77.1576 93.2506 77.1576 97.6284Z" fill="#21B9E8"/>
<path opacity="0.4" fill-rule="evenodd" clip-rule="evenodd" d="M50.0676 149.31L41.9844 113.164L70.4201 129.581C70.4201 144.121 62.1392 152.149 50.0676 149.31Z" fill="#B0FBFF"/>
<path opacity="0.7" fill-rule="evenodd" clip-rule="evenodd" d="M16.7407 78.5146L39.2366 111.587L47.2096 147.707C44.6197 147.085 41.9348 145.979 39.2366 144.421C23.5434 135.36 10.8027 113.291 10.8027 95.1695C10.8027 87.9014 12.891 82.0431 16.7407 78.5146Z" fill="#B0FBFF"/>
<path opacity="0.4" fill-rule="evenodd" clip-rule="evenodd" d="M50.9629 84.5981L39.5867 108.122L17.1211 75.0213C22.508 70.117 30.8004 70.2138 39.5867 75.2873C43.501 77.5465 47.3754 80.716 50.9629 84.5981Z" fill="#B0FBFF"/>
<path opacity="0.4" fill-rule="evenodd" clip-rule="evenodd" d="M71.5433 127.599L43.1074 111.182L65.8922 104.695C69.5615 112.486 71.5433 120.519 71.5433 127.599Z" fill="#B0FBFF"/>
<path opacity="0.4" fill-rule="evenodd" clip-rule="evenodd" d="M65.2136 102.453L42.4004 108.885L53.558 85.1233C58.1869 90.0768 62.2094 96.0567 65.2136 102.453Z" fill="#B0FBFF"/>
<path d="M157.957 326.198C157.483 326.198 156.991 326.053 156.497 325.768L125.638 307.952C123.848 306.918 122.445 304.263 122.445 301.908V267.302C122.445 265.413 123.4 264.144 124.821 264.144C125.295 264.144 125.787 264.288 126.281 264.574L157.14 282.39C158.93 283.424 160.333 286.079 160.333 288.434V323.04C160.333 324.929 159.378 326.198 157.957 326.198ZM124.821 264.401C123.554 264.401 122.702 265.566 122.702 267.302V301.908C122.702 304.18 124.049 306.737 125.767 307.729L156.626 325.545C157.08 325.808 157.529 325.941 157.957 325.941C159.224 325.941 160.076 324.775 160.076 323.04V288.435C160.076 286.162 158.73 283.605 157.011 282.613L126.153 264.797C125.698 264.534 125.249 264.401 124.821 264.401Z" fill="#21B9E8"/>
<path opacity="0.3" fill-rule="evenodd" clip-rule="evenodd" d="M159.69 288.434V323.039C159.69 325.153 158.403 326.126 156.818 325.211L125.96 307.395C124.375 306.48 123.088 304.021 123.088 301.907V267.301C123.088 265.188 124.375 264.215 125.96 265.13L156.818 282.946C158.403 283.861 159.69 286.32 159.69 288.434Z" fill="#21B9E8"/>
<g opacity="0.4">
<path d="M147.516 314.377C145.377 314.377 143.041 313.68 140.649 312.299C136.763 310.056 133.125 306.224 130.404 301.511C127.682 296.797 126.184 291.731 126.184 287.244C126.184 282.463 127.874 278.854 130.945 277.081C134.015 275.309 137.986 275.649 142.127 278.04C146.012 280.283 149.65 284.114 152.372 288.828C155.093 293.541 156.592 298.608 156.592 303.094C156.592 307.875 154.901 311.484 151.831 313.257C150.534 314.005 149.078 314.377 147.516 314.377ZM135.269 278.92C134.217 278.92 133.257 279.159 132.423 279.641C130.305 280.864 129.139 283.564 129.139 287.244C129.139 295.514 134.965 305.604 142.126 309.738C145.314 311.579 148.235 311.919 150.352 310.697C152.469 309.474 153.635 306.774 153.635 303.094C153.635 294.825 147.809 284.734 140.648 280.6C138.718 279.485 136.884 278.92 135.269 278.92Z" fill="#B0FBFF"/>
</g>
<g opacity="0.7">
<path d="M147.513 314.379C145.375 314.379 143.039 313.682 140.646 312.301C137.865 310.695 135.168 308.236 132.845 305.19C130.541 302.169 128.71 298.707 127.551 295.18C127.296 294.405 127.718 293.57 128.494 293.315C129.269 293.059 130.104 293.482 130.359 294.257C132.501 300.773 137.119 306.851 142.124 309.741C145.311 311.581 148.232 311.921 150.35 310.699C152.467 309.476 153.633 306.776 153.633 303.096C153.633 294.827 147.807 284.737 140.646 280.602C140.176 280.331 139.702 280.088 139.235 279.88C138.489 279.547 138.154 278.674 138.487 277.928C138.819 277.182 139.693 276.847 140.438 277.18C140.999 277.43 141.566 277.72 142.124 278.042C146.009 280.285 149.647 284.117 152.369 288.83C155.09 293.544 156.589 298.61 156.589 303.096C156.589 307.877 154.898 311.486 151.828 313.259C150.532 314.007 149.075 314.379 147.513 314.379Z" fill="#B0FBFF"/>
</g>
<path opacity="0.7" fill-rule="evenodd" clip-rule="evenodd" d="M147.654 296.878V301.038L136.098 294.365V290.205L147.654 296.878Z" fill="#B0FBFF"/>
<path d="M422.437 393.169C421.454 393.169 420.436 392.869 419.412 392.277L308.091 328.007C304.381 325.865 301.475 320.365 301.475 315.485V243.793C301.475 239.879 303.453 237.25 306.396 237.25C307.38 237.25 308.398 237.55 309.423 238.142L420.743 302.413C424.453 304.555 427.358 310.055 427.358 314.935V386.626C427.358 390.539 425.381 393.169 422.437 393.169ZM306.397 237.783C303.771 237.783 302.007 240.198 302.007 243.792V315.484C302.007 320.192 304.797 325.49 308.358 327.545L419.678 391.816C420.621 392.361 421.549 392.636 422.438 392.636C425.063 392.636 426.826 390.221 426.826 386.626V314.934C426.826 310.227 424.037 304.929 420.477 302.874L309.157 238.603C308.214 238.058 307.285 237.783 306.397 237.783Z" fill="#21B9E8"/>
<path opacity="0.3" fill-rule="evenodd" clip-rule="evenodd" d="M426.03 314.936V386.628C426.03 391.006 423.364 393.022 420.08 391.126L308.76 326.855C305.475 324.959 302.809 319.864 302.809 315.486V243.794C302.809 239.416 305.474 237.4 308.76 239.296L420.08 303.567C423.364 305.463 426.03 310.557 426.03 314.936Z" fill="#21B9E8"/>
<g opacity="0.7">
<path d="M416.446 359.989L411.984 354.837C410.829 353.503 409.154 352.716 407.387 352.68L393.628 352.396C390.416 352.329 387.693 349.875 387.295 346.687L382.649 309.471C382.414 307.576 381.344 305.916 379.715 304.917C378.085 303.918 376.12 303.716 374.325 304.365L361.026 309.164C358.299 310.148 355.307 309.246 353.581 306.918C352.052 304.859 350.205 302.37 348.846 300.539C347.672 298.958 345.795 298.014 343.826 298.014H330.339C328.912 298.014 327.516 298.508 326.408 299.404L312.367 310.753C312.31 310.8 312.226 310.791 312.18 310.734C312.134 310.676 312.143 310.593 312.2 310.546L326.24 299.197C327.396 298.262 328.852 297.748 330.339 297.748H343.826C345.879 297.748 347.836 298.732 349.06 300.381C350.418 302.212 352.265 304.7 353.795 306.76C355.45 308.992 358.32 309.858 360.935 308.914L374.234 304.115C376.107 303.439 378.155 303.648 379.854 304.69C381.553 305.732 382.667 307.463 382.913 309.439L387.559 346.654C387.941 349.712 390.553 352.066 393.634 352.13L407.393 352.414C409.234 352.452 410.982 353.272 412.186 354.663L416.647 359.815L416.446 359.989Z" fill="#B0FBFF"/>
</g>
<g opacity="0.7">
<path d="M410.792 340.907C409.914 340.907 409.035 340.753 408.2 340.442C406.283 339.728 404.73 338.235 403.94 336.346L397.386 320.671C396.612 318.819 395.085 317.369 393.197 316.691C391.308 316.014 389.207 316.162 387.434 317.098L383.63 319.106C380.671 320.668 377.011 320.049 374.73 317.602L360.496 302.341C358.176 299.854 354.392 299.344 351.498 301.129L341.576 307.244C339.978 308.229 338.084 308.572 336.242 308.209L312.258 303.482C312.186 303.468 312.139 303.398 312.153 303.326C312.167 303.253 312.238 303.206 312.309 303.221L336.293 307.948C338.069 308.298 339.896 307.968 341.436 307.017L351.359 300.902C354.361 299.051 358.285 299.58 360.69 302.16L374.925 317.421C377.124 319.78 380.653 320.376 383.506 318.87L387.31 316.863C389.149 315.892 391.328 315.738 393.287 316.441C395.245 317.143 396.829 318.648 397.632 320.568L404.186 336.244C404.948 338.064 406.445 339.504 408.294 340.193C410.144 340.882 412.218 340.773 413.985 339.894L416.488 338.649L416.606 338.887L414.104 340.132C413.068 340.647 411.931 340.907 410.792 340.907Z" fill="#B0FBFF"/>
</g>
<g opacity="0.7">
<path d="M416.557 345.442H415.255C412.195 345.442 409.522 343.481 408.603 340.563C406.251 333.091 401.717 318.692 399.222 310.773C398.78 309.373 397.77 308.204 396.448 307.567C395.125 306.93 393.581 306.867 392.212 307.394L383.973 310.564C382.563 311.107 380.968 311.054 379.597 310.417C378.227 309.78 377.158 308.596 376.662 307.168C375.719 304.443 374.529 301.006 373.37 297.662L371.94 293.534C371.339 291.799 369.852 290.471 368.058 290.07C366.235 289.664 364.372 290.221 363.071 291.557C356.753 298.04 347.288 307.755 343.034 312.122C341.637 313.555 339.563 314.137 337.625 313.64L312.26 307.131L312.326 306.873L337.691 313.382C339.538 313.855 341.512 313.302 342.843 311.936C347.098 307.569 356.562 297.855 362.88 291.371C364.246 289.968 366.204 289.385 368.116 289.81C369.999 290.232 371.56 291.625 372.192 293.447L373.621 297.575C374.78 300.919 375.971 304.356 376.914 307.081C377.386 308.441 378.405 309.569 379.709 310.176C381.016 310.782 382.535 310.833 383.877 310.316L392.116 307.145C393.553 306.593 395.175 306.659 396.563 307.327C397.951 307.996 399.012 309.222 399.475 310.693C401.97 318.612 406.504 333.011 408.856 340.482C409.74 343.289 412.311 345.175 415.254 345.175H416.556C416.63 345.175 416.689 345.235 416.689 345.308C416.689 345.382 416.63 345.442 416.557 345.442Z" fill="#B0FBFF"/>
</g>
<g opacity="0.3">
<path d="M416.551 312.486C416.548 312.486 416.546 312.486 416.544 312.485L312.281 252.288C312.274 252.284 312.271 252.276 312.275 252.269C312.279 252.262 312.288 252.26 312.295 252.264L416.558 312.46C416.564 312.464 416.567 312.473 416.563 312.479C416.56 312.484 416.556 312.486 416.551 312.486Z" fill="#21B9E8"/>
<path d="M416.551 341.674C416.548 341.674 416.546 341.673 416.544 341.672L312.281 281.475C312.274 281.471 312.271 281.463 312.275 281.456C312.279 281.449 312.288 281.447 312.295 281.451L416.558 341.647C416.564 341.651 416.567 341.66 416.563 341.667C416.56 341.671 416.556 341.674 416.551 341.674Z" fill="#21B9E8"/>
<path d="M416.551 370.859C416.548 370.859 416.546 370.859 416.544 370.857L312.281 310.661C312.274 310.657 312.271 310.648 312.275 310.641C312.279 310.634 312.288 310.632 312.295 310.636L416.558 370.833C416.564 370.837 416.567 370.845 416.563 370.852C416.56 370.857 416.556 370.859 416.551 370.859Z" fill="#21B9E8"/>
<path d="M416.551 327.081C416.548 327.081 416.546 327.081 416.544 327.079L312.281 266.883C312.274 266.879 312.271 266.87 312.275 266.863C312.279 266.856 312.288 266.855 312.295 266.858L416.558 327.055C416.564 327.059 416.567 327.067 416.563 327.074C416.56 327.079 416.556 327.081 416.551 327.081Z" fill="#21B9E8"/>
<path d="M416.551 356.266C416.548 356.266 416.546 356.266 416.544 356.264L312.281 296.068C312.274 296.064 312.271 296.055 312.275 296.048C312.279 296.042 312.288 296.04 312.295 296.043L416.558 356.24C416.564 356.244 416.567 356.252 416.563 356.259C416.56 356.264 416.556 356.266 416.551 356.266Z" fill="#21B9E8"/>
<path d="M416.551 319.783C416.548 319.783 416.546 319.782 416.544 319.781L312.281 259.584C312.274 259.58 312.271 259.572 312.275 259.565C312.279 259.558 312.288 259.556 312.295 259.56L416.558 319.756C416.564 319.76 416.567 319.769 416.563 319.776C416.56 319.78 416.556 319.783 416.551 319.783Z" fill="#21B9E8"/>
<path d="M416.551 348.972C416.548 348.972 416.546 348.972 416.544 348.97L312.281 288.774C312.274 288.77 312.271 288.761 312.275 288.755C312.279 288.748 312.288 288.746 312.295 288.749L416.558 348.946C416.564 348.95 416.567 348.958 416.563 348.965C416.56 348.97 416.556 348.972 416.551 348.972Z" fill="#21B9E8"/>
<path d="M416.551 334.377C416.548 334.377 416.546 334.377 416.544 334.375L312.281 274.178C312.274 274.175 312.271 274.166 312.275 274.159C312.279 274.152 312.288 274.151 312.295 274.154L416.558 334.351C416.564 334.355 416.567 334.363 416.563 334.37C416.56 334.375 416.556 334.377 416.551 334.377Z" fill="#21B9E8"/>
<path d="M416.551 363.563C416.548 363.563 416.546 363.562 416.544 363.561L312.281 303.364C312.274 303.36 312.271 303.352 312.275 303.345C312.279 303.338 312.288 303.336 312.295 303.34L416.558 363.536C416.564 363.54 416.567 363.549 416.563 363.556C416.56 363.56 416.556 363.563 416.551 363.563Z" fill="#21B9E8"/>
<path d="M416.551 316.139C416.548 316.139 416.546 316.138 416.544 316.137L312.281 255.94C312.274 255.936 312.271 255.928 312.275 255.921C312.279 255.914 312.288 255.912 312.295 255.916L416.558 316.113C416.564 316.116 416.567 316.125 416.563 316.132C416.56 316.136 416.556 316.139 416.551 316.139Z" fill="#21B9E8"/>
<path d="M416.551 345.32C416.548 345.32 416.546 345.319 416.544 345.318L312.281 285.121C312.274 285.118 312.271 285.109 312.275 285.102C312.279 285.095 312.288 285.093 312.295 285.097L416.558 345.294C416.564 345.298 416.567 345.306 416.563 345.313C416.56 345.318 416.556 345.32 416.551 345.32Z" fill="#21B9E8"/>
<path d="M416.551 374.509C416.548 374.509 416.546 374.509 416.544 374.508L312.281 314.311C312.274 314.307 312.271 314.298 312.275 314.292C312.279 314.285 312.288 314.283 312.295 314.286L416.558 374.483C416.564 374.487 416.567 374.496 416.563 374.502C416.56 374.507 416.556 374.509 416.551 374.509Z" fill="#21B9E8"/>
<path d="M416.551 378.155C416.548 378.155 416.546 378.155 416.544 378.154L312.281 317.957C312.274 317.953 312.271 317.944 312.275 317.938C312.279 317.931 312.288 317.929 312.295 317.932L416.558 378.129C416.564 378.133 416.567 378.142 416.563 378.148C416.56 378.153 416.556 378.155 416.551 378.155Z" fill="#21B9E8"/>
<path d="M416.551 330.727C416.548 330.727 416.546 330.727 416.544 330.725L312.281 270.529C312.274 270.525 312.271 270.516 312.275 270.509C312.279 270.502 312.288 270.501 312.295 270.504L416.558 330.701C416.564 330.705 416.567 330.713 416.563 330.72C416.56 330.725 416.556 330.727 416.551 330.727Z" fill="#21B9E8"/>
<path d="M416.551 359.917C416.548 359.917 416.546 359.916 416.544 359.915L312.281 299.718C312.274 299.714 312.271 299.706 312.275 299.699C312.279 299.692 312.288 299.69 312.295 299.694L416.558 359.891C416.564 359.894 416.567 359.903 416.563 359.91C416.56 359.914 416.556 359.917 416.551 359.917Z" fill="#21B9E8"/>
<path d="M416.551 323.431C416.548 323.431 416.546 323.431 416.544 323.429L312.281 263.232C312.274 263.228 312.271 263.22 312.275 263.213C312.279 263.206 312.288 263.204 312.295 263.208L416.558 323.405C416.564 323.409 416.567 323.417 416.563 323.424C416.56 323.429 416.556 323.431 416.551 323.431Z" fill="#21B9E8"/>
<path d="M416.551 352.618C416.548 352.618 416.546 352.618 416.544 352.617L312.281 292.42C312.274 292.416 312.271 292.407 312.275 292.4C312.279 292.393 312.288 292.392 312.295 292.395L416.558 352.592C416.564 352.596 416.567 352.605 416.563 352.611C416.56 352.616 416.556 352.618 416.551 352.618Z" fill="#21B9E8"/>
<path d="M416.551 338.025C416.548 338.025 416.546 338.025 416.544 338.024L312.281 277.827C312.274 277.823 312.271 277.814 312.275 277.808C312.279 277.801 312.288 277.799 312.295 277.802L416.558 337.999C416.564 338.003 416.567 338.012 416.563 338.018C416.56 338.023 416.556 338.025 416.551 338.025Z" fill="#21B9E8"/>
<path d="M416.551 367.21C416.548 367.21 416.546 367.21 416.544 367.209L312.281 307.012C312.274 307.008 312.271 306.999 312.275 306.993C312.279 306.986 312.288 306.984 312.295 306.988L416.558 367.184C416.564 367.188 416.567 367.197 416.563 367.203C416.56 367.208 416.556 367.21 416.551 367.21Z" fill="#21B9E8"/>
</g>
<path opacity="0.3" fill-rule="evenodd" clip-rule="evenodd" d="M318.578 366.001V413.795C318.578 416.714 316.802 418.058 314.613 416.794L199.325 350.233C197.136 348.969 195.357 345.573 195.357 342.654V294.859C195.357 291.94 197.136 290.596 199.325 291.86L314.613 358.421C316.802 359.685 318.578 363.082 318.578 366.001Z" fill="#21B9E8"/>
<path opacity="0.4" d="M298.156 366.227C297.233 364.998 295.834 364.215 294.305 364.068C292.773 363.921 291.253 364.425 290.113 365.456L287.424 367.885C286.178 369.013 284.481 369.505 282.822 369.218C281.165 368.932 279.731 367.899 278.934 366.417L270.363 350.471C269.035 347.999 266.051 346.934 263.456 348.003L262.025 348.594C260.684 349.147 259.177 349.145 257.837 348.587C256.495 348.03 255.433 346.963 254.878 345.621L251.605 337.682C250.981 336.169 249.712 335.015 248.146 334.536C246.58 334.057 244.884 334.304 243.519 335.21L237.196 339.408C234.938 340.907 231.924 340.528 230.108 338.518L226.756 334.808C225.027 332.894 222.194 332.448 219.959 333.738L204.834 342.471L309.097 402.668V380.778L298.156 366.227Z" fill="#B0FBFF"/>
<path d="M316.183 418.601C315.449 418.601 314.696 418.381 313.944 417.948L198.657 351.386C196.059 349.886 194.023 346.05 194.023 342.654V294.859C194.023 291.54 195.895 290.054 197.749 290.054C198.483 290.054 199.237 290.274 199.988 290.708L315.276 357.269C317.873 358.769 319.907 362.605 319.907 366.001V413.796C319.907 417.115 318.037 418.601 316.183 418.601ZM197.749 290.587C196.16 290.587 194.556 291.908 194.556 294.859V342.654C194.556 345.878 196.474 349.511 198.923 350.925L314.211 417.486C314.88 417.872 315.544 418.068 316.183 418.068C317.772 418.068 319.375 416.747 319.375 413.795V366.001C319.375 362.776 317.457 359.143 315.01 357.73L199.722 291.169C199.052 290.783 198.389 290.587 197.749 290.587Z" fill="#21B9E8"/>
<g opacity="0.7">
<path d="M309.104 381.044C309.023 381.044 308.943 381.008 308.891 380.938L297.95 366.386C297.074 365.22 295.738 364.472 294.285 364.332C292.833 364.195 291.38 364.675 290.298 365.654L287.611 368.083C286.293 369.274 284.535 369.783 282.784 369.481C281.034 369.178 279.548 368.107 278.707 366.543L270.135 350.597C268.867 348.237 266.042 347.227 263.565 348.249L262.132 348.84C260.715 349.424 259.156 349.422 257.741 348.833C256.326 348.244 255.224 347.139 254.639 345.722L251.366 337.784C250.77 336.338 249.571 335.247 248.075 334.79C246.58 334.333 244.976 334.567 243.673 335.432L237.35 339.63C235.003 341.189 231.807 340.787 229.918 338.697L226.565 334.987C224.931 333.178 222.211 332.75 220.1 333.969L204.973 342.702L204.707 342.241L219.833 333.508C222.162 332.165 225.158 332.636 226.96 334.63L230.313 338.34C232.027 340.237 234.926 340.601 237.055 339.187L243.378 334.988C244.814 334.035 246.583 333.777 248.231 334.281C249.879 334.785 251.201 335.988 251.858 337.581L255.132 345.519C255.662 346.805 256.661 347.807 257.945 348.341C259.229 348.875 260.644 348.878 261.93 348.347L263.362 347.757C266.092 346.631 269.206 347.743 270.604 350.345L279.176 366.291C279.939 367.71 281.287 368.682 282.875 368.956C284.463 369.231 286.059 368.768 287.254 367.688L289.94 365.258C291.134 364.18 292.736 363.648 294.336 363.803C295.937 363.956 297.41 364.781 298.376 366.066L309.317 380.618C309.405 380.736 309.382 380.903 309.264 380.991C309.216 381.027 309.16 381.044 309.104 381.044Z" fill="#B0FBFF"/>
</g>
<path opacity="0.3" fill-rule="evenodd" clip-rule="evenodd" d="M336.312 72.9097C336.312 66.7771 340.048 63.9539 344.647 66.6091L411.322 105.104C415.922 107.759 419.656 114.895 419.656 121.028V264.812C419.656 270.945 415.922 273.768 411.322 271.112L344.647 232.618C340.048 229.962 336.312 222.826 336.312 216.694V72.9097Z" fill="#21B9E8"/>
<path opacity="0.7" fill-rule="evenodd" clip-rule="evenodd" d="M350.914 226.945C350.914 227.1 350.819 227.171 350.703 227.104L343.664 223.04C343.548 222.973 343.453 222.793 343.453 222.638V220.858C343.453 220.703 343.548 220.633 343.664 220.7L350.703 224.763C350.819 224.83 350.914 225.011 350.914 225.165V226.945Z" fill="#B0FBFF"/>
<path opacity="0.7" fill-rule="evenodd" clip-rule="evenodd" d="M368.299 236.984C368.299 237.139 368.205 237.21 368.089 237.142L353.15 228.517C353.033 228.45 352.939 228.27 352.939 228.115V226.336C352.939 226.181 353.033 226.109 353.15 226.177L368.089 234.802C368.205 234.869 368.299 235.049 368.299 235.204V236.984Z" fill="#B0FBFF"/>
<path opacity="0.7" fill-rule="evenodd" clip-rule="evenodd" d="M377.62 242.364C377.62 242.519 377.526 242.591 377.409 242.524L372.126 239.474C372.01 239.406 371.916 239.226 371.916 239.071V237.291C371.916 237.136 372.01 237.066 372.126 237.133L377.409 240.183C377.526 240.25 377.62 240.43 377.62 240.585V242.364Z" fill="#B0FBFF"/>
<path opacity="0.4" fill-rule="evenodd" clip-rule="evenodd" d="M397.874 254.057C397.874 254.212 397.78 254.284 397.663 254.217L381.555 244.916C381.438 244.848 381.344 244.669 381.344 244.513V242.734C381.344 242.579 381.438 242.507 381.555 242.576L397.663 251.876C397.78 251.943 397.874 252.124 397.874 252.279V254.057Z" fill="#B0FBFF"/>
<path opacity="0.7" fill-rule="evenodd" clip-rule="evenodd" d="M361.697 158.257C361.697 158.412 361.603 158.483 361.486 158.416L343.664 148.126C343.548 148.059 343.453 147.879 343.453 147.724V145.944C343.453 145.789 343.548 145.718 343.664 145.786L361.486 156.075C361.603 156.142 361.697 156.322 361.697 156.477V158.257Z" fill="#B0FBFF"/>
<path opacity="0.7" fill-rule="evenodd" clip-rule="evenodd" d="M383.02 170.57C383.02 170.726 382.924 170.796 382.809 170.729L364.986 160.44C364.869 160.373 364.775 160.192 364.775 160.036V158.258C364.775 158.103 364.869 158.032 364.986 158.099L382.809 168.389C382.924 168.456 383.02 168.636 383.02 168.791V170.57Z" fill="#B0FBFF"/>
<path opacity="0.7" fill-rule="evenodd" clip-rule="evenodd" d="M405.091 183.308C405.091 183.464 404.997 183.535 404.881 183.468L387.057 173.179C386.942 173.112 386.848 172.931 386.848 172.775V170.997C386.848 170.842 386.941 170.771 387.057 170.838L404.881 181.128C404.997 181.195 405.091 181.375 405.091 181.53V183.308Z" fill="#B0FBFF"/>
<path opacity="0.4" fill-rule="evenodd" clip-rule="evenodd" d="M350.914 189.481C350.914 189.636 350.819 189.707 350.703 189.64L343.664 185.576C343.548 185.509 343.453 185.329 343.453 185.174V183.394C343.453 183.239 343.548 183.168 343.664 183.236L350.703 187.299C350.819 187.366 350.914 187.546 350.914 187.701V189.481Z" fill="#B0FBFF"/>
<path opacity="0.7" fill-rule="evenodd" clip-rule="evenodd" d="M360.994 195.302C360.994 195.457 360.899 195.528 360.783 195.461L353.744 191.397C353.628 191.33 353.533 191.15 353.533 190.995V189.216C353.533 189.06 353.628 188.989 353.744 189.057L360.783 193.12C360.899 193.187 360.994 193.367 360.994 193.523V195.302Z" fill="#B0FBFF"/>
<path opacity="0.4" fill-rule="evenodd" clip-rule="evenodd" d="M367.778 124.304C367.778 124.459 367.684 124.53 367.568 124.463L343.664 110.662C343.548 110.595 343.453 110.415 343.453 110.26V108.481C343.453 108.326 343.548 108.254 343.664 108.321L367.568 122.122C367.684 122.189 367.778 122.369 367.778 122.524V124.304Z" fill="#B0FBFF"/>
<path opacity="0.4" fill-rule="evenodd" clip-rule="evenodd" d="M395.852 140.513C395.852 140.668 395.756 140.74 395.641 140.673L371.736 126.871C371.621 126.804 371.525 126.624 371.525 126.469V124.69C371.525 124.535 371.621 124.463 371.736 124.531L395.641 138.332C395.756 138.399 395.852 138.58 395.852 138.734V140.513Z" fill="#B0FBFF"/>
<path opacity="0.7" fill-rule="evenodd" clip-rule="evenodd" d="M413.785 150.864C413.785 151.019 413.691 151.091 413.576 151.024L399.619 142.967C399.503 142.9 399.408 142.719 399.408 142.565V140.785C399.408 140.63 399.503 140.559 399.619 140.626L413.576 148.683C413.691 148.75 413.785 148.931 413.785 149.086V150.864Z" fill="#B0FBFF"/>
<path opacity="0.7" fill-rule="evenodd" clip-rule="evenodd" d="M361.447 214.355C361.447 214.51 361.352 214.581 361.236 214.514L343.664 204.368C343.548 204.301 343.453 204.121 343.453 203.966V202.187C343.453 202.032 343.548 201.96 343.664 202.027L361.236 212.173C361.352 212.24 361.447 212.42 361.447 212.575V214.355Z" fill="#B0FBFF"/>
<path opacity="0.7" fill-rule="evenodd" clip-rule="evenodd" d="M364.373 141.129C364.373 141.284 364.278 141.356 364.162 141.289L343.664 129.455C343.548 129.387 343.453 129.207 343.453 129.051V127.273C343.453 127.118 343.548 127.046 343.664 127.114L364.162 138.948C364.278 139.015 364.373 139.196 364.373 139.351V141.129Z" fill="#B0FBFF"/>
<path opacity="0.7" fill-rule="evenodd" clip-rule="evenodd" d="M389.22 155.47C389.22 155.625 389.126 155.697 389.01 155.629L368.512 143.795C368.395 143.728 368.301 143.547 368.301 143.393V141.614C368.301 141.459 368.395 141.387 368.512 141.454L389.01 153.288C389.126 153.357 389.22 153.536 389.22 153.692V155.47Z" fill="#B0FBFF"/>
<path opacity="0.4" fill-rule="evenodd" clip-rule="evenodd" d="M356.473 174.02C356.473 174.175 356.378 174.247 356.263 174.18L343.664 166.906C343.548 166.838 343.453 166.659 343.453 166.503V164.724C343.453 164.57 343.548 164.498 343.664 164.566L356.263 171.839C356.378 171.906 356.473 172.087 356.473 172.242V174.02Z" fill="#B0FBFF"/>
<path opacity="0.7" fill-rule="evenodd" clip-rule="evenodd" d="M374.321 109.409C374.321 109.564 374.226 109.636 374.11 109.568L343.664 91.9904C343.548 91.9233 343.453 91.7429 343.453 91.5878V89.8088C343.453 89.6537 343.548 89.5823 343.664 89.6496L374.11 107.228C374.226 107.295 374.321 107.475 374.321 107.63V109.409Z" fill="#B0FBFF"/>
<path opacity="0.7" fill-rule="evenodd" clip-rule="evenodd" d="M401.492 125.095C401.492 125.25 401.397 125.322 401.281 125.255L377.564 111.562C377.449 111.495 377.354 111.314 377.354 111.159V109.38C377.354 109.225 377.449 109.154 377.564 109.221L401.281 122.914C401.397 122.981 401.492 123.161 401.492 123.316V125.095Z" fill="#B0FBFF"/>
<path opacity="0.7" fill-rule="evenodd" clip-rule="evenodd" d="M367.006 226.861C367.006 227.016 366.911 227.087 366.796 227.02L343.664 213.666C343.548 213.599 343.453 213.418 343.453 213.263V211.483C343.453 211.329 343.548 211.258 343.664 211.325L366.796 224.679C366.911 224.746 367.006 224.927 367.006 225.081V226.861Z" fill="#B0FBFF"/>
<path opacity="0.7" fill-rule="evenodd" clip-rule="evenodd" d="M393.839 242.35C393.839 242.505 393.745 242.576 393.628 242.509L370.498 229.154C370.381 229.087 370.287 228.907 370.287 228.751V226.972C370.287 226.817 370.381 226.747 370.498 226.814L393.628 240.168C393.745 240.235 393.839 240.415 393.839 240.57V242.35Z" fill="#B0FBFF"/>
<path opacity="0.7" fill-rule="evenodd" clip-rule="evenodd" d="M413.269 253.571C413.269 253.726 413.175 253.797 413.058 253.73L397.242 244.599C397.125 244.531 397.031 244.351 397.031 244.196V242.416C397.031 242.261 397.125 242.191 397.242 242.258L413.058 251.389C413.175 251.456 413.269 251.637 413.269 251.791V253.571Z" fill="#B0FBFF"/>
<path opacity="0.4" fill-rule="evenodd" clip-rule="evenodd" d="M392.104 166.438C392.104 166.593 392.009 166.664 391.894 166.596L343.664 138.752C343.548 138.685 343.453 138.504 343.453 138.349V136.569C343.453 136.414 343.548 136.344 343.664 136.411L391.894 164.256C392.009 164.323 392.104 164.503 392.104 164.658V166.438Z" fill="#B0FBFF"/>
<path opacity="0.4" fill-rule="evenodd" clip-rule="evenodd" d="M384.562 199.535C384.562 199.69 384.467 199.761 384.351 199.694L343.664 176.204C343.548 176.136 343.453 175.956 343.453 175.801V174.021C343.453 173.866 343.548 173.796 343.664 173.863L384.351 197.353C384.467 197.42 384.562 197.6 384.562 197.755V199.535Z" fill="#B0FBFF"/>
<path opacity="0.7" fill-rule="evenodd" clip-rule="evenodd" d="M400.219 208.572C400.219 208.726 400.124 208.797 400.008 208.73L388.23 201.93C388.113 201.863 388.02 201.682 388.02 201.527V199.749C388.02 199.594 388.113 199.522 388.23 199.589L400.008 206.389C400.124 206.456 400.219 206.637 400.219 206.792V208.572Z" fill="#B0FBFF"/>
<path opacity="0.4" fill-rule="evenodd" clip-rule="evenodd" d="M369.055 115.666C369.055 115.821 368.959 115.892 368.844 115.824L343.664 101.288C343.548 101.22 343.453 101.04 343.453 100.885V99.1059C343.453 98.9508 343.548 98.8794 343.664 98.9468L368.844 113.484C368.959 113.551 369.055 113.731 369.055 113.887V115.666Z" fill="#B0FBFF"/>
<path opacity="0.7" fill-rule="evenodd" clip-rule="evenodd" d="M388.78 127.055C388.78 127.21 388.686 127.282 388.57 127.215L372.461 117.914C372.344 117.847 372.25 117.666 372.25 117.512V115.733C372.25 115.577 372.344 115.506 372.461 115.573L388.57 124.874C388.686 124.941 388.78 125.122 388.78 125.276V127.055Z" fill="#B0FBFF"/>
<path opacity="0.7" fill-rule="evenodd" clip-rule="evenodd" d="M355.01 201.263C355.01 201.417 354.915 201.489 354.8 201.422L343.664 194.994C343.548 194.926 343.453 194.746 343.453 194.59V192.812C343.453 192.657 343.548 192.585 343.664 192.653L354.8 199.082C354.915 199.149 355.01 199.329 355.01 199.484V201.263Z" fill="#B0FBFF"/>
<path opacity="0.7" fill-rule="evenodd" clip-rule="evenodd" d="M377.913 214.488C377.913 214.644 377.819 214.715 377.702 214.648L358.922 203.805C358.806 203.737 358.711 203.557 358.711 203.402V201.622C358.711 201.467 358.806 201.397 358.922 201.464L377.702 212.307C377.819 212.374 377.913 212.554 377.913 212.709V214.488Z" fill="#B0FBFF"/>
<path opacity="0.7" fill-rule="evenodd" clip-rule="evenodd" d="M385.696 218.979C385.696 219.133 385.601 219.204 385.485 219.137L381.041 216.572C380.924 216.505 380.83 216.324 380.83 216.168V214.39C380.83 214.235 380.924 214.164 381.041 214.231L385.485 216.796C385.601 216.864 385.696 217.044 385.696 217.199V218.979Z" fill="#B0FBFF"/>
<path opacity="0.7" fill-rule="evenodd" clip-rule="evenodd" d="M393.211 223.316C393.211 223.471 393.116 223.542 393 223.474L388.557 220.909C388.44 220.842 388.346 220.662 388.346 220.507V218.727C388.346 218.572 388.44 218.501 388.557 218.569L393 221.134C393.116 221.201 393.211 221.381 393.211 221.537V223.316Z" fill="#B0FBFF"/>
<path opacity="0.7" fill-rule="evenodd" clip-rule="evenodd" d="M350.914 123.983C350.914 124.139 350.819 124.21 350.703 124.143L343.664 120.08C343.548 120.012 343.453 119.832 343.453 119.676V117.897C343.453 117.743 343.548 117.672 343.664 117.739L350.703 121.802C350.819 121.869 350.914 122.05 350.914 122.205V123.983Z" fill="#B0FBFF"/>
<path opacity="0.7" fill-rule="evenodd" clip-rule="evenodd" d="M374.801 137.775C374.801 137.93 374.706 138.002 374.591 137.935L352.922 125.424C352.806 125.357 352.711 125.177 352.711 125.022V123.243C352.711 123.087 352.806 123.017 352.922 123.084L374.591 135.594C374.706 135.661 374.801 135.842 374.801 135.997V137.775Z" fill="#B0FBFF"/>
<path opacity="0.4" fill-rule="evenodd" clip-rule="evenodd" d="M366.129 170.22C366.129 170.375 366.034 170.446 365.918 170.379L343.664 157.531C343.548 157.464 343.453 157.284 343.453 157.128V155.349C343.453 155.194 343.548 155.124 343.664 155.191L365.918 168.038C366.034 168.105 366.129 168.286 366.129 168.442V170.22Z" fill="#B0FBFF"/>
<path opacity="0.4" fill-rule="evenodd" clip-rule="evenodd" d="M356.766 89.8988C356.766 90.0539 356.671 90.1253 356.555 90.058L343.664 82.6155C343.548 82.5484 343.453 82.368 343.453 82.2132V80.4341C343.453 80.279 343.548 80.2076 343.664 80.2748L356.555 87.7172C356.671 87.7843 356.766 87.9647 356.766 88.1198V89.8988Z" fill="#B0FBFF"/>
<path opacity="0.4" fill-rule="evenodd" clip-rule="evenodd" d="M382.768 104.911C382.768 105.066 382.674 105.138 382.559 105.071L364.986 94.9252C364.869 94.8581 364.775 94.6777 364.775 94.5226V92.7436C364.775 92.5887 364.869 92.5171 364.986 92.5844L382.559 102.73C382.674 102.797 382.768 102.977 382.768 103.132V104.911Z" fill="#B0FBFF"/>
<path opacity="0.4" fill-rule="evenodd" clip-rule="evenodd" d="M359.67 227.322C359.67 227.477 359.576 227.547 359.46 227.48L343.664 218.361C343.548 218.294 343.453 218.114 343.453 217.959V216.179C343.453 216.024 343.548 215.953 343.664 216.02L359.46 225.14C359.576 225.207 359.67 225.387 359.67 225.542V227.322Z" fill="#B0FBFF"/>
<path opacity="0.7" fill-rule="evenodd" clip-rule="evenodd" d="M379.062 238.513C379.062 238.669 378.967 238.739 378.852 238.672L363.056 229.553C362.94 229.486 362.846 229.306 362.846 229.15V227.371C362.846 227.216 362.94 227.145 363.056 227.213L378.852 236.332C378.967 236.399 379.062 236.579 379.062 236.734V238.513Z" fill="#B0FBFF"/>
<path opacity="0.7" fill-rule="evenodd" clip-rule="evenodd" d="M356.766 150.728C356.766 150.883 356.671 150.955 356.555 150.888L343.664 143.445C343.548 143.378 343.453 143.198 343.453 143.043V141.263C343.453 141.108 343.548 141.037 343.664 141.104L356.555 148.547C356.671 148.614 356.766 148.795 356.766 148.949V150.728Z" fill="#B0FBFF"/>
<path opacity="0.4" fill-rule="evenodd" clip-rule="evenodd" d="M371.771 159.388C371.771 159.544 371.677 159.615 371.56 159.548L358.669 152.105C358.553 152.038 358.459 151.858 358.459 151.703V149.924C358.459 149.769 358.553 149.697 358.669 149.764L371.56 157.207C371.677 157.274 371.771 157.454 371.771 157.609V159.388Z" fill="#B0FBFF"/>
<path opacity="0.7" fill-rule="evenodd" clip-rule="evenodd" d="M366.714 193.923C366.714 194.078 366.619 194.15 366.503 194.083L343.664 180.897C343.548 180.83 343.453 180.65 343.453 180.495V178.715C343.453 178.56 343.548 178.489 343.664 178.556L366.503 191.742C366.619 191.809 366.714 191.99 366.714 192.145V193.923Z" fill="#B0FBFF"/>
<path opacity="0.7" fill-rule="evenodd" clip-rule="evenodd" d="M360.57 115.462C360.57 115.616 360.474 115.688 360.359 115.621L343.664 105.983C343.548 105.916 343.453 105.735 343.453 105.58V103.801C343.453 103.646 343.548 103.575 343.664 103.642L360.359 113.281C360.474 113.348 360.57 113.528 360.57 113.683V115.462Z" fill="#B0FBFF"/>
<path opacity="0.4" fill-rule="evenodd" clip-rule="evenodd" d="M373.443 216.6C373.443 216.755 373.348 216.825 373.233 216.758L343.664 199.687C343.548 199.62 343.453 199.439 343.453 199.284V197.506C343.453 197.351 343.548 197.279 343.664 197.346L373.233 214.417C373.348 214.485 373.443 214.665 373.443 214.821V216.6Z" fill="#B0FBFF"/>
<path opacity="0.4" fill-rule="evenodd" clip-rule="evenodd" d="M358.456 133.032C358.456 133.186 358.36 133.258 358.245 133.191L343.664 124.773C343.548 124.705 343.453 124.526 343.453 124.37V122.591C343.453 122.436 343.548 122.365 343.664 122.433L358.245 130.851C358.36 130.918 358.456 131.098 358.456 131.253V133.032Z" fill="#B0FBFF"/>
<path opacity="0.7" fill-rule="evenodd" clip-rule="evenodd" d="M350.914 166.129C350.914 166.285 350.819 166.356 350.703 166.289L343.664 162.225C343.548 162.157 343.453 161.978 343.453 161.822V160.043C343.453 159.888 343.548 159.816 343.664 159.885L350.703 163.948C350.819 164.015 350.914 164.196 350.914 164.35V166.129Z" fill="#B0FBFF"/>
<path opacity="0.7" fill-rule="evenodd" clip-rule="evenodd" d="M378.686 182.162C378.686 182.317 378.592 182.388 378.476 182.321L353.004 167.614C352.887 167.547 352.793 167.367 352.793 167.212V165.433C352.793 165.279 352.887 165.207 353.004 165.274L378.476 179.98C378.592 180.047 378.686 180.227 378.686 180.382V182.162Z" fill="#B0FBFF"/>
<path opacity="0.7" fill-rule="evenodd" clip-rule="evenodd" d="M350.914 91.2136C350.914 91.3687 350.819 91.4399 350.703 91.373L343.664 87.3089C343.548 87.2418 343.453 87.0614 343.453 86.9063V85.1273C343.453 84.9722 343.548 84.901 343.664 84.9681L350.703 89.0322C350.819 89.0993 350.914 89.2797 350.914 89.4345V91.2136Z" fill="#B0FBFF"/>
<path opacity="0.7" fill-rule="evenodd" clip-rule="evenodd" d="M361.059 97.0651C361.059 97.22 360.963 97.2914 360.848 97.2243L353.809 93.1602C353.693 93.0931 353.598 92.9127 353.598 92.7576V90.9788C353.598 90.824 353.693 90.7525 353.809 90.8197L360.848 94.8837C360.963 94.9508 361.059 95.1312 361.059 95.2863V97.0651Z" fill="#B0FBFF"/>
<path opacity="0.7" fill-rule="evenodd" clip-rule="evenodd" d="M372.415 103.627C372.415 103.782 372.321 103.854 372.204 103.787L365.165 99.7225C365.049 99.6553 364.955 99.475 364.955 99.3201V97.541C364.955 97.386 365.049 97.3145 365.165 97.3817L372.204 101.446C372.321 101.513 372.415 101.693 372.415 101.848V103.627Z" fill="#B0FBFF"/>
<path opacity="0.7" fill-rule="evenodd" clip-rule="evenodd" d="M350.914 212.889C350.914 213.044 350.819 213.115 350.703 213.048L343.664 208.985C343.548 208.917 343.453 208.737 343.453 208.582V206.802C343.453 206.647 343.548 206.577 343.664 206.644L350.703 210.707C350.819 210.774 350.914 210.955 350.914 211.109V212.889Z" fill="#B0FBFF"/>
<path opacity="0.4" fill-rule="evenodd" clip-rule="evenodd" d="M375.892 227.308C375.892 227.463 375.796 227.533 375.681 227.466L353.5 214.661C353.384 214.594 353.289 214.413 353.289 214.258V212.48C353.289 212.325 353.384 212.253 353.5 212.32L375.681 225.126C375.796 225.193 375.892 225.373 375.892 225.528V227.308Z" fill="#B0FBFF"/>
<path opacity="0.4" fill-rule="evenodd" clip-rule="evenodd" d="M395.905 238.864C395.905 239.019 395.811 239.091 395.696 239.024L380.537 230.272C380.421 230.204 380.326 230.024 380.326 229.869V228.091C380.326 227.936 380.421 227.864 380.537 227.931L395.696 236.683C395.811 236.75 395.905 236.931 395.905 237.085V238.864Z" fill="#B0FBFF"/>
<path opacity="0.7" fill-rule="evenodd" clip-rule="evenodd" d="M350.914 137.973C350.914 138.128 350.819 138.199 350.703 138.132L343.664 134.069C343.548 134.001 343.453 133.821 343.453 133.666V131.886C343.453 131.731 343.548 131.661 343.664 131.728L350.703 135.791C350.819 135.858 350.914 136.039 350.914 136.193V137.973Z" fill="#B0FBFF"/>
<path opacity="0.4" fill-rule="evenodd" clip-rule="evenodd" d="M372.608 150.496C372.608 150.651 372.514 150.723 372.397 150.656L354.826 140.51C354.709 140.443 354.615 140.262 354.615 140.108V138.329C354.615 138.173 354.709 138.102 354.826 138.169L372.397 148.315C372.514 148.382 372.608 148.562 372.608 148.717V150.496Z" fill="#B0FBFF"/>
<path opacity="0.7" fill-rule="evenodd" clip-rule="evenodd" d="M393.784 162.724C393.784 162.88 393.69 162.951 393.573 162.884L376.002 152.738C375.885 152.671 375.791 152.491 375.791 152.336V150.557C375.791 150.402 375.885 150.33 376.002 150.397L393.573 160.543C393.69 160.61 393.784 160.791 393.784 160.945V162.724Z" fill="#B0FBFF"/>
<path opacity="0.4" fill-rule="evenodd" clip-rule="evenodd" d="M414.171 174.496C414.171 174.651 414.077 174.723 413.96 174.656L396.389 164.511C396.272 164.444 396.178 164.263 396.178 164.108V162.328C396.178 162.173 396.272 162.103 396.389 162.17L413.96 172.315C414.077 172.383 414.171 172.563 414.171 172.718V174.496Z" fill="#B0FBFF"/>
<path opacity="0.7" fill-rule="evenodd" clip-rule="evenodd" d="M360.57 180.999C360.57 181.154 360.474 181.226 360.359 181.159L343.664 171.52C343.548 171.453 343.453 171.273 343.453 171.118V169.338C343.453 169.183 343.548 169.113 343.664 169.18L360.359 178.818C360.474 178.885 360.57 179.065 360.57 179.22V180.999Z" fill="#B0FBFF"/>
<path opacity="0.7" fill-rule="evenodd" clip-rule="evenodd" d="M381.525 193.1C381.525 193.255 381.432 193.325 381.315 193.258L364.621 183.62C364.504 183.553 364.41 183.372 364.41 183.218V181.439C364.41 181.284 364.504 181.212 364.621 181.279L381.315 190.918C381.432 190.985 381.525 191.165 381.525 191.321V193.1Z" fill="#B0FBFF"/>
<path opacity="0.4" fill-rule="evenodd" clip-rule="evenodd" d="M403.84 205.981C403.84 206.136 403.746 206.208 403.63 206.141L386.936 196.502C386.818 196.434 386.725 196.254 386.725 196.099V194.321C386.725 194.166 386.818 194.094 386.936 194.161L403.63 203.8C403.746 203.868 403.84 204.048 403.84 204.203V205.981Z" fill="#B0FBFF"/>
<path opacity="0.7" fill-rule="evenodd" clip-rule="evenodd" d="M355.888 103.383C355.888 103.538 355.793 103.609 355.677 103.542L343.664 96.6063C343.548 96.5392 343.453 96.3588 343.453 96.2037V94.4247C343.453 94.2696 343.548 94.1984 343.664 94.2655L355.677 101.201C355.793 101.268 355.888 101.449 355.888 101.603V103.383Z" fill="#B0FBFF"/>
<path opacity="0.4" fill-rule="evenodd" clip-rule="evenodd" d="M386.758 121.202C386.758 121.356 386.664 121.428 386.547 121.361L359.613 105.81C359.496 105.743 359.402 105.563 359.402 105.408V103.628C359.402 103.474 359.496 103.402 359.613 103.469L386.547 119.02C386.664 119.087 386.758 119.268 386.758 119.423V121.202Z" fill="#B0FBFF"/>
<path opacity="0.7" fill-rule="evenodd" clip-rule="evenodd" d="M408.745 133.903C408.745 134.057 408.651 134.129 408.534 134.061L389.792 123.24C389.676 123.173 389.582 122.993 389.582 122.838V121.059C389.582 120.904 389.676 120.833 389.792 120.9L408.534 131.72C408.652 131.789 408.745 131.969 408.745 132.124V133.903Z" fill="#B0FBFF"/>
<path opacity="0.7" fill-rule="evenodd" clip-rule="evenodd" d="M364.666 202.157C364.666 202.311 364.571 202.383 364.455 202.316L343.664 190.313C343.548 190.244 343.453 190.065 343.453 189.909V188.131C343.453 187.976 343.548 187.904 343.664 187.972L364.455 199.976C364.571 200.043 364.666 200.223 364.666 200.378V202.157Z" fill="#B0FBFF"/>
<path opacity="0.4" fill-rule="evenodd" clip-rule="evenodd" d="M398.487 221.681C398.487 221.836 398.392 221.907 398.276 221.84L369 204.938C368.884 204.871 368.789 204.69 368.789 204.536V202.757C368.789 202.601 368.884 202.53 369 202.597L398.276 219.499C398.392 219.566 398.487 219.747 398.487 219.901V221.681Z" fill="#B0FBFF"/>
<path opacity="0.7" fill-rule="evenodd" clip-rule="evenodd" d="M412.667 229.87C412.667 230.025 412.573 230.095 412.456 230.028L401.322 223.6C401.205 223.533 401.111 223.352 401.111 223.197V221.419C401.111 221.263 401.205 221.192 401.322 221.259L412.456 227.688C412.573 227.755 412.667 227.935 412.667 228.09V229.87Z" fill="#B0FBFF"/>
<path opacity="0.7" fill-rule="evenodd" clip-rule="evenodd" d="M350.914 119.302C350.914 119.458 350.819 119.529 350.703 119.462L343.664 115.399C343.548 115.332 343.453 115.151 343.453 114.995V113.217C343.453 113.062 343.548 112.991 343.664 113.058L350.703 117.122C350.819 117.189 350.914 117.369 350.914 117.524V119.302Z" fill="#B0FBFF"/>
<path opacity="0.7" fill-rule="evenodd" clip-rule="evenodd" d="M387.643 140.507C387.643 140.662 387.549 140.734 387.432 140.666L354.059 121.398C353.944 121.331 353.85 121.151 353.85 120.996V119.217C353.85 119.062 353.943 118.991 354.059 119.058L387.432 138.326C387.549 138.393 387.643 138.573 387.643 138.728V140.507Z" fill="#B0FBFF"/>
<path opacity="0.7" fill-rule="evenodd" clip-rule="evenodd" d="M350.914 156.752C350.914 156.908 350.819 156.979 350.703 156.911L343.664 152.848C343.548 152.781 343.453 152.601 343.453 152.445V150.666C343.453 150.511 343.548 150.44 343.664 150.508L350.703 154.571C350.819 154.638 350.914 154.818 350.914 154.973V156.752Z" fill="#B0FBFF"/>
<path opacity="0.7" fill-rule="evenodd" clip-rule="evenodd" d="M379.516 173.265C379.516 173.42 379.422 173.492 379.307 173.425L354.127 158.887C354.011 158.82 353.916 158.639 353.916 158.484V156.706C353.916 156.551 354.011 156.479 354.127 156.546L379.307 171.084C379.422 171.151 379.516 171.332 379.516 171.486V173.265Z" fill="#B0FBFF"/>
<path opacity="0.7" fill-rule="evenodd" clip-rule="evenodd" d="M393.821 181.523C393.821 181.678 393.726 181.75 393.61 181.682L382.475 175.253C382.359 175.186 382.264 175.005 382.264 174.85V173.072C382.264 172.917 382.359 172.845 382.475 172.912L393.61 179.342C393.726 179.409 393.821 179.589 393.821 179.744V181.523Z" fill="#B0FBFF"/>
<path opacity="0.4" fill-rule="evenodd" clip-rule="evenodd" d="M403.216 186.953C403.216 187.108 403.122 187.179 403.006 187.112L397.723 184.062C397.606 183.994 397.512 183.814 397.512 183.659V181.881C397.512 181.726 397.606 181.654 397.723 181.721L403.006 184.771C403.122 184.838 403.216 185.019 403.216 185.174V186.953Z" fill="#B0FBFF"/>
<path opacity="0.7" fill-rule="evenodd" clip-rule="evenodd" d="M411.318 191.623C411.318 191.778 411.222 191.85 411.107 191.783L405.823 188.733C405.707 188.666 405.613 188.486 405.613 188.331V186.551C405.613 186.396 405.707 186.325 405.823 186.392L411.107 189.442C411.222 189.51 411.318 189.69 411.318 189.845V191.623Z" fill="#B0FBFF"/>
<path opacity="0.7" fill-rule="evenodd" clip-rule="evenodd" d="M350.914 81.8392C350.914 81.994 350.819 82.0655 350.703 81.9983L343.664 77.9343C343.548 77.8672 343.453 77.6868 343.453 77.5319V75.7529C343.453 75.5978 343.548 75.5266 343.664 75.5935L350.703 79.6575C350.819 79.7247 350.914 79.9051 350.914 80.0601V81.8392Z" fill="#B0FBFF"/>
<path opacity="0.7" fill-rule="evenodd" clip-rule="evenodd" d="M374.462 95.4328C374.462 95.5879 374.367 95.6591 374.251 95.592L354.338 84.0953C354.222 84.0281 354.127 83.8478 354.127 83.6927V81.9136C354.127 81.7588 354.222 81.6874 354.338 81.7545L374.251 93.2512C374.367 93.3183 374.462 93.4987 374.462 93.6538V95.4328Z" fill="#B0FBFF"/>
<path d="M414.623 273.443C413.341 273.443 412.005 273.046 410.652 272.265L343.976 233.771C339.014 230.905 334.977 223.244 334.977 216.694V72.9096C334.977 67.7474 337.533 64.2793 341.337 64.2793C342.62 64.2793 343.955 64.6753 345.308 65.4561L411.983 103.951C416.946 106.815 420.983 114.476 420.983 121.028V264.812C420.983 269.974 418.427 273.443 414.623 273.443ZM341.337 64.8119C337.851 64.8119 335.509 68.0662 335.509 72.9096V216.693C335.509 223.075 339.427 230.528 344.243 233.309L410.918 271.804C412.189 272.538 413.436 272.91 414.623 272.91C418.109 272.91 420.45 269.655 420.45 264.812V121.028C420.45 114.645 416.532 107.192 411.717 104.412L345.041 65.9175C343.771 65.184 342.525 64.8119 341.337 64.8119Z" fill="#21B9E8"/>
<path opacity="0.3" fill-rule="evenodd" clip-rule="evenodd" d="M130.104 173.574C130.104 170.255 132.125 168.726 134.615 170.163L177.682 195.029C180.172 196.467 182.193 200.328 182.193 203.648V251.767C182.193 255.086 180.172 256.615 177.682 255.177L134.615 230.312C132.125 228.875 130.104 225.013 130.104 221.693V173.574Z" fill="#21B9E8"/>
<path opacity="0.7" fill-rule="evenodd" clip-rule="evenodd" d="M164.346 217.459C166.903 216.281 168.514 213.338 168.514 209.027C168.514 201.036 162.976 191.349 156.153 187.41C149.33 183.47 143.79 186.761 143.79 194.753C143.79 199.063 145.402 203.867 147.957 207.997C142.306 208.158 138.441 212.84 138.441 220.81V227.709L173.862 248.159V241.26C173.862 233.291 169.999 224.148 164.346 217.459Z" fill="#B0FBFF"/>
<path d="M179.473 257.05C178.67 257.05 177.844 256.808 177.018 256.331L133.95 231.466C131.048 229.79 128.773 225.498 128.773 221.694V173.575C128.773 169.926 130.809 168.293 132.827 168.293C133.63 168.293 134.455 168.535 135.282 169.012L178.349 193.878C181.252 195.553 183.526 199.846 183.526 203.65V251.768C183.526 255.417 181.49 257.05 179.473 257.05ZM132.827 168.825C131.075 168.825 129.306 170.294 129.306 173.575V221.694C129.306 225.326 131.463 229.415 134.217 231.005L177.284 255.87C178.029 256.3 178.765 256.517 179.473 256.517C181.225 256.517 182.993 255.049 182.993 251.768V203.649C182.993 200.018 180.836 195.928 178.083 194.339L135.015 169.473C134.271 169.043 133.535 168.825 132.827 168.825Z" fill="#21B9E8"/>
<path opacity="0.31" d="M65.0934 516.409C91.0161 516.409 112.031 507.139 112.031 495.705C112.031 484.27 91.0161 475 65.0934 475C39.1707 475 18.1562 484.27 18.1562 495.705C18.1562 507.139 39.1707 516.409 65.0934 516.409Z" fill="black"/>
<defs>
<linearGradient id="paint0_linear_2243_26237" x1="243.131" y1="304.142" x2="174.323" y2="368.301" gradientUnits="userSpaceOnUse">
<stop stop-color="#051C2D"/>
<stop offset="0.0533" stop-color="#062034"/>
<stop offset="0.1327" stop-color="#082A49"/>
<stop offset="0.228" stop-color="#0C3A6A"/>
<stop offset="0.3109" stop-color="#104B8C"/>
<stop offset="0.3318" stop-color="#0F447D"/>
<stop offset="0.372" stop-color="#0C3155"/>
<stop offset="0.3909" stop-color="#0A2740"/>
<stop offset="0.459" stop-color="#0C3359"/>
<stop offset="0.5778" stop-color="#104B8C"/>
<stop offset="0.6257" stop-color="#104B8C"/>
<stop offset="0.649" stop-color="#0E447E"/>
<stop offset="0.7055" stop-color="#0B3560"/>
<stop offset="0.7656" stop-color="#082A4A"/>
<stop offset="0.8304" stop-color="#06223A"/>
<stop offset="0.9031" stop-color="#051D30"/>
<stop offset="1" stop-color="#051C2D"/>
</linearGradient>
<linearGradient id="paint1_linear_2243_26237" x1="242.835" y1="302.905" x2="174.276" y2="366.832" gradientUnits="userSpaceOnUse">
<stop stop-color="#72E5F2"/>
<stop offset="0.1143" stop-color="#72E5F2"/>
<stop offset="0.2206" stop-color="#B0FBFF"/>
<stop offset="0.2602" stop-color="#A1F6FC"/>
<stop offset="0.3366" stop-color="#79E7F3"/>
<stop offset="0.3487" stop-color="#72E5F2"/>
<stop offset="0.4984" stop-color="#B0FBFF"/>
<stop offset="0.7096" stop-color="#72E5F2"/>
<stop offset="0.8524" stop-color="#B0FBFF"/>
<stop offset="1" stop-color="#72E5F2"/>
</linearGradient>
<linearGradient id="paint2_linear_2243_26237" x1="240.697" y1="288.635" x2="187.393" y2="385.436" gradientUnits="userSpaceOnUse">
<stop stop-color="#051C2D"/>
<stop offset="0.0533" stop-color="#062034"/>
<stop offset="0.1327" stop-color="#082A49"/>
<stop offset="0.228" stop-color="#0C3A6A"/>
<stop offset="0.3109" stop-color="#104B8C"/>
<stop offset="0.3292" stop-color="#0F447D"/>
<stop offset="0.3645" stop-color="#0C3155"/>
<stop offset="0.381" stop-color="#0A2740"/>
<stop offset="0.4527" stop-color="#0C3359"/>
<stop offset="0.5778" stop-color="#104B8C"/>
<stop offset="0.6257" stop-color="#104B8C"/>
<stop offset="0.649" stop-color="#0E447E"/>
<stop offset="0.7055" stop-color="#0B3560"/>
<stop offset="0.7656" stop-color="#082A4A"/>
<stop offset="0.8304" stop-color="#06223A"/>
<stop offset="0.9031" stop-color="#051D30"/>
<stop offset="1" stop-color="#051C2D"/>
</linearGradient>
<linearGradient id="paint3_linear_2243_26237" x1="377.989" y1="229.259" x2="92.707" y2="229.259" gradientUnits="userSpaceOnUse">
<stop stop-color="#0A2740"/>
<stop offset="0.3507" stop-color="#0A2843"/>
<stop offset="0.5898" stop-color="#0B2B4C"/>
<stop offset="0.7951" stop-color="#0C315B"/>
<stop offset="0.9813" stop-color="#0E3970"/>
<stop offset="1" stop-color="#0E3A73"/>
</linearGradient>
<linearGradient id="paint4_linear_2243_26237" x1="381.04" y1="418.799" x2="105.568" y2="58.7096" gradientUnits="userSpaceOnUse">
<stop stop-color="#72E5F2"/>
<stop offset="0.1143" stop-color="#72E5F2"/>
<stop offset="0.2206" stop-color="#B0FBFF"/>
<stop offset="0.2602" stop-color="#A1F6FC"/>
<stop offset="0.3366" stop-color="#79E7F3"/>
<stop offset="0.3487" stop-color="#72E5F2"/>
<stop offset="0.4984" stop-color="#B0FBFF"/>
<stop offset="0.7096" stop-color="#72E5F2"/>
<stop offset="0.8524" stop-color="#B0FBFF"/>
<stop offset="1" stop-color="#72E5F2"/>
</linearGradient>
<linearGradient id="paint5_linear_2243_26237" x1="371.402" y1="231.251" x2="92.707" y2="231.251" gradientUnits="userSpaceOnUse">
<stop stop-color="#0A2740"/>
<stop offset="0.3507" stop-color="#0A2843"/>
<stop offset="0.5898" stop-color="#0B2B4C"/>
<stop offset="0.7951" stop-color="#0C315B"/>
<stop offset="0.9813" stop-color="#0E3970"/>
<stop offset="1" stop-color="#0E3A73"/>
</linearGradient>
<linearGradient id="paint6_linear_2243_26237" x1="363.693" y1="232.773" x2="92.707" y2="232.773" gradientUnits="userSpaceOnUse">
<stop stop-color="#0A2740"/>
<stop offset="1" stop-color="#104B8C"/>
</linearGradient>
</defs>
</svg>
