<svg width="344" height="344" viewBox="0 0 344 344" fill="none" xmlns="http://www.w3.org/2000/svg">
<path d="M160.835 228.113C167.925 221.014 229.579 147.778 222.481 140.688C215.382 133.598 142.22 195.339 135.129 202.437C128.039 209.536 128.046 221.038 135.145 228.128C142.243 235.218 153.745 235.211 160.835 228.113Z" fill="url(#paint0_linear_2243_26180)"/>
<path d="M101.758 199.743C101.758 232.318 128.165 322.001 160.74 322.001C193.315 322.001 219.722 232.318 219.722 199.743C219.722 167.168 193.315 140.761 160.74 140.761C128.165 140.761 101.758 167.168 101.758 199.743Z" fill="url(#paint1_linear_2243_26180)"/>
<mask id="mask0_2243_26180" style="mask-type:luminance" maskUnits="userSpaceOnUse" x="101" y="140" width="119" height="183">
<path d="M101.758 199.745C101.758 232.319 128.165 322.002 160.74 322.002C193.315 322.002 219.722 232.319 219.722 199.745C219.722 167.17 193.315 140.763 160.74 140.763C128.165 140.763 101.758 167.17 101.758 199.745Z" fill="white"/>
</mask>
<g mask="url(#mask0_2243_26180)">
<path d="M88.6172 205.427C88.6172 165.644 120.983 133.279 160.765 133.279C200.548 133.279 232.913 165.644 232.913 205.427C232.913 245.21 200.548 277.575 160.765 277.575C120.983 277.575 88.6172 245.21 88.6172 205.427ZM89.7529 205.427C89.7529 244.583 121.609 276.439 160.765 276.439C199.921 276.439 231.777 244.583 231.777 205.427C231.777 166.271 199.921 134.415 160.765 134.415C121.609 134.415 89.7529 166.271 89.7529 205.427Z" fill="#048ABF"/>
</g>
<mask id="mask1_2243_26180" style="mask-type:luminance" maskUnits="userSpaceOnUse" x="101" y="140" width="119" height="183">
<path d="M101.758 199.745C101.758 232.319 128.165 322.002 160.74 322.002C193.315 322.002 219.722 232.319 219.722 199.745C219.722 167.17 193.315 140.763 160.74 140.763C128.165 140.763 101.758 167.17 101.758 199.745Z" fill="white"/>
</mask>
<g mask="url(#mask1_2243_26180)">
<path d="M160.765 294.257C200.548 294.257 232.913 261.892 232.913 222.11H231.777C231.777 261.266 199.921 293.122 160.765 293.122C121.609 293.122 89.7529 261.266 89.7529 222.11H88.6172C88.6174 261.892 120.983 294.257 160.765 294.257Z" fill="#048ABF"/>
</g>
<path d="M196.513 225.57C207.605 225.57 216.596 216.578 216.596 205.486C216.596 194.394 207.605 185.403 196.513 185.403C185.421 185.403 176.43 194.394 176.43 205.486C176.43 216.578 185.421 225.57 196.513 225.57Z" fill="#051C2D"/>
<mask id="mask2_2243_26180" style="mask-type:luminance" maskUnits="userSpaceOnUse" x="101" y="140" width="119" height="183">
<path d="M101.758 199.745C101.758 232.319 128.165 322.002 160.74 322.002C193.315 322.002 219.722 232.319 219.722 199.745C219.722 167.17 193.315 140.763 160.74 140.763C128.165 140.763 101.758 167.17 101.758 199.745Z" fill="white"/>
</mask>
<g mask="url(#mask2_2243_26180)">
<path d="M160.759 181.643C192.689 181.643 218.573 155.759 218.573 123.829C218.573 91.8991 192.689 66.0149 160.759 66.0149C128.829 66.0149 102.945 91.8991 102.945 123.829C102.945 155.759 128.829 181.643 160.759 181.643Z" fill="#051C2D"/>
</g>
<path d="M160.748 177.143C193.322 177.143 219.73 150.736 219.73 118.161C219.73 85.5863 193.322 59.1792 160.748 59.1792C128.173 59.1792 101.766 85.5863 101.766 118.161C101.766 150.736 128.173 177.143 160.748 177.143Z" fill="url(#paint2_linear_2243_26180)"/>
<mask id="mask3_2243_26180" style="mask-type:luminance" maskUnits="userSpaceOnUse" x="101" y="59" width="119" height="119">
<path d="M160.748 177.144C193.322 177.144 219.73 150.737 219.73 118.162C219.73 85.5871 193.322 59.1799 160.748 59.1799C128.173 59.1799 101.766 85.5871 101.766 118.162C101.766 150.737 128.173 177.144 160.748 177.144Z" fill="white"/>
</mask>
<g mask="url(#mask3_2243_26180)">
<path d="M268.518 91.164C278.272 87.5043 283.231 76.5909 279.571 66.8363C275.911 57.0814 264.998 52.1227 255.243 55.7824L199.385 76.7389C189.631 80.3986 184.672 91.312 188.332 101.067C191.992 110.822 202.905 115.78 212.66 112.121L268.518 91.164Z" fill="#0A2740"/>
</g>
<mask id="mask4_2243_26180" style="mask-type:luminance" maskUnits="userSpaceOnUse" x="101" y="59" width="119" height="119">
<path d="M160.748 177.144C193.322 177.144 219.73 150.737 219.73 118.162C219.73 85.5871 193.322 59.1799 160.748 59.1799C128.173 59.1799 101.766 85.5871 101.766 118.162C101.766 150.737 128.173 177.144 160.748 177.144Z" fill="white"/>
</mask>
<g mask="url(#mask4_2243_26180)">
<path d="M212.179 110.931L268.037 89.9746C277.151 86.5551 281.768 76.394 278.349 67.2794C274.929 58.1648 264.768 53.5481 255.653 56.9676L199.795 77.9242C190.681 81.3437 186.064 91.5048 189.483 100.619C192.903 109.734 203.064 114.351 212.179 110.931Z" fill="url(#paint3_linear_2243_26180)"/>
<mask id="mask5_2243_26180" style="mask-type:luminance" maskUnits="userSpaceOnUse" x="188" y="55" width="92" height="58">
<path d="M212.175 110.932L268.033 89.9751C277.148 86.5556 281.764 76.3945 278.345 67.2799C274.925 58.1653 264.764 53.5486 255.649 56.9681L199.791 77.9247C190.677 81.3442 186.06 91.5053 189.48 100.62C192.899 109.734 203.06 114.351 212.175 110.932Z" fill="white"/>
</mask>
<g mask="url(#mask5_2243_26180)">
<path d="M194.48 152.454L308.688 109.606C317.803 106.186 322.419 96.0251 319 86.9105C315.58 77.7959 305.419 73.1792 296.304 76.5987L182.096 119.447C172.981 122.866 168.365 133.027 171.784 142.142C175.204 151.257 185.365 155.873 194.48 152.454Z" fill="url(#paint4_linear_2243_26180)"/>
</g>
</g>
<mask id="mask6_2243_26180" style="mask-type:luminance" maskUnits="userSpaceOnUse" x="107" y="61" width="119" height="119">
<path d="M208.118 162.596C231.152 139.562 231.152 102.217 208.118 79.1838C185.085 56.1501 147.74 56.1501 124.706 79.1837C101.672 102.217 101.672 139.562 124.706 162.596C147.74 185.63 185.085 185.63 208.118 162.596Z" fill="white"/>
</mask>
<g mask="url(#mask6_2243_26180)">
<path d="M177.033 122.828C182.639 117.223 182.639 108.135 177.033 102.529C171.428 96.9235 162.339 96.9235 156.734 102.529C151.128 108.135 151.128 117.223 156.734 122.828C162.339 128.434 171.428 128.434 177.033 122.828Z" fill="#0A2740"/>
</g>
<mask id="mask7_2243_26180" style="mask-type:luminance" maskUnits="userSpaceOnUse" x="103" y="60" width="119" height="119">
<path d="M175.882 176.816C207.571 169.265 227.138 137.455 219.587 105.767C212.037 74.0777 180.227 54.51 148.538 62.0609C116.849 69.6117 97.2813 101.422 104.832 133.111C112.383 164.799 144.193 184.367 175.882 176.816Z" fill="white"/>
</mask>
<g mask="url(#mask7_2243_26180)">
<path d="M169.932 125.347C176.927 123.681 181.246 116.659 179.579 109.664C177.913 102.669 170.891 98.3494 163.896 100.016C156.901 101.683 152.582 108.705 154.248 115.7C155.915 122.695 162.937 127.014 169.932 125.347Z" fill="#104B8C"/>
</g>
<mask id="mask8_2243_26180" style="mask-type:luminance" maskUnits="userSpaceOnUse" x="108" y="61" width="119" height="119">
<path d="M212.631 158.551C233.417 133.468 229.934 96.2843 204.851 75.4983C179.768 54.7123 142.585 58.1954 121.798 83.278C101.012 108.361 104.496 145.544 129.578 166.33C154.661 187.116 191.845 183.633 212.631 158.551Z" fill="white"/>
</mask>
<g mask="url(#mask8_2243_26180)">
<path d="M171.381 116.405C173.432 113.931 173.088 110.263 170.614 108.213C168.14 106.163 164.472 106.506 162.422 108.98C160.371 111.455 160.715 115.123 163.189 117.173C165.663 119.223 169.331 118.88 171.381 116.405Z" fill="#0A2740"/>
</g>
<mask id="mask9_2243_26180" style="mask-type:luminance" maskUnits="userSpaceOnUse" x="101" y="59" width="119" height="119">
<path d="M160.748 177.144C193.322 177.144 219.73 150.737 219.73 118.162C219.73 85.5871 193.322 59.1799 160.748 59.1799C128.173 59.1799 101.766 85.5871 101.766 118.162C101.766 150.737 128.173 177.144 160.748 177.144Z" fill="white"/>
</mask>
<g mask="url(#mask9_2243_26180)">
<path d="M158.225 89.6251C158.925 89.3628 159.705 89.717 159.967 90.4163L168.36 112.788C168.622 113.487 168.268 114.267 167.569 114.529C166.869 114.791 166.09 114.437 165.827 113.738L157.434 91.3667C157.172 90.667 157.526 89.8876 158.225 89.6251Z" fill="#048ABF"/>
</g>
<mask id="mask10_2243_26180" style="mask-type:luminance" maskUnits="userSpaceOnUse" x="126" y="38" width="119" height="119">
<path d="M241.104 117.304C252.088 86.6379 236.133 52.8737 205.467 41.8895C174.801 30.9053 141.037 46.8604 130.053 77.5264C119.069 108.192 135.024 141.956 165.69 152.941C196.356 163.925 230.12 147.97 241.104 117.304Z" fill="white"/>
</mask>
<g mask="url(#mask10_2243_26180)">
<path d="M162.191 91.5174C162.942 89.4225 161.852 87.1159 159.757 86.3656C157.662 85.6152 155.355 86.7051 154.605 88.8001C153.854 90.895 154.944 93.2016 157.039 93.952C159.134 94.7023 161.441 93.6124 162.191 91.5174Z" fill="#048ABF"/>
</g>
<path d="M207.988 220.444C216.623 215.335 266.349 177.357 261.239 168.723C256.13 160.089 198.12 184.067 189.486 189.176C180.852 194.286 177.994 205.427 183.103 214.062C188.212 222.696 199.354 225.554 207.988 220.444Z" fill="url(#paint5_linear_2243_26180)"/>
<defs>
<linearGradient id="paint0_linear_2243_26180" x1="140.736" y1="173.027" x2="202.495" y2="193.023" gradientUnits="userSpaceOnUse">
<stop stop-color="#72E5F2"/>
<stop offset="0.2617" stop-color="#59D1E7"/>
<stop offset="0.8139" stop-color="#1B9DC9"/>
<stop offset="1" stop-color="#048ABF"/>
</linearGradient>
<linearGradient id="paint1_linear_2243_26180" x1="93.3853" y1="194.57" x2="205.022" y2="251.518" gradientUnits="userSpaceOnUse">
<stop stop-color="#72E5F2"/>
<stop offset="0.2617" stop-color="#59D1E7"/>
<stop offset="0.8139" stop-color="#1B9DC9"/>
<stop offset="1" stop-color="#048ABF"/>
</linearGradient>
<linearGradient id="paint2_linear_2243_26180" x1="142.518" y1="61.2137" x2="178.968" y2="175.082" gradientUnits="userSpaceOnUse">
<stop stop-color="#72E5F2"/>
<stop offset="0.2617" stop-color="#59D1E7"/>
<stop offset="0.8139" stop-color="#1B9DC9"/>
<stop offset="1" stop-color="#048ABF"/>
</linearGradient>
<linearGradient id="paint3_linear_2243_26180" x1="233.916" y1="112.45" x2="233.916" y2="57.8465" gradientUnits="userSpaceOnUse">
<stop stop-color="#104B8C"/>
<stop offset="0.4169" stop-color="#0B345E"/>
<stop offset="0.7969" stop-color="#07233A"/>
<stop offset="1" stop-color="#051C2D"/>
</linearGradient>
<linearGradient id="paint4_linear_2243_26180" x1="268.161" y1="105.983" x2="208.388" y2="128.41" gradientUnits="userSpaceOnUse">
<stop stop-color="#72E5F2"/>
<stop offset="0.115" stop-color="#79E8F4"/>
<stop offset="0.2863" stop-color="#8EEFF8"/>
<stop offset="0.4918" stop-color="#AFFAFF"/>
<stop offset="0.5" stop-color="#B0FBFF"/>
<stop offset="1" stop-color="#72E5F2"/>
</linearGradient>
<linearGradient id="paint5_linear_2243_26180" x1="194.541" y1="174.894" x2="238.25" y2="202.586" gradientUnits="userSpaceOnUse">
<stop stop-color="#72E5F2"/>
<stop offset="0.2617" stop-color="#59D1E7"/>
<stop offset="0.8139" stop-color="#1B9DC9"/>
<stop offset="1" stop-color="#048ABF"/>
</linearGradient>
</defs>
</svg>
