<svg width="70" height="70" viewBox="0 0 70 70" fill="none" xmlns="http://www.w3.org/2000/svg">
<circle cx="35" cy="35" r="34.5" fill="white" stroke="#CA3132"/>
<g clip-path="url(#clip0_2335_16673)">
<path d="M24.585 47.9997H23.9533V44.5879H24.5873L24.585 47.9997ZM23.9595 44.5879V42.475H24.5935V44.5903L23.9595 44.5879ZM23.9595 47.9997H23.3193V45.877H19.2464V48.0014H18V42.4727H19.2464V44.5859H23.9533V47.9977L23.9595 47.9997ZM23.9595 42.475L23.3193 42.4747V44.59H23.9641L23.9595 42.475Z" fill="#BA160C"/>
<path d="M31.1373 45.1944C31.3467 45.3268 31.5173 45.5155 31.6309 45.7403C31.7445 45.965 31.7968 46.2175 31.7822 46.4706C31.7872 46.6747 31.7514 46.8777 31.6771 47.0668C31.6028 47.256 31.4915 47.4273 31.3502 47.5701C31.2089 47.7128 31.0407 47.824 30.8559 47.8966C30.6712 47.9691 30.4739 48.0016 30.2765 47.9919H28.4533V46.7046H30.2863C30.4668 46.7046 30.557 46.5647 30.557 46.285C30.557 46.0053 30.4668 45.8667 30.2863 45.8692H28.4533V44.595H30.194C30.3745 44.595 30.4647 44.4552 30.4647 44.1755C30.4647 43.8958 30.3745 43.7567 30.194 43.7583H28.4533V42.4706H30.194C30.4041 42.4597 30.614 42.4965 30.8089 42.5782C31.0038 42.66 31.179 42.7848 31.3223 42.9439C31.5724 43.2324 31.7061 43.6089 31.6961 43.996C31.7048 44.2277 31.6584 44.458 31.561 44.667C31.4636 44.8759 31.3181 45.057 31.1373 45.1944ZM28.4533 47.998H25.1016V44.595H28.4533V45.8712H26.348V46.7079H28.4533V47.9953V47.998ZM28.4533 43.7603H26.348V44.6373L25.1016 44.6062V42.4764H28.4533V43.7637V43.7603Z" fill="#BA160C"/>
<path d="M32.3695 41.0379V40.4497H33.3V40.0924C33.3 39.965 33.2585 39.9013 33.1753 39.9013H32.3695V39.3131H33.1753C33.2699 39.3089 33.3642 39.3266 33.4512 39.3651C33.5382 39.4035 33.6158 39.4617 33.6781 39.5352C33.8062 39.6877 33.8751 39.8838 33.8715 40.0856V41.8459H33.3V41.0379H32.3695ZM39.9633 41.8459H38.0691C37.859 41.8524 37.655 41.7725 37.5018 41.6238C37.4257 41.5509 37.3655 41.4622 37.3251 41.3635C37.2847 41.2647 37.2651 41.1583 37.2675 41.0511V40.1143C37.2651 40.0072 37.2847 39.9007 37.3251 39.802C37.3655 39.7033 37.4257 39.6145 37.5018 39.5416C37.655 39.3929 37.859 39.313 38.0691 39.3195H39.9633V39.9101H38.0691C37.9163 39.9101 37.84 39.9842 37.84 40.1323V41.0623C37.84 41.2103 37.9163 41.2844 38.0691 41.2844H39.9633V41.8459ZM45.9811 41.8459H45.405V40.8719H43.9405V41.8462H43.3605V39.3131H43.9324V40.281H45.3968V39.3131H45.9729L45.9811 41.8459ZM51.9988 39.9037H49.9583V40.2834H51.8669V40.8719H49.9583V41.256H51.9959V41.8442H49.3773V39.3131H51.9906V39.9037H51.9988ZM32.3695 39.3131V39.9037H31.5571C31.4783 39.9037 31.4389 39.9674 31.4389 40.0947V40.45L32.3695 40.4497V41.041H31.4389V41.8466H30.8671V40.0924C30.8635 39.8905 30.9324 39.6944 31.0605 39.542C31.1219 39.4689 31.1984 39.411 31.2843 39.3726C31.3703 39.3342 31.4635 39.3161 31.5571 39.3199H32.3695V39.3131ZM25.9347 41.02V40.4297H26.7723C26.8554 40.4297 26.897 40.3432 26.897 40.1701C26.897 39.997 26.8554 39.9082 26.7723 39.9037H25.9347V39.3131H26.7723C26.8728 39.311 26.9723 39.3346 27.0619 39.3818C27.1515 39.429 27.2285 39.4983 27.2859 39.5836C27.4081 39.7524 27.4717 39.9587 27.4665 40.1694C27.4738 40.3812 27.4099 40.589 27.2859 40.7577C27.2285 40.843 27.1515 40.9123 27.0619 40.9595C26.9723 41.0066 26.8728 41.0302 26.7723 41.0281L25.9347 41.02ZM21.0089 41.8459H20.4328V41.0379H19.5058V40.4497H20.4351V40.0924C20.4351 39.965 20.3935 39.9013 20.3104 39.9013H19.5058V39.3131H20.3104C20.4049 39.3089 20.4992 39.3266 20.5862 39.3651C20.6732 39.4035 20.7508 39.4617 20.8131 39.5352C20.9438 39.689 21.0139 39.8878 21.0095 40.0924L21.0089 41.8459ZM25.9347 39.3131V39.9037H24.974V40.4297H25.9347V41.02L24.974 41.0204V41.8462H24.4025V39.3131H25.9347ZM19.5058 41.0379H18.5716V41.8459H18.0001V40.0924C17.9965 39.8905 18.0655 39.6944 18.1936 39.542C18.255 39.4689 18.3315 39.411 18.4174 39.3726C18.5033 39.3342 18.5965 39.3161 18.6901 39.3199H19.5058V39.9105H18.6898C18.611 39.9105 18.5716 39.9741 18.5716 40.1015V40.4568H19.5058V41.0379Z" fill="#666666"/>
<path d="M38.8497 47.9982H37.6032V46.2379H35.5739V44.9505H37.6032V44.178C37.6032 43.8999 37.513 43.7609 37.3325 43.7609H35.5745V42.4732H37.3453C37.5513 42.4675 37.756 42.5096 37.9442 42.5964C38.1324 42.6832 38.2993 42.8126 38.4327 42.9749C38.7155 43.306 38.8687 43.7341 38.8624 44.1757L38.8497 47.9982ZM35.5739 46.2379H33.5448V47.9982H32.2971V44.178C32.2908 43.7365 32.444 43.3084 32.7268 42.9772C32.8593 42.8142 33.0257 42.6842 33.2137 42.597C33.4016 42.5098 33.6062 42.4675 33.8122 42.4735H35.583V43.7609H33.8034C33.6301 43.7609 33.5435 43.8999 33.5435 44.178V44.9505H35.5729L35.5739 46.2379Z" fill="#BA160C"/>
<path d="M45.7678 46.2945C45.7785 46.7299 45.6339 47.1541 45.3616 47.4866C45.2269 47.6517 45.0582 47.7837 44.8678 47.8728C44.6774 47.9619 44.4701 48.0058 44.2611 48.0014H39.6492V46.7141H44.2615C44.4347 46.7141 44.5213 46.5742 44.5213 46.2945C44.5213 46.0148 44.4347 45.8758 44.2615 45.8774H40.9064C40.6974 45.8818 40.4901 45.8378 40.2997 45.7487C40.1093 45.6596 39.9406 45.5277 39.806 45.3625C39.5278 45.0374 39.3796 44.6153 39.3913 44.1816C39.385 43.7401 39.5382 43.312 39.821 42.9808C39.9549 42.8178 40.1225 42.6878 40.3115 42.6006C40.5005 42.5135 40.7061 42.4712 40.913 42.4771H45.5102V43.7645H40.9064C40.7332 43.7645 40.6465 43.9035 40.6465 44.1816C40.6465 44.4597 40.7332 44.5959 40.9064 44.59H44.2615C44.4705 44.5856 44.6778 44.6296 44.8682 44.7187C45.0586 44.8078 45.2273 44.9397 45.3619 45.1049C45.6336 45.4368 45.778 45.8601 45.7678 46.2945Z" fill="#BA160C"/>
<path d="M46.2891 47.9997V42.4727H51.9929V43.76H47.5355V44.5879H51.7006V45.877H47.5355V46.7137H51.9812V48.0011L46.2891 47.9997Z" fill="#BA160C"/>
<path d="M45.1235 32.6144C45.0898 32.5692 45.063 32.5191 45.0439 32.4656C44.9675 32.3082 44.8338 32.1885 44.6721 32.1326C44.5638 32.0855 44.4614 32.0251 44.367 31.9528C44.1971 31.8176 44.0554 31.7929 43.5612 31.8084C43.0194 31.8264 42.826 31.7462 42.6774 31.4467L42.6044 31.298L42.5592 31.4623C42.4712 31.7841 42.3681 31.8679 42.0951 31.8375C42.0258 31.8231 41.9542 31.8256 41.886 31.8448C41.8178 31.8641 41.7549 31.8996 41.7023 31.9484C41.6336 32.0106 41.6185 32.016 41.5517 31.9839C41.485 31.9518 41.4745 31.9528 41.41 32.0282C41.3601 32.0874 41.2895 32.1239 41.2136 32.1296C41.0545 32.1583 40.9986 32.231 40.9429 32.4339C40.8549 32.8135 40.6722 32.7178 40.5132 32.2118C40.3263 31.6435 40.4804 31.2314 41.1105 30.607C41.3363 30.4247 41.5138 30.1864 41.6264 29.9143C41.6693 29.7655 41.6758 29.7587 41.7295 29.799C42.0096 30.0545 42.2731 30.3288 42.5183 30.6201C42.7802 30.9332 42.8456 30.9863 42.8836 30.9109C42.9216 30.8355 42.6928 30.5522 42.3252 30.1627C41.5182 29.2486 40.4117 28.676 39.2196 28.5556C38.7629 28.5053 38.3012 28.5751 37.8776 28.7584C37.5845 28.8452 37.304 28.9721 37.0436 29.1357C36.5506 29.4496 36.0837 29.8053 35.6479 30.1992C35.0977 30.681 35.0977 30.681 34.3821 30.6675H33.6185C33.3298 30.6952 33.0497 30.7835 32.7953 30.9271C32.4823 31.1737 32.2126 31.474 31.9979 31.8149C31.7607 32.1995 31.4517 32.5315 31.089 32.7915C30.8117 32.9782 30.7063 33.0958 30.6743 33.2489C30.6588 33.3003 30.6575 33.3551 30.6703 33.4072C30.6832 33.4593 30.7098 33.5067 30.7473 33.5441C31.0159 33.6777 31.3019 33.7704 31.5963 33.8193C31.6756 33.834 31.7533 33.8566 31.8284 33.8869C31.6415 34.1505 31.4174 34.3836 31.1636 34.5786C30.5108 35.0963 29.8 35.5308 29.0465 35.8727C28.625 36.061 28.2273 36.3018 27.8623 36.5897C27.6754 36.7328 27.4817 36.8662 27.2819 36.9893C26.6564 37.369 25.9923 37.4112 25.7762 37.0846C25.7439 37.0321 25.7031 36.9856 25.6558 36.947C25.5574 36.8685 25.4778 36.7675 25.4234 36.652C25.369 36.5365 25.3411 36.4095 25.3419 36.2811C25.3364 36.111 25.3192 35.9415 25.2902 35.774C25.1765 35.1986 25.1649 34.6068 25.2558 34.0272C25.5316 32.6924 26.0072 31.4103 26.6656 30.227C27.3014 29.0769 28.0305 27.9845 28.8449 26.9616C29.5843 25.9717 29.5905 25.9606 29.5977 25.6053C29.5977 25.5255 29.5699 25.0326 29.5322 24.5086C29.4141 22.8747 29.4668 22.2222 29.7709 21.6228C29.8538 21.4706 29.9655 21.3372 30.0993 21.2304C30.2331 21.1236 30.3863 21.0456 30.5499 21.0011C30.6939 20.99 30.724 21.0546 30.7649 21.4694C30.7973 22.0418 30.905 22.6071 31.085 23.1496C31.1655 23.5177 31.3395 23.857 31.5891 24.1326C31.8837 24.4301 32.0189 24.4589 32.7675 24.3548C35.386 24.0167 37.2809 24.2239 38.8347 25.0207C40.2768 25.7577 41.7252 27.1962 43.0041 29.156L43.2469 29.5278L43.5088 29.6188C44.0925 29.7911 44.6019 30.1637 44.9529 30.6752C45.175 31.0758 45.3113 31.5209 45.3526 31.9805C45.3784 32.4132 45.3526 32.611 45.2387 32.6465C45.219 32.6496 45.1988 32.6468 45.1806 32.6386C45.1623 32.6303 45.1467 32.6169 45.1356 32.5999L45.1235 32.6144ZM44.8943 31.7692C44.8632 31.6342 44.8215 31.5021 44.7696 31.374C44.5908 30.8591 44.2224 30.4378 43.7445 30.202C43.3756 29.9868 42.9638 29.8623 42.5409 29.8379C42.4849 29.8578 42.4849 29.869 42.5409 29.991C42.6217 30.1343 42.7145 30.27 42.8181 30.3967C42.9216 30.5221 43.0143 30.6564 43.0954 30.7983C43.1471 30.9116 43.1491 30.9403 43.1082 31.0204C43.0803 31.0709 43.0365 31.1101 42.9842 31.1315C42.9318 31.1529 42.8739 31.1552 42.8201 31.1381C42.7579 31.1249 42.7039 31.1201 42.6997 31.1381C42.7068 31.1831 42.7229 31.2261 42.7468 31.2645C42.8607 31.4866 43.0198 31.5285 43.5677 31.5086C44.3693 31.4748 44.552 31.5265 44.784 31.8392C44.8335 31.9068 44.9022 31.8659 44.8937 31.7716L44.8943 31.7692ZM27.1909 36.7851C27.3692 36.6775 27.5421 36.5605 27.7087 36.4345C28.1614 36.1035 28.6402 35.8124 29.1401 35.5644C29.7308 35.2716 30.2972 34.9294 30.8337 34.541C31.0831 34.35 31.2978 34.1438 31.285 34.0971C31.2121 34.0629 31.135 34.039 31.0559 34.0262C30.8734 33.9752 30.6957 33.9073 30.525 33.8233C30.4173 33.7641 30.3043 33.7157 30.1875 33.679C30.0325 33.7977 29.9036 33.949 29.8092 34.1228C29.3319 34.8264 29.1408 35.0106 28.2017 35.5765C27.8938 35.7343 27.6187 35.9524 27.3916 36.2189C27.254 36.4201 27.0803 36.5923 26.88 36.726C26.7539 36.8077 26.62 36.8757 26.4803 36.9288C26.1903 37.0302 26.188 37.1354 26.4803 37.0887C26.7322 37.0291 26.9731 36.928 27.1939 36.7892L27.1909 36.7851ZM40.9711 31.9017C41.0029 31.8424 41.0443 31.7891 41.0935 31.7442L41.1946 31.6489H41.4761C41.7829 31.6551 42.0837 31.5612 42.3357 31.3805L42.4581 31.2006C42.501 31.1384 42.5527 31.0961 42.5848 31.0961H42.6384C42.6384 31.0961 41.9334 30.2794 41.8778 30.2347L41.8123 30.1813L41.7111 30.3433C41.6552 30.4322 41.4513 30.6962 41.2598 30.9315C40.7688 31.5329 40.6379 31.7973 40.7482 31.9724C40.7809 32.0235 40.8061 32.0322 40.8686 32.0103C40.912 31.995 40.9482 31.9632 40.9698 31.9214L40.9711 31.9017ZM28.7663 34.3433C28.8132 34.2971 28.8511 34.2422 28.8779 34.1813C28.9296 33.9416 28.4717 34.1235 28.4115 34.3679C28.3964 34.4322 28.4115 34.4457 28.4524 34.4724C28.5107 34.4811 28.5702 34.4738 28.625 34.4512C28.6797 34.4286 28.7276 34.3915 28.764 34.3436L28.7663 34.3433ZM29.4347 33.4132C29.6475 33.2662 29.8494 33.1029 30.0386 32.9247C30.2041 32.7335 30.3077 32.4937 30.3352 32.2388C30.3525 32.1204 30.3866 32.0052 30.4363 31.897C30.471 31.8411 30.491 31.7768 30.4942 31.7104C30.4212 31.4883 29.6475 31.6462 29.2219 31.97C28.7061 32.3629 28.3624 33.1665 28.4914 33.6326C28.5752 33.919 28.73 33.8791 29.4285 33.396L29.4347 33.4132ZM40.5158 28.5478C40.3829 28.4131 40.2277 28.3041 40.0575 28.226C39.6767 28.0556 39.2647 27.9723 38.8497 27.9819C38.5145 27.9687 38.3705 27.942 38.3512 27.8842C38.3525 27.8485 38.362 27.8138 38.379 27.7827C38.4821 27.5606 39.2926 27.5052 39.9286 27.6627C40.2065 27.7343 40.4776 27.8316 40.7387 27.9535C40.9387 28.0468 40.9678 28.0549 40.9537 27.9978C40.8219 27.8095 40.6549 27.6503 40.4628 27.5295C39.793 27.0852 38.9991 26.8837 38.2062 26.9569C37.6311 26.9779 37.0729 27.1631 36.5935 27.492C36.1373 27.8705 35.762 28.3424 35.4911 28.8781C35.2657 29.3302 35.0099 29.7656 34.7258 30.181C34.6667 30.2445 34.6213 30.3202 34.5926 30.4031C34.6586 30.4245 34.728 30.4321 34.7968 30.4254H34.9818L35.3278 30.0873C35.8841 29.5137 36.5182 29.0267 37.2102 28.6414C38.1274 28.2322 39.1567 28.1778 40.1096 28.4883C40.4297 28.5816 40.5393 28.5972 40.5158 28.5505V28.5478ZM33.8057 33.5934C32.9243 33.7884 32.0105 33.7625 31.1407 33.518C30.9538 33.4626 30.8936 33.4315 30.8657 33.3693C30.797 33.2161 30.9067 33.0742 31.2585 32.8588C31.6158 32.624 31.9159 32.3073 32.1354 31.9332C32.6555 31.2006 32.8882 30.992 33.3413 30.8632C33.71 30.785 34.0876 30.7603 34.463 30.7898C35.6129 30.7898 36.8423 30.803 36.9431 30.8297C37.1722 30.8876 36.9968 31.4602 36.5929 31.9683C36.2437 32.3893 35.8235 32.7413 35.3526 33.0072C34.8553 33.2493 34.3382 33.4453 33.8074 33.5931L33.8057 33.5934ZM25.9055 31.4068C25.8586 31.3069 25.8226 31.2019 25.7982 31.0938C25.6344 30.3987 25.7207 29.6658 26.041 29.0316C26.1439 28.8254 26.2909 28.6462 26.4708 28.5076C26.5612 28.4765 26.6515 28.5542 26.8102 28.8071C26.8764 28.919 26.9566 29.0213 27.0489 29.1114C27.096 29.1452 27.1327 29.179 27.1284 29.1847L26.9134 29.5197C26.6073 30.0191 26.3331 30.5386 26.0924 31.0748C25.9592 31.3835 25.9248 31.4389 25.896 31.4011L25.9055 31.4068Z" fill="#050505"/>
</g>
<defs>
<clipPath id="clip0_2335_16673">
<rect width="34" height="27" fill="white" transform="translate(18 21)"/>
</clipPath>
</defs>
</svg>
