<svg width="70" height="70" viewBox="0 0 70 70" fill="none" xmlns="http://www.w3.org/2000/svg">
<circle cx="35" cy="35" r="34.5" fill="white" stroke="#00678F"/>
<g clip-path="url(#clip0_2335_16602)">
<path d="M13.0088 44.0665H14.4642V38.5222L16.7002 43.3413C16.7883 43.6075 16.969 43.8349 17.2108 43.984C17.4526 44.1331 17.7401 44.1944 18.0233 44.1573C18.3065 44.1944 18.594 44.1331 18.8358 43.984C19.0776 43.8349 19.2583 43.6075 19.3464 43.3413L21.5824 38.5222V44.0669H23.0378V38.5222C23.0686 38.3065 23.0127 38.0875 22.8819 37.9113C22.7511 37.7351 22.5558 37.6154 22.3367 37.5775C21.2387 37.2275 20.5372 37.5388 20.1802 38.264L17.9838 43.0444L15.8268 38.2631C15.5227 37.5374 14.7702 37.2784 13.6704 37.5766C13.4592 37.624 13.2739 37.7476 13.1514 37.9226C13.0288 38.0976 12.9779 38.3113 13.0088 38.5213V44.0665Z" fill="#00678F"/>
<path d="M24.1719 39.5504H25.6272V42.6093C25.6272 42.7776 25.6668 43.1663 26.4606 43.1663H29.5847V39.5117H31.0401V44.4991C31.0401 45.7429 29.5052 46.0021 28.7513 46.0021H24.1719V45.0574H28.6967C29.6228 44.9674 29.53 44.5005 29.53 44.371V43.9823H26.5006C25.098 43.9823 24.1719 43.3345 24.1719 42.648V39.5518V39.5504Z" fill="#00678F"/>
<path d="M55.0586 36.0116C54.3267 35.9675 53.5931 36.0687 52.9022 36.3095C52.7304 36.3994 52.4657 36.3994 52.4657 36.5685C52.5576 36.6585 52.5576 36.789 52.6375 36.9185C52.7793 37.1706 52.973 37.3911 53.2063 37.5663C53.4314 37.7345 53.696 37.9163 53.9073 38.0845C54.3438 38.3436 54.8335 38.5118 55.2304 38.771C55.4951 38.9392 55.7202 39.121 55.9715 39.2892C56.1038 39.3791 56.1966 39.5096 56.3289 39.587V39.5483C56.237 39.4583 56.237 39.2892 56.1571 39.1983C56.0515 39.0844 55.9314 38.9843 55.7997 38.9005C55.4882 38.479 55.103 38.115 54.6617 37.8254C54.3043 37.5663 53.5237 37.2685 53.3914 36.8807H53.3519C53.6166 36.842 53.8811 36.7512 54.093 36.7125C54.4899 36.6225 54.794 36.6225 55.1909 36.5442C55.3727 36.5059 55.55 36.4495 55.7202 36.376V36.286C55.4951 36.0656 55.3628 35.8065 55.1514 35.6383C54.5818 35.1558 53.9806 34.7101 53.3519 34.3041C52.9945 34.0836 52.558 33.9541 52.214 33.7471C52.0816 33.6572 51.8566 33.6572 51.7776 33.5267C51.5963 33.2745 51.4495 33.0002 51.3411 32.7107C51.0369 32.1146 50.7323 31.4669 50.4149 30.8213C50.2494 30.3966 50.0595 29.9813 49.8461 29.5775C48.8229 27.8798 47.3512 26.4836 45.586 25.5357C45.1489 25.3109 44.6736 25.1661 44.1834 25.1084C43.9188 25.1084 43.6146 25.0697 43.3501 25.0697C43.1782 24.9797 42.9926 24.7719 42.8208 24.681C42.331 24.2923 40.7172 23.4372 40.2673 24.5514C39.9633 25.2379 40.7038 25.9248 40.9684 26.3135C41.1803 26.5682 41.3704 26.8395 41.5372 27.1245C41.5604 27.3144 41.6048 27.5011 41.6695 27.6814C41.8413 28.161 42.027 28.6661 42.2383 29.1065C42.3705 29.327 42.5029 29.5861 42.6352 29.793C42.727 29.9226 42.8999 29.9612 42.8999 30.1817C42.7703 30.4391 42.6812 30.7142 42.6352 30.9977C42.4393 31.5899 42.3652 32.2143 42.4174 32.8348C42.4697 33.4552 42.647 34.0593 42.9394 34.6122C43.1111 34.8713 43.5481 35.4669 44.0773 35.26C44.567 35.0395 44.4742 34.444 44.6065 33.9257C44.646 33.7961 44.6065 33.7053 44.6984 33.6279V33.6666C44.8625 33.9599 45.0083 34.2628 45.1349 34.5735C45.5399 35.1321 46.0309 35.6259 46.5903 36.0373C46.8227 36.2885 47.0899 36.5065 47.3841 36.685V36.6463H47.3446C47.2528 36.5564 47.1728 36.5168 47.08 36.426C46.8644 36.2333 46.6735 36.0158 46.5112 35.7782C46.0334 35.1601 45.6211 34.4961 45.2809 33.7961C45.1091 33.4462 44.9236 33.1097 44.7912 32.7615C44.6994 32.632 44.6994 32.4115 44.6194 32.3729C44.4208 32.5985 44.2436 32.8413 44.0902 33.0984C43.9082 33.6252 43.8058 34.1752 43.786 34.731C43.7465 34.731 43.7465 34.731 43.7465 34.7696C43.3891 34.6796 43.2568 34.3423 43.1378 34.044C42.7752 33.1188 42.7429 32.1007 43.0459 31.1551C43.1378 30.9347 43.4428 30.2105 43.3105 29.9891C43.2186 29.7687 43.0064 29.6392 42.9136 29.5096C42.7692 29.2877 42.6367 29.0586 42.5167 28.8231C42.252 28.2271 42.1197 27.5276 41.8156 26.9338C41.6632 26.6387 41.4719 26.3644 41.2469 26.1178C41.0173 25.852 40.8135 25.5659 40.6382 25.2631C40.5987 25.1335 40.5058 24.9653 40.5987 24.8357C40.6087 24.7987 40.631 24.7659 40.6621 24.7424C40.6931 24.719 40.7312 24.7063 40.7704 24.7062C40.9027 24.5766 41.3392 24.7449 41.4715 24.7962C41.8592 24.9374 42.228 25.1244 42.5695 25.3531C42.7259 25.5068 42.9042 25.6377 43.0987 25.7417H43.3238C43.6813 25.8317 44.0649 25.7804 44.4219 25.8713C44.9723 26.0658 45.5037 26.3087 46.0096 26.5969C47.4766 27.5015 48.6619 28.783 49.4364 30.3018C49.5687 30.5609 49.6082 30.7813 49.7404 31.0274C49.9656 31.5456 50.2698 32.1025 50.4815 32.6207C50.6687 33.1453 50.9363 33.6389 51.2754 34.0845C51.4472 34.3049 52.1088 34.4345 52.4133 34.564C52.6705 34.6373 52.9188 34.7371 53.1544 34.8619C53.5513 35.0822 53.8955 35.3414 54.2524 35.5874C54.4143 35.5775 54.5759 35.6122 54.7185 35.6878C54.8612 35.7634 54.9794 35.8767 55.0596 36.0148L55.0586 36.0116Z" fill="#00678F"/>
<path d="M43.8583 26.6328C43.6865 26.6328 43.5542 26.6715 43.4219 26.6715V26.7102H43.4614C43.5706 26.8603 43.6901 27.0031 43.8188 27.1375C43.9106 27.3058 43.9906 27.4875 44.0835 27.6558V27.6171C44.2157 27.5271 44.2553 27.358 44.2553 27.0988C44.2317 27.0153 44.186 26.9393 44.123 26.8784C44.0701 26.7619 43.9392 26.7232 43.8583 26.6328Z" fill="#00678F"/>
<path d="M32.0762 44.0697H36.2041C36.6591 44.078 37.1105 43.9897 37.5272 43.8106C38.136 43.5128 38.4534 43.1628 38.4534 42.6446V41.61C38.4534 41.2213 38.096 40.8327 37.4477 40.5753C37.0538 40.4328 36.6374 40.3582 36.2175 40.3549H34.4583C33.8896 40.3549 33.5854 40.1867 33.5322 39.798V38.8911C33.624 38.5933 33.7573 38.5025 34.2732 38.4638H38.4939V37.5191H34.4446C34.0432 37.5024 33.6416 37.546 33.2538 37.6486C32.4204 37.9078 32.0234 38.3351 32.0234 39.0221V39.8381C32.0234 40.4858 32.7645 41.004 33.9948 41.1336H36.0985C36.5349 41.1723 36.76 41.2631 36.8923 41.4313C36.9317 41.4631 36.9637 41.5026 36.9865 41.5472C37.0093 41.5918 37.0223 41.6406 37.0246 41.6905V42.5065C36.9915 42.6444 36.9122 42.7676 36.7995 42.8565C36.6206 42.9822 36.4102 43.0584 36.1908 43.0769H32.102V44.0616H32.0754L32.0762 44.0697Z" fill="#E38D1A"/>
<path d="M47.4274 42.4247C47.4274 43.3694 48.1684 43.9276 49.6239 44.0181C49.7562 44.0181 49.8885 44.0568 50.0603 44.0568H53.7912V43.1121H50.0074C49.1741 43.1121 48.8695 42.8917 48.8695 42.4256V37.5664H47.4141V42.4247H47.4274Z" fill="#E38D1A"/>
<path d="M39.3791 42.4764V39.1211C39.3791 38.2664 39.9878 37.7477 41.1786 37.5664H44.6978C45.8885 37.7346 46.4973 38.2529 46.4973 39.1211V42.4764C46.5305 42.7531 46.4659 43.0327 46.3144 43.2683C46.1627 43.5041 45.9332 43.6819 45.6639 43.772L47.0665 45.0158H45.3974L44.2595 43.9811L43.1215 44.0712H41.5866C41.3037 44.0695 41.0228 44.0258 40.7532 43.9415C39.8537 43.7212 39.375 43.242 39.375 42.4778L39.3791 42.4764ZM40.9535 42.3865C40.9535 42.4252 40.9931 42.4764 40.9931 42.516C41.0849 42.9047 41.4295 43.1121 41.9987 43.1121H43.3218L42.131 42.0369H43.7582L44.8149 42.9816C44.9089 42.935 44.9902 42.8672 45.0524 42.7838C45.1145 42.7005 45.1556 42.6039 45.1723 42.5021V39.0563C45.0804 38.6676 44.7359 38.4994 44.1667 38.4994H42.0101C41.3486 38.4994 40.9535 38.7585 40.9535 39.1859V42.3865Z" fill="#E38D1A"/>
<path d="M54.4448 44.0658H54.6698V43.2885H54.9345V43.1211H54.1406V43.2894H54.4448V44.0658ZM56.0191 44.0658H56.2443V43.1211H55.9401L55.6756 43.7689L55.4109 43.1211H55.1054V44.0658H55.2772V43.3416L55.5419 44.0671H55.6742L55.9388 43.3416V44.0658H56.0191Z" fill="#E38D1A"/>
</g>
<defs>
<clipPath id="clip0_2335_16602">
<rect width="44" height="22" fill="white" transform="translate(13 24)"/>
</clipPath>
</defs>
</svg>
