<svg width="70" height="70" viewBox="0 0 70 70" fill="none" xmlns="http://www.w3.org/2000/svg">
<circle cx="35" cy="35" r="34.5" fill="white" stroke="#728E9B"/>
<g clip-path="url(#clip0_2335_16689)">
<path d="M19.7026 31.2014V32.3966H19.7397C19.9771 31.9277 20.3458 31.5415 20.7989 31.2874C21.2584 31.0468 21.7691 30.9258 22.2855 30.9353C22.6289 30.9122 22.9734 30.9608 23.2977 31.0782C23.6221 31.1957 23.9196 31.3794 24.1721 31.6182C24.6119 32.0735 24.8317 32.8135 24.8316 33.8381V41.4089H22.2669V34.3699C22.3043 33.9809 22.2128 33.5903 22.0069 33.2608C21.8989 33.1486 21.7679 33.0623 21.6233 33.0082C21.4786 32.954 21.324 32.9334 21.1706 32.9477C20.2666 32.9477 19.8146 33.5106 19.8146 34.6363V41.4086H17.25V31.2014H19.7026Z" fill="#728E9B"/>
<path d="M29.119 27.7109H26.5547V29.9497H29.119V27.7109Z" fill="#728E9B"/>
<path d="M29.119 31.2031H26.5547V41.4107H29.119V31.2031Z" fill="#728E9B"/>
<path d="M46.5511 41.5584C45.8919 41.5584 45.2391 41.4258 44.63 41.1682C44.021 40.9106 43.4676 40.533 43.0014 40.057C42.5353 39.5811 42.1655 39.016 41.9133 38.3941C41.661 37.7722 41.5312 37.1056 41.5313 36.4325C41.5313 33.9966 43.4011 31.6596 44.6801 29.9551C45.3715 29.0388 45.9802 28.0605 46.499 27.0322C46.504 27.0225 46.5115 27.0143 46.5207 27.0087C46.5298 27.003 46.5404 27 46.5511 27C46.5619 27 46.5724 27.003 46.5816 27.0087C46.5908 27.0143 46.5983 27.0225 46.6033 27.0322C47.1221 28.0605 47.731 29.0388 48.4224 29.9551C49.7012 31.6596 51.5716 33.995 51.5716 36.4325H48.5082C48.4769 36.4325 48.4469 36.4452 48.4248 36.4678C48.4027 36.4903 48.3903 36.521 48.3903 36.5529V38.3107H46.6693C46.6539 38.3107 46.6385 38.3138 46.6242 38.3199C46.6099 38.3259 46.5969 38.3348 46.586 38.346C46.575 38.3571 46.5663 38.3704 46.5604 38.385C46.5545 38.3996 46.5514 38.4153 46.5514 38.4311L46.5511 41.5584Z" fill="#728E9B"/>
<path d="M48.5146 40.3141V38.6406H46.9929C46.9616 38.6406 46.9316 38.6533 46.9095 38.6759C46.8874 38.6985 46.875 38.7291 46.875 38.761V40.3145L48.5146 40.3141Z" fill="#728E9B"/>
<path d="M46.875 41.9849C47.4355 41.9743 47.9901 41.8654 48.5146 41.6631V40.8203H46.9929C46.9774 40.8203 46.9621 40.8234 46.9478 40.8295C46.9335 40.8355 46.9205 40.8444 46.9095 40.8556C46.8986 40.8668 46.8899 40.88 46.884 40.8946C46.8781 40.9092 46.875 40.9249 46.875 40.9407V41.9849Z" fill="#728E9B"/>
<path d="M50.3502 38.4352V36.7617H48.8288C48.7976 36.7617 48.7676 36.7744 48.7455 36.797C48.7234 36.8196 48.7109 36.8502 48.7109 36.8821V38.4352H50.3502Z" fill="#728E9B"/>
<path d="M50.5469 40.5144L50.5489 40.5123C50.6126 40.446 50.648 40.3568 50.6474 40.264V38.9414H49.0078V40.6155H50.3019C50.3473 40.616 50.3922 40.6073 50.4343 40.5899C50.4763 40.5726 50.5146 40.5469 50.5469 40.5144Z" fill="#728E9B"/>
<path d="M49.125 41.9989C49.5631 41.8069 49.9715 41.5507 50.3372 41.2383H49.125V41.9989Z" fill="#728E9B"/>
<path d="M51.6767 38.4352C51.8751 37.9 51.9818 37.3339 51.9921 36.7617H50.8516V38.4352H51.6767Z" fill="#728E9B"/>
<path d="M51.2578 40.2924C51.5637 39.919 51.8146 39.5021 52.0024 39.0547H51.2578V40.2924Z" fill="#728E9B"/>
<path d="M51.2578 40.2924C51.5637 39.919 51.8146 39.5021 52.0024 39.0547H51.2578V40.2924Z" fill="#728E9B"/>
<path d="M17.8973 27.9531L18.3592 29.7356H17.9925L17.9118 29.3594H17.4463L17.3655 29.7356H17L17.4619 27.9531H17.8973ZM17.851 29.0638L17.6821 28.2631H17.678L17.5085 29.0638H17.851Z" fill="#B9C6CD"/>
<path d="M19.1786 27.9534C19.2564 27.9508 19.3338 27.9666 19.4047 27.9994C19.4623 28.0274 19.5127 28.0686 19.5521 28.1198C19.5901 28.1707 19.6176 28.2288 19.6329 28.2908C19.6492 28.3548 19.6574 28.4206 19.6573 28.4868C19.6591 28.5689 19.6454 28.6507 19.6169 28.7275C19.5929 28.7915 19.5543 28.8488 19.5043 28.8946C19.4536 28.9394 19.3941 28.9727 19.3298 28.9921C19.256 29.0144 19.1793 29.0253 19.1022 29.0243H18.9139V29.7359H18.5625V27.9534H19.1786ZM19.071 28.7598C19.1021 28.7611 19.1332 28.756 19.1624 28.7448C19.1915 28.7336 19.2182 28.7166 19.2408 28.6947C19.2643 28.6672 19.2822 28.6351 19.2933 28.6003C19.3045 28.5656 19.3087 28.5289 19.3057 28.4925C19.3106 28.4197 19.2908 28.3474 19.2496 28.2878C19.2254 28.2625 19.196 28.243 19.1634 28.231C19.1309 28.2189 19.096 28.2144 19.0616 28.218H18.9142V28.7598H19.071Z" fill="#B9C6CD"/>
<path d="M20.5304 27.9531L20.9924 29.7356H20.6254L20.5446 29.3594H20.0791L19.9983 29.7356H19.6328L20.0947 27.9531H20.5304ZM20.4841 29.0638L20.3152 28.2631H20.3105L20.1422 29.0638H20.4841Z" fill="#B9C6CD"/>
<path d="M21.8623 28.273C21.8463 28.2433 21.8222 28.219 21.7928 28.2033C21.7635 28.1875 21.7302 28.1808 21.6972 28.1842C21.6579 28.1826 21.6193 28.1954 21.5884 28.2203C21.5555 28.252 21.5321 28.2928 21.5212 28.3377C21.5025 28.4065 21.491 28.4771 21.487 28.5484C21.4804 28.6359 21.4771 28.7428 21.4773 28.8692C21.4761 28.9785 21.4805 29.0877 21.4906 29.1964C21.4957 29.2626 21.5096 29.3277 21.5321 29.39C21.5448 29.428 21.5698 29.4606 21.6029 29.4824C21.6334 29.4987 21.6675 29.5069 21.7019 29.5062C21.7317 29.5064 21.7612 29.5009 21.7889 29.4899C21.8184 29.4766 21.8429 29.4537 21.8585 29.4249C21.8816 29.3822 21.8974 29.3358 21.905 29.2876C21.9179 29.2106 21.9238 29.1325 21.9224 29.0544H22.2744C22.2748 29.1463 22.2674 29.2382 22.2523 29.3289C22.2398 29.4094 22.212 29.4866 22.1703 29.5561C22.1293 29.622 22.0708 29.6748 22.0017 29.7084C21.9129 29.7483 21.8163 29.7671 21.7193 29.7632C21.6106 29.7683 21.5022 29.7459 21.4039 29.6982C21.3266 29.656 21.2639 29.5907 21.2241 29.511C21.1797 29.4196 21.1523 29.3206 21.1433 29.219C21.1305 29.0946 21.1244 28.9696 21.125 28.8446C21.1245 28.7199 21.1306 28.5953 21.1433 28.4713C21.1523 28.3694 21.1796 28.2699 21.2241 28.1782C21.2644 28.0979 21.327 28.0316 21.4039 27.9873C21.5015 27.9371 21.6102 27.9135 21.7193 27.9187C21.8219 27.9136 21.9241 27.935 22.0165 27.981C22.0839 28.0175 22.1402 28.0723 22.1792 28.1393C22.2149 28.2031 22.2378 28.2735 22.2464 28.3464C22.2551 28.4155 22.2596 28.4851 22.26 28.5547H21.9077C21.9134 28.4581 21.8979 28.3615 21.8623 28.2718V28.273Z" fill="#B9C6CD"/>
<path d="M22.9067 27.9531V28.6346H23.3176V27.9531H23.6696V29.7356H23.3176V28.9434H22.9067V29.7356H22.5547V27.9531H22.9067Z" fill="#B9C6CD"/>
<path d="M24.9676 28.2478H24.3442V28.6674H24.9308V28.9618H24.3442V29.4409H24.9927V29.7353H23.9922V27.9531H24.9676V28.2478Z" fill="#B9C6CD"/>
<path d="M30.3672 32.9854V31.202H31.6678V30.045C31.6575 29.6507 31.7205 29.258 31.8535 28.8877C31.9631 28.5921 32.1459 28.3307 32.3841 28.1289C32.6324 27.9299 32.9213 27.7905 33.2295 27.721C33.5951 27.6353 33.9693 27.594 34.3444 27.5979C34.8025 27.5979 35.2608 27.6169 35.7193 27.6548V29.5143C35.6334 29.4996 35.5464 29.4929 35.4593 29.4945H35.2176C34.9501 29.4692 34.6819 29.5359 34.4558 29.6841C34.3752 29.7648 34.3134 29.863 34.2748 29.9713C34.2361 30.0796 34.2218 30.1954 34.2327 30.3102V31.2014H35.7193V32.9851H34.2327V41.4096H31.6681V32.9854H30.3672Z" fill="#B9C6CD"/>
<path d="M39.8065 27.7109H37.2422V29.9497H39.8065V27.7109Z" fill="#B9C6CD"/>
<path d="M39.8065 31.2031H37.2422V41.4107H39.8065V31.2031Z" fill="#B9C6CD"/>
<path d="M45.442 29.4824C45.3494 29.6146 45.258 29.7476 45.1649 29.8785C44.8701 30.2927 44.5611 30.6951 44.2578 31.1024C44.3757 31.1192 44.4949 31.1379 44.6154 31.1584C44.8674 30.7261 45.126 30.2966 45.3683 29.8578C45.4361 29.735 45.5027 29.611 45.5699 29.4875C45.623 29.3906 45.4997 29.4003 45.442 29.4824Z" fill="#B9C6CD"/>
<path d="M44.2468 31.8052C44.2913 31.7261 44.3376 31.6469 44.3827 31.5662C44.2469 31.5393 44.1111 31.5147 43.9753 31.4922C43.5454 32.0798 43.1528 32.695 42.8 33.334C42.1689 34.5024 41.7311 35.8084 41.9322 37.1566C42.1033 38.277 42.6578 39.2993 43.4972 40.0419C43.6756 40.1994 43.8656 40.3426 44.0655 40.4705C44.078 40.4805 44.0939 40.4851 44.1097 40.4831C44.1255 40.4812 44.1399 40.4729 44.1497 40.4601C44.1595 40.4474 44.1639 40.4311 44.162 40.415C44.1601 40.3989 44.152 40.3842 44.1395 40.3742C43.4897 39.7334 43.0207 38.9259 42.7817 38.0364C42.4062 36.6217 42.7184 35.1718 43.2534 33.8448C43.5424 33.1444 43.8742 32.4632 44.2468 31.8052Z" fill="#B9C6CD"/>
</g>
<defs>
<clipPath id="clip0_2335_16689">
<rect width="35" height="15" fill="white" transform="translate(17 27)"/>
</clipPath>
</defs>
</svg>
