<svg width="70" height="70" viewBox="0 0 70 70" fill="none" xmlns="http://www.w3.org/2000/svg">
<circle cx="35" cy="35" r="34.5" fill="white" stroke="#CA3132"/>
<g clip-path="url(#clip0_2335_16656)">
<path d="M30.6408 35.228H33.9582L32.2094 32.4029L28.9921 37.5075H27.5273L31.4418 31.392C31.5282 31.2708 31.6424 31.1719 31.7748 31.1038C31.9072 31.0356 32.0539 31 32.2028 31C32.3517 31 32.4985 31.0356 32.6308 31.1038C32.7632 31.1719 32.8774 31.2708 32.9638 31.392L36.8871 37.5227H35.4179L34.7346 36.3811H31.3791L30.6408 35.228ZM45.8379 36.3696V31.0496H44.5962V36.8885C44.5954 36.9685 44.6106 37.0478 44.641 37.1218C44.6714 37.1958 44.7163 37.2629 44.7731 37.3192C44.8322 37.3804 44.9034 37.4287 44.982 37.4611C45.0607 37.4935 45.1452 37.5093 45.2303 37.5075H50.8913L51.6256 36.3659H45.8396L45.8379 36.3696ZM25.2979 35.4201C25.876 35.4201 26.4303 35.1904 26.839 34.7817C27.2478 34.373 27.4774 33.8186 27.4774 33.2406C27.4774 32.6626 27.2478 32.1082 26.839 31.6995C26.4303 31.2907 25.876 31.0611 25.2979 31.0611H19.8667V37.519H21.1084V32.2027H25.208C25.3453 32.2025 25.4813 32.2296 25.6081 32.2824C25.7348 32.3352 25.8498 32.4126 25.9464 32.5102C26.043 32.6079 26.1192 32.7237 26.1706 32.8511C26.222 32.9784 26.2475 33.1147 26.2458 33.252C26.2469 33.5291 26.1384 33.7953 25.944 33.9926C25.7495 34.1899 25.485 34.3024 25.208 34.3054H21.7153L25.4246 37.5342H27.2237L24.7406 35.4201H25.2979ZM12.2288 37.5075C11.3725 37.5075 10.5512 37.1674 9.94569 36.5619C9.34018 35.9564 9 35.1351 9 34.2788C9 33.4224 9.34018 32.6012 9.94569 31.9957C10.5512 31.3902 11.3725 31.05 12.2288 31.05H15.9752C16.8315 31.05 17.6527 31.3902 18.2582 31.9957C18.8638 32.6012 19.2039 33.4224 19.2039 34.2788C19.2039 35.1351 18.8638 35.9564 18.2582 36.5619C17.6527 37.1674 16.8315 37.5075 15.9752 37.5075H12.2288ZM15.9034 36.3696C16.4575 36.3696 16.9889 36.1495 17.3806 35.7577C17.7724 35.3659 17.9925 34.8345 17.9925 34.2805C17.9925 33.7264 17.7724 33.195 17.3806 32.8032C16.9889 32.4114 16.4575 32.1913 15.9034 32.1913H12.3174C12.0431 32.1905 11.7712 32.2438 11.5175 32.3481C11.2637 32.4524 11.033 32.6057 10.8385 32.7991C10.6439 32.9926 10.4894 33.2225 10.3837 33.4757C10.278 33.7289 10.2233 34.0004 10.2225 34.2747C10.2218 34.5491 10.275 34.8209 10.3793 35.0746C10.4836 35.3284 10.6369 35.5591 10.8304 35.7537C11.0238 35.9482 11.2537 36.1027 11.5069 36.2084C11.7601 36.3141 12.0316 36.3689 12.3059 36.3696H15.9034ZM39.4817 37.5075C38.6254 37.5075 37.8041 37.1674 37.1986 36.5619C36.5931 35.9564 36.2529 35.1351 36.2529 34.2788C36.2529 33.4224 36.5931 32.6012 37.1986 31.9957C37.8041 31.3902 38.6254 31.05 39.4817 31.05H43.9408L43.2065 32.1916H39.5586C39.2817 32.1881 39.007 32.2396 38.7502 32.3431C38.4934 32.4466 38.2597 32.6001 38.0627 32.7946C37.8657 32.9891 37.7093 33.2208 37.6025 33.4762C37.4958 33.7317 37.4408 34.0058 37.4408 34.2826C37.4408 34.5595 37.4958 34.8336 37.6025 35.089C37.7093 35.3445 37.8657 35.5762 38.0627 35.7707C38.2597 35.9652 38.4934 36.1187 38.7502 36.2222C39.007 36.3257 39.2817 36.3772 39.5586 36.3737H44.0291L43.2948 37.5153H39.4817V37.5075ZM54.665 36.3696C54.2105 36.3672 53.769 36.2181 53.4061 35.9445C53.0432 35.6709 52.7784 35.2875 52.6509 34.8513H57.9554L58.6897 33.7096H52.6469C52.7742 33.2726 53.0396 32.8884 53.4033 32.6147C53.7671 32.341 54.2097 32.1925 54.665 32.1913H58.3129L59.0472 31.0496H54.5881C54.1641 31.0496 53.7443 31.1332 53.3525 31.2954C52.9608 31.4577 52.6049 31.6955 52.305 31.9953C52.0052 32.2952 51.7674 32.6511 51.6051 33.0428C51.4429 33.4346 51.3594 33.8544 51.3594 34.2784C51.3594 34.7024 51.4429 35.1223 51.6051 35.514C51.7674 35.9058 52.0052 36.2617 52.305 36.5615C52.6049 36.8614 52.9608 37.0992 53.3525 37.2614C53.7443 37.4237 54.1641 37.5072 54.5881 37.5072H58.4245L59.1587 36.3656H54.665V36.3696Z" fill="#ED1C24"/>
<path d="M59.7125 31.7348C59.7125 31.6223 59.7458 31.5123 59.8083 31.4188C59.8708 31.3252 59.9597 31.2523 60.0636 31.2093C60.1675 31.1662 60.2819 31.155 60.3922 31.1769C60.5026 31.1989 60.6039 31.253 60.6835 31.3326C60.763 31.4121 60.8172 31.5135 60.8391 31.6238C60.8611 31.7341 60.8498 31.8485 60.8067 31.9524C60.7637 32.0564 60.6908 32.1452 60.5972 32.2077C60.5037 32.2702 60.3938 32.3036 60.2813 32.3036C60.2065 32.3037 60.1325 32.2891 60.0634 32.2605C59.9944 32.232 59.9316 32.1901 59.8788 32.1373C59.8259 32.0844 59.784 32.0217 59.7555 31.9526C59.727 31.8835 59.7123 31.8095 59.7125 31.7348ZM60.2853 32.469C60.4282 32.469 60.568 32.4266 60.6869 32.3472C60.8057 32.2678 60.8984 32.1549 60.9531 32.0228C61.0078 31.8908 61.0221 31.7454 60.9942 31.6052C60.9663 31.465 60.8975 31.3362 60.7964 31.2351C60.6953 31.1341 60.5665 31.0652 60.4263 31.0373C60.2861 31.0094 60.1408 31.0238 60.0087 31.0785C59.8766 31.1332 59.7638 31.2258 59.6843 31.3447C59.6049 31.4635 59.5625 31.6033 59.5625 31.7462C59.5629 31.9378 59.6392 32.1214 59.7746 32.2569C59.9101 32.3924 60.0937 32.4687 60.2853 32.469ZM60.2085 31.3045C60.2814 31.2963 60.3552 31.3055 60.4238 31.3314C60.4702 31.348 60.5101 31.3789 60.5377 31.4197C60.5653 31.4605 60.5793 31.509 60.5775 31.5582C60.5784 31.5794 60.5744 31.6004 60.566 31.6199C60.548 31.6757 60.5126 31.7242 60.4649 31.7584C60.4535 31.7584 60.4535 31.7698 60.4265 31.7698L60.6149 32.1118H60.4379L60.2728 31.7968H60.1718V32.1273H60.0066V31.3045H60.2085ZM60.2702 31.6849C60.2956 31.6891 60.3216 31.6867 60.3458 31.6779C60.3701 31.6692 60.3917 31.6544 60.4087 31.635C60.4189 31.6108 60.4229 31.5844 60.4201 31.5582C60.4186 31.5377 60.4123 31.5178 60.4017 31.5002C60.391 31.4827 60.3763 31.4679 60.3588 31.4571C60.3084 31.4459 60.2566 31.442 60.2051 31.4457H60.1667V31.6724H60.2678V31.6839L60.2702 31.6849Z" fill="#ED1C24"/>
</g>
<defs>
<clipPath id="clip0_2335_16656">
<rect width="52" height="7" fill="white" transform="translate(9 31)"/>
</clipPath>
</defs>
</svg>
