<svg width="70" height="70" viewBox="0 0 70 70" fill="none" xmlns="http://www.w3.org/2000/svg">
<circle cx="35" cy="35" r="34.5" fill="white" stroke="#326690"/>
<g clip-path="url(#clip0_2335_16621)">
<path d="M43.6432 41.0106C43.873 39.3912 43.8071 39.1522 45.2281 39.4188H45.5897C46.7328 39.4623 47.8744 39.3004 48.9604 38.9408C50.7706 38.2574 51.8438 37.0417 50.0604 37.3489C45.9613 38.0322 45.7085 36.8893 45.7085 36.8893C50.0037 31.4801 51.8001 24.594 50.2496 22.9401C46.0065 18.3759 38.6952 20.5485 38.5596 20.6036H38.519C37.6153 20.4505 36.7007 20.3706 35.7842 20.3646C34.2724 20.2909 32.7731 20.6716 31.4797 21.4578C31.4797 21.4578 18.4123 16.8936 19.0206 27.1986C19.1439 29.3919 22.7306 43.7799 26.9937 39.4349C28.5718 37.8499 30.0748 36.5239 30.0748 36.5239C30.8603 36.9642 31.7597 37.1592 32.6571 37.0838L32.7338 37.0294C32.7015 37.2355 32.7015 37.4454 32.7338 37.6515C31.6613 38.6696 31.9823 38.8542 29.8097 39.2602C27.6372 39.6662 28.8904 40.3396 29.7484 40.5242C30.7803 40.7425 33.1643 41.0604 34.7906 39.1576L34.7293 39.3759C35.1599 39.6693 35.1323 41.4802 35.1936 42.7917C35.1832 43.8801 35.3422 44.9635 35.6647 46.003C35.9711 46.6864 36.348 48.5448 39.2307 48.053C41.6422 47.6156 43.4869 46.9874 43.6577 41.1187" fill="#231F20"/>
<path d="M43.6432 41.0106C43.873 39.3912 43.8071 39.1522 45.2281 39.4188H45.5897C46.7328 39.4623 47.8744 39.3004 48.9604 38.9408C50.7706 38.2574 51.8438 37.0417 50.0604 37.3489C45.9613 38.0322 45.7085 36.8893 45.7085 36.8893C50.0037 31.4801 51.8001 24.594 50.2496 22.9401C46.0065 18.3759 38.6952 20.5485 38.5596 20.6036H38.519C37.6153 20.4505 36.7007 20.3706 35.7842 20.3646C34.2724 20.2909 32.7731 20.6716 31.4797 21.4578C31.4797 21.4578 18.4123 16.8936 19.0206 27.1986C19.1439 29.3919 22.7306 43.7799 26.9937 39.4349C28.5718 37.8499 30.0748 36.5238 30.0748 36.5238C30.8603 36.9642 31.7597 37.1592 32.6571 37.0838L32.7338 37.0294C32.7015 37.2355 32.7015 37.4454 32.7338 37.6515C31.6613 38.6696 31.9823 38.8542 29.8097 39.2602C27.6372 39.6662 28.8904 40.3396 29.7484 40.5242C30.7803 40.7425 33.1643 41.0604 34.7906 39.1576L34.7293 39.3759C35.1599 39.6693 35.1323 41.4802 35.1936 42.7917C35.1832 43.8801 35.3422 44.9635 35.6647 46.003C35.9711 46.6864 36.348 48.5448 39.2307 48.053C41.6422 47.6156 43.4869 46.9874 43.6577 41.1187" stroke="#231F20" stroke-width="4.11"/>
<path d="M50.0512 37.3667C45.9521 38.05 45.6993 36.907 45.6993 36.907C49.9968 31.4964 51.7932 24.6096 50.2427 22.9564C46.0133 18.3739 38.6952 20.5464 38.5596 20.6008H38.519C37.6153 20.4477 36.7007 20.3677 35.7842 20.3618C34.2724 20.2881 32.7731 20.6688 31.4797 21.4549C31.4797 21.4549 18.4123 16.8908 19.0206 27.1957C19.1439 29.389 22.7237 43.777 26.9937 39.432C28.5718 37.847 30.0748 36.5209 30.0748 36.5209C30.8603 36.9613 31.7597 37.1563 32.6571 37.0809L32.7338 37.0265C32.7021 37.2327 32.7021 37.4424 32.7338 37.6486C31.6613 38.6667 31.9823 38.8513 29.8097 39.2573C27.6372 39.6633 28.8904 40.3367 29.7484 40.5213C30.7803 40.7396 33.1643 41.0575 34.7906 39.1546L34.7293 39.373C35.1599 39.6664 35.4601 41.272 35.4127 42.7344C35.2749 43.822 35.3609 44.9263 35.6655 45.9794C36.0002 46.7654 36.3488 48.5212 39.2314 48.0294C41.643 47.592 42.8932 46.4582 43.0709 44.5584C43.1943 43.1918 43.4739 43.4093 43.4946 42.2082L43.7198 41.6413C43.9795 39.8173 43.7611 39.2297 45.2519 39.5032H45.6142C46.7573 39.5467 47.899 39.3848 48.9849 39.0252C50.7951 38.3419 51.8683 37.1261 50.0849 37.4333L50.0512 37.3667Z" fill="#326690"/>
<path d="M34.9527 38.4466C34.8432 41.8624 34.9527 45.2783 35.3763 46.0987C35.8 46.9191 36.6059 48.5447 39.4755 48.0253C41.8871 47.5879 42.7696 46.7407 43.1442 44.8623C43.4176 43.4956 43.9638 39.6531 44.032 38.871M31.4894 21.3666C31.4894 21.3666 18.4059 16.8507 19.021 27.1595C19.1612 29.3527 22.7234 43.7408 26.9934 39.3888C28.5508 37.7969 29.9588 36.5192 29.9588 36.5192M38.5601 20.553C38.1089 20.6825 45.8376 18.1621 50.2225 22.9171C51.773 24.5963 49.9766 31.464 45.679 36.8677" stroke="white" stroke-width="1.37" stroke-linecap="round" stroke-linejoin="round"/>
<path d="M45.6754 36.8699C45.6754 36.8699 45.9489 38.0382 50.0274 37.3296C51.8107 37.0155 50.7107 38.2044 48.9273 38.9214C47.445 39.5021 44.1448 39.6522 44.056 38.8448C43.9127 36.7948 45.8049 37.3954 45.6754 36.8699ZM45.6754 36.8699C45.5459 36.3444 44.7056 35.9415 44.1433 34.8207C43.581 33.7 37.4426 26.0823 45.8661 27.2299C46.1726 27.1755 43.666 20.4387 35.7818 20.3292C27.8975 20.2197 28.1572 28.526 28.1572 28.526" stroke="white" stroke-width="1.37" stroke-linecap="round" stroke-linejoin="bevel"/>
<path d="M32.7505 37.5852C31.6504 38.624 31.9714 38.8109 29.779 39.194C27.5865 39.577 28.8597 40.2733 29.7177 40.458C30.7496 40.6763 33.1335 40.9942 34.7599 39.0913C35.2517 38.5106 34.7599 37.5745 34.0765 37.3355C33.856 37.2304 33.6072 37.2003 33.368 37.2497C33.1287 37.299 32.9122 37.4252 32.7513 37.609L32.7505 37.5852Z" stroke="white" stroke-width="1.37" stroke-linejoin="round"/>
<path d="M32.6692 37.5647C32.6718 36.7923 32.8819 36.0348 33.2774 35.3715C33.8374 34.0937 35.129 32.8167 34.0971 28.7581C33.3249 25.7383 28.1533 28.1299 28.1533 28.5398C28.2791 29.8778 28.2493 31.2258 28.0644 32.557C27.6477 35.0918 29.9635 37.2299 32.6347 37.0116" stroke="white" stroke-width="1.37" stroke-linecap="round" stroke-linejoin="round"/>
<path d="M31.4453 28.4784C31.5025 28.6294 31.6004 28.7617 31.7282 28.8606C31.856 28.9594 32.0086 29.0209 32.1692 29.0383C32.3274 29.0624 32.4892 29.0388 32.6339 28.9706C32.7787 28.9024 32.8998 28.7926 32.982 28.6553C32.982 28.519 32.6817 28.3619 32.2581 28.3137C31.8344 28.2654 31.4453 28.3213 31.4453 28.4784Z" fill="white" stroke="white" stroke-width="0.46"/>
<path d="M44.3474 28.1982C44.2902 28.3493 44.1923 28.4816 44.0645 28.5804C43.9367 28.6793 43.7841 28.7408 43.6235 28.7582C43.4631 28.7852 43.2984 28.763 43.1508 28.6947C43.0033 28.6263 42.8799 28.5149 42.7969 28.3752C42.7969 28.2319 43.0972 28.0818 43.5208 28.0335C43.9444 27.9852 44.3068 28.0335 44.3336 28.1974L44.3474 28.1982Z" fill="white" stroke="white" stroke-width="0.23"/>
<path d="M45.8626 27.2305C45.9307 28.3306 45.5822 29.0752 45.5416 30.2434C45.4734 31.9448 46.4984 33.8845 44.9609 35.8356" stroke="white" stroke-width="1.37" stroke-linecap="round" stroke-linejoin="round"/>
</g>
<defs>
<clipPath id="clip0_2335_16621">
<rect width="38" height="34" fill="white" transform="translate(16 17)"/>
</clipPath>
</defs>
</svg>
