<svg width="70" height="70" viewBox="0 0 70 70" fill="none" xmlns="http://www.w3.org/2000/svg">
<circle cx="35" cy="35" r="34.5" fill="white" stroke="#A91D22"/>
<g clip-path="url(#clip0_2320_16579)">
<path d="M40.7367 29.24L36.8721 30.5324L33.5092 32.058L32.5713 32.3107C32.3346 32.5438 32.0781 32.7773 31.8041 33.0191C31.5105 33.2816 31.2263 33.5252 31.0178 33.6993C30.7415 33.9355 30.4848 34.1951 30.2506 34.4752C30.0115 34.7692 29.8196 35.1005 29.6824 35.4566C29.6025 35.7051 29.5814 35.9696 29.621 36.2282C29.6605 36.4867 29.7594 36.7319 29.9096 36.9434C30.4612 37.6666 31.1901 38.2266 32.0218 38.5661C32.6251 38.8249 33.2455 39.0391 33.8785 39.2071C35.181 39.51 36.505 39.7049 37.8379 39.7901C38.0082 39.8008 38.179 39.8008 38.3493 39.7901C38.3683 39.7705 38.5387 39.45 38.7281 39.0516C39.3114 37.8641 39.7718 36.6173 40.102 35.3314C40.2819 34.4833 40.3991 33.6225 40.4526 32.7563C40.4717 32.4648 40.4809 31.4929 40.4621 31.1626C40.4395 30.6906 40.392 30.2202 40.3201 29.7534C40.3086 29.7125 40.3054 29.6696 40.3105 29.6273C40.4813 29.5631 40.6552 29.5079 40.8314 29.462L40.7367 29.2383V29.24ZM39.8557 29.7744C39.948 30.2711 39.9987 30.7751 40.0073 31.2807C40.0133 31.348 40.0133 31.4158 40.0073 31.4831C39.9883 31.4831 39.5141 31.2014 39.1737 30.9771C38.88 30.7925 38.3305 30.4133 38.2358 30.3361C38.2075 30.3165 38.2075 30.3165 38.4538 30.2291C38.8613 30.0952 39.8261 29.7747 39.8557 29.7747V29.7744ZM37.8856 30.4353C37.9768 30.4673 38.063 30.5127 38.1414 30.5702C38.713 30.9412 39.3043 31.2791 39.9126 31.5823C40.0169 31.6309 40.0356 31.6113 39.7811 31.7847C39.1451 32.2145 38.473 32.5853 37.7728 32.8926C37.6307 32.9601 37.5074 33.0094 37.5074 33.0094C37.5097 32.9523 37.5225 32.8962 37.5452 32.844C37.7314 32.1565 37.8364 31.4484 37.858 30.7352C37.858 30.4437 37.858 30.4437 37.8862 30.4339L37.8856 30.4353ZM37.4781 30.6006C37.4941 30.8921 37.4877 31.1845 37.4591 31.475C37.4052 31.9158 37.3164 32.3513 37.1937 32.7772C37.1775 32.8503 37.1555 32.9218 37.1279 32.9911C36.9329 32.8261 36.7523 32.644 36.5879 32.447C36.3785 32.2001 36.1973 31.9295 36.048 31.6403C35.9825 31.5095 35.9285 31.3728 35.8868 31.2321C35.9246 31.1933 37.4686 30.5911 37.4781 30.6006ZM35.5646 31.3684C35.5836 31.3782 35.6024 31.4268 35.6214 31.4754C35.7473 31.792 35.9094 32.0921 36.1045 32.3694C36.3041 32.6409 36.5294 32.8916 36.777 33.1177C36.8428 33.176 36.9086 33.2344 36.9191 33.2438C36.9382 33.2634 36.9382 33.2634 36.4643 33.4462C35.9148 33.6601 35.3087 33.8737 34.6171 34.1071C34.456 34.1655 34.2856 34.2141 34.1239 34.2725C34.0956 34.2822 34.1048 34.2627 34.1807 34.1463C34.6278 33.3825 35.0143 32.5831 35.3363 31.7557C35.3837 31.6208 35.431 31.4932 35.4406 31.4642C35.4444 31.4467 35.4525 31.4305 35.4639 31.4169C35.4754 31.4034 35.49 31.393 35.5063 31.3866C35.5248 31.3785 35.5438 31.372 35.5632 31.3671L35.5646 31.3684ZM34.9868 31.6211C34.9028 31.8333 34.8079 32.0409 34.7026 32.2429C34.4185 32.8066 34.1058 33.37 33.6986 34.0407C33.6329 34.1574 33.5671 34.2644 33.5566 34.2738C33.5375 34.2934 33.5375 34.2934 33.4908 34.1962C33.3883 33.973 33.312 33.7382 33.2636 33.4965C33.218 33.1997 33.2245 32.897 33.2826 32.6025C33.3205 32.418 33.3205 32.418 33.4056 32.3792C33.7657 32.1848 34.9687 31.6032 34.9874 31.6211H34.9868ZM40.0261 31.8235V31.9497C40.0212 32.7044 39.9642 33.4578 39.8557 34.2043C39.8496 34.2767 39.837 34.3483 39.8179 34.4182C39.7567 34.4032 39.6965 34.3837 39.638 34.3598C39.1712 34.2097 38.7206 34.011 38.293 33.7671C38.0567 33.6406 37.8287 33.4982 37.6107 33.341C37.6107 33.341 37.7337 33.2735 37.876 33.1952C38.4264 32.9047 38.9608 32.5835 39.4769 32.2331C39.6568 32.1069 39.9222 31.9122 39.9791 31.8542L40.0264 31.8252L40.0261 31.8235ZM32.7798 32.7175C32.7894 32.7175 32.7894 32.7371 32.7703 32.8525C32.7553 32.9588 32.7459 33.0659 32.742 33.1733C32.718 33.5915 32.8065 34.0084 32.9979 34.3784C33.0548 34.5046 33.1021 34.6021 33.1021 34.6021C33.083 34.6216 31.1507 35.2046 30.5351 35.3699C30.3552 35.4185 30.1941 35.4671 30.1845 35.4671C30.1655 35.4769 30.1655 35.4671 30.1655 35.4185C30.3077 34.8449 30.6028 34.3233 31.0178 33.9121C31.297 33.6107 31.6197 33.3551 31.9745 33.1541C32.2777 32.9888 32.7417 32.7266 32.7795 32.7155L32.7798 32.7175ZM37.3361 33.5532C37.3361 33.5532 37.4117 33.592 37.4972 33.6406C38.1996 34.0414 38.9519 34.3421 39.7334 34.5346L39.7992 34.5542L39.7045 34.6125C38.7351 35.0864 37.7422 35.5081 36.73 35.876C36.5406 35.9434 36.3512 36.0217 36.3133 36.0315C36.293 36.0427 36.2706 36.0493 36.2476 36.0511C36.2476 36.0511 36.3045 35.9441 36.3706 35.8179C36.7328 35.1286 37.0401 34.4104 37.2894 33.6703C37.3177 33.6028 37.3367 33.5535 37.3367 33.5535L37.3361 33.5532ZM36.8721 33.7087C36.8587 33.7546 36.8429 33.7996 36.8247 33.8437C36.5275 34.5633 36.1891 35.2642 35.8112 35.9428C35.7069 36.1371 35.6139 36.3024 35.6139 36.3024C35.6139 36.3024 35.5192 36.244 35.4166 36.1857C34.8391 35.8326 34.3236 35.3826 33.8914 34.8544L33.8345 34.7869L34.0998 34.7093C34.9755 34.4715 35.8334 34.1695 36.6669 33.8055C36.7774 33.7492 36.8721 33.7104 36.8721 33.7104V33.7087ZM39.761 34.7387C39.761 34.8062 39.619 35.4286 39.4956 35.8756C39.3914 36.2545 39.3062 36.5463 39.1451 37.0611C39.0793 37.2845 39.0135 37.4791 39.0135 37.4791C39.0004 37.4786 38.9875 37.4753 38.9757 37.4693C38.1626 37.3221 37.366 37.091 36.5981 36.7794C36.3896 36.692 36.1049 36.5561 36.0868 36.5463C36.2114 36.4745 36.3412 36.4128 36.4751 36.3618C37.8014 35.769 39.1842 35.0889 39.6578 34.7971C39.6881 34.7702 39.7236 34.7503 39.762 34.7387H39.761ZM33.0926 34.9718C33.1021 34.9816 32.7233 35.5258 32.2116 36.2741C32.0317 36.5365 31.8232 36.8378 31.738 36.9542C31.6624 37.0709 31.5407 37.2457 31.4727 37.3526L31.3497 37.5469L31.2181 37.4302C31.0239 37.2537 30.8433 37.062 30.6781 36.8567C30.4465 36.5737 30.2782 36.242 30.1849 35.8851C30.1566 35.7393 30.1566 35.6712 30.1849 35.6617C30.2322 35.6519 31.009 35.4593 31.7384 35.2829C32.1458 35.1857 32.6194 35.069 32.7802 35.0302C32.8856 35.0179 32.9897 34.9984 33.0926 34.9718ZM33.4714 35.1176L33.5661 35.2245C33.9582 35.683 34.4226 36.0707 34.9397 36.3716C34.9971 36.401 35.0511 36.4369 35.1009 36.4785C35.0818 36.4981 33.2922 37.1394 32.4674 37.4407C32.0034 37.606 31.6243 37.7419 31.615 37.7419L31.5582 37.7031L31.5013 37.6643L31.5864 37.5382C31.861 37.1299 32.202 36.6829 32.96 35.7501L33.4714 35.1186V35.1176ZM35.8017 36.828L36.0953 36.935C36.4474 37.0731 36.8082 37.1867 37.1753 37.275C37.7147 37.4088 38.2621 37.5062 38.8139 37.5665C38.8797 37.5763 38.9086 37.5763 38.8991 37.5861C38.88 37.5959 38.4443 37.7416 38.1319 37.8485C37.6297 38.0138 36.0953 38.4703 34.8434 38.8397C34.6161 38.9072 34.4159 38.9659 34.3981 38.9659C34.3552 38.9691 34.3124 38.959 34.2751 38.9369C34.3208 38.8657 34.3715 38.7981 34.4267 38.7345C34.8522 38.2146 35.2475 37.6695 35.6106 37.1019C35.7148 36.9562 35.8 36.8395 35.8 36.8297L35.8017 36.828ZM35.2807 36.8476C35.2807 36.8476 35.0723 37.1876 34.7125 37.7804C34.5609 38.0331 34.381 38.3148 34.3241 38.4119C34.2672 38.5091 34.1821 38.6548 34.1268 38.7422L34.0416 38.8977L33.9943 38.888C33.89 38.859 33.1511 38.5867 32.9525 38.5091C32.7062 38.4119 32.4592 38.2854 32.2704 38.1883C32.0891 38.1022 31.9202 37.9911 31.7683 37.858C31.7778 37.858 32.1757 37.7413 32.6588 37.6053C33.9377 37.2457 34.648 37.0416 35.112 36.8968C35.2068 36.8678 35.2824 36.8482 35.2824 36.8482L35.2807 36.8476ZM38.9277 37.722C38.9468 37.751 38.4729 39.1019 38.293 39.5296C38.2552 39.6268 38.2361 39.6464 38.2174 39.6464C38.17 39.6464 37.4785 39.5492 37.0618 39.4811C36.3324 39.3643 35.1104 39.1508 34.8075 39.0728L34.7418 39.0533L35.1775 38.9561C36.1154 38.7422 36.5603 38.6258 37.0151 38.4801C37.6034 38.2917 38.1792 38.0645 38.739 37.8C38.7991 37.767 38.8626 37.741 38.9284 37.7224L38.9277 37.722Z" fill="url(#paint0_linear_2320_16579)"/>
<path d="M36.7482 20.0002C36.6824 19.9904 35.6495 20.379 34.977 20.6513C34.2657 20.9304 33.5834 21.282 32.9404 21.7008C32.7847 21.811 32.6499 21.9493 32.5425 22.1091C32.5316 22.1403 32.5252 22.1731 32.5234 22.2062L32.9118 22.5851L33.8402 22.8863L36.0566 23.2946L38.5954 23.7416L38.6236 23.5182H38.6046L38.2731 23.4599L38.2073 23.3337C37.8663 22.7119 37.4779 21.9343 37.2602 21.4195C37.0964 21.0261 36.9537 20.6238 36.8327 20.2144C36.7854 20.0201 36.7854 20.0005 36.7475 20.0005L36.7482 20.0002ZM36.7008 20.1557C36.7188 20.2155 36.7283 20.2777 36.7291 20.3402C36.7806 20.7704 36.8759 21.1938 37.0132 21.6037C37.1175 21.934 37.1175 21.9147 36.9942 21.8759C36.7005 21.7886 35.365 21.5551 34.3893 21.4191C34.2933 21.4123 34.1982 21.396 34.1052 21.3706C34.0957 21.3608 34.8063 20.9819 35.1187 20.8264C35.5262 20.6419 36.6252 20.1655 36.7008 20.1557ZM33.8875 21.4967L34.0013 21.5355C34.9923 21.8256 36.0067 22.024 37.0323 22.1283C37.127 22.1381 37.2122 22.1479 37.2122 22.1479C37.1542 22.1839 37.0941 22.2163 37.0323 22.245C36.6157 22.4589 36.1609 22.721 35.8485 22.9157C35.7878 22.9558 35.7245 22.9915 35.659 23.0226C35.6495 23.0226 35.5834 23.0129 35.5275 23.0031L35.4137 22.9835L35.1201 22.692C34.6087 22.1769 34.2012 21.7882 34.0496 21.6327L33.8875 21.4967ZM33.7737 21.5939L34.1812 22.1185C34.4084 22.41 34.636 22.692 34.6833 22.7595C34.7307 22.8179 34.778 22.8762 34.7685 22.8762C34.759 22.886 34.1716 22.7693 33.8592 22.6917C33.6414 22.646 33.4263 22.5877 33.215 22.5169L33.0539 22.4586V22.4184C33.0539 22.216 33.3097 21.9124 33.7264 21.6118L33.7737 21.5922V21.5939ZM37.2698 22.3132C37.2793 22.3132 37.298 22.3422 37.3266 22.4201C37.4214 22.6438 37.7341 23.246 37.8097 23.3627C37.8288 23.4015 37.8755 23.4015 37.4592 23.3337C36.4647 23.1684 36.152 23.1104 36.152 23.1104C36.152 23.1104 36.1803 23.0908 36.2178 23.0618C36.5319 22.8782 36.8299 22.6669 37.1083 22.4302C37.1741 22.3719 37.2398 22.3233 37.2503 22.3135C37.2599 22.3135 37.2694 22.3037 37.2694 22.3135L37.2698 22.3132Z" fill="url(#paint1_linear_2320_16579)"/>
<path d="M32.5735 22.0706C32.5533 22.1113 32.5428 22.1563 32.5428 22.2019C32.5428 22.2475 32.5533 22.2925 32.5735 22.3331C32.6439 22.46 32.7371 22.572 32.8481 22.6634C32.8481 22.6634 34.1457 23.9656 34.3069 24.1502C34.9985 24.9277 35.3775 25.945 35.3677 26.9975C35.3862 27.7447 35.2269 28.4852 34.9037 29.155C34.2975 30.5155 33.0093 32.025 31.0391 33.6835L31.3327 33.5863C31.6652 33.3511 32.0133 33.1401 32.3745 32.9548C33.9269 32.0968 35.5383 31.3564 37.1958 30.7393C40.3798 29.557 43.6566 28.6565 46.9903 28.0474L47.2557 28.0086L47.2179 27.9412C46.9811 27.5717 46.82 27.3386 46.6306 27.0957C46.0577 26.3736 45.3531 25.7729 44.5562 25.3272C43.1444 24.5739 41.6262 24.0525 40.0568 23.7821C39.7063 23.7146 38.9295 23.5682 38.2948 23.4711C36.9594 23.2572 36.0879 23.1114 35.1405 22.9465C34.7995 22.8881 34.2881 22.8007 33.9471 22.7228C33.6841 22.6679 33.4247 22.5965 33.1704 22.5089C32.9431 22.4019 32.6399 22.3247 32.5735 22.0706ZM33.3298 22.8189C33.3298 22.8189 33.3772 22.8385 33.4436 22.8577C33.5574 22.8965 33.6995 22.9451 33.8711 22.9927C34.0027 23.0315 34.127 23.0601 34.2595 23.0996L34.5815 23.187C34.6005 23.2066 34.8942 24.1782 34.9981 24.5476C35.0359 24.6933 35.0639 24.8101 35.0639 24.8101C35.036 24.773 35.0108 24.734 34.9882 24.6933C34.5989 24.0175 34.0877 23.4239 33.4821 22.9441C33.4284 22.9062 33.3777 22.864 33.3305 22.8179L33.3298 22.8189ZM34.76 23.2271C34.8143 23.2328 34.8682 23.2425 34.9212 23.2562C35.4144 23.3729 36.3135 23.5476 36.8821 23.6448C36.9401 23.6509 36.9973 23.664 37.0524 23.6836C37.0524 23.6934 37.0146 23.7126 36.9768 23.7322C36.8821 23.7808 36.4937 24.0237 36.3612 24.111C36.067 24.3116 35.7911 24.5393 35.5371 24.7912C35.4519 24.8785 35.376 24.9467 35.376 24.9467C35.3625 24.9089 35.353 24.8698 35.3477 24.83C35.2131 24.3272 35.0389 23.8365 34.8268 23.3628L34.761 23.2278L34.76 23.2271ZM37.2892 23.7227C37.3408 23.8265 37.376 23.938 37.3935 24.053C37.502 24.5008 37.5498 24.9618 37.5355 25.4231C37.526 25.5492 37.526 25.666 37.5165 25.6855L37.5069 25.7145L37.3553 25.666C37.0426 25.5688 36.5312 25.4133 36.0955 25.2871C35.8492 25.2196 35.6407 25.1522 35.6407 25.1522C35.8043 24.964 35.9782 24.7856 36.1616 24.6178C36.4648 24.3455 37.2698 23.714 37.2889 23.7237L37.2892 23.7227ZM37.4977 23.7517C37.5072 23.742 38.7102 23.9542 39.2502 24.0628C39.6576 24.1404 40.2446 24.2652 40.2828 24.2861C40.3018 24.2959 40.2354 24.3249 40.046 24.4211C39.3805 24.7225 38.7406 25.08 38.1327 25.4899C37.9811 25.587 37.8581 25.6744 37.8581 25.6744C37.8581 25.6744 37.8486 25.587 37.8486 25.4801C37.8492 24.9202 37.743 24.3656 37.5359 23.8476C37.5089 23.8003 37.4898 23.7517 37.4994 23.7517H37.4977ZM40.6047 24.3735C40.5957 24.5082 40.5737 24.6417 40.5389 24.7719C40.3664 25.3788 40.118 25.9602 39.8 26.5016C39.7662 26.5734 39.7249 26.6413 39.677 26.704C39.6143 26.6773 39.5541 26.6448 39.4971 26.6069C39.1294 26.3869 38.7464 26.1952 38.3511 26.0334C38.2373 25.9848 38.133 25.9362 38.133 25.9362C38.5893 25.5892 39.0637 25.268 39.554 24.974C39.9519 24.7311 40.5866 24.3617 40.6063 24.3715L40.6047 24.3735ZM40.8227 24.4123C40.851 24.4123 41.3818 24.5581 41.6564 24.6454C42.3336 24.8534 42.9979 25.1033 43.6456 25.3937L43.8636 25.4909L43.712 25.5297C42.5628 25.7961 41.4354 26.1534 40.34 26.5984C40.2849 26.6252 40.2279 26.6477 40.1696 26.6659C40.18 26.6112 40.1993 26.5586 40.2265 26.5104C40.5223 25.8839 40.7144 25.2112 40.7948 24.5199C40.8043 24.4616 40.8138 24.413 40.8231 24.413L40.8227 24.4123ZM35.5282 25.6562C35.7427 25.6945 35.9547 25.7464 36.1629 25.8117C36.4944 25.9089 37.2047 26.1518 37.2047 26.1713C37.2047 26.1713 37.1291 26.2388 37.0344 26.3269C36.6555 26.6571 36.2859 26.9975 35.841 27.4348C35.7094 27.5609 35.5946 27.6679 35.5946 27.6679C35.5851 27.6679 35.5851 27.6483 35.5851 27.6291C35.6518 27.0276 35.639 26.4195 35.5473 25.8215C35.5387 25.7344 35.5292 25.6663 35.5292 25.6565L35.5282 25.6562ZM44.0629 25.666C43.9696 25.8381 43.8651 26.0037 43.7502 26.1616C43.5703 26.424 43.3144 26.7641 42.7366 27.511C42.4334 27.9094 42.0829 28.3565 41.9694 28.5022C41.856 28.6479 41.7514 28.7745 41.7514 28.7745C41.7514 28.7745 41.7136 28.7161 41.6662 28.6577C41.336 28.1551 40.9373 27.7035 40.4824 27.3167C40.3972 27.2391 40.3025 27.1612 40.2647 27.1322C40.2444 27.1176 40.2254 27.1014 40.2078 27.0836C40.2078 27.0738 40.701 26.8602 41.0792 26.7047C41.7422 26.4325 42.6423 26.1022 43.3154 25.8883C43.6847 25.7716 44.0639 25.6646 44.0639 25.6646L44.0629 25.666ZM44.2901 25.7334C44.3509 25.7534 44.4084 25.7829 44.4605 25.8208C45.1694 26.2378 45.8249 26.7438 46.4119 27.3272C46.5635 27.4827 46.9519 27.8909 46.9423 27.8909C46.9423 27.8909 46.8108 27.9007 46.6487 27.9105C45.1925 28.0424 43.7484 28.2893 42.3292 28.649C42.2249 28.6685 42.1398 28.6975 42.1319 28.6975C42.2112 28.6041 42.2966 28.5164 42.3877 28.4351C43.1327 27.7608 43.7355 26.9374 44.1589 26.0155C44.1949 25.9179 44.2389 25.8236 44.2905 25.7338L44.2901 25.7334ZM37.7825 26.4136C37.8203 26.4233 38.1991 26.6079 38.4928 26.7536C38.7582 26.8886 39.1466 27.1035 39.1748 27.123C39.1748 27.123 39.0328 27.2006 38.8621 27.2884C38.3126 27.5701 37.8391 27.8325 37.356 28.1436C37.2139 28.231 37.1001 28.2991 37.1001 28.2991C37.0906 28.2991 37.0906 28.2893 37.1659 28.1436C37.4388 27.6237 37.6397 27.0673 37.7628 26.4905C37.7628 26.4419 37.7723 26.4129 37.7818 26.4129L37.7825 26.4136ZM37.4037 26.481C37.4132 26.4908 37.3089 26.8599 37.2521 27.064C37.114 27.4839 36.9397 27.8904 36.7312 28.2785C36.6838 28.3659 36.6174 28.4809 36.5796 28.5508L36.5039 28.6675L36.3428 28.5022C36.1836 28.3393 36.0016 28.2017 35.8028 28.094C35.7514 28.0724 35.7035 28.0429 35.6607 28.0066C35.6607 27.987 36.1629 27.5208 36.5417 27.1807C36.8163 26.9476 37.3941 26.4723 37.4037 26.481ZM39.7244 27.4624L39.8664 27.5596C40.2166 27.7935 40.5519 28.05 40.8704 28.3274C41.0625 28.4857 41.2459 28.6546 41.4199 28.8335L41.4577 28.8723L41.221 28.9398C39.8855 29.3186 38.8532 29.659 37.6404 30.1155C37.5089 30.1641 37.3941 30.2126 37.3846 30.2126C37.3655 30.2126 37.3563 30.2322 37.65 29.9404C38.3887 29.25 39.0468 28.474 39.6109 27.6277L39.7244 27.4624ZM39.1183 27.618C39.1278 27.6277 38.7204 28.2009 38.4836 28.5315C38.1995 28.9202 37.6878 29.5713 37.3376 29.9988C37.1955 30.1735 37.063 30.3196 37.063 30.329C37.0534 30.329 37.0534 30.2902 37.0534 30.2221C37.0474 29.8483 36.9634 29.4802 36.8071 29.1425C36.7413 29.0076 36.7315 28.9678 36.7413 28.958C36.7982 28.9094 37.6506 28.4138 38.1811 28.1125C38.5412 27.9101 39.1094 27.617 39.1189 27.617L39.1183 27.618ZM35.424 28.5508C35.4335 28.5508 35.4996 28.5896 35.5756 28.6284C35.753 28.729 35.9211 28.8462 36.0777 28.9782C36.0873 28.988 36.012 29.0457 35.9074 29.124C35.6328 29.3264 35.2063 29.6584 34.9603 29.8527C34.7044 30.0666 34.6949 30.0666 34.7235 30.0274C34.8701 29.808 34.9999 29.5774 35.1119 29.3375C35.2061 29.1355 35.2884 28.9279 35.3582 28.7158C35.3697 28.6569 35.392 28.6011 35.424 28.5508ZM36.4105 29.3379C36.4296 29.3379 36.4388 29.3574 36.5243 29.4836C36.6959 29.7467 36.809 30.0452 36.8558 30.3581L36.8653 30.4164L36.4674 30.5719C35.7476 30.8536 35.0938 31.1357 34.6489 31.3479C34.5259 31.4062 34.3078 31.5132 34.1556 31.5908C34.0746 31.6414 33.9889 31.6837 33.8997 31.717C33.8997 31.717 33.9945 31.6495 34.0971 31.5614C34.913 30.9672 35.6516 30.2683 36.2948 29.4819C36.327 29.4289 36.3652 29.38 36.4086 29.3362L36.4105 29.3379ZM35.9557 29.4546C35.7856 29.6767 35.6021 29.8876 35.4062 30.0861C34.8608 30.6609 34.2503 31.1666 33.5877 31.5925C33.5025 31.6508 33.4173 31.6994 33.4078 31.7092C33.3887 31.719 33.4173 31.6896 33.7205 31.3496C33.8984 31.1548 34.0661 30.9504 34.2227 30.7373C34.3015 30.6244 34.4013 30.5286 34.5163 30.4556C34.9514 30.1364 35.9459 29.4465 35.9554 29.4563L35.9557 29.4546Z" fill="url(#paint2_radial_2320_16579)"/>
<path d="M23.3001 41.8607H23.1337C22.6552 41.8506 22.1849 41.9886 21.784 42.2566C21.3831 42.5247 21.0703 42.9105 20.8863 43.3637C20.5371 44.286 20.5371 45.309 20.8863 46.2313C21.2691 47.0852 21.9018 47.5292 22.934 47.7002C23.1504 47.734 23.3004 47.8541 23.7332 48.3662L24.2488 48.9994H25.1979L24.5651 48.3503C24.3368 48.1341 24.1253 47.8999 23.9324 47.65C23.9324 47.6162 24.064 47.5646 24.232 47.515C24.5184 47.4147 24.7807 47.2532 25.0018 47.0412C25.2229 46.8292 25.3976 46.5716 25.5145 46.2853C25.7357 45.8788 25.8451 45.4183 25.8309 44.953C25.9296 43.0574 24.9486 41.8618 23.3004 41.8618L23.3001 41.8607ZM24.1324 46.899C23.6399 47.1263 23.0837 47.1622 22.5674 47.0002C22.3162 46.8886 22.0903 46.7247 21.9041 46.5189C21.7179 46.3131 21.5753 46.0698 21.4855 45.8046C21.2722 45.0826 21.2953 44.3088 21.5512 43.6016C21.9508 42.8158 22.4835 42.4403 23.2659 42.4403C24.4145 42.4403 25.0805 43.1748 25.1637 44.5239C25.2136 45.6851 24.8473 46.539 24.1314 46.898L24.1324 46.899ZM40.5467 43.5172C40.3653 43.5112 40.1856 43.5538 40.025 43.6406C39.8645 43.7274 39.7288 43.8556 39.6312 44.0125L39.4648 44.2685V43.6026H38.7821V47.6331H39.4648V46.3511C39.4648 45.1727 39.4815 45.0354 39.6312 44.7115C39.7014 44.5158 39.8369 44.3519 40.0136 44.2488C40.1902 44.1456 40.3968 44.1098 40.5967 44.1477L40.8463 44.2152V43.5149L40.5467 43.5172ZM36.4847 43.4835C36.3444 43.4837 36.2047 43.5009 36.0684 43.5348C35.637 43.6655 35.2618 43.9431 35.0048 44.3219C34.7478 44.7006 34.6241 45.1579 34.6543 45.6183C34.6543 46.4041 34.8043 46.7967 35.1703 47.2066C35.9194 47.8385 36.6021 47.8898 37.5176 47.5481C37.6676 47.4806 37.8504 47.3942 37.8504 47.3942V46.7623L37.5176 46.933C36.7685 47.2576 36.219 47.2576 35.7698 46.8818C35.5004 46.5942 35.3358 46.2202 35.3038 45.8228H38.0839V45.2762C38.0839 44.1491 37.4348 43.4487 36.4857 43.4831L36.4847 43.4835ZM35.3692 45.2425C35.42 44.8768 35.5902 44.5396 35.852 44.2861C36.026 44.1554 36.2355 44.0838 36.4512 44.0813C36.6622 44.0813 36.8672 44.1533 37.0339 44.2861C37.3834 44.5593 37.4334 45.2425 37.4334 45.2425H35.3692ZM18.7386 44.5077C17.9894 44.0465 17.6566 43.7051 17.7063 43.3121C17.8227 42.219 19.1381 42.3729 19.8705 42.7828V42.047C19.5555 41.9288 19.2235 41.8652 18.8882 41.8591C18.0059 41.8419 17.4231 42.1495 17.1568 42.747C16.7572 43.635 17.1068 44.3181 18.3735 45.0698C19.0894 45.4969 19.389 45.8555 19.389 46.2654C19.389 47.0852 18.4235 47.3753 17.408 46.8632C17.2084 46.762 17.0252 46.6753 17.0252 46.6753C17.0043 46.9425 16.9982 47.2107 17.0072 47.4786C17.2548 47.5779 17.5113 47.6522 17.773 47.7006C18.9217 47.9397 19.954 47.376 20.0536 46.4881C20.1523 45.6342 19.8705 45.2061 18.7382 44.507L18.7386 44.5077ZM46.6396 43.4659C46.494 43.4671 46.3489 43.4843 46.2069 43.5172C45.7753 43.6457 45.4003 43.9234 45.1454 44.3031C44.8906 44.6829 44.7716 45.1413 44.8086 45.6008C44.8086 46.3865 44.9585 46.762 45.3246 47.1719C46.0737 47.8038 46.7564 47.8551 47.6719 47.5133C47.8219 47.4458 48.0047 47.3595 48.0047 47.3595V46.7276L47.6719 46.8983C46.9228 47.2228 46.3733 47.2228 45.9241 46.8308C45.6547 46.5433 45.4901 46.1693 45.4581 45.7718H48.2382V45.2253C48.2382 44.1494 47.589 43.4491 46.64 43.4663L46.6396 43.4659ZM45.5255 45.2253C45.578 44.8552 45.7476 44.5131 46.0082 44.2517C46.1823 44.121 46.3918 44.0494 46.6074 44.0469C46.8184 44.0469 47.0235 44.1189 47.1901 44.2517C47.5397 44.5249 47.5897 45.2081 47.5897 45.2081L45.5255 45.2253ZM32.89 44.5249C32.1409 44.0637 31.8081 43.7223 31.8578 43.3293C31.9742 42.2362 33.2896 42.3901 34.0219 42.8V42.0655C33.707 41.9473 33.375 41.8838 33.0396 41.8776C32.1573 41.8604 31.5746 42.1681 31.3082 42.7656C30.9087 43.6535 31.2754 44.3367 32.525 45.0883C33.2409 45.5154 33.5405 45.8741 33.5405 46.2667C33.5405 47.0865 32.575 47.3939 31.5595 46.8646C31.3599 46.7634 31.1767 46.6766 31.1767 46.6766C31.1562 46.9436 31.1506 47.2116 31.1599 47.4792C31.4097 47.5721 31.6657 47.6463 31.9258 47.7012C33.0745 47.9404 34.1232 47.3767 34.2064 46.4887C34.3051 45.6517 34.0068 45.2067 32.891 44.5246L32.89 44.5249ZM50.7029 43.5003C50.5216 43.4944 50.3418 43.5369 50.1813 43.6237C50.0208 43.7105 49.8851 43.8387 49.7874 43.9956L49.621 44.2517V43.5857H48.937V47.6162H49.6197V46.3342C49.6197 45.1558 49.6365 45.0185 49.7861 44.6946C49.8564 44.4989 49.9918 44.335 50.1685 44.2319C50.3452 44.1287 50.5517 44.093 50.7516 44.1309L51.0012 44.1984V43.498L50.7029 43.5003ZM27.3966 44.5081V41.9458H26.6961V47.6159H29.6262V46.9499H27.3952V44.5077L27.3966 44.5081ZM43.4774 45.2938L42.9114 46.8308L42.3619 45.2938L41.796 43.586H41.0794C41.5454 44.9355 42.0449 46.285 42.5444 47.6166H43.2104L43.9763 45.6183L44.7586 43.586H44.0759C44.0927 43.586 43.7928 44.3886 43.4767 45.2938H43.4774ZM28.9935 40.3919C29.0725 40.3918 29.1498 40.3677 29.2155 40.3226C29.2812 40.2775 29.3325 40.2135 29.3628 40.1386C29.3931 40.0636 29.401 39.9812 29.3857 39.9016C29.3704 39.8221 29.3324 39.7489 29.2766 39.6915C29.1976 39.6231 29.0968 39.5871 28.9935 39.5903C28.9144 39.5903 28.8371 39.6144 28.7714 39.6595C28.7057 39.7046 28.6544 39.7686 28.6241 39.8436C28.5939 39.9185 28.5859 40.0009 28.6012 40.0805C28.6165 40.1601 28.6545 40.2332 28.7103 40.2906C28.7907 40.3564 28.8906 40.3921 28.9935 40.3919ZM28.7603 39.7428C28.818 39.68 28.8952 39.6399 28.9787 39.6292C29.0621 39.6185 29.1466 39.638 29.2175 39.6843C29.2885 39.7306 29.3415 39.8008 29.3674 39.8829C29.3934 39.9649 29.3907 40.0537 29.3598 40.1339C29.3289 40.2141 29.2717 40.2808 29.1981 40.3224C29.1245 40.3641 29.039 40.3781 28.9564 40.3621C28.8737 40.3462 28.7991 40.3011 28.7453 40.2348C28.6915 40.1685 28.662 40.0851 28.6616 39.9988C28.6587 39.9514 28.666 39.9038 28.683 39.8596C28.7001 39.8154 28.7265 39.7753 28.7603 39.7428ZM28.9267 40.0332H28.9767C29.0096 40.0332 29.0425 40.067 29.0599 40.1186L29.1099 40.238H29.1931L29.1273 40.1031C29.0944 40.0518 29.0773 40.0177 29.0441 40.0019C29.077 39.9846 29.1099 39.9846 29.1428 39.9506C29.1634 39.9271 29.1751 39.8968 29.1756 39.8652C29.1721 39.8294 29.1609 39.7948 29.1428 39.764C29.1099 39.7303 29.0596 39.7303 28.9928 39.7303H28.8428V40.2427H28.9086L28.9254 40.038L28.9267 40.0332ZM28.9267 39.794H28.9925C29.0258 39.7969 29.0588 39.8026 29.0911 39.8112C29.1079 39.8284 29.1079 39.845 29.1079 39.8787C29.1079 39.93 29.075 39.9641 29.0092 39.9641H28.926V39.7934L28.9267 39.794ZM17.4399 39.982C17.4447 39.8508 17.4391 39.7195 17.4231 39.5893C17.4358 39.6585 17.4525 39.7269 17.4731 39.794L18.1391 41.3311H18.2555L18.9214 39.794C18.9446 39.7334 18.9613 39.6704 18.9714 39.6061C18.9584 39.7367 18.9527 39.8679 18.9543 39.9992V41.3486H19.1874V39.3332H18.905L18.289 40.7336C18.2613 40.8155 18.2284 40.8954 18.1904 40.9728H18.2071C18.1904 40.9215 18.1571 40.8378 18.1239 40.7336L17.5248 39.3167H17.2071V41.3321H17.4235L17.4402 39.9826L17.4399 39.982ZM19.7041 39.982H19.9037V41.2302H19.7041V39.982ZM19.8027 39.5208C19.8381 39.5198 19.8725 39.5081 19.9014 39.487C19.9158 39.4744 19.9276 39.4589 19.9362 39.4415C19.9448 39.4242 19.9499 39.4052 19.9514 39.3858C19.9517 39.3661 19.9473 39.3465 19.9386 39.3289C19.9298 39.3113 19.9171 39.2961 19.9014 39.2846C19.8884 39.2719 19.8728 39.2623 19.8557 39.2565C19.8387 39.2506 19.8206 39.2487 19.8027 39.2509C19.7673 39.2518 19.733 39.2636 19.7041 39.2846C19.6896 39.2973 19.6778 39.3127 19.6692 39.3301C19.6606 39.3475 19.6555 39.3664 19.6541 39.3858C19.6519 39.4059 19.6554 39.4261 19.6643 39.4441C19.6732 39.4621 19.687 39.477 19.7041 39.487C19.7341 39.5056 19.7678 39.5172 19.8027 39.5208ZM21.3177 41.2629V41.0409C21.2192 41.123 21.095 41.1654 20.9682 41.1604C20.9023 41.164 20.8365 41.152 20.7759 41.1253C20.7153 41.0986 20.6615 41.058 20.6186 41.0065C20.5287 40.897 20.4818 40.757 20.4871 40.6138C20.4819 40.4655 20.5286 40.3201 20.6186 40.2039C20.6615 40.1525 20.7153 40.1119 20.7759 40.0852C20.8365 40.0585 20.9023 40.0465 20.9682 40.0501C21.0864 40.0495 21.2022 40.0847 21.301 40.1513V39.9121C21.2024 39.8637 21.0938 39.8405 20.9846 39.8446C20.8854 39.8394 20.7863 39.8566 20.6942 39.8949C20.6022 39.9333 20.5194 39.9919 20.4519 40.0666C20.3156 40.2203 20.2439 40.4228 20.2523 40.6304C20.2468 40.7241 20.2602 40.818 20.2917 40.9062C20.3232 40.9944 20.3722 41.0749 20.4354 41.1428C20.4973 41.2099 20.5723 41.2627 20.6555 41.298C20.7387 41.3333 20.8282 41.3502 20.9182 41.3476C21.0569 41.3662 21.1977 41.3361 21.3177 41.2623V41.2629ZM21.8672 40.597C21.8598 40.4588 21.8942 40.3216 21.9659 40.2043C21.9918 40.1658 22.0267 40.1347 22.0675 40.1138C22.1083 40.0929 22.1535 40.083 22.1991 40.0848C22.2287 40.0814 22.2588 40.0842 22.2874 40.093C22.316 40.1018 22.3425 40.1165 22.3655 40.1361V39.8969C22.3232 39.882 22.2785 39.8761 22.2339 39.8797C22.1544 39.8822 22.0781 39.9123 22.0175 39.9651C21.9454 40.0277 21.8932 40.111 21.8676 40.2043V39.9138H21.6509V41.3483H21.8672V40.5963V40.597ZM23.1659 41.3655C23.2587 41.3714 23.3517 41.3562 23.4381 41.3207C23.5245 41.2853 23.6021 41.2307 23.6654 41.1607C23.7303 41.087 23.7799 41.0005 23.8114 40.9066C23.8429 40.8127 23.8555 40.7132 23.8486 40.6142C23.8629 40.4169 23.8034 40.2215 23.6822 40.0676C23.6213 39.9993 23.5464 39.9455 23.463 39.9101C23.3796 39.8748 23.2896 39.8586 23.1994 39.8629C23.0154 39.8564 22.8362 39.9238 22.6999 40.0508C22.6298 40.1285 22.5759 40.22 22.5416 40.3199C22.5072 40.4198 22.4932 40.5258 22.5003 40.6314C22.4934 40.7278 22.5061 40.8247 22.5376 40.9158C22.5691 41.0069 22.6188 41.0903 22.6835 41.1607C22.7446 41.2287 22.8195 41.2823 22.9029 41.3176C22.9862 41.353 23.0758 41.3693 23.1659 41.3655ZM22.8495 40.1871C22.8936 40.1431 22.9456 40.1086 23.0028 40.0854C23.0599 40.0622 23.1209 40.0509 23.1823 40.0521C23.2439 40.0493 23.3054 40.0599 23.3628 40.0831C23.4201 40.1064 23.472 40.1418 23.5151 40.1871C23.5912 40.3095 23.6317 40.4517 23.6317 40.597C23.6317 40.7422 23.5912 40.8844 23.5151 41.0069C23.4734 41.0552 23.4221 41.0939 23.3647 41.1204C23.3073 41.1469 23.2451 41.1606 23.1822 41.1606C23.1192 41.1606 23.057 41.1469 22.9996 41.1204C22.9422 41.0939 22.8909 41.0552 22.8492 41.0069C22.7566 40.8921 22.7096 40.7457 22.7177 40.597C22.7112 40.5231 22.7195 40.4486 22.7422 40.3781C22.7648 40.3076 22.8012 40.2426 22.8492 40.1871H22.8495ZM24.8305 41.2289C24.8712 41.1927 24.9039 41.1481 24.9266 41.0981C24.9493 41.048 24.9614 40.9936 24.9621 40.9384C24.9635 40.8911 24.9555 40.8439 24.9385 40.7999C24.9216 40.7559 24.896 40.7159 24.8634 40.6823C24.7859 40.6128 24.6952 40.5604 24.597 40.5285C24.5228 40.4929 24.4505 40.453 24.3807 40.4091C24.3628 40.3881 24.3491 40.3637 24.3405 40.3373C24.3319 40.3109 24.3286 40.283 24.3307 40.2552C24.3295 40.2288 24.335 40.2026 24.3465 40.179C24.358 40.1554 24.3752 40.1352 24.3964 40.1203C24.4504 40.0832 24.5147 40.0652 24.5796 40.069C24.6927 40.0684 24.8032 40.1038 24.896 40.1702V39.9482C24.804 39.8981 24.7004 39.8747 24.5964 39.8807C24.5337 39.8755 24.4706 39.8834 24.4109 39.9037C24.3511 39.924 24.296 39.9565 24.2488 39.9992C24.2053 40.0327 24.1705 40.0768 24.1476 40.1275C24.1246 40.1782 24.1142 40.2339 24.1173 40.2896C24.1167 40.3821 24.146 40.4721 24.2004 40.5457C24.274 40.6119 24.3585 40.6641 24.45 40.6995C24.5322 40.7358 24.6104 40.7811 24.6832 40.8345C24.7162 40.8712 24.7341 40.9195 24.7332 40.9694C24.7332 41.1044 24.65 41.1742 24.4668 41.1742C24.3337 41.1708 24.2053 41.1235 24.1005 41.0393V41.2785C24.2059 41.3425 24.3278 41.3722 24.45 41.3638C24.59 41.3723 24.7275 41.3238 24.8328 41.2289H24.8305ZM25.896 39.8625C25.8047 39.8578 25.7134 39.8719 25.6276 39.9042C25.5417 39.9365 25.4631 39.9862 25.3965 40.0504C25.3264 40.1281 25.2725 40.2197 25.2381 40.3196C25.2038 40.4194 25.1898 40.5254 25.1969 40.631C25.1899 40.7275 25.2026 40.8243 25.2342 40.9155C25.2657 41.0066 25.3154 41.09 25.38 41.1604C25.4443 41.229 25.5221 41.2828 25.6083 41.3181C25.6944 41.3534 25.7869 41.3694 25.8796 41.3652C25.9724 41.3711 26.0654 41.3558 26.1518 41.3204C26.2382 41.285 26.3158 41.2303 26.3791 41.1604C26.4439 41.0866 26.4936 41.0002 26.5251 40.9063C26.5565 40.8124 26.5692 40.7129 26.5623 40.6138C26.5686 40.4176 26.5099 40.225 26.3959 40.0673C26.334 39.9955 26.2565 39.9397 26.1698 39.9041C26.083 39.8685 25.9891 39.8543 25.896 39.8625ZM26.3288 40.6138C26.3388 40.7603 26.2975 40.9057 26.2124 41.0237C26.1706 41.0721 26.1194 41.1107 26.062 41.1372C26.0046 41.1637 25.9423 41.1774 25.8794 41.1774C25.8165 41.1774 25.7542 41.1637 25.6968 41.1372C25.6395 41.1107 25.5882 41.0721 25.5464 41.0237C25.4539 40.909 25.4069 40.7626 25.4149 40.6138C25.4071 40.4599 25.4538 40.3082 25.5464 40.1867C25.6362 40.099 25.7554 40.0501 25.8794 40.0501C26.0034 40.0501 26.1226 40.099 26.2124 40.1867C26.2998 40.3102 26.3411 40.4618 26.3288 40.6138ZM26.9447 41.3311H27.1611V40.0828H27.4939V39.8949H27.1621V39.6729C27.1621 39.4681 27.2453 39.3656 27.3952 39.3656C27.4467 39.3686 27.4973 39.38 27.5452 39.3993V39.1945C27.4912 39.1785 27.4348 39.1727 27.3788 39.1773C27.3235 39.175 27.2684 39.1844 27.2168 39.2049C27.1653 39.2255 27.1184 39.2567 27.0792 39.2968C27.0275 39.3432 26.987 39.4013 26.961 39.4665C26.9349 39.5317 26.9241 39.6023 26.9293 39.6726V39.9118H26.6961V40.0997H26.9293L26.946 41.3294L26.9447 41.3311ZM27.8602 40.9384C27.8602 41.2117 27.9767 41.3655 28.2266 41.3655C28.3017 41.3668 28.376 41.3492 28.443 41.3142V41.1094C28.4226 41.1278 28.3988 41.1418 28.373 41.1506C28.3473 41.1594 28.3201 41.1628 28.293 41.1607C28.2619 41.1658 28.2301 41.1623 28.2008 41.1504C28.1715 41.1385 28.1459 41.1188 28.1266 41.0932C28.086 41.0336 28.0682 40.9607 28.0766 40.8885V40.0859H28.4262V39.8979H28.0779V39.4708C28.0075 39.4987 27.9352 39.5213 27.8616 39.5383V39.8797H27.6284V40.0676H27.8616V40.9387L27.8602 40.9384ZM51.8825 43.5698C51.8035 43.5015 51.7027 43.4655 51.5994 43.4686C51.5203 43.4687 51.443 43.4928 51.3773 43.5379C51.3116 43.583 51.2603 43.647 51.2301 43.7219C51.1998 43.7968 51.1918 43.8793 51.2071 43.9589C51.2225 44.0384 51.2604 44.1115 51.3162 44.169C51.3953 44.2373 51.4961 44.2734 51.5994 44.2702C51.6784 44.2701 51.7557 44.246 51.8214 44.201C51.8872 44.1559 51.9384 44.0919 51.9687 44.0169C51.999 43.942 52.007 43.8596 51.9916 43.78C51.9763 43.7004 51.9383 43.6273 51.8825 43.5698ZM51.8496 44.1164C51.7919 44.1791 51.7147 44.2193 51.6313 44.2299C51.5478 44.2406 51.4634 44.2211 51.3924 44.1748C51.3215 44.1285 51.2685 44.0583 51.2425 43.9763C51.2165 43.8942 51.2192 43.8055 51.2501 43.7253C51.281 43.645 51.3382 43.5784 51.4119 43.5367C51.4855 43.495 51.571 43.481 51.6536 43.497C51.7362 43.513 51.8108 43.558 51.8646 43.6243C51.9184 43.6906 51.948 43.7741 51.9483 43.8603C51.9534 43.9077 51.9471 43.9557 51.9301 44.0001C51.913 44.0445 51.8856 44.084 51.8503 44.115L51.8496 44.1164ZM51.65 43.8772L51.7487 43.8259C51.7693 43.8025 51.781 43.7721 51.7816 43.7405C51.778 43.7047 51.7668 43.6702 51.7487 43.6393C51.7158 43.6056 51.6655 43.6056 51.5987 43.6056H51.4488V44.1181H51.5145V43.9133H51.5645C51.5974 43.9133 51.6303 43.947 51.6477 43.9986L51.6977 44.1181H51.7809L51.7151 43.9831C51.7113 43.9626 51.7035 43.9431 51.6922 43.9257C51.6809 43.9083 51.6663 43.8934 51.6494 43.8819L51.65 43.8772ZM51.6 43.8434H51.5168V43.6727H51.5826C51.6326 43.6727 51.6658 43.6727 51.6813 43.6899C51.6967 43.7071 51.698 43.7237 51.698 43.7574C51.698 43.8087 51.6651 43.8428 51.5994 43.8428L51.6 43.8434ZM39.1145 39.8288H39.1803V39.3143H39.3467V39.2468H38.9485V39.3143H39.1149V39.8268L39.1145 39.8288ZM39.4973 39.453V39.3335C39.4965 39.3522 39.5025 39.3705 39.5141 39.3848L39.7137 39.8288H39.7466L39.9462 39.3848C39.9462 39.3676 39.963 39.3511 39.963 39.3335V39.8288H40.0287V39.2468H39.9455L39.7791 39.6395C39.7791 39.6567 39.7624 39.6733 39.7463 39.707C39.7463 39.6898 39.7295 39.6733 39.7134 39.6395L39.547 39.2296H39.4648V39.8102H39.5305L39.4976 39.4516L39.4973 39.453Z" fill="#231F1F"/>
</g>
<defs>
<linearGradient id="paint0_linear_2320_16579" x1="-1895.94" y1="-1746.7" x2="-1889.48" y2="-1751.12" gradientUnits="userSpaceOnUse">
<stop stop-color="#909CA9"/>
<stop offset="1" stop-color="#EDEDEE"/>
</linearGradient>
<linearGradient id="paint1_linear_2320_16579" x1="-1895.89" y1="-1881.38" x2="-1890.5" y2="-1881.38" gradientUnits="userSpaceOnUse">
<stop stop-color="#939FAB"/>
<stop offset="1" stop-color="#DCDEE1"/>
</linearGradient>
<radialGradient id="paint2_radial_2320_16579" cx="0" cy="0" r="1" gradientTransform="matrix(-0.816833 -0.180956 0.171884 -1.67687 93.7266 -168.859)" gradientUnits="userSpaceOnUse">
<stop stop-color="#EE352C"/>
<stop offset="1" stop-color="#A91D22"/>
</radialGradient>
<clipPath id="clip0_2320_16579">
<rect width="35" height="29" fill="white" transform="translate(17 20)"/>
</clipPath>
</defs>
</svg>
