<svg width="70" height="70" viewBox="0 0 70 70" fill="none" xmlns="http://www.w3.org/2000/svg">
<circle cx="35" cy="35" r="34.5" fill="white" stroke="#662579"/>
<path d="M47.4256 42.4374C47.6257 42.0781 47.75 41.6732 47.75 41.3097V28.6901C47.75 28.3266 47.6258 27.9218 47.4256 27.5625L35 35L47.4256 42.4374Z" fill="#7F3A86"/>
<path d="M36.1078 49.6023L46.6495 43.2925C46.9532 43.1107 47.2292 42.7968 47.4293 42.4375L35.0037 35L22.5781 42.4375C22.7782 42.7968 23.0543 43.1108 23.3579 43.2925L33.8995 49.6023C34.5067 49.9658 35.5006 49.9658 36.1078 49.6023Z" fill="#662579"/>
<path d="M47.4256 27.5625C47.2255 27.2031 46.9494 26.8892 46.6459 26.7074L36.1041 20.3977C35.4969 20.0341 34.5031 20.0341 33.8959 20.3977L23.3542 26.7074C22.7468 27.0709 22.25 27.9632 22.25 28.6901V41.3098C22.25 41.6732 22.3742 42.0782 22.5744 42.4375L35 35L47.4256 27.5625Z" fill="#9A5196"/>
<path d="M35.0409 43.5C30.3315 43.5 26.5 39.6869 26.5 35C26.5 30.3131 30.3315 26.5 35.0409 26.5C38.0237 26.5 40.8091 28.0679 42.3514 30.6032L38.6938 32.7969C37.921 31.532 36.5299 30.75 35.0409 30.75C32.6861 30.75 30.7705 32.6565 30.7705 35C30.7705 37.3434 32.6861 39.25 35.0409 39.25C36.526 39.25 37.9135 38.4724 38.6876 37.2134L42.353 39.3944C40.811 41.9311 38.0246 43.5 35.0409 43.5Z" fill="white"/>
<path fill-rule="evenodd" clip-rule="evenodd" d="M44.5626 31.8125V32.8722H42.4374V31.8125H41.3751V32.8722H40.3125V33.9375H41.3751V36.057H40.3125V37.125H41.3751V38.1875H42.4374L42.4375 37.125H44.5626V38.1875H45.6249V37.125H46.6875V36.0625H45.6249V33.9375H46.6875V32.8722H45.6249V31.8125H44.5626ZM44.5626 36.0625V33.9375H42.4374V36.057L44.5626 36.0625Z" fill="white"/>
</svg>
