<svg width="70" height="70" viewBox="0 0 70 70" fill="none" xmlns="http://www.w3.org/2000/svg">
<circle cx="35" cy="35" r="34.5" fill="white" stroke="#00ACD7"/>
<g clip-path="url(#clip0_2308_29061)">
<path d="M14.8265 31.5697C14.7345 31.5697 14.7105 31.5226 14.7585 31.456L15.2425 30.8442C15.2741 30.8081 15.3134 30.7791 15.3576 30.7595C15.4019 30.7398 15.45 30.7299 15.4985 30.7305H23.7545C23.8465 30.7305 23.8705 30.7972 23.8225 30.8677L23.4225 31.456C23.395 31.4928 23.3604 31.5238 23.3205 31.5474C23.2807 31.5709 23.2365 31.5865 23.1905 31.5932L14.8265 31.5697Z" fill="#00ACD7"/>
<path d="M11.3343 33.6564C11.2423 33.6564 11.2183 33.6093 11.2663 33.5426L11.7503 32.9426C11.7819 32.9065 11.8212 32.8776 11.8655 32.8579C11.9097 32.8383 11.9578 32.8284 12.0063 32.8289H22.5543C22.5723 32.8268 22.5905 32.8291 22.6074 32.8356C22.6242 32.8422 22.6391 32.8528 22.6506 32.8665C22.6622 32.8801 22.67 32.8964 22.6735 32.9138C22.6769 32.9313 22.6758 32.9493 22.6703 32.9662L22.4863 33.5113C22.4722 33.5536 22.4441 33.5901 22.4064 33.6149C22.3687 33.6398 22.3236 33.6516 22.2783 33.6485L11.3343 33.6564Z" fill="#00ACD7"/>
<path d="M16.9359 35.7416C16.8439 35.7416 16.8199 35.6749 16.8679 35.6043L17.1919 35.0357C17.2157 35.0001 17.2468 34.9698 17.2834 34.9468C17.3199 34.9238 17.361 34.9087 17.4039 34.9023H22.0479C22.1399 34.9023 22.1879 34.969 22.1879 35.0592L22.1399 35.6043C22.1371 35.645 22.1193 35.6833 22.0899 35.7122C22.0605 35.741 22.0214 35.7584 21.9799 35.7612L16.9359 35.7416Z" fill="#00ACD7"/>
<path d="M40.9492 31.1606C39.4932 31.5254 38.4972 31.7959 37.0612 32.1606C36.7132 32.2508 36.6892 32.2744 36.3892 31.9332C36.0985 31.568 35.7263 31.2729 35.3012 31.0705C33.8452 30.3685 32.4332 30.5724 31.1132 31.4116C30.363 31.8588 29.7486 32.4947 29.3336 33.2532C28.9186 34.0117 28.7182 34.8653 28.7532 35.7254C28.7437 36.5897 29.0556 37.4278 29.6305 38.0832C30.2054 38.7385 31.0041 39.1661 31.8772 39.2861C32.6079 39.3895 33.3535 39.3055 34.0412 39.0423C34.7289 38.7791 35.3353 38.3456 35.8012 37.7842C36.0092 37.5332 36.2012 37.2626 36.4252 36.945H31.9732C31.4892 36.945 31.3732 36.6508 31.5332 36.2626C31.8332 35.5606 32.3892 34.3803 32.7132 33.792C32.7627 33.6821 32.8441 33.5889 32.9472 33.5241C33.0504 33.4592 33.1707 33.4256 33.2932 33.4273H41.7132C41.6652 34.0391 41.6652 34.6508 41.5732 35.2665C41.334 36.882 40.6818 38.4118 39.6772 39.7136C38.9058 40.7649 37.9223 41.6496 36.7876 42.3127C35.653 42.9759 34.3914 43.4033 33.0812 43.5685C31.9943 43.7415 30.883 43.698 29.8137 43.4406C28.7443 43.1832 27.7388 42.7172 26.8572 42.0705C26.0351 41.4799 25.3488 40.7264 24.843 39.8589C24.3372 38.9914 24.0231 38.0294 23.9212 37.0352C23.7799 35.8545 23.8813 34.6581 24.2193 33.5164C24.5573 32.3748 25.1251 31.3111 25.8892 30.3881C27.4567 28.3149 29.7764 26.9111 32.3692 26.4665C34.5452 26.0744 36.6252 26.3293 38.5012 27.5763C39.7001 28.3581 40.6344 29.4721 41.1852 30.7763C41.3172 30.9803 41.2252 31.0901 40.9492 31.1606Z" fill="#00ACD7"/>
<path d="M48.5962 43.7022C46.534 43.7148 44.5347 43.0072 42.9562 41.7061C41.6085 40.5933 40.7199 39.0377 40.4562 37.3296C40.2578 36.1226 40.3224 34.888 40.6458 33.7071C40.9691 32.5263 41.5439 31.426 42.3322 30.4786C44.0202 28.3022 46.0562 27.1688 48.8122 26.6904C51.1682 26.2747 53.3962 26.51 55.3962 27.8433C56.2851 28.4006 57.0382 29.1426 57.6023 30.0168C58.1663 30.891 58.5275 31.876 58.6602 32.9022C58.8831 34.2993 58.7576 35.7286 58.2944 37.0678C57.8312 38.407 57.044 39.6164 56.0002 40.5924C54.4918 42.0883 52.5558 43.1002 50.4482 43.4943C49.8282 43.612 49.2042 43.6355 48.5962 43.7022ZM54.1042 34.5375C54.0962 34.2867 54.0735 34.0366 54.0362 33.7884C53.9509 33.2754 53.7573 32.7855 53.4678 32.35C53.1784 31.9144 52.7994 31.5429 52.3552 31.2591C51.911 30.9753 51.4113 30.7854 50.888 30.7017C50.3648 30.618 49.8294 30.6422 49.3162 30.7728C48.3149 30.9551 47.3931 31.4297 46.6715 32.1343C45.9499 32.8389 45.4622 33.7408 45.2722 34.7218C45.0621 35.5669 45.1593 36.4574 45.547 37.2399C45.9347 38.0223 46.5887 38.6476 47.3962 39.0081C47.9931 39.2723 48.6442 39.3975 49.2987 39.3736C49.9531 39.3498 50.593 39.1777 51.1682 38.8708C52.0163 38.4875 52.7398 37.8817 53.2587 37.1204C53.7775 36.3591 54.0715 35.472 54.1082 34.5571L54.1042 34.5375Z" fill="#00ACD7"/>
</g>
<defs>
<clipPath id="clip0_2308_29061">
<rect width="48" height="30" fill="white" transform="translate(11 20)"/>
</clipPath>
</defs>
</svg>
