<svg width="70" height="70" viewBox="0 0 70 70" fill="none" xmlns="http://www.w3.org/2000/svg">
<circle cx="35" cy="35" r="34.5" fill="white" stroke="#01508F"/>
<g clip-path="url(#clip0_2308_28624)">
<mask id="mask0_2308_28624" style="mask-type:luminance" maskUnits="userSpaceOnUse" x="28" y="18" width="9" height="14">
<path d="M28.9297 19.1731C30.3447 23.4287 30.9408 31.0737 35.1119 31.0737C35.4365 31.0856 35.7614 31.0615 36.0802 31.0017C32.2819 30.1356 31.7602 22.6347 29.4514 18.668C29.2593 18.8178 29.0844 18.9871 28.9297 19.1731Z" fill="white"/>
</mask>
<g mask="url(#mask0_2308_28624)">
<path d="M36.1561 18.668H-21.125V74.1319H36.1561V18.668Z" fill="url(#paint0_linear_2308_28624)"/>
</g>
<mask id="mask1_2308_28624" style="mask-type:luminance" maskUnits="userSpaceOnUse" x="29" y="18" width="8" height="13">
<path d="M29.4531 18.6663C31.762 22.561 32.2837 30.134 36.0826 30.9995L36.9765 30.7843C33.5498 29.0533 32.6559 21.7686 29.9765 18.2344C29.8188 18.3953 29.6439 18.5395 29.4548 18.6647" fill="white"/>
</mask>
<g mask="url(#mask1_2308_28624)">
<path d="M36.8998 18.2344H-21.7969V75.069H36.8998V18.2344Z" fill="url(#paint1_linear_2308_28624)"/>
</g>
<path d="M32.8802 16.3623C32.5557 16.3504 32.2308 16.3746 31.9119 16.4344C30.9763 16.6208 30.0894 16.9888 29.3047 17.5162C29.5462 17.7659 29.7703 18.031 29.9752 18.3096C30.7809 17.6521 31.6851 17.1171 32.6569 16.7227C32.9683 16.5939 33.2929 16.4973 33.6252 16.4344C33.382 16.3748 33.1309 16.3505 32.8802 16.3623Z" fill="#005999"/>
<mask id="mask2_2308_28624" style="mask-type:luminance" maskUnits="userSpaceOnUse" x="33" y="16" width="8" height="14">
<path d="M40.7761 16.3594H33.625V29.2697H40.7761V16.3594Z" fill="white"/>
</mask>
<g mask="url(#mask2_2308_28624)">
<mask id="mask3_2308_28624" style="mask-type:luminance" maskUnits="userSpaceOnUse" x="33" y="16" width="8" height="14">
<path d="M39.7328 29.1967C40.105 28.9083 40.4033 28.6195 40.7756 28.3311C39.2861 24.0756 38.7644 16.3584 34.5189 16.3584C34.219 16.3465 33.9187 16.3707 33.625 16.4305C37.4983 17.3681 37.9456 25.5183 39.7328 29.1967Z" fill="white"/>
</mask>
<g mask="url(#mask3_2308_28624)">
<path d="M80.3289 -16.0273H33.625V29.1949H80.3289V-16.0273Z" fill="url(#paint2_linear_2308_28624)"/>
</g>
</g>
<mask id="mask4_2308_28624" style="mask-type:luminance" maskUnits="userSpaceOnUse" x="32" y="16" width="3" height="1">
<path d="M34.5139 16.3594H32.875V16.4315H34.5139V16.3594Z" fill="white"/>
</mask>
<g mask="url(#mask4_2308_28624)">
<path d="M33.62 16.4305C33.3767 16.3709 33.1256 16.3466 32.875 16.3584H34.5139C34.214 16.3465 33.9137 16.3707 33.62 16.4305Z" fill="#0091BE"/>
</g>
<path d="M39.6541 30.1379C39.4879 29.9852 39.3389 29.8159 39.2097 29.6328C38.5545 30.1052 37.8239 30.4707 37.0469 30.7146C37.3018 30.8536 37.5787 30.951 37.8663 31.0029C38.0842 31.0624 38.3108 31.0868 38.5369 31.075C39.2041 31.1242 39.8727 30.9998 40.4735 30.7146C40.1714 30.5641 39.895 30.3694 39.6541 30.1374" fill="#006CB6"/>
<mask id="mask5_2308_28624" style="mask-type:luminance" maskUnits="userSpaceOnUse" x="32" y="16" width="8" height="14">
<path d="M32.5781 16.6477C36.0781 18.3788 36.377 26.3843 39.1337 29.5581C39.2826 29.4139 39.5059 29.2697 39.6553 29.1277C37.9415 25.4472 37.4198 17.297 33.5465 16.3594C33.2389 16.4982 32.9131 16.5952 32.5781 16.6477Z" fill="white"/>
</mask>
<g mask="url(#mask5_2308_28624)">
<path d="M39.8024 16.5039H-21.2031V75.5742H39.8024V16.5039Z" fill="url(#paint3_linear_2308_28624)"/>
</g>
<mask id="mask6_2308_28624" style="mask-type:luminance" maskUnits="userSpaceOnUse" x="29" y="16" width="11" height="15">
<path d="M29.9688 18.2375C32.6504 21.7717 33.5443 29.0563 37.0449 30.7175C37.8147 30.4574 38.5422 30.0922 39.2054 29.633C36.4493 26.3871 36.1499 18.4537 32.6499 16.7227C31.6664 17.0613 30.7571 17.5751 29.9688 18.2375Z" fill="white"/>
</mask>
<g mask="url(#mask6_2308_28624)">
<path d="M39.2091 16.7227H30.0469V30.7869H39.2091V16.7227Z" fill="url(#paint4_linear_2308_28624)"/>
</g>
<mask id="mask7_2308_28624" style="mask-type:luminance" maskUnits="userSpaceOnUse" x="25" y="18" width="4" height="5">
<path d="M28.9289 18.0195H25.875V22.7076H28.9289V18.0195Z" fill="white"/>
</mask>
<g mask="url(#mask7_2308_28624)">
<path d="M27.2156 19.0288C26.6959 20.2289 26.2483 21.4571 25.875 22.7072C26.8007 21.4348 27.822 20.2302 28.9306 19.1031C28.7817 18.6727 28.6328 18.3096 28.4861 17.9492C28.0417 18.3096 27.6667 18.6706 27.22 19.031" fill="#00B8F1"/>
</g>
<path d="M28.8566 17.7305C28.7153 17.8037 28.5892 17.9014 28.4844 18.0188C28.6333 18.3792 28.7822 18.7402 28.9288 19.1727L29.4505 18.6675C29.297 18.3307 29.0972 18.0155 28.8566 17.7305Z" fill="#0078AE"/>
<path d="M29.296 17.4414C29.1471 17.5135 28.9982 17.6566 28.8516 17.7297C29.0757 18.001 29.2752 18.2906 29.4477 18.5953L29.8921 18.1649C29.7167 17.9066 29.5171 17.6644 29.296 17.4414Z" fill="#005E9C"/>
<mask id="mask8_2308_28624" style="mask-type:luminance" maskUnits="userSpaceOnUse" x="42" y="16" width="13" height="15">
<path d="M55.0019 16H42.5625V31.0018H55.0019V16Z" fill="white"/>
</mask>
<g mask="url(#mask8_2308_28624)">
<mask id="mask9_2308_28624" style="mask-type:luminance" maskUnits="userSpaceOnUse" x="42" y="15" width="14" height="16">
<path d="M52.9159 15.9996C50.9793 23.2843 46.882 29.1962 43.4559 30.7131C43.3995 30.7207 43.3472 30.746 43.307 30.7852H42.7109C42.8763 30.8496 43.0553 30.8744 43.2326 30.8573C46.5104 30.8573 49.7882 25.2316 55.2254 15.8555H52.9159V15.9996Z" fill="white"/>
</mask>
<g mask="url(#mask9_2308_28624)">
<path d="M88.145 -12.9961H42.6328V31.0723H88.145V-12.9961Z" fill="url(#paint5_linear_2308_28624)"/>
</g>
</g>
<mask id="mask10_2308_28624" style="mask-type:luminance" maskUnits="userSpaceOnUse" x="15" y="16" width="12" height="16">
<path d="M26.3222 16.3594H15V31.4333H26.3222V16.3594Z" fill="white"/>
</mask>
<g mask="url(#mask10_2308_28624)">
<path d="M25.1306 16.6465H25.2778C25.3522 16.6465 25.3522 16.6465 25.4267 16.5744H25.5756C25.65 16.5744 25.7244 16.5744 25.7244 16.5023H25.8733C22.3744 16.3582 17.3089 22.9215 15 31.4321H15.4444C16.1894 30.2061 16.8594 28.9797 17.4556 27.8979C19.0222 21.8397 22.3 17.7283 25.1306 16.6465Z" fill="#00A0E3"/>
</g>
<path d="M27.2188 19.0283C27.6222 18.6705 28.0448 18.3334 28.4849 18.0186C28.4104 17.8034 28.2626 17.6582 28.1871 17.4414C27.7891 17.9238 27.4631 18.458 27.2188 19.0283Z" fill="#0082C5"/>
<path d="M27.5156 16.6484C27.7749 16.8826 28.0004 17.1495 28.1862 17.4419L28.4084 17.2267C28.1286 17.0094 27.8299 16.8159 27.5156 16.6484Z" fill="#0082C5"/>
<mask id="mask11_2308_28624" style="mask-type:luminance" maskUnits="userSpaceOnUse" x="17" y="16" width="9" height="12">
<path d="M17.4609 27.8998C20.8132 21.6248 22.377 17.6581 25.1332 16.6484C22.3026 17.7302 19.0254 21.8416 17.4609 27.8998Z" fill="white"/>
</mask>
<g mask="url(#mask11_2308_28624)">
<path d="M64.0123 -17.3242H17.3828V27.826H64.0123V-17.3242Z" fill="url(#paint6_linear_2308_28624)"/>
</g>
<path d="M28.3316 17.2266L28.1094 17.4417C28.2235 17.6266 28.323 17.8196 28.4072 18.0189C28.5484 17.9457 28.6746 17.848 28.7794 17.7306C28.6758 17.5291 28.5219 17.3559 28.3316 17.2266Z" fill="#007DC4"/>
<mask id="mask12_2308_28624" style="mask-type:luminance" maskUnits="userSpaceOnUse" x="18" y="22" width="8" height="10">
<path d="M25.8777 22.707H18.7266V31.4339H25.8777V22.707Z" fill="white"/>
</mask>
<g mask="url(#mask12_2308_28624)">
<mask id="mask13_2308_28624" style="mask-type:luminance" maskUnits="userSpaceOnUse" x="18" y="22" width="8" height="10">
<path d="M18.9462 31.4339H18.6484C22.0007 31.3618 23.5645 29.7028 24.3095 27.323C24.9057 25.5199 25.3523 24.0051 25.7995 22.707C24.2532 24.8868 22.8357 27.1498 21.554 29.485C21.3177 29.9917 20.9563 30.4344 20.5017 30.774C20.047 31.1136 19.513 31.3397 18.9468 31.4323" fill="white"/>
</mask>
<g mask="url(#mask13_2308_28624)">
<path d="M64.0154 -12.418H18.7266V31.4342H64.0154V-12.418Z" fill="url(#paint7_linear_2308_28624)"/>
</g>
</g>
<mask id="mask14_2308_28624" style="mask-type:luminance" maskUnits="userSpaceOnUse" x="18" y="19" width="10" height="13">
<path d="M18.9453 31.4331C19.5021 31.3426 20.0288 31.1254 20.4821 30.7994C20.9353 30.4734 21.3022 30.0479 21.5525 29.5579C22.8003 27.2042 24.2191 24.9391 25.7981 22.7799C26.3198 21.193 26.7664 20.0392 27.1386 19.1016C24.3831 21.6245 21.5525 25.9516 18.9453 31.4331Z" fill="white"/>
</mask>
<g mask="url(#mask14_2308_28624)">
<path d="M27.1355 18.957H18.8672V31.2902H27.1355V18.957Z" fill="url(#paint8_linear_2308_28624)"/>
</g>
<path d="M17.4564 27.9023C16.8603 28.9841 16.1903 30.2106 15.4453 31.4366H16.7114C16.9336 30.2106 17.1559 28.9841 17.4564 27.9023Z" fill="#00A0E3"/>
<mask id="mask15_2308_28624" style="mask-type:luminance" maskUnits="userSpaceOnUse" x="16" y="16" width="13" height="16">
<path d="M26.2449 16.3594H25.8727C25.7983 16.3594 25.7238 16.3594 25.7238 16.4315H25.5749C25.5005 16.4315 25.5005 16.4315 25.426 16.5035H25.2772C22.446 17.5853 20.8816 21.5526 17.5299 27.7549C17.228 28.9178 17.004 30.0983 16.8594 31.2891H18.8705C21.4777 25.8808 24.3083 21.5526 27.1372 18.956C27.364 18.3774 27.6915 17.8406 28.1055 17.3691C27.9011 17.0901 27.6776 16.8246 27.4366 16.5745H26.766C26.6916 16.5745 26.6172 16.5745 26.6172 16.5025H26.3949C26.3194 16.3594 26.2449 16.3594 26.2449 16.3594Z" fill="white"/>
</mask>
<g mask="url(#mask15_2308_28624)">
<path d="M16.8625 33.3081L9.5625 -6.86517L51.0525 -13.9336L58.4264 26.2402L16.8625 33.3081Z" fill="url(#paint9_linear_2308_28624)"/>
</g>
<mask id="mask16_2308_28624" style="mask-type:luminance" maskUnits="userSpaceOnUse" x="43" y="16" width="6" height="10">
<path d="M45.2404 20.0395C44.5699 22.0589 44.0488 23.6437 43.6016 25.0159C45.5925 22.2688 47.3132 19.3471 48.741 16.2891C46.8788 16.9383 45.836 18.2364 45.241 20.0395" fill="white"/>
</mask>
<g mask="url(#mask16_2308_28624)">
<path d="M65.2777 4.02734H43.6016V25.0158H65.2777V4.02734Z" fill="url(#paint10_linear_2308_28624)"/>
</g>
<mask id="mask17_2308_28624" style="mask-type:luminance" maskUnits="userSpaceOnUse" x="43" y="16" width="10" height="15">
<path d="M52.9131 16H43.4531V30.7135H52.9131V16Z" fill="white"/>
</mask>
<g mask="url(#mask17_2308_28624)">
<mask id="mask18_2308_28624" style="mask-type:luminance" maskUnits="userSpaceOnUse" x="43" y="16" width="10" height="15">
<path d="M43.6728 30.5693C43.5983 30.6414 43.5239 30.6414 43.375 30.7135C46.875 29.1987 50.9728 23.2847 52.9094 16H52.5372C47.9933 23.7892 46.5778 28.9824 43.6728 30.5693Z" fill="white"/>
</mask>
<g mask="url(#mask18_2308_28624)">
<path d="M55.5174 16.577L46.7274 65.0452L-3.32812 56.4619L5.53576 8.06641L55.5174 16.577Z" fill="url(#paint11_linear_2308_28624)"/>
</g>
</g>
<path d="M41.4403 29.9182C42.1853 29.0526 42.7809 27.5378 43.6003 25.0859C42.7453 26.2583 41.7722 27.3456 40.6953 28.3318C40.9931 28.909 41.217 29.4851 41.4403 29.9182Z" fill="#009ADE"/>
<path d="M41.4412 29.9219C41.2045 30.1989 40.9282 30.4418 40.6207 30.6432C40.5914 30.6704 40.5563 30.691 40.5179 30.7035C40.4795 30.7159 40.4387 30.72 40.3984 30.7153C40.7191 30.8864 41.0756 30.985 41.4412 31.0037H42.3351C42.1862 30.7885 41.8134 30.4265 41.4412 29.9219Z" fill="#006CB6"/>
<path d="M35.1094 31.0724C35.4339 31.0843 35.7588 31.0601 36.0777 31.0003L36.9716 30.7852C37.2266 30.9241 37.5034 31.0216 37.791 31.0735C38.009 31.133 38.2355 31.1573 38.4616 31.1456H35.1094V31.0724Z" fill="#0060AE"/>
<path d="M38.4609 31.0753C39.1281 31.1244 39.7968 31 40.3976 30.7148C40.7183 30.886 41.0748 30.9845 41.4404 31.0032H38.4609V31.0753Z" fill="#0060AE"/>
<path d="M41.8125 31.0742H42.4086C42.5739 31.1386 42.7529 31.1634 42.9303 31.1463L41.8125 31.0742Z" fill="#0064B0"/>
<path d="M40.7754 28.3342C40.4465 28.6432 40.0983 28.9323 39.7326 29.1997C39.5837 29.3439 39.3604 29.488 39.2109 29.6301C39.3598 29.7742 39.5087 29.9905 39.6554 30.1352C39.8963 30.3672 40.1727 30.5619 40.4748 30.7124C40.5493 30.7124 40.6237 30.6403 40.697 30.6403C41.021 30.4602 41.3006 30.2141 41.5165 29.9189C41.2098 29.4175 40.9601 28.8854 40.7715 28.332" fill="#0062A7"/>
<mask id="mask19_2308_28624" style="mask-type:luminance" maskUnits="userSpaceOnUse" x="41" y="16" width="12" height="15">
<path d="M51.2771 16H49.0426C48.9682 16.0721 48.9682 16.2152 48.8938 16.2883C47.437 19.3323 45.7175 22.2517 43.7538 25.0157C42.9343 27.4682 42.3388 28.9824 41.5938 29.848C41.8458 30.3088 42.235 30.6857 42.711 30.9297H43.2326C43.2891 30.9222 43.3414 30.8968 43.3815 30.8577C43.456 30.7856 43.5304 30.7856 43.6793 30.7135C46.5843 28.9824 47.9999 23.7892 52.5437 16H51.2771Z" fill="white"/>
</mask>
<g mask="url(#mask19_2308_28624)">
<path d="M52.4719 15.9297H5.17188V61.7292H52.4719V15.9297Z" fill="url(#paint12_linear_2308_28624)"/>
</g>
<mask id="mask20_2308_28624" style="mask-type:luminance" maskUnits="userSpaceOnUse" x="26" y="16" width="7" height="2">
<path d="M32.8762 16.3594H26.0234V17.8021H32.8762V16.3594Z" fill="white"/>
</mask>
<g mask="url(#mask20_2308_28624)">
<path d="M26.3984 16.3587H26.6207C26.6951 16.3587 26.7695 16.3587 26.7695 16.4308H27.3657C27.6803 16.5979 27.9794 16.791 28.2595 17.008L28.5573 16.7197C27.9804 16.2931 27.2732 16.0647 26.5473 16.0704C26.5473 16.3587 26.4729 16.3587 26.3984 16.3587Z" fill="#6DC3E8"/>
</g>
<mask id="mask21_2308_28624" style="mask-type:luminance" maskUnits="userSpaceOnUse" x="26" y="16" width="7" height="2">
<path d="M32.8762 16.3594H26.0234V17.8021H32.8762V16.3594Z" fill="white"/>
</mask>
<g mask="url(#mask21_2308_28624)">
<path d="M28.3359 17.2258C28.5021 17.3785 28.6511 17.5478 28.7804 17.7309C28.9767 17.6792 29.1562 17.58 29.302 17.4426C29.1231 17.2544 28.924 17.085 28.7082 16.9375C28.6034 17.0549 28.4772 17.1526 28.3359 17.2258Z" fill="#37BDE9"/>
</g>
<mask id="mask22_2308_28624" style="mask-type:luminance" maskUnits="userSpaceOnUse" x="26" y="16" width="7" height="2">
<path d="M32.8762 16.3594H26.0234V17.8021H32.8762V16.3594Z" fill="white"/>
</mask>
<g mask="url(#mask22_2308_28624)">
<mask id="mask23_2308_28624" style="mask-type:luminance" maskUnits="userSpaceOnUse" x="26" y="16" width="6" height="2">
<path d="M26.3984 16.3595H26.6962C27.4225 16.3535 28.1301 16.582 28.7073 17.0088C29.304 16.5037 30.1229 16.3595 31.1657 16.3595H26.3984Z" fill="white"/>
</mask>
<g mask="url(#mask23_2308_28624)">
<path d="M26.6949 14.4844L31.3132 16.2875L30.2705 18.5952L25.7266 16.7926L26.6949 14.4844Z" fill="url(#paint13_linear_2308_28624)"/>
</g>
</g>
<mask id="mask24_2308_28624" style="mask-type:luminance" maskUnits="userSpaceOnUse" x="26" y="16" width="7" height="2">
<path d="M32.8762 16.3594H26.0234V17.8021H32.8762V16.3594Z" fill="white"/>
</mask>
<g mask="url(#mask24_2308_28624)">
<mask id="mask25_2308_28624" style="mask-type:luminance" maskUnits="userSpaceOnUse" x="28" y="16" width="5" height="2">
<path d="M31.0911 16.3607C30.2181 16.2883 29.347 16.5184 28.6328 17.01C28.8642 17.1384 29.0668 17.3101 29.2289 17.5151C30.0392 17.0343 30.9173 16.6697 31.8356 16.4328C32.1545 16.373 32.4794 16.3488 32.8039 16.3607H31.0911Z" fill="white"/>
</mask>
<g mask="url(#mask25_2308_28624)">
<path d="M28.1875 16.6489L36.8281 12.8984L40.7014 21.2649L32.0608 25.0153L28.1875 16.6489Z" fill="url(#paint14_linear_2308_28624)"/>
</g>
</g>
<mask id="mask26_2308_28624" style="mask-type:luminance" maskUnits="userSpaceOnUse" x="40" y="16" width="9" height="13">
<path d="M48.9673 16H40.7734V28.2611H48.9673V16Z" fill="white"/>
</mask>
<g mask="url(#mask26_2308_28624)">
<mask id="mask27_2308_28624" style="mask-type:luminance" maskUnits="userSpaceOnUse" x="40" y="16" width="10" height="13">
<path d="M43.6821 25.0152C44.1266 23.6451 44.6505 21.9861 45.321 20.0388C45.9171 18.2356 46.9599 16.865 48.8966 16.2883C48.971 16.2162 48.971 16.0732 49.0455 16C45.9171 16.2152 44.4271 17.7311 43.6821 20.0388C42.416 24.0776 41.5966 26.6742 40.8516 28.3332C41.8637 27.2838 42.809 26.1758 43.6821 25.0152Z" fill="white"/>
</mask>
<g mask="url(#mask27_2308_28624)">
<path d="M48.8197 15.9258H2.5625V60.7156H48.8197V15.9258Z" fill="url(#paint15_linear_2308_28624)"/>
</g>
</g>
<path d="M48.4408 35.8338C48.5152 35.8338 48.5896 35.7617 48.663 35.6896C48.7108 35.6274 48.7366 35.5519 48.7366 35.4744C48.7366 35.3969 48.7108 35.3214 48.663 35.2592C48.5756 35.202 48.4701 35.1765 48.3652 35.1872H48.0674V36.341H48.2185V35.8359H48.293C48.3671 35.8359 48.4411 35.9076 48.5152 36.0511L48.6641 36.3394H48.8863L48.7374 36.0511C48.5902 35.9064 48.5158 35.8338 48.4408 35.8338ZM48.3663 35.6896H48.2185V35.3292H48.3674C48.4077 35.3245 48.4485 35.3286 48.4869 35.341C48.5253 35.3535 48.5604 35.3741 48.5896 35.4013C48.6641 35.4013 48.6641 35.4733 48.6641 35.5454C48.6286 35.5892 48.5836 35.6249 48.5322 35.6498C48.4808 35.6747 48.4238 35.6883 48.3663 35.6896ZM48.3663 34.8961C48.2382 34.8822 48.1085 34.9016 47.9907 34.9523C47.8728 35.0029 47.771 35.0831 47.6958 35.1845C47.6039 35.268 47.5302 35.3685 47.4791 35.48C47.428 35.5915 47.4004 35.7118 47.398 35.8338C47.3913 35.957 47.4147 36.0801 47.4665 36.193C47.5182 36.3058 47.5968 36.4052 47.6958 36.483C47.7871 36.5603 47.8935 36.6192 48.0086 36.6562C48.1238 36.6931 48.2454 36.7074 48.3663 36.6982C48.4936 36.7047 48.6208 36.682 48.7373 36.6319C48.8538 36.5818 48.9565 36.5057 49.0369 36.4099C49.1287 36.3264 49.2024 36.2259 49.2535 36.1144C49.3047 36.0029 49.3323 35.8826 49.3347 35.7606C49.349 35.6365 49.329 35.511 49.2767 35.3969C49.2243 35.2827 49.1416 35.1842 49.0369 35.1113C48.8463 34.9662 48.6087 34.89 48.3663 34.8961ZM48.9624 36.3389C48.8232 36.494 48.6321 36.5969 48.4225 36.6295C48.2129 36.6622 47.9981 36.6226 47.8157 36.5176C47.6332 36.4126 47.4945 36.2488 47.424 36.055C47.3534 35.8611 47.3554 35.6494 47.4295 35.4568C47.5037 35.2642 47.6453 35.103 47.8297 35.0012C48.0141 34.8993 48.2296 34.8634 48.4385 34.8997C48.6475 34.936 48.8366 35.0422 48.973 35.1997C49.1093 35.3572 49.1843 35.5561 49.1847 35.7617C49.1912 35.9747 49.1111 36.1817 48.9624 36.3389ZM19.6891 35.7617V34.8241C19.7287 34.995 19.7785 35.1637 19.838 35.3292L21.4769 38.9333H21.7741L23.413 35.3292C23.4874 35.2571 23.4874 35.114 23.5619 34.8988C23.5619 35.2592 23.4874 35.5481 23.4874 35.8364V39.0102H24.0835V34.3195H23.3391L21.8491 37.5654C21.7502 37.7479 21.6755 37.9418 21.6269 38.1426C21.5966 37.9369 21.5208 37.74 21.4047 37.5654L19.9124 34.2474H19.1674V38.9355H19.6891V35.7617ZM25.5735 34.6799C25.648 34.6799 25.7958 34.6799 25.7958 34.6078C25.8436 34.5456 25.8694 34.4702 25.8694 34.3926C25.8694 34.3151 25.8436 34.2397 25.7958 34.1775C25.7958 34.0333 25.7213 34.0333 25.5735 34.0333C25.5331 34.0277 25.4919 34.0314 25.4531 34.0439C25.4144 34.0564 25.3792 34.0775 25.3503 34.1054C25.3214 34.1334 25.2996 34.1675 25.2867 34.205C25.2738 34.2425 25.27 34.2825 25.2758 34.3216C25.2647 34.4232 25.2911 34.5253 25.3502 34.61C25.3798 34.6369 25.4151 34.6572 25.4537 34.6693C25.4924 34.6814 25.5333 34.685 25.5735 34.6799ZM25.3513 38.9355H25.873V35.5465H25.3513V38.9355ZM28.4069 39.0076C28.7429 39.0133 29.0754 38.9395 29.3752 38.7924V38.2873C29.1323 38.4854 28.8214 38.588 28.504 38.5747C28.1867 38.5613 27.8861 38.433 27.6619 38.2152C27.5481 38.0872 27.463 37.9379 27.4117 37.7765C27.3605 37.6152 27.3443 37.4453 27.3641 37.2776C27.3614 36.909 27.4932 36.5514 27.7363 36.2679C27.8525 36.1525 27.9916 36.0611 28.1452 35.9992C28.2988 35.9372 28.4638 35.906 28.6302 35.9075C28.7793 35.9003 28.9283 35.9221 29.0685 35.9715C29.2088 36.0209 29.3374 36.097 29.4469 36.1952V35.6175C29.1561 35.5345 28.8559 35.4861 28.553 35.4733C28.3056 35.4635 28.0589 35.5033 27.8282 35.5902C27.5975 35.6771 27.3878 35.8093 27.2124 35.9785C26.8762 36.3608 26.6913 36.8464 26.6908 37.3486C26.6781 37.7963 26.8363 38.2327 27.1352 38.5745C27.4885 38.8655 27.9404 39.0198 28.4041 39.0076H28.4069ZM31.163 35.6896C30.981 35.8407 30.8512 36.0421 30.7908 36.2668V35.5454H30.2691V38.9344H30.7908V37.2044C30.763 36.8665 30.8695 36.5312 31.0885 36.2668C31.1538 36.1731 31.243 36.0972 31.3474 36.0467C31.4519 35.9962 31.5681 35.9727 31.6847 35.9785C31.8366 35.9674 31.9891 35.9921 32.1291 36.0505V35.4733C32.0547 35.4733 31.9802 35.4013 31.8313 35.4013C31.5806 35.422 31.3443 35.5235 31.1602 35.6896H31.163ZM33.9191 39.0076C34.1561 39.024 34.3939 38.987 34.6136 38.8993C34.8333 38.8117 35.029 38.6758 35.1852 38.5024C35.3448 38.3256 35.4664 38.1197 35.5427 37.8968C35.619 37.6739 35.6486 37.4385 35.6297 37.2044C35.6548 36.7331 35.4961 36.2698 35.1852 35.9064C35.0285 35.7583 34.8415 35.6435 34.6363 35.5694C34.4311 35.4953 34.2122 35.4635 33.9935 35.476C33.7477 35.4587 33.5009 35.494 33.2708 35.5796C33.0407 35.6651 32.8328 35.7987 32.6621 35.9709C32.4914 36.1431 32.362 36.3496 32.2831 36.5757C32.2042 36.8018 32.1778 37.042 32.2058 37.2792C32.193 37.5018 32.2257 37.7246 32.302 37.935C32.3782 38.1453 32.4966 38.3391 32.6502 38.5051C32.8112 38.6725 33.0077 38.8041 33.2263 38.8909C33.4449 38.9776 33.6803 39.0174 33.9163 39.0076H33.9191ZM33.1741 36.2668C33.3884 36.0479 33.6824 35.9186 33.9935 35.9064C34.149 35.905 34.3029 35.9366 34.4444 35.9989C34.586 36.0611 34.7118 36.1526 34.813 36.2668C35.0416 36.5541 35.1471 36.9158 35.1074 37.2765C35.1273 37.4442 35.1111 37.6141 35.0598 37.7754C35.0086 37.9368 34.9234 38.0862 34.8097 38.2141C34.7084 38.3283 34.5826 38.4198 34.4411 38.482C34.2995 38.5443 34.1457 38.5759 33.9902 38.5745C33.8336 38.5838 33.6771 38.5558 33.5342 38.4929C33.3914 38.4301 33.2666 38.3344 33.1708 38.2141C32.9517 37.9497 32.8452 37.6144 32.873 37.2765C32.836 37.0973 32.8438 36.9122 32.8957 36.7366C32.9476 36.561 33.0421 36.3999 33.1713 36.2668H33.1741ZM38.0902 38.7192C38.1837 38.6369 38.2584 38.5367 38.3097 38.4249C38.3609 38.3131 38.3876 38.1922 38.388 38.0699C38.3828 37.8368 38.3053 37.6106 38.1658 37.4207C37.98 37.2441 37.7483 37.1195 37.4952 37.0602C37.3095 36.9857 37.1343 36.8888 36.9735 36.7719C36.8804 36.6732 36.8275 36.5451 36.8247 36.4115C36.8247 36.2673 36.8991 36.1963 36.9735 36.0511C37.097 35.9494 37.2562 35.8978 37.418 35.9069C37.7068 35.9007 37.9914 35.9754 38.2374 36.1221V35.5454C37.9996 35.456 37.7475 35.4072 37.4924 35.4013C37.331 35.3877 37.1684 35.4063 37.0147 35.4559C36.861 35.5055 36.7193 35.585 36.5985 35.6896C36.4883 35.7783 36.3982 35.8882 36.3341 36.0124C36.2701 36.1366 36.2334 36.2723 36.2263 36.411C36.22 36.624 36.2997 36.8311 36.4485 36.9882C36.6046 37.1643 36.8126 37.2901 37.0447 37.3486L37.6408 37.6369C37.7339 37.7356 37.7868 37.8637 37.7897 37.9973C37.7897 38.2856 37.5674 38.5024 37.1191 38.5024C36.7961 38.5067 36.481 38.4051 36.2252 38.2141V38.7913C36.4947 38.9469 36.8057 39.0218 37.1191 39.0065C37.2922 39.0258 37.4676 39.0103 37.6343 38.9609C37.8009 38.9114 37.9552 38.8292 38.0874 38.7192H38.0902ZM41.9635 38.504C42.1232 38.3272 42.2447 38.1214 42.321 37.8985C42.3973 37.6756 42.4269 37.4401 42.408 37.206C42.4331 36.7347 42.2745 36.2714 41.9635 35.908C41.8068 35.7599 41.6198 35.6451 41.4146 35.571C41.2094 35.4969 40.9905 35.4651 40.7719 35.4776C40.526 35.4603 40.2792 35.4956 40.0491 35.5812C39.819 35.6667 39.6112 35.8003 39.4405 35.9725C39.2697 36.1447 39.1403 36.3512 39.0615 36.5773C38.9826 36.8035 38.9562 37.0436 38.9841 37.2808C38.9714 37.5034 39.0041 37.7262 39.0803 37.9366C39.1566 38.1469 39.2749 38.3407 39.4285 38.5067C39.7652 38.8303 40.2203 39.0119 40.6947 39.0119C40.9312 39.0208 41.1669 38.9799 41.3856 38.892C41.6042 38.804 41.8004 38.6711 41.9608 38.5024L41.9635 38.504ZM39.5774 37.2765C39.5387 36.9154 39.6454 36.5537 39.8752 36.2668C40.0895 36.0479 40.3835 35.9186 40.6947 35.9064C40.8501 35.905 41.004 35.9366 41.1455 35.9989C41.2871 36.0611 41.4129 36.1526 41.5141 36.2668C41.7439 36.5537 41.8506 36.9154 41.8119 37.2765C41.8317 37.4442 41.8155 37.6141 41.7643 37.7754C41.713 37.9368 41.6278 38.0862 41.5141 38.2141C41.4129 38.3283 41.2871 38.4198 41.1455 38.482C41.004 38.5443 40.8501 38.5759 40.6947 38.5745C40.5381 38.5838 40.3815 38.5558 40.2387 38.4929C40.0958 38.4301 39.971 38.3344 39.8752 38.2141C39.6562 37.9497 39.5497 37.6144 39.5774 37.2765ZM43.2997 38.9355H43.8213V36.0505H44.6408V35.6202H43.823V35.1151C43.823 34.61 44.0452 34.3937 44.4191 34.3937C44.5477 34.3826 44.677 34.4076 44.7913 34.4658V33.9607C44.6798 33.8951 44.5481 33.8696 44.4191 33.8886C44.2808 33.8815 44.1425 33.9037 44.0139 33.9534C43.8852 34.0032 43.7693 34.0795 43.6741 34.1769C43.555 34.2894 43.4606 34.4241 43.3966 34.5728C43.3326 34.7216 43.3004 34.8813 43.3019 35.0425V35.6197H42.7058V36.05H43.3019L43.2997 38.9355ZM45.6085 37.9979C45.6085 38.6471 45.9063 39.0076 46.5024 39.0076C46.595 39.0228 46.6899 39.0177 46.7802 38.9928C46.8704 38.9678 46.9538 38.9236 47.0241 38.8634V38.433C46.9237 38.5257 46.7903 38.5774 46.6516 38.5774C46.5129 38.5774 46.3795 38.5257 46.2791 38.433C46.175 38.2844 46.1229 38.1074 46.1302 37.9279V36.0505H47.0241V35.6202H46.1324V34.6078C45.9666 34.6798 45.7909 34.7284 45.6108 34.752V35.5454H45.0152V35.9758H45.6113L45.6085 37.9979ZM15.9647 51.0524C15.8365 51.0385 15.7068 51.0578 15.589 51.1085C15.4711 51.1592 15.3694 51.2393 15.2941 51.3407C15.1932 51.4331 15.1142 51.5457 15.0628 51.6707C15.0114 51.7956 14.9887 51.9299 14.9963 52.0642C14.9827 52.1877 15.003 52.3125 15.0553 52.4259C15.1076 52.5392 15.19 52.6372 15.2941 52.7097C15.3791 52.8002 15.4826 52.8726 15.598 52.9222C15.7135 52.9719 15.8383 52.9977 15.9647 52.9981C16.103 53.0051 16.2413 52.983 16.3699 52.9332C16.4985 52.8834 16.6145 52.8072 16.7097 52.7097C16.8026 52.6279 16.8771 52.5283 16.9283 52.4172C16.9796 52.3061 17.0065 52.1859 17.0074 52.0642C17.0147 51.9303 16.9919 51.7964 16.9405 51.6718C16.8891 51.5473 16.8103 51.435 16.7097 51.3429C16.4984 51.1736 16.2381 51.0721 15.9647 51.0524ZM27.9574 49.1771C27.9324 49.7792 27.9573 50.3821 28.0319 50.9803C27.9574 50.8361 27.7341 50.5499 27.5102 50.1868L21.1041 40.4503H19.1674V52.7834H20.6574V43.9119C20.6855 43.3339 20.6606 42.7546 20.583 42.1808H20.6574C20.8063 42.4691 20.8797 42.6859 21.0297 42.9743L27.5852 52.7834H29.373V40.4503H27.8852V49.1771H27.9574ZM33.7674 47.2298H38.3852V45.9318H33.7674V41.8204H38.758V40.5224H32.2774V52.8555H39.0552V51.5575H33.7663V47.2298H33.7674ZM40.3969 41.8204H44.0469V52.8555H45.5369V41.8204H49.2591V40.5224H40.3969V41.8204ZM47.7708 31.0736H47.9197V29.9918H48.2919V29.8477H47.3985V29.9918H47.7708V31.0736ZM49.5585 29.8477L49.1863 30.7132C49.1809 30.7685 49.1544 30.82 49.1119 30.8574C49.1065 30.802 49.0799 30.7506 49.0374 30.7132L48.663 29.8477H48.4408V31.0736H48.5896V30.0628C48.5896 30.1349 48.5897 30.1349 48.6641 30.207L49.1085 31.1446H49.183L49.6274 30.207C49.6328 30.1516 49.6594 30.1002 49.7019 30.0628V31.0725H49.8508V29.8477H49.5585Z" fill="#231F20"/>
</g>
<defs>
<linearGradient id="paint0_linear_2308_28624" x1="15.0194" y1="54.2204" x2="15.764" y2="54.2204" gradientUnits="userSpaceOnUse">
<stop stop-color="#0095DA"/>
<stop offset="0.11" stop-color="#0095DA"/>
<stop offset="0.176" stop-color="#0397DB"/>
<stop offset="0.23" stop-color="#0E9FDF"/>
<stop offset="0.281" stop-color="#1FACE6"/>
<stop offset="0.329" stop-color="#37BEF0"/>
<stop offset="0.35" stop-color="#44C8F5"/>
<stop offset="0.45" stop-color="#44C8F5"/>
<stop offset="0.467" stop-color="#40C4F2"/>
<stop offset="0.632" stop-color="#1D9DDA"/>
<stop offset="0.764" stop-color="#0886CB"/>
<stop offset="0.846" stop-color="#007DC5"/>
<stop offset="1" stop-color="#007DC5"/>
</linearGradient>
<linearGradient id="paint1_linear_2308_28624" x1="15.0059" y1="54.2107" x2="15.769" y2="54.2107" gradientUnits="userSpaceOnUse">
<stop stop-color="#0078B9"/>
<stop offset="0.176" stop-color="#0078B9"/>
<stop offset="0.244" stop-color="#0087C7"/>
<stop offset="0.36" stop-color="#00ABE6"/>
<stop offset="0.52" stop-color="#00ABE6"/>
<stop offset="0.732" stop-color="#00ACE9"/>
<stop offset="0.846" stop-color="#00AEEF"/>
<stop offset="1" stop-color="#00AEEF"/>
</linearGradient>
<linearGradient id="paint2_linear_2308_28624" x1="14.9901" y1="54.2029" x2="15.7374" y2="54.2029" gradientUnits="userSpaceOnUse">
<stop stop-color="#0066B3"/>
<stop offset="0.139" stop-color="#0079C1"/>
<stop offset="0.418" stop-color="#00A9E6"/>
<stop offset="0.5" stop-color="#00B9F2"/>
<stop offset="1" stop-color="#00B9F2"/>
</linearGradient>
<linearGradient id="paint3_linear_2308_28624" x1="14.9732" y1="54.1907" x2="15.7662" y2="54.1907" gradientUnits="userSpaceOnUse">
<stop stop-color="#006CB3"/>
<stop offset="0.099" stop-color="#006CB3"/>
<stop offset="0.2" stop-color="#007EC1"/>
<stop offset="0.4" stop-color="#00ABE6"/>
<stop offset="0.516" stop-color="#00ABE6"/>
<stop offset="0.846" stop-color="#0097D9"/>
<stop offset="1" stop-color="#0097D9"/>
</linearGradient>
<linearGradient id="paint4_linear_2308_28624" x1="15.0025" y1="54.2179" x2="15.7446" y2="54.2179" gradientUnits="userSpaceOnUse">
<stop stop-color="#00487E"/>
<stop offset="0.11" stop-color="#00487E"/>
<stop offset="0.39" stop-color="#0087C7"/>
<stop offset="0.52" stop-color="#0087C7"/>
<stop offset="0.545" stop-color="#0082C2"/>
<stop offset="0.78" stop-color="#005598"/>
<stop offset="1" stop-color="#005598"/>
</linearGradient>
<linearGradient id="paint5_linear_2308_28624" x1="15.0069" y1="54.2082" x2="15.7351" y2="54.2082" gradientUnits="userSpaceOnUse">
<stop stop-color="#006DB0"/>
<stop offset="0.13" stop-color="#0A87C4"/>
<stop offset="0.327" stop-color="#16A8DE"/>
<stop offset="0.491" stop-color="#1DBDEE"/>
<stop offset="0.6" stop-color="#20C4F4"/>
<stop offset="1" stop-color="#20C4F4"/>
</linearGradient>
<linearGradient id="paint6_linear_2308_28624" x1="15.0047" y1="54.1937" x2="15.7508" y2="54.1937" gradientUnits="userSpaceOnUse">
<stop stop-color="#008FD0"/>
<stop offset="0.536" stop-color="#009DDB"/>
<stop offset="1" stop-color="#00A4E0"/>
</linearGradient>
<linearGradient id="paint7_linear_2308_28624" x1="15.0129" y1="54.1935" x2="15.7375" y2="54.1935" gradientUnits="userSpaceOnUse">
<stop stop-color="#00A1E4"/>
<stop offset="1" stop-color="#00A1E4"/>
</linearGradient>
<linearGradient id="paint8_linear_2308_28624" x1="14.9976" y1="54.2052" x2="15.7418" y2="54.2052" gradientUnits="userSpaceOnUse">
<stop stop-color="#005DA4"/>
<stop offset="0.154" stop-color="#005DA4"/>
<stop offset="0.318" stop-color="#007BC0"/>
<stop offset="0.5" stop-color="#00A1E4"/>
<stop offset="0.568" stop-color="#05A2E4"/>
<stop offset="0.651" stop-color="#14A6E4"/>
<stop offset="0.74" stop-color="#2CACE4"/>
<stop offset="0.834" stop-color="#4EB5E4"/>
<stop offset="0.918" stop-color="#72BEE4"/>
<stop offset="1" stop-color="#72BEE4"/>
</linearGradient>
<linearGradient id="paint9_linear_2308_28624" x1="14.9864" y1="54.1889" x2="15.7682" y2="54.1889" gradientUnits="userSpaceOnUse">
<stop stop-color="#005496"/>
<stop offset="0.104" stop-color="#005496"/>
<stop offset="1" stop-color="#0083C5"/>
</linearGradient>
<linearGradient id="paint10_linear_2308_28624" x1="14.9891" y1="54.2108" x2="15.7478" y2="54.2108" gradientUnits="userSpaceOnUse">
<stop stop-color="#00A1E4"/>
<stop offset="0.465" stop-color="#009FE1"/>
<stop offset="0.781" stop-color="#0098D8"/>
<stop offset="0.874" stop-color="#0095D4"/>
<stop offset="1" stop-color="#0095D4"/>
</linearGradient>
<linearGradient id="paint11_linear_2308_28624" x1="14.9728" y1="54.2192" x2="15.7378" y2="54.2192" gradientUnits="userSpaceOnUse">
<stop stop-color="#00A4E0"/>
<stop offset="0.357" stop-color="#00A4E0"/>
<stop offset="0.961" stop-color="#0089CF"/>
<stop offset="1" stop-color="#0089CF"/>
</linearGradient>
<linearGradient id="paint12_linear_2308_28624" x1="15.0103" y1="54.2181" x2="15.7671" y2="54.2181" gradientUnits="userSpaceOnUse">
<stop stop-color="#008DCF"/>
<stop offset="0.5" stop-color="#0087C8"/>
<stop offset="0.63" stop-color="#0078B8"/>
<stop offset="1" stop-color="#00508F"/>
</linearGradient>
<linearGradient id="paint13_linear_2308_28624" x1="15.0002" y1="54.2077" x2="15.7432" y2="54.2077" gradientUnits="userSpaceOnUse">
<stop stop-color="#8CCFEC"/>
<stop offset="0.111" stop-color="#84CDEC"/>
<stop offset="0.284" stop-color="#6EC9EB"/>
<stop offset="0.497" stop-color="#4AC2EA"/>
<stop offset="0.703" stop-color="#20BAE8"/>
<stop offset="1" stop-color="#20BAE8"/>
</linearGradient>
<linearGradient id="paint14_linear_2308_28624" x1="14.9979" y1="54.205" x2="15.7487" y2="54.205" gradientUnits="userSpaceOnUse">
<stop stop-color="#68C5EA"/>
<stop offset="0.335" stop-color="#68C5EA"/>
<stop offset="0.358" stop-color="#64C4EA"/>
<stop offset="0.656" stop-color="#2EBAEA"/>
<stop offset="0.878" stop-color="#0DB4EA"/>
<stop offset="1" stop-color="#00B2EA"/>
</linearGradient>
<linearGradient id="paint15_linear_2308_28624" x1="15.0057" y1="54.221" x2="15.7458" y2="54.221" gradientUnits="userSpaceOnUse">
<stop stop-color="#00A5E5"/>
<stop offset="1" stop-color="#00A8E3"/>
</linearGradient>
<clipPath id="clip0_2308_28624">
<rect width="40" height="37" fill="white" transform="translate(15 16)"/>
</clipPath>
</defs>
</svg>
