<svg width="70" height="70" viewBox="0 0 70 70" fill="none" xmlns="http://www.w3.org/2000/svg">
<circle cx="35" cy="35" r="34.5" fill="white" stroke="#689F63"/>
<g clip-path="url(#clip0_2308_29033)">
<path d="M34.7859 46.0118C34.6597 46.0114 34.5359 45.9784 34.4267 45.916L33.2866 45.2452C33.1156 45.1512 33.1992 45.1173 33.2559 45.0985C33.4352 45.0422 33.6069 44.9645 33.7671 44.8672C33.7802 44.8599 33.7949 44.8561 33.8099 44.8561C33.8249 44.8561 33.8396 44.8599 33.8527 44.8672L34.7322 45.3825C34.7487 45.3909 34.7669 45.3953 34.7854 45.3953C34.8039 45.3953 34.8221 45.3909 34.8386 45.3825L38.2711 43.4224C38.2872 43.4131 38.3005 43.3998 38.3099 43.3839C38.3192 43.368 38.3242 43.3499 38.3244 43.3315V39.4168C38.3245 39.398 38.3197 39.3794 38.3103 39.3629C38.301 39.3464 38.2875 39.3326 38.2711 39.3229L34.841 37.3677C34.8249 37.3584 34.8065 37.3536 34.7879 37.3536C34.7692 37.3536 34.7509 37.3584 34.7347 37.3677L31.3055 39.3259C31.2893 39.3352 31.2757 39.3484 31.266 39.3643C31.2564 39.3802 31.251 39.3983 31.2504 39.4168V43.333C31.2504 43.3515 31.2554 43.3696 31.2647 43.3855C31.2741 43.4015 31.2875 43.4148 31.3037 43.424L32.2443 43.9614C32.7555 44.2133 33.0668 43.9162 33.0668 43.6177V39.7521C33.0668 39.7262 33.0772 39.7014 33.0958 39.6831C33.1143 39.6648 33.1394 39.6545 33.1655 39.6545H33.6007C33.6269 39.6545 33.652 39.6648 33.6705 39.6831C33.689 39.7014 33.6994 39.7262 33.6994 39.7521V43.6195C33.6994 44.2921 33.3194 44.6804 32.6828 44.6804C32.4044 44.6851 32.1303 44.6116 31.8924 44.4682L30.992 43.9553C30.8826 43.892 30.7918 43.8014 30.7288 43.6926C30.6658 43.5838 30.6327 43.4605 30.6328 43.3351V39.4168C30.6326 39.2917 30.6657 39.1687 30.7288 39.0601C30.7918 38.9516 30.8826 38.8614 30.992 38.7985L34.4347 36.8402C34.5456 36.781 34.6696 36.75 34.7957 36.75C34.9217 36.75 35.0458 36.781 35.1567 36.8402L38.5892 38.8003C38.6971 38.8643 38.7862 38.9549 38.8479 39.0634C38.9095 39.1718 38.9415 39.2943 38.9408 39.4187V43.3348C38.9406 43.4599 38.9073 43.5828 38.8443 43.6913C38.7813 43.7997 38.6907 43.89 38.5816 43.9532L35.149 45.9133C35.0393 45.976 34.9148 46.009 34.788 46.0091" fill="#689F63"/>
<path d="M35.8474 43.3117C34.3457 43.3117 34.0312 42.6297 34.0312 42.0583C34.0312 42.0324 34.0416 42.0075 34.0602 41.9892C34.0787 41.9709 34.1038 41.9606 34.1299 41.9606H34.5725C34.5963 41.9604 34.6193 41.9686 34.6375 41.9838C34.6556 41.999 34.6676 42.0202 34.6712 42.0434C34.7377 42.4905 34.9372 42.7161 35.8453 42.7161C36.5692 42.7161 36.8769 42.5545 36.8769 42.175C36.8769 41.957 36.7895 41.7991 35.6666 41.6863C34.726 41.5954 34.1468 41.3895 34.1468 40.6472C34.1468 39.963 34.7291 39.5559 35.7098 39.5559C36.8079 39.5559 37.3531 39.9318 37.4197 40.7436C37.4207 40.7572 37.4188 40.771 37.4142 40.7839C37.4097 40.7968 37.4024 40.8087 37.393 40.8187C37.3837 40.8285 37.3725 40.8364 37.3601 40.8418C37.3476 40.8473 37.3342 40.8503 37.3207 40.8506H36.8741C36.8515 40.8507 36.8295 40.8431 36.8119 40.829C36.7943 40.815 36.7821 40.7954 36.7773 40.7736C36.6691 40.3037 36.4095 40.1534 35.7046 40.1534C34.916 40.1534 34.8232 40.4262 34.8232 40.6287C34.8232 40.8766 34.9314 40.9482 35.9973 41.0873C37.0632 41.2265 37.5533 41.4208 37.5533 42.1546C37.5533 42.8885 36.9302 43.3178 35.8434 43.3178M40.0232 39.1649H40.1353C40.1498 39.1665 40.1645 39.165 40.1783 39.1605C40.1922 39.156 40.2048 39.1486 40.2155 39.1387C40.2262 39.1289 40.2345 39.1169 40.2401 39.1036C40.2456 39.0902 40.2481 39.0759 40.2475 39.0615C40.2475 38.9618 40.1773 38.9618 40.1393 38.9618H40.0216L40.0232 39.1649ZM39.8825 38.8435H40.135C40.2224 38.8435 40.3952 38.8435 40.3952 39.0315C40.4008 39.0747 40.3892 39.1184 40.363 39.1534C40.3368 39.1884 40.298 39.212 40.2546 39.2194C40.3572 39.2194 40.3627 39.2928 40.3771 39.3867C40.3812 39.4508 40.394 39.514 40.4152 39.5747H40.2573C40.2573 39.5407 40.2288 39.3528 40.2288 39.3434C40.2282 39.3342 40.2256 39.3252 40.2212 39.317C40.2169 39.3089 40.2108 39.3017 40.2035 39.296C40.1962 39.2903 40.1877 39.2862 40.1786 39.2839C40.1696 39.2816 40.1602 39.2812 40.151 39.2828H40.0216V39.5759H39.8773L39.8825 38.8435ZM39.576 39.2073C39.5037 39.1342 39.4636 39.0359 39.4644 38.9336C39.4652 38.8314 39.5069 38.7336 39.5804 38.6617C39.6538 38.5898 39.7531 38.5496 39.8565 38.5499C39.9598 38.5502 40.0589 38.5909 40.132 38.6632C40.205 38.7355 40.2462 38.8334 40.2465 38.9357C40.2468 39.0379 40.2061 39.1361 40.1334 39.2087C40.0607 39.2814 39.9619 39.3227 39.8585 39.3235C39.7552 39.3243 39.6557 39.2846 39.5818 39.2131M40.7976 39.2131C40.8806 39.4757 40.8549 39.7602 40.726 40.004C40.5971 40.2479 40.3756 40.4312 40.1102 40.5137C39.8448 40.5962 39.5571 40.5711 39.3104 40.444C39.0636 40.3168 38.878 40.098 38.7942 39.8356C38.7104 39.5732 38.7354 39.2887 38.8636 39.0444C38.9917 38.8002 39.2127 38.6163 39.4778 38.533C39.743 38.4498 40.0307 38.474 40.2779 38.6005C40.525 38.7269 40.7112 38.9451 40.7958 39.2073" fill="#689F63"/>
<path d="M24.1553 30.6845C24.1552 30.6083 24.1348 30.5333 24.0961 30.4674C24.0574 30.4014 24.0019 30.3466 23.935 30.3087L20.2977 28.2416C20.2369 28.2068 20.1684 28.1874 20.0982 28.1852H20.0602C19.9894 28.1874 19.9203 28.2068 19.8588 28.2416L16.2204 30.3087C16.1537 30.3469 16.0983 30.4017 16.0597 30.4676C16.021 30.5336 16.0005 30.6083 16 30.6845L16.0031 36.2619C16.0024 36.2999 16.012 36.3374 16.0309 36.3705C16.0497 36.4036 16.0772 36.4312 16.1103 36.4504C16.1431 36.4706 16.181 36.4812 16.2196 36.4812C16.2582 36.4812 16.296 36.4706 16.3288 36.4504L18.491 35.2252C18.5577 35.1869 18.6131 35.1321 18.6517 35.0662C18.6903 35.0002 18.7109 34.9255 18.7114 34.8493V32.2423C18.7115 32.1661 18.7319 32.0911 18.7706 32.0252C18.8093 31.9592 18.8649 31.9044 18.9318 31.8664L19.8607 31.3366C19.9276 31.2982 20.0037 31.2781 20.081 31.2784C20.1578 31.2781 20.2333 31.2982 20.2996 31.3366L21.219 31.861C21.2859 31.899 21.3415 31.9537 21.3801 32.0197C21.4188 32.0857 21.4392 32.1606 21.4393 32.2369V34.8468C21.44 34.923 21.4607 34.9977 21.4993 35.0636C21.5379 35.1295 21.5932 35.1843 21.6597 35.2227L23.8197 36.448C23.853 36.4677 23.8911 36.4781 23.9299 36.4781C23.9687 36.4781 24.0068 36.4677 24.0401 36.448C24.0731 36.4287 24.1005 36.4012 24.1194 36.3682C24.1384 36.3353 24.1483 36.298 24.1483 36.26L24.1553 30.6845ZM41.3229 33.5916C41.323 33.6107 41.318 33.6295 41.3083 33.646C41.2986 33.6625 41.2846 33.6762 41.2677 33.6855L40.0186 34.3979C40.0018 34.4075 39.9828 34.4125 39.9634 34.4125C39.944 34.4125 39.925 34.4075 39.9082 34.3979L38.6581 33.6858C38.6427 33.6755 38.6302 33.6615 38.6219 33.645C38.6136 33.6286 38.6097 33.6103 38.6106 33.5919V32.1617C38.6105 32.1428 38.6154 32.1242 38.6247 32.1077C38.6341 32.0913 38.6476 32.0775 38.6639 32.0677L39.9122 31.3535C39.929 31.344 39.948 31.3389 39.9674 31.3389C39.9867 31.3389 40.0058 31.344 40.0225 31.3535L41.2727 32.0677C41.2893 32.0773 41.3032 32.091 41.3129 32.1074C41.3226 32.1239 41.3277 32.1426 41.3278 32.1617L41.3229 33.5916ZM41.66 23.0232C41.6267 23.005 41.5892 22.9957 41.5511 22.9961C41.5131 22.9965 41.4758 23.0067 41.4429 23.0256C41.41 23.0446 41.3826 23.0716 41.3634 23.1041C41.3442 23.1366 41.3338 23.1735 41.3333 23.2111V28.7321C41.3334 28.7587 41.3263 28.7849 41.3129 28.8079C41.2995 28.831 41.2802 28.8502 41.2568 28.8635C41.2335 28.8769 41.2071 28.8839 41.1802 28.8839C41.1532 28.8839 41.1268 28.8769 41.1035 28.8636L40.1932 28.345C40.1265 28.3069 40.0508 28.2868 39.9738 28.2868C39.8968 28.2868 39.8211 28.3069 39.7544 28.345L36.114 30.4214C36.0472 30.4594 35.9916 30.5141 35.9529 30.5801C35.9142 30.6461 35.8938 30.721 35.8937 30.7973V34.9542C35.894 35.0304 35.9145 35.1052 35.9531 35.1712C35.9918 35.2371 36.0473 35.2919 36.114 35.33L39.7507 37.4083C39.8175 37.4462 39.8931 37.4662 39.9701 37.4662C40.0471 37.4662 40.1228 37.4462 40.1896 37.4083L43.8311 35.3288C43.8979 35.2907 43.9534 35.2359 43.992 35.17C44.0307 35.104 44.0512 35.0292 44.0515 34.9529V24.5943C44.0506 24.5175 44.0292 24.4423 43.9895 24.3763C43.9498 24.3103 43.8931 24.2558 43.8253 24.2184L41.66 23.0232ZM53.7815 32.1277C53.848 32.0895 53.9032 32.0347 53.9416 31.9687C53.9799 31.9028 54.0001 31.828 54 31.7519V30.7409C54.0001 30.6648 53.9799 30.59 53.9416 30.5241C53.9032 30.4581 53.848 30.4032 53.7815 30.365L50.1718 28.298C50.1049 28.2595 50.0289 28.2393 49.9515 28.2393C49.8741 28.2393 49.798 28.2595 49.7311 28.298L46.084 30.3669C46.0171 30.4048 45.9616 30.4596 45.9229 30.5256C45.8842 30.5916 45.8638 30.6665 45.8637 30.7427V34.8978C45.8641 34.9742 45.8849 35.0491 45.9239 35.1151C45.9629 35.1811 46.0188 35.2358 46.0859 35.2737L49.6955 37.3125C49.7613 37.3492 49.8356 37.3685 49.9111 37.3685C49.9867 37.3685 50.061 37.3492 50.1268 37.3125L52.3135 36.11C52.347 36.0911 52.375 36.0638 52.3944 36.0308C52.4138 35.9978 52.4241 35.9603 52.4241 35.9221C52.4241 35.8839 52.4138 35.8463 52.3944 35.8133C52.375 35.7803 52.347 35.753 52.3135 35.7341L48.66 33.6577C48.6264 33.6388 48.5986 33.6114 48.5792 33.5784C48.5598 33.5454 48.5496 33.5079 48.5496 33.4697V32.1662C48.5496 32.1281 48.5598 32.0906 48.5792 32.0576C48.5986 32.0245 48.6264 31.9972 48.66 31.9783L49.8001 31.3281C49.8327 31.3118 49.869 31.304 49.9055 31.3053C49.9421 31.3066 49.9777 31.3171 50.0091 31.3357L51.1492 31.9859C51.1827 32.0048 51.2106 32.0321 51.2299 32.0651C51.2493 32.0982 51.2595 32.1357 51.2595 32.1738V33.1981C51.259 33.2365 51.269 33.2744 51.2882 33.3078C51.3075 33.3411 51.3354 33.3688 51.3691 33.388C51.4028 33.4071 51.4411 33.417 51.4799 33.4167C51.5188 33.4164 51.5568 33.4058 51.5902 33.386L53.7815 32.1277Z" fill="#333333"/>
<path d="M49.8895 31.9291C49.9022 31.9218 49.9166 31.918 49.9313 31.918C49.946 31.918 49.9604 31.9218 49.9732 31.9291L50.6722 32.3274C50.6849 32.3346 50.6954 32.3451 50.7027 32.3576C50.7101 32.3702 50.7139 32.3844 50.7139 32.3989V33.1977C50.7139 33.2122 50.7101 33.2264 50.7027 33.2389C50.6954 33.2515 50.6849 33.2619 50.6722 33.2692L49.9732 33.6675C49.9604 33.6748 49.946 33.6786 49.9313 33.6786C49.9166 33.6786 49.9022 33.6748 49.8895 33.6675L49.1923 33.2692C49.1792 33.2622 49.1682 33.2519 49.1605 33.2393C49.1528 33.2267 49.1487 33.2124 49.1484 33.1977V32.3986C49.1484 32.3841 49.1523 32.3699 49.1596 32.3573C49.1669 32.3448 49.1774 32.3343 49.1901 32.3271L49.8895 31.9291Z" fill="#689F63"/>
<mask id="mask0_2308_29033" style="mask-type:luminance" maskUnits="userSpaceOnUse" x="25" y="28" width="10" height="10">
<path d="M29.8045 28.3079L26.1951 30.3749C26.1284 30.413 26.0731 30.4678 26.0347 30.5338C25.9964 30.5998 25.9763 30.6747 25.9766 30.7508V34.8849C25.9763 34.9611 25.9964 35.0359 26.0347 35.1019C26.0731 35.1679 26.1284 35.2228 26.1951 35.2608L29.8045 37.3279C29.871 37.3656 29.9463 37.3855 30.023 37.3855C30.0997 37.3855 30.175 37.3656 30.2415 37.3279L33.8518 35.2608C33.9184 35.2228 33.9738 35.1679 34.0121 35.1019C34.0505 35.0359 34.0706 34.9611 34.0703 34.8849V30.7508C34.0706 30.6747 34.0505 30.5998 34.0121 30.5338C33.9738 30.4678 33.9184 30.413 33.8518 30.3749L30.2418 28.3079C30.175 28.27 30.0994 28.25 30.0224 28.25C29.9454 28.25 29.8697 28.27 29.8029 28.3079" fill="white"/>
</mask>
<g mask="url(#mask0_2308_29033)">
<path d="M37.7378 30.0186L27.541 25.0781L22.3125 35.6271L32.5093 40.5712L37.7378 30.0186Z" fill="url(#paint0_linear_2308_29033)"/>
</g>
<mask id="mask1_2308_29033" style="mask-type:luminance" maskUnits="userSpaceOnUse" x="26" y="28" width="8" height="10">
<path d="M26.0625 35.1467C26.0978 35.1918 26.1417 35.2295 26.1918 35.2577L29.3038 37.0316L29.8205 37.3247C29.897 37.3682 29.9851 37.3879 30.0731 37.3811C30.102 37.3788 30.1306 37.3738 30.1586 37.366L33.9678 30.4545C33.9377 30.4233 33.9031 30.3967 33.8651 30.3757L31.496 29.0229L30.2441 28.3108C30.2083 28.2907 30.1699 28.2755 30.1301 28.2656L26.0625 35.1467Z" fill="white"/>
</mask>
<g mask="url(#mask1_2308_29033)">
<path d="M21.6562 31.4861L28.8569 41.1257L38.3807 34.1712L31.1785 24.5273L21.6562 31.4861Z" fill="url(#paint1_linear_2308_29033)"/>
</g>
<mask id="mask2_2308_29033" style="mask-type:luminance" maskUnits="userSpaceOnUse" x="26" y="28" width="9" height="10">
<path d="M29.98 28.2539C29.9185 28.2598 29.859 28.2784 29.8053 28.3085L26.1953 30.3758L30.0876 37.3852C30.1424 37.3776 30.1952 37.3597 30.2433 37.3324L33.8529 35.2654C33.9074 35.2341 33.9545 35.1915 33.9909 35.1406C34.0272 35.0897 34.0521 35.0317 34.0638 34.9704L30.1053 28.2597C30.0757 28.2568 30.0458 28.2568 30.0162 28.2597H29.9818" fill="white"/>
</mask>
<g mask="url(#mask2_2308_29033)">
<path d="M26.1953 28.2539V37.3812H34.0718V28.2539H26.1953Z" fill="url(#paint2_linear_2308_29033)"/>
</g>
</g>
<defs>
<linearGradient id="paint0_linear_2308_29033" x1="-44.1241" y1="91.1562" x2="-44.0161" y2="91.1562" gradientUnits="userSpaceOnUse">
<stop offset="0.3" stop-color="#3E863D"/>
<stop offset="0.5" stop-color="#55934F"/>
<stop offset="0.8" stop-color="#5AAD45"/>
</linearGradient>
<linearGradient id="paint1_linear_2308_29033" x1="-44.1878" y1="90.5886" x2="-44.1209" y2="90.5886" gradientUnits="userSpaceOnUse">
<stop offset="0.57" stop-color="#3E863D"/>
<stop offset="0.72" stop-color="#619857"/>
<stop offset="1" stop-color="#76AC64"/>
</linearGradient>
<linearGradient id="paint2_linear_2308_29033" x1="-43.9208" y1="90.6208" x2="-43.8656" y2="90.6208" gradientUnits="userSpaceOnUse">
<stop offset="0.16" stop-color="#6BBF47"/>
<stop offset="0.38" stop-color="#79B461"/>
<stop offset="0.47" stop-color="#75AC64"/>
<stop offset="0.7" stop-color="#659E5A"/>
<stop offset="0.9" stop-color="#3E863D"/>
</linearGradient>
<clipPath id="clip0_2308_29033">
<rect width="38" height="27" fill="white" transform="translate(16 21)"/>
</clipPath>
</defs>
</svg>
