<svg width="70" height="70" viewBox="0 0 70 70" fill="none" xmlns="http://www.w3.org/2000/svg">
<circle cx="35" cy="35" r="34.5" fill="white" stroke="#6082BB"/>
<g clip-path="url(#clip0_2308_28836)">
<path d="M20.5565 31.385C22.029 31.385 22.978 31.6401 23.4547 32.1923C23.9313 32.7445 24.059 33.6396 23.7994 34.9113C23.5398 36.1829 23.0206 37.2077 22.2843 37.7599C21.5481 38.312 20.382 38.5965 18.8245 38.5965H16.4923L17.918 31.3683L20.5565 31.385ZM11.2578 45.9251H15.0624L15.9689 41.3238H19.2585C20.4578 41.35 21.6539 41.1919 22.8035 40.8553C23.753 40.5437 24.6237 40.036 25.357 39.3662C25.9732 38.8116 26.4986 38.1668 26.9145 37.4545C27.3128 36.7349 27.5996 35.9609 27.7657 35.1581C28.153 33.1168 27.8508 31.5021 26.8592 30.3978C25.8676 29.2935 24.2207 28.6953 22.0162 28.6953H14.6751L11.2578 45.9251Z" fill="#6082BB"/>
<path d="M30.5729 24.0742H34.4031L33.4966 28.6755H36.8714C38.9992 28.6755 40.4632 29.0562 41.2846 29.7798C42.1059 30.5035 42.3229 31.6915 42.0208 33.3103L40.4036 41.3333H36.5735L38.0672 33.7244C38.2417 32.8878 38.1949 32.2771 37.8928 31.9383C37.5906 31.5994 36.9565 31.4698 35.9905 31.4698H32.9647L30.9985 41.3333H27.2109L30.5729 24.0742Z" fill="#6082BB"/>
<path d="M50.4003 31.385C51.8727 31.385 52.8218 31.6401 53.2984 32.1923C53.775 32.7445 53.9027 33.6396 53.6431 34.9113C53.3835 36.1829 52.8643 37.2077 52.1281 37.7599C51.3919 38.312 50.2258 38.5965 48.6682 38.5965H46.3233L47.749 31.3683L50.4003 31.385ZM41.1016 45.9251H44.9062L45.8126 41.3238H49.098C50.2973 41.35 51.4934 41.1919 52.643 40.8553C53.5925 40.5437 54.4632 40.036 55.1965 39.3662C55.8127 38.8116 56.3381 38.1668 56.754 37.4545C57.1523 36.7349 57.4391 35.9609 57.6052 35.1581C57.9925 33.1168 57.6903 31.5021 56.6987 30.3978C55.7071 29.2935 54.0602 28.6953 51.8557 28.6953H44.5189L41.1143 45.9126L41.1016 45.9251Z" fill="#6082BB"/>
</g>
<defs>
<clipPath id="clip0_2308_28836">
<rect width="47" height="32" fill="white" transform="translate(11 19)"/>
</clipPath>
</defs>
</svg>
