<svg width="100" height="26" viewBox="0 0 100 26" fill="none" xmlns="http://www.w3.org/2000/svg">
<g clip-path="url(#clip0_2761_11806)">
<path d="M31.6371 9.37074C31.4482 7.97058 30.6825 6.75592 29.2919 5.65676L28.4918 5.11419L27.9562 5.9298C27.2729 6.97994 26.9296 8.4396 27.0429 9.8363C27.0944 10.3264 27.2523 11.2085 27.7467 11.9786C27.2523 12.2516 26.2772 12.6262 24.9793 12.5982H0.140636L0.0925658 12.8887C-0.140919 14.2925 -0.137486 18.675 2.65403 22.0425C4.77599 24.6014 7.95551 25.9 12.1033 25.9C21.0993 25.9 27.7571 21.6785 30.8748 14.0019C32.1006 14.0264 34.741 14.0089 36.0972 11.3695C36.1316 11.31 36.214 11.149 36.4509 10.6484L36.5814 10.3754L35.8192 9.85736C34.9951 9.29374 33.0998 9.08725 31.6405 9.37074H31.6371ZM20.0006 0H16.2236V3.50047H20.0006V0ZM20.0006 4.20057H16.2236V7.70104H20.0006V4.20057ZM15.5369 4.20057H11.7599V7.70104H15.5369V4.20057ZM11.0732 4.20057H7.29626V7.70104H11.0732V4.20057ZM6.60954 8.4011H2.83258V11.9016H6.60954V8.4011ZM11.0732 8.4011H7.29626V11.9016H11.0732V8.4011ZM15.5369 8.4011H11.7599V11.9016H15.5369V8.4011ZM20.0006 8.4011H16.2236V11.9016H20.0006V8.4011ZM24.4642 8.4011H20.6873V11.9016H24.4642V8.4011ZM47.4178 7.61703C47.1398 7.61703 46.9132 7.71154 46.7312 7.89706C46.5492 8.0826 46.4599 8.32063 46.4599 8.60415V13.3403C45.5259 12.5632 44.4478 12.1712 43.222 12.1712C41.7971 12.1712 40.5782 12.6892 39.5687 13.7288C38.5592 14.765 38.0578 16.0182 38.0578 17.4884C38.0578 18.9585 38.5626 20.2082 39.5687 21.2479C40.5782 22.284 41.7937 22.8056 43.222 22.8056C44.6504 22.8056 45.8522 22.2875 46.8753 21.2479C47.8848 20.2222 48.3862 18.9691 48.3862 17.4884V8.60415C48.3862 8.32063 48.2934 8.0826 48.1046 7.89706C47.9157 7.71154 47.6891 7.61703 47.4178 7.61703ZM46.2058 18.7765C46.0376 19.1791 45.8075 19.5326 45.5157 19.8337C45.2238 20.1383 44.8804 20.3763 44.489 20.5548C44.0942 20.7333 43.6752 20.8208 43.2254 20.8208C42.7757 20.8208 42.3464 20.7333 41.9516 20.5548C41.5567 20.3763 41.2167 20.1383 40.9283 19.8372C40.6399 19.5361 40.4099 19.1826 40.2417 18.7801C40.0734 18.3739 39.9876 17.9434 39.9876 17.4884C39.9876 17.0333 40.0734 16.6028 40.2417 16.1967C40.4099 15.7906 40.6399 15.4406 40.9283 15.1395C41.2167 14.8385 41.5602 14.6005 41.9516 14.4219C42.3464 14.2434 42.7687 14.1559 43.2254 14.1559C43.6821 14.1559 44.0942 14.2434 44.489 14.4219C44.8838 14.6005 45.2238 14.8385 45.5157 15.1431C45.8075 15.4476 46.0376 15.8011 46.2058 16.2002C46.3741 16.6028 46.4599 17.0298 46.4599 17.4848C46.4599 17.9399 46.3741 18.3705 46.2058 18.7696V18.7765ZM89.6308 13.7324C88.6108 12.6962 87.3917 12.1746 85.9775 12.1746C84.5625 12.1746 83.3333 12.6927 82.3238 13.7324C81.3143 14.7685 80.8131 16.0217 80.8131 17.4919C80.8131 18.9621 81.3178 20.2117 82.3238 21.2514C83.3333 22.2875 84.5492 22.809 85.9775 22.809C87.275 22.809 88.3975 22.3785 89.3525 21.5174C89.5375 21.3213 89.6308 21.0833 89.6308 20.8068C89.6308 20.5303 89.5417 20.2853 89.3592 20.0997C89.1775 19.9142 88.9475 19.8197 88.6725 19.8197C88.4325 19.8267 88.2192 19.9072 88.0375 20.0682C87.7492 20.3203 87.4367 20.5127 87.0967 20.6388C86.7567 20.7648 86.3858 20.8278 85.9808 20.8278C85.6233 20.8278 85.28 20.7718 84.9542 20.6563C84.6275 20.5408 84.3225 20.3832 84.0508 20.1768C83.7758 19.9702 83.5392 19.7252 83.3367 19.4347C83.1342 19.1476 82.9797 18.829 82.8767 18.479H90.18C90.4508 18.479 90.6775 18.3845 90.8667 18.199C91.0558 18.0135 91.1483 17.7754 91.1483 17.4919C91.1483 16.7567 91.0208 16.0742 90.7708 15.4476C90.52 14.8175 90.1383 14.2469 89.6375 13.7359L89.6308 13.7324ZM82.8698 16.5047C82.9693 16.1582 83.1204 15.8396 83.323 15.5491C83.5258 15.2621 83.7658 15.0135 84.0408 14.807C84.3192 14.6005 84.6208 14.4429 84.9542 14.3274C85.2867 14.2119 85.6267 14.1559 85.9775 14.1559C86.3275 14.1559 86.6675 14.2119 86.9967 14.3274C87.3267 14.4429 87.6292 14.6005 87.9 14.807C88.175 15.0135 88.415 15.2586 88.6175 15.5491C88.8233 15.8362 88.9783 16.1547 89.085 16.5047H82.8698ZM99.7458 12.8397C99.5742 12.6682 99.3575 12.5352 99.0967 12.4371C98.8358 12.3392 98.5508 12.2727 98.2383 12.2342C97.9292 12.1957 97.6375 12.1781 97.3667 12.1781C96.7517 12.1781 96.175 12.2796 95.6325 12.4827C95.09 12.6857 94.5883 12.9763 94.1283 13.3543V13.1653C94.1283 12.8922 94.0358 12.6612 93.8467 12.4687C93.6583 12.2762 93.435 12.1781 93.1708 12.1781C92.9058 12.1781 92.6725 12.2762 92.4842 12.4687C92.295 12.6612 92.2025 12.8957 92.2025 13.1653V21.822C92.2025 22.095 92.295 22.326 92.4842 22.5185C92.6725 22.7111 92.8992 22.809 93.1708 22.809C93.4417 22.809 93.6617 22.7111 93.8467 22.5185C94.0358 22.326 94.1283 22.0914 94.1283 21.822V17.4919C94.1283 17.0298 94.2142 16.5957 94.3825 16.1897C94.5508 15.7836 94.7808 15.4336 95.0725 15.1326C95.365 14.8315 95.7083 14.5935 96.0992 14.4219C96.4942 14.2469 96.9133 14.1594 97.3633 14.1594C97.8125 14.1594 98.2383 14.2399 98.6267 14.3975C98.7808 14.4675 98.915 14.5025 99.0317 14.5025C99.1658 14.5025 99.2925 14.478 99.4092 14.4255C99.5258 14.373 99.6292 14.3029 99.715 14.2119C99.8008 14.1209 99.8692 14.0159 99.9208 13.8934C99.9725 13.7744 100 13.6449 100 13.5048C100 13.2318 99.9142 13.0112 99.7425 12.8397H99.7458ZM58.2989 13.7324C57.2792 12.6962 56.0602 12.1746 54.6456 12.1746C53.2309 12.1746 52.0018 12.6927 50.9922 13.7324C49.9827 14.7685 49.4815 16.0217 49.4815 17.4919C49.4815 18.9621 49.9862 20.2117 50.9922 21.2514C52.0018 22.2875 53.2172 22.809 54.6456 22.809C56.074 22.809 57.2757 22.291 58.2989 21.2514C59.3084 20.2257 59.8097 18.9725 59.8097 17.4919C59.8028 16.7567 59.6758 16.0776 59.4286 15.4511C59.1779 14.8245 58.8037 14.2504 58.2989 13.7324ZM57.6294 18.7765C57.4612 19.1791 57.2311 19.5326 56.9393 19.8337C56.6474 20.1383 56.304 20.3763 55.9126 20.5548C55.5212 20.7333 55.0988 20.8208 54.649 20.8208C54.1992 20.8208 53.77 20.7333 53.3752 20.5548C52.9803 20.3763 52.6403 20.1383 52.3519 19.8372C52.0635 19.5361 51.8335 19.1826 51.6652 18.7801C51.497 18.3739 51.4112 17.9434 51.4112 17.4884C51.4112 17.0333 51.497 16.6028 51.6652 16.1967C51.8335 15.7906 52.0635 15.4406 52.3519 15.1395C52.6403 14.8385 52.9837 14.6005 53.3752 14.4219C53.77 14.2434 54.1923 14.1559 54.649 14.1559C55.1057 14.1559 55.5177 14.2434 55.9126 14.4219C56.3074 14.6005 56.6474 14.8385 56.9393 15.1431C57.2311 15.4476 57.4612 15.8011 57.6294 16.2002C57.7977 16.6028 57.8835 17.0298 57.8835 17.4848C57.8835 17.9399 57.7977 18.3705 57.6294 18.7696V18.7765ZM79.7692 13.1618C79.7692 13.0288 79.7418 12.9027 79.6903 12.7837C79.6387 12.6647 79.5701 12.5562 79.4843 12.4652C79.3984 12.3742 79.2954 12.3007 79.1787 12.2516C79.0619 12.2026 78.9349 12.1746 78.801 12.1746C78.6087 12.1746 78.437 12.2237 78.2859 12.3252L72.7716 16.0182V8.6112C72.7716 8.33113 72.6788 8.09659 72.49 7.90407C72.3012 7.71154 72.078 7.61353 71.8136 7.61353C71.5492 7.61353 71.3158 7.71154 71.1268 7.90407C70.938 8.09659 70.8453 8.33113 70.8453 8.6112V21.808C70.8453 22.081 70.938 22.3155 71.1268 22.5116C71.3158 22.7076 71.5423 22.8056 71.8136 22.8056C72.0848 22.8056 72.3046 22.7076 72.49 22.5116C72.6788 22.3155 72.7716 22.081 72.7716 21.808V18.381L73.8978 17.6214L78.1589 22.5465C78.3306 22.718 78.5469 22.8021 78.8044 22.8021C78.9383 22.8021 79.0653 22.7776 79.1821 22.7251C79.2988 22.676 79.4018 22.6026 79.4877 22.5116C79.5735 22.4206 79.6422 22.3155 79.6937 22.193C79.7452 22.074 79.7727 21.9445 79.7727 21.8149C79.7727 21.5559 79.6834 21.3249 79.5048 21.1219L75.5391 16.5258L79.4018 13.9424C79.6491 13.7709 79.7692 13.5083 79.7692 13.1547V13.1618ZM63.7583 15.1326C64.0537 14.8315 64.397 14.5935 64.7919 14.4219C65.1867 14.2469 65.6057 14.1594 66.0554 14.1594C66.4606 14.1594 66.8348 14.2295 67.1817 14.3694C67.525 14.5094 67.8547 14.716 68.1671 14.9856C68.3525 15.136 68.562 15.213 68.7954 15.213C69.0736 15.213 69.3002 15.1186 69.4822 14.9295C69.6642 14.7405 69.7534 14.5025 69.7534 14.2189C69.7534 13.9354 69.6436 13.6728 69.4203 13.4698C68.4727 12.6087 67.3499 12.1781 66.0554 12.1781C64.6305 12.1781 63.4116 12.6962 62.4021 13.7359C61.3926 14.772 60.8913 16.0251 60.8913 17.4954C60.8913 18.9656 61.3961 20.2153 62.4021 21.2548C63.4116 22.291 64.6271 22.8126 66.0554 22.8126C67.3465 22.8126 68.4692 22.3821 69.4203 21.5209C69.6229 21.3109 69.726 21.0693 69.726 20.7893C69.726 20.5093 69.6367 20.2678 69.4547 20.0822C69.2727 19.8967 69.0427 19.8022 68.768 19.8022C68.5345 19.8091 68.3319 19.8792 68.1602 20.0122C67.8512 20.2853 67.5285 20.4883 67.1817 20.6248C66.8383 20.7613 66.4641 20.8278 66.0554 20.8278C65.6057 20.8278 65.1867 20.7403 64.7919 20.5652C64.397 20.3903 64.0537 20.1523 63.7583 19.8547C63.4631 19.5571 63.2296 19.2001 63.0613 18.7976C62.8931 18.3915 62.8072 17.9574 62.8072 17.4954C62.8072 17.0333 62.8931 16.5992 63.0613 16.1932C63.2296 15.7871 63.4631 15.4371 63.7583 15.136V15.1326Z" fill="#006FBC"/>
</g>
<defs>
<clipPath id="clip0_2761_11806">
<rect width="100" height="26" fill="white"/>
</clipPath>
</defs>
</svg>
