<svg width="100" height="100" viewBox="0 0 100 100" fill="none" xmlns="http://www.w3.org/2000/svg">
<path d="M19.6583 70.6184C19.1254 70.2954 18.7044 69.8556 18.3886 69.292C18.0728 68.7284 17.9215 68.103 17.9215 67.4226C17.9215 66.7422 18.0794 66.1167 18.3886 65.5532C18.6978 64.9896 19.1254 64.5497 19.6583 64.2267C20.1912 63.9037 20.7767 63.7456 21.4083 63.7456C21.9017 63.7456 22.3688 63.8349 22.803 64.0205C23.2373 64.2061 23.5991 64.4604 23.882 64.7971L23.3096 65.3951C23.0991 65.1202 22.8228 64.9071 22.4938 64.7628C22.1583 64.6184 21.803 64.5428 21.4215 64.5428C20.9478 64.5428 20.5004 64.6597 20.0925 64.9002C19.6846 65.1408 19.3557 65.4776 19.1057 65.9105C18.8557 66.3435 18.7373 66.8521 18.7373 67.4226C18.7373 67.993 18.8623 68.4947 19.1057 68.9346C19.3491 69.3745 19.6846 69.7044 20.0991 69.9449C20.5136 70.1855 20.9544 70.3023 21.428 70.3023C21.9017 70.3023 22.257 70.2267 22.5596 70.0824C22.8623 69.938 23.1254 69.7387 23.3425 69.4982C23.507 69.3126 23.6386 69.0927 23.7373 68.8315C23.8359 68.5703 23.9017 68.2886 23.928 67.9724H21.4346V67.1958H24.6715C24.7044 67.3813 24.7175 67.5463 24.7175 67.7044C24.7175 68.1373 24.6517 68.5566 24.5201 68.969C24.3886 69.3813 24.178 69.7387 23.8886 70.048C23.2701 70.749 22.4412 71.0995 21.4149 71.0995C20.7833 71.0995 20.1978 70.9415 19.6649 70.6184H19.6583ZM21.4083 71.1889C20.7636 71.1889 20.1583 71.0239 19.6188 70.694C19.0728 70.3642 18.6386 69.9105 18.3162 69.3332C17.9938 68.7628 17.8359 68.1167 17.8359 67.4226C17.8359 66.7284 18.0004 66.0892 18.3162 65.5119C18.632 64.9415 19.0728 64.481 19.6188 64.1511C20.1649 63.8212 20.7636 63.6562 21.4083 63.6562C21.9149 63.6562 22.3951 63.7525 22.8359 63.938C23.2833 64.1236 23.6517 64.3916 23.9412 64.7353L23.9938 64.7971L23.303 65.5188L23.2438 65.4432C23.0399 65.182 22.7767 64.9758 22.4544 64.8315C22.132 64.6872 21.7833 64.6184 21.4149 64.6184C20.9544 64.6184 20.5201 64.7353 20.1254 64.969C19.7307 65.2026 19.4083 65.5325 19.1649 65.9518C18.928 66.371 18.803 66.8659 18.803 67.4157C18.803 67.9655 18.9215 68.4604 19.1649 68.8796C19.4017 69.2989 19.7307 69.6288 20.1254 69.8624C20.5267 70.0961 20.9609 70.213 21.4149 70.213C21.8688 70.213 22.2241 70.1442 22.5136 69.9999C22.8096 69.8556 23.0596 69.67 23.2767 69.4363C23.4346 69.2645 23.5596 69.0446 23.6583 68.7971C23.7438 68.5703 23.803 68.3229 23.8294 68.0549H21.3425V67.1064H24.7307L24.7438 67.1751C24.7767 67.3607 24.7899 67.5394 24.7899 67.7044C24.7899 68.1442 24.7241 68.5772 24.5859 68.9965C24.4478 69.4157 24.2307 69.7868 23.9346 70.103C23.303 70.8178 22.4478 71.182 21.4017 71.182L21.4083 71.1889ZM21.4083 63.8349C20.7899 63.8349 20.2175 63.993 19.6978 64.3023C19.178 64.6184 18.7636 65.0514 18.4544 65.5944C18.1517 66.1442 17.9938 66.7559 17.9938 67.4157C17.9938 68.0755 18.1451 68.694 18.4544 69.237C18.757 69.7868 19.178 70.2198 19.6978 70.5291C20.2175 70.8384 20.7899 70.9965 21.4083 70.9965C22.4083 70.9965 23.2175 70.6528 23.8228 69.9724C24.1057 69.67 24.3096 69.3195 24.4346 68.9277C24.5662 68.5291 24.6254 68.1167 24.6254 67.6906C24.6254 67.56 24.6123 67.4157 24.5925 67.2645H21.507V67.8693H24.007V67.9655C23.9741 68.2885 23.9083 68.5841 23.803 68.8521C23.6978 69.1202 23.5596 69.3538 23.3951 69.5394C23.1715 69.7868 22.8951 69.993 22.5859 70.1442C22.2701 70.2954 21.8754 70.371 21.4149 70.371C20.9544 70.371 20.4741 70.2473 20.0465 69.9999C19.6188 69.7525 19.2767 69.402 19.0201 68.9552C18.7636 68.5085 18.6386 67.9861 18.6386 67.402C18.6386 66.8178 18.7701 66.2954 19.0201 65.8487C19.2767 65.402 19.6188 65.0514 20.0399 64.804C20.4609 64.5566 20.9215 64.4329 21.4083 64.4329C21.7965 64.4329 22.1715 64.5085 22.5136 64.6597C22.8294 64.7971 23.0925 64.9965 23.303 65.2439L23.757 64.7696C23.4938 64.4741 23.1583 64.2404 22.7636 64.0755C22.3425 63.8968 21.882 63.8074 21.3951 63.8074L21.4083 63.8349ZM26.6912 70.749C26.3162 70.5154 26.0201 70.1923 25.8096 69.7868C25.5991 69.3813 25.4938 68.9346 25.4938 68.4398C25.4938 67.9449 25.5991 67.4982 25.8096 67.0927C26.0201 66.6872 26.3162 66.3642 26.6912 66.1305C27.0662 65.8968 27.4938 65.78 27.9609 65.78C28.428 65.78 28.8557 65.8968 29.2307 66.1305C29.6057 66.3642 29.9017 66.6872 30.1123 67.0927C30.3228 67.4982 30.428 67.9449 30.428 68.4398C30.428 68.9346 30.3228 69.3813 30.1123 69.7868C29.9017 70.1923 29.6057 70.5154 29.2307 70.749C28.8557 70.9827 28.428 71.0995 27.9609 71.0995C27.4938 71.0995 27.0662 70.9827 26.6912 70.749ZM28.7833 70.1167C29.0399 69.9655 29.2438 69.7387 29.3951 69.4501C29.5465 69.1614 29.6254 68.8246 29.6254 68.4398C29.6254 68.0549 29.5465 67.7181 29.3951 67.4294C29.2438 67.1408 29.0399 66.9209 28.7833 66.7697C28.5267 66.6184 28.257 66.536 27.9609 66.536C27.6649 66.536 27.3886 66.6116 27.132 66.7697C26.8754 66.9209 26.6715 67.1477 26.5136 67.4294C26.3623 67.7181 26.2833 68.0549 26.2833 68.4398C26.2833 68.8246 26.3623 69.1614 26.5136 69.4501C26.6649 69.7387 26.8754 69.9587 27.132 70.1167C27.3886 70.2679 27.6649 70.3504 27.9609 70.3504C28.257 70.3504 28.5333 70.2748 28.7833 70.1167ZM27.9609 71.1889C27.4741 71.1889 27.0333 71.0652 26.6451 70.8246C26.257 70.5841 25.9544 70.2473 25.7373 69.8281C25.5201 69.4088 25.4149 68.9415 25.4149 68.4398C25.4149 67.938 25.5267 67.4707 25.7373 67.0514C25.9478 66.6322 26.257 66.3023 26.6451 66.0549C27.0333 65.8143 27.4741 65.6906 27.9609 65.6906C28.4478 65.6906 28.8886 65.8143 29.2701 66.0549C29.6583 66.2954 29.9609 66.6322 30.178 67.0514C30.3951 67.4707 30.5004 67.938 30.5004 68.4398C30.5004 68.9415 30.3886 69.4088 30.178 69.8281C29.9609 70.2473 29.6583 70.5841 29.2701 70.8246C28.882 71.0652 28.4412 71.1889 27.9609 71.1889ZM27.9609 65.8624C27.507 65.8624 27.0925 65.9793 26.7307 66.2061C26.3688 66.4329 26.0859 66.749 25.882 67.1339C25.678 67.5257 25.5794 67.9655 25.5794 68.4398C25.5794 68.914 25.6846 69.3538 25.882 69.7456C26.0859 70.1373 26.3688 70.4466 26.7307 70.6734C27.0925 70.9002 27.507 71.0171 27.9609 71.0171C28.4149 71.0171 28.8294 70.9002 29.1912 70.6734C29.553 70.4466 29.8359 70.1373 30.0399 69.7456C30.2438 69.3538 30.3425 68.914 30.3425 68.4398C30.3425 67.9655 30.2373 67.5257 30.0399 67.1339C29.8359 66.7422 29.553 66.4329 29.1912 66.2061C28.8294 65.9793 28.4149 65.8624 27.9609 65.8624ZM27.9609 70.4329C27.6517 70.4329 27.3623 70.3504 27.0925 70.1923C26.8228 70.0274 26.6057 69.7937 26.4478 69.4982C26.2899 69.1958 26.2044 68.8452 26.2044 68.4466C26.2044 68.048 26.2833 67.6906 26.4478 67.3951C26.6057 67.0927 26.8294 66.859 27.0925 66.7009C27.6254 66.3779 28.2965 66.3779 28.8228 66.7009C29.0859 66.859 29.303 67.0927 29.4675 67.3951C29.6254 67.6975 29.7109 68.048 29.7109 68.4466C29.7109 68.8452 29.632 69.2026 29.4675 69.4982C29.3096 69.8006 29.0925 70.0343 28.8228 70.1923C28.5596 70.3504 28.2636 70.4329 27.9609 70.4329ZM27.9609 66.6184C27.678 66.6184 27.4149 66.694 27.1715 66.8384C26.928 66.9827 26.7307 67.1958 26.5859 67.4707C26.4412 67.7456 26.3688 68.0686 26.3688 68.4398C26.3688 68.8109 26.4412 69.1339 26.5859 69.4088C26.7307 69.6837 26.928 69.8968 27.1715 70.0411C27.6583 70.3298 28.257 70.3298 28.7373 70.0411C28.9741 69.8968 29.1715 69.6837 29.3162 69.4088C29.4609 69.1339 29.5333 68.8109 29.5333 68.4398C29.5333 68.0686 29.4609 67.7456 29.3162 67.4707C29.1715 67.1958 28.9741 66.9827 28.7373 66.8384C28.5004 66.694 28.2373 66.6184 27.9544 66.6184H27.9609ZM32.2899 70.749C31.9149 70.5154 31.6188 70.1923 31.4083 69.7868C31.1978 69.3813 31.0925 68.9346 31.0925 68.4398C31.0925 67.9449 31.1978 67.4982 31.4083 67.0927C31.6188 66.6872 31.9149 66.3642 32.2899 66.1305C32.6649 65.8968 33.0925 65.78 33.5596 65.78C34.0267 65.78 34.4544 65.8968 34.8294 66.1305C35.2044 66.3642 35.5004 66.6872 35.7109 67.0927C35.9215 67.4982 36.0267 67.9449 36.0267 68.4398C36.0267 68.9346 35.9215 69.3813 35.7109 69.7868C35.5004 70.1923 35.2044 70.5154 34.8294 70.749C34.4544 70.9827 34.0267 71.0995 33.5596 71.0995C33.0925 71.0995 32.6649 70.9827 32.2899 70.749ZM34.382 70.1167C34.6386 69.9655 34.8425 69.7387 34.9938 69.4501C35.1451 69.1614 35.2241 68.8246 35.2241 68.4398C35.2241 68.0549 35.1451 67.7181 34.9938 67.4294C34.8425 67.1408 34.6386 66.9209 34.382 66.7697C34.1254 66.6184 33.8557 66.536 33.5596 66.536C33.2636 66.536 32.9873 66.6116 32.7307 66.7697C32.4741 66.9209 32.2701 67.1477 32.1123 67.4294C31.9609 67.7181 31.882 68.0549 31.882 68.4398C31.882 68.8246 31.9609 69.1614 32.1123 69.4501C32.2636 69.7387 32.4741 69.9587 32.7307 70.1167C32.9873 70.2679 33.2636 70.3504 33.5596 70.3504C33.8557 70.3504 34.132 70.2748 34.382 70.1167ZM33.5596 71.1889C33.0728 71.1889 32.632 71.0652 32.2438 70.8246C31.8557 70.5841 31.553 70.2473 31.3359 69.8281C31.1188 69.4088 31.0136 68.9415 31.0136 68.4398C31.0136 67.938 31.1254 67.4707 31.3359 67.0514C31.5465 66.6322 31.8557 66.3023 32.2438 66.0549C32.632 65.8143 33.0728 65.6906 33.5596 65.6906C34.0465 65.6906 34.4873 65.8143 34.8688 66.0549C35.257 66.2954 35.5596 66.6322 35.7767 67.0514C35.9938 67.4707 36.0991 67.938 36.0991 68.4398C36.0991 68.9415 35.9873 69.4088 35.7767 69.8281C35.5596 70.2473 35.257 70.5841 34.8688 70.8246C34.4807 71.0652 34.0399 71.1889 33.5596 71.1889ZM33.5596 65.8624C33.1057 65.8624 32.6912 65.9793 32.3294 66.2061C31.9675 66.4329 31.6846 66.749 31.4807 67.1339C31.2767 67.5257 31.178 67.9655 31.178 68.4398C31.178 68.914 31.2833 69.3538 31.4807 69.7456C31.6846 70.1373 31.9675 70.4466 32.3294 70.6734C32.6912 70.9002 33.1057 71.0171 33.5596 71.0171C34.0136 71.0171 34.428 70.9002 34.7899 70.6734C35.1517 70.4466 35.4346 70.1373 35.6386 69.7456C35.8425 69.3538 35.9412 68.914 35.9412 68.4398C35.9412 67.9655 35.8359 67.5257 35.6386 67.1339C35.4346 66.7422 35.1517 66.4329 34.7899 66.2061C34.428 65.9793 34.0136 65.8624 33.5596 65.8624ZM33.5596 70.4329C33.2504 70.4329 32.9609 70.3504 32.6912 70.1923C32.4215 70.0274 32.2044 69.7937 32.0465 69.4982C31.8886 69.1958 31.803 68.8452 31.803 68.4466C31.803 68.048 31.882 67.6906 32.0465 67.3951C32.2044 67.0927 32.428 66.859 32.6912 66.7009C33.2241 66.3779 33.8951 66.3779 34.4215 66.7009C34.6846 66.859 34.9017 67.0927 35.0662 67.3951C35.2241 67.6975 35.3096 68.048 35.3096 68.4466C35.3096 68.8452 35.2307 69.2026 35.0662 69.4982C34.9083 69.8006 34.6912 70.0343 34.4215 70.1923C34.1583 70.3504 33.8623 70.4329 33.5596 70.4329ZM33.5596 66.6184C33.2767 66.6184 33.0136 66.694 32.7701 66.8384C32.5267 66.9827 32.3294 67.1958 32.1846 67.4707C32.0399 67.7456 31.9675 68.0686 31.9675 68.4398C31.9675 68.8109 32.0399 69.1339 32.1846 69.4088C32.3294 69.6837 32.5267 69.8968 32.7701 70.0411C33.257 70.3298 33.8557 70.3298 34.3359 70.0411C34.5728 69.8968 34.7701 69.6837 34.9149 69.4088C35.0596 69.1339 35.132 68.8109 35.132 68.4398C35.132 68.0686 35.0596 67.7456 34.9149 67.4707C34.7701 67.1958 34.5728 66.9827 34.3359 66.8384C34.0991 66.694 33.8359 66.6184 33.553 66.6184H33.5596ZM37.6583 72.8109C37.2899 72.536 37.0465 72.2061 36.9215 71.8212L37.6451 71.4982C37.7504 71.7868 37.928 72.0205 38.178 72.1992C38.428 72.3779 38.7175 72.4672 39.0596 72.4672C39.553 72.4672 39.9412 72.3229 40.2109 72.0343C40.4807 71.7456 40.6188 71.3332 40.6188 70.7971V70.2404H40.5794C40.4215 70.4947 40.2044 70.7009 39.9149 70.8659C39.632 71.0239 39.303 71.1064 38.9412 71.1064C38.5267 71.1064 38.1517 70.9965 37.8096 70.7696C37.4675 70.5428 37.1978 70.2267 36.9938 69.8281C36.7899 69.4226 36.6912 68.9621 36.6912 68.4466C36.6912 67.9312 36.7899 67.4776 36.9938 67.0721C37.1978 66.6666 37.4675 66.3504 37.8096 66.1236C38.1517 65.8968 38.5267 65.7868 38.9412 65.7868C39.303 65.7868 39.632 65.8693 39.9149 66.0274C40.1978 66.1855 40.4215 66.3985 40.5794 66.6597H40.6188V65.9449H41.382V70.7628C41.382 71.5669 41.1715 72.1855 40.7438 72.6047C40.3162 73.0239 39.757 73.237 39.0596 73.237C38.4938 73.237 38.0267 73.0995 37.6649 72.8246L37.6583 72.8109ZM39.8425 70.1167C40.0794 69.9655 40.2636 69.7456 40.4083 69.4569C40.5465 69.1683 40.6188 68.8315 40.6188 68.4398C40.6188 68.048 40.5465 67.6975 40.4083 67.4088C40.2701 67.1202 40.0794 66.9071 39.8425 66.7559C39.6057 66.6047 39.3425 66.5291 39.0596 66.5291C38.7767 66.5291 38.507 66.6047 38.2701 66.7559C38.0333 66.9071 37.8425 67.127 37.6978 67.4157C37.5596 67.7044 37.4873 68.0411 37.4873 68.4329C37.4873 68.8246 37.5596 69.1683 37.6978 69.4569C37.8359 69.7456 38.0267 69.9655 38.2701 70.1167C38.5136 70.2679 38.7701 70.3435 39.0596 70.3435C39.3491 70.3435 39.6123 70.2679 39.8425 70.1167ZM39.0596 73.3126C38.4807 73.3126 37.9938 73.1683 37.6123 72.8865C37.2307 72.6047 36.9741 72.2542 36.8425 71.8487L36.8162 71.7731L37.6912 71.3813L37.7241 71.4638C37.8228 71.7319 37.9938 71.9587 38.2241 72.1236C38.4544 72.2954 38.7373 72.3779 39.0596 72.3779C39.5267 72.3779 39.8951 72.2404 40.1517 71.9724C40.4083 71.7044 40.5399 71.3057 40.5399 70.7971V70.4466C40.3886 70.6391 40.1912 70.804 39.9609 70.9346C39.6649 71.0995 39.3228 71.182 38.9478 71.182C38.5201 71.182 38.1254 71.0652 37.7701 70.8315C37.4149 70.5978 37.132 70.2679 36.928 69.8556C36.7241 69.4432 36.6188 68.9621 36.6188 68.4329C36.6188 67.9037 36.7241 67.4363 36.928 67.0171C37.132 66.5978 37.4215 66.2679 37.7701 66.0343C38.1254 65.8006 38.5201 65.6837 38.9478 65.6837C39.3228 65.6837 39.6649 65.7662 39.9609 65.938C40.1912 66.0686 40.3886 66.2336 40.5399 66.4329V65.8418H41.4675V70.7422C41.4675 71.5669 41.2438 72.2061 40.803 72.6459C40.3623 73.0789 39.7767 73.3057 39.0596 73.3057V73.3126ZM37.0267 71.8693C37.1517 72.2061 37.382 72.5016 37.7109 72.7422C38.0596 73.0033 38.5136 73.1408 39.0596 73.1408C39.7307 73.1408 40.2767 72.9346 40.6846 72.5291C41.0925 72.1236 41.2965 71.5257 41.2965 70.749V66.0205H40.6978V66.7353H40.5333L40.507 66.694C40.3557 66.4466 40.1451 66.2404 39.8754 66.0892C39.6057 65.938 39.2899 65.8556 38.9412 65.8556C38.5465 65.8556 38.178 65.9655 37.8491 66.1786C37.5201 66.3916 37.257 66.7009 37.0662 67.0927C36.8754 67.4844 36.7767 67.938 36.7767 68.426C36.7767 68.914 36.8754 69.3813 37.0662 69.7662C37.257 70.158 37.5201 70.4604 37.8491 70.6803C38.178 70.8934 38.5399 71.0033 38.9412 71.0033C39.2899 71.0033 39.6057 70.9277 39.8754 70.7765C40.1451 70.6253 40.3623 70.426 40.507 70.1786L40.5333 70.1373H40.6978V70.7834C40.6978 71.3401 40.553 71.78 40.2636 72.0824C39.9741 72.3848 39.5662 72.5428 39.053 72.5428C38.6978 72.5428 38.3886 72.4466 38.1254 72.2542C37.8886 72.0824 37.7109 71.8624 37.5991 71.5944L37.0201 71.8556L37.0267 71.8693ZM39.0596 70.4329C38.757 70.4329 38.4807 70.3504 38.2241 70.1992C37.9741 70.0411 37.7701 69.8074 37.6254 69.505C37.4807 69.2026 37.4017 68.8453 37.4017 68.4398C37.4017 68.0343 37.4741 67.6769 37.6254 67.3813C37.7701 67.0858 37.9741 66.8521 38.2241 66.6872C38.4741 66.5291 38.757 66.4466 39.0596 66.4466C39.3623 66.4466 39.6386 66.5291 39.8886 66.6803C40.1386 66.8384 40.3359 67.0721 40.4807 67.3676C40.6254 67.6631 40.7044 68.0274 40.7044 68.4329C40.7044 68.8384 40.632 69.1958 40.4807 69.4913C40.3359 69.7868 40.132 70.0205 39.8886 70.1855C39.6386 70.3435 39.3623 70.426 39.0596 70.426V70.4329ZM39.0596 66.6184C38.7899 66.6184 38.5399 66.694 38.3096 66.8384C38.0859 66.9827 37.9017 67.1958 37.7701 67.4638C37.6386 67.7387 37.5662 68.0686 37.5662 68.4398C37.5662 68.8109 37.632 69.1477 37.7701 69.4226C37.9017 69.6975 38.0859 69.9037 38.3096 70.048C38.5333 70.1923 38.7833 70.2611 39.0596 70.2611C39.3359 70.2611 39.5794 70.1855 39.803 70.0411C40.0267 69.8968 40.2044 69.6837 40.3359 69.4157C40.4675 69.1408 40.5399 68.8109 40.5399 68.4398C40.5399 68.0686 40.4741 67.725 40.3359 67.4501C40.2044 67.182 40.0201 66.969 39.803 66.8315C39.5794 66.694 39.3294 66.6184 39.0596 66.6184ZM42.5596 63.9105H43.3623V70.9483H42.5596V63.9105ZM43.4412 71.0308H42.4741V63.8212H43.4412V71.0308ZM42.6386 70.859H43.2767V63.993H42.6386V70.859ZM45.4478 70.7559C45.0859 70.5291 44.803 70.2129 44.5991 69.8074C44.3951 69.402 44.2965 68.9483 44.2965 68.4466C44.2965 67.9449 44.3951 67.5188 44.5859 67.1064C44.7767 66.7009 45.0465 66.3779 45.4017 66.1305C45.7504 65.8899 46.1583 65.7662 46.6254 65.7662C47.0925 65.7662 47.5004 65.8762 47.8491 66.0961C48.1912 66.316 48.4609 66.6184 48.6451 67.0033C48.8294 67.3882 48.9215 67.8349 48.9215 68.3298C48.9215 68.426 48.9149 68.5154 48.8951 68.5841H45.1057C45.1254 68.9621 45.2109 69.2851 45.3688 69.5463C45.5267 69.8075 45.7241 70.0068 45.9675 70.1373C46.2109 70.2679 46.4609 70.3367 46.7241 70.3367C47.3359 70.3367 47.8096 70.0343 48.1451 69.4294L48.8228 69.7731C48.6188 70.1786 48.3359 70.5016 47.9807 70.7353C47.6254 70.969 47.1978 71.0858 46.6978 71.0858C46.2373 71.0858 45.8294 70.969 45.4675 70.7422L45.4478 70.7559ZM48.0662 67.9037C48.053 67.6975 47.9938 67.4844 47.8951 67.2714C47.7965 67.0652 47.6386 66.8865 47.4215 66.7422C47.2044 66.5978 46.9346 66.5291 46.6057 66.5291C46.2307 66.5291 45.9083 66.6528 45.6517 66.9071C45.3886 67.1614 45.2175 67.4913 45.1386 67.9037H48.0662ZM46.6846 71.182C46.2109 71.182 45.7833 71.0652 45.4083 70.8246C45.0333 70.591 44.7373 70.2542 44.5267 69.8418C44.3162 69.4294 44.2109 68.9552 44.2109 68.4398C44.2109 67.9243 44.3096 67.4844 44.507 67.0652C44.7044 66.6459 44.9873 66.3092 45.3491 66.0617C45.7109 65.8075 46.1386 65.6837 46.6188 65.6837C47.0991 65.6837 47.5267 65.8006 47.882 66.0274C48.2373 66.2542 48.5136 66.5703 48.7044 66.969C48.8951 67.3676 48.9938 67.8281 48.9938 68.3367C48.9938 68.4398 48.9807 68.536 48.9609 68.6116L48.9412 68.6734H45.178C45.2044 68.9965 45.2899 69.2782 45.4215 69.505C45.5728 69.7525 45.757 69.938 45.9873 70.0617C46.2175 70.1855 46.4609 70.2473 46.7044 70.2473C47.2899 70.2473 47.7307 69.9655 48.053 69.3882L48.0925 69.3195L48.9149 69.7387L48.8754 69.8143C48.6649 70.2336 48.3688 70.5635 48.007 70.8109C47.6386 71.0514 47.1978 71.1751 46.678 71.1751L46.6846 71.182ZM45.4938 70.6803C45.8425 70.9002 46.2438 71.0102 46.6846 71.0102C47.1715 71.0102 47.5859 70.8934 47.9215 70.6666C48.2372 70.4535 48.5004 70.1717 48.6912 69.8143L48.1583 69.5463C47.8162 70.1305 47.3228 70.426 46.7044 70.426C46.428 70.426 46.1583 70.3573 45.9083 70.2198C45.6517 70.0824 45.4412 69.8762 45.2767 69.6013C45.1123 69.3263 45.0201 68.9896 45.0004 68.5978V68.5085H48.8096C48.8162 68.4604 48.8228 68.3985 48.8228 68.3367C48.8228 67.8556 48.7307 67.4226 48.553 67.0446C48.3754 66.6734 48.1188 66.3779 47.7899 66.1717C47.4609 65.9587 47.0596 65.8556 46.6123 65.8556C46.1649 65.8556 45.7701 65.9724 45.4346 66.2061C45.0991 66.4398 44.8359 66.7559 44.6517 67.1477C44.4675 67.5394 44.3754 67.9793 44.3754 68.4466C44.3754 68.914 44.4741 69.3813 44.6715 69.7662C44.8688 70.1511 45.1451 70.4604 45.4938 70.6803ZM48.1517 67.9861H45.0399L45.0596 67.883C45.1451 67.4569 45.3228 67.1064 45.5991 66.8384C45.8754 66.5703 46.2109 66.4398 46.6123 66.4398C46.9544 66.4398 47.2438 66.5154 47.4675 66.6666C47.6978 66.8178 47.8623 67.0102 47.9741 67.2301C48.0794 67.4501 48.1386 67.67 48.1517 67.8899V67.9793V67.9861ZM45.2504 67.8143H47.9807C47.9609 67.6494 47.9083 67.4776 47.8294 67.3126C47.7373 67.1202 47.5859 66.9483 47.382 66.8178C47.178 66.6872 46.9215 66.6184 46.6123 66.6184C46.257 66.6184 45.9544 66.7353 45.7109 66.9758C45.4873 67.1958 45.3294 67.4776 45.2438 67.8212L45.2504 67.8143ZM51.8162 63.9037H54.0859C54.4609 63.9037 54.8096 63.993 55.132 64.1717C55.4544 64.3504 55.7044 64.5978 55.9017 64.914C56.0925 65.2301 56.1912 65.5875 56.1912 65.993C56.1912 66.3985 56.0925 66.749 55.9017 67.0721C55.7109 67.3882 55.4544 67.6356 55.132 67.8143C54.8096 67.993 54.4609 68.0824 54.0859 68.0824H52.6057V70.9552H51.8162V63.9174V63.9037ZM54.1057 67.2714C54.3557 67.2714 54.5794 67.2095 54.7701 67.0858C54.9609 66.9621 55.1123 66.804 55.2175 66.6047C55.3228 66.4054 55.3754 66.1992 55.3754 65.9861C55.3754 65.7731 55.3228 65.5669 55.2175 65.3676C55.1123 65.1683 54.9609 65.0102 54.7701 64.8865C54.5794 64.7628 54.3557 64.7009 54.1057 64.7009H52.6123V67.2782H54.1057V67.2714ZM52.6912 71.0239H51.7373V63.8143H54.0859C54.4741 63.8143 54.8359 63.9037 55.1715 64.0892C55.5004 64.2748 55.7701 64.536 55.9675 64.859C56.1649 65.1889 56.2701 65.5669 56.2701 65.9793C56.2701 66.3916 56.1715 66.7696 55.9675 67.0995C55.7701 67.4294 55.5004 67.6906 55.1715 67.8693C54.8425 68.0549 54.4807 68.1442 54.0859 68.1442H52.6912V71.0171V71.0239ZM51.9017 70.8521H52.5267V67.9793H54.0859C54.4478 67.9793 54.7833 67.8968 55.0925 67.725C55.3951 67.5532 55.6451 67.3195 55.8294 67.0102C56.0136 66.7078 56.1057 66.3573 56.1057 65.9793C56.1057 65.6013 56.0136 65.2507 55.8294 64.9483C55.6451 64.6459 55.4017 64.4054 55.0925 64.2336C54.7833 64.0617 54.4478 63.9793 54.0859 63.9793H51.9017V70.8453V70.8521ZM54.1057 67.3607H52.5267V64.6116H54.1057C54.3688 64.6116 54.6057 64.6803 54.8096 64.8109C55.0136 64.9415 55.1715 65.1133 55.2833 65.3264C55.3951 65.5325 55.4544 65.7593 55.4544 65.9861C55.4544 66.213 55.3951 66.4398 55.2833 66.6459C55.1715 66.8521 55.0136 67.0239 54.8096 67.1614C54.6057 67.292 54.3688 67.3607 54.1057 67.3607ZM52.6912 67.1889H54.1057C54.3425 67.1889 54.5465 67.1339 54.7241 67.0171C54.9017 66.9002 55.0465 66.749 55.1451 66.5635C55.2438 66.3779 55.2965 66.1855 55.2965 65.9861C55.2965 65.7868 55.2438 65.5944 55.1451 65.4088C55.0465 65.2233 54.9017 65.0721 54.7241 64.9552C54.5465 64.8384 54.3359 64.7834 54.1057 64.7834H52.6912V67.1889ZM57.7899 70.8796C57.5136 70.7353 57.303 70.536 57.1517 70.2817C57.0004 70.0274 56.928 69.7456 56.928 69.4226C56.928 68.8934 57.1188 68.4741 57.5004 68.1786C57.882 67.883 58.3688 67.7319 58.9478 67.7319C59.2373 67.7319 59.507 67.7662 59.7504 67.8281C60.0004 67.8968 60.1912 67.9724 60.3228 68.0549V67.7525C60.3228 67.3813 60.1978 67.0789 59.9478 66.8521C59.6978 66.6253 59.382 66.5154 59.0004 66.5154C58.7307 66.5154 58.4807 66.5772 58.257 66.694C58.0333 66.8178 57.8557 66.9827 57.7241 67.2026L57.1188 66.7284C57.3096 66.426 57.5662 66.1923 57.8951 66.0205C58.2241 65.8487 58.5925 65.7662 58.9938 65.7662C59.6451 65.7662 60.1583 65.9449 60.5333 66.3023C60.9083 66.6597 61.0925 67.1477 61.0925 67.7593V70.9346H60.3294V70.2198H60.2899C60.1517 70.4604 59.9478 70.6666 59.6715 70.8384C59.3951 71.0102 59.0859 71.0927 58.7373 71.0927C58.3886 71.0927 58.0728 71.0239 57.7965 70.8796H57.7899ZM59.5596 70.1442C59.7899 69.9999 59.9741 69.8075 60.1123 69.5669C60.2504 69.3264 60.3162 69.0583 60.3162 68.7696C60.1649 68.6666 59.9807 68.5772 59.7636 68.5154C59.5465 68.4535 59.3096 68.4191 59.0662 68.4191C58.6254 68.4191 58.2965 68.5154 58.0728 68.7078C57.8491 68.9002 57.7373 69.1408 57.7373 69.4432C57.7373 69.7181 57.8359 69.938 58.0399 70.1099C58.2438 70.2817 58.4938 70.3641 58.803 70.3641C59.0728 70.3641 59.3228 70.2954 59.553 70.1511L59.5596 70.1442ZM58.7307 71.182C58.3688 71.182 58.0399 71.1064 57.7504 70.9552C57.4609 70.804 57.2373 70.5978 57.0794 70.3298C56.9215 70.0686 56.8425 69.7593 56.8425 69.4226C56.8425 68.8659 57.0465 68.426 57.4478 68.1099C57.8425 67.8006 58.3491 67.6494 58.9478 67.6494C59.2438 67.6494 59.5201 67.6837 59.7701 67.7525C59.9609 67.8006 60.1123 67.8556 60.2373 67.9174V67.7593C60.2373 67.4088 60.1254 67.1339 59.8886 66.9277C59.6517 66.7147 59.3557 66.6116 58.9938 66.6116C58.7373 66.6116 58.5004 66.6666 58.2899 66.7834C58.0794 66.8934 57.9083 67.0583 57.7833 67.2576L57.7373 67.3332L57.0004 66.7559L57.0399 66.6872C57.2373 66.371 57.507 66.1236 57.8491 65.9518C58.1912 65.78 58.5662 65.6906 58.9807 65.6906C59.6517 65.6906 60.1846 65.8762 60.5728 66.2473C60.9609 66.6184 61.1583 67.1339 61.1583 67.7662V71.0239H60.2307V70.4398C60.0925 70.6184 59.9149 70.7834 59.6978 70.914C59.4083 71.0927 59.0794 71.182 58.7241 71.182H58.7307ZM58.9478 67.8212C58.382 67.8212 57.9149 67.9655 57.5465 68.2542C57.1846 68.536 57.007 68.9208 57.007 69.4294C57.007 69.7318 57.0794 70.0068 57.2175 70.2404C57.3623 70.481 57.5662 70.6666 57.8228 70.804C58.0859 70.9415 58.3886 71.0102 58.7241 71.0102C59.0596 71.0102 59.3491 70.9277 59.6123 70.7696C59.8754 70.6047 60.0728 70.4123 60.2044 70.1786L60.2307 70.1373H60.3951V70.8521H60.9938V67.7662C60.9938 67.182 60.8162 66.7078 60.4609 66.371C60.1057 66.0274 59.6057 65.8556 58.9807 65.8556C58.5925 65.8556 58.2373 65.938 57.9215 66.103C57.632 66.2542 57.3951 66.4604 57.2241 66.7147L57.6912 67.0858C57.8228 66.8934 58.0004 66.7422 58.2109 66.6253C58.4478 66.5016 58.7109 66.4329 58.9938 66.4329C59.3951 66.4329 59.7307 66.5566 60.0004 66.7903C60.2701 67.0308 60.4083 67.3607 60.4083 67.7525V68.2129L60.2833 68.1305C60.1583 68.048 59.9741 67.9793 59.7373 67.9174C59.4938 67.8556 59.2307 67.8212 58.9544 67.8212H58.9478ZM58.8096 70.4466C58.4873 70.4466 58.2109 70.3573 57.9938 70.1717C57.7767 69.9861 57.6649 69.7387 57.6649 69.4363C57.6649 69.1064 57.7899 68.8384 58.0267 68.6322C58.2636 68.4329 58.6123 68.3298 59.0728 68.3298C59.3228 68.3298 59.5662 68.3642 59.7899 68.4329C60.0201 68.5016 60.2109 68.591 60.3688 68.7009L60.4083 68.7284V68.7765C60.4083 69.0789 60.3359 69.3607 60.1912 69.615C60.0465 69.8693 59.8491 70.0755 59.6057 70.2267C59.3623 70.3779 59.0925 70.4535 58.8096 70.4535V70.4466ZM59.0728 68.5016C58.6517 68.5016 58.3359 68.591 58.132 68.7696C57.928 68.9415 57.8294 69.1614 57.8294 69.4432C57.8294 69.6906 57.9149 69.8899 58.0991 70.048C58.2833 70.2061 58.5201 70.2817 58.8096 70.2817C59.0662 70.2817 59.303 70.2129 59.5201 70.0755C59.7373 69.938 59.9149 69.7525 60.0465 69.5257C60.1715 69.3126 60.2373 69.0721 60.2438 68.8178C60.1057 68.7284 59.9412 68.6528 59.7504 68.5978C59.5399 68.536 59.3096 68.5016 59.0794 68.5016H59.0728ZM62.0662 66.0068H62.8294V66.804H62.8688C62.9807 66.5085 63.1715 66.2817 63.4412 66.1167C63.7109 65.9518 64.007 65.8693 64.3228 65.8693C64.4609 65.8693 64.5794 65.8762 64.6715 65.8968V66.749C64.5662 66.7215 64.4215 66.7078 64.2373 66.7078C63.8294 66.7078 63.5004 66.8521 63.2438 67.127C62.9873 67.4088 62.8623 67.7731 62.8623 68.2267V71.0102H62.0596V65.9999L62.0662 66.0068ZM66.9346 70.9965C66.7701 70.9277 66.632 70.8384 66.5136 70.7284C66.3886 70.6047 66.2965 70.4535 66.2307 70.2885C66.1649 70.1236 66.1386 69.9174 66.1386 69.6769V66.6872H65.303V65.9312H66.1386V64.5154H66.9346V65.9312H68.0991V66.6872H66.9346V69.4776C66.9346 69.7593 66.9873 69.9655 67.0859 70.103C67.2044 70.2473 67.3754 70.3229 67.6057 70.3229C67.7899 70.3229 67.9609 70.2679 68.132 70.158V70.9758C68.0399 71.0239 67.9412 71.0514 67.8425 71.0721C67.7438 71.0927 67.6188 71.0995 67.4741 71.0995C67.2767 71.0995 67.0991 71.0652 66.9346 70.9965ZM67.4741 71.182C67.2701 71.182 67.0794 71.1477 66.9017 71.0789C66.7241 71.0102 66.5728 70.914 66.4544 70.7903C66.3228 70.6528 66.2175 70.4947 66.1517 70.3229C66.0859 70.1511 66.053 69.9312 66.053 69.6837V66.7765H65.2175V65.8487H66.053V64.4329H67.0136V65.8487H68.178V66.7765H67.0136V69.4844C67.0136 69.7456 67.0596 69.938 67.1451 70.0549C67.2504 70.1786 67.3951 70.2404 67.5991 70.2404C67.7636 70.2404 67.928 70.1855 68.0794 70.0892L68.2044 70.0068V71.0308L68.1583 71.0514C68.053 71.0995 67.9544 71.1339 67.8491 71.1545C67.7504 71.1751 67.6188 71.182 67.4609 71.182H67.4741ZM65.382 66.5978H66.2175V69.6769C66.2175 69.9037 66.2438 70.103 66.303 70.2542C66.3623 70.4054 66.4478 70.5497 66.5662 70.6666C66.6715 70.7696 66.803 70.859 66.9544 70.9209C67.1123 70.9827 67.2833 71.0171 67.4675 71.0171C67.6123 71.0171 67.7307 71.0102 67.8228 70.9896C67.8951 70.9758 67.9675 70.9552 68.0465 70.9209V70.3092C67.9017 70.3779 67.7504 70.4191 67.5991 70.4191C67.3491 70.4191 67.1517 70.3367 67.0201 70.1648C66.9083 70.0136 66.8491 69.7937 66.8491 69.4844V66.6047H68.0136V66.0205H66.8491V64.6047H66.2175V66.0205H65.382V66.6047V66.5978ZM62.9478 71.1064H61.9807V65.9243H62.9083V66.5291C63.0267 66.3298 63.1912 66.1717 63.3951 66.048C63.678 65.8762 63.9873 65.7868 64.3228 65.7868C64.4609 65.7868 64.5859 65.8006 64.6846 65.8143L64.7504 65.8281V66.859L64.6517 66.8315C64.553 66.804 64.4149 66.7971 64.2373 66.7971C63.8491 66.7971 63.5465 66.9277 63.303 67.1958C63.0662 67.4569 62.9478 67.8075 62.9478 68.2404V71.1064ZM62.1451 70.9346H62.7833V68.2404C62.7833 67.7662 62.9215 67.3813 63.1846 67.0789C63.4544 66.7834 63.8096 66.6322 64.2373 66.6322C64.3754 66.6322 64.4938 66.6391 64.5859 66.6528V65.9724C64.507 65.9587 64.4215 65.9587 64.3228 65.9587C64.0201 65.9587 63.7373 66.0411 63.4807 66.1923C63.2241 66.3504 63.0465 66.5566 62.9412 66.8384L62.9215 66.8934H62.7438V66.0961H62.1451V70.9346ZM69.0136 65.9312H69.7767V66.6666H69.8162C69.9478 66.4191 70.1583 66.2061 70.4478 66.0343C70.7373 65.8624 71.0465 65.7731 71.3688 65.7731C71.9478 65.7731 72.3886 65.9449 72.6912 66.2954C72.9938 66.6459 73.1451 67.1202 73.1451 67.725V70.9415H72.3425V67.8556C72.3425 67.3882 72.2373 67.0514 72.0201 66.8453C71.8096 66.6391 71.5136 66.5291 71.1451 66.5291C70.8886 66.5291 70.6583 66.6047 70.4544 66.7559C70.2504 66.9071 70.0925 67.1064 69.9807 67.3538C69.8688 67.6013 69.8096 67.8556 69.8096 68.1236V70.9415H69.007V65.9312H69.0136ZM73.2241 71.0308H72.257V67.8556C72.257 67.4157 72.1583 67.0995 71.9609 66.9071C71.7636 66.7147 71.4873 66.6184 71.1451 66.6184C70.9083 66.6184 70.6912 66.6872 70.5004 66.8315C70.3096 66.9758 70.1583 67.1614 70.053 67.3951C69.9478 67.6288 69.8886 67.8762 69.8886 68.1305V71.0377H68.9215V65.8556H69.8491V66.4535C69.9873 66.2679 70.1649 66.1099 70.3951 65.9724C70.6978 65.7937 71.0201 65.6975 71.3557 65.6975C71.9544 65.6975 72.4215 65.8831 72.7373 66.2542C73.053 66.6184 73.2175 67.1202 73.2175 67.7456V71.0446L73.2241 71.0308ZM72.4215 70.859H73.0596V67.7319C73.0596 67.1545 72.9149 66.6941 72.6254 66.3573C72.3425 66.0274 71.9149 65.8624 71.3623 65.8624C71.053 65.8624 70.757 65.9449 70.4807 66.1099C70.2044 66.2748 70.007 66.4741 69.882 66.7078L69.8557 66.749H69.6846V66.0136H69.0859V70.8521H69.7241V68.1167C69.7241 67.8349 69.7833 67.5669 69.9017 67.3057C70.0201 67.0514 70.1846 66.8384 70.4017 66.6803C70.6188 66.5222 70.8688 66.4398 71.1386 66.4398C71.5267 66.4398 71.8425 66.5566 72.0728 66.7765C72.303 67.0033 72.4215 67.3607 72.4215 67.8487V70.8521V70.859ZM75.1912 70.7559C74.8294 70.5291 74.5465 70.2129 74.3425 69.8074C74.1386 69.402 74.0399 68.9483 74.0399 68.4466C74.0399 67.9449 74.1386 67.5188 74.3294 67.1064C74.5201 66.7009 74.7899 66.3779 75.1451 66.1305C75.5004 65.8831 75.9017 65.7662 76.3688 65.7662C76.8359 65.7662 77.2438 65.8762 77.5925 66.0961C77.9412 66.316 78.2044 66.6184 78.3886 67.0033C78.5728 67.3882 78.6649 67.8349 78.6649 68.3298C78.6649 68.426 78.6583 68.5154 78.6386 68.5841H74.8491C74.8688 68.9621 74.9544 69.2851 75.1123 69.5463C75.2701 69.8075 75.4675 70.0068 75.7109 70.1373C75.9544 70.2679 76.2044 70.3367 76.4675 70.3367C77.0794 70.3367 77.553 70.0343 77.8886 69.4294L78.5662 69.7731C78.3557 70.1786 78.0794 70.5016 77.7241 70.7353C77.3688 70.969 76.9412 71.0858 76.4412 71.0858C75.9807 71.0858 75.5728 70.969 75.2109 70.7422L75.1912 70.7559ZM77.8096 67.9037C77.7965 67.6975 77.7373 67.4844 77.6386 67.2714C77.5399 67.0652 77.382 66.8865 77.1649 66.7422C76.9478 66.5978 76.678 66.5291 76.3491 66.5291C75.9741 66.5291 75.6517 66.6528 75.3951 66.9071C75.132 67.1614 74.9609 67.4913 74.882 67.9037H77.8096ZM76.428 71.182C75.9609 71.182 75.5267 71.0652 75.1517 70.8246C74.7767 70.591 74.4807 70.2542 74.2701 69.8418C74.0596 69.4294 73.9544 68.9552 73.9544 68.4398C73.9544 67.9243 74.053 67.4844 74.2504 67.0652C74.4478 66.6459 74.7307 66.3092 75.0925 66.0617C75.4544 65.8075 75.882 65.6837 76.3623 65.6837C76.8425 65.6837 77.2701 65.8006 77.6254 66.0274C77.9807 66.2542 78.257 66.5703 78.4478 66.969C78.6386 67.3676 78.7373 67.8281 78.7373 68.3367C78.7373 68.4398 78.7241 68.536 78.7044 68.6116L78.6846 68.6734H74.9215C74.9478 68.9965 75.0333 69.2782 75.1649 69.505C75.3096 69.7525 75.5004 69.938 75.7307 70.0617C75.9609 70.1855 76.1978 70.2473 76.4478 70.2473C77.0333 70.2473 77.4807 69.9655 77.7965 69.3882L77.8359 69.3195L78.6583 69.7387L78.6188 69.8143C78.4083 70.2336 78.1123 70.5635 77.7504 70.8109C77.382 71.0514 76.9346 71.1751 76.4215 71.1751L76.428 71.182ZM75.2373 70.6803C75.5859 70.9002 75.9873 71.0102 76.428 71.0102C76.9149 71.0102 77.3294 70.8934 77.6649 70.6666C77.9807 70.4535 78.2438 70.1717 78.4346 69.8143L77.9017 69.5463C77.5596 70.1305 77.0662 70.426 76.4478 70.426C76.1715 70.426 75.9017 70.3573 75.6517 70.2198C75.3951 70.0824 75.1846 69.8762 75.0201 69.6013C74.8557 69.3263 74.7636 68.9896 74.7438 68.5978V68.5085H78.553C78.5596 68.4604 78.5662 68.3985 78.5662 68.3367C78.5662 67.8556 78.4741 67.4226 78.2965 67.0446C78.1188 66.6734 77.8623 66.3848 77.5333 66.1717C77.2044 65.9587 76.803 65.8556 76.3557 65.8556C75.9083 65.8556 75.5136 65.9724 75.178 66.2061C74.8425 66.4398 74.5728 66.7559 74.3951 67.1477C74.2109 67.5394 74.1188 67.9793 74.1188 68.4466C74.1188 68.914 74.2175 69.3813 74.4149 69.7662C74.6123 70.1511 74.8886 70.4604 75.2373 70.6803ZM77.8951 67.9861H74.7833L74.803 67.883C74.8886 67.4569 75.0662 67.1064 75.3425 66.8384C75.6188 66.5703 75.9544 66.4398 76.3557 66.4398C76.6978 66.4398 76.9873 66.5154 77.2109 66.6666C77.4412 66.8178 77.6057 67.0102 77.7175 67.2301C77.8228 67.4501 77.882 67.67 77.8951 67.8899V67.9793V67.9861ZM74.9873 67.8143H77.7175C77.6978 67.6494 77.6451 67.4776 77.5662 67.3126C77.4741 67.1202 77.3228 66.9483 77.1188 66.8178C76.9149 66.6803 76.6583 66.6184 76.3491 66.6184C75.9938 66.6184 75.6912 66.7353 75.4478 66.9758C75.2241 67.1958 75.0662 67.4776 74.9807 67.8212L74.9873 67.8143ZM79.5794 65.9243H80.3425V66.7284H80.382C80.4741 66.4535 80.6583 66.2267 80.928 66.0411C81.1978 65.8556 81.4807 65.7662 81.7767 65.7662C81.9938 65.7662 82.1846 65.8006 82.3425 65.8762V66.7697C82.1386 66.6666 81.9149 66.6116 81.6649 66.6116C81.4346 66.6116 81.2175 66.6803 81.0267 66.8178C80.8294 66.9552 80.678 67.1408 80.5596 67.3745C80.4412 67.6081 80.3886 67.8556 80.3886 68.1305V70.9346H79.5859V65.9243H79.5794ZM80.4609 71.0239H79.4938V65.8418H80.4215V66.4466C80.5333 66.2679 80.6846 66.1099 80.8754 65.9793C81.1583 65.7868 81.4609 65.6906 81.7701 65.6906C82.0004 65.6906 82.1978 65.7318 82.3688 65.8075L82.4215 65.8281V66.9209L82.303 66.859C82.1123 66.7628 81.8951 66.7078 81.6649 66.7078C81.4478 66.7078 81.2504 66.7696 81.0728 66.9002C80.8886 67.0308 80.7438 67.2095 80.632 67.4226C80.5201 67.6425 80.4675 67.8831 80.4675 68.1373V71.0308L80.4609 71.0239ZM79.6583 70.8521H80.2965V68.1305C80.2965 67.8487 80.3557 67.5806 80.4807 67.3401C80.5991 67.0927 80.7701 66.9002 80.9741 66.749C81.1846 66.6047 81.4149 66.5291 81.6583 66.5291C81.8754 66.5291 82.0728 66.5635 82.257 66.6391V65.9312C82.1188 65.8762 81.9609 65.8487 81.7767 65.8487C81.5004 65.8487 81.2307 65.938 80.9741 66.1099C80.7241 66.2817 80.5465 66.5016 80.4609 66.7559L80.4412 66.8109H80.2636V66.0068H79.6649V70.8453L79.6583 70.8521Z" fill="#606469"/>
<path d="M63.8209 41.0036C63.8209 39.9521 63.663 38.9418 63.4986 37.9658H50.2617V43.6978H57.6894C57.3604 45.5534 56.5183 47.1273 55.0117 48.1858V51.9246H59.6104C62.288 49.3404 63.8275 45.5191 63.8275 41.0036H63.8209Z" fill="#0081C6"/>
<path d="M50.2165 55.505C54.0389 55.505 57.256 54.1923 59.6046 51.9242L55.006 48.1854C53.7428 49.0789 52.1178 49.6012 50.2165 49.6012C46.5323 49.6012 43.4007 46.9964 42.2823 43.4844H37.5586V47.3263C39.8875 52.1785 44.677 55.505 50.2165 55.505Z" fill="#00AE57"/>
<path d="M42.2889 43.4914C42.006 42.5979 41.8481 41.6495 41.8481 40.6667C41.8481 39.6838 42.006 38.7354 42.2889 37.8419V34H37.5652C36.6046 36.0069 36.0586 38.268 36.0586 40.6667C36.0586 43.0653 36.6046 45.3265 37.5652 47.3333L42.2889 43.4914Z" fill="#FBAB18"/>
<path d="M50.2165 31.7251C52.2954 31.7251 54.1639 32.4742 55.6375 33.945L59.6968 29.6907C57.2428 27.2921 54.0389 25.8213 50.2165 25.8213C44.6836 25.8213 39.8875 29.1478 37.5586 34L42.2823 37.8419C43.4007 34.3299 46.5257 31.7251 50.2165 31.7251Z" fill="#F04931"/>
<path d="M91.3945 14.282H85.8156V8.67375H88.6051V7.86963H85.8156C85.3748 7.86963 85.0195 8.23389 85.0195 8.67375V14.2889C85.0195 14.7287 85.3814 15.093 85.8156 15.093H91.3945C91.8353 15.093 92.1906 14.7356 92.1906 14.2889V11.4847H91.3945V14.2889V14.282ZM89.4011 7.86963V8.67375H90.8353L86.9274 12.605L87.4866 13.1686L91.3945 9.23733V10.6806H92.1906V7.8765H89.4011V7.86963Z" fill="#0081C6"/>
<mask id="mask0_2761_11784" style="mask-type:luminance" maskUnits="userSpaceOnUse" x="3" y="3" width="95" height="95">
<path d="M97.2632 3H3V97.0344H97.2632V3Z" fill="white"/>
</mask>
<g mask="url(#mask0_2761_11784)">
<path d="M94.9196 96.7594H5.34067C4.18935 96.7594 3.26172 95.7835 3.26172 94.5876V5.44672C3.26172 4.24397 4.19593 3.2749 5.34067 3.2749H94.9196C96.0709 3.2749 96.9986 4.25085 96.9986 5.44672V94.5876C96.9986 95.7904 96.0644 96.7594 94.9196 96.7594Z" stroke="#666C71" stroke-width="0.79" stroke-miterlimit="10"/>
</g>
</svg>
