<svg width="70" height="70" viewBox="0 0 70 70" fill="none" xmlns="http://www.w3.org/2000/svg">
<circle cx="35" cy="35" r="34.5" fill="white" stroke="#C3002F"/>
<g clip-path="url(#clip0_2292_16263)">
<path d="M23.4794 57.2941H22.8516L24.6675 52.3359H25.2857L27.1016 57.2941H26.4737L24.9959 53.1205H24.9572L23.4794 57.2941ZM23.7112 55.3575H26.2419V55.8901H23.7112V55.3575ZM28.3645 55.0571V57.2941H27.7946V53.5756H28.3452V54.1564H28.3935C28.4804 53.9676 28.6124 53.8159 28.7895 53.7013C28.9666 53.585 29.1952 53.527 29.4753 53.527C29.7264 53.527 29.9462 53.5786 30.1345 53.6821C30.3229 53.7835 30.4693 53.9386 30.574 54.147C30.6787 54.3532 30.731 54.6148 30.731 54.9314V57.2941H30.1611V54.9697C30.1611 54.6779 30.0854 54.4504 29.9341 54.2872C29.7828 54.1227 29.5751 54.0405 29.3111 54.0405C29.1292 54.0405 28.9666 54.0797 28.8233 54.1589C28.6816 54.2382 28.5697 54.3532 28.4877 54.5053C28.4055 54.657 28.3645 54.8406 28.3645 55.0571ZM33.2695 58.7662C32.9942 58.7662 32.7575 58.7304 32.5595 58.6597C32.3615 58.5902 32.1965 58.4982 32.0645 58.3836C31.9341 58.2706 31.8303 58.1496 31.753 58.0205L32.207 57.701C32.2585 57.7687 32.3237 57.8458 32.4026 57.9332C32.4815 58.0218 32.5893 58.0985 32.7262 58.1633C32.8646 58.2293 33.0457 58.2626 33.2695 58.2626C33.5689 58.2626 33.8161 58.1897 34.0108 58.0444C34.2056 57.8991 34.303 57.6716 34.303 57.3618V56.6064H34.2547C34.2129 56.6741 34.1533 56.758 34.076 56.8582C34.0004 56.9566 33.8909 57.0448 33.7476 57.1223C33.606 57.1982 33.4144 57.2361 33.1729 57.2361C32.8735 57.2361 32.6046 57.1649 32.3664 57.0231C32.1297 56.8808 31.9422 56.6741 31.8037 56.4031C31.6669 56.1321 31.5985 55.8028 31.5985 55.4154C31.5985 55.0345 31.6653 54.703 31.7989 54.4205C31.9325 54.1363 32.1185 53.9169 32.3567 53.7618C32.595 53.6054 32.8703 53.527 33.1825 53.527C33.424 53.527 33.6156 53.5675 33.7573 53.648C33.9005 53.7273 34.01 53.8176 34.0857 53.9194C34.163 54.0192 34.2225 54.1018 34.2644 54.1661H34.3224V53.5756H34.8729V57.4006C34.8729 57.7201 34.8005 57.9801 34.6556 58.1803C34.5123 58.3819 34.3191 58.5297 34.076 58.623C33.8345 58.7185 33.5657 58.7662 33.2695 58.7662ZM33.2502 56.7227C33.4788 56.7227 33.672 56.6703 33.8297 56.5654C33.9875 56.4606 34.1074 56.3094 34.1895 56.1125C34.2716 55.9157 34.3127 55.68 34.3127 55.4056C34.3127 55.1376 34.2724 54.9012 34.1919 54.6962C34.1114 54.4913 33.9923 54.3306 33.8345 54.2147C33.6768 54.0984 33.482 54.0405 33.2502 54.0405C33.0087 54.0405 32.8075 54.1018 32.6465 54.2241C32.4871 54.3468 32.3672 54.5117 32.2867 54.7184C32.2078 54.9246 32.1684 55.1538 32.1684 55.4056C32.1684 55.6638 32.2086 55.8922 32.2891 56.0908C32.3712 56.2876 32.4919 56.4427 32.6513 56.5556C32.8123 56.6669 33.0119 56.7227 33.2502 56.7227ZM38.2536 55.7738V53.5756H38.8235V57.2941H38.2536V56.6647H38.215C38.128 56.8535 37.9928 57.0141 37.8093 57.1462C37.6258 57.277 37.3939 57.3426 37.1138 57.3426C36.882 57.3426 36.6759 57.2915 36.4956 57.1901C36.3153 57.0865 36.1737 56.9319 36.0706 56.7252C35.9676 56.5169 35.9161 56.2548 35.9161 55.9382V53.5756H36.486V55.8995C36.486 56.1709 36.5616 56.3869 36.713 56.5484C36.8659 56.7099 37.0607 56.7904 37.2974 56.7904C37.439 56.7904 37.5831 56.7542 37.7296 56.6813C37.8777 56.6089 38.0017 56.4977 38.1015 56.3473C38.2029 56.1973 38.2536 56.006 38.2536 55.7738ZM40.4371 52.3359V57.2941H39.8672V52.3359H40.4371ZM42.5724 57.3814C42.3374 57.3814 42.1241 57.3367 41.9325 57.248C41.7409 57.1577 41.5888 57.0277 41.4761 56.8582C41.3634 56.6873 41.3071 56.4807 41.3071 56.2386C41.3071 56.0256 41.3489 55.8526 41.4326 55.7205C41.5163 55.5863 41.6282 55.4815 41.7683 55.4056C41.9083 55.3298 42.0629 55.2736 42.2319 55.2361C42.4026 55.1977 42.574 55.167 42.7463 55.1444C42.9717 55.115 43.1544 55.0933 43.2944 55.0788C43.4361 55.0626 43.5391 55.0362 43.6035 54.9992C43.6695 54.9621 43.7025 54.8973 43.7025 54.8053V54.7861C43.7025 54.5471 43.6373 54.3613 43.5069 54.2292C43.3781 54.0967 43.1825 54.0307 42.9201 54.0307C42.6481 54.0307 42.4348 54.0903 42.2802 54.2096C42.1257 54.3293 42.017 54.4567 41.9542 54.5922L41.4133 54.3988C41.5099 54.1725 41.6387 53.9966 41.7997 53.8709C41.9623 53.7435 42.1394 53.6544 42.3309 53.6046C42.5241 53.553 42.7141 53.527 42.9008 53.527C43.0199 53.527 43.1568 53.5415 43.3113 53.5705C43.4675 53.5982 43.618 53.6553 43.7629 53.7426C43.9094 53.8295 44.0309 53.9612 44.1275 54.1372C44.2241 54.3132 44.2724 54.5488 44.2724 54.8441V57.2941H43.7025V56.7904H43.6735C43.6349 56.8714 43.5705 56.9574 43.4804 57.0495C43.3902 57.1415 43.2703 57.2199 43.1206 57.2843C42.9708 57.349 42.7881 57.3814 42.5724 57.3814ZM42.6593 56.868C42.8847 56.868 43.0747 56.8237 43.2292 56.735C43.3854 56.646 43.5029 56.5314 43.5818 56.3912C43.6623 56.2506 43.7025 56.1031 43.7025 55.948V55.4252C43.6784 55.4542 43.6253 55.4806 43.5432 55.5049C43.4627 55.5275 43.3693 55.548 43.263 55.5654C43.1584 55.5816 43.0561 55.5961 42.9564 55.6089C42.8581 55.6204 42.7785 55.6302 42.7173 55.6383C42.5692 55.6575 42.4308 55.689 42.3019 55.7324C42.1748 55.7746 42.0718 55.8381 41.9929 55.9238C41.9156 56.0077 41.8769 56.1223 41.8769 56.2676C41.8769 56.4662 41.9502 56.6162 42.0967 56.718C42.2448 56.8181 42.4323 56.868 42.6593 56.868ZM45.3126 57.2941V53.5756H45.8631V54.1372H45.9018C45.9694 53.9531 46.0918 53.804 46.2688 53.6894C46.4459 53.5747 46.6455 53.5172 46.8677 53.5172C46.9095 53.5172 46.9619 53.5181 47.0246 53.5198C47.0874 53.5215 47.1349 53.524 47.1671 53.527V54.1082C47.1478 54.1031 47.1035 54.0958 47.0343 54.0865C46.9667 54.075 46.895 54.0694 46.8194 54.0694C46.6391 54.0694 46.4781 54.1073 46.3364 54.1832C46.1964 54.2573 46.0853 54.3609 46.0032 54.493C45.9227 54.6238 45.8824 54.7729 45.8824 54.9408V57.2941H45.3126Z" fill="#C3002F"/>
<path fill-rule="evenodd" clip-rule="evenodd" d="M34.8161 10L18 16.0121L20.5649 38.3039L34.8161 46.2174L49.0674 38.3039L51.6323 16.0121L34.8161 10ZM24.3038 37.6337L34.8161 14.0019L45.2924 37.6337H41.3728L39.2595 32.346H30.3366L28.2233 37.6337H24.3038ZM34.8161 21.68L31.7455 29.0864H37.8868L34.8161 21.68Z" fill="#C3002F"/>
</g>
<defs>
<clipPath id="clip0_2292_16263">
<rect width="34" height="49" fill="white" transform="translate(18 10)"/>
</clipPath>
</defs>
</svg>
