<svg width="70" height="70" viewBox="0 0 70 70" fill="none" xmlns="http://www.w3.org/2000/svg">
<circle cx="35" cy="35" r="34.5" fill="white" stroke="#264DE4"/>
<g clip-path="url(#clip0_2308_16577)">
<path d="M34.9532 59L21.0911 55.0735L18 19.5703H52L48.9089 54.9802L34.9532 59Z" fill="#264DE4"/>
<path d="M46.1931 52.7794L48.8152 22.4414H35.0469V55.9396L46.1931 52.7812V52.7794Z" fill="#2965F1"/>
<path d="M25.0228 35.6484L25.3975 40.051H34.9513V35.6484H25.0228ZM24.2734 26.8438L24.6481 31.2464H34.9513V26.8438H24.2734ZM34.9513 47.0371L30.1741 45.6972L29.8931 42.2517H25.5848L26.2405 49.047L34.9513 51.5355V47.0371Z" fill="#EBEBEB"/>
<path d="M25.9609 10H31.1122V12.2013H28.1154V14.4026H31.1128V16.6039H25.9609V10ZM32.1456 10H37.2969V11.9142H34.297V12.297H37.2945V16.6996H32.1456V14.6891H35.1431V14.3069H32.1456V10ZM38.3303 10H43.4761V11.9142H40.4787V12.297H43.4761V16.6996H38.3248V14.6891H41.3223V14.3069H38.3248V10H38.3303Z" fill="black"/>
<path d="M44.8816 35.6484L45.631 26.8438H34.9531V31.2464H40.9474L40.5728 35.649H34.9531V40.0516H40.1981L39.7297 45.696L34.9531 47.0371V51.63L43.6639 49.1415L43.7576 48.3758L44.7879 36.8914L44.8816 35.6471V35.6484Z" fill="white"/>
</g>
<defs>
<clipPath id="clip0_2308_16577">
<rect width="34" height="49" fill="white" transform="translate(18 10)"/>
</clipPath>
</defs>
</svg>
