<svg width="70" height="70" viewBox="0 0 70 70" fill="none" xmlns="http://www.w3.org/2000/svg">
<circle cx="35" cy="35" r="34.5" fill="white" stroke="#E44D26"/>
<g clip-path="url(#clip0_2308_16590)">
<path d="M21.0911 55.0759L18 19.5703H52L48.9089 55.0759L34.9532 59.0025L21.0911 55.0759Z" fill="#E44D26"/>
<path d="M35.0469 56.0373L46.1931 52.7856L48.9089 22.5391H35.0469V56.0373Z" fill="#F16529"/>
<path d="M35.0449 35.6484H29.4247L28.9564 31.2458H35.0449V26.8438H24.2734L24.4608 27.9923L25.4912 40.051H35.0449V35.6484Z" fill="#EBEBEB"/>
<path d="M35.0467 47.0368H34.9531L30.2695 45.6969L29.9885 42.1562H25.6797L26.2417 49.0467L34.9525 51.5351H35.0467V47.0368Z" fill="#EBEBEB"/>
<path d="M21.1875 10H23.3419V12.2013H25.309V10H27.4634V16.6033H25.309V14.4026H23.3419V16.6039H21.1875V10Z" fill="black"/>
<path d="M30.3656 12.2013H28.4922V10H34.3928V12.2013H32.5194V16.6039H30.3656V12.2013Z" fill="black"/>
<path d="M35.3281 10H37.5762L38.9813 12.297L40.3857 10H42.6338V16.6033H40.4794V13.3498L39.0749 15.6444H38.9813L37.4801 13.3474V16.599H35.4218L35.3281 10Z" fill="black"/>
<path d="M43.6641 10H45.8185V14.4026H48.9096V16.6039H43.6641V10Z" fill="black"/>
<path d="M34.9531 35.6491V40.0517H40.1981L39.7297 45.6961L34.9531 47.0378V51.5355L43.6639 49.0471L43.7576 48.3771L44.7879 36.8927L44.8816 35.6484L34.9531 35.6491Z" fill="white"/>
<path d="M34.9531 26.8438V31.2464H45.2563L45.35 30.2893L45.5373 27.9923L45.631 26.8438H34.9531Z" fill="white"/>
</g>
<defs>
<clipPath id="clip0_2308_16590">
<rect width="34" height="49" fill="white" transform="translate(18 10)"/>
</clipPath>
</defs>
</svg>
