<svg width="70" height="70" viewBox="0 0 70 70" fill="none" xmlns="http://www.w3.org/2000/svg">
<circle cx="35" cy="35" r="34.5" fill="white" stroke="#F7DF1E"/>
<g clip-path="url(#clip0_2308_16612)">
<path d="M52 19H18V53H52V19Z" fill="#F7DF1E"/>
<path d="M40.8586 45.5649C41.5386 46.6784 42.4277 47.4969 43.9968 47.4969C45.3143 47.4969 46.1571 46.8382 46.1571 45.9278C46.1571 44.8369 45.2918 44.4505 43.8409 43.816L43.0457 43.476C40.7507 42.4985 39.2249 41.2728 39.2249 38.6829C39.2249 36.2969 41.0427 34.4805 43.8838 34.4805C45.9064 34.4805 47.3607 35.1843 48.4083 37.0275L45.931 38.6183C45.3857 37.6408 44.7971 37.2549 43.8838 37.2549C43.6925 37.2357 43.4993 37.2565 43.3165 37.3161C43.1337 37.3757 42.9653 37.4728 42.8221 37.601C42.6789 37.7293 42.5639 37.886 42.4846 38.0611C42.4053 38.2363 42.3634 38.426 42.3614 38.6183C42.3614 39.5728 42.9526 39.9591 44.3164 40.5499L45.1116 40.8899C47.8146 42.0489 49.3408 43.2308 49.3408 45.8875C49.3408 48.7515 47.0908 50.3206 44.0708 50.3206C41.1162 50.3206 39.2075 48.9126 38.2738 47.0673L40.8586 45.5649ZM29.6208 45.8407C30.1206 46.7273 30.5753 47.477 31.668 47.477C32.7131 47.477 33.3727 47.0681 33.3727 45.4795V34.6607H36.5538V45.5207C36.5538 48.8149 34.6226 50.3138 31.8036 50.3138C29.2565 50.3138 27.7814 48.9963 27.0312 47.4081L29.6208 45.8407Z" fill="black"/>
</g>
<rect x="18.5" y="19.5" width="33" height="33" stroke="#F7DF1E"/>
<defs>
<clipPath id="clip0_2308_16612">
<rect x="18" y="19" width="34" height="34" fill="white"/>
</clipPath>
</defs>
</svg>
