<svg width="70" height="70" viewBox="0 0 70 70" fill="none" xmlns="http://www.w3.org/2000/svg">
<circle cx="35" cy="35" r="34.5" fill="white" stroke="black"/>
<g clip-path="url(#clip0_2308_16670)">
<path d="M24.2031 28.9985H31.5588V29.5718H24.8776V33.8715H31.1603V34.4447H24.8776V39.1658H31.6355V39.739H24.2031V28.9985ZM32.2179 28.9985H32.9995L36.4627 33.7212L40.0025 28.9985L44.8197 23L36.9095 34.2191L40.9846 39.7374H40.1714L36.4627 34.7158L32.7389 39.7374H31.9419L36.0487 34.2179L32.2179 28.9985ZM41.2748 29.5718V28.9985H49.6551V29.5718H45.7934V39.7374H45.121V29.5701L41.2748 29.5718Z" fill="black"/>
<path d="M15 29H15.8441L27.4663 46.0015L22.6634 39.7368L15.7061 29.8124L15.6753 39.7384H15V29Z" fill="black"/>
<path d="M49.5926 38.9949C49.6408 38.9954 49.6882 38.9817 49.7285 38.9558C49.7689 38.9298 49.8005 38.8926 49.8193 38.849C49.8381 38.8053 49.8433 38.7572 49.8342 38.7106C49.8251 38.6641 49.8021 38.6212 49.7681 38.5875C49.7342 38.5539 49.6908 38.5308 49.6435 38.5214C49.5962 38.512 49.5472 38.5166 49.5025 38.5346C49.4579 38.5526 49.4197 38.5833 49.3929 38.6226C49.366 38.662 49.3517 38.7083 49.3517 38.7557C49.3508 38.7872 49.3563 38.8185 49.3681 38.8477C49.3799 38.877 49.3975 38.9036 49.4201 38.9259C49.4426 38.9483 49.4695 38.9659 49.4991 38.9778C49.5288 38.9896 49.5606 38.9954 49.5926 38.9949ZM50.255 38.3655C50.2531 38.4568 50.2709 38.5475 50.3072 38.6316C50.3435 38.7157 50.3975 38.7912 50.4656 38.8534C50.5338 38.9155 50.6145 38.9628 50.7026 38.9921C50.7906 39.0214 50.884 39.0321 50.9765 39.0235C51.0761 39.0319 51.1763 39.0186 51.27 38.9845C51.3637 38.9504 51.4486 38.8963 51.5185 38.8262C51.5885 38.756 51.6417 38.6716 51.6745 38.5788C51.7073 38.4861 51.7187 38.3874 51.7081 38.2898V36.652H51.3409V38.2898C51.3409 38.5481 51.2079 38.6861 50.9736 38.6861C50.9284 38.69 50.8829 38.6846 50.8399 38.6703C50.7969 38.656 50.7574 38.6332 50.7239 38.6032C50.6903 38.5732 50.6635 38.5367 50.645 38.496C50.6265 38.4553 50.6167 38.4113 50.6164 38.3668L50.255 38.3655ZM52.1887 38.3446C52.215 38.759 52.5676 39.0235 53.0925 39.0235C53.6531 39.0235 54.0041 38.7459 54.0041 38.3029C54.0041 37.9544 53.804 37.762 53.3184 37.651L53.0579 37.5884C52.7494 37.518 52.6248 37.4246 52.6248 37.2575C52.6248 37.0487 52.8182 36.9124 53.1087 36.9124C53.2212 36.898 53.3351 36.9256 53.4277 36.9899C53.5204 37.0541 53.5851 37.1503 53.6089 37.2592H53.9662C53.9424 37.0602 53.8394 36.8785 53.6797 36.754C53.5199 36.6295 53.3164 36.5722 53.1137 36.5946C52.5968 36.5946 52.2525 36.869 52.2525 37.2817C52.2525 37.622 52.4476 37.8242 52.8778 37.9221L53.1829 37.9942C53.496 38.0662 53.634 38.1723 53.634 38.3487C53.634 38.5535 53.4176 38.7033 53.1225 38.7033C52.8061 38.7033 52.5864 38.5637 52.5551 38.3438L52.1887 38.3446Z" fill="black"/>
</g>
<defs>
<clipPath id="clip0_2308_16670">
<rect width="39" height="23" fill="white" transform="translate(15 23)"/>
</clipPath>
</defs>
</svg>
