<svg width="70" height="70" viewBox="0 0 70 70" fill="none" xmlns="http://www.w3.org/2000/svg">
<circle cx="35" cy="35" r="34.5" fill="white" stroke="#00D8FF"/>
<g clip-path="url(#clip0_2308_16630)">
<path d="M34.9962 31.2894C36.6596 31.2894 38.0081 29.9287 38.0081 28.2502C38.0081 26.5717 36.6596 25.2109 34.9962 25.2109C33.3328 25.2109 31.9844 26.5717 31.9844 28.2502C31.9844 29.9287 33.3328 31.2894 34.9962 31.2894Z" fill="#00D8FF"/>
<path d="M35.0003 35.3611C30.7629 35.3611 27.0505 34.8545 24.2627 33.8978C20.4009 32.5626 18 30.4004 18 28.2506C18 26.182 20.2211 24.1636 23.9442 22.8505C27.5176 21.704 31.251 21.1477 35.0003 21.203C38.6979 21.1509 42.38 21.6961 45.9069 22.8182C49.7223 24.148 52.0005 26.1794 52.0005 28.2559C52.0005 30.4128 49.5174 32.5696 45.5185 33.9091C42.1062 34.9311 38.5592 35.4207 35.0003 35.3611ZM35.0003 22.9501C31.4456 22.9024 27.906 23.4255 24.514 24.4996C21.2295 25.6587 19.7313 27.2588 19.7313 28.2506C19.7313 29.3613 21.4803 31.089 24.8219 32.2428C27.4298 33.1413 30.9491 33.6124 34.9997 33.6124C38.3751 33.6742 41.7399 33.2136 44.977 32.2465C48.6141 31.0335 50.2692 29.3257 50.2692 28.2506C50.2692 27.2545 48.7283 25.648 45.3441 24.4759C41.9992 23.4121 38.5069 22.8969 35.0003 22.9501Z" fill="#00D8FF"/>
<path d="M28.1677 43.5567C27.5778 43.5698 26.9951 43.4247 26.479 43.1362C24.6975 42.1025 24.0743 39.1521 24.8117 35.2401C25.615 31.5445 27.0022 28.0033 28.92 24.7522C30.7259 21.4937 33.0359 18.5472 35.7626 16.0237C38.8086 13.3436 41.6908 12.3713 43.4718 13.4044C45.3173 14.4812 45.9368 17.7342 45.0927 21.8939C44.2671 25.3903 42.9135 28.7379 41.0794 31.8192C38.9564 35.5255 36.6654 38.5238 34.4533 40.4739C32.1932 42.4783 29.9348 43.5567 28.1677 43.5567ZM30.4208 25.6201C28.6063 28.7041 27.2876 32.0588 26.5137 35.5594C25.8633 39.0089 26.4886 41.1172 27.3439 41.6131C28.2984 42.1703 30.6572 41.5017 33.3147 39.1559C35.3844 37.3253 37.5505 34.4826 39.5796 30.9432C41.3219 28.0248 42.6084 24.8531 43.3939 21.5396C44.1617 17.7649 43.5219 15.4557 42.6032 14.9173C41.7495 14.4215 39.5999 14.9658 36.9034 17.3347C34.3222 19.7319 32.1353 22.5281 30.4245 25.6185L30.4208 25.6201Z" fill="#00D8FF"/>
<path d="M41.8297 43.5576C40.157 43.5576 38.0517 42.5508 35.8716 40.6567C33.1014 38.1119 30.7558 35.1332 28.9249 31.8351C27.0286 28.6295 25.6521 25.1387 24.8476 21.4947C24.0745 17.4971 24.6694 14.4848 26.4482 13.4495C28.2991 12.3727 31.4 13.4495 34.5442 16.2712C37.1356 18.7367 39.3347 21.5907 41.0641 24.7326C43.2014 28.4476 44.6265 31.9471 45.1841 34.8469C45.9769 38.8892 45.3228 42.069 43.4768 43.1382C42.9741 43.4223 42.4058 43.567 41.8297 43.5576ZM30.43 30.9592C32.1694 34.084 34.3897 36.9101 37.0081 39.3318C39.6406 41.6215 41.7673 42.1287 42.6225 41.6269C43.5755 41.0735 44.181 38.683 43.4954 35.1866C42.9619 32.4742 41.6126 29.1615 39.5766 25.6097C37.939 22.6305 35.8588 19.9222 33.4083 17.579C30.6707 15.1255 28.2783 14.4084 27.3259 14.9618C26.4722 15.4615 25.8634 17.615 26.5474 21.1593C27.3196 24.6116 28.6283 27.9188 30.4252 30.9581L30.43 30.9592Z" fill="#00D8FF"/>
<path d="M27.7991 55.8568L25.7716 52.8229C26.3126 52.7889 26.8183 52.5407 27.1789 52.1324C27.5395 51.7241 27.7258 51.1886 27.6972 50.6424C27.7077 50.3367 27.655 50.0322 27.5425 49.7482C27.43 49.4641 27.26 49.2069 27.0436 48.9928C26.8271 48.7787 26.5688 48.6125 26.2851 48.5046C26.0015 48.3968 25.6987 48.3498 25.396 48.3666H22.4375V55.8546H23.376V52.8692H24.8315L26.7122 55.8568H27.7991ZM25.3053 52.1111H23.376V49.2673H25.3053C25.4964 49.2513 25.6886 49.2766 25.8692 49.3417C26.0498 49.4068 26.2144 49.5102 26.3522 49.6448C26.4899 49.7794 26.5974 49.9422 26.6676 50.1223C26.7379 50.3023 26.7691 50.4955 26.7592 50.6887C26.7652 50.8811 26.7314 51.0726 26.6597 51.251C26.5881 51.4294 26.4803 51.5908 26.3432 51.7247C26.2062 51.8585 26.0429 51.962 25.8639 52.0285C25.6849 52.095 25.4941 52.1229 25.3037 52.1106L25.3053 52.1111ZM31.2244 55.9973C31.617 56.0173 32.0093 55.9513 32.3743 55.8039C32.7393 55.6565 33.0683 55.4312 33.3388 55.1434L32.9168 54.5754C32.4746 55.0064 31.8824 55.2451 31.2676 55.2403C31.0163 55.2483 30.7659 55.205 30.5316 55.1129C30.2972 55.0209 30.0837 54.882 29.9039 54.7047C29.724 54.5274 29.5815 54.3152 29.4848 54.0809C29.3882 53.8467 29.3395 53.5951 29.3415 53.3414H33.7107V53.1039C33.7107 51.4888 32.7722 50.2117 31.1278 50.2117C30.7678 50.2167 30.4125 50.2951 30.0833 50.4422C29.7541 50.5893 29.4577 50.802 29.212 51.0676C28.9662 51.3331 28.7762 51.6461 28.6534 51.9876C28.5305 52.3291 28.4773 52.6922 28.4969 53.0549C28.4969 54.8526 29.6243 55.9935 31.218 55.9935L31.2244 55.9973ZM32.9147 52.8207H29.3896C29.3857 52.3503 29.5662 51.8974 29.8918 51.5607C30.2174 51.2239 30.6617 51.0307 31.1278 51.023C31.3633 51.0181 31.5974 51.0613 31.8159 51.15C32.0345 51.2387 32.233 51.371 32.3995 51.5391C32.5661 51.7072 32.6972 51.9075 32.7851 52.128C32.873 52.3485 32.9158 52.5847 32.9109 52.8224L32.9147 52.8207ZM39.2558 55.8546V52.1569C39.2558 50.8303 38.3173 50.3091 37.1894 50.3091C36.7867 50.2955 36.3856 50.3686 36.0131 50.5235C35.6405 50.6784 35.3049 50.9117 35.0286 51.2077L35.4021 51.7757C35.6023 51.5331 35.854 51.339 36.1385 51.2077C36.423 51.0764 36.7331 51.0113 37.0459 51.0171C37.8462 51.0171 38.4086 51.443 38.4086 52.1548V53.1508C38.1896 52.8944 37.9148 52.6926 37.6058 52.561C37.2968 52.4295 36.9618 52.3717 36.6271 52.3922C36.3846 52.3771 36.1418 52.4125 35.9135 52.4962C35.6852 52.58 35.4765 52.7102 35.3002 52.8788C35.1239 53.0474 34.9839 53.2508 34.8889 53.4764C34.7939 53.7019 34.7459 53.9448 34.7479 54.1899C34.7498 54.4338 34.8003 54.6749 34.8967 54.8987C34.993 55.1224 35.1331 55.3243 35.3085 55.4921C35.484 55.66 35.6912 55.7903 35.9177 55.8755C36.1443 55.9606 36.3856 55.9987 36.6271 55.9876C36.9606 55.9982 37.2926 55.9359 37.6 55.8049C37.9075 55.674 38.1833 55.4775 38.4086 55.229V55.8454L39.2558 55.8546ZM36.9547 55.4287C36.7891 55.4489 36.6212 55.4333 36.4621 55.3829C36.303 55.3325 36.1564 55.2484 36.032 55.1364C35.9076 55.0243 35.8083 54.8868 35.7407 54.7329C35.6731 54.5791 35.6388 54.4125 35.64 54.2443C35.643 54.0773 35.6802 53.9128 35.7492 53.761C35.8182 53.6092 35.9175 53.4735 36.0409 53.3622C36.1644 53.251 36.3092 53.1668 36.4665 53.1147C36.6237 53.0627 36.7899 53.044 36.9547 53.0598C37.2323 53.0439 37.5096 53.0959 37.763 53.2114C38.0164 53.3268 38.2384 53.5024 38.4102 53.7231V54.7654C38.2352 54.9823 38.0126 55.1552 37.7599 55.2703C37.5073 55.3854 37.2316 55.4397 36.9547 55.4287ZM43.2958 55.9967C43.6762 56.0114 44.0544 55.9329 44.3982 55.768C44.7419 55.603 45.041 55.3566 45.2699 55.0497L44.707 54.5285C44.5545 54.7507 44.3509 54.9322 44.1135 55.0574C43.8761 55.1826 43.6122 55.2478 43.3444 55.2473C42.217 55.2473 41.5132 54.3487 41.5132 53.1621C41.5132 51.9755 42.2255 51.0769 43.3444 51.0769C43.6132 51.0707 43.8792 51.1334 44.1175 51.2591C44.3558 51.3848 44.5586 51.5694 44.707 51.7956L45.2699 51.2745C45.043 50.9642 44.7448 50.7142 44.4009 50.5461C44.057 50.3779 43.6778 50.2966 43.2958 50.3091C42.5744 50.3479 41.8953 50.6645 41.3982 51.1935C40.9012 51.7225 40.6241 52.4237 40.6241 53.1527C40.6241 53.8816 40.9012 54.5829 41.3982 55.1119C41.8953 55.6409 42.5744 55.9574 43.2958 55.9962V55.9967ZM47.8042 55.9967C48.1638 56.0212 48.5185 55.9016 48.7913 55.664L48.556 55.0476C48.4855 55.1267 48.3984 55.1891 48.301 55.2302C48.2037 55.2712 48.0985 55.2899 47.9931 55.285C47.6196 55.285 47.4302 55.0012 47.4302 54.5662V51.2104H48.5112V50.4518H47.4302V48.9831H46.584V50.4518H45.6936V51.2104H46.584V54.7638C46.563 54.9308 46.5801 55.1004 46.6341 55.2596C46.688 55.4189 46.7774 55.5636 46.8953 55.6826C47.0133 55.8016 47.1567 55.8918 47.3145 55.9463C47.4723 56.0007 47.6404 56.018 47.8058 55.9967H47.8042Z" fill="#00D8FF"/>
</g>
<defs>
<clipPath id="clip0_2308_16630">
<rect width="34" height="43" fill="white" transform="translate(18 13)"/>
</clipPath>
</defs>
</svg>
