<svg width="70" height="70" viewBox="0 0 70 70" fill="none" xmlns="http://www.w3.org/2000/svg">
<circle cx="35" cy="35" r="34.5" fill="white" stroke="#41B883"/>
<g clip-path="url(#clip0_2308_16652)">
<path d="M25.1508 43.4922C25.0344 43.4925 24.9207 43.5274 24.8239 43.5924C24.7682 43.6265 24.7218 43.6739 24.6887 43.7304C24.6557 43.787 24.6371 43.8509 24.6346 43.9164C24.6286 43.9636 24.6377 44.0115 24.6605 44.0531L24.651 44.0296L26.6362 50.5034C26.6709 50.6176 26.7487 50.7136 26.8529 50.7709C26.9461 50.8209 27.0503 50.8462 27.1559 50.8445C27.2683 50.8521 27.3803 50.8233 27.4753 50.7624C27.5703 50.7015 27.6435 50.6116 27.6841 50.5059L29.6672 44.0081V43.9815C29.6672 44.0141 29.6767 43.9955 29.6767 43.9244C29.6734 43.8584 29.654 43.7942 29.6201 43.7376C29.5862 43.681 29.5389 43.6337 29.4823 43.5999C29.3819 43.5304 29.263 43.4929 29.141 43.4922C29.0572 43.4918 28.9754 43.5175 28.9066 43.5656C28.8379 43.6137 28.7856 43.682 28.7569 43.7611L27.1559 49.1321L25.5489 43.7732C25.5254 43.681 25.4669 43.6017 25.386 43.5523C25.3146 43.5113 25.2335 43.4907 25.1513 43.4927L25.1508 43.4922ZM40.9622 43.8258C40.8543 43.8288 40.7498 43.8638 40.6617 43.9263C40.5735 43.9888 40.5057 44.076 40.4667 44.1771C40.4276 44.2782 40.4191 44.3886 40.4422 44.4945C40.4653 44.6004 40.519 44.6971 40.5966 44.7724C40.6741 44.8478 40.772 44.8985 40.8781 44.9182C40.9842 44.9379 41.0937 44.9257 41.1929 44.8831C41.2921 44.8406 41.3766 44.7695 41.4358 44.6789C41.495 44.5883 41.5263 44.4821 41.5257 44.3737C41.5225 44.2261 41.4614 44.0857 41.3558 43.9832C41.2502 43.8806 41.109 43.824 40.9622 43.8258ZM36.3078 45.8982C35.7954 45.8935 35.3017 46.0915 34.9334 46.4496C34.5652 46.8077 34.3518 47.297 34.3396 47.8119V48.8817C34.3344 49.1517 34.3876 49.4197 34.4956 49.667C34.6035 49.9143 34.7637 50.1351 34.9649 50.3141C35.4069 50.6791 35.9658 50.8701 36.5375 50.8515C36.9234 50.8596 37.3057 50.7749 37.6526 50.6046C37.7735 50.5443 37.8833 50.4639 37.9775 50.3667C38.0612 50.2886 38.1112 50.1808 38.117 50.0662C38.1152 49.96 38.0764 49.8577 38.0074 49.7772C37.9711 49.7282 37.9242 49.6881 37.8702 49.6599C37.8163 49.6317 37.7567 49.6162 37.696 49.6144C37.6093 49.618 37.5255 49.6467 37.4548 49.6971C37.389 49.7377 37.3267 49.7827 37.252 49.8258C37.0401 49.9477 36.7983 50.0067 36.5544 49.9961C36.217 50.0086 35.8859 49.9023 35.6181 49.6956C35.5032 49.6003 35.4116 49.4798 35.3503 49.3433C35.2891 49.2068 35.2598 49.0579 35.2649 48.9083V48.7079H37.258C37.4837 48.7291 37.7107 48.6837 37.9112 48.5772C38.0286 48.4851 38.1204 48.3642 38.1779 48.2262C38.2354 48.0881 38.2566 47.9376 38.2396 47.7889C38.237 47.5368 38.1849 47.2878 38.0863 47.056C37.9877 46.8243 37.8446 46.6143 37.6651 46.4383C37.4856 46.2623 37.2733 46.1236 37.0404 46.0302C36.8075 45.9369 36.5585 45.8906 36.3078 45.8942V45.8982ZM43.7979 45.8982C43.5661 45.8856 43.3341 45.9206 43.1162 46.001C42.8982 46.0814 42.6989 46.2056 42.5303 46.366C42.2781 46.6318 42.1389 46.9859 42.1421 47.3532C42.1347 47.5333 42.1693 47.7127 42.2431 47.8771C42.3169 48.0414 42.4278 48.1861 42.5671 48.2997C42.8263 48.483 43.1176 48.6154 43.4257 48.6899C43.6928 48.7555 43.9515 48.8519 44.1965 48.9774C44.2908 49.0241 44.3691 49.0981 44.4213 49.1898C44.4735 49.2815 44.4972 49.3868 44.4895 49.4922C44.4932 49.5598 44.4806 49.6273 44.4527 49.6889C44.4247 49.7505 44.3823 49.8044 44.329 49.8458C44.1325 49.9743 43.899 50.0335 43.6653 50.0141C43.3887 50.0277 43.1144 49.9579 42.8776 49.8138C42.7958 49.7637 42.7281 49.7106 42.6628 49.6635C42.5926 49.6042 42.5052 49.5691 42.4137 49.5634C42.3569 49.5653 42.3016 49.5812 42.2523 49.6096C42.2031 49.6379 42.1615 49.6779 42.1311 49.7261C42.0726 49.8073 42.0407 49.9048 42.0399 50.0051C42.0463 50.1311 42.0997 50.25 42.1894 50.3382C42.2896 50.4438 42.4077 50.5306 42.5382 50.5946C42.8971 50.7692 43.2921 50.8561 43.6907 50.848C44.1294 50.8708 44.5624 50.741 44.917 50.4804C45.0653 50.3564 45.1836 50.2002 45.263 50.0236C45.3424 49.8469 45.3808 49.6545 45.3754 49.4607C45.3844 49.2684 45.3514 49.0764 45.2787 48.8983C45.2061 48.7201 45.0955 48.5601 44.9549 48.4295C44.6998 48.2248 44.404 48.0777 44.0874 47.9982C43.8196 47.93 43.5576 47.8409 43.3036 47.7318C43.1097 47.6316 43.0186 47.5365 43.0186 47.3206C43.0198 47.2496 43.035 47.1796 43.0632 47.1146C43.0914 47.0495 43.1321 46.9907 43.183 46.9415C43.3556 46.7926 43.58 46.7186 43.8068 46.7356C44.0123 46.7352 44.2157 46.7766 44.4048 46.8573C44.481 46.8884 44.5473 46.9214 44.6101 46.9485C44.6731 46.9816 44.7428 47 44.8139 47.0026C44.8781 46.9995 44.9405 46.9803 44.9955 46.9467C45.0504 46.9131 45.0961 46.8662 45.1283 46.8102C45.189 46.7265 45.2228 46.6259 45.2249 46.5223C45.2216 46.4634 45.2044 46.4061 45.1747 46.3552C45.1451 46.3043 45.1039 46.2611 45.0545 46.2293C44.9532 46.1551 44.8414 46.0969 44.7227 46.0565C44.4254 45.9514 44.113 45.8979 43.7979 45.8982ZM30.2158 45.9558C30.1592 45.9502 30.102 45.956 30.0477 45.9728C29.9933 45.9897 29.9428 46.0172 29.8992 46.054C29.8556 46.0907 29.8197 46.1358 29.7936 46.1866C29.7676 46.2374 29.7519 46.293 29.7474 46.35V48.9002C29.7474 49.4229 29.954 49.9241 30.3216 50.2936C30.6893 50.6632 31.188 50.8708 31.7079 50.8708C32.2279 50.8708 32.7265 50.6632 33.0942 50.2936C33.4618 49.9241 33.6684 49.4229 33.6684 48.9002V46.3405C33.6669 46.2846 33.6526 46.2299 33.6267 46.1805C33.6008 46.131 33.5639 46.0883 33.5189 46.0555C33.4293 45.9888 33.3204 45.9536 33.209 45.9553C33.097 45.9545 32.9878 45.9896 32.897 46.0555C32.8504 46.0876 32.8119 46.1303 32.7848 46.1802C32.7577 46.2301 32.7427 46.2857 32.7411 46.3425V48.9023C32.7441 49.0405 32.7196 49.1781 32.6691 49.3067C32.6185 49.4354 32.5429 49.5526 32.4466 49.6514C32.3504 49.7503 32.2355 49.8289 32.1086 49.8825C31.9818 49.9362 31.8455 49.9638 31.7079 49.9638C31.5703 49.9638 31.434 49.9362 31.3072 49.8825C31.1803 49.8289 31.0654 49.7503 30.9692 49.6514C30.8729 49.5526 30.7973 49.4354 30.7468 49.3067C30.6962 49.1781 30.6717 49.0405 30.6747 48.9023V46.3505C30.673 46.2949 30.6586 46.2404 30.6327 46.1913C30.6068 46.1422 30.57 46.0996 30.5252 46.067C30.4375 45.9954 30.3279 45.9563 30.2148 45.9563L30.2158 45.9558ZM40.9622 45.9558C40.8502 45.9525 40.7403 45.9863 40.6493 46.052C40.6046 46.0858 40.5683 46.1294 40.543 46.1795C40.5177 46.2296 40.5041 46.2848 40.5033 46.341V51.0403C40.5198 51.3199 40.486 51.6002 40.4036 51.8677C40.3264 52.0465 40.2357 52.1262 39.9761 52.1262C39.8622 52.1298 39.7543 52.1782 39.6755 52.261C39.5968 52.3438 39.5535 52.4544 39.555 52.5689C39.5536 52.6786 39.5943 52.7846 39.6686 52.8649C39.7155 52.9104 39.7711 52.9459 39.832 52.9693C39.8928 52.9927 39.9578 53.0035 40.0229 53.0011C40.2399 53.0096 40.4553 52.9607 40.6477 52.8594C40.84 52.7581 41.0026 52.6078 41.1191 52.4237C41.3495 52.0008 41.4579 51.5217 41.432 51.0403V46.341C41.4305 46.2832 41.4154 46.2266 41.388 46.1759C41.3605 46.1251 41.3215 46.0816 41.2741 46.049C41.1826 45.9862 41.0739 45.9537 40.9632 45.9558H40.9622ZM36.2978 46.7261C36.5725 46.7281 36.8352 46.8393 37.0285 47.0355C37.2218 47.2317 37.3299 47.4968 37.3292 47.7729C37.3307 47.8108 37.3267 47.8488 37.3173 47.8855C37.3113 47.9026 37.3118 47.9006 37.3033 47.9061C37.2083 47.9367 37.1084 47.9489 37.0088 47.9421H35.2649V47.7348C35.2691 47.4634 35.3802 47.2048 35.5738 47.0156C35.7674 46.8264 36.0278 46.7221 36.2978 46.7256V46.7261ZM39.2436 49.643C39.1249 49.6399 39.0079 49.6724 38.9077 49.7364C38.8074 49.8004 38.7284 49.8929 38.6807 50.0022C38.6329 50.1116 38.6187 50.2327 38.6397 50.3502C38.6607 50.4676 38.716 50.5762 38.7987 50.6619C38.8813 50.7477 38.9874 50.8067 39.1036 50.8316C39.2198 50.8565 39.3406 50.846 39.4509 50.8016C39.5611 50.7571 39.6556 50.6807 39.7225 50.582C39.7893 50.4833 39.8254 50.3669 39.8261 50.2475C39.8271 50.0902 39.7666 49.9387 39.6577 49.8257C39.5488 49.7126 39.4001 49.6471 39.2436 49.643Z" fill="#35495E"/>
<path d="M24.9062 13.1211H31.0161L35.0098 19.7823L38.9896 13.1211H45.094L35.0402 30.6505L24.9062 13.1211Z" fill="#35495E"/>
<path d="M18.2422 13.1711L24.9002 13.125L35.0342 30.6544L45.0884 13.125L51.7584 13.132L35.0332 41.9843L18.2422 13.1711Z" fill="#41B883"/>
</g>
<defs>
<clipPath id="clip0_2308_16652">
<rect width="34" height="40" fill="white" transform="translate(18 13)"/>
</clipPath>
</defs>
</svg>
